<svg width="187" height="62" viewBox="0 0 187 62" fill="none" xmlns="http://www.w3.org/2000/svg">
<g clip-path="url(#clip0_925_49540)">
<path d="M24.8647 0.857056V27.855H20.4422V8.74746L15.7485 15.6965L14.667 17.3203L14.2992 17.8686H10.6309L9.43409 16.0743L4.54716 8.80534V27.855H0.143311V0.857056H4.46924L10.9581 10.5053L12.4261 12.6957L14.3397 9.90207L20.4827 0.860105H24.8647V0.857056Z" fill="#333333"/>
<path d="M51.1725 0.857056V27.8733H46.7313V10.1275L46.2108 10.7521C45.1293 11.9097 43.8421 13.1801 42.3492 14.5662L42.1747 14.7368C41.1961 15.6569 40.2174 16.5922 39.2388 17.5488C37.5402 19.1969 36.2188 20.7445 35.2806 22.1947C34.2366 24.0073 33.4387 25.9022 32.887 27.8763H28.4645V0.857056H32.887V18.2464C34.0714 16.7628 35.4365 15.2883 36.9823 13.829C37.7927 13.0369 38.5968 12.2692 39.3977 11.5259C39.6284 11.3004 39.8621 11.078 40.0928 10.8648C41.3145 9.71929 42.3399 8.69262 43.1627 7.78781C44.2317 6.56617 45.0358 5.36281 45.5781 4.17163C46.1173 2.9835 46.5037 1.87763 46.7375 0.857056H51.1725Z" fill="#333333"/>
<path d="M77.1125 0.857056V27.7423H72.7087V5.16174H62.2585V16.452C62.2585 18.2129 62.0715 19.7178 61.6975 20.9639C61.3235 22.2099 60.8685 23.2487 60.3262 24.0804C59.7839 24.9121 59.2385 25.5671 58.6837 26.0454C58.2068 26.4597 57.7393 26.8009 57.2843 27.066C56.8261 27.331 56.4085 27.5351 56.0283 27.6783C55.6481 27.8246 55.3364 27.9251 55.0902 27.9799C54.844 28.0378 54.6912 28.0713 54.6258 28.0835L54.0087 23.8154H53.99C54.0804 23.8032 54.3017 23.7209 54.657 23.5686C55.0123 23.4163 55.4143 23.133 55.8631 22.7186C57.1877 21.3599 57.8515 19.27 57.8515 16.449V0.857056H77.1125Z" fill="#333333"/>
<path d="M103.688 0.857056V27.7423H99.2845V5.16174H88.8343V16.452C88.8343 18.2129 88.6473 19.7178 88.2733 20.9639C87.8993 22.2099 87.4443 23.2487 86.902 24.0804C86.3597 24.9121 85.8143 25.5671 85.2595 26.0454C84.7826 26.4597 84.3151 26.8009 83.8601 27.066C83.402 27.331 82.9843 27.5351 82.6041 27.6783C82.2239 27.8246 81.9122 27.9251 81.666 27.9799C81.4198 28.0378 81.267 28.0713 81.2016 28.0835L80.5845 23.8154H80.5658C80.6562 23.8032 80.8775 23.7209 81.2328 23.5686C81.5881 23.4163 81.9901 23.133 82.4389 22.7186C83.7635 21.3599 84.4274 19.27 84.4274 16.449V0.857056H103.688Z" fill="#333333"/>
<path d="M131.037 0.857056V27.8733H126.596V10.1275L126.075 10.7521C124.994 11.9097 123.707 13.1801 122.214 14.5662L122.039 14.7368C121.061 15.6569 120.082 16.5922 119.103 17.5488C117.405 19.1969 116.083 20.7445 115.145 22.1947C114.101 24.0073 113.303 25.9022 112.752 27.8763H108.329V0.857056H112.752V18.2464C113.936 16.7628 115.301 15.2883 116.847 13.829C117.657 13.0369 118.461 12.2692 119.262 11.5259C119.493 11.3004 119.727 11.078 119.957 10.8648C121.179 9.71929 122.204 8.69262 123.027 7.78781C124.096 6.56617 124.9 5.36281 125.443 4.17163C125.982 2.9835 126.368 1.87763 126.602 0.857056H131.037Z" fill="#333333"/>
<path d="M147.34 0.53717C149.824 0.53717 152.084 1.15256 154.119 2.38639C156.154 3.62022 157.778 5.27445 158.997 7.35216C160.212 9.42986 160.823 11.733 160.823 14.2616C160.823 16.778 160.215 19.075 158.997 21.1527C157.781 23.2304 156.154 24.8847 154.119 26.1185C152.084 27.3523 149.824 27.9677 147.34 27.9677C144.869 27.9677 142.612 27.3523 140.571 26.1185C138.53 24.8847 136.903 23.2304 135.693 21.1527C134.484 19.075 133.876 16.778 133.876 14.2616C133.876 11.733 134.481 9.42986 135.693 7.35216C136.903 5.27445 138.53 3.62022 140.571 2.38639C142.612 1.15256 144.869 0.53717 147.34 0.53717ZM147.34 23.5686C149.002 23.5686 150.507 23.1512 151.86 22.3134C153.212 21.4757 154.294 20.3546 155.104 18.944C155.914 17.5335 156.319 15.9737 156.319 14.2616C156.319 12.5495 155.914 10.9866 155.104 9.57001C154.294 8.15339 153.212 7.02923 151.86 6.19145C150.507 5.35366 149.002 4.9363 147.34 4.9363C145.692 4.9363 144.189 5.35366 142.831 6.19145C141.472 7.02923 140.39 8.15644 139.586 9.57001C138.782 10.9866 138.38 12.5495 138.38 14.2616C138.38 15.9737 138.782 17.5335 139.586 18.944C140.39 20.3546 141.472 21.4757 142.831 22.3134C144.189 23.1512 145.692 23.5686 147.34 23.5686Z" fill="#333333"/>
<path d="M186.86 0.744324V27.9129H182.418V15.0933C182.406 15.0933 182.393 15.0994 182.381 15.1116C181.119 15.4528 179.9 15.7391 178.722 15.9706C177.544 16.2052 176.117 16.3576 174.443 16.4337C173.296 16.4855 172.143 16.5099 170.986 16.5099C170.164 16.5099 169.338 16.5038 168.515 16.4916V27.9129H164.052V0.744324H168.515V12.129C169.416 12.1534 170.31 12.1656 171.198 12.1656C172.23 12.1656 173.24 12.1412 174.231 12.0894C175.674 12.0255 176.899 11.8945 177.912 11.6934C178.922 11.4923 180.028 11.2273 181.225 10.9013C181.599 10.813 181.998 10.7124 182.422 10.5997V0.744324H186.86Z" fill="#333333"/>
<path d="M29.0161 34.472V61.4699H24.5935V42.3624L19.8998 49.3114L18.8183 50.9352L18.4506 51.4835H14.7823L13.5855 49.6892L8.69853 42.4203V61.4699H4.29468V34.472H8.62061L15.1095 44.1202L16.5775 46.3106L18.4911 43.517L24.634 34.475H29.0161V34.472Z" fill="#333333"/>
<path d="M36.9543 45.9115H52.6965V50.2528H36.9543V57.1622H52.6373V61.5034H32.5099V34.4293H36.4899C36.6457 34.4415 36.7984 34.4476 36.9543 34.4476C37.9983 34.4598 39.0393 34.4659 40.0834 34.4659C41.1275 34.4659 42.1435 34.4476 43.1346 34.408C44.5652 34.344 45.7807 34.213 46.7842 34.0119C47.7878 33.8109 48.8911 33.5458 50.0879 33.2199C50.6676 33.0675 51.3096 32.9061 52.0202 32.7294L53.1204 36.9213C52.4254 37.098 51.7989 37.2625 51.2473 37.4118C49.985 37.753 48.7695 38.0394 47.5977 38.2709C46.4258 38.5055 45.0015 38.6578 43.3278 38.734C42.1934 38.7858 41.0496 38.8102 39.8902 38.8102C38.9115 38.8102 37.9329 38.798 36.9543 38.7736V45.9115ZM36.9543 34.4324V34.4506C36.7984 34.4506 36.6457 34.4445 36.4899 34.4324H36.9543Z" fill="#333333"/>
<path d="M78.6179 34.472V61.3572H74.2141V38.7767H63.7639V50.0669C63.7639 51.8278 63.5769 53.3328 63.2029 54.5788C62.8289 55.8248 62.3738 56.8636 61.8316 57.6953C61.2892 58.527 60.7438 59.182 60.1891 59.6603C59.7122 60.0746 59.2447 60.4158 58.7897 60.6809C58.3315 60.9459 57.9139 61.15 57.5337 61.2932C57.1534 61.4395 56.8418 61.54 56.5955 61.5948C56.3493 61.6527 56.1966 61.6862 56.1312 61.6984L55.5141 57.4303H55.4954C55.5857 57.4181 55.807 57.3358 56.1623 57.1835C56.5176 57.0312 56.9197 56.7479 57.3685 56.3336C58.6931 54.9748 59.3569 52.8849 59.3569 50.0639V34.4689H78.6179V34.472Z" fill="#333333"/>
<path d="M95.5569 34.149C98.0409 34.149 100.3 34.7644 102.336 35.9983C104.371 37.2321 105.995 38.8863 107.213 40.964C108.429 43.0417 109.04 45.3449 109.04 47.8735C109.04 50.3899 108.432 52.6869 107.213 54.7646C105.998 56.8423 104.371 58.4966 102.336 59.7304C100.3 60.9642 98.0409 61.5796 95.5569 61.5796C93.0854 61.5796 90.8289 60.9642 88.7875 59.7304C86.7461 58.4966 85.1192 56.8423 83.9099 54.7646C82.7007 52.6869 82.0929 50.3899 82.0929 47.8735C82.0929 45.3449 82.6975 43.0417 83.9099 40.964C85.1192 38.8863 86.7461 37.2321 88.7875 35.9983C90.8289 34.7675 93.0854 34.149 95.5569 34.149ZM95.5569 57.1835C97.2181 57.1835 98.7234 56.7662 100.076 55.9284C101.429 55.0906 102.51 53.9695 103.321 52.559C104.131 51.1484 104.536 49.5886 104.536 47.8765C104.536 46.1644 104.131 44.6015 103.321 43.1849C102.51 41.7683 101.429 40.6442 100.076 39.8064C98.7234 38.9686 97.2181 38.5512 95.5569 38.5512C93.9082 38.5512 92.4059 38.9686 91.0471 39.8064C89.6882 40.6442 88.6067 41.7713 87.8026 43.1849C86.9985 44.6015 86.5965 46.1644 86.5965 47.8765C86.5965 49.5886 86.9985 51.1484 87.8026 52.559C88.6067 53.9695 89.6882 55.0906 91.0471 55.9284C92.4059 56.7662 93.9082 57.1835 95.5569 57.1835Z" fill="#333333"/>
<path d="M133.512 34.472V61.5065H129.089V52.8392H121.188C121.098 52.8392 121.008 52.8331 120.917 52.821C118.343 52.696 116.202 51.7821 114.494 50.0822C112.789 48.3822 111.888 46.268 111.798 43.7394V34.4689H116.22V43.7394C116.286 45.0859 116.791 46.2162 117.735 47.1271C118.683 48.041 119.829 48.4949 121.182 48.4949H129.083V34.4659H133.512V34.472Z" fill="#333333"/>
<path d="M141.294 45.9115H157.036V50.2528H141.294V57.1622H156.977V61.5034H136.853V34.4293H140.833C140.989 34.4415 141.141 34.4476 141.297 34.4476C142.341 34.4598 143.382 34.4659 144.426 34.4659C145.47 34.4659 146.486 34.4476 147.478 34.408C148.908 34.344 150.124 34.213 151.127 34.0119C152.131 33.8109 153.234 33.5458 154.431 33.2199C155.01 33.0675 155.653 32.9061 156.363 32.7294L157.463 36.9213C156.768 37.098 156.142 37.2625 155.59 37.4118C154.328 37.753 153.112 38.0394 151.941 38.2709C150.769 38.5055 149.344 38.6578 147.671 38.734C146.536 38.7858 145.392 38.8102 144.233 38.8102C143.254 38.8102 142.276 38.798 141.297 38.7736V45.9115H141.294ZM141.294 34.4324V34.4506C141.138 34.4506 140.985 34.4445 140.83 34.4324H141.294Z" fill="#333333"/>
<path d="M183.4 34.472V61.4334H178.978V43.7211C178.809 43.9222 178.635 44.1232 178.457 44.3243C177.388 45.482 176.101 46.7585 174.596 48.1568C174.543 48.2055 174.487 48.2573 174.421 48.3091C173.442 49.2292 172.47 50.1644 171.504 51.121C169.805 52.7692 168.49 54.3107 167.564 55.7456C166.52 57.5582 165.722 59.4532 165.171 61.4273H160.748V34.4659H165.171V51.8156C166.343 50.3442 167.702 48.8697 169.247 47.3982C170.058 46.6061 170.856 45.8384 171.641 45.0951C171.884 44.8818 172.124 44.6594 172.355 44.434C173.576 43.3007 174.602 42.2832 175.425 41.3753C176.494 40.1537 177.295 38.9503 177.831 37.7591C178.364 36.571 178.747 35.4712 178.981 34.4659H183.4V34.472ZM169.649 34.0181C168.605 34.0181 167.546 34.012 166.461 33.9998V30.1094C166.988 30.1094 167.904 30.1155 169.204 30.1277C170.17 30.1277 171.124 30.1155 172.062 30.0911C173.414 30.0028 174.53 29.8322 175.412 29.5824C176.294 29.3295 176.896 29.1467 177.217 29.034L178.202 32.8086C177.881 32.9213 177.179 33.1254 176.098 33.4209C175.016 33.7165 173.695 33.9145 172.14 34.015C171.819 34.0272 171.529 34.0333 171.27 34.0333C170.768 34.0363 170.229 34.0302 169.649 34.0181Z" fill="#333333"/>
</g>
<defs>
<clipPath id="clip0_925_49540">
<rect width="187" height="62" fill="white"/>
</clipPath>
</defs>
</svg>
