<svg width="94" height="130" viewBox="0 0 94 130" fill="none" xmlns="http://www.w3.org/2000/svg">
<g filter="url(#filter0_b_925_50461)">
<circle cx="47" cy="107" r="23" fill="#ED1E79" fill-opacity="0.25"/>
</g>
<circle cx="47" cy="107" r="7.5" fill="#ED1E79" stroke="white"/>
<g filter="url(#filter1_b_925_50461)">
<path d="M94 46.2222C94 79.3305 62.243 99.0753 50.9374 105.055C48.4515 106.37 45.5548 106.358 43.0785 105.025C31.7867 98.9477 0 78.9348 0 46.2222C0 20.6944 21.0426 0 47 0C72.9574 0 94 20.6944 94 46.2222Z" fill="white" fill-opacity="0.05"/>
<path d="M93.5 46.2222C93.5 62.605 85.6451 75.7011 76.3462 85.4671C67.0458 95.2347 56.3323 101.636 50.7036 104.613C48.3654 105.85 45.6453 105.839 43.3154 104.585C37.693 101.559 26.9744 95.0657 17.6674 85.2675C8.36105 75.4701 0.5 62.4058 0.5 46.2222C0.5 20.9784 21.3109 0.5 47 0.5C72.6891 0.5 93.5 20.9784 93.5 46.2222Z" stroke="white"/>
</g>
<circle cx="47" cy="47" r="39" fill="white"/>
<path d="M38.9484 26.4865V37.1346C38.9484 38.114 38.1521 38.9068 37.1711 38.9068H26.4924C25.5102 38.9068 24.7151 38.1127 24.7151 37.1346V26.4865C24.7151 25.5071 25.5114 24.7143 26.4924 24.7143H37.1711C38.1533 24.7143 38.9484 25.5084 38.9484 26.4865Z" fill="#3C6A75"/>
<path d="M37.1711 54.1647H26.4924C25.5102 54.1647 24.7151 54.9587 24.7151 55.9369V66.585C24.7151 67.5643 25.5114 68.3572 26.4924 68.3572H37.1711C38.1533 68.3572 38.9484 67.5631 38.9484 66.585V55.9369C38.9484 54.9575 38.1533 54.1647 37.1711 54.1647Z" fill="#3C6A75"/>
<path d="M51.9384 24.7143H41.2597C40.2775 24.7143 39.4824 25.5084 39.4824 26.4865V37.1346C39.4824 38.114 40.2788 38.9068 41.2597 38.9068H51.9384C52.9206 38.9068 53.7158 38.1127 53.7158 37.1346V26.4865C53.7158 25.5084 52.9206 24.7143 51.9384 24.7143Z" fill="#F1CF57"/>
<path d="M26.4924 53.6319H37.1711C38.1533 53.6319 38.9484 52.8378 38.9484 51.8597V41.2116C38.9484 40.2322 38.1521 39.4394 37.1711 39.4394H26.4924C25.5102 39.4394 24.7151 40.2335 24.7151 41.2116V51.8597C24.7151 52.8391 25.5114 53.6319 26.4924 53.6319Z" fill="#F1CF57"/>
<path d="M51.9384 54.1647H41.2597C40.2775 54.1647 39.4824 54.9587 39.4824 55.9369V66.585C39.4824 67.5643 40.2788 68.3572 41.2597 68.3572H51.9384C52.9206 68.3572 53.7158 67.5631 53.7158 66.585V55.9369C53.7158 54.9575 52.9206 54.1647 51.9384 54.1647Z" fill="#ED1E79"/>
<path d="M66.7058 24.7143H56.0271C55.0449 24.7143 54.2498 25.5084 54.2498 26.4865V37.1346C54.2498 38.114 55.0461 38.9068 56.0271 38.9068H66.7058C67.688 38.9068 68.4831 38.1127 68.4831 37.1346V26.4865C68.4831 25.5084 67.6867 24.7143 66.7058 24.7143Z" fill="#ED1E79"/>
<path d="M66.7058 39.4394H56.0271C55.0449 39.4394 54.2498 40.2335 54.2498 41.2116V51.8597C54.2498 52.8391 55.0461 53.6319 56.0271 53.6319H66.7058C67.688 53.6319 68.4831 52.8378 68.4831 51.8597V41.2116C68.4831 40.2322 67.6867 39.4394 66.7058 39.4394Z" fill="#ED1E79"/>
<path d="M66.7058 54.1647H56.0271C55.0449 54.1647 54.2498 54.9587 54.2498 55.9369V66.585C54.2498 67.5643 55.0461 68.3572 56.0271 68.3572H66.7058C67.688 68.3572 68.4831 67.5631 68.4831 66.585V55.9369C68.4831 54.9575 67.6867 54.1647 66.7058 54.1647Z" fill="#F1CF57"/>
<path d="M51.9377 53.6317H49.6964V45.4861L46.5602 49.6062L43.5373 45.4861L43.5004 53.6317H41.259C40.2768 53.6317 39.4817 52.8377 39.4817 51.8595V41.2114C39.4817 40.232 40.278 39.4392 41.259 39.4392H43.2936L46.5614 43.9336L49.9044 39.4392H51.9389C52.9211 39.4392 53.7163 40.2333 53.7163 41.2114V51.8595C53.715 52.8389 52.9199 53.6317 51.9377 53.6317Z" fill="#3C6A75"/>
<defs>
<filter id="filter0_b_925_50461" x="20" y="80" width="54" height="54" filterUnits="userSpaceOnUse" color-interpolation-filters="sRGB">
<feFlood flood-opacity="0" result="BackgroundImageFix"/>
<feGaussianBlur in="BackgroundImageFix" stdDeviation="2"/>
<feComposite in2="SourceAlpha" operator="in" result="effect1_backgroundBlur_925_50461"/>
<feBlend mode="normal" in="SourceGraphic" in2="effect1_backgroundBlur_925_50461" result="shape"/>
</filter>
<filter id="filter1_b_925_50461" x="-9" y="-9" width="112" height="124.033" filterUnits="userSpaceOnUse" color-interpolation-filters="sRGB">
<feFlood flood-opacity="0" result="BackgroundImageFix"/>
<feGaussianBlur in="BackgroundImageFix" stdDeviation="4.5"/>
<feComposite in2="SourceAlpha" operator="in" result="effect1_backgroundBlur_925_50461"/>
<feBlend mode="normal" in="SourceGraphic" in2="effect1_backgroundBlur_925_50461" result="shape"/>
</filter>
</defs>
</svg>
