<svg width="30" height="30" fill="none" xmlns="http://www.w3.org/2000/svg"><path d="M20.938 4.45V2.5A.944.944 0 0 0 20 1.562a.944.944 0 0 0-.938.938v1.875h-8.125V2.5A.944.944 0 0 0 10 1.562a.944.944 0 0 0-.938.938v1.95C5.687 4.763 4.05 6.775 3.8 9.762a.628.628 0 0 0 .625.663h21.15c.363 0 .663-.313.625-.663-.25-2.987-1.887-5-5.262-5.312Z" fill="#1C1C1C"/><path d="M20.938 4.45V2.5A.944.944 0 0 0 20 1.562a.944.944 0 0 0-.938.938v1.875h-8.125V2.5A.944.944 0 0 0 10 1.562a.944.944 0 0 0-.938.938v1.95C5.687 4.763 4.05 6.775 3.8 9.762a.628.628 0 0 0 .625.663h21.15c.363 0 .663-.313.625-.663-.25-2.987-1.887-5-5.262-5.312Z" fill="#000" fill-opacity=".2"/><path d="M20.938 4.45V2.5A.944.944 0 0 0 20 1.562a.944.944 0 0 0-.938.938v1.875h-8.125V2.5A.944.944 0 0 0 10 1.562a.944.944 0 0 0-.938.938v1.95C5.687 4.763 4.05 6.775 3.8 9.762a.628.628 0 0 0 .625.663h21.15c.363 0 .663-.313.625-.663-.25-2.987-1.887-5-5.262-5.312Z" fill="#000" fill-opacity=".2"/><path d="M20.938 4.45V2.5A.944.944 0 0 0 20 1.562a.944.944 0 0 0-.938.938v1.875h-8.125V2.5A.944.944 0 0 0 10 1.562a.944.944 0 0 0-.938.938v1.95C5.687 4.763 4.05 6.775 3.8 9.762a.628.628 0 0 0 .625.663h21.15c.363 0 .663-.313.625-.663-.25-2.987-1.887-5-5.262-5.312Z" fill="#000" fill-opacity=".2"/><path d="M25 12.3H5c-.688 0-1.25.563-1.25 1.25v7.7C3.75 25 5.625 27.5 10 27.5h10c4.375 0 6.25-2.5 6.25-6.25v-7.7c0-.688-.563-1.25-1.25-1.25ZM11.512 22.762c-.062.05-.125.113-.187.15a.946.946 0 0 1-.225.113.795.795 0 0 1-.225.075c-.088.012-.162.025-.25.025-.162 0-.325-.038-.475-.1a1.29 1.29 0 0 1-.412-.262 1.314 1.314 0 0 1-.363-.888c0-.325.137-.65.363-.887.125-.113.25-.2.412-.263.225-.1.475-.125.725-.075.075.013.15.038.225.075.075.025.15.063.225.112l.188.15c.225.238.362.563.362.888 0 .325-.137.65-.363.887Zm0-4.375a1.314 1.314 0 0 1-.887.363c-.325 0-.65-.137-.887-.363a1.314 1.314 0 0 1-.363-.887c0-.325.137-.65.363-.887.35-.35.9-.463 1.362-.263.162.063.3.15.412.262.226.238.363.563.363.888 0 .325-.137.65-.363.887Zm4.375 4.375a1.314 1.314 0 0 1-.887.363c-.325 0-.65-.137-.887-.363a1.314 1.314 0 0 1-.363-.887c0-.325.137-.65.363-.887.462-.463 1.312-.463 1.774 0 .226.237.363.562.363.887 0 .325-.137.65-.363.887Zm0-4.375-.187.15a.946.946 0 0 1-.225.113.795.795 0 0 1-.225.075c-.088.012-.162.025-.25.025-.325 0-.65-.137-.887-.363a1.314 1.314 0 0 1-.363-.887c0-.325.137-.65.363-.887.112-.113.25-.2.412-.263a1.249 1.249 0 0 1 1.362.262c.226.238.363.563.363.888 0 .325-.137.65-.363.887Zm4.375 4.375a1.314 1.314 0 0 1-.887.363c-.325 0-.65-.137-.887-.363a1.314 1.314 0 0 1-.363-.887c0-.325.137-.65.363-.887.462-.463 1.312-.463 1.774 0 .226.237.363.562.363.887 0 .325-.137.65-.363.887Zm0-4.375-.187.15a.946.946 0 0 1-.225.113.795.795 0 0 1-.225.075 1.879 1.879 0 0 1-.25.025c-.325 0-.65-.137-.887-.363a1.314 1.314 0 0 1-.363-.887c0-.325.137-.65.363-.887.125-.113.25-.2.412-.263.225-.1.475-.125.725-.075.075.013.15.038.225.075.075.025.15.063.225.112l.188.15c.224.238.362.563.362.888 0 .325-.137.65-.363.887Z" fill="#1C1C1C"/><path d="M25 12.3H5c-.688 0-1.25.563-1.25 1.25v7.7C3.75 25 5.625 27.5 10 27.5h10c4.375 0 6.25-2.5 6.25-6.25v-7.7c0-.688-.563-1.25-1.25-1.25ZM11.512 22.762c-.062.05-.125.113-.187.15a.946.946 0 0 1-.225.113.795.795 0 0 1-.225.075c-.088.012-.162.025-.25.025-.162 0-.325-.038-.475-.1a1.29 1.29 0 0 1-.412-.262 1.314 1.314 0 0 1-.363-.888c0-.325.137-.65.363-.887.125-.113.25-.2.412-.263.225-.1.475-.125.725-.075.075.013.15.038.225.075.075.025.15.063.225.112l.188.15c.225.238.362.563.362.888 0 .325-.137.65-.363.887Zm0-4.375a1.314 1.314 0 0 1-.887.363c-.325 0-.65-.137-.887-.363a1.314 1.314 0 0 1-.363-.887c0-.325.137-.65.363-.887.35-.35.9-.463 1.362-.263.162.063.3.15.412.262.226.238.363.563.363.888 0 .325-.137.65-.363.887Zm4.375 4.375a1.314 1.314 0 0 1-.887.363c-.325 0-.65-.137-.887-.363a1.314 1.314 0 0 1-.363-.887c0-.325.137-.65.363-.887.462-.463 1.312-.463 1.774 0 .226.237.363.562.363.887 0 .325-.137.65-.363.887Zm0-4.375-.187.15a.946.946 0 0 1-.225.113.795.795 0 0 1-.225.075c-.088.012-.162.025-.25.025-.325 0-.65-.137-.887-.363a1.314 1.314 0 0 1-.363-.887c0-.325.137-.65.363-.887.112-.113.25-.2.412-.263a1.249 1.249 0 0 1 1.362.262c.226.238.363.563.363.888 0 .325-.137.65-.363.887Zm4.375 4.375a1.314 1.314 0 0 1-.887.363c-.325 0-.65-.137-.887-.363a1.314 1.314 0 0 1-.363-.887c0-.325.137-.65.363-.887.462-.463 1.312-.463 1.774 0 .226.237.363.562.363.887 0 .325-.137.65-.363.887Zm0-4.375-.187.15a.946.946 0 0 1-.225.113.795.795 0 0 1-.225.075 1.879 1.879 0 0 1-.25.025c-.325 0-.65-.137-.887-.363a1.314 1.314 0 0 1-.363-.887c0-.325.137-.65.363-.887.125-.113.25-.2.412-.263.225-.1.475-.125.725-.075.075.013.15.038.225.075.075.025.15.063.225.112l.188.15c.224.238.362.563.362.888 0 .325-.137.65-.363.887Z" fill="#000" fill-opacity=".2"/><path d="M25 12.3H5c-.688 0-1.25.563-1.25 1.25v7.7C3.75 25 5.625 27.5 10 27.5h10c4.375 0 6.25-2.5 6.25-6.25v-7.7c0-.688-.563-1.25-1.25-1.25ZM11.512 22.762c-.062.05-.125.113-.187.15a.946.946 0 0 1-.225.113.795.795 0 0 1-.225.075c-.088.012-.162.025-.25.025-.162 0-.325-.038-.475-.1a1.29 1.29 0 0 1-.412-.262 1.314 1.314 0 0 1-.363-.888c0-.325.137-.65.363-.887.125-.113.25-.2.412-.263.225-.1.475-.125.725-.075.075.013.15.038.225.075.075.025.15.063.225.112l.188.15c.225.238.362.563.362.888 0 .325-.137.65-.363.887Zm0-4.375a1.314 1.314 0 0 1-.887.363c-.325 0-.65-.137-.887-.363a1.314 1.314 0 0 1-.363-.887c0-.325.137-.65.363-.887.35-.35.9-.463 1.362-.263.162.063.3.15.412.262.226.238.363.563.363.888 0 .325-.137.65-.363.887Zm4.375 4.375a1.314 1.314 0 0 1-.887.363c-.325 0-.65-.137-.887-.363a1.314 1.314 0 0 1-.363-.887c0-.325.137-.65.363-.887.462-.463 1.312-.463 1.774 0 .226.237.363.562.363.887 0 .325-.137.65-.363.887Zm0-4.375-.187.15a.946.946 0 0 1-.225.113.795.795 0 0 1-.225.075c-.088.012-.162.025-.25.025-.325 0-.65-.137-.887-.363a1.314 1.314 0 0 1-.363-.887c0-.325.137-.65.363-.887.112-.113.25-.2.412-.263a1.249 1.249 0 0 1 1.362.262c.226.238.363.563.363.888 0 .325-.137.65-.363.887Zm4.375 4.375a1.314 1.314 0 0 1-.887.363c-.325 0-.65-.137-.887-.363a1.314 1.314 0 0 1-.363-.887c0-.325.137-.65.363-.887.462-.463 1.312-.463 1.774 0 .226.237.363.562.363.887 0 .325-.137.65-.363.887Zm0-4.375-.187.15a.946.946 0 0 1-.225.113.795.795 0 0 1-.225.075 1.879 1.879 0 0 1-.25.025c-.325 0-.65-.137-.887-.363a1.314 1.314 0 0 1-.363-.887c0-.325.137-.65.363-.887.125-.113.25-.2.412-.263.225-.1.475-.125.725-.075.075.013.15.038.225.075.075.025.15.063.225.112l.188.15c.224.238.362.563.362.888 0 .325-.137.65-.363.887Z" fill="#000" fill-opacity=".2"/><path d="M25 12.3H5c-.688 0-1.25.563-1.25 1.25v7.7C3.75 25 5.625 27.5 10 27.5h10c4.375 0 6.25-2.5 6.25-6.25v-7.7c0-.688-.563-1.25-1.25-1.25ZM11.512 22.762c-.062.05-.125.113-.187.15a.946.946 0 0 1-.225.113.795.795 0 0 1-.225.075c-.088.012-.162.025-.25.025-.162 0-.325-.038-.475-.1a1.29 1.29 0 0 1-.412-.262 1.314 1.314 0 0 1-.363-.888c0-.325.137-.65.363-.887.125-.113.25-.2.412-.263.225-.1.475-.125.725-.075.075.013.15.038.225.075.075.025.15.063.225.112l.188.15c.225.238.362.563.362.888 0 .325-.137.65-.363.887Zm0-4.375a1.314 1.314 0 0 1-.887.363c-.325 0-.65-.137-.887-.363a1.314 1.314 0 0 1-.363-.887c0-.325.137-.65.363-.887.35-.35.9-.463 1.362-.263.162.063.3.15.412.262.226.238.363.563.363.888 0 .325-.137.65-.363.887Zm4.375 4.375a1.314 1.314 0 0 1-.887.363c-.325 0-.65-.137-.887-.363a1.314 1.314 0 0 1-.363-.887c0-.325.137-.65.363-.887.462-.463 1.312-.463 1.774 0 .226.237.363.562.363.887 0 .325-.137.65-.363.887Zm0-4.375-.187.15a.946.946 0 0 1-.225.113.795.795 0 0 1-.225.075c-.088.012-.162.025-.25.025-.325 0-.65-.137-.887-.363a1.314 1.314 0 0 1-.363-.887c0-.325.137-.65.363-.887.112-.113.25-.2.412-.263a1.249 1.249 0 0 1 1.362.262c.226.238.363.563.363.888 0 .325-.137.65-.363.887Zm4.375 4.375a1.314 1.314 0 0 1-.887.363c-.325 0-.65-.137-.887-.363a1.314 1.314 0 0 1-.363-.887c0-.325.137-.65.363-.887.462-.463 1.312-.463 1.774 0 .226.237.363.562.363.887 0 .325-.137.65-.363.887Zm0-4.375-.187.15a.946.946 0 0 1-.225.113.795.795 0 0 1-.225.075 1.879 1.879 0 0 1-.25.025c-.325 0-.65-.137-.887-.363a1.314 1.314 0 0 1-.363-.887c0-.325.137-.65.363-.887.125-.113.25-.2.412-.263.225-.1.475-.125.725-.075.075.013.15.038.225.075.075.025.15.063.225.112l.188.15c.224.238.362.563.362.888 0 .325-.137.65-.363.887Z" fill="#000" fill-opacity=".2"/></svg>