<svg width="70" height="70" fill="none" xmlns="http://www.w3.org/2000/svg"><rect width="70" height="70" rx="10" fill="#fff"/><path d="M29.083 23.584c.243-.133.5.071.5.348v18.49c0 .224-.15.414-.353.507-.05.023-.1.048-.147.074L25.9 44.817c-2.221 1.273-4.05.217-4.05-2.356V29.285c0-.853.61-1.91 1.368-2.343l5.864-3.358Z" fill="#1C1C1C"/><path d="M29.083 23.584c.243-.133.5.071.5.348v18.49c0 .224-.15.414-.353.507-.05.023-.1.048-.147.074L25.9 44.817c-2.221 1.273-4.05.217-4.05-2.356V29.285c0-.853.61-1.91 1.368-2.343l5.864-3.358Z" fill="#000" fill-opacity=".2"/><path d="M29.083 23.584c.243-.133.5.071.5.348v18.49c0 .224-.15.414-.353.507-.05.023-.1.048-.147.074L25.9 44.817c-2.221 1.273-4.05.217-4.05-2.356V29.285c0-.853.61-1.91 1.368-2.343l5.864-3.358Z" fill="#000" fill-opacity=".2"/><path d="M29.083 23.584c.243-.133.5.071.5.348v18.49c0 .224-.15.414-.353.507-.05.023-.1.048-.147.074L25.9 44.817c-2.221 1.273-4.05.217-4.05-2.356V29.285c0-.853.61-1.91 1.368-2.343l5.864-3.358Z" fill="#000" fill-opacity=".2"/><path d="M38.784 27.062a.5.5 0 0 1 .279.448v18.203a.5.5 0 0 1-.718.45l-6.109-2.943a.5.5 0 0 1-.283-.45V24.484a.5.5 0 0 1 .722-.448l6.11 3.026Z" fill="#1C1C1C"/><path d="M38.784 27.062a.5.5 0 0 1 .279.448v18.203a.5.5 0 0 1-.718.45l-6.109-2.943a.5.5 0 0 1-.283-.45V24.484a.5.5 0 0 1 .722-.448l6.11 3.026Z" fill="#000" fill-opacity=".2"/><path d="M38.784 27.062a.5.5 0 0 1 .279.448v18.203a.5.5 0 0 1-.718.45l-6.109-2.943a.5.5 0 0 1-.283-.45V24.484a.5.5 0 0 1 .722-.448l6.11 3.026Z" fill="#000" fill-opacity=".2"/><path d="M38.784 27.062a.5.5 0 0 1 .279.448v18.203a.5.5 0 0 1-.718.45l-6.109-2.943a.5.5 0 0 1-.283-.45V24.484a.5.5 0 0 1 .722-.448l6.11 3.026Z" fill="#000" fill-opacity=".2"/><path d="M48.541 27.539v13.176c0 .853-.61 1.909-1.368 2.342L42.18 45.92a.5.5 0 0 1-.748-.434V27.22a.5.5 0 0 1 .252-.435l2.808-1.603c2.22-1.273 4.049-.216 4.049 2.357Z" fill="#1C1C1C"/><path d="M48.541 27.539v13.176c0 .853-.61 1.909-1.368 2.342L42.18 45.92a.5.5 0 0 1-.748-.434V27.22a.5.5 0 0 1 .252-.435l2.808-1.603c2.22-1.273 4.049-.216 4.049 2.357Z" fill="#000" fill-opacity=".2"/><path d="M48.541 27.539v13.176c0 .853-.61 1.909-1.368 2.342L42.18 45.92a.5.5 0 0 1-.748-.434V27.22a.5.5 0 0 1 .252-.435l2.808-1.603c2.22-1.273 4.049-.216 4.049 2.357Z" fill="#000" fill-opacity=".2"/><path d="M48.541 27.539v13.176c0 .853-.61 1.909-1.368 2.342L42.18 45.92a.5.5 0 0 1-.748-.434V27.22a.5.5 0 0 1 .252-.435l2.808-1.603c2.22-1.273 4.049-.216 4.049 2.357Z" fill="#000" fill-opacity=".2"/></svg>