<svg width="30" height="30" fill="none" xmlns="http://www.w3.org/2000/svg"><path d="M19.75 2.762c-.513-.512-1.4-.162-1.4.55v4.363c0 1.825 1.55 3.337 3.437 3.337 1.188.013 2.838.013 4.25.013.713 0 1.088-.838.588-1.338-1.8-1.812-5.025-5.075-6.875-6.925Z" fill="#fff"/><path d="M25.625 12.738h-3.613a5.383 5.383 0 0 1-5.375-5.375V3.75c0-.688-.562-1.25-1.25-1.25h-5.3c-3.85 0-6.962 2.5-6.962 6.963v11.075c0 4.462 3.112 6.962 6.963 6.962h9.825c3.85 0 6.962-2.5 6.962-6.962v-6.55c0-.688-.563-1.25-1.25-1.25Zm-11.25 9.45h-5a.944.944 0 0 1-.938-.938c0-.512.426-.938.938-.938h5c.512 0 .938.425.938.938a.944.944 0 0 1-.938.938Zm2.5-5h-7.5a.944.944 0 0 1-.938-.938c0-.512.426-.938.938-.938h7.5c.512 0 .938.426.938.938a.944.944 0 0 1-.938.938Z" fill="#fff"/></svg>