<svg width="61" height="61" fill="none" xmlns="http://www.w3.org/2000/svg"><g clip-path="url(#a)"><path d="m13.812 55.519-.422-.283.305-.41c3.762-4.977 9.682-12.954 16.763-13.013 7.081.06 13.004 8.036 16.765 13.012l.306.411-.423.283a29.808 29.808 0 0 1-16.648 5.051 29.767 29.767 0 0 1-16.646-5.051ZM30.458 59.6a28.88 28.88 0 0 0 15.688-4.605c-3.732-5.01-9.549-12.266-15.688-12.217-6.137-.049-11.954 7.207-15.688 12.217A28.88 28.88 0 0 0 30.458 59.6Zm18.007-5.605C45.43 49.63 40.878 43.1 40.859 37.07a10.1 10.1 0 0 1 .472-3.123c2.242-6.752 11.62-9.946 17.493-12.002l.481-.167.139.492a30.284 30.284 0 0 1 1.114 8.128 30.363 30.363 0 0 1-1.48 9.346 30.07 30.07 0 0 1-9.924 14.354l-.397.318-.292-.42Zm-6.22-19.747a9.137 9.137 0 0 0-.425 2.82c-.02 5.364 4.112 11.62 7.134 15.948a29.138 29.138 0 0 0 9.206-13.572 29.42 29.42 0 0 0 1.434-9.047 29.433 29.433 0 0 0-.945-7.372c-5.89 2.02-14.557 5.336-16.404 11.223ZM11.83 54.002A30.14 30.14 0 0 1 1.908 39.65a30.252 30.252 0 0 1-.364-17.475l.139-.492.48.165c5.873 2.058 15.255 5.252 17.494 12.004a10.15 10.15 0 0 1 .472 3.12c-.022 6.031-4.573 12.563-7.604 16.927l-.294.422-.4-.319ZM1.394 30.303c0 3.073.483 6.126 1.43 9.047a29.137 29.137 0 0 0 9.21 13.571c3.02-4.328 7.15-10.586 7.13-15.95a9.079 9.079 0 0 0-.422-2.816C16.895 28.267 8.229 24.95 2.338 22.928a29.326 29.326 0 0 0-.944 7.375Zm35.853-9.176c-5.695-4.232-5.82-14.184-5.953-20.435l-.008-.514.508.023a29.808 29.808 0 0 1 16.42 5.75c4.8 3.49 8.46 8.335 10.516 13.92l.178.48-.49.15c-3.747 1.154-8.88 2.715-13.606 2.718-2.78 0-5.442-.545-7.565-2.092Zm.567-.784c1.889 1.382 4.337 1.91 6.998 1.91 4.32 0 9.15-1.396 12.835-2.524A29.076 29.076 0 0 0 47.65 6.735a28.89 28.89 0 0 0-15.388-5.543c.095 6.258.553 15.568 5.55 19.15Zm-35.134.1-.489-.15.18-.48a30.017 30.017 0 0 1 10.512-13.92A29.795 29.795 0 0 1 29.305.142l.508-.023-.008.514c-.133 6.247-.256 16.202-5.953 20.432-2.123 1.547-4.785 2.094-7.565 2.094-4.723-.002-9.862-1.567-13.607-2.717Zm13.607 1.749c2.661 0 5.109-.526 6.998-1.91 5-3.58 5.459-12.893 5.55-19.149A28.894 28.894 0 0 0 13.45 6.671a29.107 29.107 0 0 0-9.995 12.996c3.678 1.131 8.509 2.527 12.832 2.525Z" fill="#F5CB45"/><path fill-rule="evenodd" clip-rule="evenodd" d="M29.324.626c-.105 6.249-.338 16.092-5.756 20.046-5.415 3.96-14.804 1.14-20.747-.692A29.737 29.737 0 0 1 13.166 6.282 29.503 29.503 0 0 1 29.324.626Zm28.954 19.413c-5.943 1.831-15.33 4.651-20.747.695-5.418-3.957-5.648-13.8-5.753-20.047a29.502 29.502 0 0 1 16.155 5.656 29.736 29.736 0 0 1 10.345 13.696ZM48.86 53.718c-3.573-5.116-9.14-13.22-7.07-19.62 2.069-6.4 11.312-9.664 17.187-11.694a29.907 29.907 0 0 1-.358 17.191 29.762 29.762 0 0 1-9.76 14.123ZM2.008 22.306c5.878 2.032 15.12 5.297 17.19 11.698 2.07 6.4-3.498 14.503-7.067 19.619A29.758 29.758 0 0 1 2.367 39.5a29.903 29.903 0 0 1-.36-17.194Zm12.07 32.813c3.74-4.993 9.684-12.82 16.38-12.82 6.698 0 12.643 7.827 16.379 12.82a29.505 29.505 0 0 1-16.38 4.968 29.505 29.505 0 0 1-16.379-4.968Z" fill="url(#b)"/><path d="M58.276 20.039c-5.15 1.588-12.885 3.915-18.383 1.937A65.802 65.802 0 0 1 53.473 11.6a29.574 29.574 0 0 1 4.803 8.439Zm-9.417 33.68c-3.573-5.117-9.14-13.22-7.07-19.621 2.069-6.4 11.312-9.664 17.187-11.694a29.907 29.907 0 0 1-.358 17.191 29.762 29.762 0 0 1-9.76 14.123ZM19.606 36.043c.527 6.006-4.278 12.993-7.476 17.579a29.622 29.622 0 0 1-9.765-14.125c-.095-.301-.189-.596-.275-.901a74.123 74.123 0 0 0 17.516-2.553ZM14.077 55.12c3.74-4.993 9.684-12.82 16.38-12.82 6.697 0 12.643 7.827 16.379 12.82a29.505 29.505 0 0 1-16.38 4.968 29.506 29.506 0 0 1-16.379-4.968Z" fill="url(#c)"/><path opacity=".9" d="M26.656 11.146c-.719 3.6-2.008 6.48-4.153 8.049-2.147 1.564-5.272 1.907-8.898 1.483a50.342 50.342 0 0 1-8.334-1.866c1.99-4.4 5.08-8.207 8.97-11.048A27.73 27.73 0 0 1 27.465 2.6a51.26 51.26 0 0 1-.809 8.546Zm14.763 9.38a8.073 8.073 0 0 1-2.817-1.273c-2.144-1.566-3.434-4.448-4.153-8.047-.51-2.82-.78-5.678-.809-8.545a27.822 27.822 0 0 1 18.244 9.874 66.138 66.138 0 0 0-10.465 7.991Zm-30.277 7.585c3.177 1.798 5.508 3.92 6.327 6.456.202.634.319 1.292.348 1.957a74.305 74.305 0 0 1-13.849 1.992 27.91 27.91 0 0 1-.663-13.82 50.415 50.415 0 0 1 7.837 3.415Z" fill="#fff"/></g><defs><radialGradient id="b" cx="0" cy="0" r="1" gradientUnits="userSpaceOnUse" gradientTransform="matrix(29.5799 0 0 29.7326 30.494 30.356)"><stop stop-color="#FFE37E"/><stop offset=".243" stop-color="#FEDF79"/><stop offset=".535" stop-color="#FBD56A"/><stop offset=".85" stop-color="#F5C352"/><stop offset="1" stop-color="#F2B944"/></radialGradient><radialGradient id="c" cx="0" cy="0" r="1" gradientUnits="userSpaceOnUse" gradientTransform="matrix(34.8436 0 0 35.0235 30.636 57.629)"><stop stop-color="#FFE37E"/><stop offset=".243" stop-color="#FEDF79"/><stop offset=".535" stop-color="#FBD56A"/><stop offset=".85" stop-color="#F5C352"/><stop offset="1" stop-color="#F2B944"/></radialGradient><clipPath id="a"><path fill="#fff" transform="translate(.43 .12)" d="M0 0h60.14v60.45H0z"/></clipPath></defs></svg>