<svg width="136" height="34" fill="none" xmlns="http://www.w3.org/2000/svg"><g style="mix-blend-mode:luminosity" clip-path="url(#a)"><path d="M44.045 9.999c-3.722 0-6.483 3.008-6.483 7.824 0 4.244 2.58 7.253 6.721 7.253 2.524 0 3.995-.634 4.533-.933l-.358-1.114c-.81.39-1.892.813-3.993.813-2.97 0-5.493-1.836-5.493-6.441h10.624c.057-.288.078-.58.063-.873 0-2.075-.9-6.53-5.614-6.53Zm-4.983 6.257c.273-2.224 1.62-5.056 4.802-5.056 3.483 0 4.324 3.041 4.292 5.056h-9.094Zm19.39.904v-.06c1.74-.39 3.06-1.595 3.06-3.34 0-3.1-3.572-3.582-5.971-3.582a24.172 24.172 0 0 0-3.842.301v14.296c.72.06 2.1.15 3.451.15 2.762 0 7.021-.541 7.021-4.122 0-2.2-1.647-3.373-3.72-3.643Zm-5.403-5.598a20.67 20.67 0 0 1 2.34-.15c3.124 0 4.656.753 4.656 2.528 0 2.047-2.524 2.708-4.564 2.708H53.05v-5.086Zm2.432 12.16a22.063 22.063 0 0 1-2.461-.123v-5.776h2.308c2.704 0 5.374.393 5.374 2.98 0 2.555-3.303 2.92-5.22 2.92ZM71.117 10c-2.522 0-4.292 1.172-5.343 3.069h-.06l-.09-2.74h-1.379c.09 1.384.119 2.8.119 4.606v14.362h1.44v-6.87h.061c.99 1.746 2.82 2.68 4.894 2.68 3.478 0 6.54-2.65 6.54-7.796 0-4.242-2.49-7.311-6.182-7.311Zm-.45 13.901a4.858 4.858 0 0 1-3-1.017 4.881 4.881 0 0 1-1.742-2.653 4.68 4.68 0 0 1-.12-1.143v-2.83c.026-.418.096-.831.209-1.234a5.02 5.02 0 0 1 1.737-2.726 4.997 4.997 0 0 1 3.035-1.097c3.273 0 5.073 2.922 5.073 6.17 0 3.853-1.892 6.53-5.192 6.53ZM85.075 10c-3.573 0-6.814 2.737-6.814 7.671 0 4.516 2.882 7.436 6.603 7.436h.03c3.182 0 6.873-2.317 6.873-7.676 0-4.423-2.702-7.431-6.692-7.431Zm-.12 13.901h-.033c-2.94 0-5.221-2.705-5.221-6.319 0-3.1 1.65-6.381 5.343-6.381 3.812 0 5.282 3.643 5.282 6.292 0 3.703-2.369 6.408-5.372 6.408Zm18.757-13.572h-8.465v3.883a20.268 20.268 0 0 1-.929 6.44 14.149 14.149 0 0 1-1.468 2.92h-1.141l.116 5.719h1.202l.091-4.515h10.594l.092 4.515h1.199l.122-5.72h-1.413V10.329Zm-1.441 13.243h-7.83c.505-.902.926-1.85 1.256-2.83.604-2.081.898-4.241.873-6.41v-2.8h5.701v12.04ZM112.746 10c-3.572 0-6.812 2.737-6.812 7.671 0 4.516 2.88 7.436 6.603 7.436h.027c3.183 0 6.876-2.317 6.876-7.676 0-4.423-2.702-7.431-6.694-7.431Zm-.12 13.901h-.029c-2.942 0-5.223-2.705-5.223-6.319 0-3.1 1.651-6.381 5.341-6.381 3.814 0 5.286 3.643 5.286 6.292 0 3.703-2.374 6.408-5.375 6.408Zm21.972-13.572h-1.715l-2.791 7.012c-.659 1.685-1.678 4.425-2.07 5.569h-.028c-.331-1.022-1.081-2.981-1.53-4.182l-3.272-8.4h-1.653l-1.138 14.448h1.44l.448-7.553c.092-1.809.211-3.67.243-5.3h.118a77.106 77.106 0 0 0 1.62 4.787l3.094 8.066h1.05l3.273-8.187c.87-2.166 1.468-3.733 1.736-4.666h.094c.088 1.807.21 3.491.299 5.238l.419 7.615h1.442l-1.079-14.447Z" fill="#161412"/><path d="m7.67 30.792-.232-.154.168-.225c2.066-2.727 5.317-7.097 9.206-7.13 3.89.033 7.142 4.403 9.208 7.13l.168.225-.232.154a16.398 16.398 0 0 1-9.144 2.768 16.377 16.377 0 0 1-9.142-2.768Zm9.142 2.237c3.054.005 6.045-.87 8.616-2.523-2.049-2.745-5.244-6.72-8.616-6.693-3.37-.027-6.565 3.948-8.616 6.693a15.89 15.89 0 0 0 8.616 2.523Zm9.89-3.07c-1.666-2.393-4.167-5.97-4.177-9.274a5.521 5.521 0 0 1 .259-1.711c1.231-3.7 6.382-5.45 9.608-6.576l.264-.092.076.27c.406 1.45.611 2.947.612 4.453a16.597 16.597 0 0 1-.813 5.12 16.474 16.474 0 0 1-5.45 7.865l-.218.174-.161-.23Zm-3.416-10.82a4.993 4.993 0 0 0-.233 1.546c-.011 2.938 2.258 6.365 3.918 8.737a15.963 15.963 0 0 0 5.056-7.436c.52-1.6.786-3.274.787-4.957a16.092 16.092 0 0 0-.518-4.039c-3.235 1.107-7.995 2.924-9.01 6.149ZM6.582 29.962a16.513 16.513 0 0 1-5.45-7.864 16.537 16.537 0 0 1-.2-9.574l.076-.27.264.09c3.226 1.128 8.378 2.878 9.608 6.577a5.55 5.55 0 0 1 .26 1.71c-.013 3.304-2.512 6.883-4.177 9.274l-.161.231-.22-.174ZM.85 16.977c0 1.683.265 3.356.785 4.957a15.963 15.963 0 0 0 5.058 7.435c1.659-2.371 3.928-5.8 3.917-8.738a4.962 4.962 0 0 0-.232-1.544c-1.015-3.225-5.775-5.043-9.01-6.15a16.031 16.031 0 0 0-.518 4.04Zm19.69-5.027C17.412 9.63 17.343 4.178 17.27.754l-.004-.282.28.013a16.4 16.4 0 0 1 9.018 3.15 16.46 16.46 0 0 1 5.775 7.627l.098.262-.269.083c-2.058.632-4.878 1.487-7.473 1.489-1.527 0-2.99-.299-4.155-1.146Zm.311-.43c1.038.757 2.382 1.047 3.844 1.047 2.372 0 5.026-.765 7.049-1.384a15.936 15.936 0 0 0-5.49-7.119 15.89 15.89 0 0 0-8.451-3.037c.052 3.43.304 8.53 3.048 10.493Zm-19.296.055-.268-.083.099-.262A16.45 16.45 0 0 1 7.16 3.603a16.39 16.39 0 0 1 9.019-3.15l.28-.013-.006.282c-.073 3.422-.14 8.876-3.269 11.194-1.166.848-2.628 1.147-4.155 1.147-2.594 0-5.416-.858-7.473-1.488Zm7.473.958c1.462 0 2.806-.288 3.844-1.047 2.746-1.96 2.998-7.064 3.048-10.49a15.893 15.893 0 0 0-8.45 3.033 15.952 15.952 0 0 0-5.49 7.12c2.02.62 4.674 1.385 7.048 1.384Z" fill="#F5CB45"/><path fill-rule="evenodd" clip-rule="evenodd" d="M16.187.717c-.058 3.424-.186 8.817-3.161 10.984-2.974 2.17-8.131.624-11.395-.38a16.297 16.297 0 0 1 5.682-7.505A16.229 16.229 0 0 1 16.187.717Zm15.902 10.637c-3.264 1.003-8.42 2.548-11.395.38-2.975-2.167-3.102-7.56-3.16-10.983a16.229 16.229 0 0 1 8.873 3.099 16.297 16.297 0 0 1 5.682 7.504Zm-5.173 18.452c-1.962-2.803-5.02-7.242-3.883-10.75 1.137-3.506 6.213-5.295 9.44-6.407.86 3.091.792 6.368-.197 9.42a16.305 16.305 0 0 1-5.36 7.737ZM1.184 12.596c3.229 1.113 8.305 2.902 9.442 6.409 1.136 3.506-1.921 7.946-3.882 10.749a16.304 16.304 0 0 1-5.363-7.738 16.346 16.346 0 0 1-.197-9.42Zm6.63 17.978c2.053-2.736 5.318-7.024 8.996-7.024 3.678 0 6.943 4.288 8.995 7.024a16.233 16.233 0 0 1-17.991 0Z" fill="url(#b)"/><path d="M32.093 11.354c-2.829.87-7.077 2.145-10.096 1.061a36.13 36.13 0 0 1 7.458-5.685 16.192 16.192 0 0 1 2.638 4.624ZM26.92 29.806c-1.962-2.803-5.02-7.242-3.883-10.75 1.137-3.506 6.213-5.294 9.44-6.407.86 3.091.792 6.368-.196 9.42a16.305 16.305 0 0 1-5.36 7.737Zm-16.066-9.683c.29 3.29-2.35 7.119-4.106 9.631a16.23 16.23 0 0 1-5.363-7.739 16.56 16.56 0 0 1-.15-.494c3.25-.08 6.48-.55 9.62-1.398Zm-3.036 10.45c2.054-2.735 5.319-7.023 8.996-7.023 3.678 0 6.944 4.288 8.996 7.024a16.233 16.233 0 0 1-17.992 0Z" fill="url(#c)"/><path opacity=".9" d="M14.72 6.481c-.395 1.972-1.103 3.55-2.28 4.41-1.18.856-2.897 1.045-4.888.812a27.698 27.698 0 0 1-4.577-1.022 15.31 15.31 0 0 1 4.926-6.053 15.252 15.252 0 0 1 7.263-2.83 28.027 28.027 0 0 1-.444 4.683Zm8.108 5.14a4.44 4.44 0 0 1-1.547-.698c-1.178-.858-1.886-2.438-2.28-4.41a27.856 27.856 0 0 1-.445-4.68 15.291 15.291 0 0 1 10.02 5.409 36.316 36.316 0 0 0-5.748 4.378ZM6.2 15.775c1.745.985 3.026 2.147 3.476 3.537.11.347.174.708.19 1.072a40.9 40.9 0 0 1-7.606 1.091 15.256 15.256 0 0 1-.364-7.571c1.485.5 2.925 1.126 4.304 1.87Z" fill="#fff"/></g><defs><radialGradient id="b" cx="0" cy="0" r="1" gradientUnits="userSpaceOnUse" gradientTransform="matrix(16.2459 0 0 16.2902 16.83 17.006)"><stop stop-color="#FFE37E"/><stop offset=".243" stop-color="#FEDF79"/><stop offset=".535" stop-color="#FBD56A"/><stop offset=".85" stop-color="#F5C352"/><stop offset="1" stop-color="#F2B944"/></radialGradient><radialGradient id="c" cx="0" cy="0" r="1" gradientUnits="userSpaceOnUse" gradientTransform="matrix(19.1369 0 0 19.1891 16.912 31.949)"><stop stop-color="#FFE37E"/><stop offset=".243" stop-color="#FEDF79"/><stop offset=".535" stop-color="#FBD56A"/><stop offset=".85" stop-color="#F5C352"/><stop offset="1" stop-color="#F2B944"/></radialGradient><clipPath id="a"><path fill="#fff" transform="translate(.32 .44)" d="M0 0h135.36v33.12H0z"/></clipPath></defs></svg>