<svg width="175" height="43" fill="none" xmlns="http://www.w3.org/2000/svg"><g clip-path="url(#a)"><path d="M56.534 12.41c-4.813 0-8.382 3.906-8.382 10.16 0 5.509 3.336 9.416 8.69 9.416 3.263 0 5.164-.824 5.86-1.212l-.463-1.446c-1.048.506-2.446 1.055-5.163 1.055-3.84 0-7.101-2.384-7.101-8.363H63.71c.073-.372.1-.753.081-1.132 0-2.695-1.164-8.478-7.257-8.478Zm-6.442 8.125c.353-2.888 2.095-6.565 6.208-6.565 4.503 0 5.59 3.948 5.548 6.565H50.092Zm25.067 1.173v-.078c2.25-.507 3.957-2.071 3.957-4.337 0-4.024-4.618-4.65-7.72-4.65a31.108 31.108 0 0 0-4.967.391v18.561c.93.077 2.716.194 4.462.194 3.57 0 9.077-.703 9.077-5.351 0-2.856-2.13-4.38-4.809-4.73Zm-6.985-7.268a26.642 26.642 0 0 1 3.026-.194c4.038 0 6.019.977 6.019 3.282 0 2.657-3.263 3.515-5.9 3.515h-3.145V14.44Zm3.145 15.788a28.373 28.373 0 0 1-3.182-.16v-7.499h2.984c3.496 0 6.948.51 6.948 3.869 0 3.317-4.271 3.79-6.75 3.79ZM91.534 12.41c-3.261 0-5.55 1.523-6.909 3.985h-.076l-.117-3.557H82.65c.117 1.797.154 3.634.154 5.98v18.646h1.862v-8.918h.079c1.28 2.266 3.645 3.478 6.326 3.478 4.498 0 8.457-3.44 8.457-10.12 0-5.509-3.22-9.494-7.993-9.494Zm-.582 18.049a6.264 6.264 0 0 1-3.88-1.32 6.339 6.339 0 0 1-2.25-3.446 6.096 6.096 0 0 1-.157-1.483v-3.675a7.784 7.784 0 0 1 .27-1.602 6.52 6.52 0 0 1 2.246-3.539 6.443 6.443 0 0 1 3.924-1.424c4.232 0 6.56 3.794 6.56 8.01 0 5.002-2.447 8.479-6.713 8.479Zm18.627-18.049c-4.62 0-8.809 3.554-8.809 9.96 0 5.864 3.725 9.654 8.537 9.654h.037c4.115 0 8.886-3.008 8.886-9.966 0-5.742-3.493-9.648-8.651-9.648Zm-.156 18.049h-.041c-3.802 0-6.751-3.513-6.751-8.204 0-4.026 2.133-8.285 6.909-8.285 4.927 0 6.829 4.73 6.829 8.17 0 4.806-3.064 8.319-6.946 8.319Zm24.251-17.621H122.73v5.041a26.414 26.414 0 0 1-1.201 8.362 18.408 18.408 0 0 1-1.898 3.79h-1.475l.149 7.425h1.555l.118-5.861h13.696l.119 5.861h1.55l.157-7.425h-1.826V12.838Zm-1.862 17.193h-10.123a21.84 21.84 0 0 0 1.623-3.673 28.77 28.77 0 0 0 1.128-8.322v-3.637h7.372V30.03Zm13.541-17.62c-4.617 0-8.807 3.553-8.807 9.96 0 5.863 3.724 9.653 8.537 9.653h.036c4.114 0 8.889-3.008 8.889-9.966 0-5.742-3.494-9.648-8.655-9.648Zm-.155 18.048h-.038c-3.803 0-6.752-3.513-6.752-8.204 0-4.026 2.135-8.285 6.906-8.285 4.93 0 6.834 4.73 6.834 8.17 0 4.806-3.07 8.319-6.95 8.319Zm28.407-17.621h-2.217l-3.608 9.103c-.852 2.189-2.17 5.746-2.677 7.23h-.036c-.428-1.326-1.398-3.87-1.978-5.428l-4.231-10.905h-2.136l-1.472 18.757h1.863l.579-9.807c.118-2.348.272-4.765.314-6.88h.152a100.396 100.396 0 0 0 2.095 6.215l4 10.472h1.357l4.231-10.63c1.125-2.812 1.898-4.846 2.245-6.058h.121c.114 2.346.272 4.533.387 6.801l.542 9.887H175l-1.395-18.757Z" fill="#161412"/><path d="m9.502 39.407-.3-.201.217-.292c2.671-3.54 6.875-9.214 11.903-9.256 5.028.042 9.233 5.716 11.904 9.256l.217.292-.3.2A21.14 21.14 0 0 1 21.322 43a21.11 21.11 0 0 1-11.82-3.593Zm11.82 2.904a20.476 20.476 0 0 0 11.14-3.276c-2.65-3.563-6.78-8.725-11.14-8.69-4.357-.035-8.488 5.127-11.14 8.69a20.48 20.48 0 0 0 11.14 3.276Zm12.786-3.987c-2.154-3.106-5.387-7.75-5.4-12.04a7.192 7.192 0 0 1 .334-2.222c1.592-4.803 8.252-7.075 12.422-8.537l.341-.12.099.35c.524 1.883.79 3.828.79 5.783a21.631 21.631 0 0 1-1.05 6.648 21.39 21.39 0 0 1-7.047 10.21l-.282.226-.207-.298ZM29.69 24.277a6.508 6.508 0 0 0-.301 2.007c-.014 3.815 2.92 8.264 5.065 11.343a20.729 20.729 0 0 0 6.537-9.654 20.96 20.96 0 0 0 1.018-6.435 20.969 20.969 0 0 0-.67-5.244c-4.183 1.436-10.337 3.795-11.649 7.983ZM8.096 38.328a21.44 21.44 0 0 1-7.047-10.21 21.555 21.555 0 0 1-.258-12.43l.099-.35.34.117c4.171 1.464 10.832 3.737 12.422 8.54.227.717.34 1.466.336 2.218-.016 4.291-3.247 8.937-5.4 12.042l-.208.3-.284-.227ZM.684 21.47c0 2.186.344 4.358 1.016 6.436a20.728 20.728 0 0 0 6.54 9.653c2.144-3.079 5.077-7.53 5.063-11.345a6.469 6.469 0 0 0-.3-2.004c-1.311-4.188-7.466-6.548-11.648-7.986a20.896 20.896 0 0 0-.67 5.246Zm25.459-6.527c-4.044-3.01-4.133-10.09-4.227-14.536L21.91.041l.36.017a21.146 21.146 0 0 1 11.66 4.09 21.36 21.36 0 0 1 7.467 9.902l.126.341-.347.107c-2.661.82-6.307 1.93-9.662 1.933-1.974 0-3.864-.387-5.371-1.488Zm.402-.558c1.341.983 3.08 1.359 4.969 1.359 3.067 0 6.498-.993 9.113-1.796a20.679 20.679 0 0 0-7.097-9.242A20.49 20.49 0 0 0 22.604.763c.067 4.451.393 11.074 3.941 13.622Zm-24.947.072-.347-.108.128-.34a21.348 21.348 0 0 1 7.464-9.903 21.132 21.132 0 0 1 11.66-4.09L20.864 0l-.006.366c-.094 4.443-.181 11.524-4.227 14.534-1.507 1.1-3.397 1.49-5.371 1.49-3.354-.003-7.003-1.115-9.662-1.933ZM11.26 15.7c1.89 0 3.627-.374 4.969-1.359 3.55-2.546 3.876-9.17 3.941-13.62A20.494 20.494 0 0 0 9.246 4.66a20.7 20.7 0 0 0-7.098 9.244c2.612.805 6.042 1.798 9.112 1.796Z" fill="#F5CB45"/><path fill-rule="evenodd" clip-rule="evenodd" d="M20.516.36c-.075 4.444-.24 11.446-4.087 14.26-3.845 2.816-10.512.81-14.732-.493a21.15 21.15 0 0 1 7.346-9.744A20.925 20.925 0 0 1 20.516.359Zm20.558 13.809c-4.22 1.303-10.885 3.308-14.73.494-3.848-2.814-4.011-9.817-4.086-14.26a20.925 20.925 0 0 1 11.471 4.023 21.15 21.15 0 0 1 7.345 9.743Zm-6.687 23.957c-2.537-3.64-6.49-9.403-5.02-13.957 1.47-4.552 8.032-6.874 12.204-8.318a21.31 21.31 0 0 1-.254 12.229 21.17 21.17 0 0 1-6.93 10.046ZM1.12 15.78c4.174 1.446 10.737 3.768 12.207 8.321 1.47 4.553-2.484 10.317-5.019 13.956a21.168 21.168 0 0 1-6.933-10.046 21.308 21.308 0 0 1-.255-12.23Zm8.57 23.342c2.655-3.551 6.877-9.119 11.63-9.119 4.756 0 8.978 5.568 11.631 9.12a20.924 20.924 0 0 1-11.63 3.533c-4.138 0-8.184-1.23-11.63-3.534Z" fill="url(#b)"/><path d="M41.076 14.169c-3.658 1.13-9.15 2.785-13.054 1.378a46.732 46.732 0 0 1 9.643-7.381 21.045 21.045 0 0 1 3.41 6.003Zm-6.688 23.957c-2.536-3.64-6.49-9.403-5.02-13.956 1.47-4.553 8.032-6.875 12.204-8.319a21.31 21.31 0 0 1-.254 12.23 21.17 21.17 0 0 1-6.93 10.045Zm-20.77-12.572c.374 4.273-3.039 9.243-5.31 12.504a21.073 21.073 0 0 1-6.933-10.047c-.067-.214-.134-.424-.195-.641a52.544 52.544 0 0 0 12.437-1.816ZM9.69 39.123c2.656-3.552 6.877-9.12 11.631-9.12 4.756 0 8.977 5.568 11.63 9.12a20.924 20.924 0 0 1-11.63 3.533 20.924 20.924 0 0 1-11.63-3.533Z" fill="url(#c)"/><path opacity=".9" d="M18.62 7.843c-.51 2.56-1.425 4.61-2.948 5.725-1.525 1.113-3.744 1.357-6.318 1.055a35.694 35.694 0 0 1-5.918-1.327 19.86 19.86 0 0 1 6.37-7.859 19.67 19.67 0 0 1 9.389-3.673 36.53 36.53 0 0 1-.574 6.08Zm10.483 6.672a5.729 5.729 0 0 1-2-.905c-1.523-1.114-2.438-3.165-2.949-5.725a36.312 36.312 0 0 1-.574-6.078 19.746 19.746 0 0 1 12.954 7.024 46.97 46.97 0 0 0-7.43 5.684ZM7.604 19.91c2.257 1.28 3.912 2.789 4.494 4.593.143.45.226.92.246 1.392a52.68 52.68 0 0 1-9.833 1.417 19.888 19.888 0 0 1-.471-9.83c1.92.65 3.78 1.462 5.564 2.428Z" fill="#fff"/></g><defs><radialGradient id="b" cx="0" cy="0" r="1" gradientUnits="userSpaceOnUse" gradientTransform="matrix(21.0035 0 0 21.1498 21.346 21.508)"><stop stop-color="#FFE37E"/><stop offset=".243" stop-color="#FEDF79"/><stop offset=".535" stop-color="#FBD56A"/><stop offset=".85" stop-color="#F5C352"/><stop offset="1" stop-color="#F2B944"/></radialGradient><radialGradient id="c" cx="0" cy="0" r="1" gradientUnits="userSpaceOnUse" gradientTransform="matrix(24.7411 0 0 24.9134 21.45 40.908)"><stop stop-color="#FFE37E"/><stop offset=".243" stop-color="#FEDF79"/><stop offset=".535" stop-color="#FBD56A"/><stop offset=".85" stop-color="#F5C352"/><stop offset="1" stop-color="#F2B944"/></radialGradient><clipPath id="a"><path fill="#fff" d="M0 0h175v43H0z"/></clipPath></defs></svg>