<svg width="30" height="30" fill="none" xmlns="http://www.w3.org/2000/svg"><g clip-path="url(#a)"><path d="M9.538 4.463c.225-.123.463.065.463.32v17.04c0 .223-.151.413-.353.509a2.207 2.207 0 0 0-.11.056l-2.937 1.675c-2.05 1.175-3.738.2-3.738-2.175V9.725c0-.787.563-1.762 1.263-2.162l5.412-3.1Z" fill="#1C1C1C"/><path d="M9.538 4.463c.225-.123.463.065.463.32v17.04c0 .223-.151.413-.353.509a2.207 2.207 0 0 0-.11.056l-2.937 1.675c-2.05 1.175-3.738.2-3.738-2.175V9.725c0-.787.563-1.762 1.263-2.162l5.412-3.1Z" fill="#000" fill-opacity=".2"/><path d="M9.538 4.463c.225-.123.463.065.463.32v17.04c0 .223-.151.413-.353.509a2.207 2.207 0 0 0-.11.056l-2.937 1.675c-2.05 1.175-3.738.2-3.738-2.175V9.725c0-.787.563-1.762 1.263-2.162l5.412-3.1Z" fill="#000" fill-opacity=".2"/><path d="M9.538 4.463c.225-.123.463.065.463.32v17.04c0 .223-.151.413-.353.509a2.207 2.207 0 0 0-.11.056l-2.937 1.675c-2.05 1.175-3.738.2-3.738-2.175V9.725c0-.787.563-1.762 1.263-2.162l5.412-3.1Z" fill="#000" fill-opacity=".2"/><path d="M18.472 7.662a.5.5 0 0 1 .278.448v16.718a.5.5 0 0 1-.717.45l-5.563-2.68a.5.5 0 0 1-.283-.45V5.356a.5.5 0 0 1 .722-.449l5.563 2.755Z" fill="#1C1C1C"/><path d="M18.472 7.662a.5.5 0 0 1 .278.448v16.718a.5.5 0 0 1-.717.45l-5.563-2.68a.5.5 0 0 1-.283-.45V5.356a.5.5 0 0 1 .722-.449l5.563 2.755Z" fill="#000" fill-opacity=".2"/><path d="M18.472 7.662a.5.5 0 0 1 .278.448v16.718a.5.5 0 0 1-.717.45l-5.563-2.68a.5.5 0 0 1-.283-.45V5.356a.5.5 0 0 1 .722-.449l5.563 2.755Z" fill="#000" fill-opacity=".2"/><path d="M18.472 7.662a.5.5 0 0 1 .278.448v16.718a.5.5 0 0 1-.717.45l-5.563-2.68a.5.5 0 0 1-.283-.45V5.356a.5.5 0 0 1 .722-.449l5.563 2.755Z" fill="#000" fill-opacity=".2"/><path d="M27.5 8.113v12.162c0 .788-.563 1.763-1.262 2.163l-4.552 2.608a.5.5 0 0 1-.748-.434V7.84a.5.5 0 0 1 .252-.434l2.572-1.468c2.05-1.175 3.738-.2 3.738 2.175Z" fill="#1C1C1C"/><path d="M27.5 8.113v12.162c0 .788-.563 1.763-1.262 2.163l-4.552 2.608a.5.5 0 0 1-.748-.434V7.84a.5.5 0 0 1 .252-.434l2.572-1.468c2.05-1.175 3.738-.2 3.738 2.175Z" fill="#000" fill-opacity=".2"/><path d="M27.5 8.113v12.162c0 .788-.563 1.763-1.262 2.163l-4.552 2.608a.5.5 0 0 1-.748-.434V7.84a.5.5 0 0 1 .252-.434l2.572-1.468c2.05-1.175 3.738-.2 3.738 2.175Z" fill="#000" fill-opacity=".2"/><path d="M27.5 8.113v12.162c0 .788-.563 1.763-1.262 2.163l-4.552 2.608a.5.5 0 0 1-.748-.434V7.84a.5.5 0 0 1 .252-.434l2.572-1.468c2.05-1.175 3.738-.2 3.738 2.175Z" fill="#000" fill-opacity=".2"/></g><defs><clipPath id="a"><path fill="#fff" d="M0 0h30v30H0z"/></clipPath></defs></svg>