<svg width="223" height="80" fill="none" xmlns="http://www.w3.org/2000/svg"><g style="mix-blend-mode:luminosity"><path d="M11.97 64.64c2.573-2.566 8.079-6.325 12.878-7.678 7.589 5.526 17.402 8.436 28.319 8.436 10.033 0 17.119-2.872 23.619-6.375l1.255.788c-6.792 6.527-19.924 11.51-31.752 11.5-12.892-.013-23.53-2.19-34.318-6.67Z" fill="url(#a)"/><path d="M26.173 45.14c-1.59 5.055-4.872 7.93-11.73 7.93-2.832 0-5.83-.518-7.106-.891.173 1.107.281 2.327.062 4.035l-.706 5.485c-.077.565-.537.845-1.017.633-.951-.42-3.1-1.495-3.881-2.036-.337-.233-.597-.39-.544-.785L4.853 31.31c.298-2.379.945-3.172 3.38-3.965 2.932-.992 6.858-1.586 10.139-1.586 3.628 0 5.914.842 7.354 2.379 1.541 1.635 1.988 3.965 1.988 7.088-.002 3.172-.548 6.89-1.541 9.913Zm-5.218-13.88c-.895-1.14-2.337-1.339-4.375-1.339-2.485 0-6.063.942-6.063.942L8.38 48.362s2.187.694 5.468.694c3.975 0 5.964-1.338 7.056-5.799.597-2.38.994-5.106.994-7.584 0-2.181-.299-3.52-.943-4.412Zm29.548-1.592c-.05.397-.152.806-.746.744-3.473-.368-7.762-.137-10.216.602l-2.585 20.67c-.049.445-.347.743-.796.743h-4.124c-.15 0-.696-.248-.696-.694v-.05l2.633-21.116c.249-2.032 1.143-2.627 3.38-3.37 2.237-.794 6.579-1.389 8.599-1.389 2.017 0 4.054.192 4.5.292.15.049.448.148.448.594 0 .05-.397 2.974-.397 2.974Zm8.527 22.015c-.05.446-.398.743-.845.743h-4.076c-.448 0-.695-.247-.695-.643v-.1l2.981-24.288c.05-.396.448-.694.894-.694h4.076c.398 0 .645.248.645.595v.099l-2.98 24.288Zm3.677-30.038c-.099.644-.497.992-1.142.992h-3.528c-.596 0-.894-.248-.894-.794v-.198l.44-3.922c.1-.645.497-.992 1.194-.992h3.527c.598 0 .895.297.895.793v.199l-.492 3.922ZM90.29 43.603c-1.342 5.502-4.375 9.468-13.07 9.468-4.275 0-6.909-.943-8.5-2.579-1.688-1.684-2.236-4.113-2.236-6.938 0-2.925.449-6.197 1.193-8.923 1.442-5.204 4.572-8.872 12.921-8.872 4.374 0 7.058.991 8.648 2.676 1.59 1.735 2.086 4.115 2.086 6.94 0 2.677-.447 5.651-1.043 8.228ZM84.573 31.31c-.794-.99-2.187-1.486-4.472-1.486-4.473 0-6.014 1.933-6.81 5.352-.595 2.628-1.043 5.998-1.043 8.626 0 1.784.298 3.172 1.292 4.064.845.744 2.136 1.14 4.175 1.14 4.92 0 6.312-2.33 7.057-6.493.347-2.181.795-5.056.795-7.188 0-1.734-.2-3.073-.994-4.015Zm4.382-8.033c0-.538.18-.99.542-1.353.362-.364.812-.546 1.353-.546.529 0 .975.18 1.338.54a1.8 1.8 0 0 1 .546 1.33c0 .527-.182.972-.546 1.335-.363.364-.81.545-1.338.545-.518 0-.963-.18-1.335-.54a1.752 1.752 0 0 1-.56-1.31Zm.344-.066c0 .464.14.85.423 1.16.292.32.668.48 1.128.48a1.46 1.46 0 0 0 1.11-.47c.287-.307.431-.684.431-1.133 0-.448-.144-.823-.432-1.129a1.465 1.465 0 0 0-1.11-.465c-.433 0-.802.15-1.1.453-.3.302-.45.67-.45 1.104Zm.817 1.133v-2.19h.85c.513 0 .77.207.77.622 0 .343-.193.544-.58.602l.628.966h-.365l-.598-.942h-.362v.942h-.343Zm.344-1.913v.696h.355c.186 0 .319-.016.396-.048.121-.052.182-.157.182-.313 0-.224-.16-.335-.481-.335h-.453Zm43.685 9.262v-.14c1.337-.244 2.145-1.193 2.145-2.385 0-1.054-.666-2.808-4.008-2.808h-6.405v10.665h6.298c1.303 0 4.397-.138 4.397-2.805 0-1.72-1.339-2.386-2.427-2.527Zm-3.133 3.194h-1.266v-2.243h1.266c.527.032 1.269.21 1.269 1.05 0 .387-.107 1.121-1.269 1.193Zm0-4.28c-.106.035-.211.035-.315.035h-.951V28.5h1.266c.917.072 1.269.563 1.269 1.053 0 .246-.107.947-1.269 1.053Zm-23.165-.492h-2.777V26.36h-4.009v10.665h4.009v-3.998h2.777v3.998h4.154V26.36h-4.154v3.755Zm11.026-4.001h-.068c-3.727 0-5.875 2.106-5.875 5.579 0 3.336 2.148 5.474 5.875 5.474h.068c3.838-.035 5.948-2.175 5.948-5.474 0-3.438-2.11-5.579-5.948-5.579Zm0 8.494-.068.035c-1.476 0-1.587-1.897-1.587-2.95 0-1.051.112-2.911 1.587-2.911h.068c1.549.036 1.659 1.86 1.659 2.91.001 1.054-.109 2.88-1.659 2.916Zm56.522-2.915v-.14c1.337-.244 2.29-1.193 2.29-2.385 0-1.054-.667-2.808-4.008-2.808h-6.409v10.665h6.128c1.33 0 4.394-.138 4.394-2.805-.001-1.72-1.335-2.386-2.395-2.527Zm-2.989 3.194h-1.267v-2.243h1.267c.491.032 1.27.21 1.27 1.05.001.387-.252 1.087-1.27 1.193Zm0-4.28c-.106.035-.21.035-.35.035h-.917V28.5h1.267c.91.072 1.27.563 1.27 1.053.001.246-.146.947-1.27 1.053Zm29.84 3.613v-7.86h-9.465v3.334c0 1.334 0 3.052-1.477 4.527h-.773v5.193h3.972v-2.389h4.82v2.389h4.153v-5.193h-1.23Zm-3.974 0h-2.956c.947-1.192 1.054-2.386 1.054-3.86v-1.333h1.9l.002 5.194Zm-13.839-8.106h-.075c-3.727 0-5.874 2.106-5.874 5.579 0 3.336 2.147 5.474 5.874 5.474h.075c3.833-.035 5.942-2.175 5.942-5.474 0-3.438-2.108-5.579-5.942-5.579Zm0 8.494-.075.035c-1.478 0-1.618-1.897-1.618-2.95 0-1.051.139-2.911 1.618-2.911h.075c1.507.036 1.653 1.86 1.653 2.91-.001 1.054-.146 2.88-1.653 2.916Zm-29.194-8.248c-1.582 0-4.399.14-4.399 2.808 0 1.578 1.197 2.525 2.534 2.807-.666.106-1.722.526-2.145 2l-.667 3.05h4.293l.384-2.664c.104-.772.667-.982 1.054-1.053h1.235v3.718h4.115V26.36h-6.404Zm1.336 2.422h1.059v2.246h-1.34c-.527-.07-1.301-.282-1.301-1.193 0-.877.809-1.053 1.301-1.053h.281Zm56.997-2.422h-5.597l-3.729 10.665h4.123l.662-2.279h3.205l.81 2.28h4.256l-.671-1.894-3.059-8.772Zm-2.854 5.861h-1.158l1.091-3.335h.109l1.09 3.335h-1.132Zm-67.551-5.861h-2.71l-3.764 10.665h4.152l.667-2.279h3.201l.805 2.28h4.255l-3.727-10.666h-2.879Zm0 5.861h-1.128l1.055-3.335.073.212 1.159 3.123h-1.159Zm73.812-4.081c0-.539.182-.99.542-1.354.363-.364.813-.546 1.353-.546.528 0 .975.18 1.338.54.364.362.546.804.546 1.33 0 .527-.182.973-.546 1.335a1.82 1.82 0 0 1-1.338.545c-.518 0-.963-.18-1.335-.54a1.757 1.757 0 0 1-.56-1.31Zm.344-.066c0 .463.142.85.425 1.16.291.32.667.48 1.127.48.446 0 .815-.157 1.109-.47.288-.307.432-.685.432-1.134a1.58 1.58 0 0 0-.432-1.128 1.464 1.464 0 0 0-1.109-.466c-.434 0-.803.151-1.103.453a1.52 1.52 0 0 0-.449 1.105Zm.817 1.133v-2.19h.85c.514 0 .771.206.771.621 0 .344-.193.545-.58.602l.629.967h-.367l-.598-.942h-.361v.942h-.344Zm.345-1.914v.697h.355c.186 0 .319-.017.396-.049.121-.052.181-.156.181-.313 0-.223-.16-.335-.48-.335h-.452Z" fill="#36333C"/></g><defs><linearGradient id="a" x1="19.794" y1="55.209" x2="80.359" y2="74.966" gradientUnits="userSpaceOnUse"><stop stop-color="#00BCF1"/><stop offset="1" stop-color="#293895"/></linearGradient></defs></svg>