<svg width="264" height="66" fill="none" xmlns="http://www.w3.org/2000/svg"><g clip-path="url(#a)"><path d="M85.862 19.436c-7.232 0-12.594 5.828-12.594 15.16 0 8.221 5.012 14.051 13.056 14.051 4.904 0 7.76-1.23 8.807-1.808l-.696-2.158c-1.575.756-3.676 1.575-7.758 1.575-5.77 0-10.67-3.557-10.67-12.48h20.639a6.84 6.84 0 0 0 .12-1.69c0-4.021-1.748-12.65-10.904-12.65Zm-9.68 12.123c.53-4.309 3.147-9.796 9.328-9.796 6.766 0 8.4 5.892 8.337 9.796H76.182Zm37.667 1.752v-.118c3.382-.756 5.946-3.09 5.946-6.471 0-6.005-6.939-6.939-11.601-6.939-2.5-.004-4.995.192-7.464.584v27.697c1.399.115 4.081.29 6.705.29 5.365 0 13.64-1.049 13.64-7.985 0-4.262-3.201-6.536-7.226-7.058Zm-10.496-10.846a40.275 40.275 0 0 1 4.547-.29c6.067 0 9.044 1.459 9.044 4.897 0 3.966-4.903 5.246-8.866 5.246h-4.725v-9.853Zm4.725 23.56a42.964 42.964 0 0 1-4.781-.24v-11.19h4.484c5.253 0 10.44.761 10.44 5.774 0 4.95-6.417 5.655-10.143 5.655Zm30.376-26.59c-4.9 0-8.338 2.273-10.381 5.947h-.115l-.175-5.308h-2.679c.174 2.682.231 5.424.231 8.924v27.824h2.798V43.514h.118c1.924 3.382 5.478 5.19 9.506 5.19 6.759 0 12.708-5.132 12.708-15.102 0-8.22-4.838-14.166-12.011-14.166Zm-.875 26.934a9.453 9.453 0 0 1-9.212-7.112 9.055 9.055 0 0 1-.234-2.213V31.56c.051-.809.187-1.61.406-2.39a9.73 9.73 0 0 1 9.271-7.407c6.358 0 9.856 5.662 9.856 11.954 0 7.464-3.676 12.652-10.087 12.652Zm27.99-26.933c-6.941 0-13.237 5.303-13.237 14.863 0 8.75 5.599 14.405 12.828 14.405h.057c6.182 0 13.352-4.488 13.352-14.87 0-8.57-5.248-14.398-13-14.398Zm-.234 26.933h-.062c-5.712 0-10.143-5.242-10.143-12.242 0-6.008 3.204-12.364 10.38-12.364 7.404 0 10.262 7.058 10.262 12.191 0 7.173-4.604 12.415-10.437 12.415Zm36.441-26.295H185.33v7.523a39.131 39.131 0 0 1-1.804 12.478 27.408 27.408 0 0 1-2.852 5.656h-2.217l.225 11.08h2.336l.178-8.747h20.58l.178 8.747h2.329l.237-11.08h-2.744V20.074Zm-2.799 25.657h-15.211a32.407 32.407 0 0 0 2.439-5.481 42.694 42.694 0 0 0 1.696-12.42v-5.427h11.076v23.328Zm20.348-26.295c-6.938 0-13.233 5.303-13.233 14.863 0 8.75 5.595 14.405 12.827 14.405h.054c6.182 0 13.356-4.488 13.356-14.87 0-8.57-5.249-14.398-13.004-14.398Zm-.233 26.933h-.057c-5.714 0-10.146-5.242-10.146-12.242 0-6.008 3.207-12.364 10.377-12.364 7.408 0 10.269 7.058 10.269 12.191 0 7.173-4.613 12.415-10.443 12.415Zm42.685-26.295h-3.331l-5.422 13.585c-1.28 3.265-3.26 8.574-4.022 10.788h-.054c-.643-1.98-2.101-5.774-2.973-8.1l-6.357-16.273h-3.21l-2.212 27.99h2.799l.87-14.634c.178-3.504.41-7.111.472-10.268h.229c.761 2.57 2.161 6.708 3.148 9.275l6.01 15.627h2.04l6.358-15.861c1.689-4.197 2.851-7.233 3.373-9.04h.182c.171 3.5.408 6.763.58 10.148l.815 14.753h2.801l-2.096-27.99Z" fill="#161412"/><path d="m15.19 59.721-.45-.3.326-.435c4.013-5.282 10.33-13.75 17.885-13.812 7.556.062 13.875 8.53 17.888 13.812l.326.436-.45.3a31.92 31.92 0 0 1-17.764 5.361 31.878 31.878 0 0 1-17.76-5.362Zm17.761 4.334a30.926 30.926 0 0 0 16.738-4.888c-3.98-5.318-10.188-13.02-16.738-12.968-6.547-.053-12.755 7.65-16.738 12.968a30.93 30.93 0 0 0 16.738 4.888Zm19.213-5.95c-3.237-4.635-8.095-11.565-8.115-17.967a10.668 10.668 0 0 1 .503-3.314c2.392-7.167 12.4-10.558 18.665-12.74l.513-.178.148.522a31.99 31.99 0 0 1 1.189 8.628 32.074 32.074 0 0 1-1.58 9.92A31.916 31.916 0 0 1 52.9 58.214l-.423.338-.312-.445Zm-6.637-20.961a9.649 9.649 0 0 0-.453 2.994c-.021 5.693 4.387 12.333 7.611 16.928A30.924 30.924 0 0 0 62.51 42.66a31.08 31.08 0 0 0 1.53-9.604 31.092 31.092 0 0 0-1.009-7.825c-6.284 2.144-15.532 5.664-17.503 11.913Zm-32.45 20.968A31.991 31.991 0 0 1 2.489 42.877a31.957 31.957 0 0 1-.388-18.55l.148-.522.513.175c6.266 2.185 16.276 5.575 18.664 12.742.34 1.071.51 2.188.505 3.312-.024 6.403-4.88 13.335-8.113 17.968l-.314.448-.427-.338ZM1.94 32.956c0 3.261.515 6.502 1.526 9.603a30.923 30.923 0 0 0 9.826 14.405c3.222-4.594 7.63-11.237 7.609-16.93a9.592 9.592 0 0 0-.45-2.99c-1.972-6.25-11.22-9.77-17.504-11.917a30.979 30.979 0 0 0-1.007 7.829Zm38.254-9.74c-6.076-4.494-6.21-15.057-6.352-21.692L33.834.98l.543.024a31.916 31.916 0 0 1 17.52 6.103 31.897 31.897 0 0 1 11.22 14.776l.19.51-.523.16c-3.998 1.224-9.476 2.88-14.518 2.884-2.967 0-5.806-.578-8.071-2.22Zm.605-.833c2.015 1.467 4.627 2.028 7.466 2.028 4.61 0 9.764-1.483 13.694-2.68A30.885 30.885 0 0 0 51.296 7.939a30.924 30.924 0 0 0-16.419-5.884c.101 6.642.59 16.525 5.923 20.328Zm-37.487.107-.521-.16.192-.51A31.88 31.88 0 0 1 14.2 7.044 31.895 31.895 0 0 1 31.72.94l.543-.024-.009.545c-.142 6.631-.272 17.198-6.351 21.689-2.265 1.642-5.105 2.222-8.072 2.222-5.039-.002-10.523-1.663-14.518-2.884Zm14.518 1.856c2.84 0 5.451-.559 7.467-2.028 5.335-3.8 5.824-13.686 5.922-20.326A30.928 30.928 0 0 0 14.805 7.87 30.916 30.916 0 0 0 4.14 21.666c3.924 1.2 9.079 2.682 13.691 2.68Z" fill="#F5CB45"/><path fill-rule="evenodd" clip-rule="evenodd" d="M31.74 1.453c-.112 6.634-.361 17.082-6.142 21.28-5.777 4.203-15.795 1.209-22.135-.735A31.583 31.583 0 0 1 31.74 1.453ZM62.632 22.06c-6.34 1.944-16.356 4.938-22.136.738-5.78-4.2-6.026-14.649-6.138-21.28A31.582 31.582 0 0 1 62.632 22.06ZM52.584 57.81c-3.812-5.43-9.752-14.032-7.544-20.827 2.208-6.793 12.07-10.258 18.339-12.413a31.589 31.589 0 0 1-10.795 33.24ZM2.593 24.466c6.272 2.158 16.133 5.623 18.342 12.417 2.208 6.794-3.732 15.396-7.54 20.826A31.586 31.586 0 0 1 2.593 24.466Zm12.88 34.831c3.989-5.3 10.332-13.608 17.476-13.608 7.146 0 13.49 8.309 17.475 13.608a31.596 31.596 0 0 1-34.952 0Z" fill="url(#b)"/><path d="M62.633 22.06c-5.496 1.686-13.748 4.156-19.614 2.057a70.165 70.165 0 0 1 14.488-11.015 31.346 31.346 0 0 1 5.126 8.958ZM52.584 57.81c-3.812-5.43-9.752-14.032-7.544-20.827 2.21-6.793 12.07-10.258 18.34-12.413a31.588 31.588 0 0 1-10.796 33.24ZM21.372 39.05c.563 6.375-4.564 13.791-7.976 18.659A31.442 31.442 0 0 1 2.977 42.716c-.1-.32-.201-.633-.293-.957a79.468 79.468 0 0 0 18.688-2.709Zm-5.898 20.247c3.99-5.3 10.332-13.608 17.476-13.608 7.146 0 13.49 8.309 17.476 13.608a31.597 31.597 0 0 1-34.952 0Z" fill="url(#c)"/><path opacity=".9" d="M28.893 12.621c-.768 3.821-2.143 6.878-4.431 8.543-2.291 1.66-5.626 2.025-9.494 1.575a53.954 53.954 0 0 1-8.892-1.981 29.677 29.677 0 0 1 23.68-17.209 54.161 54.161 0 0 1-.863 9.072Zm15.751 9.957a8.636 8.636 0 0 1-3.005-1.352c-2.289-1.662-3.664-4.722-4.432-8.542a53.813 53.813 0 0 1-.862-9.07 29.729 29.729 0 0 1 19.465 10.48 70.533 70.533 0 0 0-11.166 8.484Zm-32.305 8.05c3.39 1.91 5.878 4.162 6.752 6.853.215.673.34 1.372.37 2.078a79.66 79.66 0 0 1-14.775 2.114 29.48 29.48 0 0 1-.709-14.67 53.937 53.937 0 0 1 8.362 3.626Z" fill="#fff"/></g><defs><radialGradient id="b" cx="0" cy="0" r="1" gradientUnits="userSpaceOnUse" gradientTransform="translate(32.988 33.012) scale(31.5606)"><stop stop-color="#FFE37E"/><stop offset=".243" stop-color="#FEDF79"/><stop offset=".535" stop-color="#FBD56A"/><stop offset=".85" stop-color="#F5C352"/><stop offset="1" stop-color="#F2B944"/></radialGradient><radialGradient id="c" cx="0" cy="0" r="1" gradientUnits="userSpaceOnUse" gradientTransform="translate(33.141 61.961) scale(37.1768)"><stop stop-color="#FFE37E"/><stop offset=".243" stop-color="#FEDF79"/><stop offset=".535" stop-color="#FBD56A"/><stop offset=".85" stop-color="#F5C352"/><stop offset="1" stop-color="#F2B944"/></radialGradient><clipPath id="a"><path fill="#fff" transform="translate(.912 .917)" d="M0 0h262.961v64.166H0z"/></clipPath></defs></svg>