<svg width="183" height="64" fill="none" xmlns="http://www.w3.org/2000/svg"><g clip-path="url(#a)"><path d="M116.588.894c-2.787.538-4.65 2.479-5.257 5.468-.179.878-.193 2.294-.166 9.051l.042 8.017.386 1.12c1.09 3.158 3.215 4.617 6.719 4.617 3.602 0 5.74-1.558 6.844-4.958.235-.708.262-1.487.304-8.697.041-6.898.013-8.074-.18-9.065-.538-2.748-2.056-4.604-4.346-5.34-1.118-.355-3.118-.454-4.346-.213Zm2.787 4.476c.248.142.579.553.759.878l.317.61v16.289l-.317.61c-.663 1.26-2.222 1.486-3.215.467-.8-.822-.828-1.12-.787-9.66l.042-7.565.345-.708c.552-1.133 1.849-1.558 2.856-.92Z" fill="#1C1C1C"/><path d="M116.588.894c-2.787.538-4.65 2.479-5.257 5.468-.179.878-.193 2.294-.166 9.051l.042 8.017.386 1.12c1.09 3.158 3.215 4.617 6.719 4.617 3.602 0 5.74-1.558 6.844-4.958.235-.708.262-1.487.304-8.697.041-6.898.013-8.074-.18-9.065-.538-2.748-2.056-4.604-4.346-5.34-1.118-.355-3.118-.454-4.346-.213Zm2.787 4.476c.248.142.579.553.759.878l.317.61v16.289l-.317.61c-.663 1.26-2.222 1.486-3.215.467-.8-.822-.828-1.12-.787-9.66l.042-7.565.345-.708c.552-1.133 1.849-1.558 2.856-.92Z" fill="#000" fill-opacity=".2"/><path d="M116.588.894c-2.787.538-4.65 2.479-5.257 5.468-.179.878-.193 2.294-.166 9.051l.042 8.017.386 1.12c1.09 3.158 3.215 4.617 6.719 4.617 3.602 0 5.74-1.558 6.844-4.958.235-.708.262-1.487.304-8.697.041-6.898.013-8.074-.18-9.065-.538-2.748-2.056-4.604-4.346-5.34-1.118-.355-3.118-.454-4.346-.213Zm2.787 4.476c.248.142.579.553.759.878l.317.61v16.289l-.317.61c-.663 1.26-2.222 1.486-3.215.467-.8-.822-.828-1.12-.787-9.66l.042-7.565.345-.708c.552-1.133 1.849-1.558 2.856-.92Z" fill="#000" fill-opacity=".2"/><path d="M116.588.894c-2.787.538-4.65 2.479-5.257 5.468-.179.878-.193 2.294-.166 9.051l.042 8.017.386 1.12c1.09 3.158 3.215 4.617 6.719 4.617 3.602 0 5.74-1.558 6.844-4.958.235-.708.262-1.487.304-8.697.041-6.898.013-8.074-.18-9.065-.538-2.748-2.056-4.604-4.346-5.34-1.118-.355-3.118-.454-4.346-.213Zm2.787 4.476c.248.142.579.553.759.878l.317.61v16.289l-.317.61c-.663 1.26-2.222 1.486-3.215.467-.8-.822-.828-1.12-.787-9.66l.042-7.565.345-.708c.552-1.133 1.849-1.558 2.856-.92Z" fill="#000" fill-opacity=".2"/><path d="M22.832 32v30.88h26.146l6.389-7.111 6.374-7.111v-33.33l-6.374-7.11-6.389-7.097H22.832V32Zm26.05 15.241-.041 15.228-6.237-6.913-6.236-6.912V15.356l6.236-6.926 6.237-6.913.041 15.242c.014 8.385.014 22.097 0 30.482Z" fill="#1C1C1C"/><path d="M22.832 32v30.88h26.146l6.389-7.111 6.374-7.111v-33.33l-6.374-7.11-6.389-7.097H22.832V32Zm26.05 15.241-.041 15.228-6.237-6.913-6.236-6.912V15.356l6.236-6.926 6.237-6.913.041 15.242c.014 8.385.014 22.097 0 30.482Z" fill="#000" fill-opacity=".2"/><path d="M22.832 32v30.88h26.146l6.389-7.111 6.374-7.111v-33.33l-6.374-7.11-6.389-7.097H22.832V32Zm26.05 15.241-.041 15.228-6.237-6.913-6.236-6.912V15.356l6.236-6.926 6.237-6.913.041 15.242c.014 8.385.014 22.097 0 30.482Z" fill="#000" fill-opacity=".2"/><path d="M22.832 32v30.88h26.146l6.389-7.111 6.374-7.111v-33.33l-6.374-7.11-6.389-7.097H22.832V32Zm26.05 15.241-.041 15.228-6.237-6.913-6.236-6.912V15.356l6.236-6.926 6.237-6.913.041 15.242c.014 8.385.014 22.097 0 30.482Z" fill="#000" fill-opacity=".2"/><path d="M78.162 14.917v13.825h4.553v-9.207h1.78c.966 0 2.07-.057 2.442-.128 2.484-.481 3.988-1.912 4.54-4.277.29-1.29.29-8.16 0-9.448-.525-2.252-1.766-3.612-3.864-4.221-.676-.199-1.655-.255-5.132-.298l-4.319-.07v13.824Zm7.589-9.32c.303.17.607.538.828.977.33.694.345.78.345 3.825 0 2.988-.014 3.144-.332 3.796-.455.963-1.02 1.232-2.635 1.232h-1.242V5.2L84 5.257c.952.042 1.407.127 1.752.34Z" fill="#1C1C1C"/><path d="M78.162 14.917v13.825h4.553v-9.207h1.78c.966 0 2.07-.057 2.442-.128 2.484-.481 3.988-1.912 4.54-4.277.29-1.29.29-8.16 0-9.448-.525-2.252-1.766-3.612-3.864-4.221-.676-.199-1.655-.255-5.132-.298l-4.319-.07v13.824Zm7.589-9.32c.303.17.607.538.828.977.33.694.345.78.345 3.825 0 2.988-.014 3.144-.332 3.796-.455.963-1.02 1.232-2.635 1.232h-1.242V5.2L84 5.257c.952.042 1.407.127 1.752.34Z" fill="#000" fill-opacity=".2"/><path d="M78.162 14.917v13.825h4.553v-9.207h1.78c.966 0 2.07-.057 2.442-.128 2.484-.481 3.988-1.912 4.54-4.277.29-1.29.29-8.16 0-9.448-.525-2.252-1.766-3.612-3.864-4.221-.676-.199-1.655-.255-5.132-.298l-4.319-.07v13.824Zm7.589-9.32c.303.17.607.538.828.977.33.694.345.78.345 3.825 0 2.988-.014 3.144-.332 3.796-.455.963-1.02 1.232-2.635 1.232h-1.242V5.2L84 5.257c.952.042 1.407.127 1.752.34Z" fill="#000" fill-opacity=".2"/><path d="M78.162 14.917v13.825h4.553v-9.207h1.78c.966 0 2.07-.057 2.442-.128 2.484-.481 3.988-1.912 4.54-4.277.29-1.29.29-8.16 0-9.448-.525-2.252-1.766-3.612-3.864-4.221-.676-.199-1.655-.255-5.132-.298l-4.319-.07v13.824Zm7.589-9.32c.303.17.607.538.828.977.33.694.345.78.345 3.825 0 2.988-.014 3.144-.332 3.796-.455.963-1.02 1.232-2.635 1.232h-1.242V5.2L84 5.257c.952.042 1.407.127 1.752.34Z" fill="#000" fill-opacity=".2"/><path d="M94.582 14.917v13.825h4.553v-9.49h1.159c1.408 0 1.932.17 2.277.765.179.297.538 1.813 1.035 4.532.427 2.253.786 4.122.814 4.15.027.029 1.145.029 2.47.015l2.414-.043-.869-4.476c-.469-2.465-.98-4.76-1.118-5.1-.358-.82-.897-1.458-1.421-1.685-.221-.099-.414-.212-.414-.269 0-.042.221-.24.469-.439.718-.538 1.435-1.629 1.753-2.677.262-.793.317-1.374.372-3.867.069-3.102-.041-4.221-.538-5.567-.359-.977-1.338-2.11-2.249-2.578-1.394-.722-1.794-.779-6.388-.85l-4.319-.07v13.824Zm7.589-9.32c.648.382.924.935 1.117 2.181.18 1.19.083 4.575-.151 5.397-.345 1.232-1.063 1.7-2.788 1.799l-1.214.07V5.2l1.283.057c.952.042 1.408.127 1.753.34Z" fill="#1C1C1C"/><path d="M94.582 14.917v13.825h4.553v-9.49h1.159c1.408 0 1.932.17 2.277.765.179.297.538 1.813 1.035 4.532.427 2.253.786 4.122.814 4.15.027.029 1.145.029 2.47.015l2.414-.043-.869-4.476c-.469-2.465-.98-4.76-1.118-5.1-.358-.82-.897-1.458-1.421-1.685-.221-.099-.414-.212-.414-.269 0-.042.221-.24.469-.439.718-.538 1.435-1.629 1.753-2.677.262-.793.317-1.374.372-3.867.069-3.102-.041-4.221-.538-5.567-.359-.977-1.338-2.11-2.249-2.578-1.394-.722-1.794-.779-6.388-.85l-4.319-.07v13.824Zm7.589-9.32c.648.382.924.935 1.117 2.181.18 1.19.083 4.575-.151 5.397-.345 1.232-1.063 1.7-2.788 1.799l-1.214.07V5.2l1.283.057c.952.042 1.408.127 1.753.34Z" fill="#000" fill-opacity=".2"/><path d="M94.582 14.917v13.825h4.553v-9.49h1.159c1.408 0 1.932.17 2.277.765.179.297.538 1.813 1.035 4.532.427 2.253.786 4.122.814 4.15.027.029 1.145.029 2.47.015l2.414-.043-.869-4.476c-.469-2.465-.98-4.76-1.118-5.1-.358-.82-.897-1.458-1.421-1.685-.221-.099-.414-.212-.414-.269 0-.042.221-.24.469-.439.718-.538 1.435-1.629 1.753-2.677.262-.793.317-1.374.372-3.867.069-3.102-.041-4.221-.538-5.567-.359-.977-1.338-2.11-2.249-2.578-1.394-.722-1.794-.779-6.388-.85l-4.319-.07v13.824Zm7.589-9.32c.648.382.924.935 1.117 2.181.18 1.19.083 4.575-.151 5.397-.345 1.232-1.063 1.7-2.788 1.799l-1.214.07V5.2l1.283.057c.952.042 1.408.127 1.753.34Z" fill="#000" fill-opacity=".2"/><path d="M94.582 14.917v13.825h4.553v-9.49h1.159c1.408 0 1.932.17 2.277.765.179.297.538 1.813 1.035 4.532.427 2.253.786 4.122.814 4.15.027.029 1.145.029 2.47.015l2.414-.043-.869-4.476c-.469-2.465-.98-4.76-1.118-5.1-.358-.82-.897-1.458-1.421-1.685-.221-.099-.414-.212-.414-.269 0-.042.221-.24.469-.439.718-.538 1.435-1.629 1.753-2.677.262-.793.317-1.374.372-3.867.069-3.102-.041-4.221-.538-5.567-.359-.977-1.338-2.11-2.249-2.578-1.394-.722-1.794-.779-6.388-.85l-4.319-.07v13.824Zm7.589-9.32c.648.382.924.935 1.117 2.181.18 1.19.083 4.575-.151 5.397-.345 1.232-1.063 1.7-2.788 1.799l-1.214.07V5.2l1.283.057c.952.042 1.408.127 1.753.34Z" fill="#000" fill-opacity=".2"/><path d="M128.523 14.931v13.811h4.692V17.835h5.657v-4.674h-5.657V5.795h5.657V1.121h-10.349v13.81Z" fill="#1C1C1C"/><path d="M128.523 14.931v13.811h4.692V17.835h5.657v-4.674h-5.657V5.795h5.657V1.121h-10.349v13.81Z" fill="#000" fill-opacity=".2"/><path d="M128.523 14.931v13.811h4.692V17.835h5.657v-4.674h-5.657V5.795h5.657V1.121h-10.349v13.81Z" fill="#000" fill-opacity=".2"/><path d="M128.523 14.931v13.811h4.692V17.835h5.657v-4.674h-5.657V5.795h5.657V1.121h-10.349v13.81Z" fill="#000" fill-opacity=".2"/><path d="M141.494 14.931v13.811h4.829V1.121h-4.829v13.81Z" fill="#1C1C1C"/><path d="M141.494 14.931v13.811h4.829V1.121h-4.829v13.81Z" fill="#000" fill-opacity=".2"/><path d="M141.494 14.931v13.811h4.829V1.121h-4.829v13.81Z" fill="#000" fill-opacity=".2"/><path d="M141.494 14.931v13.811h4.829V1.121h-4.829v13.81Z" fill="#000" fill-opacity=".2"/><path d="M150.049 14.931v13.811h10.072V24.21h-5.381V1.121h-4.691v13.81Z" fill="#1C1C1C"/><path d="M150.049 14.931v13.811h10.072V24.21h-5.381V1.121h-4.691v13.81Z" fill="#000" fill-opacity=".2"/><path d="M150.049 14.931v13.811h10.072V24.21h-5.381V1.121h-4.691v13.81Z" fill="#000" fill-opacity=".2"/><path d="M150.049 14.931v13.811h10.072V24.21h-5.381V1.121h-4.691v13.81Z" fill="#000" fill-opacity=".2"/><path d="M100.004 35.031c-2.304.581-3.905 2.224-4.691 4.83-.235.78-.249 1.502-.249 9.137v8.286l.332 1.12c.896 2.974 2.925 4.56 6.181 4.83 3.077.255 5.712-1.091 6.871-3.513.869-1.813.897-2.14.897-10.624 0-6.403-.041-7.79-.221-8.711-.565-2.833-2.18-4.66-4.705-5.34-.952-.255-3.394-.27-4.415-.015Zm3.091 4.32c.414.199.662.454.897.893l.317.61v8.144c0 7.861-.014 8.159-.276 8.711-.787 1.615-2.842 1.615-3.656-.014l-.345-.68-.042-7.507c-.027-5.057.014-7.734.111-8.244.193-.935.62-1.615 1.241-1.927.621-.325 1.035-.311 1.753.015Z" fill="#1C1C1C"/><path d="M100.004 35.031c-2.304.581-3.905 2.224-4.691 4.83-.235.78-.249 1.502-.249 9.137v8.286l.332 1.12c.896 2.974 2.925 4.56 6.181 4.83 3.077.255 5.712-1.091 6.871-3.513.869-1.813.897-2.14.897-10.624 0-6.403-.041-7.79-.221-8.711-.565-2.833-2.18-4.66-4.705-5.34-.952-.255-3.394-.27-4.415-.015Zm3.091 4.32c.414.199.662.454.897.893l.317.61v8.144c0 7.861-.014 8.159-.276 8.711-.787 1.615-2.842 1.615-3.656-.014l-.345-.68-.042-7.507c-.027-5.057.014-7.734.111-8.244.193-.935.62-1.615 1.241-1.927.621-.325 1.035-.311 1.753.015Z" fill="#000" fill-opacity=".2"/><path d="M100.004 35.031c-2.304.581-3.905 2.224-4.691 4.83-.235.78-.249 1.502-.249 9.137v8.286l.332 1.12c.896 2.974 2.925 4.56 6.181 4.83 3.077.255 5.712-1.091 6.871-3.513.869-1.813.897-2.14.897-10.624 0-6.403-.041-7.79-.221-8.711-.565-2.833-2.18-4.66-4.705-5.34-.952-.255-3.394-.27-4.415-.015Zm3.091 4.32c.414.199.662.454.897.893l.317.61v8.144c0 7.861-.014 8.159-.276 8.711-.787 1.615-2.842 1.615-3.656-.014l-.345-.68-.042-7.507c-.027-5.057.014-7.734.111-8.244.193-.935.62-1.615 1.241-1.927.621-.325 1.035-.311 1.753.015Z" fill="#000" fill-opacity=".2"/><path d="M100.004 35.031c-2.304.581-3.905 2.224-4.691 4.83-.235.78-.249 1.502-.249 9.137v8.286l.332 1.12c.896 2.974 2.925 4.56 6.181 4.83 3.077.255 5.712-1.091 6.871-3.513.869-1.813.897-2.14.897-10.624 0-6.403-.041-7.79-.221-8.711-.565-2.833-2.18-4.66-4.705-5.34-.952-.255-3.394-.27-4.415-.015Zm3.091 4.32c.414.199.662.454.897.893l.317.61v8.144c0 7.861-.014 8.159-.276 8.711-.787 1.615-2.842 1.615-3.656-.014l-.345-.68-.042-7.507c-.027-5.057.014-7.734.111-8.244.193-.935.62-1.615 1.241-1.927.621-.325 1.035-.311 1.753.015Z" fill="#000" fill-opacity=".2"/><path d="M117.347 35.06c-2.304.623-3.904 2.28-4.636 4.816-.22.736-.248 1.685-.289 8.513-.069 8.683-.014 9.334.841 11.176 1.132 2.45 3.215 3.654 6.361 3.654 2.359 0 3.891-.58 5.16-1.968.828-.893 1.325-1.884 1.684-3.3.248-.992.262-1.616.262-8.868 0-8.584-.042-9.009-.828-10.666-.828-1.714-2.221-2.876-4.07-3.372-1.035-.269-3.464-.269-4.485.015Zm3.45 4.447c.207.156.497.525.634.808.249.51.263 1.006.263 8.754 0 8.031 0 8.23-.29 8.711-.455.822-1.09 1.176-1.959 1.105-.621-.057-.814-.142-1.201-.552-.883-.907-.91-1.261-.869-9.718.041-7.266.055-7.493.331-8.116.331-.737.69-1.09 1.242-1.275.552-.184 1.393-.042 1.849.283Z" fill="#1C1C1C"/><path d="M117.347 35.06c-2.304.623-3.904 2.28-4.636 4.816-.22.736-.248 1.685-.289 8.513-.069 8.683-.014 9.334.841 11.176 1.132 2.45 3.215 3.654 6.361 3.654 2.359 0 3.891-.58 5.16-1.968.828-.893 1.325-1.884 1.684-3.3.248-.992.262-1.616.262-8.868 0-8.584-.042-9.009-.828-10.666-.828-1.714-2.221-2.876-4.07-3.372-1.035-.269-3.464-.269-4.485.015Zm3.45 4.447c.207.156.497.525.634.808.249.51.263 1.006.263 8.754 0 8.031 0 8.23-.29 8.711-.455.822-1.09 1.176-1.959 1.105-.621-.057-.814-.142-1.201-.552-.883-.907-.91-1.261-.869-9.718.041-7.266.055-7.493.331-8.116.331-.737.69-1.09 1.242-1.275.552-.184 1.393-.042 1.849.283Z" fill="#000" fill-opacity=".2"/><path d="M117.347 35.06c-2.304.623-3.904 2.28-4.636 4.816-.22.736-.248 1.685-.289 8.513-.069 8.683-.014 9.334.841 11.176 1.132 2.45 3.215 3.654 6.361 3.654 2.359 0 3.891-.58 5.16-1.968.828-.893 1.325-1.884 1.684-3.3.248-.992.262-1.616.262-8.868 0-8.584-.042-9.009-.828-10.666-.828-1.714-2.221-2.876-4.07-3.372-1.035-.269-3.464-.269-4.485.015Zm3.45 4.447c.207.156.497.525.634.808.249.51.263 1.006.263 8.754 0 8.031 0 8.23-.29 8.711-.455.822-1.09 1.176-1.959 1.105-.621-.057-.814-.142-1.201-.552-.883-.907-.91-1.261-.869-9.718.041-7.266.055-7.493.331-8.116.331-.737.69-1.09 1.242-1.275.552-.184 1.393-.042 1.849.283Z" fill="#000" fill-opacity=".2"/><path d="M117.347 35.06c-2.304.623-3.904 2.28-4.636 4.816-.22.736-.248 1.685-.289 8.513-.069 8.683-.014 9.334.841 11.176 1.132 2.45 3.215 3.654 6.361 3.654 2.359 0 3.891-.58 5.16-1.968.828-.893 1.325-1.884 1.684-3.3.248-.992.262-1.616.262-8.868 0-8.584-.042-9.009-.828-10.666-.828-1.714-2.221-2.876-4.07-3.372-1.035-.269-3.464-.269-4.485.015Zm3.45 4.447c.207.156.497.525.634.808.249.51.263 1.006.263 8.754 0 8.031 0 8.23-.29 8.711-.455.822-1.09 1.176-1.959 1.105-.621-.057-.814-.142-1.201-.552-.883-.907-.91-1.261-.869-9.718.041-7.266.055-7.493.331-8.116.331-.737.69-1.09 1.242-1.275.552-.184 1.393-.042 1.849.283Z" fill="#000" fill-opacity=".2"/><path d="M151.167 35.045c-2.332.666-3.974 2.522-4.498 5.1-.442 2.125-.152 4.575.731 6.445.649 1.36 2.084 2.847 4.029 4.178 2.539 1.743 3.284 2.82 3.408 4.93.138 2.238-.552 3.57-1.876 3.57-1.422 0-2.001-.964-2.015-3.4 0-.864.041-1.728.11-1.955l.097-.382h-4.526l-.151.708c-.249 1.176-.193 3.357.124 4.604.345 1.373.759 2.124 1.656 2.946 1.89 1.742 5.836 1.969 8.306.481 1.338-.807 2.483-2.535 2.856-4.32.221-1.076.179-3.612-.069-4.703-.111-.51-.428-1.402-.718-1.983-.648-1.374-2.193-2.989-4.167-4.348-1.462-1.02-2.428-1.927-2.8-2.692-.387-.75-.539-2.11-.373-3.158.248-1.53.869-2.295 1.863-2.295 1.324 0 1.973 1.544 1.835 4.349l-.069 1.345h4.484l.083-.439c.152-.807.083-3.725-.111-4.689-.427-2.025-1.503-3.47-3.09-4.093-1.035-.411-3.974-.524-5.119-.199Z" fill="#1C1C1C"/><path d="M151.167 35.045c-2.332.666-3.974 2.522-4.498 5.1-.442 2.125-.152 4.575.731 6.445.649 1.36 2.084 2.847 4.029 4.178 2.539 1.743 3.284 2.82 3.408 4.93.138 2.238-.552 3.57-1.876 3.57-1.422 0-2.001-.964-2.015-3.4 0-.864.041-1.728.11-1.955l.097-.382h-4.526l-.151.708c-.249 1.176-.193 3.357.124 4.604.345 1.373.759 2.124 1.656 2.946 1.89 1.742 5.836 1.969 8.306.481 1.338-.807 2.483-2.535 2.856-4.32.221-1.076.179-3.612-.069-4.703-.111-.51-.428-1.402-.718-1.983-.648-1.374-2.193-2.989-4.167-4.348-1.462-1.02-2.428-1.927-2.8-2.692-.387-.75-.539-2.11-.373-3.158.248-1.53.869-2.295 1.863-2.295 1.324 0 1.973 1.544 1.835 4.349l-.069 1.345h4.484l.083-.439c.152-.807.083-3.725-.111-4.689-.427-2.025-1.503-3.47-3.09-4.093-1.035-.411-3.974-.524-5.119-.199Z" fill="#000" fill-opacity=".2"/><path d="M151.167 35.045c-2.332.666-3.974 2.522-4.498 5.1-.442 2.125-.152 4.575.731 6.445.649 1.36 2.084 2.847 4.029 4.178 2.539 1.743 3.284 2.82 3.408 4.93.138 2.238-.552 3.57-1.876 3.57-1.422 0-2.001-.964-2.015-3.4 0-.864.041-1.728.11-1.955l.097-.382h-4.526l-.151.708c-.249 1.176-.193 3.357.124 4.604.345 1.373.759 2.124 1.656 2.946 1.89 1.742 5.836 1.969 8.306.481 1.338-.807 2.483-2.535 2.856-4.32.221-1.076.179-3.612-.069-4.703-.111-.51-.428-1.402-.718-1.983-.648-1.374-2.193-2.989-4.167-4.348-1.462-1.02-2.428-1.927-2.8-2.692-.387-.75-.539-2.11-.373-3.158.248-1.53.869-2.295 1.863-2.295 1.324 0 1.973 1.544 1.835 4.349l-.069 1.345h4.484l.083-.439c.152-.807.083-3.725-.111-4.689-.427-2.025-1.503-3.47-3.09-4.093-1.035-.411-3.974-.524-5.119-.199Z" fill="#000" fill-opacity=".2"/><path d="M151.167 35.045c-2.332.666-3.974 2.522-4.498 5.1-.442 2.125-.152 4.575.731 6.445.649 1.36 2.084 2.847 4.029 4.178 2.539 1.743 3.284 2.82 3.408 4.93.138 2.238-.552 3.57-1.876 3.57-1.422 0-2.001-.964-2.015-3.4 0-.864.041-1.728.11-1.955l.097-.382h-4.526l-.151.708c-.249 1.176-.193 3.357.124 4.604.345 1.373.759 2.124 1.656 2.946 1.89 1.742 5.836 1.969 8.306.481 1.338-.807 2.483-2.535 2.856-4.32.221-1.076.179-3.612-.069-4.703-.111-.51-.428-1.402-.718-1.983-.648-1.374-2.193-2.989-4.167-4.348-1.462-1.02-2.428-1.927-2.8-2.692-.387-.75-.539-2.11-.373-3.158.248-1.53.869-2.295 1.863-2.295 1.324 0 1.973 1.544 1.835 4.349l-.069 1.345h4.484l.083-.439c.152-.807.083-3.725-.111-4.689-.427-2.025-1.503-3.47-3.09-4.093-1.035-.411-3.974-.524-5.119-.199Z" fill="#000" fill-opacity=".2"/><path d="M78.3 49.083v13.825l3.906-.071c3.021-.057 4.07-.113 4.718-.297 2.332-.666 3.698-1.898 4.512-4.137.304-.821.317-.949.359-8.923.028-6.927.014-8.244-.18-9.052-.593-2.663-2.207-4.334-4.787-4.957-.663-.156-1.794-.213-4.692-.213h-3.835v13.825Zm7.48-9.391c.385.212.634.524.91 1.076l.372.793.042 7.054c.027 6.006.014 7.182-.18 7.919-.386 1.572-1.048 2.096-2.787 2.21l-1.007.07V39.182l1.062.099c.69.07 1.256.212 1.587.41Z" fill="#1C1C1C"/><path d="M78.3 49.083v13.825l3.906-.071c3.021-.057 4.07-.113 4.718-.297 2.332-.666 3.698-1.898 4.512-4.137.304-.821.317-.949.359-8.923.028-6.927.014-8.244-.18-9.052-.593-2.663-2.207-4.334-4.787-4.957-.663-.156-1.794-.213-4.692-.213h-3.835v13.825Zm7.48-9.391c.385.212.634.524.91 1.076l.372.793.042 7.054c.027 6.006.014 7.182-.18 7.919-.386 1.572-1.048 2.096-2.787 2.21l-1.007.07V39.182l1.062.099c.69.07 1.256.212 1.587.41Z" fill="#000" fill-opacity=".2"/><path d="M78.3 49.083v13.825l3.906-.071c3.021-.057 4.07-.113 4.718-.297 2.332-.666 3.698-1.898 4.512-4.137.304-.821.317-.949.359-8.923.028-6.927.014-8.244-.18-9.052-.593-2.663-2.207-4.334-4.787-4.957-.663-.156-1.794-.213-4.692-.213h-3.835v13.825Zm7.48-9.391c.385.212.634.524.91 1.076l.372.793.042 7.054c.027 6.006.014 7.182-.18 7.919-.386 1.572-1.048 2.096-2.787 2.21l-1.007.07V39.182l1.062.099c.69.07 1.256.212 1.587.41Z" fill="#000" fill-opacity=".2"/><path d="M78.3 49.083v13.825l3.906-.071c3.021-.057 4.07-.113 4.718-.297 2.332-.666 3.698-1.898 4.512-4.137.304-.821.317-.949.359-8.923.028-6.927.014-8.244-.18-9.052-.593-2.663-2.207-4.334-4.787-4.957-.663-.156-1.794-.213-4.692-.213h-3.835v13.825Zm7.48-9.391c.385.212.634.524.91 1.076l.372.793.042 7.054c.027 6.006.014 7.182-.18 7.919-.386 1.572-1.048 2.096-2.787 2.21l-1.007.07V39.182l1.062.099c.69.07 1.256.212 1.587.41Z" fill="#000" fill-opacity=".2"/><path d="M130.041 49.069v13.81h4.553v-9.632l1.145.014c.621 0 1.353.071 1.615.17.8.284 1.021.95 1.835 5.411l.717 3.967 2.456.042c1.559.014 2.442-.014 2.442-.113 0-.368-1.559-8.258-1.793-9.066-.318-1.09-.938-1.926-1.697-2.266-.469-.213-.511-.27-.262-.34.386-.128 1.462-1.346 1.807-2.04.566-1.147.704-2.167.704-5.482 0-3.357-.111-4.136-.745-5.425-.401-.807-1.325-1.728-2.111-2.139-1.215-.623-2.056-.722-6.485-.722h-4.181v13.81Zm7.575-9.448c.317.155.621.481.842.878.331.623.345.708.345 3.612 0 2.776-.014 3.017-.29 3.541-.566 1.063-1.159 1.346-2.829 1.346h-1.09v-9.816l1.27.099c.758.042 1.462.184 1.752.34Z" fill="#1C1C1C"/><path d="M130.041 49.069v13.81h4.553v-9.632l1.145.014c.621 0 1.353.071 1.615.17.8.284 1.021.95 1.835 5.411l.717 3.967 2.456.042c1.559.014 2.442-.014 2.442-.113 0-.368-1.559-8.258-1.793-9.066-.318-1.09-.938-1.926-1.697-2.266-.469-.213-.511-.27-.262-.34.386-.128 1.462-1.346 1.807-2.04.566-1.147.704-2.167.704-5.482 0-3.357-.111-4.136-.745-5.425-.401-.807-1.325-1.728-2.111-2.139-1.215-.623-2.056-.722-6.485-.722h-4.181v13.81Zm7.575-9.448c.317.155.621.481.842.878.331.623.345.708.345 3.612 0 2.776-.014 3.017-.29 3.541-.566 1.063-1.159 1.346-2.829 1.346h-1.09v-9.816l1.27.099c.758.042 1.462.184 1.752.34Z" fill="#000" fill-opacity=".2"/><path d="M130.041 49.069v13.81h4.553v-9.632l1.145.014c.621 0 1.353.071 1.615.17.8.284 1.021.95 1.835 5.411l.717 3.967 2.456.042c1.559.014 2.442-.014 2.442-.113 0-.368-1.559-8.258-1.793-9.066-.318-1.09-.938-1.926-1.697-2.266-.469-.213-.511-.27-.262-.34.386-.128 1.462-1.346 1.807-2.04.566-1.147.704-2.167.704-5.482 0-3.357-.111-4.136-.745-5.425-.401-.807-1.325-1.728-2.111-2.139-1.215-.623-2.056-.722-6.485-.722h-4.181v13.81Zm7.575-9.448c.317.155.621.481.842.878.331.623.345.708.345 3.612 0 2.776-.014 3.017-.29 3.541-.566 1.063-1.159 1.346-2.829 1.346h-1.09v-9.816l1.27.099c.758.042 1.462.184 1.752.34Z" fill="#000" fill-opacity=".2"/><path d="M130.041 49.069v13.81h4.553v-9.632l1.145.014c.621 0 1.353.071 1.615.17.8.284 1.021.95 1.835 5.411l.717 3.967 2.456.042c1.559.014 2.442-.014 2.442-.113 0-.368-1.559-8.258-1.793-9.066-.318-1.09-.938-1.926-1.697-2.266-.469-.213-.511-.27-.262-.34.386-.128 1.462-1.346 1.807-2.04.566-1.147.704-2.167.704-5.482 0-3.357-.111-4.136-.745-5.425-.401-.807-1.325-1.728-2.111-2.139-1.215-.623-2.056-.722-6.485-.722h-4.181v13.81Zm7.575-9.448c.317.155.621.481.842.878.331.623.345.708.345 3.612 0 2.776-.014 3.017-.29 3.541-.566 1.063-1.159 1.346-2.829 1.346h-1.09v-9.816l1.27.099c.758.042 1.462.184 1.752.34Z" fill="#000" fill-opacity=".2"/><g clip-path="url(#b)"><path d="M116.59.894c-2.787.539-4.65 2.48-5.257 5.468-.18.878-.193 2.295-.166 9.051l.042 8.018.386 1.119c1.09 3.158 3.215 4.617 6.719 4.617 3.602 0 5.74-1.558 6.844-4.957.235-.709.262-1.488.304-8.698.041-6.898.013-8.073-.18-9.065-.538-2.748-2.056-4.604-4.346-5.34-1.118-.354-3.118-.453-4.346-.213Zm2.787 4.476c.248.142.579.553.759.879l.317.609v16.289l-.317.61c-.663 1.26-2.222 1.487-3.215.467-.8-.822-.828-1.12-.787-9.66l.042-7.565.345-.708c.552-1.133 1.849-1.558 2.856-.92Z" fill="#1C1C1C"/><path d="M116.59.894c-2.787.539-4.65 2.48-5.257 5.468-.18.878-.193 2.295-.166 9.051l.042 8.018.386 1.119c1.09 3.158 3.215 4.617 6.719 4.617 3.602 0 5.74-1.558 6.844-4.957.235-.709.262-1.488.304-8.698.041-6.898.013-8.073-.18-9.065-.538-2.748-2.056-4.604-4.346-5.34-1.118-.354-3.118-.453-4.346-.213Zm2.787 4.476c.248.142.579.553.759.879l.317.609v16.289l-.317.61c-.663 1.26-2.222 1.487-3.215.467-.8-.822-.828-1.12-.787-9.66l.042-7.565.345-.708c.552-1.133 1.849-1.558 2.856-.92Z" fill="#000" fill-opacity=".2"/><path d="M116.59.894c-2.787.539-4.65 2.48-5.257 5.468-.18.878-.193 2.295-.166 9.051l.042 8.018.386 1.119c1.09 3.158 3.215 4.617 6.719 4.617 3.602 0 5.74-1.558 6.844-4.957.235-.709.262-1.488.304-8.698.041-6.898.013-8.073-.18-9.065-.538-2.748-2.056-4.604-4.346-5.34-1.118-.354-3.118-.453-4.346-.213Zm2.787 4.476c.248.142.579.553.759.879l.317.609v16.289l-.317.61c-.663 1.26-2.222 1.487-3.215.467-.8-.822-.828-1.12-.787-9.66l.042-7.565.345-.708c.552-1.133 1.849-1.558 2.856-.92Z" fill="#000" fill-opacity=".2"/><path d="M116.59.894c-2.787.539-4.65 2.48-5.257 5.468-.18.878-.193 2.295-.166 9.051l.042 8.018.386 1.119c1.09 3.158 3.215 4.617 6.719 4.617 3.602 0 5.74-1.558 6.844-4.957.235-.709.262-1.488.304-8.698.041-6.898.013-8.073-.18-9.065-.538-2.748-2.056-4.604-4.346-5.34-1.118-.354-3.118-.453-4.346-.213Zm2.787 4.476c.248.142.579.553.759.879l.317.609v16.289l-.317.61c-.663 1.26-2.222 1.487-3.215.467-.8-.822-.828-1.12-.787-9.66l.042-7.565.345-.708c.552-1.133 1.849-1.558 2.856-.92Z" fill="#000" fill-opacity=".2"/><path d="M22.834 32v30.88H48.98l6.389-7.111 6.374-7.11V15.327l-6.374-7.11L48.98 1.12H22.834V32Zm26.05 15.242-.041 15.227-6.237-6.913-6.236-6.912V15.357l6.236-6.927 6.236-6.912.042 15.24c.014 8.387.014 22.098 0 30.484Z" fill="#1C1C1C"/><path d="M22.834 32v30.88H48.98l6.389-7.111 6.374-7.11V15.327l-6.374-7.11L48.98 1.12H22.834V32Zm26.05 15.242-.041 15.227-6.237-6.913-6.236-6.912V15.357l6.236-6.927 6.236-6.912.042 15.24c.014 8.387.014 22.098 0 30.484Z" fill="#000" fill-opacity=".2"/><path d="M22.834 32v30.88H48.98l6.389-7.111 6.374-7.11V15.327l-6.374-7.11L48.98 1.12H22.834V32Zm26.05 15.242-.041 15.227-6.237-6.913-6.236-6.912V15.357l6.236-6.927 6.236-6.912.042 15.24c.014 8.387.014 22.098 0 30.484Z" fill="#000" fill-opacity=".2"/><path d="M22.834 32v30.88H48.98l6.389-7.111 6.374-7.11V15.327l-6.374-7.11L48.98 1.12H22.834V32Zm26.05 15.242-.041 15.227-6.237-6.913-6.236-6.912V15.357l6.236-6.927 6.236-6.912.042 15.24c.014 8.387.014 22.098 0 30.484Z" fill="#000" fill-opacity=".2"/><path d="M78.162 14.918v13.824h4.553v-9.207h1.78c.966 0 2.07-.056 2.442-.127 2.484-.482 3.988-1.913 4.54-4.278.29-1.29.29-8.159 0-9.448-.525-2.252-1.766-3.612-3.864-4.221-.676-.198-1.655-.255-5.132-.298l-4.319-.07v13.825Zm7.589-9.321c.303.17.607.538.828.977.33.694.345.78.345 3.825 0 2.989-.014 3.145-.332 3.796-.455.963-1.02 1.232-2.635 1.232h-1.242V5.2L84 5.257c.952.043 1.407.128 1.752.34Z" fill="#1C1C1C"/><path d="M78.162 14.918v13.824h4.553v-9.207h1.78c.966 0 2.07-.056 2.442-.127 2.484-.482 3.988-1.913 4.54-4.278.29-1.29.29-8.159 0-9.448-.525-2.252-1.766-3.612-3.864-4.221-.676-.198-1.655-.255-5.132-.298l-4.319-.07v13.825Zm7.589-9.321c.303.17.607.538.828.977.33.694.345.78.345 3.825 0 2.989-.014 3.145-.332 3.796-.455.963-1.02 1.232-2.635 1.232h-1.242V5.2L84 5.257c.952.043 1.407.128 1.752.34Z" fill="#000" fill-opacity=".2"/><path d="M78.162 14.918v13.824h4.553v-9.207h1.78c.966 0 2.07-.056 2.442-.127 2.484-.482 3.988-1.913 4.54-4.278.29-1.29.29-8.159 0-9.448-.525-2.252-1.766-3.612-3.864-4.221-.676-.198-1.655-.255-5.132-.298l-4.319-.07v13.825Zm7.589-9.321c.303.17.607.538.828.977.33.694.345.78.345 3.825 0 2.989-.014 3.145-.332 3.796-.455.963-1.02 1.232-2.635 1.232h-1.242V5.2L84 5.257c.952.043 1.407.128 1.752.34Z" fill="#000" fill-opacity=".2"/><path d="M78.162 14.918v13.824h4.553v-9.207h1.78c.966 0 2.07-.056 2.442-.127 2.484-.482 3.988-1.913 4.54-4.278.29-1.29.29-8.159 0-9.448-.525-2.252-1.766-3.612-3.864-4.221-.676-.198-1.655-.255-5.132-.298l-4.319-.07v13.825Zm7.589-9.321c.303.17.607.538.828.977.33.694.345.78.345 3.825 0 2.989-.014 3.145-.332 3.796-.455.963-1.02 1.232-2.635 1.232h-1.242V5.2L84 5.257c.952.043 1.407.128 1.752.34Z" fill="#000" fill-opacity=".2"/><path d="M94.582 14.918v13.824h4.553v-9.49h1.159c1.408 0 1.932.17 2.277.765.179.297.538 1.813 1.035 4.533.427 2.252.786 4.122.814 4.15.027.028 1.145.028 2.47.014l2.414-.042-.869-4.477c-.469-2.464-.98-4.759-1.118-5.099-.358-.822-.897-1.459-1.421-1.686-.221-.099-.414-.212-.414-.269 0-.042.221-.24.469-.439.718-.538 1.435-1.629 1.753-2.677.262-.793.317-1.374.372-3.867.069-3.102-.041-4.221-.538-5.567-.359-.977-1.338-2.11-2.249-2.578-1.394-.722-1.794-.779-6.388-.85l-4.319-.07v13.825Zm7.589-9.321c.648.382.924.935 1.117 2.181.18 1.19.083 4.576-.151 5.397-.345 1.232-1.063 1.7-2.788 1.8l-1.214.07V5.2l1.283.057c.952.043 1.408.128 1.753.34Z" fill="#1C1C1C"/><path d="M94.582 14.918v13.824h4.553v-9.49h1.159c1.408 0 1.932.17 2.277.765.179.297.538 1.813 1.035 4.533.427 2.252.786 4.122.814 4.15.027.028 1.145.028 2.47.014l2.414-.042-.869-4.477c-.469-2.464-.98-4.759-1.118-5.099-.358-.822-.897-1.459-1.421-1.686-.221-.099-.414-.212-.414-.269 0-.042.221-.24.469-.439.718-.538 1.435-1.629 1.753-2.677.262-.793.317-1.374.372-3.867.069-3.102-.041-4.221-.538-5.567-.359-.977-1.338-2.11-2.249-2.578-1.394-.722-1.794-.779-6.388-.85l-4.319-.07v13.825Zm7.589-9.321c.648.382.924.935 1.117 2.181.18 1.19.083 4.576-.151 5.397-.345 1.232-1.063 1.7-2.788 1.8l-1.214.07V5.2l1.283.057c.952.043 1.408.128 1.753.34Z" fill="#000" fill-opacity=".2"/><path d="M94.582 14.918v13.824h4.553v-9.49h1.159c1.408 0 1.932.17 2.277.765.179.297.538 1.813 1.035 4.533.427 2.252.786 4.122.814 4.15.027.028 1.145.028 2.47.014l2.414-.042-.869-4.477c-.469-2.464-.98-4.759-1.118-5.099-.358-.822-.897-1.459-1.421-1.686-.221-.099-.414-.212-.414-.269 0-.042.221-.24.469-.439.718-.538 1.435-1.629 1.753-2.677.262-.793.317-1.374.372-3.867.069-3.102-.041-4.221-.538-5.567-.359-.977-1.338-2.11-2.249-2.578-1.394-.722-1.794-.779-6.388-.85l-4.319-.07v13.825Zm7.589-9.321c.648.382.924.935 1.117 2.181.18 1.19.083 4.576-.151 5.397-.345 1.232-1.063 1.7-2.788 1.8l-1.214.07V5.2l1.283.057c.952.043 1.408.128 1.753.34Z" fill="#000" fill-opacity=".2"/><path d="M94.582 14.918v13.824h4.553v-9.49h1.159c1.408 0 1.932.17 2.277.765.179.297.538 1.813 1.035 4.533.427 2.252.786 4.122.814 4.15.027.028 1.145.028 2.47.014l2.414-.042-.869-4.477c-.469-2.464-.98-4.759-1.118-5.099-.358-.822-.897-1.459-1.421-1.686-.221-.099-.414-.212-.414-.269 0-.042.221-.24.469-.439.718-.538 1.435-1.629 1.753-2.677.262-.793.317-1.374.372-3.867.069-3.102-.041-4.221-.538-5.567-.359-.977-1.338-2.11-2.249-2.578-1.394-.722-1.794-.779-6.388-.85l-4.319-.07v13.825Zm7.589-9.321c.648.382.924.935 1.117 2.181.18 1.19.083 4.576-.151 5.397-.345 1.232-1.063 1.7-2.788 1.8l-1.214.07V5.2l1.283.057c.952.043 1.408.128 1.753.34Z" fill="#000" fill-opacity=".2"/><path d="M128.525 14.932v13.81h4.692V17.835h5.657v-4.674h-5.657V5.795h5.657V1.121h-10.349v13.81Z" fill="#1C1C1C"/><path d="M128.525 14.932v13.81h4.692V17.835h5.657v-4.674h-5.657V5.795h5.657V1.121h-10.349v13.81Z" fill="#000" fill-opacity=".2"/><path d="M128.525 14.932v13.81h4.692V17.835h5.657v-4.674h-5.657V5.795h5.657V1.121h-10.349v13.81Z" fill="#000" fill-opacity=".2"/><path d="M128.525 14.932v13.81h4.692V17.835h5.657v-4.674h-5.657V5.795h5.657V1.121h-10.349v13.81Z" fill="#000" fill-opacity=".2"/><path d="M141.494 14.932v13.81h4.829V1.121h-4.829v13.81Z" fill="#1C1C1C"/><path d="M141.494 14.932v13.81h4.829V1.121h-4.829v13.81Z" fill="#000" fill-opacity=".2"/><path d="M141.494 14.932v13.81h4.829V1.121h-4.829v13.81Z" fill="#000" fill-opacity=".2"/><path d="M141.494 14.932v13.81h4.829V1.121h-4.829v13.81Z" fill="#000" fill-opacity=".2"/><path d="M150.049 14.932v13.81h10.072V24.21h-5.381V1.12h-4.691v13.81Z" fill="#1C1C1C"/><path d="M150.049 14.932v13.81h10.072V24.21h-5.381V1.12h-4.691v13.81Z" fill="#000" fill-opacity=".2"/><path d="M150.049 14.932v13.81h10.072V24.21h-5.381V1.12h-4.691v13.81Z" fill="#000" fill-opacity=".2"/><path d="M150.049 14.932v13.81h10.072V24.21h-5.381V1.12h-4.691v13.81Z" fill="#000" fill-opacity=".2"/><path d="M100.004 35.032c-2.304.58-3.905 2.223-4.691 4.83-.235.779-.249 1.501-.249 9.136v8.287l.332 1.119c.896 2.974 2.925 4.56 6.181 4.83 3.077.255 5.712-1.09 6.871-3.513.869-1.813.897-2.139.897-10.624 0-6.402-.041-7.79-.221-8.711-.565-2.833-2.18-4.66-4.705-5.34-.952-.255-3.394-.27-4.415-.014Zm3.091 4.32c.414.198.662.453.897.892l.317.61v8.144c0 7.862-.014 8.16-.276 8.712-.787 1.614-2.842 1.614-3.656-.015l-.345-.68-.042-7.507c-.027-5.057.014-7.734.111-8.244.193-.935.62-1.615 1.241-1.926.621-.326 1.035-.312 1.753.014Z" fill="#1C1C1C"/><path d="M100.004 35.032c-2.304.58-3.905 2.223-4.691 4.83-.235.779-.249 1.501-.249 9.136v8.287l.332 1.119c.896 2.974 2.925 4.56 6.181 4.83 3.077.255 5.712-1.09 6.871-3.513.869-1.813.897-2.139.897-10.624 0-6.402-.041-7.79-.221-8.711-.565-2.833-2.18-4.66-4.705-5.34-.952-.255-3.394-.27-4.415-.014Zm3.091 4.32c.414.198.662.453.897.892l.317.61v8.144c0 7.862-.014 8.16-.276 8.712-.787 1.614-2.842 1.614-3.656-.015l-.345-.68-.042-7.507c-.027-5.057.014-7.734.111-8.244.193-.935.62-1.615 1.241-1.926.621-.326 1.035-.312 1.753.014Z" fill="#000" fill-opacity=".2"/><path d="M100.004 35.032c-2.304.58-3.905 2.223-4.691 4.83-.235.779-.249 1.501-.249 9.136v8.287l.332 1.119c.896 2.974 2.925 4.56 6.181 4.83 3.077.255 5.712-1.09 6.871-3.513.869-1.813.897-2.139.897-10.624 0-6.402-.041-7.79-.221-8.711-.565-2.833-2.18-4.66-4.705-5.34-.952-.255-3.394-.27-4.415-.014Zm3.091 4.32c.414.198.662.453.897.892l.317.61v8.144c0 7.862-.014 8.16-.276 8.712-.787 1.614-2.842 1.614-3.656-.015l-.345-.68-.042-7.507c-.027-5.057.014-7.734.111-8.244.193-.935.62-1.615 1.241-1.926.621-.326 1.035-.312 1.753.014Z" fill="#000" fill-opacity=".2"/><path d="M100.004 35.032c-2.304.58-3.905 2.223-4.691 4.83-.235.779-.249 1.501-.249 9.136v8.287l.332 1.119c.896 2.974 2.925 4.56 6.181 4.83 3.077.255 5.712-1.09 6.871-3.513.869-1.813.897-2.139.897-10.624 0-6.402-.041-7.79-.221-8.711-.565-2.833-2.18-4.66-4.705-5.34-.952-.255-3.394-.27-4.415-.014Zm3.091 4.32c.414.198.662.453.897.892l.317.61v8.144c0 7.862-.014 8.16-.276 8.712-.787 1.614-2.842 1.614-3.656-.015l-.345-.68-.042-7.507c-.027-5.057.014-7.734.111-8.244.193-.935.62-1.615 1.241-1.926.621-.326 1.035-.312 1.753.014Z" fill="#000" fill-opacity=".2"/><path d="M117.347 35.06c-2.304.623-3.904 2.28-4.636 4.816-.22.737-.248 1.686-.289 8.513-.069 8.683-.014 9.335.841 11.176 1.132 2.45 3.215 3.655 6.361 3.655 2.359 0 3.891-.581 5.16-1.97.828-.892 1.325-1.883 1.684-3.3.248-.991.262-1.614.262-8.867 0-8.584-.042-9.009-.828-10.666-.828-1.714-2.221-2.875-4.07-3.371-1.035-.27-3.464-.27-4.485.014Zm3.45 4.448c.207.156.497.524.634.807.249.51.263 1.006.263 8.754 0 8.031 0 8.23-.29 8.711-.455.822-1.09 1.176-1.959 1.105-.621-.056-.814-.141-1.201-.552-.883-.907-.91-1.26-.869-9.717.041-7.267.055-7.493.331-8.117.331-.736.69-1.09 1.242-1.275.552-.184 1.393-.042 1.849.284Z" fill="#1C1C1C"/><path d="M117.347 35.06c-2.304.623-3.904 2.28-4.636 4.816-.22.737-.248 1.686-.289 8.513-.069 8.683-.014 9.335.841 11.176 1.132 2.45 3.215 3.655 6.361 3.655 2.359 0 3.891-.581 5.16-1.97.828-.892 1.325-1.883 1.684-3.3.248-.991.262-1.614.262-8.867 0-8.584-.042-9.009-.828-10.666-.828-1.714-2.221-2.875-4.07-3.371-1.035-.27-3.464-.27-4.485.014Zm3.45 4.448c.207.156.497.524.634.807.249.51.263 1.006.263 8.754 0 8.031 0 8.23-.29 8.711-.455.822-1.09 1.176-1.959 1.105-.621-.056-.814-.141-1.201-.552-.883-.907-.91-1.26-.869-9.717.041-7.267.055-7.493.331-8.117.331-.736.69-1.09 1.242-1.275.552-.184 1.393-.042 1.849.284Z" fill="#000" fill-opacity=".2"/><path d="M117.347 35.06c-2.304.623-3.904 2.28-4.636 4.816-.22.737-.248 1.686-.289 8.513-.069 8.683-.014 9.335.841 11.176 1.132 2.45 3.215 3.655 6.361 3.655 2.359 0 3.891-.581 5.16-1.97.828-.892 1.325-1.883 1.684-3.3.248-.991.262-1.614.262-8.867 0-8.584-.042-9.009-.828-10.666-.828-1.714-2.221-2.875-4.07-3.371-1.035-.27-3.464-.27-4.485.014Zm3.45 4.448c.207.156.497.524.634.807.249.51.263 1.006.263 8.754 0 8.031 0 8.23-.29 8.711-.455.822-1.09 1.176-1.959 1.105-.621-.056-.814-.141-1.201-.552-.883-.907-.91-1.26-.869-9.717.041-7.267.055-7.493.331-8.117.331-.736.69-1.09 1.242-1.275.552-.184 1.393-.042 1.849.284Z" fill="#000" fill-opacity=".2"/><path d="M117.347 35.06c-2.304.623-3.904 2.28-4.636 4.816-.22.737-.248 1.686-.289 8.513-.069 8.683-.014 9.335.841 11.176 1.132 2.45 3.215 3.655 6.361 3.655 2.359 0 3.891-.581 5.16-1.97.828-.892 1.325-1.883 1.684-3.3.248-.991.262-1.614.262-8.867 0-8.584-.042-9.009-.828-10.666-.828-1.714-2.221-2.875-4.07-3.371-1.035-.27-3.464-.27-4.485.014Zm3.45 4.448c.207.156.497.524.634.807.249.51.263 1.006.263 8.754 0 8.031 0 8.23-.29 8.711-.455.822-1.09 1.176-1.959 1.105-.621-.056-.814-.141-1.201-.552-.883-.907-.91-1.26-.869-9.717.041-7.267.055-7.493.331-8.117.331-.736.69-1.09 1.242-1.275.552-.184 1.393-.042 1.849.284Z" fill="#000" fill-opacity=".2"/><path d="M151.167 35.046c-2.332.666-3.974 2.521-4.498 5.1-.442 2.124-.152 4.574.731 6.444.649 1.36 2.084 2.847 4.029 4.179 2.539 1.742 3.284 2.819 3.408 4.93.138 2.237-.552 3.569-1.876 3.569-1.422 0-2.001-.964-2.015-3.4 0-.864.041-1.728.11-1.955l.097-.382h-4.526l-.151.708c-.249 1.176-.193 3.357.124 4.604.345 1.374.759 2.124 1.656 2.946 1.89 1.742 5.836 1.969 8.306.482 1.338-.808 2.483-2.536 2.856-4.32.221-1.077.179-3.613-.069-4.703-.111-.51-.428-1.403-.718-1.983-.648-1.374-2.193-2.99-4.167-4.35-1.462-1.019-2.428-1.925-2.8-2.69-.387-.751-.539-2.111-.373-3.16.248-1.529.869-2.294 1.863-2.294 1.324 0 1.973 1.544 1.835 4.349l-.069 1.345h4.484l.083-.439c.152-.807.083-3.725-.111-4.688-.427-2.026-1.503-3.47-3.09-4.094-1.035-.41-3.974-.524-5.119-.198Z" fill="#1C1C1C"/><path d="M151.167 35.046c-2.332.666-3.974 2.521-4.498 5.1-.442 2.124-.152 4.574.731 6.444.649 1.36 2.084 2.847 4.029 4.179 2.539 1.742 3.284 2.819 3.408 4.93.138 2.237-.552 3.569-1.876 3.569-1.422 0-2.001-.964-2.015-3.4 0-.864.041-1.728.11-1.955l.097-.382h-4.526l-.151.708c-.249 1.176-.193 3.357.124 4.604.345 1.374.759 2.124 1.656 2.946 1.89 1.742 5.836 1.969 8.306.482 1.338-.808 2.483-2.536 2.856-4.32.221-1.077.179-3.613-.069-4.703-.111-.51-.428-1.403-.718-1.983-.648-1.374-2.193-2.99-4.167-4.35-1.462-1.019-2.428-1.925-2.8-2.69-.387-.751-.539-2.111-.373-3.16.248-1.529.869-2.294 1.863-2.294 1.324 0 1.973 1.544 1.835 4.349l-.069 1.345h4.484l.083-.439c.152-.807.083-3.725-.111-4.688-.427-2.026-1.503-3.47-3.09-4.094-1.035-.41-3.974-.524-5.119-.198Z" fill="#000" fill-opacity=".2"/><path d="M151.167 35.046c-2.332.666-3.974 2.521-4.498 5.1-.442 2.124-.152 4.574.731 6.444.649 1.36 2.084 2.847 4.029 4.179 2.539 1.742 3.284 2.819 3.408 4.93.138 2.237-.552 3.569-1.876 3.569-1.422 0-2.001-.964-2.015-3.4 0-.864.041-1.728.11-1.955l.097-.382h-4.526l-.151.708c-.249 1.176-.193 3.357.124 4.604.345 1.374.759 2.124 1.656 2.946 1.89 1.742 5.836 1.969 8.306.482 1.338-.808 2.483-2.536 2.856-4.32.221-1.077.179-3.613-.069-4.703-.111-.51-.428-1.403-.718-1.983-.648-1.374-2.193-2.99-4.167-4.35-1.462-1.019-2.428-1.925-2.8-2.69-.387-.751-.539-2.111-.373-3.16.248-1.529.869-2.294 1.863-2.294 1.324 0 1.973 1.544 1.835 4.349l-.069 1.345h4.484l.083-.439c.152-.807.083-3.725-.111-4.688-.427-2.026-1.503-3.47-3.09-4.094-1.035-.41-3.974-.524-5.119-.198Z" fill="#000" fill-opacity=".2"/><path d="M151.167 35.046c-2.332.666-3.974 2.521-4.498 5.1-.442 2.124-.152 4.574.731 6.444.649 1.36 2.084 2.847 4.029 4.179 2.539 1.742 3.284 2.819 3.408 4.93.138 2.237-.552 3.569-1.876 3.569-1.422 0-2.001-.964-2.015-3.4 0-.864.041-1.728.11-1.955l.097-.382h-4.526l-.151.708c-.249 1.176-.193 3.357.124 4.604.345 1.374.759 2.124 1.656 2.946 1.89 1.742 5.836 1.969 8.306.482 1.338-.808 2.483-2.536 2.856-4.32.221-1.077.179-3.613-.069-4.703-.111-.51-.428-1.403-.718-1.983-.648-1.374-2.193-2.99-4.167-4.35-1.462-1.019-2.428-1.925-2.8-2.69-.387-.751-.539-2.111-.373-3.16.248-1.529.869-2.294 1.863-2.294 1.324 0 1.973 1.544 1.835 4.349l-.069 1.345h4.484l.083-.439c.152-.807.083-3.725-.111-4.688-.427-2.026-1.503-3.47-3.09-4.094-1.035-.41-3.974-.524-5.119-.198Z" fill="#000" fill-opacity=".2"/><path d="M78.299 49.083v13.825l3.905-.07c3.021-.057 4.07-.114 4.718-.298 2.332-.666 3.698-1.898 4.512-4.136.304-.822.317-.95.359-8.924.027-6.927.014-8.244-.18-9.052-.593-2.663-2.207-4.334-4.787-4.957-.662-.156-1.794-.213-4.691-.213h-3.836v13.825Zm7.478-9.391c.386.212.635.524.91 1.076l.373.794.042 7.054c.027 6.006.013 7.181-.18 7.918-.386 1.572-1.048 2.096-2.787 2.21l-1.007.07V39.182l1.062.1c.69.07 1.256.212 1.587.41Z" fill="#1C1C1C"/><path d="M78.299 49.083v13.825l3.905-.07c3.021-.057 4.07-.114 4.718-.298 2.332-.666 3.698-1.898 4.512-4.136.304-.822.317-.95.359-8.924.027-6.927.014-8.244-.18-9.052-.593-2.663-2.207-4.334-4.787-4.957-.662-.156-1.794-.213-4.691-.213h-3.836v13.825Zm7.478-9.391c.386.212.635.524.91 1.076l.373.794.042 7.054c.027 6.006.013 7.181-.18 7.918-.386 1.572-1.048 2.096-2.787 2.21l-1.007.07V39.182l1.062.1c.69.07 1.256.212 1.587.41Z" fill="#000" fill-opacity=".2"/><path d="M78.299 49.083v13.825l3.905-.07c3.021-.057 4.07-.114 4.718-.298 2.332-.666 3.698-1.898 4.512-4.136.304-.822.317-.95.359-8.924.027-6.927.014-8.244-.18-9.052-.593-2.663-2.207-4.334-4.787-4.957-.662-.156-1.794-.213-4.691-.213h-3.836v13.825Zm7.478-9.391c.386.212.635.524.91 1.076l.373.794.042 7.054c.027 6.006.013 7.181-.18 7.918-.386 1.572-1.048 2.096-2.787 2.21l-1.007.07V39.182l1.062.1c.69.07 1.256.212 1.587.41Z" fill="#000" fill-opacity=".2"/><path d="M78.299 49.083v13.825l3.905-.07c3.021-.057 4.07-.114 4.718-.298 2.332-.666 3.698-1.898 4.512-4.136.304-.822.317-.95.359-8.924.027-6.927.014-8.244-.18-9.052-.593-2.663-2.207-4.334-4.787-4.957-.662-.156-1.794-.213-4.691-.213h-3.836v13.825Zm7.478-9.391c.386.212.635.524.91 1.076l.373.794.042 7.054c.027 6.006.013 7.181-.18 7.918-.386 1.572-1.048 2.096-2.787 2.21l-1.007.07V39.182l1.062.1c.69.07 1.256.212 1.587.41Z" fill="#000" fill-opacity=".2"/><path d="M130.041 49.069v13.81h4.553v-9.631l1.145.014c.621 0 1.353.07 1.615.17.8.283 1.021.949 1.835 5.41l.717 3.967 2.456.042c1.559.014 2.442-.014 2.442-.113 0-.368-1.559-8.258-1.793-9.066-.318-1.09-.938-1.926-1.697-2.266-.469-.212-.511-.269-.262-.34.386-.127 1.462-1.346 1.807-2.04.566-1.147.704-2.167.704-5.481 0-3.357-.111-4.137-.745-5.425-.401-.808-1.325-1.729-2.111-2.14-1.215-.623-2.056-.722-6.485-.722h-4.181V49.07Zm7.575-9.448c.317.156.621.482.842.878.331.623.345.709.345 3.612 0 2.777-.014 3.017-.29 3.542-.566 1.062-1.159 1.345-2.829 1.345h-1.09v-9.816l1.27.099c.758.043 1.462.184 1.752.34Z" fill="#1C1C1C"/><path d="M130.041 49.069v13.81h4.553v-9.631l1.145.014c.621 0 1.353.07 1.615.17.8.283 1.021.949 1.835 5.41l.717 3.967 2.456.042c1.559.014 2.442-.014 2.442-.113 0-.368-1.559-8.258-1.793-9.066-.318-1.09-.938-1.926-1.697-2.266-.469-.212-.511-.269-.262-.34.386-.127 1.462-1.346 1.807-2.04.566-1.147.704-2.167.704-5.481 0-3.357-.111-4.137-.745-5.425-.401-.808-1.325-1.729-2.111-2.14-1.215-.623-2.056-.722-6.485-.722h-4.181V49.07Zm7.575-9.448c.317.156.621.482.842.878.331.623.345.709.345 3.612 0 2.777-.014 3.017-.29 3.542-.566 1.062-1.159 1.345-2.829 1.345h-1.09v-9.816l1.27.099c.758.043 1.462.184 1.752.34Z" fill="#000" fill-opacity=".2"/><path d="M130.041 49.069v13.81h4.553v-9.631l1.145.014c.621 0 1.353.07 1.615.17.8.283 1.021.949 1.835 5.41l.717 3.967 2.456.042c1.559.014 2.442-.014 2.442-.113 0-.368-1.559-8.258-1.793-9.066-.318-1.09-.938-1.926-1.697-2.266-.469-.212-.511-.269-.262-.34.386-.127 1.462-1.346 1.807-2.04.566-1.147.704-2.167.704-5.481 0-3.357-.111-4.137-.745-5.425-.401-.808-1.325-1.729-2.111-2.14-1.215-.623-2.056-.722-6.485-.722h-4.181V49.07Zm7.575-9.448c.317.156.621.482.842.878.331.623.345.709.345 3.612 0 2.777-.014 3.017-.29 3.542-.566 1.062-1.159 1.345-2.829 1.345h-1.09v-9.816l1.27.099c.758.043 1.462.184 1.752.34Z" fill="#000" fill-opacity=".2"/><path d="M130.041 49.069v13.81h4.553v-9.631l1.145.014c.621 0 1.353.07 1.615.17.8.283 1.021.949 1.835 5.41l.717 3.967 2.456.042c1.559.014 2.442-.014 2.442-.113 0-.368-1.559-8.258-1.793-9.066-.318-1.09-.938-1.926-1.697-2.266-.469-.212-.511-.269-.262-.34.386-.127 1.462-1.346 1.807-2.04.566-1.147.704-2.167.704-5.481 0-3.357-.111-4.137-.745-5.425-.401-.808-1.325-1.729-2.111-2.14-1.215-.623-2.056-.722-6.485-.722h-4.181V49.07Zm7.575-9.448c.317.156.621.482.842.878.331.623.345.709.345 3.612 0 2.777-.014 3.017-.29 3.542-.566 1.062-1.159 1.345-2.829 1.345h-1.09v-9.816l1.27.099c.758.043 1.462.184 1.752.34Z" fill="#000" fill-opacity=".2"/></g></g><defs><clipPath id="a"><path fill="#fff" transform="translate(0 .696)" d="M0 0h182.957v62.609H0z"/></clipPath><clipPath id="b"><path fill="#fff" transform="translate(0 .696)" d="M0 0h182.957v62.609H0z"/></clipPath></defs></svg>