<svg width="150" height="26" fill="none" xmlns="http://www.w3.org/2000/svg"><g style="mix-blend-mode:luminosity" clip-path="url(#a)"><path d="M13.439 21.755c4.989 0 9.033-4.079 9.033-9.111 0-5.032-4.044-9.112-9.033-9.112-4.99 0-9.034 4.08-9.034 9.112s4.045 9.111 9.034 9.111Z" fill="#E8F5E1"/><path fill-rule="evenodd" clip-rule="evenodd" d="M5.965 17.726a5.186 5.186 0 0 1-.249-.549 3.25 3.25 0 0 1-.087-.234l-.03-.092a5.48 5.48 0 0 1 .17-3.777 5.29 5.29 0 0 1 2.372-2.618 5.266 5.266 0 0 1 1.773-.591c.685 2.11-.509 4.71-2.91 6.332a7.92 7.92 0 0 0 .714-.342c2.384-1.297 3.794-3.64 3.847-5.967a5.731 5.731 0 0 0-.03-.79 5.606 5.606 0 0 0-3.424.633 5.611 5.611 0 0 0-2.59 2.954 5.806 5.806 0 0 0-.06 3.974c.022.066.047.131.075.197.013.037.03.077.045.115l.1.234c.037.083.085.176.131.263.046.087.1.178.153.258Zm-1.962.004a3.607 3.607 0 0 0-.44-.07h-.169a2.776 2.776 0 0 0-1.774.575c-.51.392-.878.95-1.041 1.583a2.86 2.86 0 0 0-.069.999c1.162.08 2.336-.884 2.847-2.346a4.49 4.49 0 0 1-.082.418 3.843 3.843 0 0 1-.903 1.737 3.694 3.694 0 0 1-1.627 1.042c-.134.039-.27.068-.408.087a3.011 3.011 0 0 1-.126-1.857c.181-.71.602-1.33 1.188-1.75a2.94 2.94 0 0 1 2.008-.537l.112.011h.064l.128.022c.052 0 .103.02.153.035.05.014.091.037.14.051Z" fill="#5BC029"/><path d="m21.294 21.985.116-.059c-8.13 4.048-12.435 1.114-14.82-2.988-3.158-5.406-1.902-12.418 3.415-15.57C15.322.216 22.052 1.818 25.135 6.9l-.123-.204c-3.298-5.383-10.574-6.94-16.398-3.48-5.675 3.363-7.558 10.659-3.926 16.43 1.826 2.9 5.234 4.926 9.131 4.926 2.397 0 4.977-.774 7.475-2.597" fill="#5BC029"/><path d="M24.965 6.525a12.759 12.759 0 0 0-3.933-3.593 10.827 10.827 0 0 0-3.048-1.089 36.843 36.843 0 0 0-1.637-.295 12.957 12.957 0 0 0-4.036.176l-1.28.891-1.286.915.272-.162a5.34 5.34 0 0 1 .89-.366 7.88 7.88 0 0 1 1.062-.274 12.356 12.356 0 0 1 1.141-.158c.313-.018.555-.016.63-.016.26 0 .457.021.77.047.21.016.333.028.51.052.079 0 .286.04.556.093.141.029.26.057.351.078.222.053.44.118.655.194a11.526 11.526 0 0 1 1.867.887 12.91 12.91 0 0 1 3.897 3.52c.126.188.259.364.373.554l.176.286c.052.096.107.187.16.281.2.356.38.722.54 1.098.074.18.142.356.21.525l.172.5c.045.164.091.319.134.469.044.15.069.293.103.424.034.132.057.26.078.378.02.117.04.234.06.319.054.39.081.61.081.61s-.045-.219-.13-.6c-.023-.095-.052-.2-.082-.315a5.092 5.092 0 0 0-.105-.364c-.043-.129-.082-.27-.133-.412-.05-.143-.109-.291-.168-.448-.06-.157-.133-.312-.204-.47l-.242-.499a11.398 11.398 0 0 0-.61-1.022l-.173-.26-.187-.254c-.13-.195-.265-.354-.4-.523-.28-.33-.58-.642-.894-.938a11.599 11.599 0 0 0-2.032-1.548 11.09 11.09 0 0 0-1.02-.56 12.911 12.911 0 0 0-.952-.411 8.632 8.632 0 0 0-.825-.27 8.205 8.205 0 0 0-.527-.129c0 2.393.228 6.863 1.73 9.13 2.108 3.19 7.511 3.361 8.36 6.035 1.617-4.754 1.204-9.494-.874-12.486Z" fill="#5BC029"/><path d="M36.251 17.88a9.46 9.46 0 0 1-1.258-5.246 3.72 3.72 0 0 1 .071-.553c.093-.76.283-1.505.566-2.214a9.508 9.508 0 0 1 1.119-2.045 8.681 8.681 0 0 1 3.276-2.726 9.272 9.272 0 0 1 4.022-.91V.76h2.82v3.351a8.42 8.42 0 0 1 3.517.71 8.62 8.62 0 0 1 2.932 2.116c1.77 1.877 2.655 4.05 2.655 6.518a8.419 8.419 0 0 1-.167 1.675c-.055.283-.119.562-.194.837a7.65 7.65 0 0 1-.276.837 8.755 8.755 0 0 1-3.424 4.09 9.138 9.138 0 0 1-5.046 1.506v2.84h-2.817v-2.728l-.719-.056a11.67 11.67 0 0 1-.746-.084c-.485-.097-.965-.22-1.436-.37a8.188 8.188 0 0 1-1.411-.604 9.254 9.254 0 0 1-3.484-3.517Zm3.208-8.912a6.693 6.693 0 0 0-1.63 4.36c-.002.11.003.218.014.326.008.1.022.2.04.298v.115c.019.094.032.18.042.256.01.085.014.17.013.255a6.467 6.467 0 0 0 2.128 3.753 5.82 5.82 0 0 0 3.981 1.52V6.723h-.58a5.79 5.79 0 0 0-2.222.7 5.945 5.945 0 0 0-1.786 1.528v.016Zm11.789 8.948a6.317 6.317 0 0 0 1.38-2.108c.317-.791.473-1.64.46-2.496 0-1.684-.614-3.208-1.84-4.571-1.227-1.363-2.687-2.045-4.381-2.045v13.12a5.8 5.8 0 0 0 2.385-.488 5.937 5.937 0 0 0 1.996-1.429v.017Zm12.396 4.144h-2.598V4.47H65.3c.222 0 .45.005.685.014.234.01.474.014.72.014a8.473 8.473 0 0 1 1.878.385 3.308 3.308 0 0 1 1.548 1.065c.34.41.599.886.76 1.4.174.523.281 1.067.32 1.618v.286a6.903 6.903 0 0 1-.071.964 6.001 6.001 0 0 1-.208.938c-.422 1.364-1.163 2.211-2.223 2.542a11.32 11.32 0 0 1-3.388.495c-.128 0-.267 0-.413-.014-.147-.014-.286-.014-.416-.014s-.294 0-.443-.014c-.148-.014-.285-.014-.413-.014l.007 7.925Zm.164-10.226c.094 0 .18 0 .263.014a1.8 1.8 0 0 0 .264.017c.11 0 .21 0 .304.014s.192.014.304.014h.33c.112 0 .224-.01.334-.028a4.626 4.626 0 0 0 1.86-.497c.571-.294.884-.859.939-1.691v-.369c0-.947-.308-1.567-.925-1.86a5.324 5.324 0 0 0-2.031-.497h-1.635l-.007 4.883Zm22.419 5.681h-6.743l-1.991 4.545h-2.904l8.24-18.251 8.29 18.26h-2.956l-1.936-4.554Zm-5.72-2.346h4.752l-1.77-4.003a9.023 9.023 0 0 1-.33-.995l-.276-1.022c-.019.075-.037.148-.055.213-.019.066-.039.127-.058.186a21.56 21.56 0 0 1-.227.823 9.45 9.45 0 0 1-.293.795l-1.744 4.003Zm29.67-2.411a11.42 11.42 0 0 1-.069-.61 2.772 2.772 0 0 1-.041-.3 2.471 2.471 0 0 1-.016-.298c0-.094 0-.192-.014-.298a3.334 3.334 0 0 0-.041-.298c-.094.423-.209.84-.345 1.25a9.761 9.761 0 0 1-.484 1.192l-4.422 9.315-4.479-9.484c-.148-.38-.29-.753-.43-1.123-.138-.37-.28-.75-.426-1.15-.019.247-.039.493-.057.74-.018.246-.046.492-.082.738-.018.15-.037.307-.055.47a5.08 5.08 0 0 1-.082.496l-1.881 8.664H94.71L98.743 3.74l5.059 11.105a12.239 12.239 0 0 1 .491 1.163l.11.284c.037.096.073.2.112.315l.11.283c.035.094.072.19.111.284.073-.19.151-.384.229-.581.077-.197.16-.394.227-.584.069-.19.181-.383.263-.582.082-.2.171-.392.265-.582l4.894-11.105 4.174 18.32h-2.608l-1.88-8.692a4.865 4.865 0 0 1-.123-.61Zm10.025-8.278h2.793v11.587l11.186-12.24V22.06h-2.763l-.057-11.417-11.159 12.097V4.48Zm22.106 17.58h-2.598V4.47h4.257c.229 0 .457 0 .686.014.228.014.479.014.718.014.64.057 1.27.186 1.882.385a3.337 3.337 0 0 1 1.548 1.064c.338.41.596.882.76 1.391.175.527.284 1.075.322 1.63v.286a6.527 6.527 0 0 1-.276 1.902c-.425 1.356-1.17 2.203-2.236 2.54a11.3 11.3 0 0 1-3.385.495c-.13 0-.268 0-.416-.014-.148-.014-.285-.014-.413-.014-.127 0-.297 0-.442-.014-.147-.014-.286-.014-.416-.014l.009 7.925Zm.166-10.226c.092 0 .181 0 .263.014.088.012.175.017.263.017.109 0 .212 0 .303.014.092.014.195.014.304.014h.34a2 2 0 0 0 .331-.028 4.6 4.6 0 0 0 1.851-.498c.571-.293.886-.858.941-1.69v-.369c0-.947-.309-1.567-.927-1.86a5.307 5.307 0 0 0-2.031-.497h-1.631l-.007 4.883Z" fill="#3D3A3A"/></g><defs><clipPath id="a"><path fill="#fff" transform="translate(.12 .76)" d="M0 0h149.76v24.48H0z"/></clipPath></defs></svg>