<svg width="174" height="64" fill="none" xmlns="http://www.w3.org/2000/svg"><g style="mix-blend-mode:luminosity" clip-path="url(#a)"><path d="M39.408 33.352h7.775l-3.892-9.183-3.883 9.183Z" fill="#C90C0F"/><path fill-rule="evenodd" clip-rule="evenodd" d="M60.064.348H4.737A3.87 3.87 0 0 0 .875 4.226v55.548a3.87 3.87 0 0 0 3.862 3.878h55.327a3.87 3.87 0 0 0 3.862-3.878V4.226A3.87 3.87 0 0 0 60.064.348ZM34.944 43.92l3.222-7.653H48.4l3.24 7.653h3.448L43.292 17.135 31.495 43.921h3.448ZM10.626 21.326h12.631L9.901 43.921h17.786v-2.916H15.055l13.358-22.594H10.627v2.915Z" fill="#C90C0F"/><path fill-rule="evenodd" clip-rule="evenodd" d="M71.785 18.41v25.511h6.897c2.468 0 4.634-.535 6.497-1.604a11.226 11.226 0 0 0 4.392-4.446c1.064-1.919 1.597-4.154 1.597-6.705s-.533-4.774-1.597-6.67a11.164 11.164 0 0 0-4.392-4.482c-1.863-1.069-4.03-1.603-6.497-1.603h-6.897Zm1.997 23.507V20.415h4.9c1.573 0 3 .255 4.283.765 1.307.51 2.42 1.24 3.339 2.187.92.923 1.621 2.053 2.105 3.39.508 1.311.762 2.781.762 4.409 0 1.628-.254 3.11-.762 4.446-.484 1.312-1.185 2.442-2.105 3.39-.92.922-2.032 1.64-3.34 2.15-1.282.51-2.71.765-4.282.765h-4.9Zm23.342-5.54c-.63-1.603-.944-3.34-.944-5.211 0-1.87.314-3.596.944-5.175.629-1.604 1.512-2.988 2.65-4.154a12.05 12.05 0 0 1 3.992-2.77c1.549-.656 3.23-.984 5.045-.984s3.485.328 5.009.984a11.949 11.949 0 0 1 4.029 2.77c1.137 1.166 2.021 2.55 2.65 4.154.629 1.58.944 3.304.944 5.175 0 1.87-.315 3.608-.944 5.211a12.819 12.819 0 0 1-2.65 4.155 12.213 12.213 0 0 1-4.029 2.733c-1.524.656-3.194.984-5.009.984-1.815 0-3.496-.328-5.045-.984a12.32 12.32 0 0 1-3.993-2.733 12.815 12.815 0 0 1-2.65-4.155Zm2.504-10.896c-.895 1.652-1.343 3.547-1.343 5.685 0 2.113.448 4.009 1.343 5.685.919 1.676 2.166 3 3.739 3.972 1.597.948 3.412 1.422 5.444 1.422 2.033 0 3.836-.474 5.409-1.422a10.163 10.163 0 0 0 3.738-3.972c.895-1.676 1.343-3.572 1.343-5.685 0-2.138-.448-4.033-1.343-5.685-.895-1.677-2.141-2.989-3.738-3.936-1.573-.972-3.376-1.458-5.409-1.458-2.032 0-3.847.486-5.444 1.458-1.573.947-2.82 2.26-3.739 3.936Zm26.829 5.685c0 1.87.315 3.608.944 5.211a12.802 12.802 0 0 0 2.65 4.155 12.313 12.313 0 0 0 3.993 2.733c1.548.656 3.23.984 5.045.984s3.484-.328 5.008-.984a12.218 12.218 0 0 0 4.03-2.733 12.816 12.816 0 0 0 2.649-4.155c.63-1.603.944-3.34.944-5.211 0-1.87-.314-3.596-.944-5.175-.629-1.604-1.512-2.988-2.649-4.154a11.953 11.953 0 0 0-4.03-2.77c-1.524-.656-3.193-.984-5.008-.984s-3.497.328-5.045.984a12.043 12.043 0 0 0-3.993 2.77c-1.138 1.166-2.021 2.55-2.65 4.154-.629 1.58-.944 3.304-.944 5.175Zm2.106 0c0-2.138.447-4.033 1.342-5.685.92-1.677 2.166-2.989 3.739-3.936 1.597-.972 3.412-1.458 5.445-1.458 2.032 0 3.835.486 5.408 1.458 1.597.947 2.843 2.26 3.739 3.936.895 1.652 1.343 3.547 1.343 5.685 0 2.113-.448 4.009-1.343 5.685-.896 1.676-2.142 3-3.739 3.972-1.573.948-3.376 1.422-5.408 1.422-2.033 0-3.848-.474-5.445-1.422-1.573-.972-2.819-2.296-3.739-3.972-.895-1.676-1.342-3.572-1.342-5.685Zm42.367 12.755-7.412-10.714h-3.332V43.92h-1.997V18.41h5.808c1.645 0 3.11.291 4.392.874 1.307.584 2.336 1.422 3.085 2.515.751 1.093 1.125 2.43 1.125 4.009 0 1.555-.374 2.89-1.125 4.008-.749 1.118-1.778 1.968-3.085 2.551a9.989 9.989 0 0 1-2.703.732l7.712 10.821h-2.468Zm-10.744-23.724V31.42h3.811c1.282 0 2.42-.206 3.412-.62 1.017-.437 1.803-1.069 2.36-1.895.556-.85.834-1.882.834-3.097s-.29-2.235-.871-3.062c-.557-.825-1.331-1.457-2.323-1.895-.992-.437-2.13-.655-3.412-.655h-3.811Z" fill="#1D1D1B"/><path d="M172.907 50.76v4.198h-.483v-2.977l-3.016 3.177v-4.199h.484v2.977l3.015-3.176Zm-2.395-.589a.835.835 0 0 1-.096-.383h.404a.433.433 0 0 0 .188.354c.071.05.174.075.307.075a.54.54 0 0 0 .307-.074.43.43 0 0 0 .188-.355h.404c0 .13-.035.258-.103.383a.778.778 0 0 1-.295.303.996.996 0 0 1-.501.114 1.02 1.02 0 0 1-.501-.114.827.827 0 0 1-.302-.303Z" fill="#1D1D1B"/><path fill-rule="evenodd" clip-rule="evenodd" d="m80.22 54.958.505-1.2h1.604l.508 1.2h.54l-1.849-4.198-1.848 4.198h.54Zm.7-1.657h1.219l-.61-1.44-.61 1.44Zm-7.666-2.341v.457c-.324.007-.616.07-.876.188a1.53 1.53 0 0 0-.649.526 1.437 1.437 0 0 0-.233.828c0 .32.078.596.233.828.16.229.376.406.649.531.26.115.552.175.876.182v.458h.483V54.5c.325-.007.614-.067.87-.182.278-.125.494-.302.65-.53.159-.233.239-.51.239-.83 0-.323-.08-.599-.239-.828a1.488 1.488 0 0 0-.65-.525 2.174 2.174 0 0 0-.87-.188v-.458h-.483Zm-.631 1.062c.184-.073.395-.113.631-.12v2.113a1.904 1.904 0 0 1-.631-.114 1.046 1.046 0 0 1-.473-.354.989.989 0 0 1-.17-.588c0-.236.057-.432.17-.589a1.01 1.01 0 0 1 .473-.348Zm1.746 1.88c-.184.07-.395.107-.632.113v-2.112c.237.006.448.046.632.119.201.076.359.192.472.348.114.157.17.353.17.589a.99.99 0 0 1-.17.588 1.044 1.044 0 0 1-.472.354Zm14.071-1.343v-1.142h1.65v-.458h-2.133v4h1.081c.258 0 .487-.049.688-.144a1.128 1.128 0 0 0 .666-1.057c0-.247-.06-.46-.182-.64a1.141 1.141 0 0 0-.484-.41c-.2-.1-.43-.15-.688-.15h-.597Zm0 1.942h.598c.17 0 .32-.027.45-.08a.67.67 0 0 0 .306-.251.707.707 0 0 0 .115-.412c0-.163-.038-.3-.115-.41a.637.637 0 0 0-.307-.246 1.103 1.103 0 0 0-.449-.086h-.597V54.5Zm6.73.457h.484v-1.6h.597c.258 0 .487-.047.689-.142a1.128 1.128 0 0 0 .666-1.057c0-.248-.061-.46-.183-.64a1.14 1.14 0 0 0-.483-.411 1.54 1.54 0 0 0-.689-.148H95.17v3.998Zm1.081-2.056h-.597v-1.486h.597c.258 0 .467.063.626.189.163.122.245.306.245.554 0 .244-.082.428-.245.554-.16.126-.368.189-.626.189Z" fill="#1D1D1B"/><path d="M105.882 50.76v4.198h-.484v-2.977l-3.015 3.177v-4.199h.484v2.977l3.015-3.176Zm5.009 4.198h.483v-1.94l1.65 1.94h.598l-1.81-2.125 1.724-1.873h-.597l-1.565 1.722v-1.723h-.483v4Z" fill="#1D1D1B"/><path fill-rule="evenodd" clip-rule="evenodd" d="m118.823 53.758-.505 1.2h-.541l1.849-4.198 1.849 4.198h-.541l-.507-1.2h-1.604Zm1.414-.457h-1.22l.609-1.44.611 1.44Zm13.415-2.541 1.507 3.741h.513v1.085h-.427v-.628h-3.186v.628h-.426v-1.085h.513l1.506-3.741Zm0 1.102 1.001 2.639h-2.002l1.001-2.64Zm8.371.914.071.017c.164.042.306.107.427.194a.846.846 0 0 1 .29.326c.068.133.103.291.103.474 0 .263-.061.482-.183.657a1.09 1.09 0 0 1-.483.388 1.77 1.77 0 0 1-.688.126h-1.081V50.96h1.024c.239 0 .446.036.62.108a.879.879 0 0 1 .415.331.979.979 0 0 1 .148.56.782.782 0 0 1-.148.48.902.902 0 0 1-.468.322l-.047.015Zm-1.061.223v1.53h.598c.17 0 .32-.03.449-.09a.701.701 0 0 0 .421-.68.816.816 0 0 0-.062-.326.641.641 0 0 0-.182-.24.73.73 0 0 0-.273-.143 1.153 1.153 0 0 0-.353-.051h-.598Zm0-.423h.541a.898.898 0 0 0 .358-.069.576.576 0 0 0 .251-.2.552.552 0 0 0 .09-.32.523.523 0 0 0-.199-.44.773.773 0 0 0-.5-.16h-.541v1.19Z" fill="#1D1D1B"/><path d="M150.022 54.958v-.457h-1.792v-1.485h1.678v-.457h-1.678v-1.142h1.792v-.458h-2.276v4h2.276Z" fill="#1D1D1B"/><path fill-rule="evenodd" clip-rule="evenodd" d="M155.454 54.958h-.483V50.96h1.081c.258 0 .487.049.689.148a1.115 1.115 0 0 1 .665 1.051 1.132 1.132 0 0 1-.665 1.057 1.595 1.595 0 0 1-.689.143h-.598v1.6Zm0-2.056h.598c.258 0 .466-.063.626-.189.162-.126.244-.31.244-.554 0-.248-.082-.432-.244-.554-.16-.126-.368-.188-.626-.188h-.598v1.485Z" fill="#1D1D1B"/><path d="M164.461 54.958v-.457h-1.792v-1.485h1.678v-.457h-1.678v-1.142h1.792v-.458h-2.275v4h2.275Z" fill="#1D1D1B"/><path d="M23.258 21.326H10.626v-2.915h17.786L15.055 41.005h12.631v2.916H9.9l13.358-22.595Z" fill="#fff"/><path fill-rule="evenodd" clip-rule="evenodd" d="m38.167 36.268-3.223 7.653h-3.448l11.797-26.786 11.796 26.786h-3.448l-3.24-7.653H38.167Zm1.243-2.916h7.775l-3.892-9.183-3.883 9.183Z" fill="#fff"/></g><defs><clipPath id="a"><path fill="#fff" transform="translate(.875 .348)" d="M0 0h172.522v63.304H0z"/></clipPath></defs></svg>