<svg width="264" height="44" fill="none" xmlns="http://www.w3.org/2000/svg"><g style="mix-blend-mode:luminosity" clip-path="url(#a)"><path d="M24.34 37.176c8.76 0 15.861-7.071 15.861-15.794S33.1 5.588 24.34 5.588c-8.76 0-15.861 7.071-15.861 15.794s7.1 15.794 15.86 15.794Z" fill="#E8F5E1"/><path fill-rule="evenodd" clip-rule="evenodd" d="M11.223 30.192a8.931 8.931 0 0 1-.437-.951 5.594 5.594 0 0 1-.153-.407l-.052-.159a9.387 9.387 0 0 1 .3-6.547 9.214 9.214 0 0 1 4.162-4.539 9.332 9.332 0 0 1 3.114-1.024c1.203 3.658-.894 8.163-5.11 10.976.427-.176.846-.374 1.254-.593 4.185-2.249 6.662-6.31 6.754-10.343a9.795 9.795 0 0 0-.052-1.37 9.951 9.951 0 0 0-6.012 1.098 9.766 9.766 0 0 0-4.547 5.12 9.945 9.945 0 0 0-.107 6.889 5.7 5.7 0 0 0 .132.341c.024.066.052.135.08.2.056.13.112.264.177.406.064.143.148.305.228.455.08.15.176.31.269.448Zm-3.448.008a6.476 6.476 0 0 0-.541-.098 2.24 2.24 0 0 0-.233-.024h-.296a4.915 4.915 0 0 0-3.114.997 5.035 5.035 0 0 0-1.829 2.743 4.895 4.895 0 0 0-.12 1.732c2.04.138 4.1-1.533 4.999-4.065a7.7 7.7 0 0 1-.145.723 6.633 6.633 0 0 1-1.585 3.012 6.497 6.497 0 0 1-2.856 1.806 5.216 5.216 0 0 1-.717.15 5.155 5.155 0 0 1-.22-3.22 5.342 5.342 0 0 1 2.084-3.03 5.21 5.21 0 0 1 3.527-.933l.196.02h.113l.224.036c.092 0 .18.037.269.061.088.025.16.066.244.09Z" fill="#5BC029"/><path d="m38.133 37.575.205-.102c-14.274 7.017-21.834 1.93-26.023-5.18-5.544-9.37-3.339-21.526 5.997-26.99 9.335-5.464 21.152-2.687 26.567 6.123l-.216-.354C38.871 1.742 26.096-.958 15.871 5.04 5.906 10.87 2.599 23.517 8.976 33.522c3.207 5.025 9.191 8.538 16.034 8.538 4.209 0 8.738-1.342 13.123-4.5" fill="#5BC029"/><path d="M44.578 10.775a22.301 22.301 0 0 0-6.907-6.228 19.174 19.174 0 0 0-5.351-1.886c-1.483-.285-2.605-.484-2.874-.513a23.039 23.039 0 0 0-7.087.305L20.11 3.998l-2.256 1.586.477-.28a9.435 9.435 0 0 1 1.563-.635c.61-.201 1.233-.36 1.864-.476a21.97 21.97 0 0 1 2.004-.272c.55-.033.974-.029 1.106-.029.457 0 .802.037 1.351.082.369.028.585.049.898.09.136 0 .501.068.974.162.249.049.457.097.617.134.39.092.773.205 1.15.337a20.363 20.363 0 0 1 3.279 1.537c.598.35 1.203.736 1.828 1.175.627.447 1.23.926 1.808 1.435a22.051 22.051 0 0 1 1.704 1.663 22.938 22.938 0 0 1 1.503 1.83c.22.325.453.63.654.959l.308.496c.092.166.188.325.28.488a19.6 19.6 0 0 1 .95 1.902c.129.313.25.618.37.91l.3.867c.08.284.16.553.237.813.076.26.12.508.18.736.06.227.1.451.136.654.036.204.072.407.104.553.097.675.145 1.057.145 1.057s-.08-.378-.229-1.04c-.04-.163-.092-.346-.144-.545a8.81 8.81 0 0 0-.184-.63c-.077-.224-.145-.468-.233-.716-.088-.248-.192-.504-.297-.777-.104-.272-.232-.54-.356-.813l-.425-.866a19.634 19.634 0 0 0-1.07-1.772l-.305-.451-.329-.44c-.228-.337-.465-.613-.701-.906a20.798 20.798 0 0 0-1.572-1.626 20.346 20.346 0 0 0-3.567-2.683 19.52 19.52 0 0 0-1.792-.972c-.589-.28-1.15-.512-1.671-.711a15.1 15.1 0 0 0-1.447-.468 14.548 14.548 0 0 0-.926-.223c0 4.146.4 11.895 3.038 15.826 3.7 5.53 13.188 5.826 14.679 10.46 2.838-8.24 2.112-16.456-1.535-21.644Z" fill="#5BC029"/><path d="M64.395 30.46a16.237 16.237 0 0 1-2.209-9.094c.017-.323.059-.644.124-.96.163-1.318.498-2.608.994-3.837a16.404 16.404 0 0 1 1.965-3.545 15.199 15.199 0 0 1 5.752-4.725 16.455 16.455 0 0 1 7.063-1.577V.782h4.95v5.81c2.12-.034 4.224.385 6.175 1.229a15.132 15.132 0 0 1 5.149 3.67c3.108 3.252 4.662 7.018 4.662 11.298a14.44 14.44 0 0 1-.293 2.902c-.096.492-.209.976-.34 1.452a13.21 13.21 0 0 1-.486 1.451 15.227 15.227 0 0 1-6.013 7.09 16.195 16.195 0 0 1-8.858 2.61v4.923h-4.946V38.49l-1.263-.097c-.422-.033-.86-.082-1.31-.147a23.592 23.592 0 0 1-2.522-.642c-.856-.27-1.685-.62-2.477-1.045a16.143 16.143 0 0 1-6.117-6.098Zm5.632-15.449a11.516 11.516 0 0 0-2.862 7.558c-.003.189.005.377.024.565.014.174.038.346.072.517v.199c.032.162.056.313.072.443.017.147.025.295.024.443a11.178 11.178 0 0 0 3.736 6.505 10.293 10.293 0 0 0 6.99 2.634V11.121h-1.018a10.26 10.26 0 0 0-3.901 1.214 10.403 10.403 0 0 0-3.137 2.648v.028Zm20.699 15.51a10.939 10.939 0 0 0 2.424-3.653c.556-1.372.83-2.845.807-4.327 0-2.92-1.077-5.56-3.231-7.924-2.154-2.363-4.718-3.545-7.692-3.545v22.742a10.295 10.295 0 0 0 4.189-.844 10.422 10.422 0 0 0 3.503-2.477v.028Zm21.769 7.183h-4.561V7.214h7.471c.39 0 .791.008 1.203.024.411.016.832.025 1.262.025a15.04 15.04 0 0 1 3.299.666 5.809 5.809 0 0 1 2.718 1.846 7.137 7.137 0 0 1 1.335 2.427c.305.907.493 1.85.561 2.805v.496a11.68 11.68 0 0 1-.124 1.671 10.38 10.38 0 0 1-.365 1.626c-.74 2.363-2.042 3.833-3.904 4.407-1.93.583-3.935.872-5.949.858-.224 0-.469 0-.725-.024-.257-.025-.501-.025-.73-.025-.228 0-.517 0-.777-.024-.261-.025-.501-.025-.726-.025l.012 13.737Zm.289-17.725c.164 0 .316 0 .461.025.154.02.309.03.465.028.192 0 .368 0 .533.024.164.025.337.025.533.025h.581c.196 0 .392-.017.585-.049a8.203 8.203 0 0 0 3.267-.862c1.002-.508 1.552-1.488 1.648-2.93v-.64c0-1.642-.541-2.716-1.624-3.223a9.442 9.442 0 0 0-3.567-.862h-2.87l-.012 8.464Zm39.361 9.847h-11.842l-3.495 7.879h-5.099l14.467-31.637 14.558 31.653h-5.192l-3.397-7.895Zm-10.046-4.066h8.346l-3.108-6.94a15.551 15.551 0 0 1-.58-1.723l-.485-1.773c-.033.13-.065.257-.096.37-.033.114-.069.22-.101.321-.128.491-.262.967-.4 1.428-.15.459-.318.918-.514 1.378l-3.062 6.94Zm52.101-4.179a19.116 19.116 0 0 1-.12-1.057 5.07 5.07 0 0 1-.073-.52 4.242 4.242 0 0 1-.027-.517c0-.162 0-.333-.025-.516a4.998 4.998 0 0 0-.073-.516 21.383 21.383 0 0 1-.605 2.167c-.237.707-.52 1.397-.849 2.065l-7.764 16.148-7.866-16.44a254.017 254.017 0 0 1-1.502-3.94c-.033.427-.069.854-.1 1.28a17.98 17.98 0 0 1-.145 1.281c-.032.26-.065.533-.096.813-.033.29-.082.577-.144.862l-3.303 15.018h-4.465l7.082-31.76 8.883 19.25a21.174 21.174 0 0 1 .861 2.017l.194.492c.064.166.127.345.195.544l.194.492c.063.163.127.33.195.492.129-.329.265-.666.402-1.008.135-.341.28-.683.4-1.012.12-.33.317-.663.461-1.008.144-.346.3-.68.464-1.009l8.594-19.25 7.329 31.756h-4.578l-3.303-15.067a8.457 8.457 0 0 1-.216-1.057ZM211.805 7.23h4.903v20.087L236.349 6.1v31.605h-4.851l-.1-19.79-19.593 20.969V7.23Zm38.81 30.474h-4.562V7.214h7.475c.401 0 .802 0 1.204.024.4.025.841.025 1.261.025a15.06 15.06 0 0 1 3.303.666 5.86 5.86 0 0 1 2.719 1.846 7.277 7.277 0 0 1 1.334 2.41c.308.914.499 1.864.566 2.826v.496a11.29 11.29 0 0 1-.485 3.297c-.747 2.35-2.055 3.818-3.925 4.403a20.086 20.086 0 0 1-5.944.858c-.229 0-.47 0-.73-.024-.26-.025-.502-.025-.726-.025-.223 0-.521 0-.777-.024-.257-.025-.501-.025-.73-.025l.017 13.737Zm.291-17.725c.161 0 .318 0 .462.025.153.02.307.03.462.028.191 0 .372 0 .532.024.161.025.341.025.533.025h.597c.195 0 .389-.017.582-.049a8.164 8.164 0 0 0 3.25-.862c1.003-.508 1.556-1.488 1.652-2.93v-.64c0-1.642-.542-2.716-1.627-3.223a9.429 9.429 0 0 0-3.568-.862h-2.862l-.013 8.464Z" fill="#3D3A3A"/></g><defs><clipPath id="a"><path fill="#fff" transform="translate(.957 .783)" d="M0 0h262.957v42.435H0z"/></clipPath></defs></svg>