<svg width="30" height="30" fill="none" xmlns="http://www.w3.org/2000/svg"><path d="m15.412 15.187-3.087 3.088a4.368 4.368 0 0 0 0 6.187 4.368 4.368 0 0 0 6.187 0l4.863-4.862c3.412-3.413 3.412-8.963 0-12.375-3.413-3.413-8.963-3.413-12.375 0l-5.3 5.3c-2.925 2.925-2.925 7.675 0 10.612" stroke="#1C1C1C" stroke-width="1.5" stroke-linecap="round" stroke-linejoin="round"/><path d="m15.412 15.187-3.087 3.088a4.368 4.368 0 0 0 0 6.187 4.368 4.368 0 0 0 6.187 0l4.863-4.862c3.412-3.413 3.412-8.963 0-12.375-3.413-3.413-8.963-3.413-12.375 0l-5.3 5.3c-2.925 2.925-2.925 7.675 0 10.612" stroke="#000" stroke-opacity=".2" stroke-width="1.5" stroke-linecap="round" stroke-linejoin="round"/><path d="m15.412 15.187-3.087 3.088a4.368 4.368 0 0 0 0 6.187 4.368 4.368 0 0 0 6.187 0l4.863-4.862c3.412-3.413 3.412-8.963 0-12.375-3.413-3.413-8.963-3.413-12.375 0l-5.3 5.3c-2.925 2.925-2.925 7.675 0 10.612" stroke="#000" stroke-opacity=".2" stroke-width="1.5" stroke-linecap="round" stroke-linejoin="round"/><path d="m15.412 15.187-3.087 3.088a4.368 4.368 0 0 0 0 6.187 4.368 4.368 0 0 0 6.187 0l4.863-4.862c3.412-3.413 3.412-8.963 0-12.375-3.413-3.413-8.963-3.413-12.375 0l-5.3 5.3c-2.925 2.925-2.925 7.675 0 10.612" stroke="#000" stroke-opacity=".2" stroke-width="1.5" stroke-linecap="round" stroke-linejoin="round"/></svg>