<svg width="30" height="30" fill="none" xmlns="http://www.w3.org/2000/svg"><g clip-path="url(#a)"><path d="M25.775 10.563C24.463 4.787 19.425 2.187 15 2.187h-.012c-4.413 0-9.463 2.588-10.775 8.363C2.75 17 6.7 22.462 10.275 25.9A6.794 6.794 0 0 0 15 27.813c1.7 0 3.4-.638 4.713-1.913 3.575-3.438 7.525-8.887 6.062-15.337ZM15 16.825a3.937 3.937 0 1 1 0-7.874 3.937 3.937 0 0 1 0 7.874Z" fill="#1C1C1C"/><path d="M25.775 10.563C24.463 4.787 19.425 2.187 15 2.187h-.012c-4.413 0-9.463 2.588-10.775 8.363C2.75 17 6.7 22.462 10.275 25.9A6.794 6.794 0 0 0 15 27.813c1.7 0 3.4-.638 4.713-1.913 3.575-3.438 7.525-8.887 6.062-15.337ZM15 16.825a3.937 3.937 0 1 1 0-7.874 3.937 3.937 0 0 1 0 7.874Z" fill="#000" fill-opacity=".2"/><path d="M25.775 10.563C24.463 4.787 19.425 2.187 15 2.187h-.012c-4.413 0-9.463 2.588-10.775 8.363C2.75 17 6.7 22.462 10.275 25.9A6.794 6.794 0 0 0 15 27.813c1.7 0 3.4-.638 4.713-1.913 3.575-3.438 7.525-8.887 6.062-15.337ZM15 16.825a3.937 3.937 0 1 1 0-7.874 3.937 3.937 0 0 1 0 7.874Z" fill="#000" fill-opacity=".2"/><path d="M25.775 10.563C24.463 4.787 19.425 2.187 15 2.187h-.012c-4.413 0-9.463 2.588-10.775 8.363C2.75 17 6.7 22.462 10.275 25.9A6.794 6.794 0 0 0 15 27.813c1.7 0 3.4-.638 4.713-1.913 3.575-3.438 7.525-8.887 6.062-15.337ZM15 16.825a3.937 3.937 0 1 1 0-7.874 3.937 3.937 0 0 1 0 7.874Z" fill="#000" fill-opacity=".2"/></g><defs><clipPath id="a"><path fill="#fff" d="M0 0h30v30H0z"/></clipPath></defs></svg>