<svg width="28" height="24" fill="none" xmlns="http://www.w3.org/2000/svg"><g clip-path="url(#a)"><path d="M13.687 20.718c5.128 0 9.285-4.139 9.285-9.245 0-5.106-4.157-9.245-9.285-9.245s-9.285 4.139-9.285 9.245c0 5.106 4.157 9.245 9.285 9.245Z" fill="#E8F5E1"/><path fill-rule="evenodd" clip-rule="evenodd" d="M6.012 16.63a5.234 5.234 0 0 1-.255-.557 3.284 3.284 0 0 1-.09-.238l-.03-.093a5.495 5.495 0 0 1 .176-3.832 5.394 5.394 0 0 1 2.436-2.657 5.462 5.462 0 0 1 1.823-.6c.704 2.142-.524 4.778-2.992 6.425.25-.103.496-.219.734-.347 2.45-1.316 3.9-3.694 3.954-6.054a5.744 5.744 0 0 0-.03-.802 5.826 5.826 0 0 0-3.52.642 5.717 5.717 0 0 0-2.661 2.997 5.821 5.821 0 0 0-.063 4.033c.023.067.05.133.077.2.014.038.03.078.047.117l.103.238c.038.083.087.178.134.266.047.088.103.18.157.262Zm-2.021.004a3.807 3.807 0 0 0-.453-.071h-.173a2.878 2.878 0 0 0-1.823.584 2.948 2.948 0 0 0-1.07 1.606c-.084.33-.108.674-.07 1.013 1.193.081 2.4-.897 2.925-2.38-.021.14-.05.284-.084.424a3.882 3.882 0 0 1-.928 1.763A3.803 3.803 0 0 1 .643 20.63c-.138.04-.278.069-.42.088a3.018 3.018 0 0 1-.13-1.885 3.128 3.128 0 0 1 1.221-1.774 3.05 3.05 0 0 1 2.065-.546l.115.012h.065l.132.021c.054 0 .105.022.157.036.052.014.094.038.143.052Z" fill="#5BC029"/><path d="m21.761 20.951.12-.06C13.525 25 9.101 22.023 6.648 17.86c-3.245-5.485-1.954-12.6 3.51-15.8C15.623-1.137 22.54.489 25.71 5.646l-.126-.207C22.194-.024 14.715-1.604 8.73 1.906 2.896 5.32.96 12.722 4.694 18.58c1.877 2.941 5.38 4.997 9.385 4.997 2.464 0 5.116-.785 7.682-2.634" fill="#5BC029"/><path d="M25.534 5.264a13.056 13.056 0 0 0-4.043-3.646A11.224 11.224 0 0 0 18.36.514a38.285 38.285 0 0 0-1.683-.3 13.486 13.486 0 0 0-4.148.179l-1.316.904-1.321.928.279-.164c.293-.151.6-.275.915-.371a8.192 8.192 0 0 1 1.091-.279c.605-.11 1.06-.15 1.173-.16.322-.018.57-.016.648-.016.267 0 .47.021.79.048.216.016.343.028.526.052.08 0 .293.04.57.095.146.029.268.057.362.079.227.054.452.12.673.197a11.923 11.923 0 0 1 1.92.9c.35.204.703.43 1.07.687a13.233 13.233 0 0 1 2.055 1.814c.311.341.605.699.88 1.07.129.191.265.37.382.562l.18.29c.055.098.111.191.165.286.205.36.391.733.556 1.114l.216.533.176.507c.047.167.094.324.139.476.044.152.07.297.105.43.035.134.059.265.08.384.021.119.042.238.06.323.057.395.085.62.085.62s-.047-.222-.133-.61c-.024-.095-.054-.202-.085-.319a5.21 5.21 0 0 0-.108-.369c-.044-.13-.084-.274-.136-.419-.051-.145-.112-.295-.173-.454-.061-.16-.137-.317-.21-.476l-.248-.507c-.19-.357-.4-.703-.627-1.038l-.178-.264-.192-.257c-.134-.197-.272-.36-.41-.53-.29-.334-.597-.652-.92-.952a11.907 11.907 0 0 0-2.089-1.571 11.424 11.424 0 0 0-1.049-.569 13.19 13.19 0 0 0-.978-.416 8.954 8.954 0 0 0-.847-.274 8.518 8.518 0 0 0-.542-.13c0 2.427.234 6.962 1.778 9.264 2.166 3.236 7.72 3.41 8.593 6.123 1.66-4.824 1.236-9.634-.899-12.67Z" fill="#5BC029"/></g><defs><clipPath id="a"><path fill="#fff" d="M0 0h27.513v24H0z"/></clipPath></defs></svg>