<svg width="28" height="13" fill="none" xmlns="http://www.w3.org/2000/svg"><g clip-path="url(#a)" fill="gray"><path d="M19.102.206c-.567.11-.946.504-1.07 1.113-.037.179-.04.467-.034 1.842l.009 1.632.078.228c.222.643.655.94 1.368.94.733 0 1.169-.317 1.393-1.009.048-.144.054-.303.062-1.77.009-1.405.003-1.644-.036-1.846-.11-.56-.419-.937-.885-1.087a2.166 2.166 0 0 0-.885-.043Zm.567.911a.521.521 0 0 1 .155.179l.065.124v3.316l-.065.124a.399.399 0 0 1-.654.095c-.163-.167-.169-.228-.16-1.967l.008-1.54.07-.144c.113-.23.377-.317.581-.187ZM.016 6.538v6.286h5.322l1.3-1.448L7.937 9.93V3.145L6.64 1.696 5.339.252H.015v6.286ZM5.318 9.64l-.008 3.1-1.27-1.408-1.269-1.407V3.15l1.27-1.41L5.31.333l.008 3.102c.003 1.707.003 4.499 0 6.206Zm5.959-6.58v2.815h.927V4h.362c.197 0 .422-.012.498-.026.505-.098.811-.39.924-.871.059-.263.059-1.661 0-1.923-.107-.459-.36-.736-.787-.86-.137-.04-.337-.052-1.045-.06l-.879-.015V3.06Zm1.545-1.897c.062.035.124.11.169.2.067.14.07.158.07.778 0 .608-.003.64-.068.772-.092.197-.207.251-.536.251h-.253V1.082l.261.012c.194.009.287.026.357.07Zm1.799 1.897v2.815h.927V3.943h.236c.286 0 .393.034.463.156.037.06.11.369.211.922.087.459.16.84.166.845.005.006.233.006.502.003l.492-.009-.177-.91c-.095-.503-.2-.97-.227-1.039-.073-.167-.183-.297-.29-.343-.045-.02-.084-.043-.084-.055 0-.008.045-.049.096-.09.145-.109.292-.33.356-.544.053-.162.065-.28.076-.787.014-.632-.008-.86-.11-1.134a1.086 1.086 0 0 0-.457-.524c-.284-.147-.365-.159-1.3-.173l-.88-.015v2.815Zm1.545-1.897c.132.078.188.19.227.444.037.242.017.932-.03 1.099-.07.25-.217.346-.568.366l-.247.014V1.083l.261.011c.194.009.287.026.357.07Zm5.365 1.9v2.812h.955v-2.22h1.152v-.952h-1.152v-1.5h1.152v-.95H21.53v2.811Zm2.637 0v2.812h.983V.252h-.983v2.811Zm1.742 0v2.812h2.051v-.923h-1.096v-4.7h-.955v2.811ZM15.724 7.155c-.469.118-.795.453-.955.983-.047.159-.05.306-.05 1.86v1.687l.067.228c.183.605.596.928 1.258.983.627.052 1.163-.222 1.4-.715.176-.37.182-.436.182-2.163 0-1.303-.009-1.586-.045-1.773-.115-.577-.444-.949-.958-1.087-.194-.052-.69-.055-.899-.003Zm.63.88c.084.04.134.092.182.181l.065.124v1.658c0 1.6-.003 1.66-.057 1.773-.16.329-.578.329-.744-.003l-.07-.138-.008-1.528c-.006-1.03.002-1.575.022-1.678.04-.19.126-.33.253-.393.126-.066.21-.063.356.003Zm2.903-.875c-.469.128-.795.465-.944.981-.045.15-.05.343-.059 1.733-.014 1.768-.003 1.9.172 2.275.23.499.654.744 1.295.744.48 0 .791-.118 1.05-.4.168-.182.27-.384.343-.673.05-.201.053-.328.053-1.805 0-1.747-.009-1.833-.169-2.17a1.253 1.253 0 0 0-.828-.687c-.21-.055-.705-.055-.913.003Zm.702.906a.543.543 0 0 1 .13.165c.05.103.053.204.053 1.781 0 1.635 0 1.676-.06 1.774-.092.167-.221.24-.398.225-.126-.012-.166-.03-.244-.113-.18-.184-.186-.256-.177-1.978.008-1.479.01-1.525.067-1.652.068-.15.14-.222.253-.26a.478.478 0 0 1 .376.058Zm6.18-.908c-.475.135-.809.513-.916 1.038-.09.433-.03.931.15 1.312.131.277.423.58.82.85.516.355.668.574.693 1.004.028.456-.112.727-.382.727-.29 0-.407-.196-.41-.692 0-.176.008-.352.022-.398l.02-.078h-.921l-.031.144c-.05.24-.04.683.025.937.07.28.155.433.337.6.385.354 1.188.4 1.691.098.273-.164.506-.516.582-.88a3.268 3.268 0 0 0-.014-.957 2.09 2.09 0 0 0-.147-.403c-.132-.28-.446-.609-.848-.886-.297-.207-.494-.392-.57-.548-.079-.152-.11-.43-.076-.643.05-.311.177-.467.38-.467.269 0 .401.315.373.886l-.014.273h.913l.017-.089c.03-.164.016-.758-.023-.954-.087-.413-.306-.707-.63-.834-.21-.083-.808-.106-1.041-.04Zm-14.834 2.857v2.815l.795-.015c.615-.011.828-.023.96-.06.475-.136.753-.387.919-.842.061-.168.064-.194.073-1.817.005-1.41.002-1.678-.037-1.842-.12-.543-.45-.883-.975-1.01-.134-.031-.365-.043-.954-.043h-.781v2.814Zm1.522-1.911c.079.043.13.106.185.219l.076.161.009 1.436c.005 1.223.002 1.462-.037 1.612-.079.32-.213.427-.567.45l-.205.014V8l.216.02c.14.014.256.043.323.084Zm9.013 1.908v2.812h.927v-1.961l.233.003c.126 0 .275.014.328.034.163.058.208.194.374 1.102l.146.807.5.009c.317.003.497-.003.497-.023 0-.075-.317-1.681-.365-1.845-.065-.223-.191-.393-.346-.462-.095-.043-.103-.055-.053-.07.079-.025.298-.273.368-.414.115-.234.143-.441.143-1.116 0-.684-.022-.842-.151-1.105a1.128 1.128 0 0 0-.43-.435c-.247-.127-.418-.147-1.32-.147h-.851v2.811Zm1.542-1.923a.432.432 0 0 1 .171.179c.068.127.07.144.07.735 0 .565-.002.614-.059.721-.115.216-.236.274-.575.274h-.222V8l.258.02c.155.009.298.037.357.07Z"/></g><defs><clipPath id="a"><path fill="#fff" transform="translate(0 .031)" d="M0 0h28v12.938H0z"/></clipPath></defs></svg>