<svg width="24" height="25" fill="none" xmlns="http://www.w3.org/2000/svg"><g clip-path="url(#a)"><path d="m5.34 22.494-.168-.112.122-.163c1.501-1.975 3.864-5.142 6.69-5.166 2.825.024 5.189 3.19 6.69 5.166l.122.163-.169.112a11.939 11.939 0 0 1-6.643 2.006 11.923 11.923 0 0 1-6.644-2.006Zm6.643 1.621a11.567 11.567 0 0 0 6.261-1.828c-1.489-1.989-3.81-4.87-6.26-4.85-2.45-.02-4.771 2.861-6.261 4.85a11.568 11.568 0 0 0 6.26 1.828Zm7.186-2.225c-1.21-1.734-3.027-4.326-3.035-6.72a3.99 3.99 0 0 1 .189-1.24c.894-2.68 4.637-3.949 6.98-4.765l.193-.066.055.195a11.965 11.965 0 0 1-.146 6.938 11.938 11.938 0 0 1-3.96 5.698l-.159.127-.117-.167Zm-2.482-7.84c-.115.362-.172.74-.17 1.12-.007 2.13 1.642 4.613 2.848 6.331a11.566 11.566 0 0 0 3.674-5.388c.378-1.16.57-2.372.572-3.592a11.657 11.657 0 0 0-.377-2.927c-2.35.802-5.81 2.119-6.547 4.456ZM4.55 21.892a11.965 11.965 0 0 1-3.96-5.698 11.953 11.953 0 0 1-.145-6.938L.5 9.061l.192.065c2.344.817 6.087 2.086 6.98 4.766.128.4.192.819.19 1.239-.01 2.395-1.825 4.988-3.035 6.72l-.117.168-.16-.127ZM.385 12.483c0 1.22.193 2.432.57 3.592a11.566 11.566 0 0 0 3.676 5.388c1.205-1.718 2.853-4.203 2.846-6.332a3.587 3.587 0 0 0-.169-1.119c-.737-2.337-4.196-3.654-6.546-4.457-.25.956-.377 1.94-.377 2.928ZM14.693 8.84C12.42 7.16 12.37 3.21 12.317.727l-.003-.204.203.01c2.362.094 4.643.889 6.553 2.282a11.93 11.93 0 0 1 4.196 5.527l.071.19-.195.06c-1.496.458-3.544 1.077-5.43 1.079-1.11 0-2.172-.216-3.02-.83Zm.226-.311c.754.549 1.73.758 2.793.758 1.724 0 3.652-.554 5.122-1.002a11.552 11.552 0 0 0-3.99-5.159 11.567 11.567 0 0 0-6.14-2.2c.038 2.484.22 6.18 2.215 7.603Zm-14.021.04-.195-.06.072-.19A11.924 11.924 0 0 1 4.97 2.791 11.93 11.93 0 0 1 11.523.509L11.726.5l-.003.204c-.053 2.48-.102 6.432-2.376 8.112-.847.614-1.91.831-3.019.831-1.885 0-3.936-.622-5.43-1.078Zm5.43.694c1.062 0 2.039-.209 2.793-.759 1.995-1.42 2.178-5.118 2.215-7.602a11.568 11.568 0 0 0-6.14 2.199 11.564 11.564 0 0 0-3.989 5.16c1.468.449 3.396 1.003 5.121 1.002Z" fill="#F5CB45"/><path fill-rule="evenodd" clip-rule="evenodd" d="M11.531.7c-.042 2.482-.135 6.39-2.297 7.96-2.16 1.572-5.908.452-8.28-.275A11.813 11.813 0 0 1 11.532.7Zm11.555 7.708c-2.372.727-6.118 1.847-8.28.276-2.161-1.57-2.253-5.479-2.295-7.959a11.813 11.813 0 0 1 10.575 7.683ZM19.328 21.78c-1.426-2.032-3.648-5.249-2.822-7.79.826-2.541 4.514-3.837 6.86-4.643a11.814 11.814 0 0 1-4.038 12.433ZM.63 9.308c2.346.807 6.034 2.103 6.86 4.645.826 2.54-1.395 5.758-2.82 7.789A11.814 11.814 0 0 1 .63 9.308Zm4.817 13.028c1.492-1.982 3.865-5.09 6.537-5.09 2.673 0 5.045 3.108 6.536 5.09a11.818 11.818 0 0 1-13.073 0Z" fill="url(#b)"/><path d="M23.083 8.408c-2.056.63-5.142 1.555-7.336.77a26.244 26.244 0 0 1 5.419-4.12 11.723 11.723 0 0 1 1.917 3.35ZM19.324 21.78c-1.426-2.032-3.647-5.249-2.821-7.79.826-2.541 4.514-3.837 6.859-4.643a11.814 11.814 0 0 1-4.038 12.433ZM7.65 14.763c.21 2.384-1.707 5.158-2.983 6.979A11.76 11.76 0 0 1 .77 16.134a14.79 14.79 0 0 1-.11-.358 29.721 29.721 0 0 0 6.99-1.013Zm-2.206 7.573c1.492-1.982 3.865-5.09 6.537-5.09 2.672 0 5.045 3.108 6.536 5.09a11.818 11.818 0 0 1-13.073 0Z" fill="url(#c)"/><path opacity=".9" d="M10.468 4.878c-.287 1.43-.801 2.572-1.657 3.195-.857.621-2.104.757-3.55.589a20.18 20.18 0 0 1-3.327-.74 11.1 11.1 0 0 1 8.857-6.437 20.252 20.252 0 0 1-.323 3.393Zm5.892 3.724a3.23 3.23 0 0 1-1.124-.506c-.856-.621-1.37-1.766-1.658-3.195a20.127 20.127 0 0 1-.322-3.392 11.12 11.12 0 0 1 7.28 3.92 26.376 26.376 0 0 0-4.176 3.173ZM4.277 11.613c1.268.714 2.198 1.556 2.525 2.563.08.252.127.513.139.777a29.8 29.8 0 0 1-5.527.79 11.026 11.026 0 0 1-.265-5.486 20.17 20.17 0 0 1 3.128 1.356Z" fill="#fff"/></g><defs><radialGradient id="b" cx="0" cy="0" r="1" gradientUnits="userSpaceOnUse" gradientTransform="translate(11.998 12.504) scale(11.8045)"><stop stop-color="#FFE37E"/><stop offset=".243" stop-color="#FEDF79"/><stop offset=".535" stop-color="#FBD56A"/><stop offset=".85" stop-color="#F5C352"/><stop offset="1" stop-color="#F2B944"/></radialGradient><radialGradient id="c" cx="0" cy="0" r="1" gradientUnits="userSpaceOnUse" gradientTransform="translate(12.052 23.332) scale(13.9051)"><stop stop-color="#FFE37E"/><stop offset=".243" stop-color="#FEDF79"/><stop offset=".535" stop-color="#FBD56A"/><stop offset=".85" stop-color="#F5C352"/><stop offset="1" stop-color="#F2B944"/></radialGradient><clipPath id="a"><path fill="#fff" transform="translate(0 .5)" d="M0 0h24v24H0z"/></clipPath></defs></svg>