<svg width="66" height="66" fill="none" xmlns="http://www.w3.org/2000/svg"><path d="m14.686 60.485-.463-.309.335-.448c4.128-5.433 10.625-14.142 18.397-14.207 7.77.065 14.27 8.774 18.398 14.207l.336.448-.464.309A32.832 32.832 0 0 1 32.955 66a32.789 32.789 0 0 1-18.269-5.515Zm18.269 4.457a31.81 31.81 0 0 0 17.216-5.028c-4.095-5.47-10.479-13.392-17.216-13.338-6.735-.054-13.12 7.868-17.217 13.338a31.815 31.815 0 0 0 17.217 5.028Zm19.761-6.12c-3.33-4.767-8.326-11.896-8.347-18.48a10.974 10.974 0 0 1 .518-3.41c2.46-7.371 12.753-10.859 19.198-13.103l.528-.183.152.537a32.904 32.904 0 0 1 1.223 8.875 32.994 32.994 0 0 1-1.625 10.204 32.828 32.828 0 0 1-10.89 15.671l-.436.348-.32-.458Zm-6.826-21.56a9.927 9.927 0 0 0-.466 3.08c-.022 5.856 4.512 12.685 7.829 17.411a31.807 31.807 0 0 0 10.103-14.817 31.965 31.965 0 0 0 1.574-9.878 31.98 31.98 0 0 0-1.037-8.049c-6.463 2.205-15.976 5.826-18.003 12.253ZM12.512 58.829a32.905 32.905 0 0 1-10.89-15.67 32.87 32.87 0 0 1-.4-19.08l.153-.536.527.18c6.446 2.246 16.741 5.734 19.198 13.106.35 1.1.525 2.25.519 3.405-.024 6.586-5.019 13.717-8.345 18.483l-.323.46-.439-.348ZM1.058 32.954c0 3.355.53 6.688 1.57 9.878a31.807 31.807 0 0 0 10.107 14.817c3.314-4.726 7.847-11.558 7.826-17.415a9.865 9.865 0 0 0-.464-3.075C18.07 30.732 8.557 27.11 2.095 24.902a31.863 31.863 0 0 0-1.037 8.052Zm39.347-10.018c-6.25-4.622-6.387-15.487-6.533-22.311l-.01-.561.559.025a32.827 32.827 0 0 1 18.02 6.277 32.81 32.81 0 0 1 11.54 15.198l.196.524-.537.165c-4.113 1.259-9.747 2.963-14.933 2.967-3.052 0-5.972-.595-8.302-2.284Zm.622-.857c2.073 1.51 4.76 2.086 7.68 2.086 4.741 0 10.043-1.524 14.085-2.756A31.767 31.767 0 0 0 51.823 7.222 31.808 31.808 0 0 0 34.936 1.17c.104 6.833.607 16.998 6.091 20.91Zm-38.558.11-.536-.165.198-.523A32.79 32.79 0 0 1 13.667 6.302 32.806 32.806 0 0 1 31.69.025L32.247 0l-.01.561c-.145 6.82-.28 17.69-6.533 22.308-2.329 1.689-5.25 2.286-8.301 2.286-5.183-.002-10.824-1.71-14.934-2.966Zm14.934 1.91c2.92 0 5.606-.575 7.68-2.087 5.487-3.908 5.99-14.076 6.091-20.906A31.812 31.812 0 0 0 14.29 7.152a31.8 31.8 0 0 0-10.97 14.19c4.037 1.235 9.338 2.759 14.083 2.756Z" fill="#F5CB45"/><path fill-rule="evenodd" clip-rule="evenodd" d="M31.71.552c-.116 6.823-.372 17.57-6.318 21.887-5.942 4.324-16.246 1.244-22.768-.756A32.485 32.485 0 0 1 31.71.553Zm31.774 21.196c-6.521 2-16.823 5.078-22.768.758C34.77 18.186 34.517 7.44 34.402.62a32.484 32.484 0 0 1 29.082 21.129ZM53.15 58.519c-3.921-5.586-10.03-14.433-7.76-21.422 2.27-6.987 12.414-10.551 18.862-12.767A32.491 32.491 0 0 1 53.15 58.52ZM1.73 24.223c6.451 2.219 16.594 5.783 18.866 12.772 2.271 6.987-3.839 15.835-7.756 21.42A32.488 32.488 0 0 1 1.73 24.223Zm13.247 35.826c4.104-5.451 10.628-13.997 17.976-13.997 7.35 0 13.875 8.546 17.975 13.997a32.5 32.5 0 0 1-35.951 0Z" fill="url(#a)"/><path d="M63.482 21.748c-5.652 1.734-14.14 4.274-20.174 2.115a72.17 72.17 0 0 1 14.902-11.33 32.245 32.245 0 0 1 5.272 9.215ZM53.147 58.519c-3.921-5.586-10.03-14.433-7.76-21.422C47.659 30.11 57.803 26.546 64.25 24.33a32.491 32.491 0 0 1-11.103 34.19ZM21.043 39.223c.58 6.557-4.695 14.185-8.204 19.192A32.34 32.34 0 0 1 2.122 42.993c-.104-.329-.207-.651-.302-.983a81.73 81.73 0 0 0 19.223-2.787Zm-6.067 20.826c4.104-5.452 10.628-13.997 17.976-13.997 7.35 0 13.875 8.545 17.975 13.997a32.5 32.5 0 0 1-35.951 0Z" fill="url(#b)"/><path opacity=".9" d="M28.78 12.039c-.789 3.93-2.204 7.074-4.557 8.787-2.357 1.707-5.787 2.083-9.765 1.62a55.495 55.495 0 0 1-9.147-2.038 30.525 30.525 0 0 1 24.357-17.7 55.694 55.694 0 0 1-.888 9.33Zm16.202 10.24a8.882 8.882 0 0 1-3.092-1.389c-2.353-1.71-3.768-4.857-4.558-8.786a55.366 55.366 0 0 1-.887-9.33 30.579 30.579 0 0 1 20.022 10.78 72.548 72.548 0 0 0-11.485 8.726Zm-33.228 8.282c3.487 1.963 6.045 4.28 6.944 7.048a8.18 8.18 0 0 1 .381 2.138A81.947 81.947 0 0 1 3.881 41.92a30.322 30.322 0 0 1-.728-15.089 55.476 55.476 0 0 1 8.6 3.729Z" fill="#fff"/><defs><radialGradient id="a" cx="0" cy="0" r="1" gradientUnits="userSpaceOnUse" gradientTransform="translate(32.993 33.012) scale(32.4624)"><stop stop-color="#FFE37E"/><stop offset=".243" stop-color="#FEDF79"/><stop offset=".535" stop-color="#FBD56A"/><stop offset=".85" stop-color="#F5C352"/><stop offset="1" stop-color="#F2B944"/></radialGradient><radialGradient id="b" cx="0" cy="0" r="1" gradientUnits="userSpaceOnUse" gradientTransform="translate(33.148 62.788) scale(38.2391)"><stop stop-color="#FFE37E"/><stop offset=".243" stop-color="#FEDF79"/><stop offset=".535" stop-color="#FBD56A"/><stop offset=".85" stop-color="#F5C352"/><stop offset="1" stop-color="#F2B944"/></radialGradient></defs></svg>