<svg width="143" height="66" fill="none" xmlns="http://www.w3.org/2000/svg"><g clip-path="url(#a)"><path d="M97.428.892c-2.894.559-4.828 2.574-5.459 5.677-.186.912-.2 2.383-.171 9.4l.043 8.325.4 1.162c1.133 3.28 3.34 4.795 6.978 4.795 3.74 0 5.961-1.618 7.107-5.148.244-.735.272-1.544.315-9.031.043-7.164.015-8.385-.186-9.414-.559-2.854-2.135-4.78-4.513-5.546-1.161-.367-3.238-.47-4.514-.22Zm2.895 4.648c.258.147.601.573.788.912l.329.632V24l-.329.632c-.688 1.31-2.307 1.545-3.339.486-.83-.853-.86-1.162-.816-10.032l.043-7.855.358-.735c.573-1.177 1.92-1.618 2.966-.956Z" fill="#1C1C1C"/><path d="M97.428.892c-2.894.559-4.828 2.574-5.459 5.677-.186.912-.2 2.383-.171 9.4l.043 8.325.4 1.162c1.133 3.28 3.34 4.795 6.978 4.795 3.74 0 5.961-1.618 7.107-5.148.244-.735.272-1.544.315-9.031.043-7.164.015-8.385-.186-9.414-.559-2.854-2.135-4.78-4.513-5.546-1.161-.367-3.238-.47-4.514-.22Zm2.895 4.648c.258.147.601.573.788.912l.329.632V24l-.329.632c-.688 1.31-2.307 1.545-3.339.486-.83-.853-.86-1.162-.816-10.032l.043-7.855.358-.735c.573-1.177 1.92-1.618 2.966-.956Z" fill="#000" fill-opacity=".2"/><path d="M97.428.892c-2.894.559-4.828 2.574-5.459 5.677-.186.912-.2 2.383-.171 9.4l.043 8.325.4 1.162c1.133 3.28 3.34 4.795 6.978 4.795 3.74 0 5.961-1.618 7.107-5.148.244-.735.272-1.544.315-9.031.043-7.164.015-8.385-.186-9.414-.559-2.854-2.135-4.78-4.513-5.546-1.161-.367-3.238-.47-4.514-.22Zm2.895 4.648c.258.147.601.573.788.912l.329.632V24l-.329.632c-.688 1.31-2.307 1.545-3.339.486-.83-.853-.86-1.162-.816-10.032l.043-7.855.358-.735c.573-1.177 1.92-1.618 2.966-.956Z" fill="#000" fill-opacity=".2"/><path d="M97.428.892c-2.894.559-4.828 2.574-5.459 5.677-.186.912-.2 2.383-.171 9.4l.043 8.325.4 1.162c1.133 3.28 3.34 4.795 6.978 4.795 3.74 0 5.961-1.618 7.107-5.148.244-.735.272-1.544.315-9.031.043-7.164.015-8.385-.186-9.414-.559-2.854-2.135-4.78-4.513-5.546-1.161-.367-3.238-.47-4.514-.22Zm2.895 4.648c.258.147.601.573.788.912l.329.632V24l-.329.632c-.688 1.31-2.307 1.545-3.339.486-.83-.853-.86-1.162-.816-10.032l.043-7.855.358-.735c.573-1.177 1.92-1.618 2.966-.956Z" fill="#000" fill-opacity=".2"/><path d="M.07 33.193V65.26h27.15l6.634-7.384 6.619-7.384V15.88l-6.62-7.384-6.633-7.37H.069v32.067ZM27.12 49.02l-.043 15.813-6.476-7.178-6.476-7.178V15.91l6.476-7.193 6.476-7.178.043 15.827c.015 8.708.015 22.946 0 31.654Z" fill="#1C1C1C"/><path d="M.07 33.193V65.26h27.15l6.634-7.384 6.619-7.384V15.88l-6.62-7.384-6.633-7.37H.069v32.067ZM27.12 49.02l-.043 15.813-6.476-7.178-6.476-7.178V15.91l6.476-7.193 6.476-7.178.043 15.827c.015 8.708.015 22.946 0 31.654Z" fill="#000" fill-opacity=".2"/><path d="M.07 33.193V65.26h27.15l6.634-7.384 6.619-7.384V15.88l-6.62-7.384-6.633-7.37H.069v32.067ZM27.12 49.02l-.043 15.813-6.476-7.178-6.476-7.178V15.91l6.476-7.193 6.476-7.178.043 15.827c.015 8.708.015 22.946 0 31.654Z" fill="#000" fill-opacity=".2"/><path d="M.07 33.193V65.26h27.15l6.634-7.384 6.619-7.384V15.88l-6.62-7.384-6.633-7.37H.069v32.067ZM27.12 49.02l-.043 15.813-6.476-7.178-6.476-7.178V15.91l6.476-7.193 6.476-7.178.043 15.827c.015 8.708.015 22.946 0 31.654Z" fill="#000" fill-opacity=".2"/><path d="M57.524 15.454V29.81h4.729v-9.561H64.1c1.003 0 2.15-.059 2.536-.133 2.579-.5 4.14-1.985 4.714-4.442.3-1.338.3-8.472 0-9.81-.545-2.34-1.834-3.752-4.012-4.384-.702-.206-1.72-.265-5.33-.309l-4.485-.074v14.357Zm7.88-9.679c.316.177.631.559.86 1.015.344.72.359.809.359 3.971 0 3.104-.015 3.266-.344 3.943-.473 1-1.06 1.28-2.737 1.28h-1.29V5.363l1.333.058c.989.044 1.462.132 1.82.353Z" fill="#1C1C1C"/><path d="M57.524 15.454V29.81h4.729v-9.561H64.1c1.003 0 2.15-.059 2.536-.133 2.579-.5 4.14-1.985 4.714-4.442.3-1.338.3-8.472 0-9.81-.545-2.34-1.834-3.752-4.012-4.384-.702-.206-1.72-.265-5.33-.309l-4.485-.074v14.357Zm7.88-9.679c.316.177.631.559.86 1.015.344.72.359.809.359 3.971 0 3.104-.015 3.266-.344 3.943-.473 1-1.06 1.28-2.737 1.28h-1.29V5.363l1.333.058c.989.044 1.462.132 1.82.353Z" fill="#000" fill-opacity=".2"/><path d="M57.524 15.454V29.81h4.729v-9.561H64.1c1.003 0 2.15-.059 2.536-.133 2.579-.5 4.14-1.985 4.714-4.442.3-1.338.3-8.472 0-9.81-.545-2.34-1.834-3.752-4.012-4.384-.702-.206-1.72-.265-5.33-.309l-4.485-.074v14.357Zm7.88-9.679c.316.177.631.559.86 1.015.344.72.359.809.359 3.971 0 3.104-.015 3.266-.344 3.943-.473 1-1.06 1.28-2.737 1.28h-1.29V5.363l1.333.058c.989.044 1.462.132 1.82.353Z" fill="#000" fill-opacity=".2"/><path d="M57.524 15.454V29.81h4.729v-9.561H64.1c1.003 0 2.15-.059 2.536-.133 2.579-.5 4.14-1.985 4.714-4.442.3-1.338.3-8.472 0-9.81-.545-2.34-1.834-3.752-4.012-4.384-.702-.206-1.72-.265-5.33-.309l-4.485-.074v14.357Zm7.88-9.679c.316.177.631.559.86 1.015.344.72.359.809.359 3.971 0 3.104-.015 3.266-.344 3.943-.473 1-1.06 1.28-2.737 1.28h-1.29V5.363l1.333.058c.989.044 1.462.132 1.82.353Z" fill="#000" fill-opacity=".2"/><path d="M74.574 15.454V29.81h4.728v-9.855h1.204c1.461 0 2.006.176 2.364.794.186.309.559 1.883 1.075 4.707.444 2.339.816 4.28.845 4.31.029.03 1.19.03 2.565.015l2.507-.045-.903-4.648c-.487-2.56-1.017-4.942-1.16-5.295-.373-.853-.931-1.515-1.476-1.75-.23-.103-.43-.221-.43-.28 0-.044.23-.25.487-.456.746-.559 1.49-1.691 1.82-2.78.272-.824.33-1.427.387-4.016.072-3.22-.043-4.383-.559-5.78-.372-1.015-1.39-2.192-2.335-2.677-1.447-.75-1.863-.81-6.634-.883l-4.485-.074v14.357Zm7.88-9.679c.674.397.96.97 1.161 2.265.186 1.236.086 4.751-.157 5.605-.359 1.28-1.104 1.765-2.895 1.867l-1.26.074V5.363l1.332.059c.989.044 1.461.132 1.82.353Z" fill="#1C1C1C"/><path d="M74.574 15.454V29.81h4.728v-9.855h1.204c1.461 0 2.006.176 2.364.794.186.309.559 1.883 1.075 4.707.444 2.339.816 4.28.845 4.31.029.03 1.19.03 2.565.015l2.507-.045-.903-4.648c-.487-2.56-1.017-4.942-1.16-5.295-.373-.853-.931-1.515-1.476-1.75-.23-.103-.43-.221-.43-.28 0-.044.23-.25.487-.456.746-.559 1.49-1.691 1.82-2.78.272-.824.33-1.427.387-4.016.072-3.22-.043-4.383-.559-5.78-.372-1.015-1.39-2.192-2.335-2.677-1.447-.75-1.863-.81-6.634-.883l-4.485-.074v14.357Zm7.88-9.679c.674.397.96.97 1.161 2.265.186 1.236.086 4.751-.157 5.605-.359 1.28-1.104 1.765-2.895 1.867l-1.26.074V5.363l1.332.059c.989.044 1.461.132 1.82.353Z" fill="#000" fill-opacity=".2"/><path d="M74.574 15.454V29.81h4.728v-9.855h1.204c1.461 0 2.006.176 2.364.794.186.309.559 1.883 1.075 4.707.444 2.339.816 4.28.845 4.31.029.03 1.19.03 2.565.015l2.507-.045-.903-4.648c-.487-2.56-1.017-4.942-1.16-5.295-.373-.853-.931-1.515-1.476-1.75-.23-.103-.43-.221-.43-.28 0-.044.23-.25.487-.456.746-.559 1.49-1.691 1.82-2.78.272-.824.33-1.427.387-4.016.072-3.22-.043-4.383-.559-5.78-.372-1.015-1.39-2.192-2.335-2.677-1.447-.75-1.863-.81-6.634-.883l-4.485-.074v14.357Zm7.88-9.679c.674.397.96.97 1.161 2.265.186 1.236.086 4.751-.157 5.605-.359 1.28-1.104 1.765-2.895 1.867l-1.26.074V5.363l1.332.059c.989.044 1.461.132 1.82.353Z" fill="#000" fill-opacity=".2"/><path d="M74.574 15.454V29.81h4.728v-9.855h1.204c1.461 0 2.006.176 2.364.794.186.309.559 1.883 1.075 4.707.444 2.339.816 4.28.845 4.31.029.03 1.19.03 2.565.015l2.507-.045-.903-4.648c-.487-2.56-1.017-4.942-1.16-5.295-.373-.853-.931-1.515-1.476-1.75-.23-.103-.43-.221-.43-.28 0-.044.23-.25.487-.456.746-.559 1.49-1.691 1.82-2.78.272-.824.33-1.427.387-4.016.072-3.22-.043-4.383-.559-5.78-.372-1.015-1.39-2.192-2.335-2.677-1.447-.75-1.863-.81-6.634-.883l-4.485-.074v14.357Zm7.88-9.679c.674.397.96.97 1.161 2.265.186 1.236.086 4.751-.157 5.605-.359 1.28-1.104 1.765-2.895 1.867l-1.26.074V5.363l1.332.059c.989.044 1.461.132 1.82.353Z" fill="#000" fill-opacity=".2"/><path d="M109.822 15.468V29.81h4.872V18.484h5.874V13.63h-5.874V5.98h5.874V1.127h-10.746v14.341Z" fill="#1C1C1C"/><path d="M109.822 15.468V29.81h4.872V18.484h5.874V13.63h-5.874V5.98h5.874V1.127h-10.746v14.341Z" fill="#000" fill-opacity=".2"/><path d="M109.822 15.468V29.81h4.872V18.484h5.874V13.63h-5.874V5.98h5.874V1.127h-10.746v14.341Z" fill="#000" fill-opacity=".2"/><path d="M109.822 15.468V29.81h4.872V18.484h5.874V13.63h-5.874V5.98h5.874V1.127h-10.746v14.341Z" fill="#000" fill-opacity=".2"/><path d="M123.289 15.468V29.81h5.015V1.127h-5.015v14.341Z" fill="#1C1C1C"/><path d="M123.289 15.468V29.81h5.015V1.127h-5.015v14.341Z" fill="#000" fill-opacity=".2"/><path d="M123.289 15.468V29.81h5.015V1.127h-5.015v14.341Z" fill="#000" fill-opacity=".2"/><path d="M123.289 15.468V29.81h5.015V1.127h-5.015v14.341Z" fill="#000" fill-opacity=".2"/><path d="M132.173 15.468V29.81h10.459v-4.707h-5.588V1.127h-4.871v14.341Z" fill="#1C1C1C"/><path d="M132.173 15.468V29.81h10.459v-4.707h-5.588V1.127h-4.871v14.341Z" fill="#000" fill-opacity=".2"/><path d="M132.173 15.468V29.81h10.459v-4.707h-5.588V1.127h-4.871v14.341Z" fill="#000" fill-opacity=".2"/><path d="M132.173 15.468V29.81h10.459v-4.707h-5.588V1.127h-4.871v14.341Z" fill="#000" fill-opacity=".2"/><path d="M80.205 36.34c-2.393.604-4.055 2.31-4.872 5.017-.243.809-.258 1.559-.258 9.487v8.605l.344 1.162c.931 3.089 3.038 4.736 6.419 5.016 3.195.265 5.932-1.133 7.135-3.648.903-1.883.932-2.221.932-11.032 0-6.649-.043-8.09-.23-9.046-.587-2.942-2.263-4.84-4.885-5.546-.99-.264-3.525-.279-4.585-.014Zm3.209 4.487c.43.206.688.47.931.927l.33.632v8.458c0 8.164-.014 8.473-.287 9.046-.816 1.677-2.951 1.677-3.797-.014l-.358-.706-.043-7.796c-.028-5.252.015-8.032.115-8.561.2-.97.645-1.677 1.29-2 .644-.339 1.074-.324 1.819.014Z" fill="#1C1C1C"/><path d="M80.205 36.34c-2.393.604-4.055 2.31-4.872 5.017-.243.809-.258 1.559-.258 9.487v8.605l.344 1.162c.931 3.089 3.038 4.736 6.419 5.016 3.195.265 5.932-1.133 7.135-3.648.903-1.883.932-2.221.932-11.032 0-6.649-.043-8.09-.23-9.046-.587-2.942-2.263-4.84-4.885-5.546-.99-.264-3.525-.279-4.585-.014Zm3.209 4.487c.43.206.688.47.931.927l.33.632v8.458c0 8.164-.014 8.473-.287 9.046-.816 1.677-2.951 1.677-3.797-.014l-.358-.706-.043-7.796c-.028-5.252.015-8.032.115-8.561.2-.97.645-1.677 1.29-2 .644-.339 1.074-.324 1.819.014Z" fill="#000" fill-opacity=".2"/><path d="M80.205 36.34c-2.393.604-4.055 2.31-4.872 5.017-.243.809-.258 1.559-.258 9.487v8.605l.344 1.162c.931 3.089 3.038 4.736 6.419 5.016 3.195.265 5.932-1.133 7.135-3.648.903-1.883.932-2.221.932-11.032 0-6.649-.043-8.09-.23-9.046-.587-2.942-2.263-4.84-4.885-5.546-.99-.264-3.525-.279-4.585-.014Zm3.209 4.487c.43.206.688.47.931.927l.33.632v8.458c0 8.164-.014 8.473-.287 9.046-.816 1.677-2.951 1.677-3.797-.014l-.358-.706-.043-7.796c-.028-5.252.015-8.032.115-8.561.2-.97.645-1.677 1.29-2 .644-.339 1.074-.324 1.819.014Z" fill="#000" fill-opacity=".2"/><path d="M80.205 36.34c-2.393.604-4.055 2.31-4.872 5.017-.243.809-.258 1.559-.258 9.487v8.605l.344 1.162c.931 3.089 3.038 4.736 6.419 5.016 3.195.265 5.932-1.133 7.135-3.648.903-1.883.932-2.221.932-11.032 0-6.649-.043-8.09-.23-9.046-.587-2.942-2.263-4.84-4.885-5.546-.99-.264-3.525-.279-4.585-.014Zm3.209 4.487c.43.206.688.47.931.927l.33.632v8.458c0 8.164-.014 8.473-.287 9.046-.816 1.677-2.951 1.677-3.797-.014l-.358-.706-.043-7.796c-.028-5.252.015-8.032.115-8.561.2-.97.645-1.677 1.29-2 .644-.339 1.074-.324 1.819.014Z" fill="#000" fill-opacity=".2"/><path d="M98.215 36.37c-2.392.648-4.055 2.369-4.814 5.002-.23.764-.258 1.75-.3 8.84-.072 9.016-.015 9.693.873 11.605 1.175 2.545 3.339 3.795 6.605 3.795 2.45 0 4.041-.603 5.359-2.044.86-.927 1.375-1.957 1.748-3.427.258-1.03.272-1.677.272-9.209 0-8.913-.043-9.355-.859-11.076-.86-1.78-2.307-2.986-4.227-3.5-1.075-.28-3.597-.28-4.657.014Zm3.582 4.62c.215.16.516.543.659.837.258.53.273 1.045.273 9.09 0 8.341 0 8.547-.301 9.047-.473.853-1.132 1.22-2.035 1.147-.645-.058-.845-.147-1.246-.573-.917-.942-.946-1.31-.903-10.09.043-7.547.057-7.782.344-8.43.344-.764.716-1.132 1.29-1.323.572-.191 1.446-.044 1.919.294Z" fill="#1C1C1C"/><path d="M98.215 36.37c-2.392.648-4.055 2.369-4.814 5.002-.23.764-.258 1.75-.3 8.84-.072 9.016-.015 9.693.873 11.605 1.175 2.545 3.339 3.795 6.605 3.795 2.45 0 4.041-.603 5.359-2.044.86-.927 1.375-1.957 1.748-3.427.258-1.03.272-1.677.272-9.209 0-8.913-.043-9.355-.859-11.076-.86-1.78-2.307-2.986-4.227-3.5-1.075-.28-3.597-.28-4.657.014Zm3.582 4.62c.215.16.516.543.659.837.258.53.273 1.045.273 9.09 0 8.341 0 8.547-.301 9.047-.473.853-1.132 1.22-2.035 1.147-.645-.058-.845-.147-1.246-.573-.917-.942-.946-1.31-.903-10.09.043-7.547.057-7.782.344-8.43.344-.764.716-1.132 1.29-1.323.572-.191 1.446-.044 1.919.294Z" fill="#000" fill-opacity=".2"/><path d="M98.215 36.37c-2.392.648-4.055 2.369-4.814 5.002-.23.764-.258 1.75-.3 8.84-.072 9.016-.015 9.693.873 11.605 1.175 2.545 3.339 3.795 6.605 3.795 2.45 0 4.041-.603 5.359-2.044.86-.927 1.375-1.957 1.748-3.427.258-1.03.272-1.677.272-9.209 0-8.913-.043-9.355-.859-11.076-.86-1.78-2.307-2.986-4.227-3.5-1.075-.28-3.597-.28-4.657.014Zm3.582 4.62c.215.16.516.543.659.837.258.53.273 1.045.273 9.09 0 8.341 0 8.547-.301 9.047-.473.853-1.132 1.22-2.035 1.147-.645-.058-.845-.147-1.246-.573-.917-.942-.946-1.31-.903-10.09.043-7.547.057-7.782.344-8.43.344-.764.716-1.132 1.29-1.323.572-.191 1.446-.044 1.919.294Z" fill="#000" fill-opacity=".2"/><path d="M98.215 36.37c-2.392.648-4.055 2.369-4.814 5.002-.23.764-.258 1.75-.3 8.84-.072 9.016-.015 9.693.873 11.605 1.175 2.545 3.339 3.795 6.605 3.795 2.45 0 4.041-.603 5.359-2.044.86-.927 1.375-1.957 1.748-3.427.258-1.03.272-1.677.272-9.209 0-8.913-.043-9.355-.859-11.076-.86-1.78-2.307-2.986-4.227-3.5-1.075-.28-3.597-.28-4.657.014Zm3.582 4.62c.215.16.516.543.659.837.258.53.273 1.045.273 9.09 0 8.341 0 8.547-.301 9.047-.473.853-1.132 1.22-2.035 1.147-.645-.058-.845-.147-1.246-.573-.917-.942-.946-1.31-.903-10.09.043-7.547.057-7.782.344-8.43.344-.764.716-1.132 1.29-1.323.572-.191 1.446-.044 1.919.294Z" fill="#000" fill-opacity=".2"/><path d="M133.334 36.356c-2.422.69-4.127 2.618-4.671 5.295-.459 2.206-.158 4.751.759 6.693.673 1.412 2.164 2.956 4.184 4.339 2.636 1.81 3.41 2.927 3.539 5.119.143 2.324-.573 3.706-1.949 3.706-1.476 0-2.077-1-2.092-3.53 0-.897.043-1.794.115-2.03l.1-.397h-4.699l-.158.736c-.258 1.22-.2 3.486.129 4.78.358 1.427.788 2.207 1.719 3.06 1.963 1.809 6.061 2.044 8.626.5 1.39-.839 2.579-2.633 2.966-4.486.229-1.118.186-3.751-.072-4.884-.115-.53-.444-1.456-.745-2.06-.673-1.426-2.278-3.103-4.327-4.515-1.519-1.06-2.522-2-2.909-2.795-.401-.78-.558-2.191-.386-3.28.257-1.589.902-2.383 1.934-2.383 1.375 0 2.049 1.604 1.905 4.516l-.071 1.397h4.656l.086-.456c.158-.838.086-3.868-.114-4.868-.444-2.104-1.562-3.604-3.21-4.252-1.074-.426-4.126-.544-5.315-.205Z" fill="#1C1C1C"/><path d="M133.334 36.356c-2.422.69-4.127 2.618-4.671 5.295-.459 2.206-.158 4.751.759 6.693.673 1.412 2.164 2.956 4.184 4.339 2.636 1.81 3.41 2.927 3.539 5.119.143 2.324-.573 3.706-1.949 3.706-1.476 0-2.077-1-2.092-3.53 0-.897.043-1.794.115-2.03l.1-.397h-4.699l-.158.736c-.258 1.22-.2 3.486.129 4.78.358 1.427.788 2.207 1.719 3.06 1.963 1.809 6.061 2.044 8.626.5 1.39-.839 2.579-2.633 2.966-4.486.229-1.118.186-3.751-.072-4.884-.115-.53-.444-1.456-.745-2.06-.673-1.426-2.278-3.103-4.327-4.515-1.519-1.06-2.522-2-2.909-2.795-.401-.78-.558-2.191-.386-3.28.257-1.589.902-2.383 1.934-2.383 1.375 0 2.049 1.604 1.905 4.516l-.071 1.397h4.656l.086-.456c.158-.838.086-3.868-.114-4.868-.444-2.104-1.562-3.604-3.21-4.252-1.074-.426-4.126-.544-5.315-.205Z" fill="#000" fill-opacity=".2"/><path d="M133.334 36.356c-2.422.69-4.127 2.618-4.671 5.295-.459 2.206-.158 4.751.759 6.693.673 1.412 2.164 2.956 4.184 4.339 2.636 1.81 3.41 2.927 3.539 5.119.143 2.324-.573 3.706-1.949 3.706-1.476 0-2.077-1-2.092-3.53 0-.897.043-1.794.115-2.03l.1-.397h-4.699l-.158.736c-.258 1.22-.2 3.486.129 4.78.358 1.427.788 2.207 1.719 3.06 1.963 1.809 6.061 2.044 8.626.5 1.39-.839 2.579-2.633 2.966-4.486.229-1.118.186-3.751-.072-4.884-.115-.53-.444-1.456-.745-2.06-.673-1.426-2.278-3.103-4.327-4.515-1.519-1.06-2.522-2-2.909-2.795-.401-.78-.558-2.191-.386-3.28.257-1.589.902-2.383 1.934-2.383 1.375 0 2.049 1.604 1.905 4.516l-.071 1.397h4.656l.086-.456c.158-.838.086-3.868-.114-4.868-.444-2.104-1.562-3.604-3.21-4.252-1.074-.426-4.126-.544-5.315-.205Z" fill="#000" fill-opacity=".2"/><path d="M133.334 36.356c-2.422.69-4.127 2.618-4.671 5.295-.459 2.206-.158 4.751.759 6.693.673 1.412 2.164 2.956 4.184 4.339 2.636 1.81 3.41 2.927 3.539 5.119.143 2.324-.573 3.706-1.949 3.706-1.476 0-2.077-1-2.092-3.53 0-.897.043-1.794.115-2.03l.1-.397h-4.699l-.158.736c-.258 1.22-.2 3.486.129 4.78.358 1.427.788 2.207 1.719 3.06 1.963 1.809 6.061 2.044 8.626.5 1.39-.839 2.579-2.633 2.966-4.486.229-1.118.186-3.751-.072-4.884-.115-.53-.444-1.456-.745-2.06-.673-1.426-2.278-3.103-4.327-4.515-1.519-1.06-2.522-2-2.909-2.795-.401-.78-.558-2.191-.386-3.28.257-1.589.902-2.383 1.934-2.383 1.375 0 2.049 1.604 1.905 4.516l-.071 1.397h4.656l.086-.456c.158-.838.086-3.868-.114-4.868-.444-2.104-1.562-3.604-3.21-4.252-1.074-.426-4.126-.544-5.315-.205Z" fill="#000" fill-opacity=".2"/><path d="M57.666 50.932V65.29l4.055-.074c3.138-.059 4.227-.118 4.9-.309 2.421-.691 3.84-1.97 4.685-4.295.315-.853.33-.985.373-9.267.028-7.192.014-8.56-.187-9.399-.616-2.765-2.292-4.5-4.971-5.148-.688-.162-1.863-.22-4.872-.22h-3.983v14.355Zm7.766-9.752c.4.22.659.544.945 1.118l.387.824.043 7.325c.029 6.237.014 7.458-.186 8.223-.401 1.632-1.089 2.177-2.894 2.294l-1.046.074V40.65l1.103.103c.716.073 1.304.22 1.648.426Z" fill="#1C1C1C"/><path d="M57.666 50.932V65.29l4.055-.074c3.138-.059 4.227-.118 4.9-.309 2.421-.691 3.84-1.97 4.685-4.295.315-.853.33-.985.373-9.267.028-7.192.014-8.56-.187-9.399-.616-2.765-2.292-4.5-4.971-5.148-.688-.162-1.863-.22-4.872-.22h-3.983v14.355Zm7.766-9.752c.4.22.659.544.945 1.118l.387.824.043 7.325c.029 6.237.014 7.458-.186 8.223-.401 1.632-1.089 2.177-2.894 2.294l-1.046.074V40.65l1.103.103c.716.073 1.304.22 1.648.426Z" fill="#000" fill-opacity=".2"/><path d="M57.666 50.932V65.29l4.055-.074c3.138-.059 4.227-.118 4.9-.309 2.421-.691 3.84-1.97 4.685-4.295.315-.853.33-.985.373-9.267.028-7.192.014-8.56-.187-9.399-.616-2.765-2.292-4.5-4.971-5.148-.688-.162-1.863-.22-4.872-.22h-3.983v14.355Zm7.766-9.752c.4.22.659.544.945 1.118l.387.824.043 7.325c.029 6.237.014 7.458-.186 8.223-.401 1.632-1.089 2.177-2.894 2.294l-1.046.074V40.65l1.103.103c.716.073 1.304.22 1.648.426Z" fill="#000" fill-opacity=".2"/><path d="M57.666 50.932V65.29l4.055-.074c3.138-.059 4.227-.118 4.9-.309 2.421-.691 3.84-1.97 4.685-4.295.315-.853.33-.985.373-9.267.028-7.192.014-8.56-.187-9.399-.616-2.765-2.292-4.5-4.971-5.148-.688-.162-1.863-.22-4.872-.22h-3.983v14.355Zm7.766-9.752c.4.22.659.544.945 1.118l.387.824.043 7.325c.029 6.237.014 7.458-.186 8.223-.401 1.632-1.089 2.177-2.894 2.294l-1.046.074V40.65l1.103.103c.716.073 1.304.22 1.648.426Z" fill="#000" fill-opacity=".2"/><path d="M111.396 50.918v14.341h4.729V55.257l1.189.015c.645 0 1.404.073 1.676.176.831.294 1.061.986 1.906 5.62l.745 4.118 2.55.044c1.619.015 2.536-.015 2.536-.118 0-.382-1.619-8.575-1.862-9.414-.33-1.132-.975-2-1.763-2.353-.487-.22-.53-.28-.272-.353.401-.133 1.519-1.398 1.877-2.118.588-1.192.731-2.25.731-5.693 0-3.486-.115-4.295-.774-5.633-.415-.839-1.375-1.795-2.192-2.222-1.261-.647-2.135-.75-6.734-.75h-4.342v14.342Zm7.867-9.811c.329.162.644.5.874.912.343.647.358.735.358 3.75 0 2.884-.015 3.134-.301 3.678-.588 1.103-1.204 1.397-2.937 1.397h-1.132V40.651l1.318.103c.788.044 1.519.19 1.82.353Z" fill="#1C1C1C"/><path d="M111.396 50.918v14.341h4.729V55.257l1.189.015c.645 0 1.404.073 1.676.176.831.294 1.061.986 1.906 5.62l.745 4.118 2.55.044c1.619.015 2.536-.015 2.536-.118 0-.382-1.619-8.575-1.862-9.414-.33-1.132-.975-2-1.763-2.353-.487-.22-.53-.28-.272-.353.401-.133 1.519-1.398 1.877-2.118.588-1.192.731-2.25.731-5.693 0-3.486-.115-4.295-.774-5.633-.415-.839-1.375-1.795-2.192-2.222-1.261-.647-2.135-.75-6.734-.75h-4.342v14.342Zm7.867-9.811c.329.162.644.5.874.912.343.647.358.735.358 3.75 0 2.884-.015 3.134-.301 3.678-.588 1.103-1.204 1.397-2.937 1.397h-1.132V40.651l1.318.103c.788.044 1.519.19 1.82.353Z" fill="#000" fill-opacity=".2"/><path d="M111.396 50.918v14.341h4.729V55.257l1.189.015c.645 0 1.404.073 1.676.176.831.294 1.061.986 1.906 5.62l.745 4.118 2.55.044c1.619.015 2.536-.015 2.536-.118 0-.382-1.619-8.575-1.862-9.414-.33-1.132-.975-2-1.763-2.353-.487-.22-.53-.28-.272-.353.401-.133 1.519-1.398 1.877-2.118.588-1.192.731-2.25.731-5.693 0-3.486-.115-4.295-.774-5.633-.415-.839-1.375-1.795-2.192-2.222-1.261-.647-2.135-.75-6.734-.75h-4.342v14.342Zm7.867-9.811c.329.162.644.5.874.912.343.647.358.735.358 3.75 0 2.884-.015 3.134-.301 3.678-.588 1.103-1.204 1.397-2.937 1.397h-1.132V40.651l1.318.103c.788.044 1.519.19 1.82.353Z" fill="#000" fill-opacity=".2"/><path d="M111.396 50.918v14.341h4.729V55.257l1.189.015c.645 0 1.404.073 1.676.176.831.294 1.061.986 1.906 5.62l.745 4.118 2.55.044c1.619.015 2.536-.015 2.536-.118 0-.382-1.619-8.575-1.862-9.414-.33-1.132-.975-2-1.763-2.353-.487-.22-.53-.28-.272-.353.401-.133 1.519-1.398 1.877-2.118.588-1.192.731-2.25.731-5.693 0-3.486-.115-4.295-.774-5.633-.415-.839-1.375-1.795-2.192-2.222-1.261-.647-2.135-.75-6.734-.75h-4.342v14.342Zm7.867-9.811c.329.162.644.5.874.912.343.647.358.735.358 3.75 0 2.884-.015 3.134-.301 3.678-.588 1.103-1.204 1.397-2.937 1.397h-1.132V40.651l1.318.103c.788.044 1.519.19 1.82.353Z" fill="#000" fill-opacity=".2"/></g><defs><clipPath id="a"><path fill="#fff" d="M0 0h142.836v66H0z"/></clipPath></defs></svg>