<svg width="76" height="66" fill="none" xmlns="http://www.w3.org/2000/svg"><g clip-path="url(#a)"><path d="M37.64 56.975c14.102 0 25.533-11.383 25.533-25.425 0-14.041-11.431-25.424-25.533-25.424-14.101 0-25.533 11.383-25.533 25.424 0 14.042 11.432 25.425 25.533 25.425Z" fill="#E8F5E1"/><path fill-rule="evenodd" clip-rule="evenodd" d="M16.527 45.732a14.387 14.387 0 0 1-.703-1.532 8.966 8.966 0 0 1-.245-.654l-.084-.255a15.112 15.112 0 0 1 .483-10.539 14.834 14.834 0 0 1 6.699-7.308 15.02 15.02 0 0 1 5.013-1.649c1.936 5.89-1.439 13.141-8.227 17.67a21.749 21.749 0 0 0 2.02-.956c6.736-3.618 10.724-10.156 10.872-16.648a15.787 15.787 0 0 0-.083-2.206 16.02 16.02 0 0 0-9.68 1.767 15.722 15.722 0 0 0-7.318 8.242 16.009 16.009 0 0 0-.173 11.09c.065.183.136.367.213.55.039.104.084.216.13.32.09.21.18.426.283.655.103.23.239.49.368.733.129.242.284.497.432.72Zm-5.552.013a10.438 10.438 0 0 0-.87-.157 3.617 3.617 0 0 0-.375-.04h-.477a7.913 7.913 0 0 0-5.012 1.606 8.106 8.106 0 0 0-2.944 4.415 7.88 7.88 0 0 0-.194 2.788c3.284.223 6.601-2.467 8.046-6.544-.058.386-.135.779-.232 1.165a10.676 10.676 0 0 1-2.551 4.848 10.458 10.458 0 0 1-4.598 2.907 8.39 8.39 0 0 1-1.155.242 8.298 8.298 0 0 1-.355-5.183 8.6 8.6 0 0 1 3.357-4.88 8.387 8.387 0 0 1 5.676-1.5l.317.032h.18l.361.059c.149 0 .29.059.433.098.142.04.258.105.393.144Z" fill="#5BC029"/><path d="m59.847 57.616.329-.163c-22.978 11.295-35.148 3.108-41.89-8.338-8.924-15.084-5.375-34.652 9.653-43.448 15.028-8.795 34.05-4.325 42.767 9.856l-.348-.57C61.034-.064 40.47-4.41 24.009 5.243 7.968 14.627 2.645 34.986 12.911 51.092c5.162 8.088 14.795 13.743 25.81 13.743 6.775 0 14.067-2.16 21.126-7.245" fill="#5BC029"/><path d="M70.219 14.476A35.898 35.898 0 0 0 59.1 4.45a30.865 30.865 0 0 0-8.614-3.037C48.099.955 46.292.635 45.86.59a37.088 37.088 0 0 0-11.408.49l-3.62 2.488L27.2 6.119l.768-.452a15.19 15.19 0 0 1 2.517-1.02 22.32 22.32 0 0 1 3-.766 35.363 35.363 0 0 1 3.226-.439c.884-.052 1.568-.046 1.781-.046.736 0 1.29.06 2.175.131.594.046.942.079 1.445.144.22 0 .807.112 1.568.262.4.079.736.157.994.216.626.149 1.244.33 1.852.543.761.269 1.594.609 2.484 1.021.89.412 1.833.89 2.794 1.453a42.186 42.186 0 0 1 2.942 1.891c1.008.72 1.98 1.49 2.91 2.31a35.53 35.53 0 0 1 2.743 2.677 36.9 36.9 0 0 1 2.42 2.945c.355.523.729 1.014 1.051 1.544l.497.799c.148.268.303.523.452.785a31.532 31.532 0 0 1 1.529 3.063c.207.504.4.995.594 1.466l.484 1.394c.129.458.258.89.38 1.309.123.418.194.818.29 1.184.098.367.162.727.22 1.054.058.327.116.654.168.89.155 1.086.232 1.701.232 1.701s-.129-.608-.368-1.675c-.064-.262-.148-.556-.232-.877a14.2 14.2 0 0 0-.297-1.014c-.122-.36-.232-.753-.374-1.152-.142-.4-.31-.812-.478-1.25-.167-.439-.374-.87-.574-1.309l-.684-1.394a31.655 31.655 0 0 0-1.723-2.853l-.49-.727-.529-.706c-.368-.544-.748-.989-1.13-1.46a33.43 33.43 0 0 0-2.529-2.617 32.73 32.73 0 0 0-2.8-2.357 32.217 32.217 0 0 0-2.942-1.963A31.446 31.446 0 0 0 50.68 9.26a36.721 36.721 0 0 0-2.69-1.145 24.625 24.625 0 0 0-2.33-.753 23.42 23.42 0 0 0-1.49-.36c0 6.676.645 19.149 4.89 25.477 5.956 8.9 21.23 9.378 23.63 16.839 4.568-13.265 3.4-26.491-2.471-34.842Z" fill="#5BC029"/></g><defs><clipPath id="a"><path fill="#fff" d="M0 0h75.659v66H0z"/></clipPath></defs></svg>