<svg width="134" height="40" fill="none" xmlns="http://www.w3.org/2000/svg"><path d="M133 7.72a.65.65 0 1 0 0-1.3v1.3ZM127.46.54a.65.65 0 0 0-.92.92l.92-.92ZM133 7l.46.46a.65.65 0 0 0 0-.92L133 7Zm-6.46 5.54a.651.651 0 0 0 .92.92l-.92-.92ZM1 7.72h132v-1.3H1v1.3Zm125.54-6.26 6 6 .92-.92-6-6-.92.92Zm6 5.08-6 6 .92.92 6-6-.92-.92Z" fill="#1C1C1C"/><path d="M133 7.72a.65.65 0 1 0 0-1.3v1.3ZM127.46.54a.65.65 0 0 0-.92.92l.92-.92ZM133 7l.46.46a.65.65 0 0 0 0-.92L133 7Zm-6.46 5.54a.651.651 0 0 0 .92.92l-.92-.92ZM1 7.72h132v-1.3H1v1.3Zm125.54-6.26 6 6 .92-.92-6-6-.92.92Zm6 5.08-6 6 .92.92 6-6-.92-.92Z" fill="#000" fill-opacity=".2"/><path d="M133 7.72a.65.65 0 1 0 0-1.3v1.3ZM127.46.54a.65.65 0 0 0-.92.92l.92-.92ZM133 7l.46.46a.65.65 0 0 0 0-.92L133 7Zm-6.46 5.54a.651.651 0 0 0 .92.92l-.92-.92ZM1 7.72h132v-1.3H1v1.3Zm125.54-6.26 6 6 .92-.92-6-6-.92.92Zm6 5.08-6 6 .92.92 6-6-.92-.92Z" fill="#000" fill-opacity=".2"/><path d="M133 7.72a.65.65 0 1 0 0-1.3v1.3ZM127.46.54a.65.65 0 0 0-.92.92l.92-.92ZM133 7l.46.46a.65.65 0 0 0 0-.92L133 7Zm-6.46 5.54a.651.651 0 0 0 .92.92l-.92-.92ZM1 7.72h132v-1.3H1v1.3Zm125.54-6.26 6 6 .92-.92-6-6-.92.92Zm6 5.08-6 6 .92.92 6-6-.92-.92Z" fill="#000" fill-opacity=".2"/><path stroke="#1C1C1C" stroke-width="1.3" d="M1.65 7v33"/><path stroke="#000" stroke-opacity=".2" stroke-width="1.3" d="M1.65 7v33m0-33v33m0-33v33"/></svg>