<svg width="70" height="70" fill="none" xmlns="http://www.w3.org/2000/svg"><g fill="#F1CF57" clip-path="url(#a)"><path d="M39.238 22.832h-8.476v8.203h8.476a4.107 4.107 0 0 0 4.102-4.102 4.107 4.107 0 0 0-4.102-4.101Z"/><path d="M59.746 0H10.254C4.6 0 0 4.6 0 10.254v49.492C0 65.4 4.6 70 10.254 70h49.492C65.4 70 70 65.4 70 59.746V10.254C70 4.6 65.4 0 59.746 0ZM39.238 39.238h-8.476v14.356a2.05 2.05 0 0 1-2.051 2.05h-4.102a2.05 2.05 0 0 1-2.05-2.05V16.68a2.05 2.05 0 0 1 2.05-2.051h14.63c6.785 0 12.304 5.52 12.304 12.304 0 6.786-5.52 12.305-12.305 12.305Z"/></g><defs><clipPath id="a"><path fill="#fff" d="M0 0h70v70H0z"/></clipPath></defs></svg>