<svg width="25" height="24" fill="none" xmlns="http://www.w3.org/2000/svg"><path d="M21.88 17.164a5.274 5.274 0 0 1-5.24 4.586c-7.443 0-13.5-6.056-13.5-13.5a5.274 5.274 0 0 1 4.588-5.24 1.5 1.5 0 0 1 1.558.893l1.98 4.42v.011a1.5 1.5 0 0 1-.12 1.415.989.989 0 0 1-.053.072l-1.951 2.314c.702 1.427 2.194 2.906 3.64 3.61l2.282-1.941a1.501 1.501 0 0 1 1.492-.184l.012.005 4.417 1.98a1.5 1.5 0 0 1 .895 1.558Z" fill="#1C1C1C"/><path d="M21.88 17.164a5.274 5.274 0 0 1-5.24 4.586c-7.443 0-13.5-6.056-13.5-13.5a5.274 5.274 0 0 1 4.588-5.24 1.5 1.5 0 0 1 1.558.893l1.98 4.42v.011a1.5 1.5 0 0 1-.12 1.415.989.989 0 0 1-.053.072l-1.951 2.314c.702 1.427 2.194 2.906 3.64 3.61l2.282-1.941a1.501 1.501 0 0 1 1.492-.184l.012.005 4.417 1.98a1.5 1.5 0 0 1 .895 1.558Z" fill="#000" fill-opacity=".2"/><path d="M21.88 17.164a5.274 5.274 0 0 1-5.24 4.586c-7.443 0-13.5-6.056-13.5-13.5a5.274 5.274 0 0 1 4.588-5.24 1.5 1.5 0 0 1 1.558.893l1.98 4.42v.011a1.5 1.5 0 0 1-.12 1.415.989.989 0 0 1-.053.072l-1.951 2.314c.702 1.427 2.194 2.906 3.64 3.61l2.282-1.941a1.501 1.501 0 0 1 1.492-.184l.012.005 4.417 1.98a1.5 1.5 0 0 1 .895 1.558Z" fill="#000" fill-opacity=".2"/><path d="M21.88 17.164a5.274 5.274 0 0 1-5.24 4.586c-7.443 0-13.5-6.056-13.5-13.5a5.274 5.274 0 0 1 4.588-5.24 1.5 1.5 0 0 1 1.558.893l1.98 4.42v.011a1.5 1.5 0 0 1-.12 1.415.989.989 0 0 1-.053.072l-1.951 2.314c.702 1.427 2.194 2.906 3.64 3.61l2.282-1.941a1.501 1.501 0 0 1 1.492-.184l.012.005 4.417 1.98a1.5 1.5 0 0 1 .895 1.558Z" fill="#000" fill-opacity=".2"/></svg>