<svg width="70" height="70" fill="none" xmlns="http://www.w3.org/2000/svg"><g fill="#F1CF57" clip-path="url(#a)"><path d="M35 0C22.7 0 12.441 9.908 12.441 22.558c0 4.813 1.447 9.105 4.222 13.126l16.61 25.92c.806 1.26 2.65 1.257 3.453 0L53.41 35.595a22.459 22.459 0 0 0 4.15-13.037C57.559 10.118 47.439 0 35 0Zm0 32.812c-5.654 0-10.254-4.6-10.254-10.253 0-5.654 4.6-10.254 10.254-10.254s10.254 4.6 10.254 10.253c0 5.654-4.6 10.254-10.254 10.254Z"/><path d="M51.032 47.126 40.706 63.271c-2.673 4.167-8.754 4.154-11.414.004L18.95 47.13c-9.1 2.104-14.71 5.959-14.71 10.565C4.238 65.688 20.087 70 35 70c14.912 0 30.762-4.312 30.762-12.305 0-4.61-5.618-8.466-14.73-10.569Z"/></g><defs><clipPath id="a"><path fill="#fff" d="M0 0h70v70H0z"/></clipPath></defs></svg>