<svg width="160" height="58" fill="none" xmlns="http://www.w3.org/2000/svg"><g style="mix-blend-mode:luminosity" clip-path="url(#a)"><path d="M8.447 46.742c1.852-1.848 5.816-4.555 9.272-5.528 5.464 3.978 12.53 6.074 20.39 6.074 7.223 0 12.325-2.069 17.005-4.59l.904.566c-4.89 4.7-14.346 8.288-22.862 8.28-9.282-.008-16.941-1.575-24.709-4.802Z" fill="url(#b)"/><path d="M18.67 32.7c-1.146 3.641-3.508 5.711-8.446 5.711-2.04 0-4.198-.373-5.117-.642.125.798.203 1.676.045 2.905l-.508 3.95c-.056.407-.386.608-.732.455-.685-.302-2.233-1.076-2.795-1.465-.242-.168-.43-.28-.391-.566l2.593-20.305c.215-1.712.68-2.284 2.434-2.854 2.11-.714 4.937-1.142 7.3-1.142 2.612 0 4.258.606 5.295 1.713 1.11 1.177 1.431 2.855 1.431 5.103-.001 2.284-.394 4.961-1.11 7.138Zm-3.758-9.992c-.644-.82-1.682-.964-3.15-.964-1.789 0-4.365.679-4.365.679L5.86 35.02s1.574.5 3.937.5c2.862 0 4.293-.964 5.08-4.175.43-1.714.716-3.677.716-5.46 0-1.572-.216-2.535-.68-3.178Zm21.274-1.146c-.036.285-.11.58-.537.535-2.5-.265-5.589-.098-7.356.434l-1.86 14.882c-.036.321-.25.535-.573.535h-2.97c-.108 0-.501-.178-.501-.5v-.035l1.896-15.204c.179-1.463.823-1.891 2.434-2.427 1.61-.57 4.736-.999 6.19-.999 1.453 0 2.92.138 3.24.21.108.035.323.106.323.428 0 .035-.286 2.141-.286 2.141Zm6.141 15.85a.59.59 0 0 1-.608.535h-2.935c-.322 0-.5-.178-.5-.463v-.071l2.146-17.488c.036-.285.322-.5.644-.5h2.934c.287 0 .465.178.465.428v.072l-2.146 17.487Zm2.648-21.627c-.072.464-.358.714-.823.714h-2.54c-.43 0-.644-.178-.644-.571v-.143l.318-2.824c.07-.465.357-.714.858-.714h2.54c.43 0 .645.214.645.571v.143l-.354 2.824Zm19.858 15.81c-.966 3.961-3.15 6.816-9.41 6.816-3.078 0-4.974-.678-6.12-1.856-1.215-1.213-1.61-2.962-1.61-4.996 0-2.106.323-4.461.86-6.424 1.037-3.748 3.291-6.388 9.302-6.388 3.15 0 5.082.714 6.227 1.927 1.144 1.249 1.502 2.962 1.502 4.996 0 1.928-.323 4.07-.751 5.925Zm-4.115-8.851c-.572-.714-1.575-1.07-3.22-1.07-3.22 0-4.33 1.391-4.902 3.853-.43 1.892-.752 4.319-.752 6.21 0 1.285.215 2.284.93 2.927.609.536 1.538.82 3.006.82 3.543 0 4.545-1.677 5.081-4.675.25-1.57.573-3.64.573-5.174 0-1.25-.144-2.213-.716-2.891Zm3.155-5.784c0-.387.13-.712.39-.974s.585-.393.974-.393c.381 0 .702.13.964.39.262.259.393.578.393.956 0 .38-.131.7-.393.962a1.309 1.309 0 0 1-.964.392 1.33 1.33 0 0 1-.96-.389 1.262 1.262 0 0 1-.404-.944Zm.248-.047c0 .334.101.612.304.835.21.23.481.346.812.346.322 0 .587-.113.8-.338a1.15 1.15 0 0 0 .31-.817 1.14 1.14 0 0 0-.31-.813 1.055 1.055 0 0 0-.8-.334c-.312 0-.577.108-.793.326a1.088 1.088 0 0 0-.323.795Zm.588.816V16.15h.612c.37 0 .554.15.554.448 0 .248-.139.392-.417.434l.452.696h-.263l-.43-.679h-.261v.679h-.247Zm.247-1.378v.502h.256a.82.82 0 0 0 .285-.035c.088-.038.131-.113.131-.226 0-.16-.115-.241-.346-.241h-.326Zm31.452 6.668v-.1c.963-.176 1.545-.86 1.545-1.718 0-.76-.48-2.021-2.886-2.021h-4.612v7.678h4.535c.938 0 3.166-.1 3.166-2.02 0-1.237-.964-1.718-1.748-1.82Zm-2.255 2.3h-.912v-1.616h.912c.379.024.913.151.913.756 0 .28-.077.808-.913.86Zm0-3.082c-.077.025-.153.025-.227.025h-.685V20.72h.912c.66.052.913.405.913.758 0 .177-.077.682-.913.759Zm-16.678-.354h-2V19.18h-2.887v7.678h2.887V23.98h2v2.878h2.99V19.18h-2.99v2.703Zm7.939-2.88h-.049c-2.683 0-4.23 1.516-4.23 4.016 0 2.402 1.546 3.942 4.23 3.942h.049c2.763-.025 4.283-1.566 4.283-3.942-.001-2.475-1.52-4.016-4.283-4.016Zm0 6.115-.049.025c-1.063 0-1.143-1.365-1.143-2.124 0-.756.08-2.096 1.143-2.096h.049c1.115.026 1.194 1.34 1.194 2.096 0 .758-.079 2.073-1.194 2.099Zm40.693-2.099v-.1c.963-.176 1.649-.86 1.649-1.718 0-.76-.48-2.021-2.885-2.021h-4.615v7.678h4.412c.958 0 3.164-.1 3.164-2.02-.001-1.237-.961-1.718-1.725-1.82Zm-2.152 2.3h-.912v-1.616h.912c.354.024.915.151.915.756 0 .28-.181.783-.915.86Zm0-3.082c-.076.025-.151.025-.252.025h-.66V20.72h.912c.656.052.915.405.915.758 0 .177-.105.682-.915.759Zm21.485 2.602v-5.66h-6.814v2.4c0 .96 0 2.198-1.063 3.26h-.557v3.739h2.86v-1.72h3.47v1.72h2.99v-3.74h-.886Zm-2.861 0h-2.128c.682-.86.759-1.719.759-2.78v-.96h1.368l.001 3.74Zm-9.962-5.836h-.054c-2.683 0-4.229 1.516-4.229 4.016 0 2.402 1.546 3.942 4.229 3.942h.054c2.76-.025 4.278-1.566 4.278-3.942 0-2.475-1.518-4.016-4.278-4.016Zm0 6.115-.054.025c-1.064 0-1.165-1.365-1.165-2.124 0-.756.1-2.096 1.165-2.096h.054c1.085.026 1.19 1.34 1.19 2.096 0 .758-.105 2.073-1.19 2.099Zm-21.021-5.938c-1.14 0-3.168.1-3.168 2.021 0 1.136.862 1.818 1.825 2.021-.48.077-1.24.379-1.544 1.44l-.48 2.197h3.09l.277-1.92c.074-.555.48-.706.759-.757h.889v2.677h2.962v-7.68h-4.61Zm.961 1.743h.763v1.617h-.965c-.379-.05-.936-.203-.936-.858 0-.632.582-.759.936-.759h.202Zm41.042-1.743h-4.03l-2.684 7.678h2.968l.477-1.64h2.308l.583 1.64h3.064l-.483-1.363-2.203-6.316Zm-2.054 4.22h-.834l.785-2.402h.079l.785 2.401h-.815Zm-48.64-4.22h-1.951l-2.71 7.678h2.989l.48-1.64h2.305l.58 1.64h3.063l-2.683-7.678h-2.073Zm0 4.22h-.812l.76-2.402.052.153.835 2.249h-.835Zm53.144-2.939c0-.387.131-.712.391-.974.261-.262.584-.393.974-.393.38 0 .702.13.963.389.262.26.393.578.393.957 0 .38-.131.7-.393.961a1.31 1.31 0 0 1-.963.393c-.373 0-.694-.13-.962-.389a1.264 1.264 0 0 1-.403-.944Zm.248-.047c0 .333.102.612.305.835.211.23.481.346.812.346.321 0 .587-.113.799-.338a1.15 1.15 0 0 0 .311-.817c0-.322-.104-.593-.311-.813a1.056 1.056 0 0 0-.799-.334c-.313 0-.578.108-.794.325a1.094 1.094 0 0 0-.323.796Zm.588.816v-1.578h.612c.37 0 .555.15.555.448 0 .248-.139.393-.418.434l.453.696h-.263l-.431-.679h-.26v.679h-.248Zm.248-1.378v.501h.256c.134 0 .23-.011.285-.035.087-.037.131-.112.131-.225 0-.16-.115-.241-.346-.241h-.326Z" fill="#36333C"/></g><defs><linearGradient id="b" x1="14.08" y1="39.951" x2="57.687" y2="54.176" gradientUnits="userSpaceOnUse"><stop stop-color="#00BCF1"/><stop offset="1" stop-color="#293895"/></linearGradient><clipPath id="a"><path fill="#fff" transform="translate(.111 .2)" d="M0 0h159.777v57.6H0z"/></clipPath></defs></svg>