<svg width="132" height="46" fill="none" xmlns="http://www.w3.org/2000/svg"><g clip-path="url(#a)"><path d="M84.083.604c-2.007.388-3.348 1.785-3.785 3.937-.13.632-.139 1.652-.12 6.517l.03 5.772.279.806c.785 2.274 2.315 3.325 4.838 3.325 2.593 0 4.132-1.122 4.927-3.57.17-.51.189-1.07.219-6.262.03-4.967.01-5.813-.13-6.527-.387-1.979-1.48-3.315-3.129-3.845-.804-.255-2.245-.326-3.129-.153Zm2.007 3.223c.178.102.417.398.546.632l.229.439v11.728l-.229.439c-.477.907-1.6 1.07-2.315.336-.576-.591-.596-.805-.566-6.955L83.785 5l.248-.51c.398-.816 1.332-1.122 2.057-.663Z" fill="#1C1C1C"/><path d="M84.083.604c-2.007.388-3.348 1.785-3.785 3.937-.13.632-.139 1.652-.12 6.517l.03 5.772.279.806c.785 2.274 2.315 3.325 4.838 3.325 2.593 0 4.132-1.122 4.927-3.57.17-.51.189-1.07.219-6.262.03-4.967.01-5.813-.13-6.527-.387-1.979-1.48-3.315-3.129-3.845-.804-.255-2.245-.326-3.129-.153Zm2.007 3.223c.178.102.417.398.546.632l.229.439v11.728l-.229.439c-.477.907-1.6 1.07-2.315.336-.576-.591-.596-.805-.566-6.955L83.785 5l.248-.51c.398-.816 1.332-1.122 2.057-.663Z" fill="#000" fill-opacity=".2"/><path d="M84.083.604c-2.007.388-3.348 1.785-3.785 3.937-.13.632-.139 1.652-.12 6.517l.03 5.772.279.806c.785 2.274 2.315 3.325 4.838 3.325 2.593 0 4.132-1.122 4.927-3.57.17-.51.189-1.07.219-6.262.03-4.967.01-5.813-.13-6.527-.387-1.979-1.48-3.315-3.129-3.845-.804-.255-2.245-.326-3.129-.153Zm2.007 3.223c.178.102.417.398.546.632l.229.439v11.728l-.229.439c-.477.907-1.6 1.07-2.315.336-.576-.591-.596-.805-.566-6.955L83.785 5l.248-.51c.398-.816 1.332-1.122 2.057-.663Z" fill="#000" fill-opacity=".2"/><path d="M84.083.604c-2.007.388-3.348 1.785-3.785 3.937-.13.632-.139 1.652-.12 6.517l.03 5.772.279.806c.785 2.274 2.315 3.325 4.838 3.325 2.593 0 4.132-1.122 4.927-3.57.17-.51.189-1.07.219-6.262.03-4.967.01-5.813-.13-6.527-.387-1.979-1.48-3.315-3.129-3.845-.804-.255-2.245-.326-3.129-.153Zm2.007 3.223c.178.102.417.398.546.632l.229.439v11.728l-.229.439c-.477.907-1.6 1.07-2.315.336-.576-.591-.596-.805-.566-6.955L83.785 5l.248-.51c.398-.816 1.332-1.122 2.057-.663Z" fill="#000" fill-opacity=".2"/><path d="M16.577 23v22.233h18.826l4.6-5.12 4.589-5.12V10.997l-4.59-5.12-4.6-5.11H16.578V23Zm18.756 10.974-.03 10.963-4.49-4.977-4.49-4.977V11.017l4.49-4.988 4.49-4.977.03 10.974c.01 6.038.01 15.91 0 21.948Z" fill="#1C1C1C"/><path d="M16.577 23v22.233h18.826l4.6-5.12 4.589-5.12V10.997l-4.59-5.12-4.6-5.11H16.578V23Zm18.756 10.974-.03 10.963-4.49-4.977-4.49-4.977V11.017l4.49-4.988 4.49-4.977.03 10.974c.01 6.038.01 15.91 0 21.948Z" fill="#000" fill-opacity=".2"/><path d="M16.577 23v22.233h18.826l4.6-5.12 4.589-5.12V10.997l-4.59-5.12-4.6-5.11H16.578V23Zm18.756 10.974-.03 10.963-4.49-4.977-4.49-4.977V11.017l4.49-4.988 4.49-4.977.03 10.974c.01 6.038.01 15.91 0 21.948Z" fill="#000" fill-opacity=".2"/><path d="M16.577 23v22.233h18.826l4.6-5.12 4.589-5.12V10.997l-4.59-5.12-4.6-5.11H16.578V23Zm18.756 10.974-.03 10.963-4.49-4.977-4.49-4.977V11.017l4.49-4.988 4.49-4.977.03 10.974c.01 6.038.01 15.91 0 21.948Z" fill="#000" fill-opacity=".2"/><path d="M56.413 10.701v9.954h3.278v-6.629h1.282c.695 0 1.49-.041 1.758-.092 1.788-.347 2.871-1.377 3.269-3.08.208-.928.208-5.874 0-6.802-.378-1.622-1.272-2.601-2.782-3.04C62.731.87 62.026.83 59.522.798l-3.109-.05V10.7Zm5.464-6.71c.218.122.437.387.596.703.238.5.248.56.248 2.754 0 2.152-.01 2.264-.238 2.733-.328.693-.735.887-1.897.887h-.895V3.705l.924.04c.686.031 1.014.092 1.262.245Z" fill="#1C1C1C"/><path d="M56.413 10.701v9.954h3.278v-6.629h1.282c.695 0 1.49-.041 1.758-.092 1.788-.347 2.871-1.377 3.269-3.08.208-.928.208-5.874 0-6.802-.378-1.622-1.272-2.601-2.782-3.04C62.731.87 62.026.83 59.522.798l-3.109-.05V10.7Zm5.464-6.71c.218.122.437.387.596.703.238.5.248.56.248 2.754 0 2.152-.01 2.264-.238 2.733-.328.693-.735.887-1.897.887h-.895V3.705l.924.04c.686.031 1.014.092 1.262.245Z" fill="#000" fill-opacity=".2"/><path d="M56.413 10.701v9.954h3.278v-6.629h1.282c.695 0 1.49-.041 1.758-.092 1.788-.347 2.871-1.377 3.269-3.08.208-.928.208-5.874 0-6.802-.378-1.622-1.272-2.601-2.782-3.04C62.731.87 62.026.83 59.522.798l-3.109-.05V10.7Zm5.464-6.71c.218.122.437.387.596.703.238.5.248.56.248 2.754 0 2.152-.01 2.264-.238 2.733-.328.693-.735.887-1.897.887h-.895V3.705l.924.04c.686.031 1.014.092 1.262.245Z" fill="#000" fill-opacity=".2"/><path d="M56.413 10.701v9.954h3.278v-6.629h1.282c.695 0 1.49-.041 1.758-.092 1.788-.347 2.871-1.377 3.269-3.08.208-.928.208-5.874 0-6.802-.378-1.622-1.272-2.601-2.782-3.04C62.731.87 62.026.83 59.522.798l-3.109-.05V10.7Zm5.464-6.71c.218.122.437.387.596.703.238.5.248.56.248 2.754 0 2.152-.01 2.264-.238 2.733-.328.693-.735.887-1.897.887h-.895V3.705l.924.04c.686.031 1.014.092 1.262.245Z" fill="#000" fill-opacity=".2"/><path d="M68.233 10.701v9.954h3.279v-6.833h.834c1.013 0 1.391.122 1.64.55.129.215.387 1.306.744 3.264.308 1.622.567 2.968.587 2.988.02.02.824.02 1.778.01l1.738-.03-.626-3.223c-.337-1.774-.705-3.427-.804-3.671-.259-.592-.646-1.05-1.024-1.214-.158-.071-.297-.153-.297-.194 0-.03.158-.173.337-.316.517-.388 1.033-1.173 1.262-1.928.189-.57.228-.989.268-2.784.05-2.233-.03-3.039-.387-4.008-.259-.704-.964-1.52-1.62-1.856-1.003-.52-1.291-.56-4.6-.612l-3.109-.05V10.7Zm5.464-6.71c.467.275.666.672.805 1.57.13.857.06 3.294-.11 3.886-.248.887-.764 1.224-2.006 1.295l-.874.05V3.705l.924.042c.685.03 1.013.091 1.261.244Z" fill="#1C1C1C"/><path d="M68.233 10.701v9.954h3.279v-6.833h.834c1.013 0 1.391.122 1.64.55.129.215.387 1.306.744 3.264.308 1.622.567 2.968.587 2.988.02.02.824.02 1.778.01l1.738-.03-.626-3.223c-.337-1.774-.705-3.427-.804-3.671-.259-.592-.646-1.05-1.024-1.214-.158-.071-.297-.153-.297-.194 0-.03.158-.173.337-.316.517-.388 1.033-1.173 1.262-1.928.189-.57.228-.989.268-2.784.05-2.233-.03-3.039-.387-4.008-.259-.704-.964-1.52-1.62-1.856-1.003-.52-1.291-.56-4.6-.612l-3.109-.05V10.7Zm5.464-6.71c.467.275.666.672.805 1.57.13.857.06 3.294-.11 3.886-.248.887-.764 1.224-2.006 1.295l-.874.05V3.705l.924.042c.685.03 1.013.091 1.261.244Z" fill="#000" fill-opacity=".2"/><path d="M68.233 10.701v9.954h3.279v-6.833h.834c1.013 0 1.391.122 1.64.55.129.215.387 1.306.744 3.264.308 1.622.567 2.968.587 2.988.02.02.824.02 1.778.01l1.738-.03-.626-3.223c-.337-1.774-.705-3.427-.804-3.671-.259-.592-.646-1.05-1.024-1.214-.158-.071-.297-.153-.297-.194 0-.03.158-.173.337-.316.517-.388 1.033-1.173 1.262-1.928.189-.57.228-.989.268-2.784.05-2.233-.03-3.039-.387-4.008-.259-.704-.964-1.52-1.62-1.856-1.003-.52-1.291-.56-4.6-.612l-3.109-.05V10.7Zm5.464-6.71c.467.275.666.672.805 1.57.13.857.06 3.294-.11 3.886-.248.887-.764 1.224-2.006 1.295l-.874.05V3.705l.924.042c.685.03 1.013.091 1.261.244Z" fill="#000" fill-opacity=".2"/><path d="M68.233 10.701v9.954h3.279v-6.833h.834c1.013 0 1.391.122 1.64.55.129.215.387 1.306.744 3.264.308 1.622.567 2.968.587 2.988.02.02.824.02 1.778.01l1.738-.03-.626-3.223c-.337-1.774-.705-3.427-.804-3.671-.259-.592-.646-1.05-1.024-1.214-.158-.071-.297-.153-.297-.194 0-.03.158-.173.337-.316.517-.388 1.033-1.173 1.262-1.928.189-.57.228-.989.268-2.784.05-2.233-.03-3.039-.387-4.008-.259-.704-.964-1.52-1.62-1.856-1.003-.52-1.291-.56-4.6-.612l-3.109-.05V10.7Zm5.464-6.71c.467.275.666.672.805 1.57.13.857.06 3.294-.11 3.886-.248.887-.764 1.224-2.006 1.295l-.874.05V3.705l.924.042c.685.03 1.013.091 1.261.244Z" fill="#000" fill-opacity=".2"/><path d="M92.675 10.711v9.944h3.377v-7.853h4.074V9.436h-4.074V4.133h4.074V.768h-7.451v9.943Z" fill="#1C1C1C"/><path d="M92.675 10.711v9.944h3.377v-7.853h4.074V9.436h-4.074V4.133h4.074V.768h-7.451v9.943Z" fill="#000" fill-opacity=".2"/><path d="M92.675 10.711v9.944h3.377v-7.853h4.074V9.436h-4.074V4.133h4.074V.768h-7.451v9.943Z" fill="#000" fill-opacity=".2"/><path d="M92.675 10.711v9.944h3.377v-7.853h4.074V9.436h-4.074V4.133h4.074V.768h-7.451v9.943Z" fill="#000" fill-opacity=".2"/><path d="M102.015 10.711v9.944h3.477V.768h-3.477v9.943Z" fill="#1C1C1C"/><path d="M102.015 10.711v9.944h3.477V.768h-3.477v9.943Z" fill="#000" fill-opacity=".2"/><path d="M102.015 10.711v9.944h3.477V.768h-3.477v9.943Z" fill="#000" fill-opacity=".2"/><path d="M102.015 10.711v9.944h3.477V.768h-3.477v9.943Z" fill="#000" fill-opacity=".2"/><path d="M108.171 10.711v9.944h7.252v-3.264h-3.874V.768h-3.378v9.943Z" fill="#1C1C1C"/><path d="M108.171 10.711v9.944h7.252v-3.264h-3.874V.768h-3.378v9.943Z" fill="#000" fill-opacity=".2"/><path d="M108.171 10.711v9.944h7.252v-3.264h-3.874V.768h-3.378v9.943Z" fill="#000" fill-opacity=".2"/><path d="M108.171 10.711v9.944h7.252v-3.264h-3.874V.768h-3.378v9.943Z" fill="#000" fill-opacity=".2"/><path d="M72.141 25.183c-1.659.418-2.811 1.6-3.377 3.477-.17.561-.179 1.081-.179 6.579v5.966l.238.806c.646 2.141 2.107 3.284 4.45 3.477 2.216.184 4.114-.785 4.948-2.529.626-1.305.646-1.54.646-7.649 0-4.61-.03-5.61-.159-6.272-.407-2.04-1.57-3.355-3.388-3.845-.685-.184-2.443-.194-3.179-.01Zm2.226 3.11c.298.143.477.327.645.643l.229.438v5.865c0 5.66-.01 5.874-.199 6.272-.566 1.162-2.046 1.162-2.632-.01l-.249-.49-.03-5.405c-.02-3.641.01-5.569.08-5.936.14-.673.447-1.163.894-1.387.447-.235.745-.224 1.262.01Z" fill="#1C1C1C"/><path d="M72.141 25.183c-1.659.418-2.811 1.6-3.377 3.477-.17.561-.179 1.081-.179 6.579v5.966l.238.806c.646 2.141 2.107 3.284 4.45 3.477 2.216.184 4.114-.785 4.948-2.529.626-1.305.646-1.54.646-7.649 0-4.61-.03-5.61-.159-6.272-.407-2.04-1.57-3.355-3.388-3.845-.685-.184-2.443-.194-3.179-.01Zm2.226 3.11c.298.143.477.327.645.643l.229.438v5.865c0 5.66-.01 5.874-.199 6.272-.566 1.162-2.046 1.162-2.632-.01l-.249-.49-.03-5.405c-.02-3.641.01-5.569.08-5.936.14-.673.447-1.163.894-1.387.447-.235.745-.224 1.262.01Z" fill="#000" fill-opacity=".2"/><path d="M72.141 25.183c-1.659.418-2.811 1.6-3.377 3.477-.17.561-.179 1.081-.179 6.579v5.966l.238.806c.646 2.141 2.107 3.284 4.45 3.477 2.216.184 4.114-.785 4.948-2.529.626-1.305.646-1.54.646-7.649 0-4.61-.03-5.61-.159-6.272-.407-2.04-1.57-3.355-3.388-3.845-.685-.184-2.443-.194-3.179-.01Zm2.226 3.11c.298.143.477.327.645.643l.229.438v5.865c0 5.66-.01 5.874-.199 6.272-.566 1.162-2.046 1.162-2.632-.01l-.249-.49-.03-5.405c-.02-3.641.01-5.569.08-5.936.14-.673.447-1.163.894-1.387.447-.235.745-.224 1.262.01Z" fill="#000" fill-opacity=".2"/><path d="M72.141 25.183c-1.659.418-2.811 1.6-3.377 3.477-.17.561-.179 1.081-.179 6.579v5.966l.238.806c.646 2.141 2.107 3.284 4.45 3.477 2.216.184 4.114-.785 4.948-2.529.626-1.305.646-1.54.646-7.649 0-4.61-.03-5.61-.159-6.272-.407-2.04-1.57-3.355-3.388-3.845-.685-.184-2.443-.194-3.179-.01Zm2.226 3.11c.298.143.477.327.645.643l.229.438v5.865c0 5.66-.01 5.874-.199 6.272-.566 1.162-2.046 1.162-2.632-.01l-.249-.49-.03-5.405c-.02-3.641.01-5.569.08-5.936.14-.673.447-1.163.894-1.387.447-.235.745-.224 1.262.01Z" fill="#000" fill-opacity=".2"/><path d="M84.623 25.203c-1.659.449-2.811 1.642-3.338 3.468-.159.53-.178 1.213-.208 6.13-.05 6.251-.01 6.72.606 8.046.814 1.764 2.314 2.631 4.58 2.631 1.698 0 2.801-.418 3.715-1.417.596-.643.954-1.357 1.212-2.377.179-.714.189-1.162.189-6.384 0-6.18-.03-6.486-.596-7.68-.596-1.234-1.6-2.07-2.931-2.427-.745-.194-2.493-.194-3.229.01Zm2.484 3.203c.149.112.358.377.457.58.179.368.189.725.189 6.304 0 5.782 0 5.925-.209 6.272-.328.591-.785.846-1.41.795-.448-.04-.587-.102-.865-.397-.636-.653-.656-.908-.626-6.997.03-5.232.04-5.395.239-5.844.238-.53.496-.785.894-.917.397-.133 1.003-.031 1.33.204Z" fill="#1C1C1C"/><path d="M84.623 25.203c-1.659.449-2.811 1.642-3.338 3.468-.159.53-.178 1.213-.208 6.13-.05 6.251-.01 6.72.606 8.046.814 1.764 2.314 2.631 4.58 2.631 1.698 0 2.801-.418 3.715-1.417.596-.643.954-1.357 1.212-2.377.179-.714.189-1.162.189-6.384 0-6.18-.03-6.486-.596-7.68-.596-1.234-1.6-2.07-2.931-2.427-.745-.194-2.493-.194-3.229.01Zm2.484 3.203c.149.112.358.377.457.58.179.368.189.725.189 6.304 0 5.782 0 5.925-.209 6.272-.328.591-.785.846-1.41.795-.448-.04-.587-.102-.865-.397-.636-.653-.656-.908-.626-6.997.03-5.232.04-5.395.239-5.844.238-.53.496-.785.894-.917.397-.133 1.003-.031 1.33.204Z" fill="#000" fill-opacity=".2"/><path d="M84.623 25.203c-1.659.449-2.811 1.642-3.338 3.468-.159.53-.178 1.213-.208 6.13-.05 6.251-.01 6.72.606 8.046.814 1.764 2.314 2.631 4.58 2.631 1.698 0 2.801-.418 3.715-1.417.596-.643.954-1.357 1.212-2.377.179-.714.189-1.162.189-6.384 0-6.18-.03-6.486-.596-7.68-.596-1.234-1.6-2.07-2.931-2.427-.745-.194-2.493-.194-3.229.01Zm2.484 3.203c.149.112.358.377.457.58.179.368.189.725.189 6.304 0 5.782 0 5.925-.209 6.272-.328.591-.785.846-1.41.795-.448-.04-.587-.102-.865-.397-.636-.653-.656-.908-.626-6.997.03-5.232.04-5.395.239-5.844.238-.53.496-.785.894-.917.397-.133 1.003-.031 1.33.204Z" fill="#000" fill-opacity=".2"/><path d="M84.623 25.203c-1.659.449-2.811 1.642-3.338 3.468-.159.53-.178 1.213-.208 6.13-.05 6.251-.01 6.72.606 8.046.814 1.764 2.314 2.631 4.58 2.631 1.698 0 2.801-.418 3.715-1.417.596-.643.954-1.357 1.212-2.377.179-.714.189-1.162.189-6.384 0-6.18-.03-6.486-.596-7.68-.596-1.234-1.6-2.07-2.931-2.427-.745-.194-2.493-.194-3.229.01Zm2.484 3.203c.149.112.358.377.457.58.179.368.189.725.189 6.304 0 5.782 0 5.925-.209 6.272-.328.591-.785.846-1.41.795-.448-.04-.587-.102-.865-.397-.636-.653-.656-.908-.626-6.997.03-5.232.04-5.395.239-5.844.238-.53.496-.785.894-.917.397-.133 1.003-.031 1.33.204Z" fill="#000" fill-opacity=".2"/><path d="M108.977 25.193c-1.679.479-2.861 1.815-3.239 3.671-.318 1.53-.109 3.294.527 4.64.467.98 1.5 2.05 2.901 3.01 1.827 1.254 2.364 2.029 2.453 3.548.1 1.612-.397 2.57-1.351 2.57-1.023 0-1.44-.693-1.45-2.447 0-.622.03-1.245.079-1.408l.07-.275h-3.259l-.109.51c-.179.846-.139 2.417.09 3.315.248.989.546 1.53 1.192 2.12 1.361 1.255 4.202 1.418 5.98.347.964-.58 1.788-1.825 2.057-3.11.158-.775.129-2.6-.05-3.386a7.398 7.398 0 0 0-.517-1.428c-.467-.99-1.579-2.152-3-3.13-1.053-.735-1.748-1.388-2.017-1.939-.278-.54-.387-1.52-.268-2.274.179-1.101.626-1.652 1.341-1.652.954 0 1.421 1.112 1.322 3.13l-.05.97h3.229l.059-.316c.109-.582.06-2.683-.079-3.376-.308-1.459-1.083-2.499-2.226-2.948-.745-.295-2.861-.377-3.685-.142Z" fill="#1C1C1C"/><path d="M108.977 25.193c-1.679.479-2.861 1.815-3.239 3.671-.318 1.53-.109 3.294.527 4.64.467.98 1.5 2.05 2.901 3.01 1.827 1.254 2.364 2.029 2.453 3.548.1 1.612-.397 2.57-1.351 2.57-1.023 0-1.44-.693-1.45-2.447 0-.622.03-1.245.079-1.408l.07-.275h-3.259l-.109.51c-.179.846-.139 2.417.09 3.315.248.989.546 1.53 1.192 2.12 1.361 1.255 4.202 1.418 5.98.347.964-.58 1.788-1.825 2.057-3.11.158-.775.129-2.6-.05-3.386a7.398 7.398 0 0 0-.517-1.428c-.467-.99-1.579-2.152-3-3.13-1.053-.735-1.748-1.388-2.017-1.939-.278-.54-.387-1.52-.268-2.274.179-1.101.626-1.652 1.341-1.652.954 0 1.421 1.112 1.322 3.13l-.05.97h3.229l.059-.316c.109-.582.06-2.683-.079-3.376-.308-1.459-1.083-2.499-2.226-2.948-.745-.295-2.861-.377-3.685-.142Z" fill="#000" fill-opacity=".2"/><path d="M108.977 25.193c-1.679.479-2.861 1.815-3.239 3.671-.318 1.53-.109 3.294.527 4.64.467.98 1.5 2.05 2.901 3.01 1.827 1.254 2.364 2.029 2.453 3.548.1 1.612-.397 2.57-1.351 2.57-1.023 0-1.44-.693-1.45-2.447 0-.622.03-1.245.079-1.408l.07-.275h-3.259l-.109.51c-.179.846-.139 2.417.09 3.315.248.989.546 1.53 1.192 2.12 1.361 1.255 4.202 1.418 5.98.347.964-.58 1.788-1.825 2.057-3.11.158-.775.129-2.6-.05-3.386a7.398 7.398 0 0 0-.517-1.428c-.467-.99-1.579-2.152-3-3.13-1.053-.735-1.748-1.388-2.017-1.939-.278-.54-.387-1.52-.268-2.274.179-1.101.626-1.652 1.341-1.652.954 0 1.421 1.112 1.322 3.13l-.05.97h3.229l.059-.316c.109-.582.06-2.683-.079-3.376-.308-1.459-1.083-2.499-2.226-2.948-.745-.295-2.861-.377-3.685-.142Z" fill="#000" fill-opacity=".2"/><path d="M108.977 25.193c-1.679.479-2.861 1.815-3.239 3.671-.318 1.53-.109 3.294.527 4.64.467.98 1.5 2.05 2.901 3.01 1.827 1.254 2.364 2.029 2.453 3.548.1 1.612-.397 2.57-1.351 2.57-1.023 0-1.44-.693-1.45-2.447 0-.622.03-1.245.079-1.408l.07-.275h-3.259l-.109.51c-.179.846-.139 2.417.09 3.315.248.989.546 1.53 1.192 2.12 1.361 1.255 4.202 1.418 5.98.347.964-.58 1.788-1.825 2.057-3.11.158-.775.129-2.6-.05-3.386a7.398 7.398 0 0 0-.517-1.428c-.467-.99-1.579-2.152-3-3.13-1.053-.735-1.748-1.388-2.017-1.939-.278-.54-.387-1.52-.268-2.274.179-1.101.626-1.652 1.341-1.652.954 0 1.421 1.112 1.322 3.13l-.05.97h3.229l.059-.316c.109-.582.06-2.683-.079-3.376-.308-1.459-1.083-2.499-2.226-2.948-.745-.295-2.861-.377-3.685-.142Z" fill="#000" fill-opacity=".2"/><path d="M56.51 35.3v9.954l2.812-.051c2.176-.041 2.93-.082 3.398-.214 1.679-.48 2.662-1.367 3.248-2.978.219-.592.229-.684.258-6.425.02-4.988.01-5.936-.129-6.517-.427-1.918-1.59-3.121-3.447-3.57-.477-.112-1.291-.153-3.377-.153H56.51V35.3Zm5.385-6.762c.278.153.457.378.656.775l.268.571.03 5.08c.02 4.324.01 5.17-.13 5.7-.278 1.133-.754 1.51-2.006 1.591l-.725.051V28.171l.765.071c.496.051.904.153 1.142.296Z" fill="#1C1C1C"/><path d="M56.51 35.3v9.954l2.812-.051c2.176-.041 2.93-.082 3.398-.214 1.679-.48 2.662-1.367 3.248-2.978.219-.592.229-.684.258-6.425.02-4.988.01-5.936-.129-6.517-.427-1.918-1.59-3.121-3.447-3.57-.477-.112-1.291-.153-3.377-.153H56.51V35.3Zm5.385-6.762c.278.153.457.378.656.775l.268.571.03 5.08c.02 4.324.01 5.17-.13 5.7-.278 1.133-.754 1.51-2.006 1.591l-.725.051V28.171l.765.071c.496.051.904.153 1.142.296Z" fill="#000" fill-opacity=".2"/><path d="M56.51 35.3v9.954l2.812-.051c2.176-.041 2.93-.082 3.398-.214 1.679-.48 2.662-1.367 3.248-2.978.219-.592.229-.684.258-6.425.02-4.988.01-5.936-.129-6.517-.427-1.918-1.59-3.121-3.447-3.57-.477-.112-1.291-.153-3.377-.153H56.51V35.3Zm5.385-6.762c.278.153.457.378.656.775l.268.571.03 5.08c.02 4.324.01 5.17-.13 5.7-.278 1.133-.754 1.51-2.006 1.591l-.725.051V28.171l.765.071c.496.051.904.153 1.142.296Z" fill="#000" fill-opacity=".2"/><path d="M56.51 35.3v9.954l2.812-.051c2.176-.041 2.93-.082 3.398-.214 1.679-.48 2.662-1.367 3.248-2.978.219-.592.229-.684.258-6.425.02-4.988.01-5.936-.129-6.517-.427-1.918-1.59-3.121-3.447-3.57-.477-.112-1.291-.153-3.377-.153H56.51V35.3Zm5.385-6.762c.278.153.457.378.656.775l.268.571.03 5.08c.02 4.324.01 5.17-.13 5.7-.278 1.133-.754 1.51-2.006 1.591l-.725.051V28.171l.765.071c.496.051.904.153 1.142.296Z" fill="#000" fill-opacity=".2"/><path d="M93.765 35.29v9.943h3.278v-6.935l.825.01c.447 0 .973.051 1.162.123.576.204.735.683 1.321 3.896l.517 2.855 1.768.03c1.123.01 1.758-.01 1.758-.08 0-.266-1.122-5.947-1.291-6.528-.229-.785-.676-1.387-1.222-1.632-.338-.153-.368-.194-.189-.245.278-.091 1.053-.968 1.302-1.468.407-.826.506-1.56.506-3.947 0-2.417-.079-2.978-.536-3.906-.288-.581-.954-1.244-1.52-1.54-.874-.449-1.48-.52-4.67-.52h-3.01v9.943Zm5.454-6.803c.228.112.447.347.606.632.238.449.248.51.248 2.6 0 2-.01 2.173-.209 2.55-.407.765-.834.97-2.036.97h-.785V28.17l.914.071c.546.03 1.053.133 1.262.245Z" fill="#1C1C1C"/><path d="M93.765 35.29v9.943h3.278v-6.935l.825.01c.447 0 .973.051 1.162.123.576.204.735.683 1.321 3.896l.517 2.855 1.768.03c1.123.01 1.758-.01 1.758-.08 0-.266-1.122-5.947-1.291-6.528-.229-.785-.676-1.387-1.222-1.632-.338-.153-.368-.194-.189-.245.278-.091 1.053-.968 1.302-1.468.407-.826.506-1.56.506-3.947 0-2.417-.079-2.978-.536-3.906-.288-.581-.954-1.244-1.52-1.54-.874-.449-1.48-.52-4.67-.52h-3.01v9.943Zm5.454-6.803c.228.112.447.347.606.632.238.449.248.51.248 2.6 0 2-.01 2.173-.209 2.55-.407.765-.834.97-2.036.97h-.785V28.17l.914.071c.546.03 1.053.133 1.262.245Z" fill="#000" fill-opacity=".2"/><path d="M93.765 35.29v9.943h3.278v-6.935l.825.01c.447 0 .973.051 1.162.123.576.204.735.683 1.321 3.896l.517 2.855 1.768.03c1.123.01 1.758-.01 1.758-.08 0-.266-1.122-5.947-1.291-6.528-.229-.785-.676-1.387-1.222-1.632-.338-.153-.368-.194-.189-.245.278-.091 1.053-.968 1.302-1.468.407-.826.506-1.56.506-3.947 0-2.417-.079-2.978-.536-3.906-.288-.581-.954-1.244-1.52-1.54-.874-.449-1.48-.52-4.67-.52h-3.01v9.943Zm5.454-6.803c.228.112.447.347.606.632.238.449.248.51.248 2.6 0 2-.01 2.173-.209 2.55-.407.765-.834.97-2.036.97h-.785V28.17l.914.071c.546.03 1.053.133 1.262.245Z" fill="#000" fill-opacity=".2"/><path d="M93.765 35.29v9.943h3.278v-6.935l.825.01c.447 0 .973.051 1.162.123.576.204.735.683 1.321 3.896l.517 2.855 1.768.03c1.123.01 1.758-.01 1.758-.08 0-.266-1.122-5.947-1.291-6.528-.229-.785-.676-1.387-1.222-1.632-.338-.153-.368-.194-.189-.245.278-.091 1.053-.968 1.302-1.468.407-.826.506-1.56.506-3.947 0-2.417-.079-2.978-.536-3.906-.288-.581-.954-1.244-1.52-1.54-.874-.449-1.48-.52-4.67-.52h-3.01v9.943Zm5.454-6.803c.228.112.447.347.606.632.238.449.248.51.248 2.6 0 2-.01 2.173-.209 2.55-.407.765-.834.97-2.036.97h-.785V28.17l.914.071c.546.03 1.053.133 1.262.245Z" fill="#000" fill-opacity=".2"/></g><defs><clipPath id="a"><path fill="#fff" transform="translate(.136 .46)" d="M0 0h131.729v45.078H0z"/></clipPath></defs></svg>