<svg width="30" height="31" fill="none" xmlns="http://www.w3.org/2000/svg"><path d="M14.375 27.427c-7.063 0-12.813-5.75-12.813-12.813 0-7.062 5.75-12.812 12.813-12.812 7.063 0 12.813 5.75 12.813 12.813 0 7.062-5.75 12.812-12.813 12.812Zm0-23.75c-6.037 0-10.938 4.912-10.938 10.938 0 6.025 4.9 10.937 10.938 10.937s10.938-4.912 10.938-10.938c0-6.025-4.9-10.937-10.938-10.937Z" fill="#1C1C1C"/><path d="M14.375 27.427c-7.063 0-12.813-5.75-12.813-12.813 0-7.062 5.75-12.812 12.813-12.812 7.063 0 12.813 5.75 12.813 12.813 0 7.062-5.75 12.812-12.813 12.812Zm0-23.75c-6.037 0-10.938 4.912-10.938 10.938 0 6.025 4.9 10.937 10.938 10.937s10.938-4.912 10.938-10.938c0-6.025-4.9-10.937-10.938-10.937Z" fill="#000" fill-opacity=".2"/><path d="M14.375 27.427c-7.063 0-12.813-5.75-12.813-12.813 0-7.062 5.75-12.812 12.813-12.812 7.063 0 12.813 5.75 12.813 12.813 0 7.062-5.75 12.812-12.813 12.812Zm0-23.75c-6.037 0-10.938 4.912-10.938 10.938 0 6.025 4.9 10.937 10.938 10.937s10.938-4.912 10.938-10.938c0-6.025-4.9-10.937-10.938-10.937Z" fill="#000" fill-opacity=".2"/><path d="M14.375 27.427c-7.063 0-12.813-5.75-12.813-12.813 0-7.062 5.75-12.812 12.813-12.812 7.063 0 12.813 5.75 12.813 12.813 0 7.062-5.75 12.812-12.813 12.812Zm0-23.75c-6.037 0-10.938 4.912-10.938 10.938 0 6.025 4.9 10.937 10.938 10.937s10.938-4.912 10.938-10.938c0-6.025-4.9-10.937-10.938-10.937Z" fill="#000" fill-opacity=".2"/><path d="M27.5 28.677a.927.927 0 0 1-.662-.275l-2.5-2.5a.943.943 0 0 1 0-1.325.943.943 0 0 1 1.325 0l2.5 2.5a.943.943 0 0 1 0 1.325.927.927 0 0 1-.662.275Z" fill="#1C1C1C"/><path d="M27.5 28.677a.927.927 0 0 1-.662-.275l-2.5-2.5a.943.943 0 0 1 0-1.325.943.943 0 0 1 1.325 0l2.5 2.5a.943.943 0 0 1 0 1.325.927.927 0 0 1-.662.275Z" fill="#000" fill-opacity=".2"/><path d="M27.5 28.677a.927.927 0 0 1-.662-.275l-2.5-2.5a.943.943 0 0 1 0-1.325.943.943 0 0 1 1.325 0l2.5 2.5a.943.943 0 0 1 0 1.325.927.927 0 0 1-.662.275Z" fill="#000" fill-opacity=".2"/><path d="M27.5 28.677a.927.927 0 0 1-.662-.275l-2.5-2.5a.943.943 0 0 1 0-1.325.943.943 0 0 1 1.325 0l2.5 2.5a.943.943 0 0 1 0 1.325.927.927 0 0 1-.662.275Z" fill="#000" fill-opacity=".2"/></svg>