<svg width="30" height="30" fill="none" xmlns="http://www.w3.org/2000/svg"><path d="M15.5 2a12.5 12.5 0 1 0 0 25 12.5 12.5 0 0 0 0-25ZM4.542 15.444h3.486a19.75 19.75 0 0 0 .528 3.75h-3a10.898 10.898 0 0 1-1.014-3.75Zm11.902-7.5V3.653a5.736 5.736 0 0 1 3.084 2.778c.285.481.536.983.75 1.5l-3.834.013Zm4.473 1.875a17.83 17.83 0 0 1 .57 3.75h-5.043V9.82h4.473Zm-6.361-6.166v4.291h-3.834c.215-.517.465-1.018.75-1.5a5.736 5.736 0 0 1 3.084-2.791Zm0 6.166v3.75H9.528a17.76 17.76 0 0 1 .57-3.75h4.458Zm-6.528 3.737H4.542c.11-1.301.454-2.571 1.014-3.75h3a19.625 19.625 0 0 0-.528 3.75Zm1.5 1.888h5.028v3.75h-4.459a17.889 17.889 0 0 1-.57-3.75ZM14.569 21v4.292a5.737 5.737 0 0 1-3.083-2.778 11.858 11.858 0 0 1-.75-1.5L14.57 21Zm1.875 4.292v-4.223h3.834a11.852 11.852 0 0 1-.75 1.5 5.736 5.736 0 0 1-3.084 2.778v-.055Zm0-6.167v-3.75h5.028a17.895 17.895 0 0 1-.57 3.75h-4.458Zm6.542-3.75h3.486c-.11 1.3-.454 2.57-1.014 3.75h-3.014c.292-1.208.469-2.44.528-3.68l.014-.07Zm0-1.875a19.625 19.625 0 0 0-.542-3.68h3c.56 1.18.903 2.45 1.014 3.75l-3.472-.07Zm1.389-5.556h-2.486a12.386 12.386 0 0 0-1.93-3.5 11.11 11.11 0 0 1 4.36 3.5h.056Zm-13.333-3.5a12.387 12.387 0 0 0-1.93 3.5H6.68a11.111 11.111 0 0 1 4.36-3.5ZM6.667 21.111H9.11a12.387 12.387 0 0 0 1.93 3.5 11.11 11.11 0 0 1-4.36-3.542l-.014.042Zm13.277 3.5a12.386 12.386 0 0 0 1.931-3.5h2.444a11.112 11.112 0 0 1-4.36 3.445l-.015.055Z" fill="#1C1C1C"/><path d="M15.5 2a12.5 12.5 0 1 0 0 25 12.5 12.5 0 0 0 0-25ZM4.542 15.444h3.486a19.75 19.75 0 0 0 .528 3.75h-3a10.898 10.898 0 0 1-1.014-3.75Zm11.902-7.5V3.653a5.736 5.736 0 0 1 3.084 2.778c.285.481.536.983.75 1.5l-3.834.013Zm4.473 1.875a17.83 17.83 0 0 1 .57 3.75h-5.043V9.82h4.473Zm-6.361-6.166v4.291h-3.834c.215-.517.465-1.018.75-1.5a5.736 5.736 0 0 1 3.084-2.791Zm0 6.166v3.75H9.528a17.76 17.76 0 0 1 .57-3.75h4.458Zm-6.528 3.737H4.542c.11-1.301.454-2.571 1.014-3.75h3a19.625 19.625 0 0 0-.528 3.75Zm1.5 1.888h5.028v3.75h-4.459a17.889 17.889 0 0 1-.57-3.75ZM14.569 21v4.292a5.737 5.737 0 0 1-3.083-2.778 11.858 11.858 0 0 1-.75-1.5L14.57 21Zm1.875 4.292v-4.223h3.834a11.852 11.852 0 0 1-.75 1.5 5.736 5.736 0 0 1-3.084 2.778v-.055Zm0-6.167v-3.75h5.028a17.895 17.895 0 0 1-.57 3.75h-4.458Zm6.542-3.75h3.486c-.11 1.3-.454 2.57-1.014 3.75h-3.014c.292-1.208.469-2.44.528-3.68l.014-.07Zm0-1.875a19.625 19.625 0 0 0-.542-3.68h3c.56 1.18.903 2.45 1.014 3.75l-3.472-.07Zm1.389-5.556h-2.486a12.386 12.386 0 0 0-1.93-3.5 11.11 11.11 0 0 1 4.36 3.5h.056Zm-13.333-3.5a12.387 12.387 0 0 0-1.93 3.5H6.68a11.111 11.111 0 0 1 4.36-3.5ZM6.667 21.111H9.11a12.387 12.387 0 0 0 1.93 3.5 11.11 11.11 0 0 1-4.36-3.542l-.014.042Zm13.277 3.5a12.386 12.386 0 0 0 1.931-3.5h2.444a11.112 11.112 0 0 1-4.36 3.445l-.015.055Z" fill="#000" fill-opacity=".2"/><path d="M15.5 2a12.5 12.5 0 1 0 0 25 12.5 12.5 0 0 0 0-25ZM4.542 15.444h3.486a19.75 19.75 0 0 0 .528 3.75h-3a10.898 10.898 0 0 1-1.014-3.75Zm11.902-7.5V3.653a5.736 5.736 0 0 1 3.084 2.778c.285.481.536.983.75 1.5l-3.834.013Zm4.473 1.875a17.83 17.83 0 0 1 .57 3.75h-5.043V9.82h4.473Zm-6.361-6.166v4.291h-3.834c.215-.517.465-1.018.75-1.5a5.736 5.736 0 0 1 3.084-2.791Zm0 6.166v3.75H9.528a17.76 17.76 0 0 1 .57-3.75h4.458Zm-6.528 3.737H4.542c.11-1.301.454-2.571 1.014-3.75h3a19.625 19.625 0 0 0-.528 3.75Zm1.5 1.888h5.028v3.75h-4.459a17.889 17.889 0 0 1-.57-3.75ZM14.569 21v4.292a5.737 5.737 0 0 1-3.083-2.778 11.858 11.858 0 0 1-.75-1.5L14.57 21Zm1.875 4.292v-4.223h3.834a11.852 11.852 0 0 1-.75 1.5 5.736 5.736 0 0 1-3.084 2.778v-.055Zm0-6.167v-3.75h5.028a17.895 17.895 0 0 1-.57 3.75h-4.458Zm6.542-3.75h3.486c-.11 1.3-.454 2.57-1.014 3.75h-3.014c.292-1.208.469-2.44.528-3.68l.014-.07Zm0-1.875a19.625 19.625 0 0 0-.542-3.68h3c.56 1.18.903 2.45 1.014 3.75l-3.472-.07Zm1.389-5.556h-2.486a12.386 12.386 0 0 0-1.93-3.5 11.11 11.11 0 0 1 4.36 3.5h.056Zm-13.333-3.5a12.387 12.387 0 0 0-1.93 3.5H6.68a11.111 11.111 0 0 1 4.36-3.5ZM6.667 21.111H9.11a12.387 12.387 0 0 0 1.93 3.5 11.11 11.11 0 0 1-4.36-3.542l-.014.042Zm13.277 3.5a12.386 12.386 0 0 0 1.931-3.5h2.444a11.112 11.112 0 0 1-4.36 3.445l-.015.055Z" fill="#000" fill-opacity=".2"/><path d="M15.5 2a12.5 12.5 0 1 0 0 25 12.5 12.5 0 0 0 0-25ZM4.542 15.444h3.486a19.75 19.75 0 0 0 .528 3.75h-3a10.898 10.898 0 0 1-1.014-3.75Zm11.902-7.5V3.653a5.736 5.736 0 0 1 3.084 2.778c.285.481.536.983.75 1.5l-3.834.013Zm4.473 1.875a17.83 17.83 0 0 1 .57 3.75h-5.043V9.82h4.473Zm-6.361-6.166v4.291h-3.834c.215-.517.465-1.018.75-1.5a5.736 5.736 0 0 1 3.084-2.791Zm0 6.166v3.75H9.528a17.76 17.76 0 0 1 .57-3.75h4.458Zm-6.528 3.737H4.542c.11-1.301.454-2.571 1.014-3.75h3a19.625 19.625 0 0 0-.528 3.75Zm1.5 1.888h5.028v3.75h-4.459a17.889 17.889 0 0 1-.57-3.75ZM14.569 21v4.292a5.737 5.737 0 0 1-3.083-2.778 11.858 11.858 0 0 1-.75-1.5L14.57 21Zm1.875 4.292v-4.223h3.834a11.852 11.852 0 0 1-.75 1.5 5.736 5.736 0 0 1-3.084 2.778v-.055Zm0-6.167v-3.75h5.028a17.895 17.895 0 0 1-.57 3.75h-4.458Zm6.542-3.75h3.486c-.11 1.3-.454 2.57-1.014 3.75h-3.014c.292-1.208.469-2.44.528-3.68l.014-.07Zm0-1.875a19.625 19.625 0 0 0-.542-3.68h3c.56 1.18.903 2.45 1.014 3.75l-3.472-.07Zm1.389-5.556h-2.486a12.386 12.386 0 0 0-1.93-3.5 11.11 11.11 0 0 1 4.36 3.5h.056Zm-13.333-3.5a12.387 12.387 0 0 0-1.93 3.5H6.68a11.111 11.111 0 0 1 4.36-3.5ZM6.667 21.111H9.11a12.387 12.387 0 0 0 1.93 3.5 11.11 11.11 0 0 1-4.36-3.542l-.014.042Zm13.277 3.5a12.386 12.386 0 0 0 1.931-3.5h2.444a11.112 11.112 0 0 1-4.36 3.445l-.015.055Z" fill="#000" fill-opacity=".2"/></svg>