<svg width="70" height="70" fill="none" xmlns="http://www.w3.org/2000/svg"><g clip-path="url(#a)"><path fill-rule="evenodd" clip-rule="evenodd" d="M10 0C4.477 0 0 4.477 0 10v50c0 5.523 4.477 10 10 10h50c5.523 0 10-4.477 10-10V10c0-5.523-4.477-10-10-10H10Zm33.563 35.633h14.406v-4.547h-7.841l2.325-2.134c1.185-1.114 2.142-2.088 2.872-2.923.729-.866 1.26-1.685 1.595-2.459a6.7 6.7 0 0 0 .502-2.598c0-1.824-.608-3.216-1.824-4.175-1.185-.99-2.765-1.485-4.741-1.485-1.61 0-3.024.279-4.24.836a12.4 12.4 0 0 0-3.236 2.087l2.735 3.433c.79-.711 1.504-1.221 2.142-1.53.67-.31 1.292-.465 1.87-.465.607 0 1.078.155 1.413.464.365.31.547.743.547 1.3 0 .525-.107 1.035-.32 1.53-.212.495-.577 1.052-1.093 1.67a44.605 44.605 0 0 1-2.143 2.227l-4.97 4.964v3.805Zm-26.707 16.95c2.488 2.132 5.859 3.198 10.114 3.198 4.124 0 7.446-1 9.966-2.998 2.52-2.031 3.78-4.896 3.78-8.593 0-1.099-.147-2.115-.441-3.047-.262-.933-.59-1.733-.982-2.399-.36-.666-.9-1.282-1.62-1.848a18.846 18.846 0 0 0-1.915-1.35c-.524-.332-1.277-.665-2.259-.998-.949-.367-1.685-.617-2.209-.75a58.571 58.571 0 0 0-2.258-.65c-.72-.166-1.26-.3-1.62-.399-.328-.1-.77-.233-1.326-.4-.524-.2-.933-.366-1.227-.5-.262-.166-.54-.35-.835-.549-.294-.233-.507-.483-.638-.75a1.9 1.9 0 0 1-.197-.849c0-.8.328-1.399.982-1.798.655-.4 1.44-.6 2.357-.6 1.015 0 1.866.283 2.553.85.687.532 1.03 1.332 1.03 2.398h9.476c0-3.564-1.145-6.362-3.436-8.394-2.259-2.032-5.434-3.047-9.525-3.047s-7.299.965-9.623 2.897c-2.29 1.899-3.436 4.547-3.436 7.944 0 1.1.13 2.115.393 3.048.261.932.572 1.715.932 2.348.36.633.884 1.232 1.572 1.799a18.907 18.907 0 0 0 1.816 1.349c.524.3 1.26.616 2.21.949a34.55 34.55 0 0 0 2.16.7l2.209.599c.556.133.949.233 1.178.3.262.066.622.166 1.08.3.491.132.851.25 1.08.349.23.067.508.183.835.35.36.133.622.283.785.45.164.133.328.3.491.499.197.2.328.416.393.65.066.2.098.45.098.749 0 .9-.392 1.615-1.178 2.148-.753.533-1.653.8-2.7.8-1.146 0-2.111-.317-2.897-.95-.753-.632-1.13-1.548-1.13-2.747h-9.769c0 3.797 1.244 6.778 3.731 8.943Z" fill="#F1CF57"/></g><defs><clipPath id="a"><path fill="#fff" d="M0 0h70v70H0z"/></clipPath></defs></svg>