<svg width="30" height="30" fill="none" xmlns="http://www.w3.org/2000/svg"><path d="M27.462 22.913c0 .45-.1.912-.312 1.362a5.13 5.13 0 0 1-.85 1.275c-.613.675-1.288 1.162-2.05 1.475a6.277 6.277 0 0 1-2.438.475c-1.274 0-2.637-.3-4.075-.913-1.437-.612-2.874-1.437-4.3-2.474a35.938 35.938 0 0 1-4.1-3.5 35.517 35.517 0 0 1-3.487-4.088C4.825 15.1 4 13.675 3.4 12.263c-.6-1.425-.9-2.788-.9-4.088 0-.85.15-1.663.45-2.413.3-.762.775-1.462 1.438-2.087.8-.787 1.675-1.175 2.6-1.175.35 0 .7.075 1.012.225.325.15.613.375.838.7l2.9 4.088c.225.312.387.6.5.874.112.263.175.525.175.763 0 .3-.088.6-.263.887-.162.288-.4.588-.7.888l-.95.987c-.137.138-.2.3-.2.5 0 .1.012.188.037.288.038.1.075.175.1.25.226.413.613.95 1.163 1.6.563.65 1.162 1.313 1.813 1.975a37.601 37.601 0 0 0 1.987 1.838c.65.55 1.187.925 1.612 1.15.063.024.138.062.226.1.1.037.2.05.312.05a.688.688 0 0 0 .512-.213l.95-.938c.313-.312.613-.55.9-.7.288-.175.576-.262.888-.262.238 0 .488.05.762.162.275.113.563.276.875.488l4.138 2.938c.325.224.55.487.688.8.124.312.2.625.2.975Z" fill="#1C1C1C"/><path d="M27.462 22.913c0 .45-.1.912-.312 1.362a5.13 5.13 0 0 1-.85 1.275c-.613.675-1.288 1.162-2.05 1.475a6.277 6.277 0 0 1-2.438.475c-1.274 0-2.637-.3-4.075-.913-1.437-.612-2.874-1.437-4.3-2.474a35.938 35.938 0 0 1-4.1-3.5 35.517 35.517 0 0 1-3.487-4.088C4.825 15.1 4 13.675 3.4 12.263c-.6-1.425-.9-2.788-.9-4.088 0-.85.15-1.663.45-2.413.3-.762.775-1.462 1.438-2.087.8-.787 1.675-1.175 2.6-1.175.35 0 .7.075 1.012.225.325.15.613.375.838.7l2.9 4.088c.225.312.387.6.5.874.112.263.175.525.175.763 0 .3-.088.6-.263.887-.162.288-.4.588-.7.888l-.95.987c-.137.138-.2.3-.2.5 0 .1.012.188.037.288.038.1.075.175.1.25.226.413.613.95 1.163 1.6.563.65 1.162 1.313 1.813 1.975a37.601 37.601 0 0 0 1.987 1.838c.65.55 1.187.925 1.612 1.15.063.024.138.062.226.1.1.037.2.05.312.05a.688.688 0 0 0 .512-.213l.95-.938c.313-.312.613-.55.9-.7.288-.175.576-.262.888-.262.238 0 .488.05.762.162.275.113.563.276.875.488l4.138 2.938c.325.224.55.487.688.8.124.312.2.625.2.975Z" fill="#000" fill-opacity=".2"/><path d="M27.462 22.913c0 .45-.1.912-.312 1.362a5.13 5.13 0 0 1-.85 1.275c-.613.675-1.288 1.162-2.05 1.475a6.277 6.277 0 0 1-2.438.475c-1.274 0-2.637-.3-4.075-.913-1.437-.612-2.874-1.437-4.3-2.474a35.938 35.938 0 0 1-4.1-3.5 35.517 35.517 0 0 1-3.487-4.088C4.825 15.1 4 13.675 3.4 12.263c-.6-1.425-.9-2.788-.9-4.088 0-.85.15-1.663.45-2.413.3-.762.775-1.462 1.438-2.087.8-.787 1.675-1.175 2.6-1.175.35 0 .7.075 1.012.225.325.15.613.375.838.7l2.9 4.088c.225.312.387.6.5.874.112.263.175.525.175.763 0 .3-.088.6-.263.887-.162.288-.4.588-.7.888l-.95.987c-.137.138-.2.3-.2.5 0 .1.012.188.037.288.038.1.075.175.1.25.226.413.613.95 1.163 1.6.563.65 1.162 1.313 1.813 1.975a37.601 37.601 0 0 0 1.987 1.838c.65.55 1.187.925 1.612 1.15.063.024.138.062.226.1.1.037.2.05.312.05a.688.688 0 0 0 .512-.213l.95-.938c.313-.312.613-.55.9-.7.288-.175.576-.262.888-.262.238 0 .488.05.762.162.275.113.563.276.875.488l4.138 2.938c.325.224.55.487.688.8.124.312.2.625.2.975Z" fill="#000" fill-opacity=".2"/><path d="M27.462 22.913c0 .45-.1.912-.312 1.362a5.13 5.13 0 0 1-.85 1.275c-.613.675-1.288 1.162-2.05 1.475a6.277 6.277 0 0 1-2.438.475c-1.274 0-2.637-.3-4.075-.913-1.437-.612-2.874-1.437-4.3-2.474a35.938 35.938 0 0 1-4.1-3.5 35.517 35.517 0 0 1-3.487-4.088C4.825 15.1 4 13.675 3.4 12.263c-.6-1.425-.9-2.788-.9-4.088 0-.85.15-1.663.45-2.413.3-.762.775-1.462 1.438-2.087.8-.787 1.675-1.175 2.6-1.175.35 0 .7.075 1.012.225.325.15.613.375.838.7l2.9 4.088c.225.312.387.6.5.874.112.263.175.525.175.763 0 .3-.088.6-.263.887-.162.288-.4.588-.7.888l-.95.987c-.137.138-.2.3-.2.5 0 .1.012.188.037.288.038.1.075.175.1.25.226.413.613.95 1.163 1.6.563.65 1.162 1.313 1.813 1.975a37.601 37.601 0 0 0 1.987 1.838c.65.55 1.187.925 1.612 1.15.063.024.138.062.226.1.1.037.2.05.312.05a.688.688 0 0 0 .512-.213l.95-.938c.313-.312.613-.55.9-.7.288-.175.576-.262.888-.262.238 0 .488.05.762.162.275.113.563.276.875.488l4.138 2.938c.325.224.55.487.688.8.124.312.2.625.2.975Z" fill="#000" fill-opacity=".2"/></svg>