<svg width="187" height="62" fill="none" xmlns="http://www.w3.org/2000/svg"><g clip-path="url(#a)" fill="#333"><path d="M24.865.857v26.998h-4.423V8.747l-4.694 6.95-1.081 1.623-.368.549h-3.668l-1.197-1.795-4.887-7.269v19.05H.143V.857H4.47l6.49 9.648 1.467 2.19 1.914-2.793L20.483.86h4.382V.857Zm26.307 0v27.016h-4.44V10.127l-.521.625a77.33 77.33 0 0 1-3.862 3.814l-.174.17c-.979.92-1.958 1.856-2.936 2.813-1.699 1.648-3.02 3.195-3.958 4.646a24.632 24.632 0 0 0-2.394 5.681h-4.422V.857h4.422v17.39a42.977 42.977 0 0 1 4.095-4.418c.81-.792 1.615-1.56 2.416-2.303.23-.226.464-.448.695-.661 1.221-1.146 2.247-2.172 3.07-3.077 1.069-1.222 1.873-2.425 2.415-3.616.54-1.188.926-2.294 1.16-3.315h4.434Zm25.94 0v26.885H72.71V5.162H62.26v11.29c0 1.76-.188 3.266-.562 4.512-.373 1.246-.829 2.285-1.37 3.116-.543.832-1.088 1.487-1.643 1.965a9.29 9.29 0 0 1-1.4 1.021 8.493 8.493 0 0 1-2.194.914c-.246.058-.399.091-.464.104l-.617-4.269h-.019c.09-.012.312-.094.667-.246.355-.153.757-.436 1.206-.85 1.325-1.36 1.989-3.449 1.989-6.27V.857h19.26Zm26.576 0v26.885h-4.404V5.162h-10.45v11.29c0 1.76-.187 3.266-.56 4.512-.375 1.246-.83 2.285-1.372 3.116-.542.832-1.088 1.487-1.642 1.965a9.29 9.29 0 0 1-1.4 1.021 8.493 8.493 0 0 1-2.194.914c-.246.058-.399.091-.464.104l-.617-4.269h-.02c.091-.012.313-.094.668-.246.355-.153.757-.436 1.206-.85 1.325-1.36 1.988-3.449 1.988-6.27V.857h19.261Zm27.349 0v27.016h-4.441V10.127l-.521.625a77.039 77.039 0 0 1-3.861 3.814l-.175.17a211.76 211.76 0 0 0-2.936 2.813c-1.698 1.648-3.02 3.195-3.958 4.646a24.6 24.6 0 0 0-2.393 5.681h-4.423V.857h4.423v17.39a42.906 42.906 0 0 1 4.095-4.418c.81-.792 1.614-1.56 2.415-2.303.231-.226.465-.448.695-.661 1.222-1.146 2.247-2.172 3.07-3.077 1.069-1.222 1.873-2.425 2.416-3.616.539-1.188.925-2.294 1.159-3.315h4.435Zm16.303-.32c2.484 0 4.744.616 6.779 1.85a13.983 13.983 0 0 1 4.878 4.965c1.215 2.078 1.826 4.381 1.826 6.91 0 2.516-.608 4.813-1.826 6.89a13.959 13.959 0 0 1-4.878 4.966c-2.035 1.234-4.295 1.85-6.779 1.85-2.471 0-4.728-.616-6.769-1.85a13.861 13.861 0 0 1-4.878-4.965c-1.209-2.078-1.817-4.375-1.817-6.891 0-2.529.605-4.832 1.817-6.91a13.861 13.861 0 0 1 4.878-4.966c2.041-1.233 4.298-1.849 6.769-1.849Zm0 23.032c1.662 0 3.167-.418 4.52-1.256a9.404 9.404 0 0 0 3.244-3.369c.81-1.41 1.215-2.97 1.215-4.682 0-1.713-.405-3.275-1.215-4.692a9.383 9.383 0 0 0-3.244-3.379c-1.353-.837-2.858-1.255-4.52-1.255-1.648 0-3.151.418-4.509 1.255a9.303 9.303 0 0 0-3.245 3.379c-.804 1.417-1.206 2.98-1.206 4.692 0 1.712.402 3.271 1.206 4.682a9.3 9.3 0 0 0 3.245 3.37c1.358.837 2.861 1.255 4.509 1.255ZM186.86.744v27.169h-4.442v-12.82c-.012 0-.025.006-.037.019a53.746 53.746 0 0 1-3.659.859c-1.178.234-2.605.387-4.279.463a77.84 77.84 0 0 1-3.457.076c-.822 0-1.648-.006-2.471-.018v11.42h-4.463V.745h4.463V12.13a99.09 99.09 0 0 0 2.683.037c1.032 0 2.042-.025 3.033-.077 1.443-.064 2.668-.194 3.681-.396a49.5 49.5 0 0 0 3.313-.792c.374-.088.773-.189 1.197-.301V.744h4.438ZM29.016 34.472V61.47h-4.422V42.362l-4.694 6.95-1.082 1.623-.367.548h-3.669l-1.197-1.794L8.7 42.42v19.05H4.295V34.472H8.62l6.489 9.648 1.468 2.19 1.913-2.793 6.143-9.042h4.382v-.003Zm7.938 11.439h15.742v4.342H36.954v6.91h15.683v4.34H32.51V34.43h3.98c.156.012.308.019.464.019 1.044.012 2.085.018 3.13.018 1.043 0 2.06-.018 3.05-.058 1.431-.064 2.647-.195 3.65-.396a50.243 50.243 0 0 0 3.304-.792c.58-.152 1.222-.314 1.932-.49l1.1 4.191c-.695.177-1.321.342-1.873.49a54.447 54.447 0 0 1-3.65.86c-1.171.234-2.596.387-4.27.463a75.301 75.301 0 0 1-3.437.076c-.979 0-1.957-.012-2.936-.036v7.137Zm0-11.479v.019c-.156 0-.308-.007-.464-.019h.464Zm41.664.04v26.885h-4.404v-22.58h-10.45v11.29c0 1.76-.187 3.266-.561 4.512-.374 1.246-.83 2.285-1.371 3.116-.543.832-1.088 1.487-1.643 1.965a9.29 9.29 0 0 1-1.4 1.02 8.5 8.5 0 0 1-1.255.613c-.38.147-.692.247-.938.302-.247.058-.4.091-.465.103l-.617-4.268h-.019c.09-.012.312-.094.667-.246.356-.153.758-.436 1.206-.85 1.325-1.36 1.989-3.45 1.989-6.27V34.469h19.26v.003Zm16.939-.323c2.484 0 4.743.615 6.779 1.85a13.972 13.972 0 0 1 4.877 4.965c1.216 2.078 1.827 4.38 1.827 6.91 0 2.516-.608 4.813-1.827 6.89a13.948 13.948 0 0 1-4.877 4.966c-2.036 1.234-4.295 1.85-6.78 1.85-2.47 0-4.727-.616-6.769-1.85a13.851 13.851 0 0 1-4.877-4.965c-1.21-2.078-1.817-4.375-1.817-6.892 0-2.528.605-4.831 1.817-6.909a13.85 13.85 0 0 1 4.877-4.966c2.042-1.23 4.298-1.849 6.77-1.849Zm0 23.035c1.661 0 3.166-.418 4.519-1.256a9.408 9.408 0 0 0 3.245-3.369c.81-1.41 1.215-2.97 1.215-4.682 0-1.713-.405-3.276-1.215-4.692a9.386 9.386 0 0 0-3.245-3.379c-1.353-.837-2.858-1.255-4.52-1.255-1.648 0-3.15.418-4.509 1.255a9.303 9.303 0 0 0-3.244 3.379c-.804 1.416-1.206 2.98-1.206 4.691 0 1.713.402 3.272 1.206 4.683a9.301 9.301 0 0 0 3.244 3.37c1.359.837 2.861 1.255 4.51 1.255Zm37.955-22.712v27.035h-4.423v-8.668h-7.901c-.09 0-.18-.006-.271-.018-2.574-.125-4.715-1.039-6.423-2.739-1.705-1.7-2.606-3.814-2.696-6.343v-9.27h4.422v9.27c.066 1.347.571 2.477 1.515 3.388.948.914 2.094 1.368 3.447 1.368h7.901v-14.03h4.429v.007Zm7.782 11.439h15.742v4.342h-15.742v6.91h15.683v4.34h-20.124V34.43h3.98c.156.012.308.019.464.019 1.044.012 2.085.018 3.129.018s2.06-.018 3.052-.058c1.43-.064 2.646-.195 3.649-.396a50.218 50.218 0 0 0 3.304-.792c.579-.152 1.222-.314 1.932-.49l1.1 4.191c-.695.177-1.321.342-1.873.49a54.505 54.505 0 0 1-3.649.86c-1.172.234-2.597.387-4.27.463a75.351 75.351 0 0 1-3.438.076c-.979 0-1.957-.012-2.936-.036v7.137h-.003Zm0-11.479v.019c-.156 0-.309-.007-.464-.019h.464Zm42.106.04v26.961h-4.422V43.721c-.169.201-.343.402-.521.603-1.069 1.158-2.356 2.434-3.861 3.833-.053.049-.109.1-.175.152-.979.92-1.951 1.855-2.917 2.812-1.699 1.648-3.014 3.19-3.94 4.625a24.6 24.6 0 0 0-2.393 5.681h-4.423V34.466h4.423v17.35a43.948 43.948 0 0 1 4.076-4.418c.811-.792 1.609-1.56 2.394-2.303.243-.213.483-.436.714-.661 1.221-1.133 2.247-2.15 3.07-3.059 1.069-1.221 1.87-2.425 2.406-3.616.533-1.188.916-2.288 1.15-3.293h4.419v.006Zm-13.751-.454c-1.044 0-2.103-.006-3.188-.018v-3.89c.527 0 1.443.006 2.743.018.966 0 1.92-.012 2.858-.037 1.352-.088 2.468-.259 3.35-.509a38.837 38.837 0 0 0 1.805-.548l.985 3.775c-.321.112-1.023.316-2.104.612-1.082.296-2.403.493-3.958.594a23.49 23.49 0 0 1-.87.018 60.889 60.889 0 0 1-1.621-.015Z"/></g><defs><clipPath id="a"><path fill="#fff" d="M0 0h187v62H0z"/></clipPath></defs></svg>