<svg width="126" height="46" fill="none" xmlns="http://www.w3.org/2000/svg"><g style="mix-blend-mode:luminosity" clip-path="url(#a)"><path d="M28.634 23.974h5.598l-2.802-6.612-2.796 6.612Z" fill="#C90C0F"/><path fill-rule="evenodd" clip-rule="evenodd" d="M43.508.21H3.673a2.786 2.786 0 0 0-2.78 2.792v39.995a2.786 2.786 0 0 0 2.78 2.792h39.835c1.536 0 2.78-1.25 2.78-2.791V3.002A2.786 2.786 0 0 0 43.509.21ZM25.421 31.583l2.32-5.51h7.37l2.332 5.51h2.483l-8.494-19.286-8.493 19.286h2.482ZM7.913 15.315h9.095L7.391 31.583h12.805v-2.1h-9.094l9.617-16.267H7.913v2.099Z" fill="#C90C0F"/><path fill-rule="evenodd" clip-rule="evenodd" d="M51.947 13.216v18.368h4.965c1.777 0 3.337-.385 4.678-1.155a8.083 8.083 0 0 0 3.162-3.201c.767-1.382 1.15-2.991 1.15-4.828 0-1.837-.383-3.437-1.15-4.802a8.04 8.04 0 0 0-3.162-3.227c-1.341-.77-2.9-1.155-4.678-1.155h-4.965Zm1.437 16.924V14.66h3.529c1.132 0 2.16.183 3.083.55a6.69 6.69 0 0 1 2.404 1.575c.663.665 1.168 1.478 1.516 2.44.366.945.549 2.003.549 3.175 0 1.172-.183 2.239-.549 3.201a6.862 6.862 0 0 1-1.516 2.44 6.869 6.869 0 0 1-2.404 1.548c-.923.368-1.951.551-3.084.551h-3.528Zm16.805-3.988c-.453-1.155-.68-2.405-.68-3.752s.227-2.59.68-3.726a8.868 8.868 0 0 1 1.908-2.991 8.679 8.679 0 0 1 2.874-1.995c1.115-.472 2.326-.708 3.633-.708s2.51.236 3.606.708a8.604 8.604 0 0 1 2.901 1.995 8.867 8.867 0 0 1 1.908 2.99c.453 1.138.68 2.38.68 3.727s-.227 2.597-.68 3.752a9.224 9.224 0 0 1-1.908 2.991 8.793 8.793 0 0 1-2.9 1.968c-1.098.472-2.3.709-3.607.709-1.307 0-2.517-.237-3.633-.709a8.871 8.871 0 0 1-2.874-1.968 9.226 9.226 0 0 1-1.908-2.991Zm1.803-7.846c-.644 1.19-.967 2.554-.967 4.094 0 1.522.323 2.886.967 4.093a7.584 7.584 0 0 0 2.692 2.86c1.15.682 2.457 1.023 3.92 1.023 1.464 0 2.762-.34 3.894-1.023a7.32 7.32 0 0 0 2.692-2.86c.644-1.207.967-2.571.967-4.093 0-1.54-.323-2.904-.967-4.093a7.135 7.135 0 0 0-2.692-2.834c-1.132-.7-2.43-1.05-3.894-1.05-1.463 0-2.77.35-3.92 1.05-1.132.682-2.03 1.626-2.692 2.833ZM91.31 22.4c0 1.347.227 2.597.68 3.752a9.226 9.226 0 0 0 1.907 2.991 8.869 8.869 0 0 0 2.875 1.968c1.115.472 2.326.709 3.633.709s2.509-.237 3.606-.709a8.8 8.8 0 0 0 2.901-1.968 9.225 9.225 0 0 0 1.908-2.991c.453-1.155.679-2.405.679-3.752s-.226-2.59-.679-3.726a8.867 8.867 0 0 0-1.908-2.991 8.61 8.61 0 0 0-2.901-1.995c-1.097-.472-2.299-.708-3.606-.708s-2.518.236-3.633.708a8.676 8.676 0 0 0-2.875 1.995 8.868 8.868 0 0 0-1.907 2.99c-.453 1.138-.68 2.38-.68 3.727Zm1.516 0c0-1.54.323-2.904.967-4.093.662-1.208 1.56-2.152 2.692-2.834 1.15-.7 2.457-1.05 3.92-1.05s2.761.35 3.894 1.05a7.136 7.136 0 0 1 2.692 2.833c.644 1.19.967 2.554.967 4.094 0 1.522-.323 2.886-.967 4.093a7.322 7.322 0 0 1-2.692 2.86c-1.133.682-2.431 1.023-3.894 1.023s-2.77-.34-3.92-1.023c-1.133-.7-2.03-1.653-2.692-2.86-.645-1.207-.967-2.571-.967-4.093Zm30.505 9.184-5.337-7.715h-2.399v7.715h-1.437V13.216h4.181c1.185 0 2.239.21 3.162.63.941.42 1.682 1.023 2.222 1.81.54.788.81 1.75.81 2.887 0 1.12-.27 2.081-.81 2.886-.54.805-1.281 1.417-2.222 1.837a7.185 7.185 0 0 1-1.946.527l5.553 7.79h-1.777Zm-7.736-17.082v8.082h2.744c.923 0 1.743-.15 2.457-.447.732-.314 1.298-.77 1.699-1.364.4-.612.601-1.355.601-2.23s-.21-1.61-.628-2.204c-.4-.595-.958-1.05-1.672-1.365-.714-.315-1.534-.472-2.457-.472h-2.744Z" fill="#1D1D1B"/><path d="M124.755 36.507v3.023h-.348v-2.143l-2.171 2.287v-3.023h.348v2.143l2.171-2.287Zm-1.723-.423a.604.604 0 0 1-.07-.276h.291a.311.311 0 0 0 .135.255.39.39 0 0 0 .221.054.39.39 0 0 0 .222-.054.304.304 0 0 0 .106-.127.368.368 0 0 0 .029-.128h.291a.574.574 0 0 1-.287.494.718.718 0 0 1-.361.082.73.73 0 0 1-.36-.082.587.587 0 0 1-.217-.218Z" fill="#1D1D1B"/><path fill-rule="evenodd" clip-rule="evenodd" d="m58.02 39.53.363-.864h1.155l.366.864h.389l-1.331-3.023-1.332 3.023h.39Zm.503-1.193h.878l-.44-1.036-.438 1.036Zm-5.521-1.687v.33c-.234.006-.444.05-.631.136a1.104 1.104 0 0 0-.467.378 1.034 1.034 0 0 0-.168.596c0 .23.056.43.168.597.114.164.27.292.467.382.187.083.397.126.63.131v.33h.349v-.33a1.61 1.61 0 0 0 .626-.13 1.1 1.1 0 0 0 .468-.383 1.03 1.03 0 0 0 .171-.597c0-.233-.057-.432-.171-.596a1.072 1.072 0 0 0-.468-.378 1.565 1.565 0 0 0-.626-.136v-.33h-.348Zm-.455.766c.133-.053.285-.082.455-.086v1.52a1.371 1.371 0 0 1-.455-.081.754.754 0 0 1-.34-.255.712.712 0 0 1-.123-.424.7.7 0 0 1 .123-.423.728.728 0 0 1 .34-.251Zm1.258 1.353c-.133.05-.285.078-.455.082V37.33c.17.004.322.033.454.086a.725.725 0 0 1 .34.25.702.702 0 0 1 .123.424c0 .168-.04.309-.123.424a.751.751 0 0 1-.34.255Zm10.135-.967v-.822h1.187v-.33h-1.536v2.88h.779c.185 0 .35-.035.495-.103a.813.813 0 0 0 .48-.76.8.8 0 0 0-.48-.758 1.107 1.107 0 0 0-.495-.107h-.43Zm0 1.399h.43a.85.85 0 0 0 .323-.058.482.482 0 0 0 .221-.18.509.509 0 0 0 .082-.297.509.509 0 0 0-.082-.296.46.46 0 0 0-.22-.177.794.794 0 0 0-.324-.062h-.43v1.07Zm4.843.329h.348v-1.152h.43c.186 0 .351-.034.496-.103a.812.812 0 0 0 .48-.76.8.8 0 0 0-.48-.757 1.109 1.109 0 0 0-.496-.107h-.778v2.879Zm.778-1.48h-.43v-1.07h.43a.7.7 0 0 1 .45.136c.118.087.177.22.177.398 0 .176-.059.309-.176.4a.708.708 0 0 1-.45.135Z" fill="#1D1D1B"/><path d="M76.498 36.507v3.023h-.349v-2.143l-2.171 2.287v-3.023h.348v2.143l2.172-2.287Zm3.605 3.023h.348v-1.397l1.188 1.397h.43L80.766 38l1.242-1.35h-.43l-1.127 1.24v-1.24h-.348v2.88Z" fill="#1D1D1B"/><path fill-rule="evenodd" clip-rule="evenodd" d="m85.813 38.666-.364.864h-.389l1.331-3.023 1.331 3.023h-.389l-.365-.864h-1.155Zm1.018-.328h-.878l.438-1.037.44 1.036Zm9.659-1.831 1.085 2.694h.37v.782h-.308v-.453h-2.293v.453h-.307V39.2h.37l1.084-2.694Zm0 .794.721 1.9H95.77l.72-1.9Zm6.029.658.052.012a.91.91 0 0 1 .308.14.61.61 0 0 1 .208.234c.049.096.074.21.074.342a.816.816 0 0 1-.131.473.79.79 0 0 1-.348.28c-.145.06-.31.09-.496.09h-.778v-2.88h.737c.172 0 .321.027.447.079a.636.636 0 0 1 .299.239.71.71 0 0 1 .106.403.57.57 0 0 1-.106.345.653.653 0 0 1-.299.218l-.038.014c-.012.004-.023.008-.035.01Zm-.763.16v1.102h.43a.751.751 0 0 0 .324-.065.504.504 0 0 0 .221-.19.535.535 0 0 0 .082-.3.58.58 0 0 0-.045-.234.457.457 0 0 0-.131-.173.526.526 0 0 0-.197-.103.82.82 0 0 0-.254-.037h-.43Zm0-.304h.389a.647.647 0 0 0 .258-.05.412.412 0 0 0 .181-.144.4.4 0 0 0 .065-.23.376.376 0 0 0-.144-.316.554.554 0 0 0-.36-.116h-.389v.856Z" fill="#1D1D1B"/><path d="M108.277 39.53v-.33h-1.29v-1.069h1.208v-.329h-1.208v-.822h1.29v-.33h-1.639v2.88h1.639Z" fill="#1D1D1B"/><path fill-rule="evenodd" clip-rule="evenodd" d="M112.19 39.53h-.349v-2.88h.779c.186 0 .351.037.496.108a.815.815 0 0 1 .479.756c0 .176-.044.33-.132.461a.844.844 0 0 1-.347.3 1.14 1.14 0 0 1-.496.103h-.43v1.152Zm0-1.48h.43a.708.708 0 0 0 .451-.136.479.479 0 0 0 .176-.4c0-.178-.06-.31-.176-.398a.707.707 0 0 0-.451-.136h-.43v1.07Z" fill="#1D1D1B"/><path d="M118.671 39.53v-.33h-1.29v-1.069h1.208v-.329h-1.208v-.822h1.29v-.33h-1.638v2.88h1.638Z" fill="#1D1D1B"/><path d="M17.006 15.315H7.91v-2.099h12.806l-9.618 16.268h9.095v2.1H7.388l9.618-16.269Z" fill="#fff"/><path fill-rule="evenodd" clip-rule="evenodd" d="m27.742 26.073-2.32 5.51h-2.483l8.494-19.286 8.493 19.286h-2.483l-2.332-5.51h-7.37Zm.895-2.1h5.598l-2.802-6.611-2.796 6.612Z" fill="#fff"/></g><defs><clipPath id="a"><path fill="#fff" transform="translate(.892 .21)" d="M0 0h124.216v45.579H0z"/></clipPath></defs></svg>