<svg width="61" height="61" viewBox="0 0 61 61" fill="none" xmlns="http://www.w3.org/2000/svg">
<g id="Layer_1" clip-path="url(#clip0_925_49901)">
<path id="Vector" d="M13.8118 55.5185L13.3896 55.2362L13.6949 54.8254C17.4566 49.8494 23.3768 41.8724 30.458 41.8135C37.5392 41.8724 43.4619 49.8494 47.2233 54.8254L47.5289 55.2362L47.1064 55.5185C42.177 58.8222 36.3827 60.5803 30.458 60.57C24.5337 60.5823 18.7395 58.824 13.8118 55.5185ZM30.458 59.601C36.0184 59.6104 41.4641 58.0119 46.1456 54.9962C42.4145 49.9863 36.5972 42.73 30.458 42.7793C24.3214 42.73 18.5037 49.9863 14.7703 54.9962C19.452 58.0117 24.8977 59.6102 30.458 59.601ZM48.4648 53.9965C45.4312 49.6292 40.8781 43.1005 40.859 37.0699C40.8516 36.0105 41.0108 34.9566 41.3308 33.9473C43.5727 27.1953 52.9518 24.0011 58.8245 21.9454L59.3052 21.7777L59.444 22.2699C60.1823 24.9155 60.5572 27.6501 60.5583 30.3978C60.5561 33.572 60.0564 36.726 59.0776 39.7438C57.2569 45.4106 53.8031 50.4064 49.1541 54.0977L48.7571 54.4158L48.4648 53.9965ZM42.2448 34.2487C41.9564 35.1608 41.8131 36.1129 41.8201 37.0699C41.8004 42.433 45.9317 48.6884 48.9538 53.0167C53.2542 49.4743 56.4501 44.7632 58.1604 39.4455C59.1076 36.5239 59.5914 33.4707 59.594 30.3978C59.5918 27.9103 59.2744 25.4332 58.6494 23.0264C52.7598 25.0455 44.0922 28.362 42.2448 34.2487ZM11.831 54.0023C7.18532 50.3084 3.73226 45.3141 1.9075 39.6497C0.929256 36.6316 0.430529 33.4774 0.429688 30.3031C0.430193 27.5552 0.804981 24.8203 1.54362 22.1745L1.68275 21.683L2.16314 21.8475C8.03616 23.9057 17.4175 27.0999 19.6565 33.8519C19.9755 34.8604 20.135 35.913 20.1289 36.9713C20.107 43.0033 15.5561 49.5345 12.5253 53.8993L12.2308 54.321L11.831 54.0023ZM1.39366 30.3031C1.39418 33.3757 1.87703 36.4289 2.82439 39.3502C4.53545 44.6683 7.73238 49.3793 12.0338 52.9213C15.0534 48.593 19.1843 42.3351 19.1647 36.9713C19.173 36.0159 19.0305 35.0652 18.7425 34.1547C16.8954 28.2673 8.22752 24.9502 2.33826 22.9284C1.71185 25.3361 1.39441 27.8145 1.39366 30.3031ZM37.2472 21.1274C31.5525 16.8945 31.4271 6.94254 31.294 0.692316L31.2857 0.178377L31.7941 0.201457C37.7133 0.441138 43.4285 2.44205 48.2149 5.95053C53.0148 9.44098 56.6748 14.2862 58.7303 19.8711L58.9079 20.3512L58.4189 20.5015C54.6712 21.6548 49.5374 23.2158 44.8117 23.219C42.0311 23.219 39.3697 22.6744 37.2472 21.1274ZM37.8139 20.3429C39.703 21.7252 42.1506 22.2532 44.8117 22.2532C49.1318 22.2532 53.9628 20.8567 57.6465 19.7285C55.6253 14.5224 52.1552 10.0115 47.6511 6.73519C43.1572 3.44179 37.8155 1.51757 32.2634 1.19216C32.3579 7.45005 32.8163 16.7602 37.8139 20.3429ZM2.67984 20.4433L2.19117 20.2923L2.37165 19.8129C4.4253 14.2279 8.08417 9.38256 12.8835 5.89233C17.6695 2.3827 23.385 0.38165 29.3046 0.143197L29.8133 0.120117L29.8047 0.634057C29.6716 6.88107 29.5494 16.8356 23.8518 21.066C21.7293 22.6129 19.0675 23.1601 16.287 23.1601C11.5642 23.1576 6.42463 21.5934 2.67984 20.4433ZM16.287 22.1918C18.9481 22.1918 21.3956 21.6657 23.2851 20.2814C28.2852 16.7019 28.744 7.38864 28.8357 1.13324C23.2851 1.45769 17.9444 3.37987 13.4504 6.67057C8.94698 9.94896 5.47705 14.4606 3.45474 19.667C7.13302 20.7985 11.964 22.1944 16.287 22.1918Z" fill="#F5CB45"/>
<path id="Vector_2" fill-rule="evenodd" clip-rule="evenodd" d="M29.3243 0.62561C29.2189 6.87459 28.9856 16.7178 23.5681 20.6723C18.1535 24.632 8.76385 21.8115 2.82146 19.9798C4.8531 14.4897 8.4518 9.7245 13.1664 6.28154C17.8811 2.83859 23.5019 0.871074 29.3243 0.62561ZM58.2775 20.0387C52.3351 21.8704 42.9477 24.6902 37.5308 20.7337C32.1134 16.7773 31.8829 6.93343 31.7775 0.68707C37.5992 0.932822 43.2192 2.9002 47.9332 6.34264C52.6473 9.78509 56.2457 14.5495 58.2775 20.0387ZM48.8596 53.718C45.287 48.6019 39.7198 40.4988 41.7895 34.0976C43.8588 27.6976 53.1016 24.4336 58.9773 22.4035C60.5435 28.0447 60.4189 34.025 58.6192 39.5953C56.8194 45.1656 53.4244 50.0783 48.8596 53.718ZM2.00771 22.3056C7.88582 24.3382 17.1284 27.6029 19.1983 34.0035C21.2679 40.4035 15.7005 48.5071 12.1308 53.6227C7.56417 49.9837 4.16762 45.0709 2.36682 39.4999C0.566029 33.929 0.441104 27.9476 2.00771 22.3056ZM14.0782 55.119C17.8176 50.1263 23.7622 42.2992 30.458 42.2992C37.1555 42.2992 43.1008 50.1263 46.837 55.119C41.9824 58.3587 36.2847 60.0867 30.4576 60.0867C24.6305 60.0867 18.9328 58.3587 14.0782 55.119Z" fill="url(#paint0_radial_925_49901)"/>
<path id="Vector_3" d="M58.2765 20.0388C53.1258 21.6273 45.3913 23.9537 39.8933 21.976C43.9524 17.9394 48.5173 14.4513 53.4728 11.5997C55.5268 14.1267 57.1501 16.9783 58.2765 20.0388ZM48.8586 53.7181C45.286 48.602 39.7188 40.4989 41.7885 34.0976C43.8578 27.6976 53.1006 24.4336 58.9763 22.4036C60.5425 28.0448 60.4179 34.025 58.6182 39.5954C56.8184 45.1657 53.4234 50.0784 48.8586 53.7181ZM19.6058 36.0445C20.1333 42.0503 15.3277 49.0371 12.1298 53.6227C7.55668 49.9889 4.15851 45.0734 2.36518 39.498C2.27032 39.1965 2.17643 38.9015 2.08984 38.5969C8.00866 38.4489 13.8888 37.5921 19.6058 36.0445ZM14.0772 55.1191C17.8166 50.1264 23.7613 42.2993 30.457 42.2993C37.1545 42.2993 43.0998 50.1264 46.836 55.1191C41.9814 58.3587 36.2837 60.0868 30.4566 60.0868C24.6295 60.0868 18.9319 58.3587 14.0772 55.1191Z" fill="url(#paint1_radial_925_49901)"/>
<g id="Group">
<path id="Vector_4" opacity="0.9" d="M26.6562 11.1465C25.937 14.7465 24.6477 17.6259 22.5032 19.1945C20.356 20.7587 17.2306 21.1023 13.6052 20.6781C10.7798 20.2933 7.99176 19.669 5.271 18.8118C7.26068 14.4117 10.3512 10.6053 14.241 7.76397C18.1307 4.92262 22.6869 3.14342 27.4648 2.59998C27.4347 5.4666 27.1642 8.32555 26.6562 11.1465ZM41.4191 20.5263C40.4075 20.2877 39.4512 19.8555 38.6022 19.2534C36.4575 17.6873 35.1684 14.8048 34.4489 11.2061C33.9396 8.38597 33.6691 5.5275 33.6403 2.66144C40.7582 3.47284 47.2918 7.00865 51.8843 12.5347C48.1405 14.8425 44.6347 17.5196 41.4191 20.5263ZM11.1415 28.111C14.319 29.9094 16.65 32.031 17.4694 34.5667C17.6709 35.2009 17.7878 35.8593 17.8168 36.5244C13.2728 37.6223 8.63625 38.2889 3.96826 38.5155C2.59073 34.039 2.36239 29.285 3.30452 24.6959C6.00802 25.61 8.62969 26.7524 11.1415 28.111Z" fill="white"/>
</g>
</g>
<defs>
<radialGradient id="paint0_radial_925_49901" cx="0" cy="0" r="1" gradientUnits="userSpaceOnUse" gradientTransform="translate(30.4939 30.3561) scale(29.5799 29.7326)">
<stop stop-color="#FFE37E"/>
<stop offset="0.24276" stop-color="#FEDF79"/>
<stop offset="0.53453" stop-color="#FBD56A"/>
<stop offset="0.85038" stop-color="#F5C352"/>
<stop offset="1" stop-color="#F2B944"/>
</radialGradient>
<radialGradient id="paint1_radial_925_49901" cx="0" cy="0" r="1" gradientUnits="userSpaceOnUse" gradientTransform="translate(30.6359 57.6285) scale(34.8436 35.0235)">
<stop stop-color="#FFE37E"/>
<stop offset="0.24276" stop-color="#FEDF79"/>
<stop offset="0.53453" stop-color="#FBD56A"/>
<stop offset="0.85038" stop-color="#F5C352"/>
<stop offset="1" stop-color="#F2B944"/>
</radialGradient>
<clipPath id="clip0_925_49901">
<rect width="60.14" height="60.45" fill="white" transform="translate(0.429688 0.119995)"/>
</clipPath>
</defs>
</svg>
