<svg width="30" height="30" viewBox="0 0 30 30" fill="none" xmlns="http://www.w3.org/2000/svg">
<path d="M15.4121 15.1874L12.3246 18.2749C10.6121 19.9874 10.6121 22.7499 12.3246 24.4624C14.0371 26.1749 16.7996 26.1749 18.5121 24.4624L23.3746 19.5999C26.7871 16.1874 26.7871 10.6374 23.3746 7.2249C19.9621 3.8124 14.4121 3.8124 10.9996 7.2249L5.69961 12.5249C2.77461 15.4499 2.77461 20.1999 5.69961 23.1374" stroke="#1C1C1C" stroke-width="1.5" stroke-linecap="round" stroke-linejoin="round"/>
<path d="M15.4121 15.1874L12.3246 18.2749C10.6121 19.9874 10.6121 22.7499 12.3246 24.4624C14.0371 26.1749 16.7996 26.1749 18.5121 24.4624L23.3746 19.5999C26.7871 16.1874 26.7871 10.6374 23.3746 7.2249C19.9621 3.8124 14.4121 3.8124 10.9996 7.2249L5.69961 12.5249C2.77461 15.4499 2.77461 20.1999 5.69961 23.1374" stroke="black" stroke-opacity="0.2" stroke-width="1.5" stroke-linecap="round" stroke-linejoin="round"/>
<path d="M15.4121 15.1874L12.3246 18.2749C10.6121 19.9874 10.6121 22.7499 12.3246 24.4624C14.0371 26.1749 16.7996 26.1749 18.5121 24.4624L23.3746 19.5999C26.7871 16.1874 26.7871 10.6374 23.3746 7.2249C19.9621 3.8124 14.4121 3.8124 10.9996 7.2249L5.69961 12.5249C2.77461 15.4499 2.77461 20.1999 5.69961 23.1374" stroke="black" stroke-opacity="0.2" stroke-width="1.5" stroke-linecap="round" stroke-linejoin="round"/>
<path d="M15.4121 15.1874L12.3246 18.2749C10.6121 19.9874 10.6121 22.7499 12.3246 24.4624C14.0371 26.1749 16.7996 26.1749 18.5121 24.4624L23.3746 19.5999C26.7871 16.1874 26.7871 10.6374 23.3746 7.2249C19.9621 3.8124 14.4121 3.8124 10.9996 7.2249L5.69961 12.5249C2.77461 15.4499 2.77461 20.1999 5.69961 23.1374" stroke="black" stroke-opacity="0.2" stroke-width="1.5" stroke-linecap="round" stroke-linejoin="round"/>
</svg>
