<svg width="111" height="38" viewBox="0 0 111 38" fill="none" xmlns="http://www.w3.org/2000/svg">
<path d="M13.3032 1.54308V10.8144C13.3032 11.6672 12.6098 12.3575 11.7557 12.3575H2.45768C1.60247 12.3575 0.910156 11.6661 0.910156 10.8144V1.54308C0.910156 0.690326 1.60354 0 2.45768 0H11.7557C12.6109 0 13.3032 0.691395 13.3032 1.54308Z" fill="#3C6A75"/>
<path d="M11.7557 25.6426H2.45768C1.60247 25.6426 0.910156 26.334 0.910156 27.1857V36.457C0.910156 37.3097 1.60354 38.0001 2.45768 38.0001H11.7557C12.6109 38.0001 13.3032 37.3087 13.3032 36.457V27.1857C13.3032 26.3329 12.6109 25.6426 11.7557 25.6426Z" fill="#3C6A75"/>
<path d="M24.615 0H15.3171C14.4618 0 13.7695 0.691395 13.7695 1.54308V10.8144C13.7695 11.6672 14.4629 12.3575 15.3171 12.3575H24.615C25.4702 12.3575 26.1626 11.6661 26.1626 10.8144V1.54308C26.1626 0.691395 25.4702 0 24.615 0Z" fill="#F1CF57"/>
<path d="M2.45768 25.1788H11.7557C12.6109 25.1788 13.3032 24.4874 13.3032 23.6357V14.3644C13.3032 13.5116 12.6098 12.8213 11.7557 12.8213H2.45768C1.60247 12.8213 0.910156 13.5127 0.910156 14.3644V23.6357C0.910156 24.4884 1.60354 25.1788 2.45768 25.1788Z" fill="#F1CF57"/>
<path d="M24.615 25.6426H15.3171C14.4618 25.6426 13.7695 26.334 13.7695 27.1857V36.457C13.7695 37.3097 14.4629 38.0001 15.3171 38.0001H24.615C25.4702 38.0001 26.1626 37.3087 26.1626 36.457V27.1857C26.1626 26.3329 25.4702 25.6426 24.615 25.6426Z" fill="#ED1E79"/>
<path d="M37.4705 0H28.1725C27.3173 0 26.625 0.691395 26.625 1.54308V10.8144C26.625 11.6672 27.3184 12.3575 28.1725 12.3575H37.4705C38.3257 12.3575 39.018 11.6661 39.018 10.8144V1.54308C39.018 0.691395 38.3246 0 37.4705 0Z" fill="#ED1E79"/>
<path d="M37.4705 12.8213H28.1725C27.3173 12.8213 26.625 13.5127 26.625 14.3644V23.6357C26.625 24.4884 27.3184 25.1788 28.1725 25.1788H37.4705C38.3257 25.1788 39.018 24.4874 39.018 23.6357V14.3644C39.018 13.5116 38.3246 12.8213 37.4705 12.8213Z" fill="#ED1E79"/>
<path d="M37.4705 25.6426H28.1725C27.3173 25.6426 26.625 26.334 26.625 27.1857V36.457C26.625 37.3097 27.3184 38.0001 28.1725 38.0001H37.4705C38.3257 38.0001 39.018 37.3087 39.018 36.457V27.1857C39.018 26.3329 38.3246 25.6426 37.4705 25.6426Z" fill="#F1CF57"/>
<path d="M24.615 25.1788H22.6635V18.0864L19.9328 21.6737L17.3008 18.0864L17.2686 25.1788H15.3171C14.4618 25.1788 13.7695 24.4874 13.7695 23.6357V14.3644C13.7695 13.5116 14.4629 12.8213 15.3171 12.8213H17.0886L19.9339 16.7346L22.8446 12.8213H24.6161C25.4713 12.8213 26.1636 13.5127 26.1636 14.3644V23.6357C26.1626 24.4884 25.4702 25.1788 24.615 25.1788Z" fill="#3C6A75"/>
<path d="M54.3874 8.33167V17.8017H52.8666V11.0994L51.2527 13.5369L50.8808 14.1065L50.7543 14.2988H49.493L49.0814 13.6694L47.401 11.1197V17.8017H45.8867V8.33167H47.3742L49.6055 11.716L50.1102 12.4843L50.7683 11.5044L52.8806 8.33273H54.3874V8.33167Z" fill="#1C1C1C"/>
<path d="M63.4333 8.33203V17.8085H61.9062V11.5838L61.7272 11.8029C61.3553 12.209 60.9127 12.6546 60.3994 13.1408L60.3394 13.2006C60.0029 13.5234 59.6663 13.8514 59.3298 14.187C58.7458 14.7651 58.2914 15.308 57.9688 15.8166C57.6098 16.4524 57.3354 17.1171 57.1457 17.8096H55.625V8.33203H57.1457V14.4317C57.553 13.9113 58.0224 13.3941 58.5539 12.8822C58.8326 12.6044 59.1091 12.3351 59.3845 12.0743C59.4638 11.9952 59.5442 11.9172 59.6235 11.8424C60.0436 11.4406 60.3962 11.0805 60.6791 10.7631C61.0467 10.3346 61.3232 9.91251 61.5096 9.49469C61.6951 9.07793 61.8279 8.69002 61.9083 8.33203H63.4333Z" fill="#1C1C1C"/>
<path d="M72.3532 8.33203V17.7626H70.8389V9.84199H67.2455V13.8023C67.2455 14.4199 67.1812 14.9478 67.0526 15.3849C66.924 15.822 66.7676 16.1864 66.5811 16.4781C66.3946 16.7698 66.2071 16.9996 66.0163 17.1673C65.8523 17.3127 65.6916 17.4324 65.5351 17.5253C65.3776 17.6183 65.234 17.6899 65.1032 17.7401C64.9725 17.7914 64.8653 17.8267 64.7807 17.8459C64.696 17.8662 64.6435 17.878 64.621 17.8823L64.4088 16.3851H64.4023C64.4334 16.3808 64.5095 16.352 64.6317 16.2986C64.7539 16.2451 64.8921 16.1458 65.0464 16.0004C65.5019 15.5238 65.7302 14.7907 65.7302 13.8012V8.33203H72.3532Z" fill="#1C1C1C"/>
<path d="M81.4899 8.33203V17.7626H79.9756V9.84199H76.3823V13.8023C76.3823 14.4199 76.318 14.9478 76.1894 15.3849C76.0607 15.822 75.9043 16.1864 75.7178 16.4781C75.5313 16.7698 75.3438 16.9996 75.153 17.1673C74.9891 17.3127 74.8283 17.4324 74.6718 17.5253C74.5143 17.6183 74.3707 17.6899 74.2399 17.7401C74.1092 17.7914 74.002 17.8267 73.9174 17.8459C73.8327 17.8662 73.7802 17.878 73.7577 17.8823L73.5455 16.3851H73.5391C73.5701 16.3808 73.6462 16.352 73.7684 16.2986C73.8906 16.2451 74.0288 16.1458 74.1831 16.0004C74.6386 15.5238 74.8669 14.7907 74.8669 13.8012V8.33203H81.4899Z" fill="#1C1C1C"/>
<path d="M90.8943 8.33203V17.8085H89.3671V11.5838L89.1881 11.8029C88.8163 12.209 88.3737 12.6546 87.8603 13.1408L87.8003 13.2006C87.4638 13.5234 87.1273 13.8514 86.7908 14.187C86.2067 14.7651 85.7523 15.308 85.4297 15.8166C85.0707 16.4524 84.7964 17.1171 84.6067 17.8096H83.0859V8.33203H84.6067V14.4317C85.0139 13.9113 85.4833 13.3941 86.0149 12.8822C86.2935 12.6044 86.57 12.3351 86.8454 12.0743C86.9247 11.9952 87.0051 11.9172 87.0844 11.8424C87.5045 11.4406 87.8571 11.0805 88.14 10.7631C88.5076 10.3346 88.7841 9.91251 88.9706 9.49469C89.156 9.07793 89.2889 8.69002 89.3693 8.33203H90.8943Z" fill="#1C1C1C"/>
<path d="M96.5047 8.21973C97.3588 8.21973 98.1358 8.43559 98.8356 8.86838C99.5354 9.30117 100.094 9.88142 100.513 10.6102C100.931 11.339 101.141 12.1469 101.141 13.0338C101.141 13.9165 100.932 14.7223 100.513 15.4511C100.095 16.1798 99.5354 16.7601 98.8356 17.1929C98.1358 17.6257 97.3588 17.8415 96.5047 17.8415C95.6549 17.8415 94.879 17.6257 94.177 17.1929C93.475 16.7601 92.9156 16.1798 92.4998 15.4511C92.084 14.7223 91.875 13.9165 91.875 13.0338C91.875 12.1469 92.0829 11.339 92.4998 10.6102C92.9156 9.88142 93.475 9.30117 94.177 8.86838C94.879 8.43559 95.6549 8.21973 96.5047 8.21973ZM96.5047 16.2985C97.0759 16.2985 97.5935 16.1521 98.0587 15.8582C98.5238 15.5643 98.8956 15.1711 99.1743 14.6763C99.4529 14.1815 99.5922 13.6344 99.5922 13.0338C99.5922 12.4333 99.4529 11.8851 99.1743 11.3882C98.8956 10.8913 98.5238 10.4969 98.0587 10.2031C97.5935 9.90921 97.0759 9.76281 96.5047 9.76281C95.9378 9.76281 95.4212 9.90921 94.954 10.2031C94.4867 10.4969 94.1148 10.8923 93.8383 11.3882C93.5618 11.8851 93.4236 12.4333 93.4236 13.0338C93.4236 13.6344 93.5618 14.1815 93.8383 14.6763C94.1148 15.1711 94.4867 15.5643 94.954 15.8582C95.4212 16.1521 95.9378 16.2985 96.5047 16.2985Z" fill="#1C1C1C"/>
<path d="M110.093 8.29199V17.8219H108.565V13.3252C108.561 13.3252 108.557 13.3273 108.553 13.3316C108.119 13.4513 107.7 13.5517 107.294 13.6329C106.889 13.7152 106.399 13.7687 105.823 13.7954C105.429 13.8135 105.032 13.8221 104.635 13.8221C104.352 13.8221 104.068 13.8199 103.785 13.8157V17.8219H102.25V8.29199H103.785V12.2854C104.094 12.294 104.402 12.2982 104.707 12.2982C105.062 12.2982 105.409 12.2897 105.75 12.2715C106.246 12.2491 106.668 12.2031 107.016 12.1326C107.363 12.0621 107.743 11.9691 108.155 11.8548C108.284 11.8238 108.421 11.7885 108.567 11.749V8.29199H110.093Z" fill="#1C1C1C"/>
<path d="M54.3874 20.1232V29.5932H52.8666V22.8909L51.2527 25.3284L50.8808 25.898L50.7543 26.0903H49.493L49.0814 25.4609L47.401 22.9112V29.5932H45.8867V20.1232H47.3742L49.6055 23.5075L50.1102 24.2758L50.7683 23.2959L52.8806 20.1242H54.3874V20.1232Z" fill="#1C1C1C"/>
<path d="M57.1181 24.136H62.5312V25.6588H57.1181V28.0824H62.5108V29.6052H55.5898V20.1084H56.9584C57.012 20.1126 57.0645 20.1148 57.1181 20.1148C57.4771 20.1191 57.835 20.1212 58.194 20.1212C58.5531 20.1212 58.9024 20.1148 59.2432 20.1009C59.7351 20.0785 60.1531 20.0325 60.4982 19.962C60.8433 19.8914 61.2226 19.7985 61.6342 19.6841C61.8335 19.6307 62.0543 19.5741 62.2986 19.5121L62.6769 20.9825C62.4379 21.0445 62.2225 21.1022 62.0328 21.1545C61.5988 21.2742 61.1808 21.3747 60.7779 21.4559C60.3749 21.5382 59.8852 21.5916 59.3097 21.6183C58.9196 21.6365 58.5263 21.645 58.1276 21.645C57.7911 21.645 57.4546 21.6408 57.1181 21.6322V24.136ZM57.1181 20.1094V20.1159C57.0645 20.1159 57.012 20.1137 56.9584 20.1094H57.1181Z" fill="#1C1C1C"/>
<path d="M71.4431 20.1229V29.5534H69.9288V21.6329H66.3354V25.5931C66.3354 26.2108 66.2711 26.7387 66.1425 27.1758C66.0139 27.6128 65.8574 27.9772 65.6709 28.269C65.4845 28.5607 65.2969 28.7904 65.1062 28.9582C64.9422 29.1035 64.7814 29.2232 64.625 29.3162C64.4674 29.4092 64.3238 29.4808 64.1931 29.531C64.0623 29.5823 63.9552 29.6175 63.8705 29.6368C63.7858 29.6571 63.7333 29.6688 63.7108 29.6731L63.4986 28.176H63.4922C63.5233 28.1717 63.5994 28.1429 63.7215 28.0894C63.8437 28.036 63.982 27.9366 64.1363 27.7913C64.5917 27.3147 64.82 26.5816 64.82 25.5921V20.1218H71.4431V20.1229Z" fill="#1C1C1C"/>
<path d="M77.2703 20.0096C78.1245 20.0096 78.9014 20.2255 79.6012 20.6583C80.3011 21.0911 80.8594 21.6713 81.2784 22.4001C81.6964 23.1289 81.9065 23.9368 81.9065 24.8238C81.9065 25.7064 81.6975 26.5122 81.2784 27.241C80.8605 27.9698 80.3011 28.55 79.6012 28.9828C78.9014 29.4156 78.1245 29.6315 77.2703 29.6315C76.4205 29.6315 75.6446 29.4156 74.9426 28.9828C74.2407 28.55 73.6812 27.9698 73.2654 27.241C72.8496 26.5122 72.6406 25.7064 72.6406 24.8238C72.6406 23.9368 72.8485 23.1289 73.2654 22.4001C73.6812 21.6713 74.2407 21.0911 74.9426 20.6583C75.6446 20.2266 76.4205 20.0096 77.2703 20.0096ZM77.2703 28.0895C77.8415 28.0895 78.3592 27.9431 78.8243 27.6492C79.2894 27.3553 79.6613 26.9621 79.9399 26.4673C80.2185 25.9725 80.3579 25.4254 80.3579 24.8248C80.3579 24.2243 80.2185 23.6761 79.9399 23.1792C79.6613 22.6823 79.2894 22.2879 78.8243 21.9941C78.3592 21.7002 77.8415 21.5538 77.2703 21.5538C76.7034 21.5538 76.1868 21.7002 75.7196 21.9941C75.2523 22.2879 74.8805 22.6833 74.604 23.1792C74.3275 23.6761 74.1892 24.2243 74.1892 24.8248C74.1892 25.4254 74.3275 25.9725 74.604 26.4673C74.8805 26.9621 75.2523 27.3553 75.7196 27.6492C76.1868 27.9431 76.7034 28.0895 77.2703 28.0895Z" fill="#1C1C1C"/>
<path d="M90.318 20.1226V29.6055H88.7973V26.5653H86.0806C86.0495 26.5653 86.0184 26.5632 85.9873 26.5589C85.1021 26.5151 84.3659 26.1945 83.7786 25.5982C83.1924 25.0019 82.8826 24.2603 82.8516 23.3734V20.1216H84.3723V23.3734C84.3948 23.8457 84.5684 24.2421 84.8931 24.5617C85.2189 24.8822 85.6133 25.0415 86.0784 25.0415H88.7952V20.1205H90.318V20.1226Z" fill="#1C1C1C"/>
<path d="M92.9959 24.136H98.409V25.6588H92.9959V28.0824H98.3887V29.6052H91.4688V20.1084H92.8373C92.8909 20.1126 92.9434 20.1148 92.997 20.1148C93.356 20.1191 93.7139 20.1212 94.073 20.1212C94.432 20.1212 94.7813 20.1148 95.1221 20.1009C95.614 20.0785 96.032 20.0325 96.3771 19.962C96.7222 19.8914 97.1016 19.7985 97.5131 19.6841C97.7124 19.6307 97.9332 19.5741 98.1775 19.5121L98.5558 20.9825C98.3168 21.0445 98.1014 21.1022 97.9117 21.1545C97.4777 21.2742 97.0598 21.3747 96.6568 21.4559C96.2538 21.5382 95.7641 21.5916 95.1886 21.6183C94.7985 21.6365 94.4052 21.645 94.0065 21.645C93.67 21.645 93.3335 21.6408 92.997 21.6322V24.136H92.9959ZM92.9959 20.1094V20.1159C92.9423 20.1159 92.8898 20.1137 92.8362 20.1094H92.9959Z" fill="#1C1C1C"/>
<path d="M107.473 20.1232V29.5804H105.952V23.3675C105.894 23.438 105.834 23.5086 105.773 23.5791C105.405 23.9852 104.963 24.4329 104.445 24.9234C104.427 24.9405 104.408 24.9587 104.385 24.9768C104.049 25.2996 103.714 25.6276 103.382 25.9632C102.798 26.5413 102.346 27.082 102.027 27.5853C101.668 28.2212 101.394 28.8858 101.204 29.5783H99.6836V20.121H101.204V26.2068C101.607 25.6907 102.075 25.1735 102.606 24.6573C102.885 24.3795 103.159 24.1102 103.429 23.8494C103.513 23.7746 103.595 23.6966 103.675 23.6176C104.095 23.22 104.447 22.8631 104.73 22.5447C105.098 22.1161 105.373 21.694 105.558 21.2762C105.741 20.8595 105.873 20.4737 105.953 20.121H107.473V20.1232ZM102.744 19.964C102.385 19.964 102.021 19.9618 101.648 19.9575V18.5929C101.829 18.5929 102.144 18.5951 102.591 18.5993C102.923 18.5993 103.251 18.5951 103.574 18.5865C104.039 18.5555 104.423 18.4957 104.726 18.4081C105.029 18.3194 105.236 18.2552 105.346 18.2157L105.685 19.5397C105.575 19.5793 105.334 19.6509 104.962 19.7545C104.59 19.8582 104.135 19.9276 103.601 19.9629C103.49 19.9672 103.391 19.9693 103.302 19.9693C103.129 19.9704 102.944 19.9682 102.744 19.964Z" fill="#1C1C1C"/>
</svg>
