<svg width="31" height="30" viewBox="0 0 31 30" fill="none" xmlns="http://www.w3.org/2000/svg">
<g id="map" clip-path="url(#clip0_1800_9908)">
<g id="vuesax/bold/map">
<g id="Vector">
<path d="M10.0383 4.4626C10.2625 4.34029 10.5008 4.52845 10.5008 4.78387V21.8229C10.5008 22.0462 10.3496 22.2364 10.1478 22.3318C10.1103 22.3496 10.0739 22.3682 10.0383 22.3876L7.10078 24.0626C5.05078 25.2376 3.36328 24.2626 3.36328 21.8876V9.7251C3.36328 8.9376 3.92578 7.9626 4.62578 7.5626L10.0383 4.4626Z" fill="#1C1C1C"/>
<path d="M10.0383 4.4626C10.2625 4.34029 10.5008 4.52845 10.5008 4.78387V21.8229C10.5008 22.0462 10.3496 22.2364 10.1478 22.3318C10.1103 22.3496 10.0739 22.3682 10.0383 22.3876L7.10078 24.0626C5.05078 25.2376 3.36328 24.2626 3.36328 21.8876V9.7251C3.36328 8.9376 3.92578 7.9626 4.62578 7.5626L10.0383 4.4626Z" fill="black" fill-opacity="0.2"/>
<path d="M10.0383 4.4626C10.2625 4.34029 10.5008 4.52845 10.5008 4.78387V21.8229C10.5008 22.0462 10.3496 22.2364 10.1478 22.3318C10.1103 22.3496 10.0739 22.3682 10.0383 22.3876L7.10078 24.0626C5.05078 25.2376 3.36328 24.2626 3.36328 21.8876V9.7251C3.36328 8.9376 3.92578 7.9626 4.62578 7.5626L10.0383 4.4626Z" fill="black" fill-opacity="0.2"/>
<path d="M10.0383 4.4626C10.2625 4.34029 10.5008 4.52845 10.5008 4.78387V21.8229C10.5008 22.0462 10.3496 22.2364 10.1478 22.3318C10.1103 22.3496 10.0739 22.3682 10.0383 22.3876L7.10078 24.0626C5.05078 25.2376 3.36328 24.2626 3.36328 21.8876V9.7251C3.36328 8.9376 3.92578 7.9626 4.62578 7.5626L10.0383 4.4626Z" fill="black" fill-opacity="0.2"/>
</g>
<g id="Vector_2">
<path d="M18.9719 7.66232C19.1422 7.74668 19.25 7.92031 19.25 8.11039V24.8284C19.25 25.1969 18.865 25.4388 18.533 25.2788L12.9705 22.5989C12.7975 22.5155 12.6875 22.3405 12.6875 22.1484V5.35562C12.6875 4.98477 13.0771 4.74297 13.4094 4.90756L18.9719 7.66232Z" fill="#1C1C1C"/>
<path d="M18.9719 7.66232C19.1422 7.74668 19.25 7.92031 19.25 8.11039V24.8284C19.25 25.1969 18.865 25.4388 18.533 25.2788L12.9705 22.5989C12.7975 22.5155 12.6875 22.3405 12.6875 22.1484V5.35562C12.6875 4.98477 13.0771 4.74297 13.4094 4.90756L18.9719 7.66232Z" fill="black" fill-opacity="0.2"/>
<path d="M18.9719 7.66232C19.1422 7.74668 19.25 7.92031 19.25 8.11039V24.8284C19.25 25.1969 18.865 25.4388 18.533 25.2788L12.9705 22.5989C12.7975 22.5155 12.6875 22.3405 12.6875 22.1484V5.35562C12.6875 4.98477 13.0771 4.74297 13.4094 4.90756L18.9719 7.66232Z" fill="black" fill-opacity="0.2"/>
<path d="M18.9719 7.66232C19.1422 7.74668 19.25 7.92031 19.25 8.11039V24.8284C19.25 25.1969 18.865 25.4388 18.533 25.2788L12.9705 22.5989C12.7975 22.5155 12.6875 22.3405 12.6875 22.1484V5.35562C12.6875 4.98477 13.0771 4.74297 13.4094 4.90756L18.9719 7.66232Z" fill="black" fill-opacity="0.2"/>
</g>
<g id="Vector_3">
<path d="M28 8.11246V20.275C28 21.0625 27.4375 22.0375 26.7375 22.4375L22.1861 25.0459C21.8528 25.2369 21.4375 24.9963 21.4375 24.6121V7.84028C21.4375 7.66077 21.5337 7.49503 21.6896 7.40604L24.2625 5.93746C26.3125 4.76246 28 5.73746 28 8.11246Z" fill="#1C1C1C"/>
<path d="M28 8.11246V20.275C28 21.0625 27.4375 22.0375 26.7375 22.4375L22.1861 25.0459C21.8528 25.2369 21.4375 24.9963 21.4375 24.6121V7.84028C21.4375 7.66077 21.5337 7.49503 21.6896 7.40604L24.2625 5.93746C26.3125 4.76246 28 5.73746 28 8.11246Z" fill="black" fill-opacity="0.2"/>
<path d="M28 8.11246V20.275C28 21.0625 27.4375 22.0375 26.7375 22.4375L22.1861 25.0459C21.8528 25.2369 21.4375 24.9963 21.4375 24.6121V7.84028C21.4375 7.66077 21.5337 7.49503 21.6896 7.40604L24.2625 5.93746C26.3125 4.76246 28 5.73746 28 8.11246Z" fill="black" fill-opacity="0.2"/>
<path d="M28 8.11246V20.275C28 21.0625 27.4375 22.0375 26.7375 22.4375L22.1861 25.0459C21.8528 25.2369 21.4375 24.9963 21.4375 24.6121V7.84028C21.4375 7.66077 21.5337 7.49503 21.6896 7.40604L24.2625 5.93746C26.3125 4.76246 28 5.73746 28 8.11246Z" fill="black" fill-opacity="0.2"/>
</g>
</g>
</g>
<defs>
<clipPath id="clip0_1800_9908">
<rect width="30" height="30" fill="white" transform="translate(0.5)"/>
</clipPath>
</defs>
</svg>
