<svg width="134" height="40" viewBox="0 0 134 40" fill="none" xmlns="http://www.w3.org/2000/svg">
<path d="M133 7.72001C133.359 7.72001 133.65 7.42899 133.65 7.07001C133.65 6.71102 133.359 6.42001 133 6.42001V7.72001ZM127.46 0.540381C127.206 0.28654 126.794 0.28654 126.54 0.540381C126.287 0.794221 126.287 1.20578 126.54 1.45962L127.46 0.540381ZM133 7L133.46 7.45962C133.582 7.33772 133.65 7.17239 133.65 7C133.65 6.82761 133.582 6.66228 133.46 6.54038L133 7ZM126.54 12.5404C126.287 12.7942 126.287 13.2058 126.54 13.4596C126.794 13.7135 127.206 13.7135 127.46 13.4596L126.54 12.5404ZM1 7.72001H133V6.42001H1V7.72001ZM126.54 1.45962L132.54 7.45962L133.46 6.54038L127.46 0.540381L126.54 1.45962ZM132.54 6.54038L126.54 12.5404L127.46 13.4596L133.46 7.45962L132.54 6.54038Z" fill="#1C1C1C"/>
<path d="M133 7.72001C133.359 7.72001 133.65 7.42899 133.65 7.07001C133.65 6.71102 133.359 6.42001 133 6.42001V7.72001ZM127.46 0.540381C127.206 0.28654 126.794 0.28654 126.54 0.540381C126.287 0.794221 126.287 1.20578 126.54 1.45962L127.46 0.540381ZM133 7L133.46 7.45962C133.582 7.33772 133.65 7.17239 133.65 7C133.65 6.82761 133.582 6.66228 133.46 6.54038L133 7ZM126.54 12.5404C126.287 12.7942 126.287 13.2058 126.54 13.4596C126.794 13.7135 127.206 13.7135 127.46 13.4596L126.54 12.5404ZM1 7.72001H133V6.42001H1V7.72001ZM126.54 1.45962L132.54 7.45962L133.46 6.54038L127.46 0.540381L126.54 1.45962ZM132.54 6.54038L126.54 12.5404L127.46 13.4596L133.46 7.45962L132.54 6.54038Z" fill="black" fill-opacity="0.2"/>
<path d="M133 7.72001C133.359 7.72001 133.65 7.42899 133.65 7.07001C133.65 6.71102 133.359 6.42001 133 6.42001V7.72001ZM127.46 0.540381C127.206 0.28654 126.794 0.28654 126.54 0.540381C126.287 0.794221 126.287 1.20578 126.54 1.45962L127.46 0.540381ZM133 7L133.46 7.45962C133.582 7.33772 133.65 7.17239 133.65 7C133.65 6.82761 133.582 6.66228 133.46 6.54038L133 7ZM126.54 12.5404C126.287 12.7942 126.287 13.2058 126.54 13.4596C126.794 13.7135 127.206 13.7135 127.46 13.4596L126.54 12.5404ZM1 7.72001H133V6.42001H1V7.72001ZM126.54 1.45962L132.54 7.45962L133.46 6.54038L127.46 0.540381L126.54 1.45962ZM132.54 6.54038L126.54 12.5404L127.46 13.4596L133.46 7.45962L132.54 6.54038Z" fill="black" fill-opacity="0.2"/>
<path d="M133 7.72001C133.359 7.72001 133.65 7.42899 133.65 7.07001C133.65 6.71102 133.359 6.42001 133 6.42001V7.72001ZM127.46 0.540381C127.206 0.28654 126.794 0.28654 126.54 0.540381C126.287 0.794221 126.287 1.20578 126.54 1.45962L127.46 0.540381ZM133 7L133.46 7.45962C133.582 7.33772 133.65 7.17239 133.65 7C133.65 6.82761 133.582 6.66228 133.46 6.54038L133 7ZM126.54 12.5404C126.287 12.7942 126.287 13.2058 126.54 13.4596C126.794 13.7135 127.206 13.7135 127.46 13.4596L126.54 12.5404ZM1 7.72001H133V6.42001H1V7.72001ZM126.54 1.45962L132.54 7.45962L133.46 6.54038L127.46 0.540381L126.54 1.45962ZM132.54 6.54038L126.54 12.5404L127.46 13.4596L133.46 7.45962L132.54 6.54038Z" fill="black" fill-opacity="0.2"/>
<line x1="1.65" y1="7" x2="1.65" y2="40" stroke="#1C1C1C" stroke-width="1.3"/>
<line x1="1.65" y1="7" x2="1.65" y2="40" stroke="black" stroke-opacity="0.2" stroke-width="1.3"/>
<line x1="1.65" y1="7" x2="1.65" y2="40" stroke="black" stroke-opacity="0.2" stroke-width="1.3"/>
<line x1="1.65" y1="7" x2="1.65" y2="40" stroke="black" stroke-opacity="0.2" stroke-width="1.3"/>
</svg>
