<svg width="70" height="70" viewBox="0 0 70 70" fill="none" xmlns="http://www.w3.org/2000/svg">
<g id="Frame" clip-path="url(#clip0_1730_1683)">
<g id="Group">
<path id="Vector" d="M39.2383 22.832H30.7617V31.0351H39.2383C41.4993 31.0351 43.3398 29.1946 43.3398 26.9335C43.3398 24.6725 41.4993 22.832 39.2383 22.832Z" fill="#F1CF57"/>
<path id="Vector_2" d="M59.7461 0H10.2539C4.60018 0 0 4.60017 0 10.2539V59.746C0 65.3997 4.60018 69.9999 10.2539 69.9999H59.7461C65.3998 69.9999 70 65.3997 70 59.746V10.2539C70 4.60017 65.3998 0 59.7461 0ZM39.2383 39.2382H30.7617V53.5936C30.7617 54.7262 29.8435 55.6444 28.7109 55.6444H24.6094C23.4768 55.6444 22.5586 54.7262 22.5586 53.5936V16.6797C22.5586 15.5471 23.4768 14.6289 24.6094 14.6289H39.2383C46.0235 14.6289 51.543 20.1483 51.543 26.9335C51.543 33.7187 46.0235 39.2382 39.2383 39.2382Z" fill="#F1CF57"/>
</g>
</g>
<defs>
<clipPath id="clip0_1730_1683">
<rect width="70" height="69.9999" fill="white"/>
</clipPath>
</defs>
</svg>
