<svg width="25" height="24" viewBox="0 0 25 24" fill="none" xmlns="http://www.w3.org/2000/svg">
<path d="M21.8794 17.1636C21.7122 18.4339 21.0884 19.6 20.1243 20.4439C19.1602 21.2879 17.9219 21.7521 16.6406 21.7498C9.19688 21.7498 3.14063 15.6936 3.14063 8.24981C3.13834 6.96852 3.60253 5.73021 4.44651 4.76615C5.29049 3.80209 6.45654 3.17822 7.72688 3.01106C8.04812 2.97184 8.37343 3.03756 8.65425 3.19841C8.93506 3.35926 9.15633 3.60662 9.28501 3.90356L11.265 8.32387V8.33512C11.3635 8.56242 11.4042 8.81059 11.3834 9.05744C11.3627 9.3043 11.2811 9.54217 11.1459 9.74981C11.1291 9.77512 11.1113 9.79856 11.0925 9.822L9.14063 12.1357C9.84282 13.5626 11.3353 15.042 12.7809 15.7461L15.0628 13.8045C15.0852 13.7857 15.1087 13.7681 15.1331 13.752C15.3406 13.6136 15.5793 13.5292 15.8276 13.5062C16.0759 13.4833 16.326 13.5227 16.5553 13.6207L16.5675 13.6264L20.9841 15.6054C21.2815 15.7337 21.5295 15.9547 21.6909 16.2356C21.8523 16.5164 21.9184 16.842 21.8794 17.1636Z" fill="#1C1C1C"/>
<path d="M21.8794 17.1636C21.7122 18.4339 21.0884 19.6 20.1243 20.4439C19.1602 21.2879 17.9219 21.7521 16.6406 21.7498C9.19688 21.7498 3.14063 15.6936 3.14063 8.24981C3.13834 6.96852 3.60253 5.73021 4.44651 4.76615C5.29049 3.80209 6.45654 3.17822 7.72688 3.01106C8.04812 2.97184 8.37343 3.03756 8.65425 3.19841C8.93506 3.35926 9.15633 3.60662 9.28501 3.90356L11.265 8.32387V8.33512C11.3635 8.56242 11.4042 8.81059 11.3834 9.05744C11.3627 9.3043 11.2811 9.54217 11.1459 9.74981C11.1291 9.77512 11.1113 9.79856 11.0925 9.822L9.14063 12.1357C9.84282 13.5626 11.3353 15.042 12.7809 15.7461L15.0628 13.8045C15.0852 13.7857 15.1087 13.7681 15.1331 13.752C15.3406 13.6136 15.5793 13.5292 15.8276 13.5062C16.0759 13.4833 16.326 13.5227 16.5553 13.6207L16.5675 13.6264L20.9841 15.6054C21.2815 15.7337 21.5295 15.9547 21.6909 16.2356C21.8523 16.5164 21.9184 16.842 21.8794 17.1636Z" fill="black" fill-opacity="0.2"/>
<path d="M21.8794 17.1636C21.7122 18.4339 21.0884 19.6 20.1243 20.4439C19.1602 21.2879 17.9219 21.7521 16.6406 21.7498C9.19688 21.7498 3.14063 15.6936 3.14063 8.24981C3.13834 6.96852 3.60253 5.73021 4.44651 4.76615C5.29049 3.80209 6.45654 3.17822 7.72688 3.01106C8.04812 2.97184 8.37343 3.03756 8.65425 3.19841C8.93506 3.35926 9.15633 3.60662 9.28501 3.90356L11.265 8.32387V8.33512C11.3635 8.56242 11.4042 8.81059 11.3834 9.05744C11.3627 9.3043 11.2811 9.54217 11.1459 9.74981C11.1291 9.77512 11.1113 9.79856 11.0925 9.822L9.14063 12.1357C9.84282 13.5626 11.3353 15.042 12.7809 15.7461L15.0628 13.8045C15.0852 13.7857 15.1087 13.7681 15.1331 13.752C15.3406 13.6136 15.5793 13.5292 15.8276 13.5062C16.0759 13.4833 16.326 13.5227 16.5553 13.6207L16.5675 13.6264L20.9841 15.6054C21.2815 15.7337 21.5295 15.9547 21.6909 16.2356C21.8523 16.5164 21.9184 16.842 21.8794 17.1636Z" fill="black" fill-opacity="0.2"/>
<path d="M21.8794 17.1636C21.7122 18.4339 21.0884 19.6 20.1243 20.4439C19.1602 21.2879 17.9219 21.7521 16.6406 21.7498C9.19688 21.7498 3.14063 15.6936 3.14063 8.24981C3.13834 6.96852 3.60253 5.73021 4.44651 4.76615C5.29049 3.80209 6.45654 3.17822 7.72688 3.01106C8.04812 2.97184 8.37343 3.03756 8.65425 3.19841C8.93506 3.35926 9.15633 3.60662 9.28501 3.90356L11.265 8.32387V8.33512C11.3635 8.56242 11.4042 8.81059 11.3834 9.05744C11.3627 9.3043 11.2811 9.54217 11.1459 9.74981C11.1291 9.77512 11.1113 9.79856 11.0925 9.822L9.14063 12.1357C9.84282 13.5626 11.3353 15.042 12.7809 15.7461L15.0628 13.8045C15.0852 13.7857 15.1087 13.7681 15.1331 13.752C15.3406 13.6136 15.5793 13.5292 15.8276 13.5062C16.0759 13.4833 16.326 13.5227 16.5553 13.6207L16.5675 13.6264L20.9841 15.6054C21.2815 15.7337 21.5295 15.9547 21.6909 16.2356C21.8523 16.5164 21.9184 16.842 21.8794 17.1636Z" fill="black" fill-opacity="0.2"/>
</svg>
