<svg width="70" height="70" viewBox="0 0 70 70" fill="none" xmlns="http://www.w3.org/2000/svg">
<g id="Frame" clip-path="url(#clip0_1730_5455)">
<g id="Group">
<path id="Vector" d="M35 0C22.7001 0 12.4414 9.90799 12.4414 22.5585C12.4414 27.3713 13.8876 31.6629 16.6631 35.6843L33.2737 61.6034C34.0795 62.8634 35.9222 62.861 36.7263 61.6034L53.4089 35.5962C56.1247 31.757 57.5586 27.2489 57.5586 22.5585C57.5586 10.1198 47.4388 0 35 0ZM35 32.8124C29.3463 32.8124 24.7461 28.2123 24.7461 22.5585C24.7461 16.9048 29.3463 12.3047 35 12.3047C40.6537 12.3047 45.2539 16.9048 45.2539 22.5585C45.2539 28.2123 40.6537 32.8124 35 32.8124Z" fill="#F1CF57"/>
<path id="Vector_2" d="M51.0322 47.1262L40.7057 63.2708C38.0327 67.4383 31.9524 67.4246 29.2923 63.2748L18.9489 47.1304C9.8484 49.2345 4.23828 53.089 4.23828 57.6952C4.23828 65.688 20.0878 69.9998 35 69.9998C49.9122 69.9998 65.7617 65.688 65.7617 57.6952C65.7617 53.0857 60.1438 49.2292 51.0322 47.1262Z" fill="#F1CF57"/>
</g>
</g>
<defs>
<clipPath id="clip0_1730_5455">
<rect width="70" height="69.9999" fill="white"/>
</clipPath>
</defs>
</svg>
