<svg width="70" height="70" viewBox="0 0 70 70" fill="none" xmlns="http://www.w3.org/2000/svg">
<rect width="70" height="70" rx="10" fill="white"/>
<path d="M22.373 47.7552L46.7555 23.3727" stroke="#1C1C1C" stroke-width="1.3" stroke-linecap="round" stroke-linejoin="round"/>
<path d="M22.373 47.7552L46.7555 23.3727" stroke="black" stroke-opacity="0.2" stroke-width="1.3" stroke-linecap="round" stroke-linejoin="round"/>
<path d="M22.373 47.7552L46.7555 23.3727" stroke="black" stroke-opacity="0.2" stroke-width="1.3" stroke-linecap="round" stroke-linejoin="round"/>
<path d="M22.373 47.7552L46.7555 23.3727" stroke="black" stroke-opacity="0.2" stroke-width="1.3" stroke-linecap="round" stroke-linejoin="round"/>
<path d="M26.5858 32.1714C29.1184 32.1714 31.1714 30.1184 31.1714 27.5858C31.1714 25.0531 29.1184 23 26.5858 23C24.0531 23 22 25.0531 22 27.5858C22 30.1184 24.0531 32.1714 26.5858 32.1714Z" fill="#1C1C1C"/>
<path d="M26.5858 32.1714C29.1184 32.1714 31.1714 30.1184 31.1714 27.5858C31.1714 25.0531 29.1184 23 26.5858 23C24.0531 23 22 25.0531 22 27.5858C22 30.1184 24.0531 32.1714 26.5858 32.1714Z" fill="black" fill-opacity="0.2"/>
<path d="M26.5858 32.1714C29.1184 32.1714 31.1714 30.1184 31.1714 27.5858C31.1714 25.0531 29.1184 23 26.5858 23C24.0531 23 22 25.0531 22 27.5858C22 30.1184 24.0531 32.1714 26.5858 32.1714Z" fill="black" fill-opacity="0.2"/>
<path d="M26.5858 32.1714C29.1184 32.1714 31.1714 30.1184 31.1714 27.5858C31.1714 25.0531 29.1184 23 26.5858 23C24.0531 23 22 25.0531 22 27.5858C22 30.1184 24.0531 32.1714 26.5858 32.1714Z" fill="black" fill-opacity="0.2"/>
<path d="M26.5858 32.1714C29.1184 32.1714 31.1714 30.1184 31.1714 27.5858C31.1714 25.0531 29.1184 23 26.5858 23C24.0531 23 22 25.0531 22 27.5858C22 30.1184 24.0531 32.1714 26.5858 32.1714Z" stroke="#1C1C1C" stroke-width="1.3" stroke-linecap="round" stroke-linejoin="round"/>
<path d="M26.5858 32.1714C29.1184 32.1714 31.1714 30.1184 31.1714 27.5858C31.1714 25.0531 29.1184 23 26.5858 23C24.0531 23 22 25.0531 22 27.5858C22 30.1184 24.0531 32.1714 26.5858 32.1714Z" stroke="black" stroke-opacity="0.2" stroke-width="1.3" stroke-linecap="round" stroke-linejoin="round"/>
<path d="M26.5858 32.1714C29.1184 32.1714 31.1714 30.1184 31.1714 27.5858C31.1714 25.0531 29.1184 23 26.5858 23C24.0531 23 22 25.0531 22 27.5858C22 30.1184 24.0531 32.1714 26.5858 32.1714Z" stroke="black" stroke-opacity="0.2" stroke-width="1.3" stroke-linecap="round" stroke-linejoin="round"/>
<path d="M26.5858 32.1714C29.1184 32.1714 31.1714 30.1184 31.1714 27.5858C31.1714 25.0531 29.1184 23 26.5858 23C24.0531 23 22 25.0531 22 27.5858C22 30.1184 24.0531 32.1714 26.5858 32.1714Z" stroke="black" stroke-opacity="0.2" stroke-width="1.3" stroke-linecap="round" stroke-linejoin="round"/>
<path d="M43.363 47.5313C45.8956 47.5313 47.9487 45.4781 47.9487 42.9455C47.9487 40.4129 45.8956 38.3599 43.363 38.3599C40.8304 38.3599 38.7773 40.4129 38.7773 42.9455C38.7773 45.4781 40.8304 47.5313 43.363 47.5313Z" fill="#1C1C1C"/>
<path d="M43.363 47.5313C45.8956 47.5313 47.9487 45.4781 47.9487 42.9455C47.9487 40.4129 45.8956 38.3599 43.363 38.3599C40.8304 38.3599 38.7773 40.4129 38.7773 42.9455C38.7773 45.4781 40.8304 47.5313 43.363 47.5313Z" fill="black" fill-opacity="0.2"/>
<path d="M43.363 47.5313C45.8956 47.5313 47.9487 45.4781 47.9487 42.9455C47.9487 40.4129 45.8956 38.3599 43.363 38.3599C40.8304 38.3599 38.7773 40.4129 38.7773 42.9455C38.7773 45.4781 40.8304 47.5313 43.363 47.5313Z" fill="black" fill-opacity="0.2"/>
<path d="M43.363 47.5313C45.8956 47.5313 47.9487 45.4781 47.9487 42.9455C47.9487 40.4129 45.8956 38.3599 43.363 38.3599C40.8304 38.3599 38.7773 40.4129 38.7773 42.9455C38.7773 45.4781 40.8304 47.5313 43.363 47.5313Z" fill="black" fill-opacity="0.2"/>
<path d="M43.363 47.5313C45.8956 47.5313 47.9487 45.4781 47.9487 42.9455C47.9487 40.4129 45.8956 38.3599 43.363 38.3599C40.8304 38.3599 38.7773 40.4129 38.7773 42.9455C38.7773 45.4781 40.8304 47.5313 43.363 47.5313Z" stroke="#1C1C1C" stroke-width="1.3" stroke-linecap="round" stroke-linejoin="round"/>
<path d="M43.363 47.5313C45.8956 47.5313 47.9487 45.4781 47.9487 42.9455C47.9487 40.4129 45.8956 38.3599 43.363 38.3599C40.8304 38.3599 38.7773 40.4129 38.7773 42.9455C38.7773 45.4781 40.8304 47.5313 43.363 47.5313Z" stroke="black" stroke-opacity="0.2" stroke-width="1.3" stroke-linecap="round" stroke-linejoin="round"/>
<path d="M43.363 47.5313C45.8956 47.5313 47.9487 45.4781 47.9487 42.9455C47.9487 40.4129 45.8956 38.3599 43.363 38.3599C40.8304 38.3599 38.7773 40.4129 38.7773 42.9455C38.7773 45.4781 40.8304 47.5313 43.363 47.5313Z" stroke="black" stroke-opacity="0.2" stroke-width="1.3" stroke-linecap="round" stroke-linejoin="round"/>
<path d="M43.363 47.5313C45.8956 47.5313 47.9487 45.4781 47.9487 42.9455C47.9487 40.4129 45.8956 38.3599 43.363 38.3599C40.8304 38.3599 38.7773 40.4129 38.7773 42.9455C38.7773 45.4781 40.8304 47.5313 43.363 47.5313Z" stroke="black" stroke-opacity="0.2" stroke-width="1.3" stroke-linecap="round" stroke-linejoin="round"/>
</svg>
