<svg width="30" height="31" viewBox="0 0 30 31" fill="none" xmlns="http://www.w3.org/2000/svg">
<path d="M14.375 27.427C7.3125 27.427 1.5625 21.677 1.5625 14.6145C1.5625 7.552 7.3125 1.802 14.375 1.802C21.4375 1.802 27.1875 7.552 27.1875 14.6145C27.1875 21.677 21.4375 27.427 14.375 27.427ZM14.375 3.677C8.3375 3.677 3.4375 8.5895 3.4375 14.6145C3.4375 20.6395 8.3375 25.552 14.375 25.552C20.4125 25.552 25.3125 20.6395 25.3125 14.6145C25.3125 8.5895 20.4125 3.677 14.375 3.677Z" fill="#1C1C1C"/>
<path d="M14.375 27.427C7.3125 27.427 1.5625 21.677 1.5625 14.6145C1.5625 7.552 7.3125 1.802 14.375 1.802C21.4375 1.802 27.1875 7.552 27.1875 14.6145C27.1875 21.677 21.4375 27.427 14.375 27.427ZM14.375 3.677C8.3375 3.677 3.4375 8.5895 3.4375 14.6145C3.4375 20.6395 8.3375 25.552 14.375 25.552C20.4125 25.552 25.3125 20.6395 25.3125 14.6145C25.3125 8.5895 20.4125 3.677 14.375 3.677Z" fill="black" fill-opacity="0.2"/>
<path d="M14.375 27.427C7.3125 27.427 1.5625 21.677 1.5625 14.6145C1.5625 7.552 7.3125 1.802 14.375 1.802C21.4375 1.802 27.1875 7.552 27.1875 14.6145C27.1875 21.677 21.4375 27.427 14.375 27.427ZM14.375 3.677C8.3375 3.677 3.4375 8.5895 3.4375 14.6145C3.4375 20.6395 8.3375 25.552 14.375 25.552C20.4125 25.552 25.3125 20.6395 25.3125 14.6145C25.3125 8.5895 20.4125 3.677 14.375 3.677Z" fill="black" fill-opacity="0.2"/>
<path d="M14.375 27.427C7.3125 27.427 1.5625 21.677 1.5625 14.6145C1.5625 7.552 7.3125 1.802 14.375 1.802C21.4375 1.802 27.1875 7.552 27.1875 14.6145C27.1875 21.677 21.4375 27.427 14.375 27.427ZM14.375 3.677C8.3375 3.677 3.4375 8.5895 3.4375 14.6145C3.4375 20.6395 8.3375 25.552 14.375 25.552C20.4125 25.552 25.3125 20.6395 25.3125 14.6145C25.3125 8.5895 20.4125 3.677 14.375 3.677Z" fill="black" fill-opacity="0.2"/>
<path d="M27.5008 28.6768C27.2633 28.6768 27.0258 28.5893 26.8383 28.4018L24.3383 25.9018C23.9758 25.5393 23.9758 24.9393 24.3383 24.5768C24.7008 24.2143 25.3008 24.2143 25.6633 24.5768L28.1633 27.0768C28.5258 27.4393 28.5258 28.0393 28.1633 28.4018C27.9758 28.5893 27.7383 28.6768 27.5008 28.6768Z" fill="#1C1C1C"/>
<path d="M27.5008 28.6768C27.2633 28.6768 27.0258 28.5893 26.8383 28.4018L24.3383 25.9018C23.9758 25.5393 23.9758 24.9393 24.3383 24.5768C24.7008 24.2143 25.3008 24.2143 25.6633 24.5768L28.1633 27.0768C28.5258 27.4393 28.5258 28.0393 28.1633 28.4018C27.9758 28.5893 27.7383 28.6768 27.5008 28.6768Z" fill="black" fill-opacity="0.2"/>
<path d="M27.5008 28.6768C27.2633 28.6768 27.0258 28.5893 26.8383 28.4018L24.3383 25.9018C23.9758 25.5393 23.9758 24.9393 24.3383 24.5768C24.7008 24.2143 25.3008 24.2143 25.6633 24.5768L28.1633 27.0768C28.5258 27.4393 28.5258 28.0393 28.1633 28.4018C27.9758 28.5893 27.7383 28.6768 27.5008 28.6768Z" fill="black" fill-opacity="0.2"/>
<path d="M27.5008 28.6768C27.2633 28.6768 27.0258 28.5893 26.8383 28.4018L24.3383 25.9018C23.9758 25.5393 23.9758 24.9393 24.3383 24.5768C24.7008 24.2143 25.3008 24.2143 25.6633 24.5768L28.1633 27.0768C28.5258 27.4393 28.5258 28.0393 28.1633 28.4018C27.9758 28.5893 27.7383 28.6768 27.5008 28.6768Z" fill="black" fill-opacity="0.2"/>
</svg>
