<svg width="70" height="70" viewBox="0 0 70 70" fill="none" xmlns="http://www.w3.org/2000/svg">
<g id="Frame">
<g id="Group">
<path id="Vector" d="M69.9344 23.5331L65.975 7.68687C65.4894 5.74 63.7394 4.375 61.7312 4.375H8.27313C6.265 4.375 4.515 5.74 4.025 7.68687L0.065625 23.5331C0.021875 23.7037 0 23.8831 0 24.0625C0 30.0912 4.65938 34.9999 10.3906 34.9999C13.72 34.9999 16.6906 33.3418 18.5938 30.7693C20.4969 33.3418 23.4675 34.9999 26.7969 34.9999C30.1262 34.9999 33.0969 33.3418 35 30.7693C36.9031 33.3418 39.8694 34.9999 43.2031 34.9999C46.5369 34.9999 49.5031 33.3418 51.4062 30.7693C53.3094 33.3418 56.2756 34.9999 59.6094 34.9999C65.3406 34.9999 70 30.0912 70 24.0625C70 23.8831 69.9781 23.7037 69.9344 23.5331ZM59.6094 39.3749C56.63 39.3749 53.7994 38.4649 51.4062 36.8024C46.62 40.1318 39.7862 40.1318 35 36.8024C30.2138 40.1318 23.38 40.1318 18.5938 36.8024C16.2006 38.4649 13.37 39.3749 10.3906 39.3749C8.2425 39.3749 6.21688 38.8718 4.375 38.0143V61.2499C4.375 63.6649 6.335 65.6249 8.75 65.6249H26.25V48.1249H43.75V65.6249H61.25C63.665 65.6249 65.625 63.6649 65.625 61.2499V38.0143C63.7831 38.8718 61.7575 39.3749 59.6094 39.3749Z" fill="#F1CF57"/>
</g>
</g>
</svg>
