<svg width="30" height="30" viewBox="0 0 30 30" fill="none" xmlns="http://www.w3.org/2000/svg">
<g id="Icon 30x30">
<g id="Vector">
<path d="M15.5 2C12.1848 2 9.00537 3.31696 6.66117 5.66117C4.31696 8.00537 3 11.1848 3 14.5C3 17.8152 4.31696 20.9946 6.66117 23.3388C9.00537 25.683 12.1848 27 15.5 27C18.8152 27 21.9946 25.683 24.3388 23.3388C26.683 20.9946 28 17.8152 28 14.5C28 11.1848 26.683 8.00537 24.3388 5.66117C21.9946 3.31696 18.8152 2 15.5 2ZM4.54167 15.4444H8.02778C8.08333 16.7083 8.25972 17.9639 8.55556 19.1944H5.55556C4.99612 18.0151 4.65272 16.745 4.54167 15.4444ZM16.4444 7.94444V3.65278C17.7829 4.16142 18.8827 5.15225 19.5278 6.43056C19.8125 6.9125 20.0639 7.41389 20.2778 7.93056L16.4444 7.94444ZM20.9167 9.81944C21.2389 11.0458 21.4306 12.3028 21.4861 13.5694H16.4444V9.81944H20.9167ZM14.5556 3.65278V7.94444H10.7222C10.9365 7.42736 11.1871 6.9261 11.4722 6.44444C12.1145 5.16091 13.2147 4.16481 14.5556 3.65278ZM14.5556 9.81944V13.5694H9.52778C9.58333 12.3028 9.775 11.0458 10.0972 9.81944H14.5556ZM8.02778 13.5556H4.54167C4.65272 12.255 4.99612 10.9849 5.55556 9.80555H8.55556C8.25915 11.0356 8.08241 12.2915 8.02778 13.5556ZM9.52778 15.4444H14.5556V19.1944H10.0972C9.77505 17.9682 9.58416 16.7111 9.52778 15.4444ZM14.5694 21V25.2917C13.231 24.783 12.1312 23.7922 11.4861 22.5139C11.201 22.0322 10.9504 21.531 10.7361 21.0139L14.5694 21ZM16.4444 25.2917V21.0694H20.2778C20.0635 21.5865 19.8129 22.0878 19.5278 22.5694C18.8827 23.8477 17.7829 24.8386 16.4444 25.3472V25.2917ZM16.4444 19.125V15.375H21.4722C21.4158 16.6416 21.2249 17.8987 20.9028 19.125H16.4444ZM22.9861 15.375H26.4722C26.3612 16.6756 26.0178 17.9457 25.4583 19.125H22.4444C22.7361 17.9167 22.9125 16.6847 22.9722 15.4444L22.9861 15.375ZM22.9861 13.5C22.9225 12.2588 22.7411 11.0264 22.4444 9.81944H25.4444C26.0042 11 26.3472 12.2694 26.4583 13.5694L22.9861 13.5ZM24.375 7.94444H21.8889C21.4391 6.68097 20.7871 5.49892 19.9583 4.44444C21.6866 5.22025 23.1879 6.42507 24.3194 7.94444H24.375ZM11.0417 4.44444C10.2129 5.49892 9.56094 6.68097 9.11111 7.94444H6.68056C7.81211 6.42507 9.31336 5.22025 11.0417 4.44444ZM6.66667 21.1111H9.11111C9.56094 22.3746 10.2129 23.5566 11.0417 24.6111C9.30858 23.8236 7.80687 22.6041 6.68056 21.0694L6.66667 21.1111ZM19.9444 24.6111C20.7732 23.5566 21.4252 22.3746 21.875 21.1111H24.3194C23.181 22.6101 21.6803 23.7953 19.9583 24.5556L19.9444 24.6111Z" fill="#1C1C1C"/>
<path d="M15.5 2C12.1848 2 9.00537 3.31696 6.66117 5.66117C4.31696 8.00537 3 11.1848 3 14.5C3 17.8152 4.31696 20.9946 6.66117 23.3388C9.00537 25.683 12.1848 27 15.5 27C18.8152 27 21.9946 25.683 24.3388 23.3388C26.683 20.9946 28 17.8152 28 14.5C28 11.1848 26.683 8.00537 24.3388 5.66117C21.9946 3.31696 18.8152 2 15.5 2ZM4.54167 15.4444H8.02778C8.08333 16.7083 8.25972 17.9639 8.55556 19.1944H5.55556C4.99612 18.0151 4.65272 16.745 4.54167 15.4444ZM16.4444 7.94444V3.65278C17.7829 4.16142 18.8827 5.15225 19.5278 6.43056C19.8125 6.9125 20.0639 7.41389 20.2778 7.93056L16.4444 7.94444ZM20.9167 9.81944C21.2389 11.0458 21.4306 12.3028 21.4861 13.5694H16.4444V9.81944H20.9167ZM14.5556 3.65278V7.94444H10.7222C10.9365 7.42736 11.1871 6.9261 11.4722 6.44444C12.1145 5.16091 13.2147 4.16481 14.5556 3.65278ZM14.5556 9.81944V13.5694H9.52778C9.58333 12.3028 9.775 11.0458 10.0972 9.81944H14.5556ZM8.02778 13.5556H4.54167C4.65272 12.255 4.99612 10.9849 5.55556 9.80555H8.55556C8.25915 11.0356 8.08241 12.2915 8.02778 13.5556ZM9.52778 15.4444H14.5556V19.1944H10.0972C9.77505 17.9682 9.58416 16.7111 9.52778 15.4444ZM14.5694 21V25.2917C13.231 24.783 12.1312 23.7922 11.4861 22.5139C11.201 22.0322 10.9504 21.531 10.7361 21.0139L14.5694 21ZM16.4444 25.2917V21.0694H20.2778C20.0635 21.5865 19.8129 22.0878 19.5278 22.5694C18.8827 23.8477 17.7829 24.8386 16.4444 25.3472V25.2917ZM16.4444 19.125V15.375H21.4722C21.4158 16.6416 21.2249 17.8987 20.9028 19.125H16.4444ZM22.9861 15.375H26.4722C26.3612 16.6756 26.0178 17.9457 25.4583 19.125H22.4444C22.7361 17.9167 22.9125 16.6847 22.9722 15.4444L22.9861 15.375ZM22.9861 13.5C22.9225 12.2588 22.7411 11.0264 22.4444 9.81944H25.4444C26.0042 11 26.3472 12.2694 26.4583 13.5694L22.9861 13.5ZM24.375 7.94444H21.8889C21.4391 6.68097 20.7871 5.49892 19.9583 4.44444C21.6866 5.22025 23.1879 6.42507 24.3194 7.94444H24.375ZM11.0417 4.44444C10.2129 5.49892 9.56094 6.68097 9.11111 7.94444H6.68056C7.81211 6.42507 9.31336 5.22025 11.0417 4.44444ZM6.66667 21.1111H9.11111C9.56094 22.3746 10.2129 23.5566 11.0417 24.6111C9.30858 23.8236 7.80687 22.6041 6.68056 21.0694L6.66667 21.1111ZM19.9444 24.6111C20.7732 23.5566 21.4252 22.3746 21.875 21.1111H24.3194C23.181 22.6101 21.6803 23.7953 19.9583 24.5556L19.9444 24.6111Z" fill="black" fill-opacity="0.2"/>
<path d="M15.5 2C12.1848 2 9.00537 3.31696 6.66117 5.66117C4.31696 8.00537 3 11.1848 3 14.5C3 17.8152 4.31696 20.9946 6.66117 23.3388C9.00537 25.683 12.1848 27 15.5 27C18.8152 27 21.9946 25.683 24.3388 23.3388C26.683 20.9946 28 17.8152 28 14.5C28 11.1848 26.683 8.00537 24.3388 5.66117C21.9946 3.31696 18.8152 2 15.5 2ZM4.54167 15.4444H8.02778C8.08333 16.7083 8.25972 17.9639 8.55556 19.1944H5.55556C4.99612 18.0151 4.65272 16.745 4.54167 15.4444ZM16.4444 7.94444V3.65278C17.7829 4.16142 18.8827 5.15225 19.5278 6.43056C19.8125 6.9125 20.0639 7.41389 20.2778 7.93056L16.4444 7.94444ZM20.9167 9.81944C21.2389 11.0458 21.4306 12.3028 21.4861 13.5694H16.4444V9.81944H20.9167ZM14.5556 3.65278V7.94444H10.7222C10.9365 7.42736 11.1871 6.9261 11.4722 6.44444C12.1145 5.16091 13.2147 4.16481 14.5556 3.65278ZM14.5556 9.81944V13.5694H9.52778C9.58333 12.3028 9.775 11.0458 10.0972 9.81944H14.5556ZM8.02778 13.5556H4.54167C4.65272 12.255 4.99612 10.9849 5.55556 9.80555H8.55556C8.25915 11.0356 8.08241 12.2915 8.02778 13.5556ZM9.52778 15.4444H14.5556V19.1944H10.0972C9.77505 17.9682 9.58416 16.7111 9.52778 15.4444ZM14.5694 21V25.2917C13.231 24.783 12.1312 23.7922 11.4861 22.5139C11.201 22.0322 10.9504 21.531 10.7361 21.0139L14.5694 21ZM16.4444 25.2917V21.0694H20.2778C20.0635 21.5865 19.8129 22.0878 19.5278 22.5694C18.8827 23.8477 17.7829 24.8386 16.4444 25.3472V25.2917ZM16.4444 19.125V15.375H21.4722C21.4158 16.6416 21.2249 17.8987 20.9028 19.125H16.4444ZM22.9861 15.375H26.4722C26.3612 16.6756 26.0178 17.9457 25.4583 19.125H22.4444C22.7361 17.9167 22.9125 16.6847 22.9722 15.4444L22.9861 15.375ZM22.9861 13.5C22.9225 12.2588 22.7411 11.0264 22.4444 9.81944H25.4444C26.0042 11 26.3472 12.2694 26.4583 13.5694L22.9861 13.5ZM24.375 7.94444H21.8889C21.4391 6.68097 20.7871 5.49892 19.9583 4.44444C21.6866 5.22025 23.1879 6.42507 24.3194 7.94444H24.375ZM11.0417 4.44444C10.2129 5.49892 9.56094 6.68097 9.11111 7.94444H6.68056C7.81211 6.42507 9.31336 5.22025 11.0417 4.44444ZM6.66667 21.1111H9.11111C9.56094 22.3746 10.2129 23.5566 11.0417 24.6111C9.30858 23.8236 7.80687 22.6041 6.68056 21.0694L6.66667 21.1111ZM19.9444 24.6111C20.7732 23.5566 21.4252 22.3746 21.875 21.1111H24.3194C23.181 22.6101 21.6803 23.7953 19.9583 24.5556L19.9444 24.6111Z" fill="black" fill-opacity="0.2"/>
<path d="M15.5 2C12.1848 2 9.00537 3.31696 6.66117 5.66117C4.31696 8.00537 3 11.1848 3 14.5C3 17.8152 4.31696 20.9946 6.66117 23.3388C9.00537 25.683 12.1848 27 15.5 27C18.8152 27 21.9946 25.683 24.3388 23.3388C26.683 20.9946 28 17.8152 28 14.5C28 11.1848 26.683 8.00537 24.3388 5.66117C21.9946 3.31696 18.8152 2 15.5 2ZM4.54167 15.4444H8.02778C8.08333 16.7083 8.25972 17.9639 8.55556 19.1944H5.55556C4.99612 18.0151 4.65272 16.745 4.54167 15.4444ZM16.4444 7.94444V3.65278C17.7829 4.16142 18.8827 5.15225 19.5278 6.43056C19.8125 6.9125 20.0639 7.41389 20.2778 7.93056L16.4444 7.94444ZM20.9167 9.81944C21.2389 11.0458 21.4306 12.3028 21.4861 13.5694H16.4444V9.81944H20.9167ZM14.5556 3.65278V7.94444H10.7222C10.9365 7.42736 11.1871 6.9261 11.4722 6.44444C12.1145 5.16091 13.2147 4.16481 14.5556 3.65278ZM14.5556 9.81944V13.5694H9.52778C9.58333 12.3028 9.775 11.0458 10.0972 9.81944H14.5556ZM8.02778 13.5556H4.54167C4.65272 12.255 4.99612 10.9849 5.55556 9.80555H8.55556C8.25915 11.0356 8.08241 12.2915 8.02778 13.5556ZM9.52778 15.4444H14.5556V19.1944H10.0972C9.77505 17.9682 9.58416 16.7111 9.52778 15.4444ZM14.5694 21V25.2917C13.231 24.783 12.1312 23.7922 11.4861 22.5139C11.201 22.0322 10.9504 21.531 10.7361 21.0139L14.5694 21ZM16.4444 25.2917V21.0694H20.2778C20.0635 21.5865 19.8129 22.0878 19.5278 22.5694C18.8827 23.8477 17.7829 24.8386 16.4444 25.3472V25.2917ZM16.4444 19.125V15.375H21.4722C21.4158 16.6416 21.2249 17.8987 20.9028 19.125H16.4444ZM22.9861 15.375H26.4722C26.3612 16.6756 26.0178 17.9457 25.4583 19.125H22.4444C22.7361 17.9167 22.9125 16.6847 22.9722 15.4444L22.9861 15.375ZM22.9861 13.5C22.9225 12.2588 22.7411 11.0264 22.4444 9.81944H25.4444C26.0042 11 26.3472 12.2694 26.4583 13.5694L22.9861 13.5ZM24.375 7.94444H21.8889C21.4391 6.68097 20.7871 5.49892 19.9583 4.44444C21.6866 5.22025 23.1879 6.42507 24.3194 7.94444H24.375ZM11.0417 4.44444C10.2129 5.49892 9.56094 6.68097 9.11111 7.94444H6.68056C7.81211 6.42507 9.31336 5.22025 11.0417 4.44444ZM6.66667 21.1111H9.11111C9.56094 22.3746 10.2129 23.5566 11.0417 24.6111C9.30858 23.8236 7.80687 22.6041 6.68056 21.0694L6.66667 21.1111ZM19.9444 24.6111C20.7732 23.5566 21.4252 22.3746 21.875 21.1111H24.3194C23.181 22.6101 21.6803 23.7953 19.9583 24.5556L19.9444 24.6111Z" fill="black" fill-opacity="0.2"/>
</g>
</g>
</svg>
