<svg width="30" height="14" viewBox="0 0 30 14" fill="none" xmlns="http://www.w3.org/2000/svg">
<path d="M29 7.72001C29.359 7.72001 29.65 7.42899 29.65 7.07001C29.65 6.71102 29.359 6.42001 29 6.42001V7.72001ZM23.4596 0.540381C23.2058 0.28654 22.7942 0.28654 22.5404 0.540381C22.2865 0.794221 22.2865 1.20578 22.5404 1.45962L23.4596 0.540381ZM29 7L29.4596 7.45962C29.5815 7.33772 29.65 7.17239 29.65 7C29.65 6.82761 29.5815 6.66228 29.4596 6.54038L29 7ZM22.5404 12.5404C22.2865 12.7942 22.2865 13.2058 22.5404 13.4596C22.7942 13.7135 23.2058 13.7135 23.4596 13.4596L22.5404 12.5404ZM0 7.72001H29V6.42001H0V7.72001ZM22.5404 1.45962L28.5404 7.45962L29.4596 6.54038L23.4596 0.540381L22.5404 1.45962ZM28.5404 6.54038L22.5404 12.5404L23.4596 13.4596L29.4596 7.45962L28.5404 6.54038Z" fill="white"/>
</svg>
