<svg width="70" height="70" viewBox="0 0 70 70" fill="none" xmlns="http://www.w3.org/2000/svg">
<g id="Frame" clip-path="url(#clip0_1730_4337)">
<path id="Subtract" fill-rule="evenodd" clip-rule="evenodd" d="M10 0C4.47715 0 0 4.47716 0 10V59.9999C0 65.5227 4.47715 69.9999 10 69.9999H60C65.5229 69.9999 70 65.5227 70 59.9999V10C70 4.47715 65.5229 0 60 0H10ZM43.5628 35.6325H57.9688V31.086H50.1276L52.4526 28.9519C53.6379 27.8385 54.5952 26.8642 55.3246 26.0292C56.054 25.1632 56.5859 24.3436 56.9202 23.5704C57.2545 22.7662 57.4217 21.9002 57.4217 20.9724C57.4217 19.1476 56.8138 17.7558 55.5982 16.797C54.4129 15.8073 52.8325 15.3125 50.857 15.3125C49.2462 15.3125 47.833 15.5908 46.6173 16.1475C45.432 16.6733 44.353 17.3692 43.3805 18.2352L46.1158 21.6683C46.906 20.9569 47.6202 20.4466 48.2584 20.1373C48.9271 19.828 49.5501 19.6734 50.1276 19.6734C50.7354 19.6734 51.2065 19.828 51.5408 20.1373C51.9055 20.4466 52.0879 20.8796 52.0879 21.4363C52.0879 21.9621 51.9815 22.4724 51.7687 22.9673C51.556 23.4621 51.1913 24.0188 50.6746 24.6374C50.158 25.225 49.4437 25.9673 48.532 26.8642L43.5628 31.8283V35.6325ZM16.8562 52.5836C19.3437 54.7153 22.7149 55.7811 26.9698 55.7811C31.0938 55.7811 34.4159 54.7819 36.9361 52.7835C39.4563 50.7517 40.7164 47.8872 40.7164 44.1901C40.7164 43.091 40.5691 42.0751 40.2746 41.1425C40.0127 40.2099 39.6854 39.4105 39.2927 38.7443C38.9326 38.0782 38.3926 37.462 37.6725 36.8958C36.9525 36.3295 36.3142 35.8799 35.7578 35.5468C35.2341 35.2137 34.4814 34.8807 33.4995 34.5476C32.5503 34.1812 31.8139 33.9314 31.2902 33.7982C30.7665 33.6316 30.0137 33.4151 29.0318 33.1487C28.3117 32.9821 27.7717 32.8489 27.4117 32.749C27.0844 32.649 26.6425 32.5158 26.0861 32.3493C25.5624 32.1494 25.1533 31.9829 24.8587 31.8497C24.5969 31.6831 24.3187 31.4999 24.0241 31.3001C23.7295 31.0669 23.5168 30.8171 23.3859 30.5507C23.2549 30.2842 23.1895 30.0011 23.1895 29.7013C23.1895 28.9019 23.5168 28.3024 24.1714 27.9027C24.826 27.503 25.6115 27.3032 26.528 27.3032C27.5426 27.3032 28.3936 27.5863 29.0809 28.1525C29.7682 28.6854 30.1119 29.4848 30.1119 30.5507H39.5872C39.5872 26.9868 38.4417 24.1889 36.1506 22.1572C33.8922 20.1254 30.7174 19.1095 26.6261 19.1095C22.5349 19.1095 19.3273 20.0754 17.0035 22.0073C14.7124 23.9058 13.5669 26.5538 13.5669 29.9511C13.5669 31.0503 13.6978 32.0662 13.9596 32.9988C14.2215 33.9314 14.5324 34.7141 14.8924 35.347C15.2525 35.9798 15.7761 36.5793 16.4635 37.1456C17.1508 37.7118 17.7563 38.1614 18.28 38.4945C18.8037 38.7943 19.5401 39.1107 20.4893 39.4438C21.4384 39.7769 22.1585 40.01 22.6494 40.1432L24.8587 40.7428C25.4151 40.876 25.8079 40.9759 26.037 41.0425C26.2988 41.1092 26.6589 41.2091 27.1171 41.3423C27.608 41.4755 27.9681 41.5921 28.1972 41.692C28.4263 41.7587 28.7045 41.8752 29.0318 42.0418C29.3918 42.175 29.6537 42.3249 29.8173 42.4914C29.981 42.6247 30.1446 42.7912 30.3083 42.991C30.5047 43.1909 30.6356 43.4074 30.701 43.6405C30.7665 43.8404 30.7992 44.0902 30.7992 44.39C30.7992 45.2893 30.4065 46.0054 29.6209 46.5383C28.8682 47.0712 27.9681 47.3377 26.9207 47.3377C25.7752 47.3377 24.8096 47.0213 24.0241 46.3884C23.2713 45.7556 22.8949 44.8396 22.8949 43.6405H13.125C13.125 47.4376 14.3687 50.4186 16.8562 52.5836Z" fill="#F1CF57"/>
</g>
<defs>
<clipPath id="clip0_1730_4337">
<rect width="70" height="69.9999" fill="white"/>
</clipPath>
</defs>
</svg>
