<svg width="136" height="34" viewBox="0 0 136 34" fill="none" xmlns="http://www.w3.org/2000/svg">
<g id="Layer_1" style="mix-blend-mode:luminosity" clip-path="url(#clip0_925_50298)">
<path id="Vector" d="M44.0454 9.9986C40.3226 9.9986 37.5623 13.0069 37.5623 17.8234C37.5623 22.067 40.1425 25.0762 44.2833 25.0762C46.8072 25.0762 48.2778 24.4416 48.8165 24.1428L48.4581 23.0291C47.6477 23.419 46.5661 23.8419 44.4647 23.8419C41.4942 23.8419 38.972 22.006 38.972 17.4005H49.5962C49.6526 17.1135 49.6735 16.8206 49.6586 16.5284C49.6586 14.4526 48.7585 9.9986 44.0454 9.9986ZM39.0623 16.2563C39.3354 14.0321 40.6826 11.1999 43.864 11.1999C47.3471 11.1999 48.188 14.2411 48.1556 16.2563H39.0623ZM58.4515 17.1603V17.0996C60.1925 16.7094 61.5122 15.5049 61.5122 13.7593C61.5122 10.6599 57.9404 10.1778 55.5405 10.1778C54.254 10.1759 52.9693 10.2767 51.6987 10.4793V24.7754C52.4188 24.8346 53.7995 24.9251 55.15 24.9251C57.9118 24.9251 62.1714 24.3837 62.1714 20.8032C62.1714 18.6036 60.5237 17.4299 58.4515 17.1603ZM53.0489 11.5622C53.8256 11.468 54.6071 11.418 55.3894 11.4124C58.5126 11.4124 60.0446 12.1653 60.0446 13.9403C60.0446 15.987 57.521 16.648 55.4811 16.648H53.0489V11.5622ZM55.4811 23.7224C54.659 23.727 53.8373 23.6857 53.0199 23.5986V17.8234H55.3282C58.0319 17.8234 60.702 18.2161 60.702 20.8032C60.702 23.3584 57.3988 23.7224 55.4811 23.7224ZM71.117 9.9986C68.595 9.9986 66.8252 11.1712 65.7736 13.0679H65.7146L65.6243 10.3279H64.2451C64.335 11.7122 64.364 13.1275 64.364 14.9344V29.296H65.8044V22.4267H65.8653C66.8556 24.1723 68.6849 25.1057 70.7586 25.1057C74.2374 25.1057 77.2996 22.4569 77.2996 17.3104C77.2996 13.0679 74.8094 9.9986 71.117 9.9986ZM70.667 23.9002C69.5815 23.9062 68.5253 23.5482 67.6661 22.8831C66.8069 22.218 66.1941 21.284 65.9251 20.2295C65.8381 19.8552 65.7976 19.4715 65.8044 19.0871V16.2563C65.8308 15.839 65.9009 15.4257 66.0136 15.0231C66.2767 13.947 66.8875 12.9885 67.7507 12.297C68.614 11.6054 69.6811 11.2197 70.7858 11.1999C74.0586 11.1999 75.8592 14.1223 75.8592 17.37C75.8592 21.2226 73.967 23.9002 70.667 23.9002ZM85.0748 9.9986C81.5016 9.9986 78.261 12.7358 78.261 17.6701C78.261 22.1865 81.1428 25.1057 84.8643 25.1057H84.8933C88.0759 25.1057 91.7666 22.7889 91.7666 17.4299C91.7666 13.0069 89.0648 9.9986 85.0748 9.9986ZM84.9541 23.9002H84.9223C81.9821 23.9002 79.701 21.1949 79.701 17.5814C79.701 14.4803 81.3502 11.1999 85.0444 11.1999C88.8557 11.1999 90.3265 14.8428 90.3265 17.4923C90.3265 21.1949 87.957 23.9002 84.9541 23.9002ZM103.712 10.3279H95.2468V14.211C95.2862 16.3941 94.9726 18.5692 94.3183 20.6517C93.9431 21.6785 93.4503 22.6581 92.8499 23.5709H91.7089L91.8246 29.29H93.0269L93.1185 24.7754H103.712L103.804 29.29H105.003L105.125 23.5709H103.712V10.3279ZM102.271 23.5709H94.4417C94.9465 22.6688 95.3667 21.7217 95.6972 20.7419C96.301 18.6598 96.5951 16.4998 96.57 14.3316V11.5303H102.271V23.5709ZM112.746 9.9986C109.174 9.9986 105.934 12.7358 105.934 17.6701C105.934 22.1865 108.814 25.1057 112.537 25.1057H112.564C115.747 25.1057 119.44 22.7889 119.44 17.4299C119.44 13.0069 116.738 9.9986 112.746 9.9986ZM112.626 23.9002H112.597C109.655 23.9002 107.374 21.1949 107.374 17.5814C107.374 14.4803 109.025 11.1999 112.715 11.1999C116.529 11.1999 118.001 14.8428 118.001 17.4923C118.001 21.1949 115.627 23.9002 112.626 23.9002ZM134.598 10.3279H132.883L130.092 17.3398C129.433 19.0254 128.414 21.7654 128.022 22.9085H127.994C127.663 21.8867 126.913 19.928 126.464 18.7273L123.192 10.3279H121.539L120.401 24.7754H121.841L122.289 17.2216C122.381 15.413 122.5 13.5514 122.532 11.9219H122.65C123.042 13.2488 123.762 15.3843 124.27 16.7094L127.364 24.7754H128.414L131.687 16.5884C132.557 14.4221 133.155 12.8554 133.423 11.9219H133.517C133.605 13.7288 133.727 15.413 133.816 17.1603L134.235 24.7754H135.677L134.598 10.3279Z" fill="#161412"/>
<path id="Vector_2" d="M7.6698 30.7924L7.43794 30.6377L7.60563 30.4126C9.67163 27.6863 12.9231 23.3158 16.8123 23.2835C20.7014 23.3158 23.9543 27.6863 26.0201 30.4126L26.188 30.6377L25.9559 30.7924C23.2486 32.6025 20.0662 33.5657 16.8123 33.56C13.5585 33.5668 10.3762 32.6034 7.6698 30.7924ZM16.8123 33.0292C19.8662 33.0343 22.8571 32.1585 25.4283 30.5062C23.379 27.7613 20.184 23.7857 16.8123 23.8127C13.4419 23.7857 10.2467 27.7613 8.19627 30.5062C10.7675 32.1584 13.7584 33.0342 16.8123 33.0292ZM26.702 29.9585C25.0359 27.5657 22.5352 23.9887 22.5247 20.6845C22.5206 20.1041 22.6081 19.5267 22.7838 18.9737C24.0151 15.2743 29.1663 13.5242 32.3918 12.3979L32.6558 12.3061L32.732 12.5757C33.1375 14.0252 33.3434 15.5235 33.344 17.029C33.3428 18.7681 33.0684 20.4961 32.5308 22.1495C31.5308 25.2543 29.6339 27.9915 27.0806 30.0139L26.8625 30.1882L26.702 29.9585ZM23.2858 19.1388C23.1274 19.6385 23.0487 20.1602 23.0526 20.6845C23.0417 23.623 25.3108 27.0502 26.9706 29.4217C29.3324 27.4808 31.0877 24.8997 32.027 21.9861C32.5473 20.3854 32.813 18.7125 32.8144 17.029C32.8132 15.6661 32.6388 14.3089 32.2956 12.9902C29.0609 14.0965 24.3005 15.9136 23.2858 19.1388ZM6.5819 29.9617C4.03041 27.9378 2.13391 25.2015 1.13171 22.098C0.594442 20.4444 0.320531 18.7162 0.320068 16.9771C0.320346 15.4715 0.526188 13.9731 0.931862 12.5235L1.00828 12.2542L1.27212 12.3443C4.49771 13.472 9.65015 15.2221 10.8799 18.9214C11.0551 19.474 11.1426 20.0507 11.1393 20.6305C11.1273 23.9354 8.6278 27.5138 6.96326 29.9052L6.80151 30.1363L6.5819 29.9617ZM0.849503 16.9771C0.849788 18.6605 1.11498 20.3333 1.63529 21.9339C2.57504 24.8476 4.33086 27.4288 6.6933 29.3694C8.35171 26.998 10.6205 23.5693 10.6097 20.6305C10.6143 20.1071 10.536 19.5862 10.3778 19.0873C9.36338 15.8617 4.60281 14.0442 1.3683 12.9365C1.02426 14.2557 0.849917 15.6136 0.849503 16.9771ZM20.5411 11.9498C17.4134 9.63059 17.3445 4.178 17.2714 0.753552L17.2669 0.471968L17.5461 0.484614C20.7971 0.615933 23.9359 1.71222 26.5648 3.63448C29.201 5.54687 31.2111 8.20151 32.34 11.2615L32.4376 11.5245L32.169 11.6069C30.1107 12.2387 27.2911 13.094 24.6956 13.0957C23.1685 13.0957 21.7068 12.7973 20.5411 11.9498ZM20.8523 11.5199C21.8898 12.2773 23.2341 12.5666 24.6956 12.5666C27.0683 12.5666 29.7216 11.8015 31.7448 11.1833C30.6347 8.33093 28.7288 5.85948 26.2551 4.06439C23.787 2.25997 20.8532 1.2057 17.8038 1.02741C17.8557 4.45606 18.1075 9.55699 20.8523 11.5199ZM1.5559 11.575L1.28751 11.4922L1.38664 11.2296C2.51454 8.1696 4.52408 5.51486 7.15996 3.6026C9.78853 1.6797 12.9276 0.58334 16.1788 0.452694L16.4582 0.440048L16.4535 0.721631C16.3804 4.14432 16.3132 9.59835 13.184 11.9162C12.0183 12.7637 10.5564 13.0635 9.02926 13.0635C6.43537 13.0621 3.61262 12.2051 1.5559 11.575ZM9.02926 12.5329C10.4908 12.5329 11.835 12.2447 12.8728 11.4862C15.6189 9.52506 15.8709 4.42241 15.9212 0.995128C12.8727 1.17289 9.93952 2.22604 7.47135 4.02899C4.99795 5.82519 3.09219 8.29706 1.98149 11.1496C4.00168 11.7696 6.65498 12.5344 9.02926 12.5329Z" fill="#F5CB45"/>
<path id="Vector_3" fill-rule="evenodd" clip-rule="evenodd" d="M16.187 0.717346C16.1292 4.14111 16.001 9.5341 13.0256 11.7008C10.0518 13.8703 4.89482 12.3249 1.63113 11.3214C2.74695 8.31336 4.72343 5.70255 7.31281 3.81619C9.90219 1.92982 12.9893 0.851834 16.187 0.717346ZM32.0888 11.3536C28.8251 12.3572 23.6693 13.9021 20.6943 11.7344C17.7189 9.5667 17.5923 4.17335 17.5344 0.75102C20.7318 0.885665 23.8184 1.96357 26.4075 3.84966C28.9965 5.73575 30.9729 8.34612 32.0888 11.3536ZM26.9163 29.8063C24.9541 27.0032 21.8965 22.5636 23.0332 19.0564C24.1697 15.5499 29.2461 13.7615 32.4731 12.6493C33.3333 15.74 33.2649 19.0166 32.2764 22.0685C31.288 25.1205 29.4234 27.8121 26.9163 29.8063ZM1.1842 12.5956C4.41259 13.7093 9.48879 15.498 10.6256 19.0048C11.7623 22.5113 8.7046 26.9512 6.74403 29.754C4.23593 27.7602 2.37047 25.0686 1.38144 22.0163C0.3924 18.964 0.323789 15.6869 1.1842 12.5956ZM7.81358 30.5738C9.86736 27.8384 13.1323 23.55 16.8097 23.55C20.4881 23.55 23.7534 27.8384 25.8054 30.5738C23.1391 32.3488 20.0099 33.2956 16.8095 33.2956C13.6091 33.2956 10.4799 32.3488 7.81358 30.5738Z" fill="url(#paint0_radial_925_50298)"/>
<path id="Vector_4" d="M32.093 11.3537C29.2642 12.224 25.0162 13.4987 21.9966 12.4151C24.226 10.2035 26.7331 8.29237 29.4548 6.73004C30.5829 8.11453 31.4744 9.67694 32.093 11.3537ZM26.9205 29.8064C24.9584 27.0033 21.9008 22.5637 23.0375 19.0565C24.174 15.55 29.2504 13.7616 32.4774 12.6494C33.3376 15.7401 33.2692 19.0167 32.2807 22.0686C31.2922 25.1206 29.4277 27.8122 26.9205 29.8064ZM10.8543 20.1231C11.144 23.4137 8.50466 27.2417 6.7483 29.7541C4.23664 27.7632 2.37029 25.07 1.38535 22.0153C1.33325 21.8501 1.28169 21.6884 1.23413 21.5215C4.48488 21.4405 7.71439 20.9711 10.8543 20.1231ZM7.81785 30.5739C9.87163 27.8385 13.1365 23.5501 16.814 23.5501C20.4924 23.5501 23.7577 27.8385 25.8097 30.5739C23.1434 32.3489 20.0142 33.2957 16.8138 33.2957C13.6134 33.2957 10.4841 32.3489 7.81785 30.5739Z" fill="url(#paint1_radial_925_50298)"/>
<g id="Group">
<path id="Vector_5" opacity="0.9" d="M14.7202 6.48098C14.3252 8.4534 13.6171 10.031 12.4393 10.8904C11.2599 11.7474 9.54345 11.9357 7.5523 11.7032C6.0005 11.4924 4.46926 11.1504 2.97496 10.6807C4.06773 8.26997 5.76511 6.18446 7.90146 4.62771C10.0378 3.07096 12.5402 2.09615 15.1643 1.7984C15.1477 3.369 14.9992 4.9354 14.7202 6.48098ZM22.8283 11.6201C22.2727 11.4893 21.7474 11.2526 21.2812 10.9227C20.1032 10.0646 19.3953 8.48532 19.0001 6.51362C18.7204 4.9685 18.5718 3.40237 18.556 1.83207C22.4653 2.27664 26.0537 4.21388 28.576 7.24155C26.5198 8.50599 24.5944 9.97276 22.8283 11.6201ZM6.19915 15.7757C7.94429 16.761 9.22453 17.9234 9.67458 19.3127C9.78527 19.6602 9.84943 20.0209 9.86537 20.3853C7.3697 20.9868 4.82323 21.3521 2.25946 21.4762C1.50289 19.0236 1.37749 16.4189 1.89492 13.9046C3.37974 14.4054 4.81962 15.0313 6.19915 15.7757Z" fill="white"/>
</g>
</g>
<defs>
<radialGradient id="paint0_radial_925_50298" cx="0" cy="0" r="1" gradientUnits="userSpaceOnUse" gradientTransform="translate(16.8295 17.0065) scale(16.2459 16.2902)">
<stop stop-color="#FFE37E"/>
<stop offset="0.24276" stop-color="#FEDF79"/>
<stop offset="0.53453" stop-color="#FBD56A"/>
<stop offset="0.85038" stop-color="#F5C352"/>
<stop offset="1" stop-color="#F2B944"/>
</radialGradient>
<radialGradient id="paint1_radial_925_50298" cx="0" cy="0" r="1" gradientUnits="userSpaceOnUse" gradientTransform="translate(16.9122 31.9488) scale(19.1369 19.1891)">
<stop stop-color="#FFE37E"/>
<stop offset="0.24276" stop-color="#FEDF79"/>
<stop offset="0.53453" stop-color="#FBD56A"/>
<stop offset="0.85038" stop-color="#F5C352"/>
<stop offset="1" stop-color="#F2B944"/>
</radialGradient>
<clipPath id="clip0_925_50298">
<rect width="135.36" height="33.12" fill="white" transform="translate(0.320068 0.440002)"/>
</clipPath>
</defs>
</svg>
