<svg width="150" height="26" viewBox="0 0 150 26" fill="none" xmlns="http://www.w3.org/2000/svg">
<g style="mix-blend-mode:luminosity" clip-path="url(#clip0_925_50285)">
<path d="M13.4387 21.7553C18.4277 21.7553 22.4721 17.676 22.4721 12.6438C22.4721 7.61178 18.4277 3.53247 13.4387 3.53247C8.44964 3.53247 4.40527 7.61178 4.40527 12.6438C4.40527 17.676 8.44964 21.7553 13.4387 21.7553Z" fill="#E8F5E1"/>
<path fill-rule="evenodd" clip-rule="evenodd" d="M5.96498 17.7261C5.87157 17.5484 5.78848 17.3651 5.71614 17.1773C5.68418 17.0999 5.65451 17.0202 5.62939 16.9428L5.59971 16.8514C5.57689 16.781 5.55634 16.7129 5.53808 16.6426C5.21449 15.4611 5.29655 14.2013 5.77047 13.0746C6.24438 11.948 7.08128 11.0233 8.14061 10.4558C8.69378 10.1539 9.29407 9.95392 9.91441 9.86476C10.5992 11.9755 9.4053 14.5741 7.0037 16.1969C7.24737 16.0954 7.48586 15.9811 7.71824 15.8545C10.1016 14.5577 11.5124 12.2147 11.5649 9.88822C11.5732 9.62438 11.5633 9.36024 11.5352 9.09783C10.3575 8.93966 9.161 9.16092 8.11089 9.73107C6.92868 10.3617 6.00883 11.411 5.52156 12.6846C5.0343 13.9583 5.01259 15.3702 5.46046 16.659C5.48329 16.7247 5.5084 16.7903 5.53579 16.856C5.54949 16.8935 5.56547 16.9334 5.58145 16.9709C5.61341 17.046 5.64537 17.1234 5.6819 17.2054C5.71843 17.2876 5.76637 17.3814 5.81202 17.4681C5.85768 17.5549 5.91247 17.6464 5.96498 17.7261Z" fill="#5BC029"/>
<path fill-rule="evenodd" clip-rule="evenodd" d="M4.00318 17.7304C3.89969 17.7069 3.79696 17.6882 3.69499 17.6742C3.65111 17.6671 3.60692 17.6624 3.56258 17.66H3.50779H3.39364C2.75634 17.6408 2.13142 17.8435 1.62042 18.2352C1.10941 18.6269 0.742334 19.1846 0.578837 19.8178C0.497452 20.1437 0.474247 20.4823 0.51035 20.8168C1.67234 20.8965 2.84575 19.9327 3.35712 18.4715C3.33657 18.6099 3.30918 18.7507 3.27494 18.889C3.12749 19.5394 2.81616 20.1385 2.37221 20.6263C1.92825 21.1141 1.36726 21.4734 0.745488 21.6681C0.611389 21.7067 0.47485 21.7357 0.33685 21.7549C0.209086 21.4341 0.136478 21.0928 0.122258 20.7464C0.111475 20.4605 0.141471 20.1745 0.211291 19.8974C0.392028 19.188 0.813143 18.5679 1.39896 18.1488C1.98478 17.7297 2.69689 17.5389 3.40734 17.6108L3.51921 17.6225H3.58313L3.71097 17.6436C3.76347 17.6436 3.8137 17.6648 3.86392 17.6788C3.91415 17.6929 3.95524 17.7163 4.00318 17.7304Z" fill="#5BC029"/>
<path d="M21.2936 21.9847L21.41 21.9261C13.2806 25.974 8.9751 23.0401 6.5895 18.9382C3.43225 13.5324 4.68784 6.51996 10.0047 3.36791C15.3216 0.215855 22.0516 1.81768 25.1357 6.89989L25.0125 6.69585C21.7137 1.31344 14.4381 -0.243823 8.61443 3.21546C2.93915 6.5786 1.05576 13.8748 4.68784 19.6465C6.51416 22.5453 9.92249 24.5716 13.8195 24.5716C16.2165 24.5716 18.7962 23.7976 21.2936 21.9753" fill="#5BC029"/>
<path d="M24.9652 6.52462C23.914 5.05669 22.5738 3.8325 21.0318 2.93166C20.0733 2.4173 19.0465 2.05063 17.9841 1.84345C17.1394 1.67928 16.5002 1.56436 16.3473 1.54794C15.001 1.39518 13.64 1.45449 12.3111 1.72384L11.0304 2.61505L9.74512 3.52971L10.0168 3.36788C10.3025 3.21913 10.6004 3.09669 10.9072 3.00201C11.2545 2.88594 11.6092 2.79426 11.9687 2.72762C12.5576 2.61974 13.0005 2.57987 13.1101 2.57049C13.4229 2.55172 13.6649 2.55407 13.7402 2.55407C14.0005 2.55407 14.1968 2.57518 14.5095 2.60097C14.7196 2.61739 14.8428 2.62912 15.0209 2.65257C15.0985 2.65257 15.3063 2.69244 15.5756 2.74638C15.7172 2.77452 15.8359 2.80267 15.9272 2.82377C16.1487 2.87709 16.3674 2.94207 16.5824 3.01843C16.8518 3.11459 17.1463 3.23655 17.4613 3.3843C17.7764 3.53205 18.1097 3.70325 18.4498 3.90495C18.79 4.10664 19.1347 4.32944 19.4908 4.58273C19.8474 4.84056 20.1911 5.11687 20.5204 5.41062C20.8603 5.71218 21.1843 6.03238 21.4906 6.36984C21.7935 6.7062 22.0793 7.05847 22.3467 7.42521C22.4723 7.61283 22.6047 7.78873 22.7189 7.97869L22.8946 8.26482C22.9471 8.36098 23.0019 8.45244 23.0544 8.54625C23.2541 8.9017 23.4347 9.26811 23.5954 9.64384C23.6685 9.82444 23.737 10.0003 23.8055 10.1692L23.9767 10.6688C24.0223 10.8329 24.068 10.9877 24.1114 11.1377C24.1548 11.2879 24.1799 11.431 24.2141 11.5623C24.2484 11.6936 24.2712 11.8226 24.2917 11.9398C24.3122 12.0571 24.3328 12.1744 24.3511 12.2589C24.4058 12.6482 24.4333 12.8686 24.4333 12.8686C24.4333 12.8686 24.3876 12.6505 24.3031 12.2682C24.2803 12.1744 24.2506 12.0689 24.221 11.954C24.1913 11.839 24.1594 11.7194 24.1159 11.5904C24.0725 11.4614 24.0338 11.3207 23.9835 11.1776C23.9333 11.0346 23.874 10.8869 23.8146 10.7297C23.7552 10.5726 23.6822 10.4178 23.6114 10.2607L23.3695 9.76111C23.184 9.40946 22.9805 9.06808 22.7599 8.73855L22.5864 8.47824L22.3992 8.22495C22.2691 8.03029 22.1344 7.87081 21.9997 7.70195C21.7182 7.37277 21.4195 7.05961 21.1048 6.76384C20.7901 6.46369 20.4594 6.18182 20.114 5.91954C19.7798 5.66569 19.4322 5.43082 19.0731 5.21596C18.7283 5.00253 18.3881 4.81726 18.0526 4.65544C17.717 4.49361 17.3974 4.35993 17.1006 4.24501C16.8038 4.13009 16.5231 4.04332 16.2765 3.97531C16.0779 3.91902 15.9021 3.87915 15.7492 3.84631C15.7492 6.2385 15.9775 10.7086 17.4796 12.9765C19.5867 16.166 24.9903 16.3372 25.8396 19.0109C27.4558 14.257 27.0426 9.51717 24.9652 6.52462Z" fill="#5BC029"/>
<path d="M36.2513 17.8805C35.4281 16.4614 34.9891 14.842 34.9797 13.19C34.9797 12.9992 34.9843 12.8139 34.9934 12.6341C35.0031 12.448 35.0268 12.263 35.0642 12.0806C35.1571 11.3202 35.3474 10.5758 35.6303 9.86668C35.9189 9.13978 36.2947 8.45277 36.7489 7.82159C37.6049 6.64901 38.7304 5.71269 40.0249 5.09638C41.2846 4.49397 42.6578 4.18333 44.0474 4.18641V0.759964H46.8667V4.11136C48.0745 4.09182 49.2727 4.3333 50.3837 4.82015C51.4948 5.30701 52.4938 6.02837 53.3159 6.93742C55.086 8.81365 55.9709 10.9861 55.9709 13.455C55.9711 13.7346 55.9574 14.014 55.9298 14.2922C55.9025 14.5666 55.8591 14.8457 55.8043 15.1295C55.7495 15.4132 55.6855 15.6924 55.6102 15.9667C55.5342 16.2511 55.442 16.5308 55.334 16.804C54.6365 18.5014 53.439 19.9318 51.9096 20.8941C50.4033 21.8827 48.652 22.4054 46.8644 22.3998V25.24H44.0474V22.5124L43.3282 22.4561C43.0878 22.4373 42.8389 22.4092 42.5818 22.3717C42.0969 22.275 41.6175 22.1513 41.1458 22.0011C40.6585 21.8451 40.1862 21.6434 39.735 21.3984C38.2843 20.5725 37.08 19.3564 36.2513 17.8805ZM39.4587 8.96842C38.4156 10.1686 37.8358 11.7193 37.8288 13.3283C37.8274 13.4371 37.832 13.5459 37.8425 13.6543C37.8508 13.7543 37.8646 13.8537 37.8835 13.9522V14.0671C37.9019 14.1609 37.9155 14.2477 37.9246 14.3227C37.9343 14.4076 37.9388 14.4929 37.9384 14.5784C38.2024 16.0448 38.9545 17.3714 40.066 18.3308C41.164 19.3266 42.5828 19.8683 44.0474 19.8505V6.724H43.4675C42.6889 6.80393 41.9336 7.04206 41.2454 7.42455C40.5572 7.80704 39.9499 8.32626 39.4587 8.952V8.96842ZM51.2476 17.9156C51.8422 17.3167 52.312 16.5996 52.6283 15.8081C52.9447 15.0166 53.1009 14.1673 53.0876 13.3119C53.0876 11.628 52.4743 10.1043 51.2476 8.74092C50.0209 7.37756 48.5606 6.69586 46.8667 6.69586V19.8154C47.6862 19.824 48.4984 19.6581 49.2524 19.3284C50.0064 18.9986 50.6857 18.512 51.2476 17.8993V17.9156Z" fill="#3D3A3A"/>
<path d="M63.6438 22.0596H61.0459V4.47009H65.3012C65.5234 4.47009 65.7517 4.47478 65.986 4.48416C66.2204 4.49355 66.4601 4.49824 66.7052 4.49824C67.3433 4.55479 67.9735 4.68379 68.584 4.88286C69.1885 5.07838 69.7257 5.44791 70.1318 5.94762C70.4724 6.35846 70.7307 6.83424 70.892 7.34775C71.0656 7.87085 71.1731 8.41473 71.2116 8.96599V9.25209C71.2108 9.57476 71.1871 9.89687 71.1408 10.2161C71.0967 10.5341 71.0272 10.8478 70.9331 11.1541C70.5115 12.5175 69.7704 13.365 68.7096 13.6964C67.6103 14.0324 66.4686 14.1992 65.3217 14.1913C65.1939 14.1913 65.0546 14.1913 64.9085 14.1772C64.7624 14.1631 64.6231 14.1631 64.493 14.1631C64.3629 14.1631 64.1986 14.1631 64.0501 14.149C63.9018 14.135 63.7648 14.135 63.637 14.135L63.6438 22.0596ZM63.8082 11.8343C63.9018 11.8343 63.9885 11.8343 64.0707 11.8483C64.1585 11.8599 64.247 11.8655 64.3355 11.8647C64.4451 11.8647 64.5455 11.8647 64.6391 11.8788C64.7327 11.8929 64.8309 11.8929 64.9428 11.8929H65.2738C65.3854 11.8929 65.4969 11.8835 65.6071 11.8647C66.2539 11.8317 66.8872 11.6625 67.4676 11.3676C68.0384 11.0744 68.3511 10.5092 68.4059 9.67663V9.3084C68.4059 8.36091 68.0977 7.74098 67.4814 7.4486C66.8417 7.14966 66.1517 6.98082 65.4495 6.9514H63.8151L63.8082 11.8343Z" fill="#3D3A3A"/>
<path d="M86.2274 17.5145H79.4835L77.4926 22.0597H74.5889L82.8282 3.80878L91.1196 22.0691H88.1626L86.2274 17.5145ZM80.5061 15.1693H85.2594L83.4896 11.1659C83.3601 10.8415 83.2501 10.5094 83.1589 10.1715L82.8828 9.14894C82.864 9.22404 82.8461 9.29669 82.8282 9.36239C82.8094 9.42809 82.7892 9.48905 82.7704 9.54765C82.6979 9.83067 82.6215 10.1051 82.5427 10.3709C82.4577 10.6359 82.3617 10.9009 82.2502 11.1659L80.5061 15.1693Z" fill="#3D3A3A"/>
<path d="M110.177 12.7581C110.149 12.5587 110.126 12.3571 110.108 12.1483C110.089 12.049 110.075 11.9488 110.067 11.8481C110.056 11.7492 110.05 11.6497 110.051 11.5502C110.051 11.4564 110.051 11.358 110.037 11.2524C110.028 11.1525 110.014 11.0531 109.996 10.9545C109.902 11.3771 109.787 11.7943 109.651 12.2046C109.516 12.6124 109.354 13.0104 109.167 13.396L104.745 22.7114L100.266 13.2271C100.118 12.8472 99.9765 12.4743 99.8369 12.1037C99.6981 11.7332 99.5561 11.3532 99.4102 10.9545C99.3915 11.2008 99.3712 11.447 99.3533 11.6933C99.3346 11.9396 99.3073 12.1859 99.2706 12.4321C99.2527 12.5822 99.234 12.7393 99.216 12.9011C99.1973 13.0682 99.1692 13.2342 99.1341 13.3983L97.2528 22.0618H94.71L98.7433 3.74048L103.802 14.8453C103.894 15.0353 103.983 15.2276 104.065 15.427C104.147 15.6263 104.227 15.821 104.293 16.0086L104.403 16.2924C104.44 16.3885 104.476 16.4917 104.515 16.6066L104.625 16.8904C104.66 16.9843 104.697 17.0804 104.736 17.1743C104.809 16.9843 104.887 16.7896 104.965 16.5926C105.042 16.3956 105.125 16.1986 105.192 16.0086C105.261 15.8187 105.373 15.6263 105.455 15.427C105.537 15.2276 105.626 15.0353 105.72 14.8453L110.614 3.74048L114.788 22.0594H112.18L110.3 13.3678C110.246 13.1674 110.205 12.9638 110.177 12.7581Z" fill="#3D3A3A"/>
<path d="M120.202 4.47938H122.995V16.0674L134.181 3.82739V22.0596H131.418L131.361 10.6428L120.202 22.7397V4.47938Z" fill="#3D3A3A"/>
<path d="M142.308 22.0595H139.71V4.46997H143.967C144.196 4.46997 144.424 4.46997 144.653 4.48404C144.881 4.49811 145.132 4.49811 145.371 4.49811C146.011 4.55466 146.641 4.68365 147.253 4.88274C147.856 5.07944 148.394 5.44877 148.801 5.9475C149.139 6.35672 149.397 6.82887 149.561 7.33824C149.736 7.86498 149.845 8.41288 149.883 8.96824V9.25434C149.883 9.57692 149.859 9.89903 149.814 10.2182C149.768 10.5358 149.699 10.8494 149.607 11.1564C149.182 12.5119 148.437 13.3586 147.371 13.6963C146.273 14.0323 145.132 14.1991 143.986 14.1912C143.856 14.1912 143.718 14.1912 143.57 14.1771C143.422 14.163 143.285 14.163 143.157 14.163C143.03 14.163 142.86 14.163 142.715 14.1489C142.568 14.1349 142.429 14.1349 142.299 14.1349L142.308 22.0595ZM142.474 11.8341C142.566 11.8341 142.655 11.8341 142.737 11.8482C142.825 11.8599 142.912 11.8653 143 11.8646C143.109 11.8646 143.212 11.8646 143.303 11.8787C143.395 11.8928 143.498 11.8928 143.607 11.8928H143.947C144.058 11.8926 144.168 11.8832 144.278 11.8646C144.922 11.831 145.552 11.6617 146.129 11.3674C146.7 11.0743 147.015 10.5091 147.07 9.6765V9.30828C147.07 8.36079 146.761 7.74085 146.143 7.44848C145.504 7.14926 144.814 6.9804 144.112 6.95128H142.481L142.474 11.8341Z" fill="#3D3A3A"/>
</g>
<defs>
<clipPath id="clip0_925_50285">
<rect width="149.76" height="24.48" fill="white" transform="translate(0.120117 0.76001)"/>
</clipPath>
</defs>
</svg>
