<svg width="160" height="58" viewBox="0 0 160 58" fill="none" xmlns="http://www.w3.org/2000/svg">
<g style="mix-blend-mode:luminosity" clip-path="url(#clip0_925_50426)">
<path d="M8.44727 46.7417C10.2993 44.8943 14.2633 42.1874 17.7189 41.2137C23.1829 45.192 30.2484 47.2876 38.1086 47.2876C45.3323 47.2876 50.434 45.2192 55.1142 42.6973L56.0178 43.2644C51.1273 47.9638 41.6723 51.5524 33.1564 51.5442C23.8744 51.5356 16.2146 49.9686 8.44727 46.7417Z" fill="url(#paint0_linear_925_50426)"/>
<path d="M18.6693 32.7009C17.5244 36.341 15.1618 38.4112 10.2239 38.4112C8.18462 38.4112 6.02584 38.0379 5.10732 37.7691C5.23199 38.5667 5.31021 39.445 5.15193 40.6744C4.99365 41.9035 4.64409 44.6238 4.64409 44.6238C4.58848 45.0307 4.25756 45.2321 3.91197 45.0791C3.2266 44.7771 1.67924 44.0033 1.11732 43.6135C0.87501 43.4456 0.687701 43.3331 0.725591 43.0482C0.730785 43.0134 3.31888 22.7434 3.31888 22.7434C3.53369 21.031 3.99936 20.4595 5.75267 19.889C7.86348 19.1747 10.6902 18.7468 13.0525 18.7468C15.665 18.7468 17.3108 19.3532 18.3479 20.4598C19.4573 21.6371 19.7791 23.3148 19.7791 25.5631C19.7779 27.8473 19.3846 30.5243 18.6693 32.7009ZM14.9124 22.7084C14.268 21.8876 13.23 21.7444 11.7627 21.7444C9.97337 21.7444 7.39719 22.4228 7.39719 22.4228L5.8587 35.0211C5.8587 35.0211 7.43294 35.5209 9.79553 35.5209C12.6577 35.5209 14.0893 34.5572 14.8761 31.3456C15.3054 29.6323 15.5917 27.6693 15.5917 25.8852C15.5914 24.3145 15.3763 23.3508 14.9124 22.7084Z" fill="#36333C"/>
<path d="M36.1859 21.5621C36.1502 21.8474 36.0765 22.1424 35.6491 22.0973C33.1487 21.8325 30.0604 21.9992 28.2933 22.5307L26.4325 37.4131C26.3973 37.734 26.1822 37.9483 25.8595 37.9483H22.8901C22.7822 37.9483 22.3887 37.77 22.3887 37.4488V37.4131L24.2847 22.2091C24.4637 20.7463 25.1075 20.3178 26.7188 19.7823C28.3288 19.2112 31.4549 18.783 32.9091 18.783C34.362 18.783 35.8284 18.9208 36.1493 18.9927C36.2574 19.028 36.4719 19.0994 36.4719 19.4206C36.4722 19.4559 36.1859 21.5621 36.1859 21.5621Z" fill="#36333C"/>
<path d="M42.3269 37.4123C42.2915 37.7332 42.0403 37.9474 41.7186 37.9474H38.784C38.4616 37.9474 38.2834 37.7692 38.2834 37.4839V37.4129L40.4297 19.925C40.4658 19.6398 40.7521 19.4252 41.0735 19.4252H44.0081C44.2947 19.4252 44.4729 19.6035 44.4729 19.8534V19.9247L42.3269 37.4123ZM44.9746 15.7846C44.9034 16.2487 44.6168 16.4989 44.1523 16.4989H41.6122C41.1829 16.4989 40.9681 16.3206 40.9681 15.9275V15.7846L41.2856 12.9606C41.3565 12.4965 41.6431 12.2469 42.1445 12.2469H44.6843C45.1145 12.2469 45.3287 12.4608 45.3287 12.818V12.9609L44.9746 15.7846Z" fill="#36333C"/>
<path d="M64.8328 31.5946C63.867 35.5562 61.6837 38.4115 55.4225 38.4115C52.3452 38.4115 50.4489 37.7328 49.3037 36.5549C48.0878 35.3423 47.6934 33.5929 47.6934 31.559C47.6934 29.4531 48.016 27.0979 48.5523 25.1349C49.59 21.3875 51.8441 18.7468 57.8554 18.7468C61.0048 18.7468 62.9368 19.4608 64.0821 20.6738C65.2264 21.923 65.5839 23.6361 65.5839 25.6703C65.5839 27.5977 65.2615 29.7392 64.8328 31.5946ZM60.7179 22.744C60.1459 22.0303 59.1433 21.6734 57.4979 21.6734C54.2773 21.6734 53.1678 23.0652 52.5955 25.5274C52.1665 27.4194 51.8441 29.8459 51.8441 31.7379C51.8441 33.0224 52.0586 34.0214 52.7742 34.6642C53.3826 35.1996 54.3124 35.4849 55.78 35.4849C59.3227 35.4849 60.3249 33.8075 60.8615 30.8095C61.1108 29.2394 61.4338 27.1695 61.4338 25.6347C61.4335 24.3858 61.2896 23.4221 60.7179 22.744Z" fill="#36333C"/>
<path d="M63.873 16.9604C63.873 16.573 64.0032 16.2478 64.2636 15.986C64.5236 15.7242 64.8481 15.5926 65.2374 15.5926C65.6181 15.5926 65.9392 15.7224 66.2008 15.9821C66.463 16.2417 66.5941 16.5605 66.5941 16.9393C66.5941 17.3188 66.463 17.6394 66.2008 17.9005C65.9392 18.1623 65.6181 18.2928 65.2374 18.2928C64.8643 18.2928 64.5441 18.1632 64.2761 17.9042C64.0075 17.6455 63.873 17.3306 63.873 16.9604ZM64.1209 16.9128C64.1209 17.2465 64.222 17.5251 64.4252 17.7482C64.6354 17.9786 64.9065 18.0938 65.2371 18.0938C65.5585 18.0938 65.8244 17.9807 66.0361 17.7555C66.2433 17.5339 66.3472 17.2624 66.3472 16.939C66.3472 16.6169 66.2433 16.3466 66.0361 16.1265C65.8244 15.9034 65.5585 15.7916 65.2371 15.7916C64.9248 15.7916 64.6596 15.9001 64.4441 16.1177C64.2287 16.3353 64.1209 16.6004 64.1209 16.9128ZM64.7091 17.7287V16.1512H65.3208C65.6905 16.1512 65.8751 16.3005 65.8751 16.5992C65.8751 16.8467 65.7364 16.9914 65.458 17.0326L65.9102 17.7287H65.6468L65.2163 17.05H64.956V17.7287H64.7091ZM64.9563 16.3508V16.8525H65.2123C65.3462 16.8525 65.4418 16.8409 65.4974 16.8177C65.5845 16.7799 65.6282 16.705 65.6282 16.5922C65.6282 16.4313 65.513 16.3508 65.282 16.3508H64.9563Z" fill="#36333C"/>
<path d="M96.4083 23.0189V22.9183C97.3708 22.7428 97.9526 22.0589 97.9526 21.201C97.9526 20.4418 97.4732 19.1795 95.0669 19.1795H94.1536H90.4551V26.858H94.1536H94.9896C95.928 26.858 98.1558 26.7586 98.1558 24.8386C98.1555 23.6007 97.1918 23.1204 96.4083 23.0189ZM94.1527 25.3183C94.1007 25.3183 94.076 25.3183 94.0274 25.3183H93.2409V23.7034H93.9256C93.9767 23.7034 94.0515 23.7034 94.1527 23.7034C94.5319 23.7268 95.066 23.8542 95.066 24.4595C95.0663 24.7383 94.989 25.2668 94.1527 25.3183ZM94.1527 22.2366C94.076 22.2619 94.0002 22.2619 93.9256 22.2619H93.2409V20.7204H94.0274C94.076 20.7204 94.1007 20.7204 94.1527 20.7204C94.8127 20.7719 95.066 21.1251 95.066 21.4783C95.0663 21.6554 94.989 22.1604 94.1527 22.2366Z" fill="#36333C"/>
<path d="M77.4747 21.8832H75.4751V19.1796H72.5881V26.8584H75.4751V23.9796H77.4747V26.8584H80.4655V19.1796H77.4747V21.8832Z" fill="#36333C"/>
<path d="M85.4136 19.0027H85.365C82.6816 19.0027 81.1345 20.5186 81.1345 23.0192C81.1345 25.421 82.6813 26.9607 85.365 26.9607H85.4136C88.1771 26.9357 89.6966 25.3948 89.6966 23.0192C89.696 20.5439 88.1771 19.0027 85.4136 19.0027ZM85.4136 25.1178L85.365 25.1431C84.302 25.1431 84.2222 23.7778 84.2222 23.0192C84.2222 22.2625 84.3029 20.9234 85.365 20.9234C85.3891 20.9234 85.3891 20.9234 85.4136 20.9234C86.5292 20.9493 86.6083 22.2625 86.6083 23.0192C86.6086 23.7771 86.5295 25.0919 85.4136 25.1178Z" fill="#36333C"/>
<path d="M126.107 23.0189V22.9183C127.07 22.7428 127.756 22.0589 127.756 21.201C127.756 20.4418 127.276 19.1795 124.871 19.1795H123.956H120.256V26.858H123.956H124.668C125.626 26.858 127.832 26.7586 127.832 24.8386C127.831 23.6007 126.871 23.1204 126.107 23.0189ZM123.955 25.3183C123.908 25.3183 123.851 25.3183 123.804 25.3183H123.043V23.7034H123.703C123.776 23.7034 123.851 23.7034 123.955 23.7034C124.309 23.7268 124.87 23.8542 124.87 24.4595C124.87 24.7383 124.689 25.2424 123.955 25.3183ZM123.955 22.2366C123.879 22.2619 123.804 22.2619 123.703 22.2619H123.043V20.7204H123.804C123.851 20.7204 123.908 20.7204 123.955 20.7204C124.611 20.7719 124.87 21.1251 124.87 21.4783C124.87 21.6554 124.765 22.1604 123.955 22.2366Z" fill="#36333C"/>
<path d="M145.44 24.8389V19.1795H141.513H138.626V21.5795C138.626 22.5398 138.626 23.7774 137.563 24.8389H137.006V28.578H139.866V26.8583H141.513H143.336V28.578H146.326V26.8583V24.8389H145.44ZM142.579 24.8389H141.513H140.451C141.133 23.9798 141.21 23.1204 141.21 22.0589V21.0992H141.512H142.578L142.579 24.8389Z" fill="#36333C"/>
<path d="M132.617 19.0028H132.563C129.88 19.0028 128.334 20.5186 128.334 23.0192C128.334 25.421 129.88 26.9607 132.563 26.9607H132.617C135.377 26.9357 136.895 25.3948 136.895 23.0192C136.895 20.5439 135.377 19.0028 132.617 19.0028ZM132.617 25.1178L132.563 25.1431C131.499 25.1431 131.398 23.7778 131.398 23.0192C131.398 22.2625 131.498 20.9234 132.563 20.9234C132.563 20.9234 132.589 20.9234 132.617 20.9234C133.702 20.9493 133.807 22.2625 133.807 23.0192C133.807 23.7772 133.702 25.0919 132.617 25.1178Z" fill="#36333C"/>
<path d="M111.596 19.1795C110.456 19.1795 108.428 19.2804 108.428 21.201C108.428 22.3374 109.29 23.0189 110.253 23.2225C109.773 23.2987 109.013 23.601 108.709 24.6622L108.229 26.8586H111.319L111.596 24.9398C111.67 24.3842 112.076 24.2334 112.355 24.1816C112.434 24.1816 112.51 24.1816 112.557 24.1816H113.244V26.8586H116.206V19.1795H112.355H111.596ZM112.557 20.923H113.32V22.5401H112.661C112.582 22.5401 112.483 22.5401 112.355 22.5401C111.976 22.4895 111.419 22.3374 111.419 21.6816C111.419 21.0501 112.001 20.9233 112.355 20.9233C112.434 20.923 112.51 20.923 112.557 20.923Z" fill="#36333C"/>
<path d="M153.599 19.1795H151.544H149.569L146.885 26.8583H149.853L150.33 25.2174H151.545H152.638L153.221 26.8583H155.802H156.285L155.802 25.4954L153.599 19.1795ZM151.545 23.3995H150.711L151.496 20.9977H151.545H151.575L152.36 23.3995H151.545Z" fill="#36333C"/>
<path d="M102.905 19.1797H100.954L98.2441 26.8584H101.233L101.713 25.2176H102.904H104.018L104.598 26.8584H107.661L104.978 19.1797H102.905ZM102.905 23.3997H102.093L102.853 20.9979L102.905 21.1509L103.74 23.3997H102.905Z" fill="#36333C"/>
<path d="M156.049 20.4613C156.049 20.0737 156.18 19.7488 156.44 19.4867C156.701 19.2246 157.024 19.0936 157.414 19.0936C157.794 19.0936 158.116 19.2234 158.377 19.483C158.639 19.7427 158.77 20.0615 158.77 20.4403C158.77 20.8197 158.639 21.1403 158.377 21.4015C158.116 21.663 157.794 21.7937 157.414 21.7937C157.041 21.7937 156.72 21.6639 156.452 21.4052C156.184 21.1464 156.049 20.8316 156.049 20.4613ZM156.297 20.4138C156.297 20.7475 156.399 21.0261 156.602 21.2491C156.813 21.4795 157.083 21.5947 157.414 21.5947C157.735 21.5947 158.001 21.482 158.213 21.2565C158.42 21.0352 158.524 20.7633 158.524 20.4403C158.524 20.1182 158.42 19.8475 158.213 19.6275C158.001 19.4044 157.735 19.2926 157.414 19.2926C157.101 19.2926 156.836 19.4011 156.62 19.6184C156.406 19.8363 156.297 20.1011 156.297 20.4138ZM156.885 21.2299V19.6525H157.497C157.867 19.6525 158.052 19.8015 158.052 20.1002C158.052 20.348 157.913 20.4927 157.634 20.5336L158.087 21.2299H157.824L157.393 20.5512H157.133V21.2299H156.885ZM157.133 19.8518V20.3534H157.389C157.523 20.3534 157.619 20.3416 157.674 20.3184C157.761 20.2806 157.805 20.2059 157.805 20.0932C157.805 19.9323 157.69 19.8518 157.459 19.8518H157.133Z" fill="#36333C"/>
</g>
<defs>
<linearGradient id="paint0_linear_925_50426" x1="14.08" y1="39.951" x2="57.6867" y2="54.1759" gradientUnits="userSpaceOnUse">
<stop stop-color="#00BCF1"/>
<stop offset="1" stop-color="#293895"/>
</linearGradient>
<clipPath id="clip0_925_50426">
<rect width="159.777" height="57.6" fill="white" transform="translate(0.111328 0.200001)"/>
</clipPath>
</defs>
</svg>
