<svg width="132" height="46" viewBox="0 0 132 46" fill="none" xmlns="http://www.w3.org/2000/svg">
<g clip-path="url(#clip0_925_50270)">
<path d="M84.083 0.604042C82.0763 0.991592 80.7351 2.38881 80.298 4.54074C80.1689 5.17306 80.159 6.19293 80.1788 11.0577L80.2086 16.8302L80.4868 17.6359C81.2716 19.9102 82.8015 20.9606 85.3248 20.9606C87.9176 20.9606 89.4574 19.8388 90.2522 17.3911C90.4211 16.8812 90.4409 16.3202 90.4707 11.1291C90.5005 6.16233 90.4807 5.31584 90.3416 4.60193C89.9542 2.62338 88.8614 1.28736 87.2123 0.757023C86.4076 0.502054 84.9671 0.430664 84.083 0.604042ZM86.0897 3.82683C86.2685 3.92882 86.507 4.22458 86.6361 4.45915L86.8646 4.8977V10.7619V16.6262L86.6361 17.0647C86.1593 17.9724 85.0367 18.1356 84.3214 17.4013C83.7452 16.8098 83.7254 16.5956 83.7552 10.4458L83.785 4.99968L84.0333 4.48975C84.4307 3.67385 85.3645 3.36789 86.0897 3.82683Z" fill="#1C1C1C"/>
<path d="M84.083 0.604042C82.0763 0.991592 80.7351 2.38881 80.298 4.54074C80.1689 5.17306 80.159 6.19293 80.1788 11.0577L80.2086 16.8302L80.4868 17.6359C81.2716 19.9102 82.8015 20.9606 85.3248 20.9606C87.9176 20.9606 89.4574 19.8388 90.2522 17.3911C90.4211 16.8812 90.4409 16.3202 90.4707 11.1291C90.5005 6.16233 90.4807 5.31584 90.3416 4.60193C89.9542 2.62338 88.8614 1.28736 87.2123 0.757023C86.4076 0.502054 84.9671 0.430664 84.083 0.604042ZM86.0897 3.82683C86.2685 3.92882 86.507 4.22458 86.6361 4.45915L86.8646 4.8977V10.7619V16.6262L86.6361 17.0647C86.1593 17.9724 85.0367 18.1356 84.3214 17.4013C83.7452 16.8098 83.7254 16.5956 83.7552 10.4458L83.785 4.99968L84.0333 4.48975C84.4307 3.67385 85.3645 3.36789 86.0897 3.82683Z" fill="black" fill-opacity="0.2"/>
<path d="M84.083 0.604042C82.0763 0.991592 80.7351 2.38881 80.298 4.54074C80.1689 5.17306 80.159 6.19293 80.1788 11.0577L80.2086 16.8302L80.4868 17.6359C81.2716 19.9102 82.8015 20.9606 85.3248 20.9606C87.9176 20.9606 89.4574 19.8388 90.2522 17.3911C90.4211 16.8812 90.4409 16.3202 90.4707 11.1291C90.5005 6.16233 90.4807 5.31584 90.3416 4.60193C89.9542 2.62338 88.8614 1.28736 87.2123 0.757023C86.4076 0.502054 84.9671 0.430664 84.083 0.604042ZM86.0897 3.82683C86.2685 3.92882 86.507 4.22458 86.6361 4.45915L86.8646 4.8977V10.7619V16.6262L86.6361 17.0647C86.1593 17.9724 85.0367 18.1356 84.3214 17.4013C83.7452 16.8098 83.7254 16.5956 83.7552 10.4458L83.785 4.99968L84.0333 4.48975C84.4307 3.67385 85.3645 3.36789 86.0897 3.82683Z" fill="black" fill-opacity="0.2"/>
<path d="M84.083 0.604042C82.0763 0.991592 80.7351 2.38881 80.298 4.54074C80.1689 5.17306 80.159 6.19293 80.1788 11.0577L80.2086 16.8302L80.4868 17.6359C81.2716 19.9102 82.8015 20.9606 85.3248 20.9606C87.9176 20.9606 89.4574 19.8388 90.2522 17.3911C90.4211 16.8812 90.4409 16.3202 90.4707 11.1291C90.5005 6.16233 90.4807 5.31584 90.3416 4.60193C89.9542 2.62338 88.8614 1.28736 87.2123 0.757023C86.4076 0.502054 84.9671 0.430664 84.083 0.604042ZM86.0897 3.82683C86.2685 3.92882 86.507 4.22458 86.6361 4.45915L86.8646 4.8977V10.7619V16.6262L86.6361 17.0647C86.1593 17.9724 85.0367 18.1356 84.3214 17.4013C83.7452 16.8098 83.7254 16.5956 83.7552 10.4458L83.785 4.99968L84.0333 4.48975C84.4307 3.67385 85.3645 3.36789 86.0897 3.82683Z" fill="black" fill-opacity="0.2"/>
<path d="M16.5771 22.9999V45.2331H25.9949H35.4026L40.0022 40.1134L44.5919 34.9936V22.9897V10.9961L40.0022 5.87632L35.4026 0.766777H25.9949H16.5771V22.9999ZM35.3331 33.9737L35.3033 44.9373L30.813 39.9604L26.3227 34.9834V22.9999V11.0165L30.813 6.0293L35.3033 1.05234L35.3331 12.0261C35.343 18.0638 35.343 27.9361 35.3331 33.9737Z" fill="#1C1C1C"/>
<path d="M16.5771 22.9999V45.2331H25.9949H35.4026L40.0022 40.1134L44.5919 34.9936V22.9897V10.9961L40.0022 5.87632L35.4026 0.766777H25.9949H16.5771V22.9999ZM35.3331 33.9737L35.3033 44.9373L30.813 39.9604L26.3227 34.9834V22.9999V11.0165L30.813 6.0293L35.3033 1.05234L35.3331 12.0261C35.343 18.0638 35.343 27.9361 35.3331 33.9737Z" fill="black" fill-opacity="0.2"/>
<path d="M16.5771 22.9999V45.2331H25.9949H35.4026L40.0022 40.1134L44.5919 34.9936V22.9897V10.9961L40.0022 5.87632L35.4026 0.766777H25.9949H16.5771V22.9999ZM35.3331 33.9737L35.3033 44.9373L30.813 39.9604L26.3227 34.9834V22.9999V11.0165L30.813 6.0293L35.3033 1.05234L35.3331 12.0261C35.343 18.0638 35.343 27.9361 35.3331 33.9737Z" fill="black" fill-opacity="0.2"/>
<path d="M16.5771 22.9999V45.2331H25.9949H35.4026L40.0022 40.1134L44.5919 34.9936V22.9897V10.9961L40.0022 5.87632L35.4026 0.766777H25.9949H16.5771V22.9999ZM35.3331 33.9737L35.3033 44.9373L30.813 39.9604L26.3227 34.9834V22.9999V11.0165L30.813 6.0293L35.3033 1.05234L35.3331 12.0261C35.343 18.0638 35.343 27.9361 35.3331 33.9737Z" fill="black" fill-opacity="0.2"/>
<path d="M56.4131 10.7011V20.655H58.0522H59.6914V17.3404V14.0258H60.9729C61.6683 14.0258 62.4631 13.985 62.7313 13.934C64.5195 13.5873 65.6023 12.5572 65.9997 10.854C66.2083 9.92595 66.2083 4.97958 65.9997 4.0515C65.6222 2.4299 64.7281 1.45083 63.2181 1.01229C62.7313 0.869503 62.026 0.828709 59.5225 0.798113L56.4131 0.747118V10.7011ZM61.8769 3.9903C62.0955 4.11269 62.3141 4.37786 62.473 4.69402C62.7114 5.19375 62.7214 5.25494 62.7214 7.44767C62.7214 9.59959 62.7114 9.71178 62.4829 10.1809C62.1551 10.8744 61.7478 11.0682 60.5855 11.0682H59.6914V7.38647V3.70474L60.6153 3.74554C61.3008 3.77613 61.6286 3.83733 61.8769 3.9903Z" fill="#1C1C1C"/>
<path d="M56.4131 10.7011V20.655H58.0522H59.6914V17.3404V14.0258H60.9729C61.6683 14.0258 62.4631 13.985 62.7313 13.934C64.5195 13.5873 65.6023 12.5572 65.9997 10.854C66.2083 9.92595 66.2083 4.97958 65.9997 4.0515C65.6222 2.4299 64.7281 1.45083 63.2181 1.01229C62.7313 0.869503 62.026 0.828709 59.5225 0.798113L56.4131 0.747118V10.7011ZM61.8769 3.9903C62.0955 4.11269 62.3141 4.37786 62.473 4.69402C62.7114 5.19375 62.7214 5.25494 62.7214 7.44767C62.7214 9.59959 62.7114 9.71178 62.4829 10.1809C62.1551 10.8744 61.7478 11.0682 60.5855 11.0682H59.6914V7.38647V3.70474L60.6153 3.74554C61.3008 3.77613 61.6286 3.83733 61.8769 3.9903Z" fill="black" fill-opacity="0.2"/>
<path d="M56.4131 10.7011V20.655H58.0522H59.6914V17.3404V14.0258H60.9729C61.6683 14.0258 62.4631 13.985 62.7313 13.934C64.5195 13.5873 65.6023 12.5572 65.9997 10.854C66.2083 9.92595 66.2083 4.97958 65.9997 4.0515C65.6222 2.4299 64.7281 1.45083 63.2181 1.01229C62.7313 0.869503 62.026 0.828709 59.5225 0.798113L56.4131 0.747118V10.7011ZM61.8769 3.9903C62.0955 4.11269 62.3141 4.37786 62.473 4.69402C62.7114 5.19375 62.7214 5.25494 62.7214 7.44767C62.7214 9.59959 62.7114 9.71178 62.4829 10.1809C62.1551 10.8744 61.7478 11.0682 60.5855 11.0682H59.6914V7.38647V3.70474L60.6153 3.74554C61.3008 3.77613 61.6286 3.83733 61.8769 3.9903Z" fill="black" fill-opacity="0.2"/>
<path d="M56.4131 10.7011V20.655H58.0522H59.6914V17.3404V14.0258H60.9729C61.6683 14.0258 62.4631 13.985 62.7313 13.934C64.5195 13.5873 65.6023 12.5572 65.9997 10.854C66.2083 9.92595 66.2083 4.97958 65.9997 4.0515C65.6222 2.4299 64.7281 1.45083 63.2181 1.01229C62.7313 0.869503 62.026 0.828709 59.5225 0.798113L56.4131 0.747118V10.7011ZM61.8769 3.9903C62.0955 4.11269 62.3141 4.37786 62.473 4.69402C62.7114 5.19375 62.7214 5.25494 62.7214 7.44767C62.7214 9.59959 62.7114 9.71178 62.4829 10.1809C62.1551 10.8744 61.7478 11.0682 60.5855 11.0682H59.6914V7.38647V3.70474L60.6153 3.74554C61.3008 3.77613 61.6286 3.83733 61.8769 3.9903Z" fill="black" fill-opacity="0.2"/>
<path d="M68.2334 10.7011V20.655H69.8726H71.5117V17.2384V13.8219H72.3462C73.3595 13.8219 73.737 13.9442 73.9854 14.3726C74.1145 14.5868 74.3728 15.678 74.7304 17.6362C75.0384 19.2578 75.2967 20.604 75.3165 20.6244C75.3364 20.6448 76.1411 20.6448 77.0948 20.6346L78.8333 20.604L78.2074 17.3812C77.8697 15.6066 77.5021 13.9544 77.4027 13.7097C77.1445 13.1181 76.757 12.6592 76.3795 12.496C76.2206 12.4246 76.0815 12.343 76.0815 12.3022C76.0815 12.2717 76.2404 12.1289 76.4193 11.9861C76.9358 11.5985 77.4524 10.8132 77.6809 10.0585C77.8697 9.48741 77.9094 9.06926 77.9491 7.27429C77.9988 5.04077 77.9193 4.23507 77.5617 3.2662C77.3034 2.56249 76.5981 1.74659 75.9424 1.41003C74.939 0.8899 74.6509 0.849106 71.3428 0.798113L68.2334 0.747118V10.7011ZM73.6973 3.9903C74.1642 4.26567 74.3629 4.66342 74.5019 5.56091C74.6311 6.4176 74.5615 8.85509 74.3927 9.44661C74.1443 10.3339 73.6277 10.6705 72.3859 10.7418L71.5117 10.7928V7.24369V3.70474L72.4356 3.74554C73.1211 3.77613 73.4489 3.83733 73.6973 3.9903Z" fill="#1C1C1C"/>
<path d="M68.2334 10.7011V20.655H69.8726H71.5117V17.2384V13.8219H72.3462C73.3595 13.8219 73.737 13.9442 73.9854 14.3726C74.1145 14.5868 74.3728 15.678 74.7304 17.6362C75.0384 19.2578 75.2967 20.604 75.3165 20.6244C75.3364 20.6448 76.1411 20.6448 77.0948 20.6346L78.8333 20.604L78.2074 17.3812C77.8697 15.6066 77.5021 13.9544 77.4027 13.7097C77.1445 13.1181 76.757 12.6592 76.3795 12.496C76.2206 12.4246 76.0815 12.343 76.0815 12.3022C76.0815 12.2717 76.2404 12.1289 76.4193 11.9861C76.9358 11.5985 77.4524 10.8132 77.6809 10.0585C77.8697 9.48741 77.9094 9.06926 77.9491 7.27429C77.9988 5.04077 77.9193 4.23507 77.5617 3.2662C77.3034 2.56249 76.5981 1.74659 75.9424 1.41003C74.939 0.8899 74.6509 0.849106 71.3428 0.798113L68.2334 0.747118V10.7011ZM73.6973 3.9903C74.1642 4.26567 74.3629 4.66342 74.5019 5.56091C74.6311 6.4176 74.5615 8.85509 74.3927 9.44661C74.1443 10.3339 73.6277 10.6705 72.3859 10.7418L71.5117 10.7928V7.24369V3.70474L72.4356 3.74554C73.1211 3.77613 73.4489 3.83733 73.6973 3.9903Z" fill="black" fill-opacity="0.2"/>
<path d="M68.2334 10.7011V20.655H69.8726H71.5117V17.2384V13.8219H72.3462C73.3595 13.8219 73.737 13.9442 73.9854 14.3726C74.1145 14.5868 74.3728 15.678 74.7304 17.6362C75.0384 19.2578 75.2967 20.604 75.3165 20.6244C75.3364 20.6448 76.1411 20.6448 77.0948 20.6346L78.8333 20.604L78.2074 17.3812C77.8697 15.6066 77.5021 13.9544 77.4027 13.7097C77.1445 13.1181 76.757 12.6592 76.3795 12.496C76.2206 12.4246 76.0815 12.343 76.0815 12.3022C76.0815 12.2717 76.2404 12.1289 76.4193 11.9861C76.9358 11.5985 77.4524 10.8132 77.6809 10.0585C77.8697 9.48741 77.9094 9.06926 77.9491 7.27429C77.9988 5.04077 77.9193 4.23507 77.5617 3.2662C77.3034 2.56249 76.5981 1.74659 75.9424 1.41003C74.939 0.8899 74.6509 0.849106 71.3428 0.798113L68.2334 0.747118V10.7011ZM73.6973 3.9903C74.1642 4.26567 74.3629 4.66342 74.5019 5.56091C74.6311 6.4176 74.5615 8.85509 74.3927 9.44661C74.1443 10.3339 73.6277 10.6705 72.3859 10.7418L71.5117 10.7928V7.24369V3.70474L72.4356 3.74554C73.1211 3.77613 73.4489 3.83733 73.6973 3.9903Z" fill="black" fill-opacity="0.2"/>
<path d="M68.2334 10.7011V20.655H69.8726H71.5117V17.2384V13.8219H72.3462C73.3595 13.8219 73.737 13.9442 73.9854 14.3726C74.1145 14.5868 74.3728 15.678 74.7304 17.6362C75.0384 19.2578 75.2967 20.604 75.3165 20.6244C75.3364 20.6448 76.1411 20.6448 77.0948 20.6346L78.8333 20.604L78.2074 17.3812C77.8697 15.6066 77.5021 13.9544 77.4027 13.7097C77.1445 13.1181 76.757 12.6592 76.3795 12.496C76.2206 12.4246 76.0815 12.343 76.0815 12.3022C76.0815 12.2717 76.2404 12.1289 76.4193 11.9861C76.9358 11.5985 77.4524 10.8132 77.6809 10.0585C77.8697 9.48741 77.9094 9.06926 77.9491 7.27429C77.9988 5.04077 77.9193 4.23507 77.5617 3.2662C77.3034 2.56249 76.5981 1.74659 75.9424 1.41003C74.939 0.8899 74.6509 0.849106 71.3428 0.798113L68.2334 0.747118V10.7011ZM73.6973 3.9903C74.1642 4.26567 74.3629 4.66342 74.5019 5.56091C74.6311 6.4176 74.5615 8.85509 74.3927 9.44661C74.1443 10.3339 73.6277 10.6705 72.3859 10.7418L71.5117 10.7928V7.24369V3.70474L72.4356 3.74554C73.1211 3.77613 73.4489 3.83733 73.6973 3.9903Z" fill="black" fill-opacity="0.2"/>
<path d="M92.6748 10.7112V20.655H94.3636H96.0525V16.7285V12.802H98.089H100.126V11.1192V9.43641H98.089H96.0525V6.78475V4.13309H98.089H100.126V2.4503V0.767515H96.4002H92.6748V10.7112Z" fill="#1C1C1C"/>
<path d="M92.6748 10.7112V20.655H94.3636H96.0525V16.7285V12.802H98.089H100.126V11.1192V9.43641H98.089H96.0525V6.78475V4.13309H98.089H100.126V2.4503V0.767515H96.4002H92.6748V10.7112Z" fill="black" fill-opacity="0.2"/>
<path d="M92.6748 10.7112V20.655H94.3636H96.0525V16.7285V12.802H98.089H100.126V11.1192V9.43641H98.089H96.0525V6.78475V4.13309H98.089H100.126V2.4503V0.767515H96.4002H92.6748V10.7112Z" fill="black" fill-opacity="0.2"/>
<path d="M92.6748 10.7112V20.655H94.3636H96.0525V16.7285V12.802H98.089H100.126V11.1192V9.43641H98.089H96.0525V6.78475V4.13309H98.089H100.126V2.4503V0.767515H96.4002H92.6748V10.7112Z" fill="black" fill-opacity="0.2"/>
<path d="M102.015 10.7112V20.655H103.753H105.492V10.7112V0.767515H103.753H102.015V10.7112Z" fill="#1C1C1C"/>
<path d="M102.015 10.7112V20.655H103.753H105.492V10.7112V0.767515H103.753H102.015V10.7112Z" fill="black" fill-opacity="0.2"/>
<path d="M102.015 10.7112V20.655H103.753H105.492V10.7112V0.767515H103.753H102.015V10.7112Z" fill="black" fill-opacity="0.2"/>
<path d="M102.015 10.7112V20.655H103.753H105.492V10.7112V0.767515H103.753H102.015V10.7112Z" fill="black" fill-opacity="0.2"/>
<path d="M108.171 10.7112V20.655H111.797H115.423V19.0232V17.3914H113.486H111.549V9.07946V0.767515H109.86H108.171V10.7112Z" fill="#1C1C1C"/>
<path d="M108.171 10.7112V20.655H111.797H115.423V19.0232V17.3914H113.486H111.549V9.07946V0.767515H109.86H108.171V10.7112Z" fill="black" fill-opacity="0.2"/>
<path d="M108.171 10.7112V20.655H111.797H115.423V19.0232V17.3914H113.486H111.549V9.07946V0.767515H109.86H108.171V10.7112Z" fill="black" fill-opacity="0.2"/>
<path d="M108.171 10.7112V20.655H111.797H115.423V19.0232V17.3914H113.486H111.549V9.07946V0.767515H109.86H108.171V10.7112Z" fill="black" fill-opacity="0.2"/>
<path d="M72.1414 25.1827C70.4824 25.6009 69.33 26.7839 68.7638 28.6605C68.5949 29.2214 68.585 29.7415 68.585 35.2386V41.2049L68.8234 42.0106C69.4691 44.1523 70.9295 45.2946 73.2739 45.4883C75.4893 45.6719 77.3867 44.703 78.2212 42.959C78.8471 41.6536 78.867 41.419 78.867 35.31C78.867 30.7002 78.8371 29.7007 78.708 29.0378C78.3007 26.9981 77.1384 25.6825 75.3204 25.1929C74.6349 25.0093 72.8766 24.9991 72.1414 25.1827ZM74.3667 28.2933C74.6647 28.4361 74.8436 28.6197 75.0124 28.9358L75.2409 29.3744V35.2386C75.2409 40.8989 75.231 41.1131 75.0423 41.5108C74.476 42.6735 72.9958 42.6735 72.4097 41.5006L72.1613 41.0111L72.1315 35.6058C72.1116 31.9649 72.1414 30.0373 72.211 29.6701C72.3501 28.997 72.658 28.5075 73.1051 28.2831C73.5521 28.0485 73.8501 28.0587 74.3667 28.2933Z" fill="#1C1C1C"/>
<path d="M72.1414 25.1827C70.4824 25.6009 69.33 26.7839 68.7638 28.6605C68.5949 29.2214 68.585 29.7415 68.585 35.2386V41.2049L68.8234 42.0106C69.4691 44.1523 70.9295 45.2946 73.2739 45.4883C75.4893 45.6719 77.3867 44.703 78.2212 42.959C78.8471 41.6536 78.867 41.419 78.867 35.31C78.867 30.7002 78.8371 29.7007 78.708 29.0378C78.3007 26.9981 77.1384 25.6825 75.3204 25.1929C74.6349 25.0093 72.8766 24.9991 72.1414 25.1827ZM74.3667 28.2933C74.6647 28.4361 74.8436 28.6197 75.0124 28.9358L75.2409 29.3744V35.2386C75.2409 40.8989 75.231 41.1131 75.0423 41.5108C74.476 42.6735 72.9958 42.6735 72.4097 41.5006L72.1613 41.0111L72.1315 35.6058C72.1116 31.9649 72.1414 30.0373 72.211 29.6701C72.3501 28.997 72.658 28.5075 73.1051 28.2831C73.5521 28.0485 73.8501 28.0587 74.3667 28.2933Z" fill="black" fill-opacity="0.2"/>
<path d="M72.1414 25.1827C70.4824 25.6009 69.33 26.7839 68.7638 28.6605C68.5949 29.2214 68.585 29.7415 68.585 35.2386V41.2049L68.8234 42.0106C69.4691 44.1523 70.9295 45.2946 73.2739 45.4883C75.4893 45.6719 77.3867 44.703 78.2212 42.959C78.8471 41.6536 78.867 41.419 78.867 35.31C78.867 30.7002 78.8371 29.7007 78.708 29.0378C78.3007 26.9981 77.1384 25.6825 75.3204 25.1929C74.6349 25.0093 72.8766 24.9991 72.1414 25.1827ZM74.3667 28.2933C74.6647 28.4361 74.8436 28.6197 75.0124 28.9358L75.2409 29.3744V35.2386C75.2409 40.8989 75.231 41.1131 75.0423 41.5108C74.476 42.6735 72.9958 42.6735 72.4097 41.5006L72.1613 41.0111L72.1315 35.6058C72.1116 31.9649 72.1414 30.0373 72.211 29.6701C72.3501 28.997 72.658 28.5075 73.1051 28.2831C73.5521 28.0485 73.8501 28.0587 74.3667 28.2933Z" fill="black" fill-opacity="0.2"/>
<path d="M72.1414 25.1827C70.4824 25.6009 69.33 26.7839 68.7638 28.6605C68.5949 29.2214 68.585 29.7415 68.585 35.2386V41.2049L68.8234 42.0106C69.4691 44.1523 70.9295 45.2946 73.2739 45.4883C75.4893 45.6719 77.3867 44.703 78.2212 42.959C78.8471 41.6536 78.867 41.419 78.867 35.31C78.867 30.7002 78.8371 29.7007 78.708 29.0378C78.3007 26.9981 77.1384 25.6825 75.3204 25.1929C74.6349 25.0093 72.8766 24.9991 72.1414 25.1827ZM74.3667 28.2933C74.6647 28.4361 74.8436 28.6197 75.0124 28.9358L75.2409 29.3744V35.2386C75.2409 40.8989 75.231 41.1131 75.0423 41.5108C74.476 42.6735 72.9958 42.6735 72.4097 41.5006L72.1613 41.0111L72.1315 35.6058C72.1116 31.9649 72.1414 30.0373 72.211 29.6701C72.3501 28.997 72.658 28.5075 73.1051 28.2831C73.5521 28.0485 73.8501 28.0587 74.3667 28.2933Z" fill="black" fill-opacity="0.2"/>
<path d="M84.6234 25.2032C82.9643 25.6519 81.812 26.8452 81.2854 28.6708C81.1265 29.2011 81.1066 29.8844 81.0768 34.8002C81.0272 41.052 81.0669 41.5211 81.6828 42.847C82.4974 44.6113 83.9975 45.4782 86.2625 45.4782C87.9613 45.4782 89.064 45.0601 89.978 44.0606C90.574 43.4181 90.9316 42.7042 91.1899 41.6843C91.3688 40.9704 91.3787 40.5217 91.3787 35.2999C91.3787 29.1195 91.3489 28.8135 90.7826 27.6203C90.1866 26.3863 89.1832 25.55 87.852 25.193C87.1069 24.9992 85.3585 24.9992 84.6234 25.2032ZM87.1069 28.4056C87.256 28.5178 87.4646 28.7829 87.5639 28.9869C87.7427 29.3541 87.7527 29.711 87.7527 35.2897C87.7527 41.0724 87.7527 41.2152 87.5441 41.5619C87.2162 42.1534 86.7592 42.4084 86.1334 42.3574C85.6863 42.3166 85.5473 42.2554 85.2691 41.9597C84.6333 41.307 84.6134 41.052 84.6432 34.9634C84.673 29.7314 84.683 29.5683 84.8817 29.1195C85.1201 28.5892 85.3784 28.3342 85.7757 28.2016C86.1731 28.069 86.7791 28.171 87.1069 28.4056Z" fill="#1C1C1C"/>
<path d="M84.6234 25.2032C82.9643 25.6519 81.812 26.8452 81.2854 28.6708C81.1265 29.2011 81.1066 29.8844 81.0768 34.8002C81.0272 41.052 81.0669 41.5211 81.6828 42.847C82.4974 44.6113 83.9975 45.4782 86.2625 45.4782C87.9613 45.4782 89.064 45.0601 89.978 44.0606C90.574 43.4181 90.9316 42.7042 91.1899 41.6843C91.3688 40.9704 91.3787 40.5217 91.3787 35.2999C91.3787 29.1195 91.3489 28.8135 90.7826 27.6203C90.1866 26.3863 89.1832 25.55 87.852 25.193C87.1069 24.9992 85.3585 24.9992 84.6234 25.2032ZM87.1069 28.4056C87.256 28.5178 87.4646 28.7829 87.5639 28.9869C87.7427 29.3541 87.7527 29.711 87.7527 35.2897C87.7527 41.0724 87.7527 41.2152 87.5441 41.5619C87.2162 42.1534 86.7592 42.4084 86.1334 42.3574C85.6863 42.3166 85.5473 42.2554 85.2691 41.9597C84.6333 41.307 84.6134 41.052 84.6432 34.9634C84.673 29.7314 84.683 29.5683 84.8817 29.1195C85.1201 28.5892 85.3784 28.3342 85.7757 28.2016C86.1731 28.069 86.7791 28.171 87.1069 28.4056Z" fill="black" fill-opacity="0.2"/>
<path d="M84.6234 25.2032C82.9643 25.6519 81.812 26.8452 81.2854 28.6708C81.1265 29.2011 81.1066 29.8844 81.0768 34.8002C81.0272 41.052 81.0669 41.5211 81.6828 42.847C82.4974 44.6113 83.9975 45.4782 86.2625 45.4782C87.9613 45.4782 89.064 45.0601 89.978 44.0606C90.574 43.4181 90.9316 42.7042 91.1899 41.6843C91.3688 40.9704 91.3787 40.5217 91.3787 35.2999C91.3787 29.1195 91.3489 28.8135 90.7826 27.6203C90.1866 26.3863 89.1832 25.55 87.852 25.193C87.1069 24.9992 85.3585 24.9992 84.6234 25.2032ZM87.1069 28.4056C87.256 28.5178 87.4646 28.7829 87.5639 28.9869C87.7427 29.3541 87.7527 29.711 87.7527 35.2897C87.7527 41.0724 87.7527 41.2152 87.5441 41.5619C87.2162 42.1534 86.7592 42.4084 86.1334 42.3574C85.6863 42.3166 85.5473 42.2554 85.2691 41.9597C84.6333 41.307 84.6134 41.052 84.6432 34.9634C84.673 29.7314 84.683 29.5683 84.8817 29.1195C85.1201 28.5892 85.3784 28.3342 85.7757 28.2016C86.1731 28.069 86.7791 28.171 87.1069 28.4056Z" fill="black" fill-opacity="0.2"/>
<path d="M84.6234 25.2032C82.9643 25.6519 81.812 26.8452 81.2854 28.6708C81.1265 29.2011 81.1066 29.8844 81.0768 34.8002C81.0272 41.052 81.0669 41.5211 81.6828 42.847C82.4974 44.6113 83.9975 45.4782 86.2625 45.4782C87.9613 45.4782 89.064 45.0601 89.978 44.0606C90.574 43.4181 90.9316 42.7042 91.1899 41.6843C91.3688 40.9704 91.3787 40.5217 91.3787 35.2999C91.3787 29.1195 91.3489 28.8135 90.7826 27.6203C90.1866 26.3863 89.1832 25.55 87.852 25.193C87.1069 24.9992 85.3585 24.9992 84.6234 25.2032ZM87.1069 28.4056C87.256 28.5178 87.4646 28.7829 87.5639 28.9869C87.7427 29.3541 87.7527 29.711 87.7527 35.2897C87.7527 41.0724 87.7527 41.2152 87.5441 41.5619C87.2162 42.1534 86.7592 42.4084 86.1334 42.3574C85.6863 42.3166 85.5473 42.2554 85.2691 41.9597C84.6333 41.307 84.6134 41.052 84.6432 34.9634C84.673 29.7314 84.683 29.5683 84.8817 29.1195C85.1201 28.5892 85.3784 28.3342 85.7757 28.2016C86.1731 28.069 86.7791 28.171 87.1069 28.4056Z" fill="black" fill-opacity="0.2"/>
<path d="M108.977 25.1926C107.298 25.672 106.116 27.008 105.738 28.8642C105.42 30.394 105.629 32.1584 106.265 33.5046C106.732 34.4837 107.765 35.5545 109.166 36.5132C110.993 37.7676 111.53 38.5427 111.619 40.0623C111.719 41.6737 111.222 42.6324 110.268 42.6324C109.245 42.6324 108.828 41.9389 108.818 40.1847C108.818 39.5626 108.848 38.9405 108.897 38.7773L108.967 38.5019H107.338H105.708L105.599 39.0119C105.42 39.8584 105.46 41.429 105.689 42.3265C105.937 43.3157 106.235 43.8563 106.881 44.4478C108.242 45.7022 111.083 45.8654 112.861 44.7945C113.825 44.2132 114.649 42.969 114.918 41.6839C115.076 40.9088 115.047 39.0833 114.868 38.298C114.788 37.9308 114.56 37.2883 114.351 36.8702C113.884 35.8809 112.772 34.7182 111.351 33.7392C110.298 33.0048 109.603 32.3521 109.334 31.8014C109.056 31.2609 108.947 30.2818 109.066 29.5271C109.245 28.4256 109.692 27.8749 110.407 27.8749C111.361 27.8749 111.828 28.9866 111.729 31.0059L111.679 31.9748H113.288H114.908L114.967 31.6586C115.076 31.0773 115.027 28.9764 114.888 28.2828C114.58 26.8244 113.805 25.7842 112.662 25.3354C111.917 25.0397 109.801 24.9581 108.977 25.1926Z" fill="#1C1C1C"/>
<path d="M108.977 25.1926C107.298 25.672 106.116 27.008 105.738 28.8642C105.42 30.394 105.629 32.1584 106.265 33.5046C106.732 34.4837 107.765 35.5545 109.166 36.5132C110.993 37.7676 111.53 38.5427 111.619 40.0623C111.719 41.6737 111.222 42.6324 110.268 42.6324C109.245 42.6324 108.828 41.9389 108.818 40.1847C108.818 39.5626 108.848 38.9405 108.897 38.7773L108.967 38.5019H107.338H105.708L105.599 39.0119C105.42 39.8584 105.46 41.429 105.689 42.3265C105.937 43.3157 106.235 43.8563 106.881 44.4478C108.242 45.7022 111.083 45.8654 112.861 44.7945C113.825 44.2132 114.649 42.969 114.918 41.6839C115.076 40.9088 115.047 39.0833 114.868 38.298C114.788 37.9308 114.56 37.2883 114.351 36.8702C113.884 35.8809 112.772 34.7182 111.351 33.7392C110.298 33.0048 109.603 32.3521 109.334 31.8014C109.056 31.2609 108.947 30.2818 109.066 29.5271C109.245 28.4256 109.692 27.8749 110.407 27.8749C111.361 27.8749 111.828 28.9866 111.729 31.0059L111.679 31.9748H113.288H114.908L114.967 31.6586C115.076 31.0773 115.027 28.9764 114.888 28.2828C114.58 26.8244 113.805 25.7842 112.662 25.3354C111.917 25.0397 109.801 24.9581 108.977 25.1926Z" fill="black" fill-opacity="0.2"/>
<path d="M108.977 25.1926C107.298 25.672 106.116 27.008 105.738 28.8642C105.42 30.394 105.629 32.1584 106.265 33.5046C106.732 34.4837 107.765 35.5545 109.166 36.5132C110.993 37.7676 111.53 38.5427 111.619 40.0623C111.719 41.6737 111.222 42.6324 110.268 42.6324C109.245 42.6324 108.828 41.9389 108.818 40.1847C108.818 39.5626 108.848 38.9405 108.897 38.7773L108.967 38.5019H107.338H105.708L105.599 39.0119C105.42 39.8584 105.46 41.429 105.689 42.3265C105.937 43.3157 106.235 43.8563 106.881 44.4478C108.242 45.7022 111.083 45.8654 112.861 44.7945C113.825 44.2132 114.649 42.969 114.918 41.6839C115.076 40.9088 115.047 39.0833 114.868 38.298C114.788 37.9308 114.56 37.2883 114.351 36.8702C113.884 35.8809 112.772 34.7182 111.351 33.7392C110.298 33.0048 109.603 32.3521 109.334 31.8014C109.056 31.2609 108.947 30.2818 109.066 29.5271C109.245 28.4256 109.692 27.8749 110.407 27.8749C111.361 27.8749 111.828 28.9866 111.729 31.0059L111.679 31.9748H113.288H114.908L114.967 31.6586C115.076 31.0773 115.027 28.9764 114.888 28.2828C114.58 26.8244 113.805 25.7842 112.662 25.3354C111.917 25.0397 109.801 24.9581 108.977 25.1926Z" fill="black" fill-opacity="0.2"/>
<path d="M108.977 25.1926C107.298 25.672 106.116 27.008 105.738 28.8642C105.42 30.394 105.629 32.1584 106.265 33.5046C106.732 34.4837 107.765 35.5545 109.166 36.5132C110.993 37.7676 111.53 38.5427 111.619 40.0623C111.719 41.6737 111.222 42.6324 110.268 42.6324C109.245 42.6324 108.828 41.9389 108.818 40.1847C108.818 39.5626 108.848 38.9405 108.897 38.7773L108.967 38.5019H107.338H105.708L105.599 39.0119C105.42 39.8584 105.46 41.429 105.689 42.3265C105.937 43.3157 106.235 43.8563 106.881 44.4478C108.242 45.7022 111.083 45.8654 112.861 44.7945C113.825 44.2132 114.649 42.969 114.918 41.6839C115.076 40.9088 115.047 39.0833 114.868 38.298C114.788 37.9308 114.56 37.2883 114.351 36.8702C113.884 35.8809 112.772 34.7182 111.351 33.7392C110.298 33.0048 109.603 32.3521 109.334 31.8014C109.056 31.2609 108.947 30.2818 109.066 29.5271C109.245 28.4256 109.692 27.8749 110.407 27.8749C111.361 27.8749 111.828 28.9866 111.729 31.0059L111.679 31.9748H113.288H114.908L114.967 31.6586C115.076 31.0773 115.027 28.9764 114.888 28.2828C114.58 26.8244 113.805 25.7842 112.662 25.3354C111.917 25.0397 109.801 24.9581 108.977 25.1926Z" fill="black" fill-opacity="0.2"/>
<path d="M56.5107 35.2999V45.2538L59.3221 45.2028C61.4978 45.162 62.2528 45.1212 62.7197 44.9887C64.3986 44.5093 65.3821 43.622 65.9682 42.0106C66.1867 41.4191 66.1967 41.3273 66.2265 35.5855C66.2463 30.5983 66.2364 29.6498 66.0973 29.0685C65.6702 27.1511 64.5078 25.9477 62.6501 25.4989C62.1733 25.3868 61.3587 25.346 59.2725 25.346H56.5107V35.2999ZM61.8951 28.5382C62.1733 28.6911 62.3521 28.9155 62.5508 29.3133L62.819 29.8844L62.8488 34.9633C62.8687 39.2876 62.8588 40.1341 62.7197 40.6644C62.4415 41.7965 61.9647 42.1738 60.7129 42.2554L59.9877 42.3064V35.2387V28.171L60.7527 28.2424C61.2494 28.2934 61.6567 28.3954 61.8951 28.5382Z" fill="#1C1C1C"/>
<path d="M56.5107 35.2999V45.2538L59.3221 45.2028C61.4978 45.162 62.2528 45.1212 62.7197 44.9887C64.3986 44.5093 65.3821 43.622 65.9682 42.0106C66.1867 41.4191 66.1967 41.3273 66.2265 35.5855C66.2463 30.5983 66.2364 29.6498 66.0973 29.0685C65.6702 27.1511 64.5078 25.9477 62.6501 25.4989C62.1733 25.3868 61.3587 25.346 59.2725 25.346H56.5107V35.2999ZM61.8951 28.5382C62.1733 28.6911 62.3521 28.9155 62.5508 29.3133L62.819 29.8844L62.8488 34.9633C62.8687 39.2876 62.8588 40.1341 62.7197 40.6644C62.4415 41.7965 61.9647 42.1738 60.7129 42.2554L59.9877 42.3064V35.2387V28.171L60.7527 28.2424C61.2494 28.2934 61.6567 28.3954 61.8951 28.5382Z" fill="black" fill-opacity="0.2"/>
<path d="M56.5107 35.2999V45.2538L59.3221 45.2028C61.4978 45.162 62.2528 45.1212 62.7197 44.9887C64.3986 44.5093 65.3821 43.622 65.9682 42.0106C66.1867 41.4191 66.1967 41.3273 66.2265 35.5855C66.2463 30.5983 66.2364 29.6498 66.0973 29.0685C65.6702 27.1511 64.5078 25.9477 62.6501 25.4989C62.1733 25.3868 61.3587 25.346 59.2725 25.346H56.5107V35.2999ZM61.8951 28.5382C62.1733 28.6911 62.3521 28.9155 62.5508 29.3133L62.819 29.8844L62.8488 34.9633C62.8687 39.2876 62.8588 40.1341 62.7197 40.6644C62.4415 41.7965 61.9647 42.1738 60.7129 42.2554L59.9877 42.3064V35.2387V28.171L60.7527 28.2424C61.2494 28.2934 61.6567 28.3954 61.8951 28.5382Z" fill="black" fill-opacity="0.2"/>
<path d="M56.5107 35.2999V45.2538L59.3221 45.2028C61.4978 45.162 62.2528 45.1212 62.7197 44.9887C64.3986 44.5093 65.3821 43.622 65.9682 42.0106C66.1867 41.4191 66.1967 41.3273 66.2265 35.5855C66.2463 30.5983 66.2364 29.6498 66.0973 29.0685C65.6702 27.1511 64.5078 25.9477 62.6501 25.4989C62.1733 25.3868 61.3587 25.346 59.2725 25.346H56.5107V35.2999ZM61.8951 28.5382C62.1733 28.6911 62.3521 28.9155 62.5508 29.3133L62.819 29.8844L62.8488 34.9633C62.8687 39.2876 62.8588 40.1341 62.7197 40.6644C62.4415 41.7965 61.9647 42.1738 60.7129 42.2554L59.9877 42.3064V35.2387V28.171L60.7527 28.2424C61.2494 28.2934 61.6567 28.3954 61.8951 28.5382Z" fill="black" fill-opacity="0.2"/>
<path d="M93.7646 35.2894V45.2331H95.4038H97.043V41.7655V38.298L97.8675 38.3082C98.3146 38.3082 98.8411 38.3592 99.0298 38.4306C99.606 38.6345 99.765 39.1139 100.351 42.3265L100.868 45.1821L102.636 45.2127C103.759 45.2229 104.394 45.2025 104.394 45.1311C104.394 44.866 103.272 39.1853 103.103 38.604C102.874 37.8187 102.427 37.2169 101.881 36.9722C101.543 36.8192 101.513 36.7784 101.692 36.7274C101.97 36.6356 102.745 35.7585 102.994 35.2588C103.401 34.4327 103.5 33.6984 103.5 31.3119C103.5 28.8948 103.421 28.3339 102.964 27.4058C102.676 26.8245 102.01 26.1615 101.444 25.8658C100.57 25.417 99.9636 25.3456 96.7747 25.3456H93.7646V35.2894ZM99.2186 28.4868C99.4471 28.599 99.6656 28.8336 99.8246 29.1192C100.063 29.5679 100.073 29.6291 100.073 31.7198C100.073 33.7188 100.063 33.8922 99.8643 34.2695C99.457 35.0344 99.0298 35.2384 97.8278 35.2384H97.043V31.7096V28.1707L97.9569 28.2421C98.5033 28.2727 99.01 28.3747 99.2186 28.4868Z" fill="#1C1C1C"/>
<path d="M93.7646 35.2894V45.2331H95.4038H97.043V41.7655V38.298L97.8675 38.3082C98.3146 38.3082 98.8411 38.3592 99.0298 38.4306C99.606 38.6345 99.765 39.1139 100.351 42.3265L100.868 45.1821L102.636 45.2127C103.759 45.2229 104.394 45.2025 104.394 45.1311C104.394 44.866 103.272 39.1853 103.103 38.604C102.874 37.8187 102.427 37.2169 101.881 36.9722C101.543 36.8192 101.513 36.7784 101.692 36.7274C101.97 36.6356 102.745 35.7585 102.994 35.2588C103.401 34.4327 103.5 33.6984 103.5 31.3119C103.5 28.8948 103.421 28.3339 102.964 27.4058C102.676 26.8245 102.01 26.1615 101.444 25.8658C100.57 25.417 99.9636 25.3456 96.7747 25.3456H93.7646V35.2894ZM99.2186 28.4868C99.4471 28.599 99.6656 28.8336 99.8246 29.1192C100.063 29.5679 100.073 29.6291 100.073 31.7198C100.073 33.7188 100.063 33.8922 99.8643 34.2695C99.457 35.0344 99.0298 35.2384 97.8278 35.2384H97.043V31.7096V28.1707L97.9569 28.2421C98.5033 28.2727 99.01 28.3747 99.2186 28.4868Z" fill="black" fill-opacity="0.2"/>
<path d="M93.7646 35.2894V45.2331H95.4038H97.043V41.7655V38.298L97.8675 38.3082C98.3146 38.3082 98.8411 38.3592 99.0298 38.4306C99.606 38.6345 99.765 39.1139 100.351 42.3265L100.868 45.1821L102.636 45.2127C103.759 45.2229 104.394 45.2025 104.394 45.1311C104.394 44.866 103.272 39.1853 103.103 38.604C102.874 37.8187 102.427 37.2169 101.881 36.9722C101.543 36.8192 101.513 36.7784 101.692 36.7274C101.97 36.6356 102.745 35.7585 102.994 35.2588C103.401 34.4327 103.5 33.6984 103.5 31.3119C103.5 28.8948 103.421 28.3339 102.964 27.4058C102.676 26.8245 102.01 26.1615 101.444 25.8658C100.57 25.417 99.9636 25.3456 96.7747 25.3456H93.7646V35.2894ZM99.2186 28.4868C99.4471 28.599 99.6656 28.8336 99.8246 29.1192C100.063 29.5679 100.073 29.6291 100.073 31.7198C100.073 33.7188 100.063 33.8922 99.8643 34.2695C99.457 35.0344 99.0298 35.2384 97.8278 35.2384H97.043V31.7096V28.1707L97.9569 28.2421C98.5033 28.2727 99.01 28.3747 99.2186 28.4868Z" fill="black" fill-opacity="0.2"/>
<path d="M93.7646 35.2894V45.2331H95.4038H97.043V41.7655V38.298L97.8675 38.3082C98.3146 38.3082 98.8411 38.3592 99.0298 38.4306C99.606 38.6345 99.765 39.1139 100.351 42.3265L100.868 45.1821L102.636 45.2127C103.759 45.2229 104.394 45.2025 104.394 45.1311C104.394 44.866 103.272 39.1853 103.103 38.604C102.874 37.8187 102.427 37.2169 101.881 36.9722C101.543 36.8192 101.513 36.7784 101.692 36.7274C101.97 36.6356 102.745 35.7585 102.994 35.2588C103.401 34.4327 103.5 33.6984 103.5 31.3119C103.5 28.8948 103.421 28.3339 102.964 27.4058C102.676 26.8245 102.01 26.1615 101.444 25.8658C100.57 25.417 99.9636 25.3456 96.7747 25.3456H93.7646V35.2894ZM99.2186 28.4868C99.4471 28.599 99.6656 28.8336 99.8246 29.1192C100.063 29.5679 100.073 29.6291 100.073 31.7198C100.073 33.7188 100.063 33.8922 99.8643 34.2695C99.457 35.0344 99.0298 35.2384 97.8278 35.2384H97.043V31.7096V28.1707L97.9569 28.2421C98.5033 28.2727 99.01 28.3747 99.2186 28.4868Z" fill="black" fill-opacity="0.2"/>
</g>
<defs>
<clipPath id="clip0_925_50270">
<rect width="131.729" height="45.0783" fill="white" transform="translate(0.135742 0.460861)"/>
</clipPath>
</defs>
</svg>
