<svg width="126" height="46" viewBox="0 0 126 46" fill="none" xmlns="http://www.w3.org/2000/svg">
<g style="mix-blend-mode:luminosity" clip-path="url(#clip0_925_50402)">
<path d="M28.6343 23.974H34.2321L31.4297 17.3618L28.6343 23.974Z" fill="#C90C0F"/>
<path fill-rule="evenodd" clip-rule="evenodd" d="M43.5081 0.210388H3.67291C2.1371 0.210388 0.89209 1.46041 0.89209 3.00238V42.9975C0.89209 44.5395 2.13711 45.7895 3.67292 45.7895H43.5081C45.0439 45.7895 46.2889 44.5395 46.2889 42.9975V3.00238C46.2889 1.4604 45.0439 0.210388 43.5081 0.210388ZM25.4212 31.583L27.7414 26.0729H35.1104L37.4428 31.583H39.9255L31.432 12.2974L22.9385 31.583H25.4212ZM7.91347 15.3149H17.0081L7.39078 31.583H20.1964V29.4839H11.1018L20.7191 13.2158H7.91347V15.3149Z" fill="#C90C0F"/>
<path fill-rule="evenodd" clip-rule="evenodd" d="M51.9468 13.2163V31.5836H56.9125C58.6893 31.5836 60.2487 31.1987 61.5902 30.429C62.9493 29.6594 64.0031 28.5923 64.7525 27.2279C65.5191 25.846 65.9026 24.2366 65.9026 22.3999C65.9026 20.5632 65.5191 18.9626 64.7525 17.5982C64.0031 16.2163 62.9493 15.1405 61.5902 14.3708C60.2487 13.6011 58.6893 13.2163 56.9125 13.2163H51.9468ZM53.3842 30.1404V14.6594H56.9125C58.0449 14.6594 59.0728 14.8431 59.9961 15.2105C60.937 15.5778 61.7382 16.1026 62.4002 16.7848C63.0627 17.4495 63.5678 18.2629 63.9162 19.225C64.2821 20.1696 64.4648 21.2279 64.4648 22.3999C64.4648 23.5719 64.2821 24.639 63.9162 25.6011C63.5678 26.5457 63.0627 27.3591 62.4002 28.0413C61.7382 28.706 60.937 29.2221 59.9961 29.5894C59.0728 29.9567 58.0449 30.1404 56.9125 30.1404H53.3842Z" fill="#1D1D1B"/>
<path fill-rule="evenodd" clip-rule="evenodd" d="M70.1888 26.1519C69.736 24.9974 69.5093 23.7467 69.5093 22.3997C69.5093 21.0528 69.736 19.8108 70.1888 18.6738C70.6417 17.5193 71.2778 16.5222 72.0966 15.6826C72.9154 14.8254 73.8739 14.1607 74.9712 13.6884C76.0865 13.2161 77.2971 12.98 78.6039 12.98C79.9108 12.98 81.1131 13.2161 82.2103 13.6884C83.3257 14.1607 84.2925 14.8254 85.1113 15.6826C85.9301 16.5222 86.5662 17.5193 87.019 18.6738C87.4719 19.8108 87.6986 21.0528 87.6986 22.3997C87.6986 23.7467 87.4719 24.9974 87.019 26.1519C86.5662 27.2889 85.9301 28.286 85.1113 29.1431C84.2925 29.9828 83.3257 30.6388 82.2103 31.1111C81.1131 31.5834 79.9108 31.8195 78.6039 31.8195C77.2971 31.8195 76.0865 31.5834 74.9712 31.1111C73.8739 30.6388 72.9154 29.9828 72.0966 29.1431C71.2778 28.286 70.6417 27.2889 70.1888 26.1519ZM71.992 18.3065C71.3477 19.4959 71.0252 20.8604 71.0252 22.3997C71.0252 23.9216 71.3477 25.286 71.992 26.493C72.654 27.7 73.5515 28.6534 74.6839 29.3531C75.8339 30.0353 77.1408 30.3764 78.6039 30.3764C80.0676 30.3764 81.3657 30.0353 82.4981 29.3531C83.6481 28.6534 84.5451 27.7 85.19 26.493C85.8343 25.286 86.1568 23.9216 86.1568 22.3997C86.1568 20.8604 85.8343 19.4959 85.19 18.3065C84.5451 17.0994 83.6481 16.1549 82.4981 15.4726C81.3657 14.7729 80.0676 14.4231 78.6039 14.4231C77.1408 14.4231 75.8339 14.7729 74.6839 15.4726C73.5515 16.1549 72.654 17.0994 71.992 18.3065Z" fill="#1D1D1B"/>
<path fill-rule="evenodd" clip-rule="evenodd" d="M91.3101 22.3997C91.3101 23.7467 91.5368 24.9974 91.9896 26.1519C92.4425 27.2889 93.0786 28.286 93.8974 29.1431C94.7162 29.9828 95.6747 30.6388 96.7724 31.1111C97.8873 31.5834 99.0984 31.8195 100.405 31.8195C101.712 31.8195 102.914 31.5834 104.011 31.1111C105.126 30.6388 106.093 29.9828 106.912 29.1431C107.731 28.286 108.367 27.2889 108.82 26.1519C109.273 24.9974 109.499 23.7467 109.499 22.3997C109.499 21.0528 109.273 19.8108 108.82 18.6738C108.367 17.5193 107.731 16.5222 106.912 15.6826C106.093 14.8254 105.126 14.1607 104.011 13.6884C102.914 13.2161 101.712 12.98 100.405 12.98C99.0984 12.98 97.8873 13.2161 96.7724 13.6884C95.6747 14.1607 94.7162 14.8254 93.8974 15.6826C93.0786 16.5222 92.4425 17.5193 91.9896 18.6738C91.5368 19.8108 91.3101 21.0528 91.3101 22.3997ZM92.826 22.3997C92.826 20.8604 93.1485 19.4959 93.7928 18.3065C94.4548 17.0994 95.3523 16.1549 96.4847 15.4726C97.6347 14.7729 98.9416 14.4231 100.405 14.4231C101.868 14.4231 103.166 14.7729 104.299 15.4726C105.449 16.1549 106.346 17.0994 106.991 18.3065C107.635 19.4959 107.958 20.8604 107.958 22.3997C107.958 23.9216 107.635 25.286 106.991 26.493C106.346 27.7 105.449 28.6534 104.299 29.3531C103.166 30.0353 101.868 30.3764 100.405 30.3764C98.9416 30.3764 97.6347 30.0353 96.4847 29.3531C95.3523 28.6534 94.4548 27.7 93.7928 26.493C93.1485 25.286 92.826 23.9216 92.826 22.3997Z" fill="#1D1D1B"/>
<path fill-rule="evenodd" clip-rule="evenodd" d="M123.331 31.5836L117.994 23.8693H115.595V31.5836H114.158V13.2163H118.339C119.524 13.2163 120.578 13.4262 121.501 13.8461C122.442 14.2659 123.183 14.8693 123.723 15.6565C124.263 16.4437 124.533 17.4058 124.533 18.5428C124.533 19.6623 124.263 20.6244 123.723 21.4291C123.183 22.2337 122.442 22.846 121.501 23.2658C120.907 23.5248 120.258 23.7005 119.555 23.7928L125.108 31.5836H123.331ZM115.595 14.502V22.5836H118.339C119.262 22.5836 120.082 22.4349 120.796 22.1375C121.528 21.8227 122.094 21.3678 122.495 20.7731C122.895 20.1609 123.096 19.4175 123.096 18.5428C123.096 17.6682 122.886 16.9335 122.468 16.3387C122.068 15.744 121.51 15.2892 120.796 14.9743C120.082 14.6595 119.262 14.502 118.339 14.502H115.595Z" fill="#1D1D1B"/>
<path d="M124.755 36.5073V39.5302H124.407V37.3872L122.236 39.6742V36.6512H122.584V38.7943L124.755 36.5073Z" fill="#1D1D1B"/>
<path d="M123.032 36.0837C122.986 35.9932 122.962 35.9013 122.962 35.8081H123.253C123.253 35.8437 123.263 35.8862 123.282 35.9356C123.301 35.9822 123.337 36.0247 123.388 36.0631C123.44 36.0987 123.514 36.1166 123.609 36.1166C123.705 36.1166 123.779 36.0987 123.831 36.0631C123.883 36.0247 123.918 35.9822 123.937 35.9356C123.956 35.8862 123.966 35.8437 123.966 35.8081H124.257C124.257 35.9013 124.232 35.9932 124.183 36.0837C124.137 36.1714 124.065 36.2441 123.97 36.3016C123.874 36.3565 123.754 36.3839 123.609 36.3839C123.468 36.3839 123.347 36.3565 123.249 36.3016C123.153 36.2441 123.081 36.1714 123.032 36.0837Z" fill="#1D1D1B"/>
<path fill-rule="evenodd" clip-rule="evenodd" d="M58.0196 39.5302L58.3829 38.6665H59.5381L59.9035 39.5302H60.2927L58.9615 36.5073L57.6304 39.5302H58.0196ZM58.5232 38.3375H59.401L58.9615 37.3011L58.5232 38.3375Z" fill="#1D1D1B"/>
<path fill-rule="evenodd" clip-rule="evenodd" d="M53.0018 36.6509V36.9804C52.7683 36.9855 52.5582 37.0306 52.3708 37.1156C52.1742 37.2034 52.0185 37.3295 51.9038 37.494C51.7918 37.6585 51.7358 37.8573 51.7358 38.0904C51.7358 38.3207 51.7918 38.5195 51.9038 38.6867C52.0185 38.8512 52.1742 38.9787 52.3708 39.0692C52.5582 39.1517 52.7683 39.1954 53.0018 39.2003V39.5299H53.3496V39.2003C53.583 39.1954 53.7916 39.1517 53.9763 39.0692C54.1761 38.9787 54.3314 38.8512 54.4437 38.6867C54.5581 38.5195 54.6155 38.3207 54.6155 38.0904C54.6155 37.8573 54.5581 37.6585 54.4437 37.494C54.3314 37.3295 54.1761 37.2034 53.9763 37.1156C53.7916 37.0306 53.583 36.9855 53.3496 36.9804V36.6509H53.0018ZM52.5469 37.4158C52.6798 37.3629 52.8315 37.3343 53.0018 37.33V38.8507C52.8315 38.8466 52.6798 38.8194 52.5469 38.769C52.4022 38.7114 52.2889 38.6264 52.2069 38.514C52.125 38.3988 52.084 38.2576 52.084 38.0904C52.084 37.9204 52.125 37.7792 52.2069 37.6667C52.2889 37.5543 52.4022 37.4707 52.5469 37.4158ZM53.8045 38.769C53.6715 38.8194 53.5198 38.8466 53.3496 38.8507V37.33C53.5198 37.3343 53.6715 37.3629 53.8045 37.4158C53.9494 37.4707 54.0628 37.5543 54.1445 37.6667C54.2263 37.7792 54.2672 37.9204 54.2672 38.0904C54.2672 38.2576 54.2263 38.3988 54.1445 38.514C54.0628 38.6264 53.9494 38.7114 53.8045 38.769Z" fill="#1D1D1B"/>
<path fill-rule="evenodd" clip-rule="evenodd" d="M63.9396 37.8024V36.9799H65.1274V36.6508H63.5913V39.5298H64.3697C64.555 39.5298 64.7206 39.4955 64.865 39.427C65.0125 39.3557 65.1285 39.2556 65.2134 39.1267C65.3008 38.9951 65.3443 38.8416 65.3443 38.6661C65.3443 38.4879 65.3008 38.3344 65.2134 38.2055C65.1285 38.0766 65.0125 37.9779 64.865 37.9093C64.7206 37.8381 64.555 37.8024 64.3697 37.8024H63.9396ZM63.9396 39.2008H64.3697C64.4924 39.2008 64.6 39.1816 64.6932 39.1432C64.789 39.1021 64.8624 39.0418 64.9142 38.9622C64.9691 38.8827 64.9965 38.784 64.9965 38.6661C64.9965 38.5482 64.9691 38.4495 64.9142 38.37C64.8624 38.2905 64.789 38.2315 64.6932 38.1931C64.6 38.152 64.4924 38.1314 64.3697 38.1314H63.9396V39.2008Z" fill="#1D1D1B"/>
<path fill-rule="evenodd" clip-rule="evenodd" d="M68.7827 39.5298H69.131V38.3782H69.5611C69.7469 38.3782 69.912 38.3439 70.057 38.2754C70.2045 38.2041 70.3204 38.104 70.4053 37.9751C70.4928 37.8436 70.5362 37.69 70.5362 37.5145C70.5362 37.3363 70.4928 37.1828 70.4053 37.0539C70.3204 36.925 70.2045 36.8263 70.057 36.7578C69.912 36.6865 69.7469 36.6508 69.5611 36.6508H68.7827V39.5298ZM69.5611 38.0492H69.131V36.9799H69.5611C69.7469 36.9799 69.897 37.0251 70.0119 37.1156C70.1294 37.2033 70.1879 37.3363 70.1879 37.5145C70.1879 37.69 70.1295 37.823 70.0119 37.9135C69.897 38.0039 69.7469 38.0492 69.5611 38.0492Z" fill="#1D1D1B"/>
<path d="M76.4975 36.5073V39.5302H76.1492V37.3872L73.978 39.6742V36.6512H74.3264V38.7943L76.4975 36.5073Z" fill="#1D1D1B"/>
<path d="M80.103 39.5299H80.4508V38.1333L81.6392 39.5299H82.0693L80.7665 37.9999L82.0077 36.6509H81.5776L80.4508 37.8909V36.6509H80.103V39.5299Z" fill="#1D1D1B"/>
<path fill-rule="evenodd" clip-rule="evenodd" d="M85.8126 38.6665L85.4493 39.5302H85.0601L86.3912 36.5073L87.7224 39.5302H87.3332L86.9678 38.6665H85.8126ZM86.8307 38.3375H85.9529L86.3912 37.3011L86.8307 38.3375Z" fill="#1D1D1B"/>
<path fill-rule="evenodd" clip-rule="evenodd" d="M96.4905 36.5073L97.5753 39.2012H97.9448V39.9826H97.6374V39.5302H95.3435V39.9826H95.0366V39.2012H95.4062L96.4905 36.5073ZM96.4905 37.3011L97.2114 39.2012H95.77L96.4905 37.3011Z" fill="#1D1D1B"/>
<path fill-rule="evenodd" clip-rule="evenodd" d="M102.519 37.9589C102.537 37.9627 102.554 37.9667 102.571 37.9711C102.689 38.0013 102.791 38.0479 102.879 38.1109C102.969 38.1712 103.038 38.2494 103.087 38.3454C103.136 38.4413 103.161 38.5551 103.161 38.6867C103.161 38.8759 103.117 39.0335 103.03 39.1597C102.945 39.2831 102.829 39.3763 102.682 39.4394C102.537 39.4997 102.372 39.5299 102.186 39.5299H101.408V36.6509H102.145C102.317 36.6509 102.466 36.6769 102.592 36.729C102.72 36.7811 102.82 36.8606 102.891 36.9676C102.961 37.0718 102.997 37.2061 102.997 37.3706C102.997 37.505 102.961 37.6201 102.891 37.7161C102.82 37.8121 102.72 37.8847 102.592 37.9341C102.579 37.939 102.567 37.9436 102.554 37.948C102.542 37.9518 102.531 37.9555 102.519 37.9589ZM101.756 38.1192V39.2214H102.186C102.309 39.2214 102.417 39.1995 102.51 39.1556C102.605 39.1117 102.679 39.0487 102.731 38.9664C102.785 38.8841 102.813 38.7841 102.813 38.6662C102.813 38.5784 102.798 38.5003 102.768 38.4317C102.738 38.3632 102.694 38.3056 102.637 38.259C102.582 38.2124 102.516 38.1781 102.44 38.1562C102.364 38.1315 102.279 38.1192 102.186 38.1192L101.756 38.1192ZM101.756 37.8148H102.145C102.24 37.8148 102.327 37.7983 102.403 37.7654C102.48 37.7326 102.54 37.6845 102.584 37.6215C102.627 37.5584 102.649 37.4817 102.649 37.3912C102.649 37.2541 102.601 37.1485 102.505 37.0745C102.41 36.9977 102.29 36.9593 102.145 36.9593H101.756V37.8148Z" fill="#1D1D1B"/>
<path d="M108.277 39.5298V39.2008H106.987V38.1314H108.195V37.8024H106.987V36.9799H108.277V36.6508H106.638V39.5298H108.277Z" fill="#1D1D1B"/>
<path fill-rule="evenodd" clip-rule="evenodd" d="M112.19 39.5298H111.841V36.6508H112.62C112.806 36.6508 112.971 36.6865 113.116 36.7578C113.263 36.8263 113.379 36.925 113.463 37.0539C113.551 37.1828 113.595 37.3363 113.595 37.5145C113.595 37.69 113.551 37.8436 113.463 37.9751C113.379 38.104 113.263 38.2041 113.116 38.2754C112.971 38.3439 112.806 38.3782 112.62 38.3782H112.19V39.5298ZM112.19 38.0492H112.62C112.806 38.0492 112.956 38.0039 113.071 37.9135C113.187 37.823 113.247 37.69 113.247 37.5145C113.247 37.3363 113.187 37.2033 113.071 37.1156C112.956 37.0251 112.806 36.9799 112.62 36.9799H112.19V38.0492Z" fill="#1D1D1B"/>
<path d="M118.671 39.5299V39.2008H117.381V38.1315H118.589V37.8024H117.381V36.9799H118.671V36.6509H117.033V39.5299H118.671Z" fill="#1D1D1B"/>
<path d="M17.0055 15.3154H7.91087V13.2163H20.7165L11.0992 29.4844H20.1938V31.5835H7.38818L17.0055 15.3154Z" fill="white"/>
<path fill-rule="evenodd" clip-rule="evenodd" d="M27.7419 26.0728L25.4217 31.583H22.939L31.4325 12.2973L39.926 31.583H37.4433L35.1109 26.0728H27.7419ZM28.6371 23.9737H34.2349L31.4325 17.3615L28.6371 23.9737Z" fill="white"/>
</g>
<defs>
<clipPath id="clip0_925_50402">
<rect width="124.216" height="45.5791" fill="white" transform="translate(0.89209 0.210434)"/>
</clipPath>
</defs>
</svg>
