<svg width="175" height="43" viewBox="0 0 175 43" fill="none" xmlns="http://www.w3.org/2000/svg">
<g id="Layer_1" clip-path="url(#clip0_925_49973)">
<path id="Vector" d="M56.5341 12.4102C51.721 12.4102 48.1523 16.3158 48.1523 22.5691C48.1523 28.0786 51.4882 31.9856 56.8416 31.9856C60.1046 31.9856 62.0059 31.1616 62.7024 30.7737L62.239 29.3278C61.1913 29.8341 59.7929 30.3831 57.0762 30.3831C53.2358 30.3831 49.975 27.9994 49.975 22.0201H63.7104C63.7833 21.6475 63.8104 21.2672 63.7911 20.8879C63.7911 18.1928 62.6274 12.4102 56.5341 12.4102ZM50.0917 20.5346C50.4448 17.6469 52.1865 13.9699 56.2995 13.9699C60.8027 13.9699 61.8898 17.9183 61.8479 20.5346H50.0917ZM75.159 21.7082V21.6295C77.4098 21.1228 79.116 19.559 79.116 17.2928C79.116 13.2688 74.4983 12.6428 71.3955 12.6428C69.7322 12.6403 68.0713 12.7712 66.4287 13.0343V31.595C67.3595 31.6719 69.1447 31.7894 70.8907 31.7894C74.4612 31.7894 79.9683 31.0864 79.9683 26.4379C79.9683 23.5821 77.838 22.0583 75.159 21.7082ZM68.1742 14.4401C69.1784 14.3179 70.1887 14.253 71.2002 14.2457C75.2379 14.2457 77.2186 15.2232 77.2186 17.5277C77.2186 20.185 73.956 21.0431 71.3186 21.0431H68.1742V14.4401ZM71.3186 30.2278C70.2559 30.2339 69.1936 30.1802 68.1367 30.0671V22.5691H71.1211C74.6165 22.5691 78.0685 23.079 78.0685 26.4379C78.0685 29.7553 73.7979 30.2278 71.3186 30.2278ZM91.5335 12.4102C88.273 12.4102 85.9849 13.9326 84.6254 16.395H84.549L84.4323 12.8377H82.6493C82.7655 14.635 82.803 16.4724 82.803 18.8183V37.4641H84.6652V28.5457H84.7439C86.0242 30.812 88.3892 32.0238 91.0701 32.0238C95.5677 32.0238 99.5267 28.5848 99.5267 21.9031C99.5267 16.395 96.3073 12.4102 91.5335 12.4102ZM90.9517 30.4587C89.5484 30.4665 88.1828 30.0017 87.072 29.1382C85.9612 28.2747 85.1689 27.0621 84.8212 25.6931C84.7087 25.207 84.6563 24.7089 84.6652 24.2099V20.5346C84.6993 19.9928 84.7899 19.4562 84.9356 18.9335C85.2758 17.5364 86.0654 16.292 87.1815 15.3942C88.2975 14.4963 89.6772 13.9955 91.1054 13.9699C95.3366 13.9699 97.6646 17.7639 97.6646 21.9805C97.6646 26.9823 95.2182 30.4587 90.9517 30.4587ZM109.579 12.4102C104.959 12.4102 100.77 15.9639 100.77 22.3702C100.77 28.2338 104.495 32.0238 109.307 32.0238H109.344C113.459 32.0238 118.23 29.016 118.23 22.0583C118.23 16.3158 114.737 12.4102 109.579 12.4102ZM109.423 30.4587H109.382C105.58 30.4587 102.631 26.9464 102.631 22.255C102.631 18.2288 104.764 13.9699 109.54 13.9699C114.467 13.9699 116.369 18.6995 116.369 22.1394C116.369 26.9464 113.305 30.4587 109.423 30.4587ZM133.674 12.8377H122.73V17.8791C122.781 20.7135 122.375 23.5374 121.529 26.2412C121.044 27.5742 120.407 28.8461 119.631 30.0312H118.156L118.305 37.4564H119.86L119.978 31.595H133.674L133.793 37.4564H135.343L135.5 30.0312H133.674V12.8377ZM131.812 30.0312H121.689C122.341 28.86 122.885 27.6304 123.312 26.3582C124.093 23.6551 124.473 20.8507 124.44 18.0357V14.3987H131.812V30.0312ZM145.353 12.4102C140.736 12.4102 136.546 15.9639 136.546 22.3702C136.546 28.2338 140.27 32.0238 145.083 32.0238H145.119C149.233 32.0238 154.008 29.016 154.008 22.0583C154.008 16.3158 150.514 12.4102 145.353 12.4102ZM145.198 30.4587H145.16C141.357 30.4587 138.408 26.9464 138.408 22.255C138.408 18.2288 140.543 13.9699 145.314 13.9699C150.244 13.9699 152.148 18.6995 152.148 22.1394C152.148 26.9464 149.078 30.4587 145.198 30.4587ZM173.605 12.8377H171.388L167.78 21.9413C166.928 24.1298 165.61 27.6871 165.103 29.1712H165.067C164.639 27.8446 163.669 25.3016 163.089 23.7428L158.858 12.8377H156.722L155.25 31.595H157.113L157.692 21.7879C157.81 19.4397 157.964 17.0228 158.006 14.9072H158.158C158.665 16.6299 159.596 19.4024 160.253 21.1228L164.253 31.595H165.61L169.841 20.9657C170.966 18.1532 171.739 16.1191 172.086 14.9072H172.207C172.321 17.2531 172.479 19.4397 172.594 21.7082L173.136 31.595H175L173.605 12.8377Z" fill="#161412"/>
<path id="Vector_2" d="M9.50209 39.4067L9.20233 39.2059L9.41913 38.9137C12.0901 35.3741 16.2938 29.6998 21.3219 29.6579C26.35 29.6998 30.5555 35.3741 33.2263 38.9137L33.4433 39.2059L33.1433 39.4067C29.6431 41.7568 25.5288 43.0074 21.3219 43C17.1153 43.0088 13.0011 41.758 9.50209 39.4067ZM21.3219 42.3107C25.2701 42.3174 29.1369 41.1804 32.4611 39.0352C29.8117 35.4715 25.6811 30.3098 21.3219 30.3449C16.9646 30.3098 12.8337 35.4715 10.1827 39.0352C13.507 41.1802 17.3737 42.3172 21.3219 42.3107ZM34.1079 38.3241C31.9538 35.2175 28.7208 30.5734 28.7073 26.2836C28.702 25.53 28.815 24.7804 29.0423 24.0624C30.6341 19.2595 37.2939 16.9873 41.4638 15.5251L41.8052 15.4058L41.9037 15.7559C42.428 17.6378 42.6942 19.583 42.6949 21.5375C42.6934 23.7954 42.3386 26.039 41.6436 28.1856C40.3507 32.2166 37.8983 35.7703 34.5973 38.396L34.3154 38.6223L34.1079 38.3241ZM29.6913 24.2768C29.4865 24.9256 29.3847 25.6028 29.3897 26.2836C29.3757 30.0986 32.3092 34.5482 34.4551 37.6271C37.5086 35.1072 39.7779 31.7561 40.9923 27.9735C41.6649 25.8952 42.0084 23.7234 42.0102 21.5375C42.0087 19.7681 41.7833 18.0061 41.3395 16.294C37.1575 17.7303 31.003 20.0894 29.6913 24.2768ZM8.0956 38.3282C4.79691 35.7006 2.34503 32.148 1.04933 28.1187C0.354724 25.9718 0.000597483 23.7281 0 21.4702C0.000359064 19.5155 0.266481 17.57 0.790956 15.688L0.889748 15.3384L1.23085 15.4554C5.40106 16.9195 12.0624 19.1916 13.6522 23.9945C13.8787 24.7119 13.9919 25.4607 13.9877 26.2135C13.9721 30.5042 10.7406 35.1501 8.58864 38.2549L8.37952 38.5549L8.0956 38.3282ZM0.684479 21.4702C0.684847 23.6558 1.0277 25.8277 1.70038 27.9056C2.91534 31.6886 5.18535 35.0397 8.23962 37.5593C10.3837 34.4804 13.3169 30.0289 13.303 26.2135C13.3089 25.5339 13.2077 24.8576 13.0032 24.2099C11.6916 20.0221 5.53693 17.6624 1.3552 16.2243C0.910415 17.937 0.685014 19.6999 0.684479 21.4702ZM26.1427 14.9432C22.0991 11.9322 22.01 4.85302 21.9155 0.407024L21.9097 0.0414422L22.2707 0.0578598C26.4736 0.228352 30.5317 1.65167 33.9304 4.14737C37.3386 6.63024 39.9374 10.0768 41.3969 14.0496L41.523 14.391L41.1758 14.498C38.5148 15.3184 34.8694 16.4287 31.5139 16.431C29.5395 16.431 27.6498 16.0436 26.1427 14.9432ZM26.5451 14.3851C27.8864 15.3684 29.6244 15.744 31.5139 15.744C34.5815 15.744 38.0118 14.7506 40.6274 13.9481C39.1922 10.2448 36.7282 7.03609 33.5301 4.70552C30.3391 2.36282 26.5462 0.994055 22.6038 0.762577C22.671 5.21402 22.9965 11.8366 26.5451 14.3851ZM1.59774 14.4566L1.25076 14.3491L1.37891 14.0082C2.83712 10.0354 5.43514 6.58868 8.84294 4.10597C12.2413 1.60945 16.2997 0.186037 20.5029 0.0164175L20.8642 0L20.858 0.365582C20.7636 4.80929 20.6768 11.8903 16.6311 14.8995C15.124 15.9999 13.234 16.3891 11.2597 16.3891C7.90616 16.3873 4.25677 15.2747 1.59774 14.4566ZM11.2597 15.7003C13.1492 15.7003 14.8871 15.3261 16.2287 14.3414C19.7791 11.7952 20.1049 5.17034 20.17 0.720665C16.2287 0.951459 12.4365 2.31877 9.24552 4.65955C6.04779 6.99158 3.58393 10.2008 2.14797 13.9043C4.75977 14.7092 8.19009 15.7022 11.2597 15.7003Z" fill="#F5CB45"/>
<path id="Vector_3" fill-rule="evenodd" clip-rule="evenodd" d="M20.5159 0.359375C20.4411 4.80448 20.2754 11.8063 16.4286 14.6193C12.5839 17.4359 5.91675 15.4296 1.69729 14.1267C3.13988 10.2214 5.69518 6.83171 9.04285 4.38263C12.3905 1.93354 16.3816 0.533982 20.5159 0.359375ZM41.0744 14.1686C36.8549 15.4715 30.1893 17.4773 26.3431 14.6629C22.4963 11.8486 22.3327 4.84634 22.2579 0.403093C26.3916 0.577905 30.3821 1.97736 33.7294 4.42609C37.0766 6.87482 39.6317 10.2639 41.0744 14.1686ZM34.3871 38.1258C31.8504 34.4865 27.8974 28.7225 29.3669 24.1691C30.8363 19.6166 37.3993 17.2948 41.5713 15.8507C42.6834 19.8635 42.595 24.1174 41.317 28.0798C40.0391 32.0422 37.6285 35.5367 34.3871 38.1258ZM1.11948 15.7811C5.2933 17.2269 11.8561 19.5492 13.3258 24.1022C14.7954 28.6547 10.8422 34.4191 8.3075 38.0579C5.06491 35.4694 2.65315 31.9748 1.37448 28.012C0.0958043 24.0491 0.00710034 19.7944 1.11948 15.7811ZM9.69026 39.1223C12.3455 35.5709 16.5665 30.0032 21.3209 30.0032C26.0765 30.0032 30.2981 35.5709 32.951 39.1223C29.5039 41.4268 25.4582 42.656 21.3206 42.656C17.183 42.656 13.1374 41.4268 9.69026 39.1223Z" fill="url(#paint0_radial_925_49973)"/>
<path id="Vector_4" d="M41.0756 14.169C37.4183 15.2989 31.9264 16.9538 28.0224 15.547C30.9047 12.6756 34.146 10.1944 37.6647 8.16602C39.1232 9.96351 40.2758 11.992 41.0756 14.169ZM34.3883 38.1262C31.8515 34.4869 27.8986 28.723 29.3681 24.1695C30.8375 19.617 37.4004 17.2952 41.5725 15.8512C42.6846 19.8639 42.5962 24.1179 41.3182 28.0802C40.0403 32.0426 37.6297 35.5372 34.3883 38.1262ZM13.6171 25.5544C13.9916 29.8265 10.5794 34.7965 8.30868 38.0584C5.06147 35.4735 2.64857 31.9769 1.37519 28.011C1.30783 27.7965 1.24117 27.5866 1.17969 27.37C5.38241 27.2647 9.55768 26.6553 13.6171 25.5544ZM9.69144 39.1228C12.3467 35.5713 16.5677 30.0036 21.3221 30.0036C26.0777 30.0036 30.2993 35.5713 32.9522 39.1228C29.5051 41.4272 25.4594 42.6564 21.3218 42.6564C17.1842 42.6564 13.1385 41.4272 9.69144 39.1228Z" fill="url(#paint1_radial_925_49973)"/>
<g id="Group">
<path id="Vector_5" opacity="0.9" d="M18.6207 7.8431C18.1101 10.4039 17.1946 12.4521 15.6719 13.5679C14.1472 14.6805 11.928 14.925 9.35373 14.6232C7.34749 14.3495 5.36783 13.9054 3.43592 13.2957C4.84871 10.1658 7.04317 7.45813 9.80514 5.43699C12.5671 3.41585 15.8023 2.15024 19.1949 1.76367C19.1735 3.80279 18.9814 5.83646 18.6207 7.8431ZM29.1032 14.5153C28.385 14.3455 27.7059 14.0381 27.1031 13.6098C25.5802 12.4958 24.6649 10.4454 24.154 7.88548C23.7924 5.87944 23.6003 3.84612 23.5799 1.80739C28.634 2.38457 33.2732 4.89971 36.5342 8.83056C33.8758 10.4722 31.3865 12.3765 29.1032 14.5153ZM7.60432 19.9105C9.86052 21.1898 11.5157 22.6989 12.0975 24.5027C12.2406 24.9538 12.3236 25.4221 12.3442 25.8953C9.11766 26.6762 5.82546 27.1504 2.5109 27.3116C1.53277 24.1273 1.37064 20.7456 2.03961 17.4813C3.95925 18.1315 5.8208 18.9441 7.60432 19.9105Z" fill="white"/>
</g>
</g>
<defs>
<radialGradient id="paint0_radial_925_49973" cx="0" cy="0" r="1" gradientUnits="userSpaceOnUse" gradientTransform="translate(21.3464 21.5077) scale(21.0035 21.1498)">
<stop stop-color="#FFE37E"/>
<stop offset="0.24276" stop-color="#FEDF79"/>
<stop offset="0.53453" stop-color="#FBD56A"/>
<stop offset="0.85038" stop-color="#F5C352"/>
<stop offset="1" stop-color="#F2B944"/>
</radialGradient>
<radialGradient id="paint1_radial_925_49973" cx="0" cy="0" r="1" gradientUnits="userSpaceOnUse" gradientTransform="translate(21.4491 40.9078) scale(24.7411 24.9134)">
<stop stop-color="#FFE37E"/>
<stop offset="0.24276" stop-color="#FEDF79"/>
<stop offset="0.53453" stop-color="#FBD56A"/>
<stop offset="0.85038" stop-color="#F5C352"/>
<stop offset="1" stop-color="#F2B944"/>
</radialGradient>
<clipPath id="clip0_925_49973">
<rect width="175" height="43" fill="white"/>
</clipPath>
</defs>
</svg>
