<svg width="70" height="70" viewBox="0 0 70 70" fill="none" xmlns="http://www.w3.org/2000/svg">
<rect width="70" height="70" rx="10" fill="white"/>
<path d="M29.0828 23.584C29.3257 23.4515 29.5839 23.6553 29.5839 23.932V42.4225C29.5839 42.6457 29.4331 42.8363 29.23 42.9291C29.1793 42.9523 29.1303 42.9768 29.0828 43.0027L25.9005 44.8173C23.6797 46.0902 21.8516 45.034 21.8516 42.4611V29.285C21.8516 28.4319 22.4609 27.3757 23.2193 26.9423L29.0828 23.584Z" fill="#1C1C1C"/>
<path d="M29.0828 23.584C29.3257 23.4515 29.5839 23.6553 29.5839 23.932V42.4225C29.5839 42.6457 29.4331 42.8363 29.23 42.9291C29.1793 42.9523 29.1303 42.9768 29.0828 43.0027L25.9005 44.8173C23.6797 46.0902 21.8516 45.034 21.8516 42.4611V29.285C21.8516 28.4319 22.4609 27.3757 23.2193 26.9423L29.0828 23.584Z" fill="black" fill-opacity="0.2"/>
<path d="M29.0828 23.584C29.3257 23.4515 29.5839 23.6553 29.5839 23.932V42.4225C29.5839 42.6457 29.4331 42.8363 29.23 42.9291C29.1793 42.9523 29.1303 42.9768 29.0828 43.0027L25.9005 44.8173C23.6797 46.0902 21.8516 45.034 21.8516 42.4611V29.285C21.8516 28.4319 22.4609 27.3757 23.2193 26.9423L29.0828 23.584Z" fill="black" fill-opacity="0.2"/>
<path d="M29.0828 23.584C29.3257 23.4515 29.5839 23.6553 29.5839 23.932V42.4225C29.5839 42.6457 29.4331 42.8363 29.23 42.9291C29.1793 42.9523 29.1303 42.9768 29.0828 43.0027L25.9005 44.8173C23.6797 46.0902 21.8516 45.034 21.8516 42.4611V29.285C21.8516 28.4319 22.4609 27.3757 23.2193 26.9423L29.0828 23.584Z" fill="black" fill-opacity="0.2"/>
<path d="M38.7844 27.0618C38.9547 27.1462 39.0625 27.3198 39.0625 27.5099V45.7132C39.0625 46.0817 38.6775 46.3236 38.3455 46.1637L32.2361 43.2203C32.0631 43.1369 31.9531 42.9618 31.9531 42.7698V24.4843C31.9531 24.1134 32.3427 23.8716 32.675 24.0362L38.7844 27.0618Z" fill="#1C1C1C"/>
<path d="M38.7844 27.0618C38.9547 27.1462 39.0625 27.3198 39.0625 27.5099V45.7132C39.0625 46.0817 38.6775 46.3236 38.3455 46.1637L32.2361 43.2203C32.0631 43.1369 31.9531 42.9618 31.9531 42.7698V24.4843C31.9531 24.1134 32.3427 23.8716 32.675 24.0362L38.7844 27.0618Z" fill="black" fill-opacity="0.2"/>
<path d="M38.7844 27.0618C38.9547 27.1462 39.0625 27.3198 39.0625 27.5099V45.7132C39.0625 46.0817 38.6775 46.3236 38.3455 46.1637L32.2361 43.2203C32.0631 43.1369 31.9531 42.9618 31.9531 42.7698V24.4843C31.9531 24.1134 32.3427 23.8716 32.675 24.0362L38.7844 27.0618Z" fill="black" fill-opacity="0.2"/>
<path d="M38.7844 27.0618C38.9547 27.1462 39.0625 27.3198 39.0625 27.5099V45.7132C39.0625 46.0817 38.6775 46.3236 38.3455 46.1637L32.2361 43.2203C32.0631 43.1369 31.9531 42.9618 31.9531 42.7698V24.4843C31.9531 24.1134 32.3427 23.8716 32.675 24.0362L38.7844 27.0618Z" fill="black" fill-opacity="0.2"/>
<path d="M48.541 27.5386V40.7146C48.541 41.5678 47.9316 42.624 47.1733 43.0573L42.1803 45.9189C41.8469 46.11 41.4316 45.8693 41.4316 45.4851V27.2195C41.4316 27.04 41.5279 26.8743 41.6838 26.7853L44.4921 25.1823C46.7129 23.9094 48.541 24.9657 48.541 27.5386Z" fill="#1C1C1C"/>
<path d="M48.541 27.5386V40.7146C48.541 41.5678 47.9316 42.624 47.1733 43.0573L42.1803 45.9189C41.8469 46.11 41.4316 45.8693 41.4316 45.4851V27.2195C41.4316 27.04 41.5279 26.8743 41.6838 26.7853L44.4921 25.1823C46.7129 23.9094 48.541 24.9657 48.541 27.5386Z" fill="black" fill-opacity="0.2"/>
<path d="M48.541 27.5386V40.7146C48.541 41.5678 47.9316 42.624 47.1733 43.0573L42.1803 45.9189C41.8469 46.11 41.4316 45.8693 41.4316 45.4851V27.2195C41.4316 27.04 41.5279 26.8743 41.6838 26.7853L44.4921 25.1823C46.7129 23.9094 48.541 24.9657 48.541 27.5386Z" fill="black" fill-opacity="0.2"/>
<path d="M48.541 27.5386V40.7146C48.541 41.5678 47.9316 42.624 47.1733 43.0573L42.1803 45.9189C41.8469 46.11 41.4316 45.8693 41.4316 45.4851V27.2195C41.4316 27.04 41.5279 26.8743 41.6838 26.7853L44.4921 25.1823C46.7129 23.9094 48.541 24.9657 48.541 27.5386Z" fill="black" fill-opacity="0.2"/>
</svg>
