<svg width="30" height="30" viewBox="0 0 30 30" fill="none" xmlns="http://www.w3.org/2000/svg">
<g clip-path="url(#clip0_1718_6273)">
<path d="M9.53828 4.4626C9.76251 4.34029 10.0008 4.52845 10.0008 4.78387V21.8229C10.0008 22.0462 9.84963 22.2364 9.64784 22.3318C9.61034 22.3496 9.57389 22.3682 9.53828 22.3876L6.60078 24.0626C4.55078 25.2376 2.86328 24.2626 2.86328 21.8876V9.7251C2.86328 8.9376 3.42578 7.9626 4.12578 7.5626L9.53828 4.4626Z" fill="#1C1C1C"/>
<path d="M9.53828 4.4626C9.76251 4.34029 10.0008 4.52845 10.0008 4.78387V21.8229C10.0008 22.0462 9.84963 22.2364 9.64784 22.3318C9.61034 22.3496 9.57389 22.3682 9.53828 22.3876L6.60078 24.0626C4.55078 25.2376 2.86328 24.2626 2.86328 21.8876V9.7251C2.86328 8.9376 3.42578 7.9626 4.12578 7.5626L9.53828 4.4626Z" fill="black" fill-opacity="0.2"/>
<path d="M9.53828 4.4626C9.76251 4.34029 10.0008 4.52845 10.0008 4.78387V21.8229C10.0008 22.0462 9.84963 22.2364 9.64784 22.3318C9.61034 22.3496 9.57389 22.3682 9.53828 22.3876L6.60078 24.0626C4.55078 25.2376 2.86328 24.2626 2.86328 21.8876V9.7251C2.86328 8.9376 3.42578 7.9626 4.12578 7.5626L9.53828 4.4626Z" fill="black" fill-opacity="0.2"/>
<path d="M9.53828 4.4626C9.76251 4.34029 10.0008 4.52845 10.0008 4.78387V21.8229C10.0008 22.0462 9.84963 22.2364 9.64784 22.3318C9.61034 22.3496 9.57389 22.3682 9.53828 22.3876L6.60078 24.0626C4.55078 25.2376 2.86328 24.2626 2.86328 21.8876V9.7251C2.86328 8.9376 3.42578 7.9626 4.12578 7.5626L9.53828 4.4626Z" fill="black" fill-opacity="0.2"/>
<path d="M18.4719 7.66226C18.6422 7.74661 18.75 7.92025 18.75 8.11032V24.8283C18.75 25.1968 18.365 25.4387 18.033 25.2788L12.4705 22.5988C12.2975 22.5155 12.1875 22.3404 12.1875 22.1484V5.35556C12.1875 4.98471 12.5771 4.74291 12.9094 4.9075L18.4719 7.66226Z" fill="#1C1C1C"/>
<path d="M18.4719 7.66226C18.6422 7.74661 18.75 7.92025 18.75 8.11032V24.8283C18.75 25.1968 18.365 25.4387 18.033 25.2788L12.4705 22.5988C12.2975 22.5155 12.1875 22.3404 12.1875 22.1484V5.35556C12.1875 4.98471 12.5771 4.74291 12.9094 4.9075L18.4719 7.66226Z" fill="black" fill-opacity="0.2"/>
<path d="M18.4719 7.66226C18.6422 7.74661 18.75 7.92025 18.75 8.11032V24.8283C18.75 25.1968 18.365 25.4387 18.033 25.2788L12.4705 22.5988C12.2975 22.5155 12.1875 22.3404 12.1875 22.1484V5.35556C12.1875 4.98471 12.5771 4.74291 12.9094 4.9075L18.4719 7.66226Z" fill="black" fill-opacity="0.2"/>
<path d="M18.4719 7.66226C18.6422 7.74661 18.75 7.92025 18.75 8.11032V24.8283C18.75 25.1968 18.365 25.4387 18.033 25.2788L12.4705 22.5988C12.2975 22.5155 12.1875 22.3404 12.1875 22.1484V5.35556C12.1875 4.98471 12.5771 4.74291 12.9094 4.9075L18.4719 7.66226Z" fill="black" fill-opacity="0.2"/>
<path d="M27.5 8.11252V20.275C27.5 21.0625 26.9375 22.0375 26.2375 22.4375L21.6861 25.046C21.3528 25.237 20.9375 24.9964 20.9375 24.6122V7.84034C20.9375 7.66083 21.0337 7.49509 21.1896 7.4061L23.7625 5.93752C25.8125 4.76252 27.5 5.73752 27.5 8.11252Z" fill="#1C1C1C"/>
<path d="M27.5 8.11252V20.275C27.5 21.0625 26.9375 22.0375 26.2375 22.4375L21.6861 25.046C21.3528 25.237 20.9375 24.9964 20.9375 24.6122V7.84034C20.9375 7.66083 21.0337 7.49509 21.1896 7.4061L23.7625 5.93752C25.8125 4.76252 27.5 5.73752 27.5 8.11252Z" fill="black" fill-opacity="0.2"/>
<path d="M27.5 8.11252V20.275C27.5 21.0625 26.9375 22.0375 26.2375 22.4375L21.6861 25.046C21.3528 25.237 20.9375 24.9964 20.9375 24.6122V7.84034C20.9375 7.66083 21.0337 7.49509 21.1896 7.4061L23.7625 5.93752C25.8125 4.76252 27.5 5.73752 27.5 8.11252Z" fill="black" fill-opacity="0.2"/>
<path d="M27.5 8.11252V20.275C27.5 21.0625 26.9375 22.0375 26.2375 22.4375L21.6861 25.046C21.3528 25.237 20.9375 24.9964 20.9375 24.6122V7.84034C20.9375 7.66083 21.0337 7.49509 21.1896 7.4061L23.7625 5.93752C25.8125 4.76252 27.5 5.73752 27.5 8.11252Z" fill="black" fill-opacity="0.2"/>
</g>
<defs>
<clipPath id="clip0_1718_6273">
<rect width="30" height="30" fill="white"/>
</clipPath>
</defs>
</svg>
