<svg width="66" height="66" viewBox="0 0 66 66" fill="none" xmlns="http://www.w3.org/2000/svg">
<path d="M14.6861 60.4846L14.2228 60.1764L14.5579 59.7278C18.6862 54.295 25.1832 45.5856 32.9545 45.5214C40.7257 45.5856 47.2256 54.295 51.3535 59.7278L51.6889 60.1764L51.2253 60.4846C45.8155 64.0916 39.4565 66.0112 32.9545 65.9999C26.4529 66.0133 20.0941 64.0936 14.6861 60.4846ZM32.9545 64.942C39.0568 64.9522 45.0331 63.2069 50.1709 59.9144C46.0761 54.4445 39.692 46.522 32.9545 46.5758C26.2199 46.522 19.8353 54.4445 15.7381 59.9144C20.876 63.2067 26.8523 64.9519 32.9545 64.942ZM52.7161 58.8229C49.3869 54.0546 44.39 46.9265 44.3691 40.3421C44.3609 39.1855 44.5357 38.0349 44.8868 36.9329C47.3472 29.561 57.6403 26.0735 64.0853 23.8291L64.6128 23.646L64.7651 24.1834C65.5754 27.0719 65.9868 30.0576 65.988 33.0576C65.9856 36.5231 65.4372 39.9667 64.363 43.2616C62.3648 49.4487 58.5745 54.9031 53.4725 58.9333L53.0369 59.2806L52.7161 58.8229ZM45.8899 37.262C45.5734 38.2578 45.4161 39.2973 45.4238 40.3421C45.4022 46.1977 49.9361 53.0274 53.2527 57.7531C57.9721 53.8854 61.4795 48.7419 63.3564 42.9359C64.396 39.7461 64.9269 36.4125 64.9297 33.0576C64.9273 30.3417 64.579 27.6372 63.8931 25.0093C57.4296 27.2139 47.9174 30.8349 45.8899 37.262ZM12.5123 58.8292C7.41396 54.7962 3.62441 49.3434 1.62182 43.1588C0.54825 39.8637 0.000923451 36.4198 0 32.9542C0.000554959 29.9539 0.411865 26.9679 1.22248 24.0793L1.37517 23.5426L1.90237 23.7222C8.34771 25.9694 18.6432 29.4569 21.1004 36.8288C21.4506 37.9299 21.6255 39.0791 21.6189 40.2345C21.5948 46.8203 16.6004 53.9512 13.2743 58.7167L12.9511 59.1772L12.5123 58.8292ZM1.05791 32.9542C1.05848 36.3088 1.58838 39.6424 2.62806 42.8318C4.50587 48.6382 8.01432 53.7817 12.7349 57.649C16.0487 52.9233 20.5823 46.0909 20.5607 40.2345C20.5698 39.1914 20.4134 38.1535 20.0973 37.1593C18.0702 30.7315 8.55772 27.1097 2.09456 24.9024C1.40711 27.5311 1.05874 30.237 1.05791 32.9542ZM40.4053 22.936C34.1557 18.3144 34.018 7.4488 33.872 0.624734L33.8629 0.0636089L34.4209 0.0888078C40.9169 0.350494 47.1889 2.53511 52.4418 6.36571C57.7094 10.1766 61.7261 15.4667 63.9819 21.5644L64.1768 22.0885L63.6401 22.2527C59.5273 23.5118 53.8931 25.2161 48.707 25.2196C45.6554 25.2196 42.7347 24.625 40.4053 22.936ZM41.0273 22.0794C43.1004 23.5887 45.7865 24.1652 48.707 24.1652C53.4481 24.1652 58.7498 22.6405 62.7925 21.4086C60.5743 15.7246 56.7661 10.7996 51.8231 7.22241C46.8912 3.62664 41.029 1.52576 34.9358 1.17046C35.0396 8.0029 35.5427 18.1678 41.0273 22.0794ZM2.46942 22.1891L1.93314 22.0242L2.1312 21.5008C4.38497 15.4031 8.4004 10.1128 13.6674 6.30217C18.9198 2.47031 25.1923 0.285545 31.6887 0.025199L32.247 0L32.2376 0.561125C32.0915 7.38169 31.9574 18.2502 25.7045 22.869C23.3752 24.5579 20.454 25.1553 17.4026 25.1553C12.2195 25.1526 6.57913 23.4448 2.46942 22.1891ZM17.4026 24.0981C20.323 24.0981 23.009 23.5237 25.0826 22.0123C30.57 18.1042 31.0735 7.93586 31.1741 1.10613C25.0826 1.46038 19.2215 3.55903 14.2896 7.15186C9.34728 10.7312 5.53922 15.6571 3.31983 21.3415C7.35656 22.5769 12.6583 24.1009 17.4026 24.0981Z" fill="#F5CB45"/>
<path fill-rule="evenodd" clip-rule="evenodd" d="M31.7096 0.552124C31.594 7.37483 31.3379 18.1217 25.3925 22.4394C19.4502 26.7626 9.14561 23.6832 2.62413 21.6833C4.85376 15.6891 8.80314 10.4864 13.9772 6.72734C19.1513 2.96828 25.3198 0.820125 31.7096 0.552124ZM63.4842 21.7476C56.9627 23.7474 46.6606 26.8261 40.7159 22.5064C34.7705 18.1867 34.5175 7.43907 34.4019 0.619227C40.7909 0.887541 46.9585 3.03554 52.132 6.79405C57.3054 10.5525 61.2544 15.7544 63.4842 21.7476ZM53.1486 58.519C49.2278 52.9332 43.1182 44.0862 45.3895 37.0972C47.6605 30.1096 57.804 26.5459 64.2522 24.3295C65.9711 30.4886 65.8344 37.0179 63.8592 43.0997C61.8841 49.1814 58.1583 54.5452 53.1486 58.519ZM1.73109 24.2226C8.18201 26.4418 18.3252 30.0062 20.5969 36.9945C22.8682 43.9821 16.7583 52.8297 12.8407 58.4149C7.82901 54.4419 4.10148 49.078 2.1252 42.9955C0.14892 36.9131 0.011822 30.3826 1.73109 24.2226ZM14.9778 60.0486C19.0817 54.5976 25.6056 46.0518 32.9538 46.0518C40.304 46.0518 46.8286 54.5976 50.9289 60.0486C45.6012 63.5857 39.3483 65.4724 32.9534 65.4724C26.5584 65.4724 20.3055 63.5857 14.9778 60.0486Z" fill="url(#paint0_radial_1718_6150)"/>
<path d="M63.4822 21.7476C57.8296 23.4819 49.3414 26.0218 43.3077 23.8627C47.7623 19.4554 52.7721 15.647 58.2104 12.5337C60.4646 15.2926 62.246 18.4061 63.4822 21.7476ZM53.1465 58.519C49.2258 52.9332 43.1162 44.0861 45.3875 37.0971C47.6585 30.1096 57.802 26.5459 64.2502 24.3295C65.9691 30.4886 65.8324 37.0179 63.8572 43.0997C61.882 49.1814 58.1563 54.5451 53.1465 58.519ZM21.0431 39.2228C21.6221 45.7799 16.3482 53.4083 12.8387 58.4149C7.81988 54.4475 4.09057 49.0806 2.12248 42.9933C2.01837 42.6642 1.91533 42.342 1.82031 42.0095C8.31591 41.848 14.7691 40.9125 21.0431 39.2228ZM14.9758 60.0486C19.0797 54.5975 25.6036 46.0518 32.9517 46.0518C40.3019 46.0518 46.8266 54.5975 50.9269 60.0486C45.5992 63.5857 39.3463 65.4724 32.9514 65.4724C26.5564 65.4724 20.3035 63.5857 14.9758 60.0486Z" fill="url(#paint1_radial_1718_6150)"/>
<path opacity="0.9" d="M28.7803 12.0388C27.991 15.9694 26.5761 19.1131 24.2227 20.8258C21.8661 22.5335 18.4362 22.9087 14.4575 22.4455C11.3568 22.0254 8.29705 21.3437 5.31116 20.4079C7.49472 15.6039 10.8864 11.448 15.1552 8.34575C19.4241 5.24354 24.4242 3.30098 29.6677 2.70764C29.6346 5.83745 29.3378 8.95889 28.7803 12.0388ZM44.9818 22.2798C43.8717 22.0193 42.8221 21.5474 41.8904 20.89C39.5367 19.1802 38.122 16.033 37.3324 12.1039C36.7735 9.02485 36.4766 5.90395 36.445 2.77474C44.2565 3.66065 51.4268 7.52108 56.4669 13.5545C52.3582 16.0742 48.5108 18.9971 44.9818 22.2798ZM11.7537 30.5609C15.2408 32.5244 17.799 34.8408 18.6983 37.6093C18.9194 38.3017 19.0476 39.0205 19.0795 39.7468C14.0927 40.9454 9.00435 41.6732 3.88146 41.9206C2.3697 37.0331 2.11911 31.8426 3.15305 26.8323C6.12 27.8303 8.99714 29.0776 11.7537 30.5609Z" fill="white"/>
<defs>
<radialGradient id="paint0_radial_1718_6150" cx="0" cy="0" r="1" gradientUnits="userSpaceOnUse" gradientTransform="translate(32.9933 33.0123) scale(32.4624 32.4624)">
<stop stop-color="#FFE37E"/>
<stop offset="0.24276" stop-color="#FEDF79"/>
<stop offset="0.53453" stop-color="#FBD56A"/>
<stop offset="0.85038" stop-color="#F5C352"/>
<stop offset="1" stop-color="#F2B944"/>
</radialGradient>
<radialGradient id="paint1_radial_1718_6150" cx="0" cy="0" r="1" gradientUnits="userSpaceOnUse" gradientTransform="translate(33.1481 62.7884) scale(38.2391)">
<stop stop-color="#FFE37E"/>
<stop offset="0.24276" stop-color="#FEDF79"/>
<stop offset="0.53453" stop-color="#FBD56A"/>
<stop offset="0.85038" stop-color="#F5C352"/>
<stop offset="1" stop-color="#F2B944"/>
</radialGradient>
</defs>
</svg>
