<svg width="282" height="66" viewBox="0 0 282 66" fill="none" xmlns="http://www.w3.org/2000/svg">
<path d="M14.6861 60.4846L14.2228 60.1764L14.5579 59.7278C18.6862 54.295 25.1832 45.5856 32.9545 45.5214C40.7257 45.5856 47.2256 54.295 51.3535 59.7278L51.6889 60.1764L51.2253 60.4846C45.8155 64.0916 39.4565 66.0112 32.9545 65.9999C26.4529 66.0133 20.0941 64.0936 14.6861 60.4846ZM32.9545 64.942C39.0568 64.9522 45.0331 63.2069 50.1709 59.9144C46.0761 54.4445 39.692 46.522 32.9545 46.5758C26.2199 46.522 19.8353 54.4445 15.7381 59.9144C20.876 63.2067 26.8523 64.9519 32.9545 64.942ZM52.7161 58.8229C49.3869 54.0546 44.39 46.9265 44.3691 40.3421C44.3609 39.1855 44.5357 38.0349 44.8868 36.9329C47.3472 29.561 57.6403 26.0735 64.0853 23.8291L64.6128 23.646L64.7651 24.1834C65.5754 27.0719 65.9868 30.0576 65.988 33.0576C65.9856 36.5231 65.4372 39.9667 64.363 43.2616C62.3648 49.4487 58.5745 54.9031 53.4725 58.9333L53.0369 59.2806L52.7161 58.8229ZM45.8899 37.262C45.5734 38.2578 45.4161 39.2973 45.4238 40.3421C45.4022 46.1977 49.9361 53.0274 53.2527 57.7531C57.9721 53.8854 61.4795 48.7419 63.3564 42.9359C64.396 39.7461 64.9269 36.4125 64.9297 33.0576C64.9273 30.3417 64.579 27.6372 63.8931 25.0093C57.4296 27.2139 47.9174 30.8349 45.8899 37.262ZM12.5123 58.8292C7.41396 54.7962 3.62441 49.3434 1.62182 43.1588C0.54825 39.8637 0.000923451 36.4198 0 32.9542C0.000554959 29.9539 0.411865 26.9679 1.22248 24.0793L1.37517 23.5426L1.90237 23.7222C8.34771 25.9694 18.6432 29.4569 21.1004 36.8288C21.4506 37.9299 21.6255 39.0791 21.6189 40.2345C21.5948 46.8203 16.6004 53.9512 13.2743 58.7167L12.9511 59.1772L12.5123 58.8292ZM1.05791 32.9542C1.05848 36.3088 1.58838 39.6424 2.62806 42.8318C4.50587 48.6382 8.01432 53.7817 12.7349 57.649C16.0487 52.9233 20.5823 46.0909 20.5607 40.2345C20.5698 39.1914 20.4134 38.1535 20.0973 37.1593C18.0702 30.7315 8.55772 27.1097 2.09456 24.9024C1.40711 27.5311 1.05874 30.237 1.05791 32.9542ZM40.4053 22.936C34.1557 18.3144 34.018 7.4488 33.872 0.624734L33.8629 0.0636089L34.4209 0.0888078C40.9169 0.350494 47.1889 2.53511 52.4418 6.36571C57.7094 10.1766 61.7261 15.4667 63.9819 21.5644L64.1768 22.0885L63.6401 22.2527C59.5273 23.5118 53.8931 25.2161 48.707 25.2196C45.6554 25.2196 42.7347 24.625 40.4053 22.936ZM41.0273 22.0794C43.1004 23.5887 45.7865 24.1652 48.707 24.1652C53.4481 24.1652 58.7498 22.6405 62.7925 21.4086C60.5743 15.7246 56.7661 10.7996 51.8231 7.22241C46.8912 3.62664 41.029 1.52576 34.9358 1.17046C35.0396 8.0029 35.5427 18.1678 41.0273 22.0794ZM2.46942 22.1891L1.93314 22.0242L2.1312 21.5008C4.38497 15.4031 8.4004 10.1128 13.6674 6.30217C18.9198 2.47031 25.1923 0.285545 31.6887 0.025199L32.247 0L32.2376 0.561125C32.0915 7.38169 31.9574 18.2502 25.7045 22.869C23.3752 24.5579 20.454 25.1553 17.4026 25.1553C12.2195 25.1526 6.57913 23.4448 2.46942 22.1891ZM17.4026 24.0981C20.323 24.0981 23.009 23.5237 25.0826 22.0123C30.57 18.1042 31.0735 7.93586 31.1741 1.10613C25.0826 1.46038 19.2215 3.55903 14.2896 7.15186C9.34728 10.7312 5.53922 15.6571 3.31983 21.3415C7.35656 22.5769 12.6583 24.1009 17.4026 24.0981Z" fill="#F5CB45"/>
<path fill-rule="evenodd" clip-rule="evenodd" d="M31.7096 0.552002C31.594 7.37471 31.3379 18.1216 25.3925 22.4392C19.4502 26.7625 9.14561 23.683 2.62413 21.6831C4.85376 15.689 8.80314 10.4863 13.9772 6.72721C19.1513 2.96816 25.3198 0.820002 31.7096 0.552002ZM63.4842 21.7475C56.9627 23.7473 46.6606 26.826 40.7159 22.5063C34.7705 18.1866 34.5175 7.43895 34.4019 0.619105C40.7909 0.887419 46.9585 3.03542 52.132 6.79392C57.3054 10.5524 61.2544 15.7542 63.4842 21.7475ZM53.1486 58.5189C49.2278 52.9331 43.1182 44.086 45.3895 37.097C47.6605 30.1095 57.804 26.5458 64.2522 24.3294C65.9711 30.4885 65.8344 37.0178 63.8592 43.0996C61.8841 49.1813 58.1583 54.545 53.1486 58.5189ZM1.73109 24.2225C8.18201 26.4417 18.3252 30.0061 20.5969 36.9944C22.8682 43.9819 16.7583 52.8296 12.8407 58.4148C7.82901 54.4417 4.10148 49.0779 2.1252 42.9954C0.14892 36.913 0.011822 30.3825 1.73109 24.2225ZM14.9778 60.0485C19.0817 54.5975 25.6056 46.0517 32.9538 46.0517C40.304 46.0517 46.8286 54.5975 50.9289 60.0485C45.6012 63.5856 39.3483 65.4723 32.9534 65.4723C26.5584 65.4723 20.3055 63.5856 14.9778 60.0485Z" fill="url(#paint0_radial_1718_8253)"/>
<path d="M63.4822 21.7476C57.8296 23.4819 49.3414 26.0218 43.3077 23.8627C47.7623 19.4554 52.7721 15.647 58.2104 12.5337C60.4646 15.2926 62.246 18.4061 63.4822 21.7476ZM53.1465 58.519C49.2258 52.9332 43.1162 44.0861 45.3875 37.0971C47.6585 30.1096 57.802 26.5459 64.2502 24.3295C65.9691 30.4886 65.8324 37.0179 63.8572 43.0997C61.882 49.1814 58.1563 54.5451 53.1465 58.519ZM21.0431 39.2228C21.6221 45.7799 16.3482 53.4083 12.8387 58.4149C7.81988 54.4475 4.09057 49.0806 2.12248 42.9933C2.01837 42.6642 1.91533 42.342 1.82031 42.0095C8.31591 41.848 14.7691 40.9125 21.0431 39.2228ZM14.9758 60.0486C19.0797 54.5975 25.6036 46.0518 32.9517 46.0518C40.3019 46.0518 46.8266 54.5975 50.9269 60.0486C45.5992 63.5857 39.3463 65.4724 32.9514 65.4724C26.5564 65.4724 20.3035 63.5857 14.9758 60.0486Z" fill="url(#paint1_radial_1718_8253)"/>
<path opacity="0.9" d="M28.7803 12.0387C27.991 15.9693 26.5761 19.113 24.2227 20.8256C21.8661 22.5334 18.4362 22.9086 14.4575 22.4454C11.3568 22.0252 8.29705 21.3436 5.31116 20.4078C7.49472 15.6037 10.8864 11.4478 15.1552 8.34563C19.4241 5.24341 24.4242 3.30086 29.6677 2.70752C29.6346 5.83733 29.3378 8.95877 28.7803 12.0387ZM44.9818 22.2797C43.8717 22.0191 42.8221 21.5473 41.8904 20.8899C39.5367 19.1801 38.122 16.0329 37.3324 12.1038C36.7735 9.02473 36.4766 5.90383 36.445 2.77462C44.2565 3.66053 51.4268 7.52096 56.4669 13.5543C52.3582 16.0741 48.5108 18.997 44.9818 22.2797ZM11.7537 30.5608C15.2408 32.5242 17.799 34.8406 18.6983 37.6092C18.9194 38.3016 19.0476 39.0204 19.0795 39.7466C14.0927 40.9453 9.00435 41.6731 3.88146 41.9205C2.3697 37.033 2.11911 31.8425 3.15305 26.8321C6.12 27.8301 8.99714 29.0775 11.7537 30.5608Z" fill="white"/>
<path d="M94.576 25.4H102.576V27.5H92.401V10H102.301V12.075H94.576V17.5H101.651V19.525H94.576V25.4ZM114.449 20.5C115.132 20.75 115.674 21.1667 116.074 21.75C116.491 22.3333 116.699 22.9917 116.699 23.725C116.699 24.8083 116.299 25.7083 115.499 26.425C114.716 27.1417 113.732 27.5 112.549 27.5H105.774V14H112.474C113.591 14 114.499 14.325 115.199 14.975C115.899 15.6083 116.249 16.425 116.249 17.425C116.249 17.875 116.174 18.3 116.024 18.7C115.874 19.1 115.666 19.4583 115.399 19.775C115.132 20.075 114.816 20.3167 114.449 20.5ZM114.149 17.8C114.149 17.25 113.966 16.8167 113.599 16.5C113.232 16.1667 112.757 16 112.174 16H107.849V19.575H112.174C112.774 19.575 113.249 19.4167 113.599 19.1C113.966 18.7667 114.149 18.3333 114.149 17.8ZM112.299 25.5C112.716 25.5 113.091 25.4167 113.424 25.25C113.774 25.0667 114.041 24.825 114.224 24.525C114.407 24.225 114.499 23.8917 114.499 23.525C114.499 23.1417 114.407 22.8 114.224 22.5C114.041 22.1833 113.774 21.9417 113.424 21.775C113.091 21.6083 112.707 21.525 112.274 21.525H107.849V25.5H112.299ZM127.279 13.7C129.296 13.7 130.954 14.3667 132.254 15.7C133.571 17.0333 134.229 18.7167 134.229 20.75C134.229 22.7667 133.571 24.45 132.254 25.8C130.954 27.1333 129.296 27.8 127.279 27.8C125.246 27.8 123.571 27.1 122.254 25.7V32.325H120.129V14H121.579L122.004 16.075C122.638 15.325 123.404 14.7417 124.304 14.325C125.221 13.9083 126.213 13.7 127.279 13.7ZM127.129 25.75C128.563 25.75 129.746 25.275 130.679 24.325C131.613 23.375 132.079 22.1833 132.079 20.75C132.079 19.3167 131.613 18.125 130.679 17.175C129.746 16.225 128.563 15.75 127.129 15.75C125.696 15.75 124.504 16.2333 123.554 17.2C122.621 18.15 122.154 19.3333 122.154 20.75C122.154 21.6833 122.363 22.5333 122.779 23.3C123.213 24.0667 123.813 24.6667 124.579 25.1C125.346 25.5333 126.196 25.75 127.129 25.75ZM143.538 27.8C142.205 27.8 140.988 27.5 139.888 26.9C138.788 26.2833 137.93 25.4417 137.313 24.375C136.697 23.2917 136.388 22.0833 136.388 20.75C136.388 18.7167 137.063 17.0333 138.413 15.7C139.78 14.3667 141.488 13.7 143.538 13.7C144.888 13.7 146.105 14.0083 147.188 14.625C148.288 15.225 149.147 16.0667 149.763 17.15C150.397 18.2167 150.713 19.4167 150.713 20.75C150.713 22.7667 150.03 24.45 148.663 25.8C147.297 27.1333 145.588 27.8 143.538 27.8ZM139.963 24.35C140.913 25.2833 142.105 25.75 143.538 25.75C144.988 25.75 146.18 25.2833 147.113 24.35C148.063 23.4 148.538 22.2 148.538 20.75C148.538 19.3 148.063 18.1083 147.113 17.175C146.18 16.225 144.988 15.75 143.538 15.75C142.105 15.75 140.913 16.225 139.963 17.175C139.03 18.1083 138.563 19.3 138.563 20.75C138.563 22.2 139.03 23.4 139.963 24.35ZM164.95 25.5H166.775V31.075H164.825V27.5H153.95V31.075H152V25.5H153.45C153.85 25.1333 154.158 24.6167 154.375 23.95C154.592 23.2667 154.783 22.2333 154.95 20.85C155.133 19.45 155.35 17.1667 155.6 14H164.95V25.5ZM157.5 15.875C157.35 18.1083 157.192 19.85 157.025 21.1C156.875 22.3333 156.7 23.2833 156.5 23.95C156.3 24.6 156.042 25.1167 155.725 25.5H162.875V15.875H157.5ZM175.741 27.8C174.407 27.8 173.191 27.5 172.091 26.9C170.991 26.2833 170.132 25.4417 169.516 24.375C168.899 23.2917 168.591 22.0833 168.591 20.75C168.591 18.7167 169.266 17.0333 170.616 15.7C171.982 14.3667 173.691 13.7 175.741 13.7C177.091 13.7 178.307 14.0083 179.391 14.625C180.491 15.225 181.349 16.0667 181.966 17.15C182.599 18.2167 182.916 19.4167 182.916 20.75C182.916 22.7667 182.232 24.45 180.866 25.8C179.499 27.1333 177.791 27.8 175.741 27.8ZM172.166 24.35C173.116 25.2833 174.307 25.75 175.741 25.75C177.191 25.75 178.382 25.2833 179.316 24.35C180.266 23.4 180.741 22.2 180.741 20.75C180.741 19.3 180.266 18.1083 179.316 17.175C178.382 16.225 177.191 15.75 175.741 15.75C174.307 15.75 173.116 16.225 172.166 17.175C171.232 18.1083 170.766 19.3 170.766 20.75C170.766 22.2 171.232 23.4 172.166 24.35ZM202.822 27.5H200.772L198.847 17.475L194.072 27.225H193.597L188.847 17.475L186.922 27.5H184.872L187.447 14H189.222L193.847 23.45L198.447 14H200.222L202.822 27.5Z" fill="#1C1C1C"/>
<path d="M94.576 25.4H102.576V27.5H92.401V10H102.301V12.075H94.576V17.5H101.651V19.525H94.576V25.4ZM114.449 20.5C115.132 20.75 115.674 21.1667 116.074 21.75C116.491 22.3333 116.699 22.9917 116.699 23.725C116.699 24.8083 116.299 25.7083 115.499 26.425C114.716 27.1417 113.732 27.5 112.549 27.5H105.774V14H112.474C113.591 14 114.499 14.325 115.199 14.975C115.899 15.6083 116.249 16.425 116.249 17.425C116.249 17.875 116.174 18.3 116.024 18.7C115.874 19.1 115.666 19.4583 115.399 19.775C115.132 20.075 114.816 20.3167 114.449 20.5ZM114.149 17.8C114.149 17.25 113.966 16.8167 113.599 16.5C113.232 16.1667 112.757 16 112.174 16H107.849V19.575H112.174C112.774 19.575 113.249 19.4167 113.599 19.1C113.966 18.7667 114.149 18.3333 114.149 17.8ZM112.299 25.5C112.716 25.5 113.091 25.4167 113.424 25.25C113.774 25.0667 114.041 24.825 114.224 24.525C114.407 24.225 114.499 23.8917 114.499 23.525C114.499 23.1417 114.407 22.8 114.224 22.5C114.041 22.1833 113.774 21.9417 113.424 21.775C113.091 21.6083 112.707 21.525 112.274 21.525H107.849V25.5H112.299ZM127.279 13.7C129.296 13.7 130.954 14.3667 132.254 15.7C133.571 17.0333 134.229 18.7167 134.229 20.75C134.229 22.7667 133.571 24.45 132.254 25.8C130.954 27.1333 129.296 27.8 127.279 27.8C125.246 27.8 123.571 27.1 122.254 25.7V32.325H120.129V14H121.579L122.004 16.075C122.638 15.325 123.404 14.7417 124.304 14.325C125.221 13.9083 126.213 13.7 127.279 13.7ZM127.129 25.75C128.563 25.75 129.746 25.275 130.679 24.325C131.613 23.375 132.079 22.1833 132.079 20.75C132.079 19.3167 131.613 18.125 130.679 17.175C129.746 16.225 128.563 15.75 127.129 15.75C125.696 15.75 124.504 16.2333 123.554 17.2C122.621 18.15 122.154 19.3333 122.154 20.75C122.154 21.6833 122.363 22.5333 122.779 23.3C123.213 24.0667 123.813 24.6667 124.579 25.1C125.346 25.5333 126.196 25.75 127.129 25.75ZM143.538 27.8C142.205 27.8 140.988 27.5 139.888 26.9C138.788 26.2833 137.93 25.4417 137.313 24.375C136.697 23.2917 136.388 22.0833 136.388 20.75C136.388 18.7167 137.063 17.0333 138.413 15.7C139.78 14.3667 141.488 13.7 143.538 13.7C144.888 13.7 146.105 14.0083 147.188 14.625C148.288 15.225 149.147 16.0667 149.763 17.15C150.397 18.2167 150.713 19.4167 150.713 20.75C150.713 22.7667 150.03 24.45 148.663 25.8C147.297 27.1333 145.588 27.8 143.538 27.8ZM139.963 24.35C140.913 25.2833 142.105 25.75 143.538 25.75C144.988 25.75 146.18 25.2833 147.113 24.35C148.063 23.4 148.538 22.2 148.538 20.75C148.538 19.3 148.063 18.1083 147.113 17.175C146.18 16.225 144.988 15.75 143.538 15.75C142.105 15.75 140.913 16.225 139.963 17.175C139.03 18.1083 138.563 19.3 138.563 20.75C138.563 22.2 139.03 23.4 139.963 24.35ZM164.95 25.5H166.775V31.075H164.825V27.5H153.95V31.075H152V25.5H153.45C153.85 25.1333 154.158 24.6167 154.375 23.95C154.592 23.2667 154.783 22.2333 154.95 20.85C155.133 19.45 155.35 17.1667 155.6 14H164.95V25.5ZM157.5 15.875C157.35 18.1083 157.192 19.85 157.025 21.1C156.875 22.3333 156.7 23.2833 156.5 23.95C156.3 24.6 156.042 25.1167 155.725 25.5H162.875V15.875H157.5ZM175.741 27.8C174.407 27.8 173.191 27.5 172.091 26.9C170.991 26.2833 170.132 25.4417 169.516 24.375C168.899 23.2917 168.591 22.0833 168.591 20.75C168.591 18.7167 169.266 17.0333 170.616 15.7C171.982 14.3667 173.691 13.7 175.741 13.7C177.091 13.7 178.307 14.0083 179.391 14.625C180.491 15.225 181.349 16.0667 181.966 17.15C182.599 18.2167 182.916 19.4167 182.916 20.75C182.916 22.7667 182.232 24.45 180.866 25.8C179.499 27.1333 177.791 27.8 175.741 27.8ZM172.166 24.35C173.116 25.2833 174.307 25.75 175.741 25.75C177.191 25.75 178.382 25.2833 179.316 24.35C180.266 23.4 180.741 22.2 180.741 20.75C180.741 19.3 180.266 18.1083 179.316 17.175C178.382 16.225 177.191 15.75 175.741 15.75C174.307 15.75 173.116 16.225 172.166 17.175C171.232 18.1083 170.766 19.3 170.766 20.75C170.766 22.2 171.232 23.4 172.166 24.35ZM202.822 27.5H200.772L198.847 17.475L194.072 27.225H193.597L188.847 17.475L186.922 27.5H184.872L187.447 14H189.222L193.847 23.45L198.447 14H200.222L202.822 27.5Z" fill="black" fill-opacity="0.2"/>
<path d="M94.576 25.4H102.576V27.5H92.401V10H102.301V12.075H94.576V17.5H101.651V19.525H94.576V25.4ZM114.449 20.5C115.132 20.75 115.674 21.1667 116.074 21.75C116.491 22.3333 116.699 22.9917 116.699 23.725C116.699 24.8083 116.299 25.7083 115.499 26.425C114.716 27.1417 113.732 27.5 112.549 27.5H105.774V14H112.474C113.591 14 114.499 14.325 115.199 14.975C115.899 15.6083 116.249 16.425 116.249 17.425C116.249 17.875 116.174 18.3 116.024 18.7C115.874 19.1 115.666 19.4583 115.399 19.775C115.132 20.075 114.816 20.3167 114.449 20.5ZM114.149 17.8C114.149 17.25 113.966 16.8167 113.599 16.5C113.232 16.1667 112.757 16 112.174 16H107.849V19.575H112.174C112.774 19.575 113.249 19.4167 113.599 19.1C113.966 18.7667 114.149 18.3333 114.149 17.8ZM112.299 25.5C112.716 25.5 113.091 25.4167 113.424 25.25C113.774 25.0667 114.041 24.825 114.224 24.525C114.407 24.225 114.499 23.8917 114.499 23.525C114.499 23.1417 114.407 22.8 114.224 22.5C114.041 22.1833 113.774 21.9417 113.424 21.775C113.091 21.6083 112.707 21.525 112.274 21.525H107.849V25.5H112.299ZM127.279 13.7C129.296 13.7 130.954 14.3667 132.254 15.7C133.571 17.0333 134.229 18.7167 134.229 20.75C134.229 22.7667 133.571 24.45 132.254 25.8C130.954 27.1333 129.296 27.8 127.279 27.8C125.246 27.8 123.571 27.1 122.254 25.7V32.325H120.129V14H121.579L122.004 16.075C122.638 15.325 123.404 14.7417 124.304 14.325C125.221 13.9083 126.213 13.7 127.279 13.7ZM127.129 25.75C128.563 25.75 129.746 25.275 130.679 24.325C131.613 23.375 132.079 22.1833 132.079 20.75C132.079 19.3167 131.613 18.125 130.679 17.175C129.746 16.225 128.563 15.75 127.129 15.75C125.696 15.75 124.504 16.2333 123.554 17.2C122.621 18.15 122.154 19.3333 122.154 20.75C122.154 21.6833 122.363 22.5333 122.779 23.3C123.213 24.0667 123.813 24.6667 124.579 25.1C125.346 25.5333 126.196 25.75 127.129 25.75ZM143.538 27.8C142.205 27.8 140.988 27.5 139.888 26.9C138.788 26.2833 137.93 25.4417 137.313 24.375C136.697 23.2917 136.388 22.0833 136.388 20.75C136.388 18.7167 137.063 17.0333 138.413 15.7C139.78 14.3667 141.488 13.7 143.538 13.7C144.888 13.7 146.105 14.0083 147.188 14.625C148.288 15.225 149.147 16.0667 149.763 17.15C150.397 18.2167 150.713 19.4167 150.713 20.75C150.713 22.7667 150.03 24.45 148.663 25.8C147.297 27.1333 145.588 27.8 143.538 27.8ZM139.963 24.35C140.913 25.2833 142.105 25.75 143.538 25.75C144.988 25.75 146.18 25.2833 147.113 24.35C148.063 23.4 148.538 22.2 148.538 20.75C148.538 19.3 148.063 18.1083 147.113 17.175C146.18 16.225 144.988 15.75 143.538 15.75C142.105 15.75 140.913 16.225 139.963 17.175C139.03 18.1083 138.563 19.3 138.563 20.75C138.563 22.2 139.03 23.4 139.963 24.35ZM164.95 25.5H166.775V31.075H164.825V27.5H153.95V31.075H152V25.5H153.45C153.85 25.1333 154.158 24.6167 154.375 23.95C154.592 23.2667 154.783 22.2333 154.95 20.85C155.133 19.45 155.35 17.1667 155.6 14H164.95V25.5ZM157.5 15.875C157.35 18.1083 157.192 19.85 157.025 21.1C156.875 22.3333 156.7 23.2833 156.5 23.95C156.3 24.6 156.042 25.1167 155.725 25.5H162.875V15.875H157.5ZM175.741 27.8C174.407 27.8 173.191 27.5 172.091 26.9C170.991 26.2833 170.132 25.4417 169.516 24.375C168.899 23.2917 168.591 22.0833 168.591 20.75C168.591 18.7167 169.266 17.0333 170.616 15.7C171.982 14.3667 173.691 13.7 175.741 13.7C177.091 13.7 178.307 14.0083 179.391 14.625C180.491 15.225 181.349 16.0667 181.966 17.15C182.599 18.2167 182.916 19.4167 182.916 20.75C182.916 22.7667 182.232 24.45 180.866 25.8C179.499 27.1333 177.791 27.8 175.741 27.8ZM172.166 24.35C173.116 25.2833 174.307 25.75 175.741 25.75C177.191 25.75 178.382 25.2833 179.316 24.35C180.266 23.4 180.741 22.2 180.741 20.75C180.741 19.3 180.266 18.1083 179.316 17.175C178.382 16.225 177.191 15.75 175.741 15.75C174.307 15.75 173.116 16.225 172.166 17.175C171.232 18.1083 170.766 19.3 170.766 20.75C170.766 22.2 171.232 23.4 172.166 24.35ZM202.822 27.5H200.772L198.847 17.475L194.072 27.225H193.597L188.847 17.475L186.922 27.5H184.872L187.447 14H189.222L193.847 23.45L198.447 14H200.222L202.822 27.5Z" fill="black" fill-opacity="0.2"/>
<path d="M94.576 25.4H102.576V27.5H92.401V10H102.301V12.075H94.576V17.5H101.651V19.525H94.576V25.4ZM114.449 20.5C115.132 20.75 115.674 21.1667 116.074 21.75C116.491 22.3333 116.699 22.9917 116.699 23.725C116.699 24.8083 116.299 25.7083 115.499 26.425C114.716 27.1417 113.732 27.5 112.549 27.5H105.774V14H112.474C113.591 14 114.499 14.325 115.199 14.975C115.899 15.6083 116.249 16.425 116.249 17.425C116.249 17.875 116.174 18.3 116.024 18.7C115.874 19.1 115.666 19.4583 115.399 19.775C115.132 20.075 114.816 20.3167 114.449 20.5ZM114.149 17.8C114.149 17.25 113.966 16.8167 113.599 16.5C113.232 16.1667 112.757 16 112.174 16H107.849V19.575H112.174C112.774 19.575 113.249 19.4167 113.599 19.1C113.966 18.7667 114.149 18.3333 114.149 17.8ZM112.299 25.5C112.716 25.5 113.091 25.4167 113.424 25.25C113.774 25.0667 114.041 24.825 114.224 24.525C114.407 24.225 114.499 23.8917 114.499 23.525C114.499 23.1417 114.407 22.8 114.224 22.5C114.041 22.1833 113.774 21.9417 113.424 21.775C113.091 21.6083 112.707 21.525 112.274 21.525H107.849V25.5H112.299ZM127.279 13.7C129.296 13.7 130.954 14.3667 132.254 15.7C133.571 17.0333 134.229 18.7167 134.229 20.75C134.229 22.7667 133.571 24.45 132.254 25.8C130.954 27.1333 129.296 27.8 127.279 27.8C125.246 27.8 123.571 27.1 122.254 25.7V32.325H120.129V14H121.579L122.004 16.075C122.638 15.325 123.404 14.7417 124.304 14.325C125.221 13.9083 126.213 13.7 127.279 13.7ZM127.129 25.75C128.563 25.75 129.746 25.275 130.679 24.325C131.613 23.375 132.079 22.1833 132.079 20.75C132.079 19.3167 131.613 18.125 130.679 17.175C129.746 16.225 128.563 15.75 127.129 15.75C125.696 15.75 124.504 16.2333 123.554 17.2C122.621 18.15 122.154 19.3333 122.154 20.75C122.154 21.6833 122.363 22.5333 122.779 23.3C123.213 24.0667 123.813 24.6667 124.579 25.1C125.346 25.5333 126.196 25.75 127.129 25.75ZM143.538 27.8C142.205 27.8 140.988 27.5 139.888 26.9C138.788 26.2833 137.93 25.4417 137.313 24.375C136.697 23.2917 136.388 22.0833 136.388 20.75C136.388 18.7167 137.063 17.0333 138.413 15.7C139.78 14.3667 141.488 13.7 143.538 13.7C144.888 13.7 146.105 14.0083 147.188 14.625C148.288 15.225 149.147 16.0667 149.763 17.15C150.397 18.2167 150.713 19.4167 150.713 20.75C150.713 22.7667 150.03 24.45 148.663 25.8C147.297 27.1333 145.588 27.8 143.538 27.8ZM139.963 24.35C140.913 25.2833 142.105 25.75 143.538 25.75C144.988 25.75 146.18 25.2833 147.113 24.35C148.063 23.4 148.538 22.2 148.538 20.75C148.538 19.3 148.063 18.1083 147.113 17.175C146.18 16.225 144.988 15.75 143.538 15.75C142.105 15.75 140.913 16.225 139.963 17.175C139.03 18.1083 138.563 19.3 138.563 20.75C138.563 22.2 139.03 23.4 139.963 24.35ZM164.95 25.5H166.775V31.075H164.825V27.5H153.95V31.075H152V25.5H153.45C153.85 25.1333 154.158 24.6167 154.375 23.95C154.592 23.2667 154.783 22.2333 154.95 20.85C155.133 19.45 155.35 17.1667 155.6 14H164.95V25.5ZM157.5 15.875C157.35 18.1083 157.192 19.85 157.025 21.1C156.875 22.3333 156.7 23.2833 156.5 23.95C156.3 24.6 156.042 25.1167 155.725 25.5H162.875V15.875H157.5ZM175.741 27.8C174.407 27.8 173.191 27.5 172.091 26.9C170.991 26.2833 170.132 25.4417 169.516 24.375C168.899 23.2917 168.591 22.0833 168.591 20.75C168.591 18.7167 169.266 17.0333 170.616 15.7C171.982 14.3667 173.691 13.7 175.741 13.7C177.091 13.7 178.307 14.0083 179.391 14.625C180.491 15.225 181.349 16.0667 181.966 17.15C182.599 18.2167 182.916 19.4167 182.916 20.75C182.916 22.7667 182.232 24.45 180.866 25.8C179.499 27.1333 177.791 27.8 175.741 27.8ZM172.166 24.35C173.116 25.2833 174.307 25.75 175.741 25.75C177.191 25.75 178.382 25.2833 179.316 24.35C180.266 23.4 180.741 22.2 180.741 20.75C180.741 19.3 180.266 18.1083 179.316 17.175C178.382 16.225 177.191 15.75 175.741 15.75C174.307 15.75 173.116 16.225 172.166 17.175C171.232 18.1083 170.766 19.3 170.766 20.75C170.766 22.2 171.232 23.4 172.166 24.35ZM202.822 27.5H200.772L198.847 17.475L194.072 27.225H193.597L188.847 17.475L186.922 27.5H184.872L187.447 14H189.222L193.847 23.45L198.447 14H200.222L202.822 27.5Z" fill="black" fill-opacity="0.2"/>
<path d="M106.417 56.5H104.815L103.177 46.654L98.821 56.176H98.407L94.051 46.672L92.413 56.5H90.793L92.917 43.9H94.429L98.605 53.152L102.781 43.9H104.329L106.417 56.5ZM117.778 51.676C117.778 51.808 117.766 51.994 117.742 52.234H109.444C109.564 53.134 109.936 53.86 110.56 54.412C111.184 54.952 111.952 55.222 112.864 55.222C113.536 55.222 114.13 55.078 114.646 54.79C115.174 54.49 115.594 54.07 115.906 53.53H117.508C117.1 54.538 116.488 55.324 115.672 55.888C114.856 56.44 113.92 56.716 112.864 56.716C111.46 56.716 110.284 56.23 109.336 55.258C108.388 54.286 107.914 53.08 107.914 51.64C107.914 50.188 108.388 48.982 109.336 48.022C110.284 47.05 111.46 46.564 112.864 46.564C114.316 46.564 115.498 47.056 116.41 48.04C117.322 49.024 117.778 50.236 117.778 51.676ZM112.864 48.022C112.288 48.022 111.76 48.136 111.28 48.364C110.812 48.592 110.422 48.922 110.11 49.354C109.798 49.774 109.588 50.26 109.48 50.812H116.23C116.122 50.248 115.912 49.756 115.6 49.336C115.288 48.904 114.898 48.58 114.43 48.364C113.962 48.136 113.44 48.022 112.864 48.022ZM124.831 47.284C126.211 47.284 127.345 47.722 128.233 48.598C129.121 49.462 129.565 50.572 129.565 51.928C129.565 53.332 129.103 54.484 128.179 55.384C127.255 56.272 126.067 56.716 124.615 56.716C123.091 56.716 121.873 56.236 120.961 55.276C120.061 54.304 119.611 53.008 119.611 51.388C119.611 48.892 120.061 47.026 120.961 45.79C121.861 44.554 123.421 43.666 125.641 43.126L128.521 42.442V43.954L125.677 44.638C124.417 44.926 123.433 45.4 122.725 46.06C122.017 46.72 121.561 47.596 121.357 48.688C122.209 47.752 123.367 47.284 124.831 47.284ZM124.615 55.24C125.575 55.24 126.379 54.928 127.027 54.304C127.675 53.668 127.999 52.882 127.999 51.946C127.999 50.998 127.675 50.206 127.027 49.57C126.379 48.934 125.575 48.616 124.615 48.616C123.643 48.616 122.833 48.934 122.185 49.57C121.537 50.194 121.213 50.98 121.213 51.928C121.213 52.396 121.297 52.834 121.465 53.242C121.645 53.65 121.885 53.998 122.185 54.286C122.485 54.574 122.845 54.808 123.265 54.988C123.685 55.156 124.135 55.24 124.615 55.24ZM140.998 51.676C140.998 51.808 140.986 51.994 140.962 52.234H132.664C132.784 53.134 133.156 53.86 133.78 54.412C134.404 54.952 135.172 55.222 136.084 55.222C136.756 55.222 137.35 55.078 137.866 54.79C138.394 54.49 138.814 54.07 139.126 53.53H140.728C140.32 54.538 139.708 55.324 138.892 55.888C138.076 56.44 137.14 56.716 136.084 56.716C134.68 56.716 133.504 56.23 132.556 55.258C131.608 54.286 131.134 53.08 131.134 51.64C131.134 50.188 131.608 48.982 132.556 48.022C133.504 47.05 134.68 46.564 136.084 46.564C137.536 46.564 138.718 47.056 139.63 48.04C140.542 49.024 140.998 50.236 140.998 51.676ZM136.084 48.022C135.508 48.022 134.98 48.136 134.5 48.364C134.032 48.592 133.642 48.922 133.33 49.354C133.018 49.774 132.808 50.26 132.7 50.812H139.45C139.342 50.248 139.132 49.756 138.82 49.336C138.508 48.904 138.118 48.58 137.65 48.364C137.182 48.136 136.66 48.022 136.084 48.022ZM144.709 46.78H151.081V56.5H149.551V48.112H145.987L145.483 53.026C145.351 54.31 145.021 55.222 144.493 55.762C143.965 56.29 143.173 56.554 142.117 56.554H141.847V55.114H142.189C142.741 55.114 143.161 54.958 143.449 54.646C143.737 54.322 143.917 53.812 143.989 53.116L144.709 46.78ZM158.068 49.84C159.088 49.84 159.922 50.152 160.57 50.776C161.218 51.388 161.542 52.192 161.542 53.188C161.542 54.16 161.218 54.958 160.57 55.582C159.922 56.194 159.088 56.5 158.068 56.5H154.162V46.78H155.656V49.84H158.068ZM157.87 55.132C158.506 55.132 159.016 54.952 159.4 54.592C159.784 54.232 159.976 53.764 159.976 53.188C159.976 52.6 159.784 52.126 159.4 51.766C159.016 51.394 158.506 51.208 157.87 51.208H155.656V55.132H157.87ZM170.333 46.78H171.827V56.5H170.333V52.198H165.131V56.5H163.637V46.78H165.131V50.758H170.333V46.78ZM178.828 49.84C179.848 49.84 180.682 50.152 181.33 50.776C181.978 51.388 182.302 52.192 182.302 53.188C182.302 54.16 181.978 54.958 181.33 55.582C180.682 56.194 179.848 56.5 178.828 56.5H174.922V46.78H176.416V49.84H178.828ZM184.066 46.78H185.596V56.5H184.066V46.78ZM178.63 55.132C179.266 55.132 179.776 54.952 180.16 54.592C180.544 54.232 180.736 53.764 180.736 53.188C180.736 52.6 180.544 52.126 180.16 51.766C179.776 51.394 179.266 51.208 178.63 51.208H176.416V55.132H178.63ZM195.058 43.666V44.818H190.342V43.666H195.058ZM195.832 46.78H196.678V56.5H195.238V49.552L189.568 56.5H188.686V46.78H190.144V53.674L195.832 46.78ZM216.566 56.5H215.09L213.704 49.282L210.266 56.302H209.924L206.504 49.282L205.118 56.5H203.642L205.496 46.78H206.774L210.104 53.584L213.416 46.78H214.694L216.566 56.5ZM227.024 46.78H228.248V56.5H226.97L226.808 55.024C226.352 55.564 225.794 55.984 225.134 56.284C224.486 56.572 223.772 56.716 222.992 56.716C221.564 56.716 220.37 56.236 219.41 55.276C218.45 54.304 217.97 53.092 217.97 51.64C217.97 50.188 218.45 48.982 219.41 48.022C220.37 47.05 221.564 46.564 222.992 46.564C223.784 46.564 224.504 46.714 225.152 47.014C225.812 47.314 226.37 47.734 226.826 48.274L227.024 46.78ZM220.544 54.214C221.228 54.898 222.086 55.24 223.118 55.24C224.15 55.24 225.002 54.898 225.674 54.214C226.346 53.53 226.682 52.672 226.682 51.64C226.682 50.608 226.346 49.75 225.674 49.066C225.002 48.382 224.15 48.04 223.118 48.04C222.086 48.04 221.228 48.388 220.544 49.084C219.872 49.768 219.536 50.62 219.536 51.64C219.536 52.66 219.872 53.518 220.544 54.214ZM237.378 46.78V48.148H232.824V56.5H231.33V46.78H237.378ZM247.134 46.78H248.358V56.5H247.08L246.918 55.024C246.462 55.564 245.904 55.984 245.244 56.284C244.596 56.572 243.882 56.716 243.102 56.716C241.674 56.716 240.48 56.236 239.52 55.276C238.56 54.304 238.08 53.092 238.08 51.64C238.08 50.188 238.56 48.982 239.52 48.022C240.48 47.05 241.674 46.564 243.102 46.564C243.894 46.564 244.614 46.714 245.262 47.014C245.922 47.314 246.48 47.734 246.936 48.274L247.134 46.78ZM240.654 54.214C241.338 54.898 242.196 55.24 243.228 55.24C244.26 55.24 245.112 54.898 245.784 54.214C246.456 53.53 246.792 52.672 246.792 51.64C246.792 50.608 246.456 49.75 245.784 49.066C245.112 48.382 244.26 48.04 243.228 48.04C242.196 48.04 241.338 48.388 240.654 49.084C239.982 49.768 239.646 50.62 239.646 51.64C239.646 52.66 239.982 53.518 240.654 54.214ZM256.498 51.37C257.386 51.85 257.83 52.642 257.83 53.746C257.83 54.322 257.668 54.838 257.344 55.294C257.032 55.738 256.588 56.086 256.012 56.338C255.448 56.59 254.812 56.716 254.104 56.716C253.072 56.716 252.22 56.452 251.548 55.924C250.888 55.396 250.516 54.688 250.432 53.8H251.818C251.914 54.256 252.166 54.616 252.574 54.88C252.982 55.132 253.492 55.258 254.104 55.258C254.752 55.258 255.286 55.108 255.706 54.808C256.126 54.508 256.336 54.112 256.336 53.62C256.336 53.164 256.156 52.786 255.796 52.486C255.448 52.186 255.004 52.036 254.464 52.036H253.024V50.794H254.464C254.968 50.794 255.37 50.668 255.67 50.416C255.982 50.152 256.138 49.816 256.138 49.408C256.138 48.964 255.952 48.604 255.58 48.328C255.208 48.052 254.716 47.914 254.104 47.914C253.564 47.914 253.114 48.034 252.754 48.274C252.394 48.514 252.166 48.838 252.07 49.246H250.684C250.732 48.718 250.906 48.25 251.206 47.842C251.518 47.434 251.926 47.122 252.43 46.906C252.946 46.678 253.516 46.564 254.14 46.564C255.136 46.564 255.958 46.822 256.606 47.338C257.254 47.854 257.578 48.502 257.578 49.282C257.578 50.218 257.218 50.914 256.498 51.37ZM267.375 46.78H268.221V56.5H266.781V49.552L261.111 56.5H260.229V46.78H261.687V53.674L267.375 46.78ZM278.016 46.78H279.51V56.5H278.016V52.198H272.814V56.5H271.32V46.78H272.814V50.758H278.016V46.78Z" fill="#1C1C1C"/>
<path d="M106.417 56.5H104.815L103.177 46.654L98.821 56.176H98.407L94.051 46.672L92.413 56.5H90.793L92.917 43.9H94.429L98.605 53.152L102.781 43.9H104.329L106.417 56.5ZM117.778 51.676C117.778 51.808 117.766 51.994 117.742 52.234H109.444C109.564 53.134 109.936 53.86 110.56 54.412C111.184 54.952 111.952 55.222 112.864 55.222C113.536 55.222 114.13 55.078 114.646 54.79C115.174 54.49 115.594 54.07 115.906 53.53H117.508C117.1 54.538 116.488 55.324 115.672 55.888C114.856 56.44 113.92 56.716 112.864 56.716C111.46 56.716 110.284 56.23 109.336 55.258C108.388 54.286 107.914 53.08 107.914 51.64C107.914 50.188 108.388 48.982 109.336 48.022C110.284 47.05 111.46 46.564 112.864 46.564C114.316 46.564 115.498 47.056 116.41 48.04C117.322 49.024 117.778 50.236 117.778 51.676ZM112.864 48.022C112.288 48.022 111.76 48.136 111.28 48.364C110.812 48.592 110.422 48.922 110.11 49.354C109.798 49.774 109.588 50.26 109.48 50.812H116.23C116.122 50.248 115.912 49.756 115.6 49.336C115.288 48.904 114.898 48.58 114.43 48.364C113.962 48.136 113.44 48.022 112.864 48.022ZM124.831 47.284C126.211 47.284 127.345 47.722 128.233 48.598C129.121 49.462 129.565 50.572 129.565 51.928C129.565 53.332 129.103 54.484 128.179 55.384C127.255 56.272 126.067 56.716 124.615 56.716C123.091 56.716 121.873 56.236 120.961 55.276C120.061 54.304 119.611 53.008 119.611 51.388C119.611 48.892 120.061 47.026 120.961 45.79C121.861 44.554 123.421 43.666 125.641 43.126L128.521 42.442V43.954L125.677 44.638C124.417 44.926 123.433 45.4 122.725 46.06C122.017 46.72 121.561 47.596 121.357 48.688C122.209 47.752 123.367 47.284 124.831 47.284ZM124.615 55.24C125.575 55.24 126.379 54.928 127.027 54.304C127.675 53.668 127.999 52.882 127.999 51.946C127.999 50.998 127.675 50.206 127.027 49.57C126.379 48.934 125.575 48.616 124.615 48.616C123.643 48.616 122.833 48.934 122.185 49.57C121.537 50.194 121.213 50.98 121.213 51.928C121.213 52.396 121.297 52.834 121.465 53.242C121.645 53.65 121.885 53.998 122.185 54.286C122.485 54.574 122.845 54.808 123.265 54.988C123.685 55.156 124.135 55.24 124.615 55.24ZM140.998 51.676C140.998 51.808 140.986 51.994 140.962 52.234H132.664C132.784 53.134 133.156 53.86 133.78 54.412C134.404 54.952 135.172 55.222 136.084 55.222C136.756 55.222 137.35 55.078 137.866 54.79C138.394 54.49 138.814 54.07 139.126 53.53H140.728C140.32 54.538 139.708 55.324 138.892 55.888C138.076 56.44 137.14 56.716 136.084 56.716C134.68 56.716 133.504 56.23 132.556 55.258C131.608 54.286 131.134 53.08 131.134 51.64C131.134 50.188 131.608 48.982 132.556 48.022C133.504 47.05 134.68 46.564 136.084 46.564C137.536 46.564 138.718 47.056 139.63 48.04C140.542 49.024 140.998 50.236 140.998 51.676ZM136.084 48.022C135.508 48.022 134.98 48.136 134.5 48.364C134.032 48.592 133.642 48.922 133.33 49.354C133.018 49.774 132.808 50.26 132.7 50.812H139.45C139.342 50.248 139.132 49.756 138.82 49.336C138.508 48.904 138.118 48.58 137.65 48.364C137.182 48.136 136.66 48.022 136.084 48.022ZM144.709 46.78H151.081V56.5H149.551V48.112H145.987L145.483 53.026C145.351 54.31 145.021 55.222 144.493 55.762C143.965 56.29 143.173 56.554 142.117 56.554H141.847V55.114H142.189C142.741 55.114 143.161 54.958 143.449 54.646C143.737 54.322 143.917 53.812 143.989 53.116L144.709 46.78ZM158.068 49.84C159.088 49.84 159.922 50.152 160.57 50.776C161.218 51.388 161.542 52.192 161.542 53.188C161.542 54.16 161.218 54.958 160.57 55.582C159.922 56.194 159.088 56.5 158.068 56.5H154.162V46.78H155.656V49.84H158.068ZM157.87 55.132C158.506 55.132 159.016 54.952 159.4 54.592C159.784 54.232 159.976 53.764 159.976 53.188C159.976 52.6 159.784 52.126 159.4 51.766C159.016 51.394 158.506 51.208 157.87 51.208H155.656V55.132H157.87ZM170.333 46.78H171.827V56.5H170.333V52.198H165.131V56.5H163.637V46.78H165.131V50.758H170.333V46.78ZM178.828 49.84C179.848 49.84 180.682 50.152 181.33 50.776C181.978 51.388 182.302 52.192 182.302 53.188C182.302 54.16 181.978 54.958 181.33 55.582C180.682 56.194 179.848 56.5 178.828 56.5H174.922V46.78H176.416V49.84H178.828ZM184.066 46.78H185.596V56.5H184.066V46.78ZM178.63 55.132C179.266 55.132 179.776 54.952 180.16 54.592C180.544 54.232 180.736 53.764 180.736 53.188C180.736 52.6 180.544 52.126 180.16 51.766C179.776 51.394 179.266 51.208 178.63 51.208H176.416V55.132H178.63ZM195.058 43.666V44.818H190.342V43.666H195.058ZM195.832 46.78H196.678V56.5H195.238V49.552L189.568 56.5H188.686V46.78H190.144V53.674L195.832 46.78ZM216.566 56.5H215.09L213.704 49.282L210.266 56.302H209.924L206.504 49.282L205.118 56.5H203.642L205.496 46.78H206.774L210.104 53.584L213.416 46.78H214.694L216.566 56.5ZM227.024 46.78H228.248V56.5H226.97L226.808 55.024C226.352 55.564 225.794 55.984 225.134 56.284C224.486 56.572 223.772 56.716 222.992 56.716C221.564 56.716 220.37 56.236 219.41 55.276C218.45 54.304 217.97 53.092 217.97 51.64C217.97 50.188 218.45 48.982 219.41 48.022C220.37 47.05 221.564 46.564 222.992 46.564C223.784 46.564 224.504 46.714 225.152 47.014C225.812 47.314 226.37 47.734 226.826 48.274L227.024 46.78ZM220.544 54.214C221.228 54.898 222.086 55.24 223.118 55.24C224.15 55.24 225.002 54.898 225.674 54.214C226.346 53.53 226.682 52.672 226.682 51.64C226.682 50.608 226.346 49.75 225.674 49.066C225.002 48.382 224.15 48.04 223.118 48.04C222.086 48.04 221.228 48.388 220.544 49.084C219.872 49.768 219.536 50.62 219.536 51.64C219.536 52.66 219.872 53.518 220.544 54.214ZM237.378 46.78V48.148H232.824V56.5H231.33V46.78H237.378ZM247.134 46.78H248.358V56.5H247.08L246.918 55.024C246.462 55.564 245.904 55.984 245.244 56.284C244.596 56.572 243.882 56.716 243.102 56.716C241.674 56.716 240.48 56.236 239.52 55.276C238.56 54.304 238.08 53.092 238.08 51.64C238.08 50.188 238.56 48.982 239.52 48.022C240.48 47.05 241.674 46.564 243.102 46.564C243.894 46.564 244.614 46.714 245.262 47.014C245.922 47.314 246.48 47.734 246.936 48.274L247.134 46.78ZM240.654 54.214C241.338 54.898 242.196 55.24 243.228 55.24C244.26 55.24 245.112 54.898 245.784 54.214C246.456 53.53 246.792 52.672 246.792 51.64C246.792 50.608 246.456 49.75 245.784 49.066C245.112 48.382 244.26 48.04 243.228 48.04C242.196 48.04 241.338 48.388 240.654 49.084C239.982 49.768 239.646 50.62 239.646 51.64C239.646 52.66 239.982 53.518 240.654 54.214ZM256.498 51.37C257.386 51.85 257.83 52.642 257.83 53.746C257.83 54.322 257.668 54.838 257.344 55.294C257.032 55.738 256.588 56.086 256.012 56.338C255.448 56.59 254.812 56.716 254.104 56.716C253.072 56.716 252.22 56.452 251.548 55.924C250.888 55.396 250.516 54.688 250.432 53.8H251.818C251.914 54.256 252.166 54.616 252.574 54.88C252.982 55.132 253.492 55.258 254.104 55.258C254.752 55.258 255.286 55.108 255.706 54.808C256.126 54.508 256.336 54.112 256.336 53.62C256.336 53.164 256.156 52.786 255.796 52.486C255.448 52.186 255.004 52.036 254.464 52.036H253.024V50.794H254.464C254.968 50.794 255.37 50.668 255.67 50.416C255.982 50.152 256.138 49.816 256.138 49.408C256.138 48.964 255.952 48.604 255.58 48.328C255.208 48.052 254.716 47.914 254.104 47.914C253.564 47.914 253.114 48.034 252.754 48.274C252.394 48.514 252.166 48.838 252.07 49.246H250.684C250.732 48.718 250.906 48.25 251.206 47.842C251.518 47.434 251.926 47.122 252.43 46.906C252.946 46.678 253.516 46.564 254.14 46.564C255.136 46.564 255.958 46.822 256.606 47.338C257.254 47.854 257.578 48.502 257.578 49.282C257.578 50.218 257.218 50.914 256.498 51.37ZM267.375 46.78H268.221V56.5H266.781V49.552L261.111 56.5H260.229V46.78H261.687V53.674L267.375 46.78ZM278.016 46.78H279.51V56.5H278.016V52.198H272.814V56.5H271.32V46.78H272.814V50.758H278.016V46.78Z" fill="black" fill-opacity="0.2"/>
<path d="M106.417 56.5H104.815L103.177 46.654L98.821 56.176H98.407L94.051 46.672L92.413 56.5H90.793L92.917 43.9H94.429L98.605 53.152L102.781 43.9H104.329L106.417 56.5ZM117.778 51.676C117.778 51.808 117.766 51.994 117.742 52.234H109.444C109.564 53.134 109.936 53.86 110.56 54.412C111.184 54.952 111.952 55.222 112.864 55.222C113.536 55.222 114.13 55.078 114.646 54.79C115.174 54.49 115.594 54.07 115.906 53.53H117.508C117.1 54.538 116.488 55.324 115.672 55.888C114.856 56.44 113.92 56.716 112.864 56.716C111.46 56.716 110.284 56.23 109.336 55.258C108.388 54.286 107.914 53.08 107.914 51.64C107.914 50.188 108.388 48.982 109.336 48.022C110.284 47.05 111.46 46.564 112.864 46.564C114.316 46.564 115.498 47.056 116.41 48.04C117.322 49.024 117.778 50.236 117.778 51.676ZM112.864 48.022C112.288 48.022 111.76 48.136 111.28 48.364C110.812 48.592 110.422 48.922 110.11 49.354C109.798 49.774 109.588 50.26 109.48 50.812H116.23C116.122 50.248 115.912 49.756 115.6 49.336C115.288 48.904 114.898 48.58 114.43 48.364C113.962 48.136 113.44 48.022 112.864 48.022ZM124.831 47.284C126.211 47.284 127.345 47.722 128.233 48.598C129.121 49.462 129.565 50.572 129.565 51.928C129.565 53.332 129.103 54.484 128.179 55.384C127.255 56.272 126.067 56.716 124.615 56.716C123.091 56.716 121.873 56.236 120.961 55.276C120.061 54.304 119.611 53.008 119.611 51.388C119.611 48.892 120.061 47.026 120.961 45.79C121.861 44.554 123.421 43.666 125.641 43.126L128.521 42.442V43.954L125.677 44.638C124.417 44.926 123.433 45.4 122.725 46.06C122.017 46.72 121.561 47.596 121.357 48.688C122.209 47.752 123.367 47.284 124.831 47.284ZM124.615 55.24C125.575 55.24 126.379 54.928 127.027 54.304C127.675 53.668 127.999 52.882 127.999 51.946C127.999 50.998 127.675 50.206 127.027 49.57C126.379 48.934 125.575 48.616 124.615 48.616C123.643 48.616 122.833 48.934 122.185 49.57C121.537 50.194 121.213 50.98 121.213 51.928C121.213 52.396 121.297 52.834 121.465 53.242C121.645 53.65 121.885 53.998 122.185 54.286C122.485 54.574 122.845 54.808 123.265 54.988C123.685 55.156 124.135 55.24 124.615 55.24ZM140.998 51.676C140.998 51.808 140.986 51.994 140.962 52.234H132.664C132.784 53.134 133.156 53.86 133.78 54.412C134.404 54.952 135.172 55.222 136.084 55.222C136.756 55.222 137.35 55.078 137.866 54.79C138.394 54.49 138.814 54.07 139.126 53.53H140.728C140.32 54.538 139.708 55.324 138.892 55.888C138.076 56.44 137.14 56.716 136.084 56.716C134.68 56.716 133.504 56.23 132.556 55.258C131.608 54.286 131.134 53.08 131.134 51.64C131.134 50.188 131.608 48.982 132.556 48.022C133.504 47.05 134.68 46.564 136.084 46.564C137.536 46.564 138.718 47.056 139.63 48.04C140.542 49.024 140.998 50.236 140.998 51.676ZM136.084 48.022C135.508 48.022 134.98 48.136 134.5 48.364C134.032 48.592 133.642 48.922 133.33 49.354C133.018 49.774 132.808 50.26 132.7 50.812H139.45C139.342 50.248 139.132 49.756 138.82 49.336C138.508 48.904 138.118 48.58 137.65 48.364C137.182 48.136 136.66 48.022 136.084 48.022ZM144.709 46.78H151.081V56.5H149.551V48.112H145.987L145.483 53.026C145.351 54.31 145.021 55.222 144.493 55.762C143.965 56.29 143.173 56.554 142.117 56.554H141.847V55.114H142.189C142.741 55.114 143.161 54.958 143.449 54.646C143.737 54.322 143.917 53.812 143.989 53.116L144.709 46.78ZM158.068 49.84C159.088 49.84 159.922 50.152 160.57 50.776C161.218 51.388 161.542 52.192 161.542 53.188C161.542 54.16 161.218 54.958 160.57 55.582C159.922 56.194 159.088 56.5 158.068 56.5H154.162V46.78H155.656V49.84H158.068ZM157.87 55.132C158.506 55.132 159.016 54.952 159.4 54.592C159.784 54.232 159.976 53.764 159.976 53.188C159.976 52.6 159.784 52.126 159.4 51.766C159.016 51.394 158.506 51.208 157.87 51.208H155.656V55.132H157.87ZM170.333 46.78H171.827V56.5H170.333V52.198H165.131V56.5H163.637V46.78H165.131V50.758H170.333V46.78ZM178.828 49.84C179.848 49.84 180.682 50.152 181.33 50.776C181.978 51.388 182.302 52.192 182.302 53.188C182.302 54.16 181.978 54.958 181.33 55.582C180.682 56.194 179.848 56.5 178.828 56.5H174.922V46.78H176.416V49.84H178.828ZM184.066 46.78H185.596V56.5H184.066V46.78ZM178.63 55.132C179.266 55.132 179.776 54.952 180.16 54.592C180.544 54.232 180.736 53.764 180.736 53.188C180.736 52.6 180.544 52.126 180.16 51.766C179.776 51.394 179.266 51.208 178.63 51.208H176.416V55.132H178.63ZM195.058 43.666V44.818H190.342V43.666H195.058ZM195.832 46.78H196.678V56.5H195.238V49.552L189.568 56.5H188.686V46.78H190.144V53.674L195.832 46.78ZM216.566 56.5H215.09L213.704 49.282L210.266 56.302H209.924L206.504 49.282L205.118 56.5H203.642L205.496 46.78H206.774L210.104 53.584L213.416 46.78H214.694L216.566 56.5ZM227.024 46.78H228.248V56.5H226.97L226.808 55.024C226.352 55.564 225.794 55.984 225.134 56.284C224.486 56.572 223.772 56.716 222.992 56.716C221.564 56.716 220.37 56.236 219.41 55.276C218.45 54.304 217.97 53.092 217.97 51.64C217.97 50.188 218.45 48.982 219.41 48.022C220.37 47.05 221.564 46.564 222.992 46.564C223.784 46.564 224.504 46.714 225.152 47.014C225.812 47.314 226.37 47.734 226.826 48.274L227.024 46.78ZM220.544 54.214C221.228 54.898 222.086 55.24 223.118 55.24C224.15 55.24 225.002 54.898 225.674 54.214C226.346 53.53 226.682 52.672 226.682 51.64C226.682 50.608 226.346 49.75 225.674 49.066C225.002 48.382 224.15 48.04 223.118 48.04C222.086 48.04 221.228 48.388 220.544 49.084C219.872 49.768 219.536 50.62 219.536 51.64C219.536 52.66 219.872 53.518 220.544 54.214ZM237.378 46.78V48.148H232.824V56.5H231.33V46.78H237.378ZM247.134 46.78H248.358V56.5H247.08L246.918 55.024C246.462 55.564 245.904 55.984 245.244 56.284C244.596 56.572 243.882 56.716 243.102 56.716C241.674 56.716 240.48 56.236 239.52 55.276C238.56 54.304 238.08 53.092 238.08 51.64C238.08 50.188 238.56 48.982 239.52 48.022C240.48 47.05 241.674 46.564 243.102 46.564C243.894 46.564 244.614 46.714 245.262 47.014C245.922 47.314 246.48 47.734 246.936 48.274L247.134 46.78ZM240.654 54.214C241.338 54.898 242.196 55.24 243.228 55.24C244.26 55.24 245.112 54.898 245.784 54.214C246.456 53.53 246.792 52.672 246.792 51.64C246.792 50.608 246.456 49.75 245.784 49.066C245.112 48.382 244.26 48.04 243.228 48.04C242.196 48.04 241.338 48.388 240.654 49.084C239.982 49.768 239.646 50.62 239.646 51.64C239.646 52.66 239.982 53.518 240.654 54.214ZM256.498 51.37C257.386 51.85 257.83 52.642 257.83 53.746C257.83 54.322 257.668 54.838 257.344 55.294C257.032 55.738 256.588 56.086 256.012 56.338C255.448 56.59 254.812 56.716 254.104 56.716C253.072 56.716 252.22 56.452 251.548 55.924C250.888 55.396 250.516 54.688 250.432 53.8H251.818C251.914 54.256 252.166 54.616 252.574 54.88C252.982 55.132 253.492 55.258 254.104 55.258C254.752 55.258 255.286 55.108 255.706 54.808C256.126 54.508 256.336 54.112 256.336 53.62C256.336 53.164 256.156 52.786 255.796 52.486C255.448 52.186 255.004 52.036 254.464 52.036H253.024V50.794H254.464C254.968 50.794 255.37 50.668 255.67 50.416C255.982 50.152 256.138 49.816 256.138 49.408C256.138 48.964 255.952 48.604 255.58 48.328C255.208 48.052 254.716 47.914 254.104 47.914C253.564 47.914 253.114 48.034 252.754 48.274C252.394 48.514 252.166 48.838 252.07 49.246H250.684C250.732 48.718 250.906 48.25 251.206 47.842C251.518 47.434 251.926 47.122 252.43 46.906C252.946 46.678 253.516 46.564 254.14 46.564C255.136 46.564 255.958 46.822 256.606 47.338C257.254 47.854 257.578 48.502 257.578 49.282C257.578 50.218 257.218 50.914 256.498 51.37ZM267.375 46.78H268.221V56.5H266.781V49.552L261.111 56.5H260.229V46.78H261.687V53.674L267.375 46.78ZM278.016 46.78H279.51V56.5H278.016V52.198H272.814V56.5H271.32V46.78H272.814V50.758H278.016V46.78Z" fill="black" fill-opacity="0.2"/>
<path d="M106.417 56.5H104.815L103.177 46.654L98.821 56.176H98.407L94.051 46.672L92.413 56.5H90.793L92.917 43.9H94.429L98.605 53.152L102.781 43.9H104.329L106.417 56.5ZM117.778 51.676C117.778 51.808 117.766 51.994 117.742 52.234H109.444C109.564 53.134 109.936 53.86 110.56 54.412C111.184 54.952 111.952 55.222 112.864 55.222C113.536 55.222 114.13 55.078 114.646 54.79C115.174 54.49 115.594 54.07 115.906 53.53H117.508C117.1 54.538 116.488 55.324 115.672 55.888C114.856 56.44 113.92 56.716 112.864 56.716C111.46 56.716 110.284 56.23 109.336 55.258C108.388 54.286 107.914 53.08 107.914 51.64C107.914 50.188 108.388 48.982 109.336 48.022C110.284 47.05 111.46 46.564 112.864 46.564C114.316 46.564 115.498 47.056 116.41 48.04C117.322 49.024 117.778 50.236 117.778 51.676ZM112.864 48.022C112.288 48.022 111.76 48.136 111.28 48.364C110.812 48.592 110.422 48.922 110.11 49.354C109.798 49.774 109.588 50.26 109.48 50.812H116.23C116.122 50.248 115.912 49.756 115.6 49.336C115.288 48.904 114.898 48.58 114.43 48.364C113.962 48.136 113.44 48.022 112.864 48.022ZM124.831 47.284C126.211 47.284 127.345 47.722 128.233 48.598C129.121 49.462 129.565 50.572 129.565 51.928C129.565 53.332 129.103 54.484 128.179 55.384C127.255 56.272 126.067 56.716 124.615 56.716C123.091 56.716 121.873 56.236 120.961 55.276C120.061 54.304 119.611 53.008 119.611 51.388C119.611 48.892 120.061 47.026 120.961 45.79C121.861 44.554 123.421 43.666 125.641 43.126L128.521 42.442V43.954L125.677 44.638C124.417 44.926 123.433 45.4 122.725 46.06C122.017 46.72 121.561 47.596 121.357 48.688C122.209 47.752 123.367 47.284 124.831 47.284ZM124.615 55.24C125.575 55.24 126.379 54.928 127.027 54.304C127.675 53.668 127.999 52.882 127.999 51.946C127.999 50.998 127.675 50.206 127.027 49.57C126.379 48.934 125.575 48.616 124.615 48.616C123.643 48.616 122.833 48.934 122.185 49.57C121.537 50.194 121.213 50.98 121.213 51.928C121.213 52.396 121.297 52.834 121.465 53.242C121.645 53.65 121.885 53.998 122.185 54.286C122.485 54.574 122.845 54.808 123.265 54.988C123.685 55.156 124.135 55.24 124.615 55.24ZM140.998 51.676C140.998 51.808 140.986 51.994 140.962 52.234H132.664C132.784 53.134 133.156 53.86 133.78 54.412C134.404 54.952 135.172 55.222 136.084 55.222C136.756 55.222 137.35 55.078 137.866 54.79C138.394 54.49 138.814 54.07 139.126 53.53H140.728C140.32 54.538 139.708 55.324 138.892 55.888C138.076 56.44 137.14 56.716 136.084 56.716C134.68 56.716 133.504 56.23 132.556 55.258C131.608 54.286 131.134 53.08 131.134 51.64C131.134 50.188 131.608 48.982 132.556 48.022C133.504 47.05 134.68 46.564 136.084 46.564C137.536 46.564 138.718 47.056 139.63 48.04C140.542 49.024 140.998 50.236 140.998 51.676ZM136.084 48.022C135.508 48.022 134.98 48.136 134.5 48.364C134.032 48.592 133.642 48.922 133.33 49.354C133.018 49.774 132.808 50.26 132.7 50.812H139.45C139.342 50.248 139.132 49.756 138.82 49.336C138.508 48.904 138.118 48.58 137.65 48.364C137.182 48.136 136.66 48.022 136.084 48.022ZM144.709 46.78H151.081V56.5H149.551V48.112H145.987L145.483 53.026C145.351 54.31 145.021 55.222 144.493 55.762C143.965 56.29 143.173 56.554 142.117 56.554H141.847V55.114H142.189C142.741 55.114 143.161 54.958 143.449 54.646C143.737 54.322 143.917 53.812 143.989 53.116L144.709 46.78ZM158.068 49.84C159.088 49.84 159.922 50.152 160.57 50.776C161.218 51.388 161.542 52.192 161.542 53.188C161.542 54.16 161.218 54.958 160.57 55.582C159.922 56.194 159.088 56.5 158.068 56.5H154.162V46.78H155.656V49.84H158.068ZM157.87 55.132C158.506 55.132 159.016 54.952 159.4 54.592C159.784 54.232 159.976 53.764 159.976 53.188C159.976 52.6 159.784 52.126 159.4 51.766C159.016 51.394 158.506 51.208 157.87 51.208H155.656V55.132H157.87ZM170.333 46.78H171.827V56.5H170.333V52.198H165.131V56.5H163.637V46.78H165.131V50.758H170.333V46.78ZM178.828 49.84C179.848 49.84 180.682 50.152 181.33 50.776C181.978 51.388 182.302 52.192 182.302 53.188C182.302 54.16 181.978 54.958 181.33 55.582C180.682 56.194 179.848 56.5 178.828 56.5H174.922V46.78H176.416V49.84H178.828ZM184.066 46.78H185.596V56.5H184.066V46.78ZM178.63 55.132C179.266 55.132 179.776 54.952 180.16 54.592C180.544 54.232 180.736 53.764 180.736 53.188C180.736 52.6 180.544 52.126 180.16 51.766C179.776 51.394 179.266 51.208 178.63 51.208H176.416V55.132H178.63ZM195.058 43.666V44.818H190.342V43.666H195.058ZM195.832 46.78H196.678V56.5H195.238V49.552L189.568 56.5H188.686V46.78H190.144V53.674L195.832 46.78ZM216.566 56.5H215.09L213.704 49.282L210.266 56.302H209.924L206.504 49.282L205.118 56.5H203.642L205.496 46.78H206.774L210.104 53.584L213.416 46.78H214.694L216.566 56.5ZM227.024 46.78H228.248V56.5H226.97L226.808 55.024C226.352 55.564 225.794 55.984 225.134 56.284C224.486 56.572 223.772 56.716 222.992 56.716C221.564 56.716 220.37 56.236 219.41 55.276C218.45 54.304 217.97 53.092 217.97 51.64C217.97 50.188 218.45 48.982 219.41 48.022C220.37 47.05 221.564 46.564 222.992 46.564C223.784 46.564 224.504 46.714 225.152 47.014C225.812 47.314 226.37 47.734 226.826 48.274L227.024 46.78ZM220.544 54.214C221.228 54.898 222.086 55.24 223.118 55.24C224.15 55.24 225.002 54.898 225.674 54.214C226.346 53.53 226.682 52.672 226.682 51.64C226.682 50.608 226.346 49.75 225.674 49.066C225.002 48.382 224.15 48.04 223.118 48.04C222.086 48.04 221.228 48.388 220.544 49.084C219.872 49.768 219.536 50.62 219.536 51.64C219.536 52.66 219.872 53.518 220.544 54.214ZM237.378 46.78V48.148H232.824V56.5H231.33V46.78H237.378ZM247.134 46.78H248.358V56.5H247.08L246.918 55.024C246.462 55.564 245.904 55.984 245.244 56.284C244.596 56.572 243.882 56.716 243.102 56.716C241.674 56.716 240.48 56.236 239.52 55.276C238.56 54.304 238.08 53.092 238.08 51.64C238.08 50.188 238.56 48.982 239.52 48.022C240.48 47.05 241.674 46.564 243.102 46.564C243.894 46.564 244.614 46.714 245.262 47.014C245.922 47.314 246.48 47.734 246.936 48.274L247.134 46.78ZM240.654 54.214C241.338 54.898 242.196 55.24 243.228 55.24C244.26 55.24 245.112 54.898 245.784 54.214C246.456 53.53 246.792 52.672 246.792 51.64C246.792 50.608 246.456 49.75 245.784 49.066C245.112 48.382 244.26 48.04 243.228 48.04C242.196 48.04 241.338 48.388 240.654 49.084C239.982 49.768 239.646 50.62 239.646 51.64C239.646 52.66 239.982 53.518 240.654 54.214ZM256.498 51.37C257.386 51.85 257.83 52.642 257.83 53.746C257.83 54.322 257.668 54.838 257.344 55.294C257.032 55.738 256.588 56.086 256.012 56.338C255.448 56.59 254.812 56.716 254.104 56.716C253.072 56.716 252.22 56.452 251.548 55.924C250.888 55.396 250.516 54.688 250.432 53.8H251.818C251.914 54.256 252.166 54.616 252.574 54.88C252.982 55.132 253.492 55.258 254.104 55.258C254.752 55.258 255.286 55.108 255.706 54.808C256.126 54.508 256.336 54.112 256.336 53.62C256.336 53.164 256.156 52.786 255.796 52.486C255.448 52.186 255.004 52.036 254.464 52.036H253.024V50.794H254.464C254.968 50.794 255.37 50.668 255.67 50.416C255.982 50.152 256.138 49.816 256.138 49.408C256.138 48.964 255.952 48.604 255.58 48.328C255.208 48.052 254.716 47.914 254.104 47.914C253.564 47.914 253.114 48.034 252.754 48.274C252.394 48.514 252.166 48.838 252.07 49.246H250.684C250.732 48.718 250.906 48.25 251.206 47.842C251.518 47.434 251.926 47.122 252.43 46.906C252.946 46.678 253.516 46.564 254.14 46.564C255.136 46.564 255.958 46.822 256.606 47.338C257.254 47.854 257.578 48.502 257.578 49.282C257.578 50.218 257.218 50.914 256.498 51.37ZM267.375 46.78H268.221V56.5H266.781V49.552L261.111 56.5H260.229V46.78H261.687V53.674L267.375 46.78ZM278.016 46.78H279.51V56.5H278.016V52.198H272.814V56.5H271.32V46.78H272.814V50.758H278.016V46.78Z" fill="black" fill-opacity="0.2"/>
<defs>
<radialGradient id="paint0_radial_1718_8253" cx="0" cy="0" r="1" gradientUnits="userSpaceOnUse" gradientTransform="translate(32.9933 33.0121) scale(32.4624 32.4624)">
<stop stop-color="#FFE37E"/>
<stop offset="0.24276" stop-color="#FEDF79"/>
<stop offset="0.53453" stop-color="#FBD56A"/>
<stop offset="0.85038" stop-color="#F5C352"/>
<stop offset="1" stop-color="#F2B944"/>
</radialGradient>
<radialGradient id="paint1_radial_1718_8253" cx="0" cy="0" r="1" gradientUnits="userSpaceOnUse" gradientTransform="translate(33.1481 62.7884) scale(38.2391)">
<stop stop-color="#FFE37E"/>
<stop offset="0.24276" stop-color="#FEDF79"/>
<stop offset="0.53453" stop-color="#FBD56A"/>
<stop offset="0.85038" stop-color="#F5C352"/>
<stop offset="1" stop-color="#F2B944"/>
</radialGradient>
</defs>
</svg>
