<svg width="143" height="66" viewBox="0 0 143 66" fill="none" xmlns="http://www.w3.org/2000/svg">
<g clip-path="url(#clip0_1718_6253)">
<path d="M97.4284 0.891666C94.5342 1.45062 92.5999 3.46579 91.9695 6.56944C91.7832 7.48141 91.7689 8.95234 91.7976 15.9687L91.8405 24.2941L92.2417 25.4561C93.3736 28.7363 95.5801 30.2513 99.2194 30.2513C102.959 30.2513 105.18 28.6333 106.326 25.1031C106.57 24.3676 106.598 23.5586 106.641 16.0716C106.684 8.90821 106.656 7.68734 106.455 6.6577C105.896 3.8041 104.32 1.87719 101.942 1.1123C100.781 0.744574 98.7036 0.641609 97.4284 0.891666ZM100.323 5.53979C100.581 5.68688 100.924 6.11345 101.111 6.45177L101.44 7.08426V15.5421V23.9999L101.111 24.6324C100.423 25.9415 98.8039 26.1769 97.7723 25.1178C96.9413 24.2647 96.9126 23.9558 96.9556 15.0861L96.9986 7.23136L97.3568 6.49589C97.9299 5.31915 99.2767 4.87787 100.323 5.53979Z" fill="#1C1C1C"/>
<path d="M97.4284 0.891666C94.5342 1.45062 92.5999 3.46579 91.9695 6.56944C91.7832 7.48141 91.7689 8.95234 91.7976 15.9687L91.8405 24.2941L92.2417 25.4561C93.3736 28.7363 95.5801 30.2513 99.2194 30.2513C102.959 30.2513 105.18 28.6333 106.326 25.1031C106.57 24.3676 106.598 23.5586 106.641 16.0716C106.684 8.90821 106.656 7.68734 106.455 6.6577C105.896 3.8041 104.32 1.87719 101.942 1.1123C100.781 0.744574 98.7036 0.641609 97.4284 0.891666ZM100.323 5.53979C100.581 5.68688 100.924 6.11345 101.111 6.45177L101.44 7.08426V15.5421V23.9999L101.111 24.6324C100.423 25.9415 98.8039 26.1769 97.7723 25.1178C96.9413 24.2647 96.9126 23.9558 96.9556 15.0861L96.9986 7.23136L97.3568 6.49589C97.9299 5.31915 99.2767 4.87787 100.323 5.53979Z" fill="black" fill-opacity="0.2"/>
<path d="M97.4284 0.891666C94.5342 1.45062 92.5999 3.46579 91.9695 6.56944C91.7832 7.48141 91.7689 8.95234 91.7976 15.9687L91.8405 24.2941L92.2417 25.4561C93.3736 28.7363 95.5801 30.2513 99.2194 30.2513C102.959 30.2513 105.18 28.6333 106.326 25.1031C106.57 24.3676 106.598 23.5586 106.641 16.0716C106.684 8.90821 106.656 7.68734 106.455 6.6577C105.896 3.8041 104.32 1.87719 101.942 1.1123C100.781 0.744574 98.7036 0.641609 97.4284 0.891666ZM100.323 5.53979C100.581 5.68688 100.924 6.11345 101.111 6.45177L101.44 7.08426V15.5421V23.9999L101.111 24.6324C100.423 25.9415 98.8039 26.1769 97.7723 25.1178C96.9413 24.2647 96.9126 23.9558 96.9556 15.0861L96.9986 7.23136L97.3568 6.49589C97.9299 5.31915 99.2767 4.87787 100.323 5.53979Z" fill="black" fill-opacity="0.2"/>
<path d="M97.4284 0.891666C94.5342 1.45062 92.5999 3.46579 91.9695 6.56944C91.7832 7.48141 91.7689 8.95234 91.7976 15.9687L91.8405 24.2941L92.2417 25.4561C93.3736 28.7363 95.5801 30.2513 99.2194 30.2513C102.959 30.2513 105.18 28.6333 106.326 25.1031C106.57 24.3676 106.598 23.5586 106.641 16.0716C106.684 8.90821 106.656 7.68734 106.455 6.6577C105.896 3.8041 104.32 1.87719 101.942 1.1123C100.781 0.744574 98.7036 0.641609 97.4284 0.891666ZM100.323 5.53979C100.581 5.68688 100.924 6.11345 101.111 6.45177L101.44 7.08426V15.5421V23.9999L101.111 24.6324C100.423 25.9415 98.8039 26.1769 97.7723 25.1178C96.9413 24.2647 96.9126 23.9558 96.9556 15.0861L96.9986 7.23136L97.3568 6.49589C97.9299 5.31915 99.2767 4.87787 100.323 5.53979Z" fill="black" fill-opacity="0.2"/>
<path d="M0.0693359 33.1931V65.2593H13.6522H27.2207L33.8545 57.8752L40.474 50.4912V33.1784V15.8803L33.8545 8.49626L27.2207 1.12692H13.6522H0.0693359V33.1931ZM27.1204 49.0203L27.0774 64.8327L20.6012 57.6546L14.125 50.4765V33.1931V15.9097L20.6012 8.7169L27.0774 1.53878L27.1204 17.3659C27.1348 26.0738 27.1348 40.3124 27.1204 49.0203Z" fill="#1C1C1C"/>
<path d="M0.0693359 33.1931V65.2593H13.6522H27.2207L33.8545 57.8752L40.474 50.4912V33.1784V15.8803L33.8545 8.49626L27.2207 1.12692H13.6522H0.0693359V33.1931ZM27.1204 49.0203L27.0774 64.8327L20.6012 57.6546L14.125 50.4765V33.1931V15.9097L20.6012 8.7169L27.0774 1.53878L27.1204 17.3659C27.1348 26.0738 27.1348 40.3124 27.1204 49.0203Z" fill="black" fill-opacity="0.2"/>
<path d="M0.0693359 33.1931V65.2593H13.6522H27.2207L33.8545 57.8752L40.474 50.4912V33.1784V15.8803L33.8545 8.49626L27.2207 1.12692H13.6522H0.0693359V33.1931ZM27.1204 49.0203L27.0774 64.8327L20.6012 57.6546L14.125 50.4765V33.1931V15.9097L20.6012 8.7169L27.0774 1.53878L27.1204 17.3659C27.1348 26.0738 27.1348 40.3124 27.1204 49.0203Z" fill="black" fill-opacity="0.2"/>
<path d="M0.0693359 33.1931V65.2593H13.6522H27.2207L33.8545 57.8752L40.474 50.4912V33.1784V15.8803L33.8545 8.49626L27.2207 1.12692H13.6522H0.0693359V33.1931ZM27.1204 49.0203L27.0774 64.8327L20.6012 57.6546L14.125 50.4765V33.1931V15.9097L20.6012 8.7169L27.0774 1.53878L27.1204 17.3659C27.1348 26.0738 27.1348 40.3124 27.1204 49.0203Z" fill="black" fill-opacity="0.2"/>
<path d="M57.5244 15.4537V29.8099H59.8885H62.2526V25.0294V20.2489H64.1009C65.1039 20.2489 66.2501 20.1901 66.637 20.1165C69.216 19.6164 70.7777 18.1308 71.3508 15.6743C71.6517 14.3358 71.6517 7.20181 71.3508 5.86327C70.8064 3.52449 69.5169 2.1124 67.339 1.47991C66.637 1.27398 65.6197 1.21514 62.009 1.17101L57.5244 1.09747V15.4537ZM65.4048 5.77501C65.72 5.95152 66.0352 6.33396 66.2644 6.78995C66.6083 7.5107 66.6226 7.59896 66.6226 10.7614C66.6226 13.8651 66.6083 14.0269 66.2788 14.7035C65.8059 15.7038 65.2185 15.9832 63.5421 15.9832H62.2526V10.6732V5.36315L63.5851 5.42199C64.5737 5.46612 65.0466 5.55437 65.4048 5.77501Z" fill="#1C1C1C"/>
<path d="M57.5244 15.4537V29.8099H59.8885H62.2526V25.0294V20.2489H64.1009C65.1039 20.2489 66.2501 20.1901 66.637 20.1165C69.216 19.6164 70.7777 18.1308 71.3508 15.6743C71.6517 14.3358 71.6517 7.20181 71.3508 5.86327C70.8064 3.52449 69.5169 2.1124 67.339 1.47991C66.637 1.27398 65.6197 1.21514 62.009 1.17101L57.5244 1.09747V15.4537ZM65.4048 5.77501C65.72 5.95152 66.0352 6.33396 66.2644 6.78995C66.6083 7.5107 66.6226 7.59896 66.6226 10.7614C66.6226 13.8651 66.6083 14.0269 66.2788 14.7035C65.8059 15.7038 65.2185 15.9832 63.5421 15.9832H62.2526V10.6732V5.36315L63.5851 5.42199C64.5737 5.46612 65.0466 5.55437 65.4048 5.77501Z" fill="black" fill-opacity="0.2"/>
<path d="M57.5244 15.4537V29.8099H59.8885H62.2526V25.0294V20.2489H64.1009C65.1039 20.2489 66.2501 20.1901 66.637 20.1165C69.216 19.6164 70.7777 18.1308 71.3508 15.6743C71.6517 14.3358 71.6517 7.20181 71.3508 5.86327C70.8064 3.52449 69.5169 2.1124 67.339 1.47991C66.637 1.27398 65.6197 1.21514 62.009 1.17101L57.5244 1.09747V15.4537ZM65.4048 5.77501C65.72 5.95152 66.0352 6.33396 66.2644 6.78995C66.6083 7.5107 66.6226 7.59896 66.6226 10.7614C66.6226 13.8651 66.6083 14.0269 66.2788 14.7035C65.8059 15.7038 65.2185 15.9832 63.5421 15.9832H62.2526V10.6732V5.36315L63.5851 5.42199C64.5737 5.46612 65.0466 5.55437 65.4048 5.77501Z" fill="black" fill-opacity="0.2"/>
<path d="M57.5244 15.4537V29.8099H59.8885H62.2526V25.0294V20.2489H64.1009C65.1039 20.2489 66.2501 20.1901 66.637 20.1165C69.216 19.6164 70.7777 18.1308 71.3508 15.6743C71.6517 14.3358 71.6517 7.20181 71.3508 5.86327C70.8064 3.52449 69.5169 2.1124 67.339 1.47991C66.637 1.27398 65.6197 1.21514 62.009 1.17101L57.5244 1.09747V15.4537ZM65.4048 5.77501C65.72 5.95152 66.0352 6.33396 66.2644 6.78995C66.6083 7.5107 66.6226 7.59896 66.6226 10.7614C66.6226 13.8651 66.6083 14.0269 66.2788 14.7035C65.8059 15.7038 65.2185 15.9832 63.5421 15.9832H62.2526V10.6732V5.36315L63.5851 5.42199C64.5737 5.46612 65.0466 5.55437 65.4048 5.77501Z" fill="black" fill-opacity="0.2"/>
<path d="M74.5742 15.4537V29.8099H76.9383H79.3024V24.8823V19.9547H80.506C81.9674 19.9547 82.5119 20.1312 82.8701 20.749C83.0563 21.0579 83.4289 22.6318 83.9447 25.456C84.3888 27.7948 84.7614 29.7364 84.79 29.7658C84.8187 29.7952 85.9792 29.7952 87.3547 29.7805L89.8621 29.7364L88.9594 25.0883C88.4723 22.5289 87.9422 20.146 87.7989 19.7929C87.4263 18.9398 86.8676 18.2779 86.3231 18.0425C86.0939 17.9396 85.8933 17.8219 85.8933 17.7631C85.8933 17.7189 86.1225 17.513 86.3804 17.3071C87.1255 16.7481 87.8705 15.6155 88.2001 14.527C88.4723 13.7033 88.5296 13.1002 88.5869 10.5114C88.6585 7.29006 88.5439 6.12803 88.0281 4.73065C87.6556 3.71571 86.6383 2.53897 85.6927 2.05357C84.2456 1.3034 83.83 1.24456 79.0589 1.17101L74.5742 1.09747V15.4537ZM82.4546 5.77501C83.128 6.17216 83.4145 6.74582 83.6151 8.04024C83.8014 9.27581 83.7011 12.7913 83.4575 13.6445C83.0993 14.9242 82.3543 15.4096 80.5633 15.5125L79.3024 15.5861V10.4673V5.36315L80.6349 5.42199C81.6235 5.46612 82.0964 5.55437 82.4546 5.77501Z" fill="#1C1C1C"/>
<path d="M74.5742 15.4537V29.8099H76.9383H79.3024V24.8823V19.9547H80.506C81.9674 19.9547 82.5119 20.1312 82.8701 20.749C83.0563 21.0579 83.4289 22.6318 83.9447 25.456C84.3888 27.7948 84.7614 29.7364 84.79 29.7658C84.8187 29.7952 85.9792 29.7952 87.3547 29.7805L89.8621 29.7364L88.9594 25.0883C88.4723 22.5289 87.9422 20.146 87.7989 19.7929C87.4263 18.9398 86.8676 18.2779 86.3231 18.0425C86.0939 17.9396 85.8933 17.8219 85.8933 17.7631C85.8933 17.7189 86.1225 17.513 86.3804 17.3071C87.1255 16.7481 87.8705 15.6155 88.2001 14.527C88.4723 13.7033 88.5296 13.1002 88.5869 10.5114C88.6585 7.29006 88.5439 6.12803 88.0281 4.73065C87.6556 3.71571 86.6383 2.53897 85.6927 2.05357C84.2456 1.3034 83.83 1.24456 79.0589 1.17101L74.5742 1.09747V15.4537ZM82.4546 5.77501C83.128 6.17216 83.4145 6.74582 83.6151 8.04024C83.8014 9.27581 83.7011 12.7913 83.4575 13.6445C83.0993 14.9242 82.3543 15.4096 80.5633 15.5125L79.3024 15.5861V10.4673V5.36315L80.6349 5.42199C81.6235 5.46612 82.0964 5.55437 82.4546 5.77501Z" fill="black" fill-opacity="0.2"/>
<path d="M74.5742 15.4537V29.8099H76.9383H79.3024V24.8823V19.9547H80.506C81.9674 19.9547 82.5119 20.1312 82.8701 20.749C83.0563 21.0579 83.4289 22.6318 83.9447 25.456C84.3888 27.7948 84.7614 29.7364 84.79 29.7658C84.8187 29.7952 85.9792 29.7952 87.3547 29.7805L89.8621 29.7364L88.9594 25.0883C88.4723 22.5289 87.9422 20.146 87.7989 19.7929C87.4263 18.9398 86.8676 18.2779 86.3231 18.0425C86.0939 17.9396 85.8933 17.8219 85.8933 17.7631C85.8933 17.7189 86.1225 17.513 86.3804 17.3071C87.1255 16.7481 87.8705 15.6155 88.2001 14.527C88.4723 13.7033 88.5296 13.1002 88.5869 10.5114C88.6585 7.29006 88.5439 6.12803 88.0281 4.73065C87.6556 3.71571 86.6383 2.53897 85.6927 2.05357C84.2456 1.3034 83.83 1.24456 79.0589 1.17101L74.5742 1.09747V15.4537ZM82.4546 5.77501C83.128 6.17216 83.4145 6.74582 83.6151 8.04024C83.8014 9.27581 83.7011 12.7913 83.4575 13.6445C83.0993 14.9242 82.3543 15.4096 80.5633 15.5125L79.3024 15.5861V10.4673V5.36315L80.6349 5.42199C81.6235 5.46612 82.0964 5.55437 82.4546 5.77501Z" fill="black" fill-opacity="0.2"/>
<path d="M74.5742 15.4537V29.8099H76.9383H79.3024V24.8823V19.9547H80.506C81.9674 19.9547 82.5119 20.1312 82.8701 20.749C83.0563 21.0579 83.4289 22.6318 83.9447 25.456C84.3888 27.7948 84.7614 29.7364 84.79 29.7658C84.8187 29.7952 85.9792 29.7952 87.3547 29.7805L89.8621 29.7364L88.9594 25.0883C88.4723 22.5289 87.9422 20.146 87.7989 19.7929C87.4263 18.9398 86.8676 18.2779 86.3231 18.0425C86.0939 17.9396 85.8933 17.8219 85.8933 17.7631C85.8933 17.7189 86.1225 17.513 86.3804 17.3071C87.1255 16.7481 87.8705 15.6155 88.2001 14.527C88.4723 13.7033 88.5296 13.1002 88.5869 10.5114C88.6585 7.29006 88.5439 6.12803 88.0281 4.73065C87.6556 3.71571 86.6383 2.53897 85.6927 2.05357C84.2456 1.3034 83.83 1.24456 79.0589 1.17101L74.5742 1.09747V15.4537ZM82.4546 5.77501C83.128 6.17216 83.4145 6.74582 83.6151 8.04024C83.8014 9.27581 83.7011 12.7913 83.4575 13.6445C83.0993 14.9242 82.3543 15.4096 80.5633 15.5125L79.3024 15.5861V10.4673V5.36315L80.6349 5.42199C81.6235 5.46612 82.0964 5.55437 82.4546 5.77501Z" fill="black" fill-opacity="0.2"/>
<path d="M109.822 15.4684V29.8099H112.258H114.694V24.1469V18.4838H117.631H120.568V16.0568V13.6298H117.631H114.694V9.80534V5.98094H117.631H120.568V3.55391V1.12688H115.195H109.822V15.4684Z" fill="#1C1C1C"/>
<path d="M109.822 15.4684V29.8099H112.258H114.694V24.1469V18.4838H117.631H120.568V16.0568V13.6298H117.631H114.694V9.80534V5.98094H117.631H120.568V3.55391V1.12688H115.195H109.822V15.4684Z" fill="black" fill-opacity="0.2"/>
<path d="M109.822 15.4684V29.8099H112.258H114.694V24.1469V18.4838H117.631H120.568V16.0568V13.6298H117.631H114.694V9.80534V5.98094H117.631H120.568V3.55391V1.12688H115.195H109.822V15.4684Z" fill="black" fill-opacity="0.2"/>
<path d="M109.822 15.4684V29.8099H112.258H114.694V24.1469V18.4838H117.631H120.568V16.0568V13.6298H117.631H114.694V9.80534V5.98094H117.631H120.568V3.55391V1.12688H115.195H109.822V15.4684Z" fill="black" fill-opacity="0.2"/>
<path d="M123.289 15.4684V29.8099H125.796H128.304V15.4684V1.12688H125.796H123.289V15.4684Z" fill="#1C1C1C"/>
<path d="M123.289 15.4684V29.8099H125.796H128.304V15.4684V1.12688H125.796H123.289V15.4684Z" fill="black" fill-opacity="0.2"/>
<path d="M123.289 15.4684V29.8099H125.796H128.304V15.4684V1.12688H125.796H123.289V15.4684Z" fill="black" fill-opacity="0.2"/>
<path d="M123.289 15.4684V29.8099H125.796H128.304V15.4684V1.12688H125.796H123.289V15.4684Z" fill="black" fill-opacity="0.2"/>
<path d="M132.173 15.4684V29.8099H137.403H142.632V27.4565V25.103H139.838H137.044V13.1149V1.12688H134.609H132.173V15.4684Z" fill="#1C1C1C"/>
<path d="M132.173 15.4684V29.8099H137.403H142.632V27.4565V25.103H139.838H137.044V13.1149V1.12688H134.609H132.173V15.4684Z" fill="black" fill-opacity="0.2"/>
<path d="M132.173 15.4684V29.8099H137.403H142.632V27.4565V25.103H139.838H137.044V13.1149V1.12688H134.609H132.173V15.4684Z" fill="black" fill-opacity="0.2"/>
<path d="M132.173 15.4684V29.8099H137.403H142.632V27.4565V25.103H139.838H137.044V13.1149V1.12688H134.609H132.173V15.4684Z" fill="black" fill-opacity="0.2"/>
<path d="M80.2046 36.3408C77.8118 36.9439 76.1498 38.6502 75.3331 41.3567C75.0895 42.1657 75.0752 42.9159 75.0752 50.8442V59.4491L75.4191 60.6111C76.3504 63.7 78.4566 65.3475 81.838 65.627C85.0331 65.8917 87.7697 64.4943 88.9733 61.9791C89.8759 60.0963 89.9046 59.758 89.9046 50.9471C89.9046 44.2985 89.8616 42.857 89.6753 41.9009C89.0879 38.9591 87.4115 37.0616 84.7895 36.3555C83.8009 36.0908 81.2649 36.0761 80.2046 36.3408ZM83.414 40.8272C83.8439 41.0331 84.1018 41.2979 84.3454 41.7538L84.6749 42.3863V50.8442C84.6749 59.0078 84.6606 59.3167 84.3883 59.8904C83.5716 61.5672 81.4368 61.5672 80.5914 59.8756L80.2332 59.1696L80.1903 51.3737C80.1616 46.1225 80.2046 43.3424 80.3049 42.8129C80.5055 41.8421 80.9496 41.1361 81.5944 40.8124C82.2391 40.4741 82.669 40.4888 83.414 40.8272Z" fill="#1C1C1C"/>
<path d="M80.2046 36.3408C77.8118 36.9439 76.1498 38.6502 75.3331 41.3567C75.0895 42.1657 75.0752 42.9159 75.0752 50.8442V59.4491L75.4191 60.6111C76.3504 63.7 78.4566 65.3475 81.838 65.627C85.0331 65.8917 87.7697 64.4943 88.9733 61.9791C89.8759 60.0963 89.9046 59.758 89.9046 50.9471C89.9046 44.2985 89.8616 42.857 89.6753 41.9009C89.0879 38.9591 87.4115 37.0616 84.7895 36.3555C83.8009 36.0908 81.2649 36.0761 80.2046 36.3408ZM83.414 40.8272C83.8439 41.0331 84.1018 41.2979 84.3454 41.7538L84.6749 42.3863V50.8442C84.6749 59.0078 84.6606 59.3167 84.3883 59.8904C83.5716 61.5672 81.4368 61.5672 80.5914 59.8756L80.2332 59.1696L80.1903 51.3737C80.1616 46.1225 80.2046 43.3424 80.3049 42.8129C80.5055 41.8421 80.9496 41.1361 81.5944 40.8124C82.2391 40.4741 82.669 40.4888 83.414 40.8272Z" fill="black" fill-opacity="0.2"/>
<path d="M80.2046 36.3408C77.8118 36.9439 76.1498 38.6502 75.3331 41.3567C75.0895 42.1657 75.0752 42.9159 75.0752 50.8442V59.4491L75.4191 60.6111C76.3504 63.7 78.4566 65.3475 81.838 65.627C85.0331 65.8917 87.7697 64.4943 88.9733 61.9791C89.8759 60.0963 89.9046 59.758 89.9046 50.9471C89.9046 44.2985 89.8616 42.857 89.6753 41.9009C89.0879 38.9591 87.4115 37.0616 84.7895 36.3555C83.8009 36.0908 81.2649 36.0761 80.2046 36.3408ZM83.414 40.8272C83.8439 41.0331 84.1018 41.2979 84.3454 41.7538L84.6749 42.3863V50.8442C84.6749 59.0078 84.6606 59.3167 84.3883 59.8904C83.5716 61.5672 81.4368 61.5672 80.5914 59.8756L80.2332 59.1696L80.1903 51.3737C80.1616 46.1225 80.2046 43.3424 80.3049 42.8129C80.5055 41.8421 80.9496 41.1361 81.5944 40.8124C82.2391 40.4741 82.669 40.4888 83.414 40.8272Z" fill="black" fill-opacity="0.2"/>
<path d="M80.2046 36.3408C77.8118 36.9439 76.1498 38.6502 75.3331 41.3567C75.0895 42.1657 75.0752 42.9159 75.0752 50.8442V59.4491L75.4191 60.6111C76.3504 63.7 78.4566 65.3475 81.838 65.627C85.0331 65.8917 87.7697 64.4943 88.9733 61.9791C89.8759 60.0963 89.9046 59.758 89.9046 50.9471C89.9046 44.2985 89.8616 42.857 89.6753 41.9009C89.0879 38.9591 87.4115 37.0616 84.7895 36.3555C83.8009 36.0908 81.2649 36.0761 80.2046 36.3408ZM83.414 40.8272C83.8439 41.0331 84.1018 41.2979 84.3454 41.7538L84.6749 42.3863V50.8442C84.6749 59.0078 84.6606 59.3167 84.3883 59.8904C83.5716 61.5672 81.4368 61.5672 80.5914 59.8756L80.2332 59.1696L80.1903 51.3737C80.1616 46.1225 80.2046 43.3424 80.3049 42.8129C80.5055 41.8421 80.9496 41.1361 81.5944 40.8124C82.2391 40.4741 82.669 40.4888 83.414 40.8272Z" fill="black" fill-opacity="0.2"/>
<path d="M98.2153 36.3704C95.8225 37.0176 94.1605 38.7386 93.4011 41.3715C93.1718 42.1364 93.1432 43.1219 93.1002 50.2118C93.0286 59.2285 93.0859 59.9052 93.9742 61.8174C95.1491 64.3621 97.3126 65.6124 100.579 65.6124C103.029 65.6124 104.62 65.0093 105.938 63.5678C106.798 62.6411 107.313 61.6114 107.686 60.1405C107.944 59.1109 107.958 58.4637 107.958 50.9325C107.958 42.0187 107.915 41.5774 107.099 39.8565C106.239 38.0766 104.792 36.8705 102.872 36.3556C101.797 36.0762 99.2755 36.0762 98.2153 36.3704ZM101.797 40.9891C102.012 41.1509 102.313 41.5333 102.456 41.8275C102.714 42.357 102.729 42.8719 102.729 50.9178C102.729 59.258 102.729 59.4639 102.428 59.964C101.955 60.8171 101.296 61.1849 100.393 61.1113C99.7483 61.0525 99.5478 60.9642 99.1466 60.5377C98.2296 59.5963 98.2009 59.2285 98.2439 50.4471C98.2869 42.9013 98.3012 42.6659 98.5878 42.0187C98.9317 41.2538 99.3042 40.8861 99.8773 40.6949C100.45 40.5037 101.324 40.6508 101.797 40.9891Z" fill="#1C1C1C"/>
<path d="M98.2153 36.3704C95.8225 37.0176 94.1605 38.7386 93.4011 41.3715C93.1718 42.1364 93.1432 43.1219 93.1002 50.2118C93.0286 59.2285 93.0859 59.9052 93.9742 61.8174C95.1491 64.3621 97.3126 65.6124 100.579 65.6124C103.029 65.6124 104.62 65.0093 105.938 63.5678C106.798 62.6411 107.313 61.6114 107.686 60.1405C107.944 59.1109 107.958 58.4637 107.958 50.9325C107.958 42.0187 107.915 41.5774 107.099 39.8565C106.239 38.0766 104.792 36.8705 102.872 36.3556C101.797 36.0762 99.2755 36.0762 98.2153 36.3704ZM101.797 40.9891C102.012 41.1509 102.313 41.5333 102.456 41.8275C102.714 42.357 102.729 42.8719 102.729 50.9178C102.729 59.258 102.729 59.4639 102.428 59.964C101.955 60.8171 101.296 61.1849 100.393 61.1113C99.7483 61.0525 99.5478 60.9642 99.1466 60.5377C98.2296 59.5963 98.2009 59.2285 98.2439 50.4471C98.2869 42.9013 98.3012 42.6659 98.5878 42.0187C98.9317 41.2538 99.3042 40.8861 99.8773 40.6949C100.45 40.5037 101.324 40.6508 101.797 40.9891Z" fill="black" fill-opacity="0.2"/>
<path d="M98.2153 36.3704C95.8225 37.0176 94.1605 38.7386 93.4011 41.3715C93.1718 42.1364 93.1432 43.1219 93.1002 50.2118C93.0286 59.2285 93.0859 59.9052 93.9742 61.8174C95.1491 64.3621 97.3126 65.6124 100.579 65.6124C103.029 65.6124 104.62 65.0093 105.938 63.5678C106.798 62.6411 107.313 61.6114 107.686 60.1405C107.944 59.1109 107.958 58.4637 107.958 50.9325C107.958 42.0187 107.915 41.5774 107.099 39.8565C106.239 38.0766 104.792 36.8705 102.872 36.3556C101.797 36.0762 99.2755 36.0762 98.2153 36.3704ZM101.797 40.9891C102.012 41.1509 102.313 41.5333 102.456 41.8275C102.714 42.357 102.729 42.8719 102.729 50.9178C102.729 59.258 102.729 59.4639 102.428 59.964C101.955 60.8171 101.296 61.1849 100.393 61.1113C99.7483 61.0525 99.5478 60.9642 99.1466 60.5377C98.2296 59.5963 98.2009 59.2285 98.2439 50.4471C98.2869 42.9013 98.3012 42.6659 98.5878 42.0187C98.9317 41.2538 99.3042 40.8861 99.8773 40.6949C100.45 40.5037 101.324 40.6508 101.797 40.9891Z" fill="black" fill-opacity="0.2"/>
<path d="M98.2153 36.3704C95.8225 37.0176 94.1605 38.7386 93.4011 41.3715C93.1718 42.1364 93.1432 43.1219 93.1002 50.2118C93.0286 59.2285 93.0859 59.9052 93.9742 61.8174C95.1491 64.3621 97.3126 65.6124 100.579 65.6124C103.029 65.6124 104.62 65.0093 105.938 63.5678C106.798 62.6411 107.313 61.6114 107.686 60.1405C107.944 59.1109 107.958 58.4637 107.958 50.9325C107.958 42.0187 107.915 41.5774 107.099 39.8565C106.239 38.0766 104.792 36.8705 102.872 36.3556C101.797 36.0762 99.2755 36.0762 98.2153 36.3704ZM101.797 40.9891C102.012 41.1509 102.313 41.5333 102.456 41.8275C102.714 42.357 102.729 42.8719 102.729 50.9178C102.729 59.258 102.729 59.4639 102.428 59.964C101.955 60.8171 101.296 61.1849 100.393 61.1113C99.7483 61.0525 99.5478 60.9642 99.1466 60.5377C98.2296 59.5963 98.2009 59.2285 98.2439 50.4471C98.2869 42.9013 98.3012 42.6659 98.5878 42.0187C98.9317 41.2538 99.3042 40.8861 99.8773 40.6949C100.45 40.5037 101.324 40.6508 101.797 40.9891Z" fill="black" fill-opacity="0.2"/>
<path d="M133.334 36.3556C130.912 37.0469 129.207 38.9739 128.663 41.6509C128.204 43.8573 128.505 46.402 129.422 48.3437C130.095 49.7557 131.586 51.3002 133.606 52.6829C136.242 54.4921 137.016 55.61 137.145 57.8017C137.288 60.1258 136.572 61.5084 135.196 61.5084C133.72 61.5084 133.119 60.5082 133.104 57.9782C133.104 57.081 133.147 56.1837 133.219 55.9483L133.319 55.5512H130.969H128.62L128.462 56.2867C128.204 57.5075 128.262 59.7727 128.591 61.0672C128.949 62.494 129.379 63.2736 130.31 64.1267C132.273 65.9359 136.371 66.1713 138.936 64.6268C140.326 63.7884 141.515 61.9938 141.902 60.1405C142.131 59.0226 142.088 56.3896 141.83 55.257C141.715 54.7275 141.386 53.8008 141.085 53.1977C140.412 51.7709 138.807 50.0941 136.758 48.682C135.239 47.6229 134.236 46.6815 133.849 45.8872C133.448 45.1076 133.291 43.6955 133.463 42.607C133.72 41.0184 134.365 40.2241 135.397 40.2241C136.772 40.2241 137.446 41.8275 137.302 44.7399L137.231 46.1373H139.552H141.887L141.973 45.6813C142.131 44.8429 142.059 41.8127 141.859 40.8125C141.415 38.7091 140.297 37.2087 138.649 36.5615C137.575 36.135 134.523 36.0173 133.334 36.3556Z" fill="#1C1C1C"/>
<path d="M133.334 36.3556C130.912 37.0469 129.207 38.9739 128.663 41.6509C128.204 43.8573 128.505 46.402 129.422 48.3437C130.095 49.7557 131.586 51.3002 133.606 52.6829C136.242 54.4921 137.016 55.61 137.145 57.8017C137.288 60.1258 136.572 61.5084 135.196 61.5084C133.72 61.5084 133.119 60.5082 133.104 57.9782C133.104 57.081 133.147 56.1837 133.219 55.9483L133.319 55.5512H130.969H128.62L128.462 56.2867C128.204 57.5075 128.262 59.7727 128.591 61.0672C128.949 62.494 129.379 63.2736 130.31 64.1267C132.273 65.9359 136.371 66.1713 138.936 64.6268C140.326 63.7884 141.515 61.9938 141.902 60.1405C142.131 59.0226 142.088 56.3896 141.83 55.257C141.715 54.7275 141.386 53.8008 141.085 53.1977C140.412 51.7709 138.807 50.0941 136.758 48.682C135.239 47.6229 134.236 46.6815 133.849 45.8872C133.448 45.1076 133.291 43.6955 133.463 42.607C133.72 41.0184 134.365 40.2241 135.397 40.2241C136.772 40.2241 137.446 41.8275 137.302 44.7399L137.231 46.1373H139.552H141.887L141.973 45.6813C142.131 44.8429 142.059 41.8127 141.859 40.8125C141.415 38.7091 140.297 37.2087 138.649 36.5615C137.575 36.135 134.523 36.0173 133.334 36.3556Z" fill="black" fill-opacity="0.2"/>
<path d="M133.334 36.3556C130.912 37.0469 129.207 38.9739 128.663 41.6509C128.204 43.8573 128.505 46.402 129.422 48.3437C130.095 49.7557 131.586 51.3002 133.606 52.6829C136.242 54.4921 137.016 55.61 137.145 57.8017C137.288 60.1258 136.572 61.5084 135.196 61.5084C133.72 61.5084 133.119 60.5082 133.104 57.9782C133.104 57.081 133.147 56.1837 133.219 55.9483L133.319 55.5512H130.969H128.62L128.462 56.2867C128.204 57.5075 128.262 59.7727 128.591 61.0672C128.949 62.494 129.379 63.2736 130.31 64.1267C132.273 65.9359 136.371 66.1713 138.936 64.6268C140.326 63.7884 141.515 61.9938 141.902 60.1405C142.131 59.0226 142.088 56.3896 141.83 55.257C141.715 54.7275 141.386 53.8008 141.085 53.1977C140.412 51.7709 138.807 50.0941 136.758 48.682C135.239 47.6229 134.236 46.6815 133.849 45.8872C133.448 45.1076 133.291 43.6955 133.463 42.607C133.72 41.0184 134.365 40.2241 135.397 40.2241C136.772 40.2241 137.446 41.8275 137.302 44.7399L137.231 46.1373H139.552H141.887L141.973 45.6813C142.131 44.8429 142.059 41.8127 141.859 40.8125C141.415 38.7091 140.297 37.2087 138.649 36.5615C137.575 36.135 134.523 36.0173 133.334 36.3556Z" fill="black" fill-opacity="0.2"/>
<path d="M133.334 36.3556C130.912 37.0469 129.207 38.9739 128.663 41.6509C128.204 43.8573 128.505 46.402 129.422 48.3437C130.095 49.7557 131.586 51.3002 133.606 52.6829C136.242 54.4921 137.016 55.61 137.145 57.8017C137.288 60.1258 136.572 61.5084 135.196 61.5084C133.72 61.5084 133.119 60.5082 133.104 57.9782C133.104 57.081 133.147 56.1837 133.219 55.9483L133.319 55.5512H130.969H128.62L128.462 56.2867C128.204 57.5075 128.262 59.7727 128.591 61.0672C128.949 62.494 129.379 63.2736 130.31 64.1267C132.273 65.9359 136.371 66.1713 138.936 64.6268C140.326 63.7884 141.515 61.9938 141.902 60.1405C142.131 59.0226 142.088 56.3896 141.83 55.257C141.715 54.7275 141.386 53.8008 141.085 53.1977C140.412 51.7709 138.807 50.0941 136.758 48.682C135.239 47.6229 134.236 46.6815 133.849 45.8872C133.448 45.1076 133.291 43.6955 133.463 42.607C133.72 41.0184 134.365 40.2241 135.397 40.2241C136.772 40.2241 137.446 41.8275 137.302 44.7399L137.231 46.1373H139.552H141.887L141.973 45.6813C142.131 44.8429 142.059 41.8127 141.859 40.8125C141.415 38.7091 140.297 37.2087 138.649 36.5615C137.575 36.135 134.523 36.0173 133.334 36.3556Z" fill="black" fill-opacity="0.2"/>
<path d="M57.666 50.9325V65.2888L61.7208 65.2152C64.8586 65.1564 65.9475 65.0975 66.621 64.9063C69.0424 64.215 70.4608 62.9353 71.3062 60.6112C71.6214 59.7581 71.6357 59.6257 71.6787 51.3444C71.7074 44.1516 71.693 42.7836 71.4924 41.9452C70.8763 39.1798 69.2 37.4441 66.5207 36.7969C65.8329 36.6351 64.658 36.5763 61.6492 36.5763H57.666V50.9325ZM65.4317 41.1803C65.8329 41.4009 66.0908 41.7245 66.3774 42.2982L66.7642 43.1219L66.8072 50.4471C66.8359 56.6838 66.8215 57.9047 66.621 58.6696C66.2198 60.3023 65.532 60.8466 63.7267 60.9642L62.6808 61.0378V50.8443V40.6508L63.784 40.7537C64.5004 40.8273 65.0879 40.9744 65.4317 41.1803Z" fill="#1C1C1C"/>
<path d="M57.666 50.9325V65.2888L61.7208 65.2152C64.8586 65.1564 65.9475 65.0975 66.621 64.9063C69.0424 64.215 70.4608 62.9353 71.3062 60.6112C71.6214 59.7581 71.6357 59.6257 71.6787 51.3444C71.7074 44.1516 71.693 42.7836 71.4924 41.9452C70.8763 39.1798 69.2 37.4441 66.5207 36.7969C65.8329 36.6351 64.658 36.5763 61.6492 36.5763H57.666V50.9325ZM65.4317 41.1803C65.8329 41.4009 66.0908 41.7245 66.3774 42.2982L66.7642 43.1219L66.8072 50.4471C66.8359 56.6838 66.8215 57.9047 66.621 58.6696C66.2198 60.3023 65.532 60.8466 63.7267 60.9642L62.6808 61.0378V50.8443V40.6508L63.784 40.7537C64.5004 40.8273 65.0879 40.9744 65.4317 41.1803Z" fill="black" fill-opacity="0.2"/>
<path d="M57.666 50.9325V65.2888L61.7208 65.2152C64.8586 65.1564 65.9475 65.0975 66.621 64.9063C69.0424 64.215 70.4608 62.9353 71.3062 60.6112C71.6214 59.7581 71.6357 59.6257 71.6787 51.3444C71.7074 44.1516 71.693 42.7836 71.4924 41.9452C70.8763 39.1798 69.2 37.4441 66.5207 36.7969C65.8329 36.6351 64.658 36.5763 61.6492 36.5763H57.666V50.9325ZM65.4317 41.1803C65.8329 41.4009 66.0908 41.7245 66.3774 42.2982L66.7642 43.1219L66.8072 50.4471C66.8359 56.6838 66.8215 57.9047 66.621 58.6696C66.2198 60.3023 65.532 60.8466 63.7267 60.9642L62.6808 61.0378V50.8443V40.6508L63.784 40.7537C64.5004 40.8273 65.0879 40.9744 65.4317 41.1803Z" fill="black" fill-opacity="0.2"/>
<path d="M57.666 50.9325V65.2888L61.7208 65.2152C64.8586 65.1564 65.9475 65.0975 66.621 64.9063C69.0424 64.215 70.4608 62.9353 71.3062 60.6112C71.6214 59.7581 71.6357 59.6257 71.6787 51.3444C71.7074 44.1516 71.693 42.7836 71.4924 41.9452C70.8763 39.1798 69.2 37.4441 66.5207 36.7969C65.8329 36.6351 64.658 36.5763 61.6492 36.5763H57.666V50.9325ZM65.4317 41.1803C65.8329 41.4009 66.0908 41.7245 66.3774 42.2982L66.7642 43.1219L66.8072 50.4471C66.8359 56.6838 66.8215 57.9047 66.621 58.6696C66.2198 60.3023 65.532 60.8466 63.7267 60.9642L62.6808 61.0378V50.8443V40.6508L63.784 40.7537C64.5004 40.8273 65.0879 40.9744 65.4317 41.1803Z" fill="black" fill-opacity="0.2"/>
<path d="M111.396 50.9177V65.2593H113.761H116.125V60.2581V55.257L117.314 55.2717C117.959 55.2717 118.718 55.3452 118.99 55.4482C119.821 55.7424 120.051 56.4337 120.896 61.0671L121.641 65.1857L124.191 65.2299C125.81 65.2446 126.727 65.2151 126.727 65.1122C126.727 64.7297 125.108 56.5367 124.865 55.6983C124.535 54.5656 123.89 53.6978 123.102 53.3448C122.615 53.1241 122.572 53.0653 122.83 52.9918C123.231 52.8594 124.349 51.5944 124.707 50.8736C125.295 49.6822 125.438 48.6231 125.438 45.1811C125.438 41.695 125.323 40.886 124.664 39.5475C124.249 38.7091 123.289 37.753 122.472 37.3264C121.211 36.6792 120.337 36.5762 115.738 36.5762H111.396V50.9177ZM119.263 41.1067C119.592 41.2685 119.907 41.6068 120.137 42.0186C120.48 42.6659 120.495 42.7541 120.495 45.7695C120.495 48.6525 120.48 48.9026 120.194 49.4468C119.606 50.55 118.99 50.8442 117.257 50.8442H116.125V45.7548V40.6507L117.443 40.7537C118.231 40.7978 118.962 40.9449 119.263 41.1067Z" fill="#1C1C1C"/>
<path d="M111.396 50.9177V65.2593H113.761H116.125V60.2581V55.257L117.314 55.2717C117.959 55.2717 118.718 55.3452 118.99 55.4482C119.821 55.7424 120.051 56.4337 120.896 61.0671L121.641 65.1857L124.191 65.2299C125.81 65.2446 126.727 65.2151 126.727 65.1122C126.727 64.7297 125.108 56.5367 124.865 55.6983C124.535 54.5656 123.89 53.6978 123.102 53.3448C122.615 53.1241 122.572 53.0653 122.83 52.9918C123.231 52.8594 124.349 51.5944 124.707 50.8736C125.295 49.6822 125.438 48.6231 125.438 45.1811C125.438 41.695 125.323 40.886 124.664 39.5475C124.249 38.7091 123.289 37.753 122.472 37.3264C121.211 36.6792 120.337 36.5762 115.738 36.5762H111.396V50.9177ZM119.263 41.1067C119.592 41.2685 119.907 41.6068 120.137 42.0186C120.48 42.6659 120.495 42.7541 120.495 45.7695C120.495 48.6525 120.48 48.9026 120.194 49.4468C119.606 50.55 118.99 50.8442 117.257 50.8442H116.125V45.7548V40.6507L117.443 40.7537C118.231 40.7978 118.962 40.9449 119.263 41.1067Z" fill="black" fill-opacity="0.2"/>
<path d="M111.396 50.9177V65.2593H113.761H116.125V60.2581V55.257L117.314 55.2717C117.959 55.2717 118.718 55.3452 118.99 55.4482C119.821 55.7424 120.051 56.4337 120.896 61.0671L121.641 65.1857L124.191 65.2299C125.81 65.2446 126.727 65.2151 126.727 65.1122C126.727 64.7297 125.108 56.5367 124.865 55.6983C124.535 54.5656 123.89 53.6978 123.102 53.3448C122.615 53.1241 122.572 53.0653 122.83 52.9918C123.231 52.8594 124.349 51.5944 124.707 50.8736C125.295 49.6822 125.438 48.6231 125.438 45.1811C125.438 41.695 125.323 40.886 124.664 39.5475C124.249 38.7091 123.289 37.753 122.472 37.3264C121.211 36.6792 120.337 36.5762 115.738 36.5762H111.396V50.9177ZM119.263 41.1067C119.592 41.2685 119.907 41.6068 120.137 42.0186C120.48 42.6659 120.495 42.7541 120.495 45.7695C120.495 48.6525 120.48 48.9026 120.194 49.4468C119.606 50.55 118.99 50.8442 117.257 50.8442H116.125V45.7548V40.6507L117.443 40.7537C118.231 40.7978 118.962 40.9449 119.263 41.1067Z" fill="black" fill-opacity="0.2"/>
<path d="M111.396 50.9177V65.2593H113.761H116.125V60.2581V55.257L117.314 55.2717C117.959 55.2717 118.718 55.3452 118.99 55.4482C119.821 55.7424 120.051 56.4337 120.896 61.0671L121.641 65.1857L124.191 65.2299C125.81 65.2446 126.727 65.2151 126.727 65.1122C126.727 64.7297 125.108 56.5367 124.865 55.6983C124.535 54.5656 123.89 53.6978 123.102 53.3448C122.615 53.1241 122.572 53.0653 122.83 52.9918C123.231 52.8594 124.349 51.5944 124.707 50.8736C125.295 49.6822 125.438 48.6231 125.438 45.1811C125.438 41.695 125.323 40.886 124.664 39.5475C124.249 38.7091 123.289 37.753 122.472 37.3264C121.211 36.6792 120.337 36.5762 115.738 36.5762H111.396V50.9177ZM119.263 41.1067C119.592 41.2685 119.907 41.6068 120.137 42.0186C120.48 42.6659 120.495 42.7541 120.495 45.7695C120.495 48.6525 120.48 48.9026 120.194 49.4468C119.606 50.55 118.99 50.8442 117.257 50.8442H116.125V45.7548V40.6507L117.443 40.7537C118.231 40.7978 118.962 40.9449 119.263 41.1067Z" fill="black" fill-opacity="0.2"/>
</g>
<defs>
<clipPath id="clip0_1718_6253">
<rect width="142.836" height="66" fill="white"/>
</clipPath>
</defs>
</svg>
