<svg width="310" height="66" viewBox="0 0 310 66" fill="none" xmlns="http://www.w3.org/2000/svg">
<g clip-path="url(#clip0_1718_10615)">
<path d="M37.6403 56.975C51.7418 56.975 63.1732 45.5919 63.1732 31.5501C63.1732 17.5085 51.7418 6.12549 37.6403 6.12549C23.5388 6.12549 12.1074 17.5085 12.1074 31.5501C12.1074 45.5919 23.5388 56.975 37.6403 56.975Z" fill="#E8F5E1"/>
<path fill-rule="evenodd" clip-rule="evenodd" d="M16.5271 45.7316C16.2631 45.2358 16.0283 44.7244 15.8238 44.2004C15.7334 43.9845 15.6496 43.7619 15.5786 43.546L15.4947 43.2908C15.4302 43.0944 15.3721 42.9045 15.3205 42.7082C14.4059 39.4115 14.6378 35.8959 15.9773 32.7521C17.3169 29.6084 19.6824 27.028 22.6765 25.4443C24.2401 24.6021 25.9368 24.044 27.6902 23.7952C29.6259 29.685 26.2512 36.9362 19.4631 41.4647C20.1518 41.1813 20.8259 40.8623 21.4827 40.5093C28.2193 36.8904 32.2069 30.3525 32.3552 23.8607C32.3788 23.1244 32.3508 22.3874 32.2715 21.6551C28.9426 21.2138 25.5607 21.8312 22.5925 23.4221C19.251 25.1819 16.6511 28.1097 15.2738 31.6638C13.8966 35.2179 13.8352 39.1576 15.1011 42.754C15.1656 42.9373 15.2366 43.1205 15.314 43.3038C15.3527 43.4085 15.3979 43.5197 15.4431 43.6244C15.5334 43.834 15.6238 44.0499 15.727 44.2788C15.8303 44.508 15.9658 44.7698 16.0948 45.0117C16.2239 45.2539 16.3787 45.5093 16.5271 45.7316Z" fill="#5BC029"/>
<path fill-rule="evenodd" clip-rule="evenodd" d="M10.9754 45.745C10.6829 45.6795 10.3926 45.6273 10.1044 45.5881C9.98035 45.5685 9.85543 45.5552 9.73009 45.5486H9.57524H9.25261C7.45126 45.4951 5.68493 46.0605 4.24059 47.1537C2.79622 48.2466 1.75869 49.8028 1.29657 51.5696C1.06653 52.4792 1.00095 53.4239 1.10299 54.3573C4.38735 54.5798 7.70398 51.8902 9.14936 47.813C9.09129 48.1993 9.01386 48.5919 8.91708 48.978C8.50031 50.7928 7.62036 52.4646 6.36553 53.8258C5.11068 55.1869 3.52504 56.1895 1.76761 56.7329C1.38858 56.8407 1.00265 56.9215 0.612593 56.9751C0.251469 56.0798 0.0462442 55.1276 0.00605012 54.1609C-0.0244262 53.363 0.0603551 52.5649 0.257701 51.7919C0.768555 49.8123 1.95883 48.082 3.61464 46.9126C5.27045 45.743 7.28325 45.2106 9.29132 45.4113L9.60752 45.444H9.78819L10.1495 45.5028C10.2979 45.5028 10.4399 45.5618 10.5818 45.6011C10.7238 45.6403 10.8399 45.7057 10.9754 45.745Z" fill="#5BC029"/>
<path d="M59.8468 57.6162L60.1758 57.4525C37.1981 68.7481 25.0285 60.561 18.2856 49.115C9.36169 34.0304 12.9106 14.4629 27.9387 5.66732C42.9668 -3.12826 61.9891 1.34151 70.7063 15.5231L70.358 14.9537C61.034 -0.0655181 40.4696 -4.41096 24.0091 5.24192C7.96794 14.6265 2.64456 34.9859 12.9106 51.0916C18.0727 59.1803 27.7063 64.8346 38.7211 64.8346C45.4962 64.8346 52.7877 62.6749 59.8468 57.59" fill="#5BC029"/>
<path d="M70.2186 14.476C67.2474 10.3799 63.4594 6.96385 59.101 4.45012C56.3919 3.01485 53.4894 1.99168 50.4867 1.41354C48.0992 0.955445 46.2925 0.634765 45.8602 0.588964C42.0549 0.162677 38.208 0.328191 34.4519 1.07979L30.8321 3.56664L27.1992 6.11893L27.9671 5.66736C28.7747 5.25228 29.6166 4.91064 30.4837 4.64644C31.4655 4.32254 32.4679 4.06673 33.4841 3.88075C35.1488 3.57973 36.4006 3.46847 36.7104 3.44229C37.5944 3.38994 38.2783 3.39648 38.4913 3.39648C39.227 3.39648 39.7819 3.45538 40.6658 3.52737C41.2595 3.57318 41.6078 3.6059 42.1111 3.67135C42.3305 3.67135 42.9178 3.78261 43.6791 3.93311C44.0792 4.01164 44.4148 4.09017 44.673 4.14908C45.2989 4.29786 45.9171 4.47917 46.5247 4.69225C47.2861 4.96057 48.1186 5.30089 49.0091 5.71317C49.8996 6.12547 50.8416 6.6032 51.8031 7.166C52.7645 7.72883 53.7388 8.35054 54.7454 9.05732C55.7534 9.77676 56.7248 10.5478 57.6556 11.3675C58.6164 12.209 59.532 13.1025 60.3977 14.0441C61.254 14.9827 62.0616 15.9657 62.8176 16.989C63.1725 17.5126 63.5467 18.0034 63.8694 18.5335L64.3661 19.3319C64.5145 19.6002 64.6695 19.8554 64.8179 20.1172C65.3823 21.1091 65.8929 22.1315 66.347 23.18C66.5536 23.6839 66.7472 24.1746 66.9407 24.646L67.4247 26.0399C67.5536 26.4978 67.6828 26.9299 67.8054 27.3486C67.928 27.7675 67.999 28.1668 68.0958 28.5332C68.1926 28.8997 68.2572 29.2597 68.3151 29.5868C68.3731 29.914 68.4313 30.2412 68.4829 30.477C68.6377 31.5633 68.7153 32.1783 68.7153 32.1783C68.7153 32.1783 68.5861 31.5697 68.3473 30.503C68.2829 30.2412 68.1989 29.9468 68.1152 29.6262C68.0312 29.3054 67.941 28.9717 67.8182 28.6117C67.6956 28.2518 67.586 27.8592 67.4441 27.4599C67.3021 27.0608 67.1343 26.6486 66.9665 26.2101C66.7988 25.7715 66.5924 25.3397 66.3922 24.9012L65.7083 23.5072C65.1841 22.526 64.6091 21.5734 63.9854 20.6538L63.4951 19.9274L62.966 19.2207C62.5982 18.6775 62.2175 18.2325 61.8367 17.7613C61.0411 16.8427 60.1967 15.9689 59.3073 15.1435C58.4177 14.306 57.4829 13.5195 56.5069 12.7876C55.5622 12.0792 54.5798 11.4238 53.5646 10.8243C52.5901 10.2287 51.6287 9.71175 50.6802 9.2602C49.7318 8.80863 48.8283 8.43562 47.9894 8.11494C47.1506 7.79426 46.3571 7.55213 45.6602 7.36234C45.0987 7.20527 44.602 7.09401 44.1696 7.00239C44.1696 13.6776 44.8149 26.151 49.0607 32.4796C55.0164 41.3796 70.2896 41.8574 72.6901 49.3181C77.2584 36.0526 76.0905 22.8265 70.2186 14.476Z" fill="#5BC029"/>
</g>
<path d="M120.209 18.725C120.209 20.3083 119.868 21.7667 119.184 23.1C118.518 24.4333 117.518 25.525 116.184 26.375C114.868 27.225 113.343 27.6833 111.609 27.75V30.45H109.459V27.75C107.743 27.6833 106.218 27.225 104.884 26.375C103.568 25.525 102.568 24.4417 101.884 23.125C101.201 21.7917 100.859 20.3417 100.859 18.775C100.859 17.2083 101.201 15.7583 101.884 14.425C102.568 13.0917 103.568 12 104.884 11.15C106.218 10.2833 107.743 9.81667 109.459 9.75V7.35H111.609V9.75C112.926 9.8 114.126 10.075 115.209 10.575C116.309 11.075 117.218 11.7333 117.934 12.55C118.651 13.3667 119.209 14.3083 119.609 15.375C120.009 16.4417 120.209 17.5583 120.209 18.725ZM111.609 25.65C112.559 25.6 113.434 25.3833 114.234 25C115.034 24.6 115.701 24.0917 116.234 23.475C116.784 22.8417 117.209 22.125 117.509 21.325C117.826 20.5083 117.984 19.65 117.984 18.75C117.984 16.9167 117.393 15.3417 116.209 14.025C115.043 12.7083 113.509 11.9917 111.609 11.875V25.65ZM103.109 18.75C103.109 20.5833 103.693 22.1667 104.859 23.5C106.043 24.8167 107.576 25.5333 109.459 25.65V11.875C107.576 11.9917 106.043 12.7167 104.859 14.05C103.693 15.3667 103.109 16.9333 103.109 18.75ZM130.614 13.7C132.631 13.7 134.289 14.3667 135.589 15.7C136.906 17.0333 137.564 18.7167 137.564 20.75C137.564 22.7667 136.906 24.45 135.589 25.8C134.289 27.1333 132.631 27.8 130.614 27.8C128.581 27.8 126.906 27.1 125.589 25.7V32.325H123.464V14H124.914L125.339 16.075C125.973 15.325 126.739 14.7417 127.639 14.325C128.556 13.9083 129.548 13.7 130.614 13.7ZM130.464 25.75C131.898 25.75 133.081 25.275 134.014 24.325C134.948 23.375 135.414 22.1833 135.414 20.75C135.414 19.3167 134.948 18.125 134.014 17.175C133.081 16.225 131.898 15.75 130.464 15.75C129.031 15.75 127.839 16.2333 126.889 17.2C125.956 18.15 125.489 19.3333 125.489 20.75C125.489 21.6833 125.698 22.5333 126.114 23.3C126.548 24.0667 127.148 24.6667 127.914 25.1C128.681 25.5333 129.531 25.75 130.464 25.75ZM152.298 14H153.998V27.5H152.223L151.998 25.45C151.365 26.2 150.59 26.7833 149.673 27.2C148.773 27.6 147.782 27.8 146.698 27.8C144.715 27.8 143.057 27.1333 141.723 25.8C140.39 24.45 139.723 22.7667 139.723 20.75C139.723 18.7333 140.39 17.0583 141.723 15.725C143.057 14.375 144.715 13.7 146.698 13.7C147.798 13.7 148.798 13.9083 149.698 14.325C150.615 14.7417 151.39 15.325 152.023 16.075L152.298 14ZM143.298 24.325C144.248 25.275 145.44 25.75 146.873 25.75C148.307 25.75 149.49 25.275 150.423 24.325C151.357 23.375 151.823 22.1833 151.823 20.75C151.823 19.3167 151.357 18.125 150.423 17.175C149.49 16.225 148.307 15.75 146.873 15.75C145.44 15.75 144.248 16.2333 143.298 17.2C142.365 18.15 141.898 19.3333 141.898 20.75C141.898 22.1667 142.365 23.3583 143.298 24.325ZM175.054 27.5H173.004L171.079 17.475L166.304 27.225H165.829L161.079 17.475L159.154 27.5H157.104L159.679 14H161.454L166.079 23.45L170.679 14H172.454L175.054 27.5ZM188.101 14H189.276V27.5H187.276V17.85L179.401 27.5H178.176V14H180.201V23.575L188.101 14ZM200.732 13.7C202.748 13.7 204.407 14.3667 205.707 15.7C207.023 17.0333 207.682 18.7167 207.682 20.75C207.682 22.7667 207.023 24.45 205.707 25.8C204.407 27.1333 202.748 27.8 200.732 27.8C198.698 27.8 197.023 27.1 195.707 25.7V32.325H193.582V14H195.032L195.457 16.075C196.09 15.325 196.857 14.7417 197.757 14.325C198.673 13.9083 199.665 13.7 200.732 13.7ZM200.582 25.75C202.015 25.75 203.198 25.275 204.132 24.325C205.065 23.375 205.532 22.1833 205.532 20.75C205.532 19.3167 205.065 18.125 204.132 17.175C203.198 16.225 202.015 15.75 200.582 15.75C199.148 15.75 197.957 16.2333 197.007 17.2C196.073 18.15 195.607 19.3333 195.607 20.75C195.607 21.6833 195.815 22.5333 196.232 23.3C196.665 24.0667 197.265 24.6667 198.032 25.1C198.798 25.5333 199.648 25.75 200.582 25.75Z" fill="#1C1C1C"/>
<path d="M120.209 18.725C120.209 20.3083 119.868 21.7667 119.184 23.1C118.518 24.4333 117.518 25.525 116.184 26.375C114.868 27.225 113.343 27.6833 111.609 27.75V30.45H109.459V27.75C107.743 27.6833 106.218 27.225 104.884 26.375C103.568 25.525 102.568 24.4417 101.884 23.125C101.201 21.7917 100.859 20.3417 100.859 18.775C100.859 17.2083 101.201 15.7583 101.884 14.425C102.568 13.0917 103.568 12 104.884 11.15C106.218 10.2833 107.743 9.81667 109.459 9.75V7.35H111.609V9.75C112.926 9.8 114.126 10.075 115.209 10.575C116.309 11.075 117.218 11.7333 117.934 12.55C118.651 13.3667 119.209 14.3083 119.609 15.375C120.009 16.4417 120.209 17.5583 120.209 18.725ZM111.609 25.65C112.559 25.6 113.434 25.3833 114.234 25C115.034 24.6 115.701 24.0917 116.234 23.475C116.784 22.8417 117.209 22.125 117.509 21.325C117.826 20.5083 117.984 19.65 117.984 18.75C117.984 16.9167 117.393 15.3417 116.209 14.025C115.043 12.7083 113.509 11.9917 111.609 11.875V25.65ZM103.109 18.75C103.109 20.5833 103.693 22.1667 104.859 23.5C106.043 24.8167 107.576 25.5333 109.459 25.65V11.875C107.576 11.9917 106.043 12.7167 104.859 14.05C103.693 15.3667 103.109 16.9333 103.109 18.75ZM130.614 13.7C132.631 13.7 134.289 14.3667 135.589 15.7C136.906 17.0333 137.564 18.7167 137.564 20.75C137.564 22.7667 136.906 24.45 135.589 25.8C134.289 27.1333 132.631 27.8 130.614 27.8C128.581 27.8 126.906 27.1 125.589 25.7V32.325H123.464V14H124.914L125.339 16.075C125.973 15.325 126.739 14.7417 127.639 14.325C128.556 13.9083 129.548 13.7 130.614 13.7ZM130.464 25.75C131.898 25.75 133.081 25.275 134.014 24.325C134.948 23.375 135.414 22.1833 135.414 20.75C135.414 19.3167 134.948 18.125 134.014 17.175C133.081 16.225 131.898 15.75 130.464 15.75C129.031 15.75 127.839 16.2333 126.889 17.2C125.956 18.15 125.489 19.3333 125.489 20.75C125.489 21.6833 125.698 22.5333 126.114 23.3C126.548 24.0667 127.148 24.6667 127.914 25.1C128.681 25.5333 129.531 25.75 130.464 25.75ZM152.298 14H153.998V27.5H152.223L151.998 25.45C151.365 26.2 150.59 26.7833 149.673 27.2C148.773 27.6 147.782 27.8 146.698 27.8C144.715 27.8 143.057 27.1333 141.723 25.8C140.39 24.45 139.723 22.7667 139.723 20.75C139.723 18.7333 140.39 17.0583 141.723 15.725C143.057 14.375 144.715 13.7 146.698 13.7C147.798 13.7 148.798 13.9083 149.698 14.325C150.615 14.7417 151.39 15.325 152.023 16.075L152.298 14ZM143.298 24.325C144.248 25.275 145.44 25.75 146.873 25.75C148.307 25.75 149.49 25.275 150.423 24.325C151.357 23.375 151.823 22.1833 151.823 20.75C151.823 19.3167 151.357 18.125 150.423 17.175C149.49 16.225 148.307 15.75 146.873 15.75C145.44 15.75 144.248 16.2333 143.298 17.2C142.365 18.15 141.898 19.3333 141.898 20.75C141.898 22.1667 142.365 23.3583 143.298 24.325ZM175.054 27.5H173.004L171.079 17.475L166.304 27.225H165.829L161.079 17.475L159.154 27.5H157.104L159.679 14H161.454L166.079 23.45L170.679 14H172.454L175.054 27.5ZM188.101 14H189.276V27.5H187.276V17.85L179.401 27.5H178.176V14H180.201V23.575L188.101 14ZM200.732 13.7C202.748 13.7 204.407 14.3667 205.707 15.7C207.023 17.0333 207.682 18.7167 207.682 20.75C207.682 22.7667 207.023 24.45 205.707 25.8C204.407 27.1333 202.748 27.8 200.732 27.8C198.698 27.8 197.023 27.1 195.707 25.7V32.325H193.582V14H195.032L195.457 16.075C196.09 15.325 196.857 14.7417 197.757 14.325C198.673 13.9083 199.665 13.7 200.732 13.7ZM200.582 25.75C202.015 25.75 203.198 25.275 204.132 24.325C205.065 23.375 205.532 22.1833 205.532 20.75C205.532 19.3167 205.065 18.125 204.132 17.175C203.198 16.225 202.015 15.75 200.582 15.75C199.148 15.75 197.957 16.2333 197.007 17.2C196.073 18.15 195.607 19.3333 195.607 20.75C195.607 21.6833 195.815 22.5333 196.232 23.3C196.665 24.0667 197.265 24.6667 198.032 25.1C198.798 25.5333 199.648 25.75 200.582 25.75Z" fill="black" fill-opacity="0.2"/>
<path d="M120.209 18.725C120.209 20.3083 119.868 21.7667 119.184 23.1C118.518 24.4333 117.518 25.525 116.184 26.375C114.868 27.225 113.343 27.6833 111.609 27.75V30.45H109.459V27.75C107.743 27.6833 106.218 27.225 104.884 26.375C103.568 25.525 102.568 24.4417 101.884 23.125C101.201 21.7917 100.859 20.3417 100.859 18.775C100.859 17.2083 101.201 15.7583 101.884 14.425C102.568 13.0917 103.568 12 104.884 11.15C106.218 10.2833 107.743 9.81667 109.459 9.75V7.35H111.609V9.75C112.926 9.8 114.126 10.075 115.209 10.575C116.309 11.075 117.218 11.7333 117.934 12.55C118.651 13.3667 119.209 14.3083 119.609 15.375C120.009 16.4417 120.209 17.5583 120.209 18.725ZM111.609 25.65C112.559 25.6 113.434 25.3833 114.234 25C115.034 24.6 115.701 24.0917 116.234 23.475C116.784 22.8417 117.209 22.125 117.509 21.325C117.826 20.5083 117.984 19.65 117.984 18.75C117.984 16.9167 117.393 15.3417 116.209 14.025C115.043 12.7083 113.509 11.9917 111.609 11.875V25.65ZM103.109 18.75C103.109 20.5833 103.693 22.1667 104.859 23.5C106.043 24.8167 107.576 25.5333 109.459 25.65V11.875C107.576 11.9917 106.043 12.7167 104.859 14.05C103.693 15.3667 103.109 16.9333 103.109 18.75ZM130.614 13.7C132.631 13.7 134.289 14.3667 135.589 15.7C136.906 17.0333 137.564 18.7167 137.564 20.75C137.564 22.7667 136.906 24.45 135.589 25.8C134.289 27.1333 132.631 27.8 130.614 27.8C128.581 27.8 126.906 27.1 125.589 25.7V32.325H123.464V14H124.914L125.339 16.075C125.973 15.325 126.739 14.7417 127.639 14.325C128.556 13.9083 129.548 13.7 130.614 13.7ZM130.464 25.75C131.898 25.75 133.081 25.275 134.014 24.325C134.948 23.375 135.414 22.1833 135.414 20.75C135.414 19.3167 134.948 18.125 134.014 17.175C133.081 16.225 131.898 15.75 130.464 15.75C129.031 15.75 127.839 16.2333 126.889 17.2C125.956 18.15 125.489 19.3333 125.489 20.75C125.489 21.6833 125.698 22.5333 126.114 23.3C126.548 24.0667 127.148 24.6667 127.914 25.1C128.681 25.5333 129.531 25.75 130.464 25.75ZM152.298 14H153.998V27.5H152.223L151.998 25.45C151.365 26.2 150.59 26.7833 149.673 27.2C148.773 27.6 147.782 27.8 146.698 27.8C144.715 27.8 143.057 27.1333 141.723 25.8C140.39 24.45 139.723 22.7667 139.723 20.75C139.723 18.7333 140.39 17.0583 141.723 15.725C143.057 14.375 144.715 13.7 146.698 13.7C147.798 13.7 148.798 13.9083 149.698 14.325C150.615 14.7417 151.39 15.325 152.023 16.075L152.298 14ZM143.298 24.325C144.248 25.275 145.44 25.75 146.873 25.75C148.307 25.75 149.49 25.275 150.423 24.325C151.357 23.375 151.823 22.1833 151.823 20.75C151.823 19.3167 151.357 18.125 150.423 17.175C149.49 16.225 148.307 15.75 146.873 15.75C145.44 15.75 144.248 16.2333 143.298 17.2C142.365 18.15 141.898 19.3333 141.898 20.75C141.898 22.1667 142.365 23.3583 143.298 24.325ZM175.054 27.5H173.004L171.079 17.475L166.304 27.225H165.829L161.079 17.475L159.154 27.5H157.104L159.679 14H161.454L166.079 23.45L170.679 14H172.454L175.054 27.5ZM188.101 14H189.276V27.5H187.276V17.85L179.401 27.5H178.176V14H180.201V23.575L188.101 14ZM200.732 13.7C202.748 13.7 204.407 14.3667 205.707 15.7C207.023 17.0333 207.682 18.7167 207.682 20.75C207.682 22.7667 207.023 24.45 205.707 25.8C204.407 27.1333 202.748 27.8 200.732 27.8C198.698 27.8 197.023 27.1 195.707 25.7V32.325H193.582V14H195.032L195.457 16.075C196.09 15.325 196.857 14.7417 197.757 14.325C198.673 13.9083 199.665 13.7 200.732 13.7ZM200.582 25.75C202.015 25.75 203.198 25.275 204.132 24.325C205.065 23.375 205.532 22.1833 205.532 20.75C205.532 19.3167 205.065 18.125 204.132 17.175C203.198 16.225 202.015 15.75 200.582 15.75C199.148 15.75 197.957 16.2333 197.007 17.2C196.073 18.15 195.607 19.3333 195.607 20.75C195.607 21.6833 195.815 22.5333 196.232 23.3C196.665 24.0667 197.265 24.6667 198.032 25.1C198.798 25.5333 199.648 25.75 200.582 25.75Z" fill="black" fill-opacity="0.2"/>
<path d="M120.209 18.725C120.209 20.3083 119.868 21.7667 119.184 23.1C118.518 24.4333 117.518 25.525 116.184 26.375C114.868 27.225 113.343 27.6833 111.609 27.75V30.45H109.459V27.75C107.743 27.6833 106.218 27.225 104.884 26.375C103.568 25.525 102.568 24.4417 101.884 23.125C101.201 21.7917 100.859 20.3417 100.859 18.775C100.859 17.2083 101.201 15.7583 101.884 14.425C102.568 13.0917 103.568 12 104.884 11.15C106.218 10.2833 107.743 9.81667 109.459 9.75V7.35H111.609V9.75C112.926 9.8 114.126 10.075 115.209 10.575C116.309 11.075 117.218 11.7333 117.934 12.55C118.651 13.3667 119.209 14.3083 119.609 15.375C120.009 16.4417 120.209 17.5583 120.209 18.725ZM111.609 25.65C112.559 25.6 113.434 25.3833 114.234 25C115.034 24.6 115.701 24.0917 116.234 23.475C116.784 22.8417 117.209 22.125 117.509 21.325C117.826 20.5083 117.984 19.65 117.984 18.75C117.984 16.9167 117.393 15.3417 116.209 14.025C115.043 12.7083 113.509 11.9917 111.609 11.875V25.65ZM103.109 18.75C103.109 20.5833 103.693 22.1667 104.859 23.5C106.043 24.8167 107.576 25.5333 109.459 25.65V11.875C107.576 11.9917 106.043 12.7167 104.859 14.05C103.693 15.3667 103.109 16.9333 103.109 18.75ZM130.614 13.7C132.631 13.7 134.289 14.3667 135.589 15.7C136.906 17.0333 137.564 18.7167 137.564 20.75C137.564 22.7667 136.906 24.45 135.589 25.8C134.289 27.1333 132.631 27.8 130.614 27.8C128.581 27.8 126.906 27.1 125.589 25.7V32.325H123.464V14H124.914L125.339 16.075C125.973 15.325 126.739 14.7417 127.639 14.325C128.556 13.9083 129.548 13.7 130.614 13.7ZM130.464 25.75C131.898 25.75 133.081 25.275 134.014 24.325C134.948 23.375 135.414 22.1833 135.414 20.75C135.414 19.3167 134.948 18.125 134.014 17.175C133.081 16.225 131.898 15.75 130.464 15.75C129.031 15.75 127.839 16.2333 126.889 17.2C125.956 18.15 125.489 19.3333 125.489 20.75C125.489 21.6833 125.698 22.5333 126.114 23.3C126.548 24.0667 127.148 24.6667 127.914 25.1C128.681 25.5333 129.531 25.75 130.464 25.75ZM152.298 14H153.998V27.5H152.223L151.998 25.45C151.365 26.2 150.59 26.7833 149.673 27.2C148.773 27.6 147.782 27.8 146.698 27.8C144.715 27.8 143.057 27.1333 141.723 25.8C140.39 24.45 139.723 22.7667 139.723 20.75C139.723 18.7333 140.39 17.0583 141.723 15.725C143.057 14.375 144.715 13.7 146.698 13.7C147.798 13.7 148.798 13.9083 149.698 14.325C150.615 14.7417 151.39 15.325 152.023 16.075L152.298 14ZM143.298 24.325C144.248 25.275 145.44 25.75 146.873 25.75C148.307 25.75 149.49 25.275 150.423 24.325C151.357 23.375 151.823 22.1833 151.823 20.75C151.823 19.3167 151.357 18.125 150.423 17.175C149.49 16.225 148.307 15.75 146.873 15.75C145.44 15.75 144.248 16.2333 143.298 17.2C142.365 18.15 141.898 19.3333 141.898 20.75C141.898 22.1667 142.365 23.3583 143.298 24.325ZM175.054 27.5H173.004L171.079 17.475L166.304 27.225H165.829L161.079 17.475L159.154 27.5H157.104L159.679 14H161.454L166.079 23.45L170.679 14H172.454L175.054 27.5ZM188.101 14H189.276V27.5H187.276V17.85L179.401 27.5H178.176V14H180.201V23.575L188.101 14ZM200.732 13.7C202.748 13.7 204.407 14.3667 205.707 15.7C207.023 17.0333 207.682 18.7167 207.682 20.75C207.682 22.7667 207.023 24.45 205.707 25.8C204.407 27.1333 202.748 27.8 200.732 27.8C198.698 27.8 197.023 27.1 195.707 25.7V32.325H193.582V14H195.032L195.457 16.075C196.09 15.325 196.857 14.7417 197.757 14.325C198.673 13.9083 199.665 13.7 200.732 13.7ZM200.582 25.75C202.015 25.75 203.198 25.275 204.132 24.325C205.065 23.375 205.532 22.1833 205.532 20.75C205.532 19.3167 205.065 18.125 204.132 17.175C203.198 16.225 202.015 15.75 200.582 15.75C199.148 15.75 197.957 16.2333 197.007 17.2C196.073 18.15 195.607 19.3333 195.607 20.75C195.607 21.6833 195.815 22.5333 196.232 23.3C196.665 24.0667 197.265 24.6667 198.032 25.1C198.798 25.5333 199.648 25.75 200.582 25.75Z" fill="black" fill-opacity="0.2"/>
<path d="M116.075 56.5H114.473L112.835 46.654L108.479 56.176H108.065L103.709 46.672L102.071 56.5H100.451L102.575 43.9H104.087L108.263 53.152L112.439 43.9H113.987L116.075 56.5ZM127.436 51.676C127.436 51.808 127.424 51.994 127.4 52.234H119.102C119.222 53.134 119.594 53.86 120.218 54.412C120.842 54.952 121.61 55.222 122.522 55.222C123.194 55.222 123.788 55.078 124.304 54.79C124.832 54.49 125.252 54.07 125.564 53.53H127.166C126.758 54.538 126.146 55.324 125.33 55.888C124.514 56.44 123.578 56.716 122.522 56.716C121.118 56.716 119.942 56.23 118.994 55.258C118.046 54.286 117.572 53.08 117.572 51.64C117.572 50.188 118.046 48.982 118.994 48.022C119.942 47.05 121.118 46.564 122.522 46.564C123.974 46.564 125.156 47.056 126.068 48.04C126.98 49.024 127.436 50.236 127.436 51.676ZM122.522 48.022C121.946 48.022 121.418 48.136 120.938 48.364C120.47 48.592 120.08 48.922 119.768 49.354C119.456 49.774 119.246 50.26 119.138 50.812H125.888C125.78 50.248 125.57 49.756 125.258 49.336C124.946 48.904 124.556 48.58 124.088 48.364C123.62 48.136 123.098 48.022 122.522 48.022ZM140.4 56.5L137.124 52.144H135.828V56.5H134.352V52.144H133.056L129.78 56.5H127.908L131.742 51.37L128.268 46.78H130.05L133.056 50.776H134.352V46.78H135.828V50.776H137.124L140.13 46.78H141.912L138.438 51.37L142.272 56.5H140.4ZM150.115 56.5L146.785 52.144H145.399V56.5H143.869V46.78H145.399V50.722H146.803L149.809 46.78H151.663L148.117 51.442L152.023 56.5H150.115ZM157.7 56.716C156.74 56.716 155.864 56.5 155.072 56.068C154.28 55.624 153.662 55.018 153.218 54.25C152.774 53.47 152.552 52.6 152.552 51.64C152.552 50.176 153.038 48.964 154.01 48.004C154.994 47.044 156.224 46.564 157.7 46.564C158.672 46.564 159.548 46.786 160.328 47.23C161.12 47.662 161.738 48.268 162.182 49.048C162.638 49.816 162.866 50.68 162.866 51.64C162.866 53.092 162.374 54.304 161.39 55.276C160.406 56.236 159.176 56.716 157.7 56.716ZM155.126 54.232C155.81 54.904 156.668 55.24 157.7 55.24C158.744 55.24 159.602 54.904 160.274 54.232C160.958 53.548 161.3 52.684 161.3 51.64C161.3 50.596 160.958 49.738 160.274 49.066C159.602 48.382 158.744 48.04 157.7 48.04C156.668 48.04 155.81 48.382 155.126 49.066C154.454 49.738 154.118 50.596 154.118 51.64C154.118 52.684 154.454 53.548 155.126 54.232ZM177.199 56.5H175.723L174.337 49.282L170.899 56.302H170.557L167.137 49.282L165.751 56.5H164.275L166.129 46.78H167.407L170.737 53.584L174.049 46.78H175.327L177.199 56.5ZM186.143 46.78H187.637V56.5H186.143V52.198H180.941V56.5H179.447V46.78H180.941V50.758H186.143V46.78ZM199.013 46.78H200.237V56.5H198.959L198.797 55.024C198.341 55.564 197.783 55.984 197.123 56.284C196.475 56.572 195.761 56.716 194.981 56.716C193.553 56.716 192.359 56.236 191.399 55.276C190.439 54.304 189.959 53.092 189.959 51.64C189.959 50.188 190.439 48.982 191.399 48.022C192.359 47.05 193.553 46.564 194.981 46.564C195.773 46.564 196.493 46.714 197.141 47.014C197.801 47.314 198.359 47.734 198.815 48.274L199.013 46.78ZM192.533 54.214C193.217 54.898 194.075 55.24 195.107 55.24C196.139 55.24 196.991 54.898 197.663 54.214C198.335 53.53 198.671 52.672 198.671 51.64C198.671 50.608 198.335 49.75 197.663 49.066C196.991 48.382 196.139 48.04 195.107 48.04C194.075 48.04 193.217 48.388 192.533 49.084C191.861 49.768 191.525 50.62 191.525 51.64C191.525 52.66 191.861 53.518 192.533 54.214ZM210.807 46.78V48.166H207.189V56.5H205.695V48.166H202.077V46.78H210.807ZM219.348 46.78H220.842V56.5H219.348V52.198H214.146V56.5H212.652V46.78H214.146V50.758H219.348V46.78ZM227.844 49.84C228.864 49.84 229.698 50.152 230.346 50.776C230.994 51.388 231.318 52.192 231.318 53.188C231.318 54.16 230.994 54.958 230.346 55.582C229.698 56.194 228.864 56.5 227.844 56.5H223.938V46.78H225.432V49.84H227.844ZM233.082 46.78H234.612V56.5H233.082V46.78ZM227.646 55.132C228.282 55.132 228.792 54.952 229.176 54.592C229.56 54.232 229.752 53.764 229.752 53.188C229.752 52.6 229.56 52.126 229.176 51.766C228.792 51.394 228.282 51.208 227.646 51.208H225.432V55.132H227.646ZM246.791 51.676C246.791 51.808 246.779 51.994 246.755 52.234H238.457C238.577 53.134 238.949 53.86 239.573 54.412C240.197 54.952 240.965 55.222 241.877 55.222C242.549 55.222 243.143 55.078 243.659 54.79C244.187 54.49 244.607 54.07 244.919 53.53H246.521C246.113 54.538 245.501 55.324 244.685 55.888C243.869 56.44 242.933 56.716 241.877 56.716C240.473 56.716 239.297 56.23 238.349 55.258C237.401 54.286 236.927 53.08 236.927 51.64C236.927 50.188 237.401 48.982 238.349 48.022C239.297 47.05 240.473 46.564 241.877 46.564C243.329 46.564 244.511 47.056 245.423 48.04C246.335 49.024 246.791 50.236 246.791 51.676ZM241.877 48.022C241.301 48.022 240.773 48.136 240.293 48.364C239.825 48.592 239.435 48.922 239.123 49.354C238.811 49.774 238.601 50.26 238.493 50.812H245.243C245.135 50.248 244.925 49.756 244.613 49.336C244.301 48.904 243.911 48.58 243.443 48.364C242.975 48.136 242.453 48.022 241.877 48.022ZM261.921 55.06H263.235V59.074H261.831V56.5H254.001V59.074H252.597V55.06H253.641C253.929 54.796 254.151 54.424 254.307 53.944C254.463 53.452 254.601 52.708 254.721 51.712C254.853 50.704 255.009 49.06 255.189 46.78H261.921V55.06ZM256.557 48.13C256.449 49.738 256.335 50.992 256.215 51.892C256.107 52.78 255.981 53.464 255.837 53.944C255.693 54.412 255.507 54.784 255.279 55.06H260.427V48.13H256.557ZM271.738 51.46C272.23 51.64 272.62 51.94 272.908 52.36C273.208 52.78 273.358 53.254 273.358 53.782C273.358 54.562 273.07 55.21 272.494 55.726C271.93 56.242 271.222 56.5 270.37 56.5H265.492V46.78H270.316C271.12 46.78 271.774 47.014 272.278 47.482C272.782 47.938 273.034 48.526 273.034 49.246C273.034 49.57 272.98 49.876 272.872 50.164C272.764 50.452 272.614 50.71 272.422 50.938C272.23 51.154 272.002 51.328 271.738 51.46ZM271.522 49.516C271.522 49.12 271.39 48.808 271.126 48.58C270.862 48.34 270.52 48.22 270.1 48.22H266.986V50.794H270.1C270.532 50.794 270.874 50.68 271.126 50.452C271.39 50.212 271.522 49.9 271.522 49.516ZM270.19 55.06C270.49 55.06 270.76 55 271 54.88C271.252 54.748 271.444 54.574 271.576 54.358C271.708 54.142 271.774 53.902 271.774 53.638C271.774 53.362 271.708 53.116 271.576 52.9C271.444 52.672 271.252 52.498 271 52.378C270.76 52.258 270.484 52.198 270.172 52.198H266.986V55.06H270.19ZM284.918 51.676C284.918 51.808 284.906 51.994 284.882 52.234H276.584C276.704 53.134 277.076 53.86 277.7 54.412C278.324 54.952 279.092 55.222 280.004 55.222C280.676 55.222 281.27 55.078 281.786 54.79C282.314 54.49 282.734 54.07 283.046 53.53H284.648C284.24 54.538 283.628 55.324 282.812 55.888C281.996 56.44 281.06 56.716 280.004 56.716C278.6 56.716 277.424 56.23 276.476 55.258C275.528 54.286 275.054 53.08 275.054 51.64C275.054 50.188 275.528 48.982 276.476 48.022C277.424 47.05 278.6 46.564 280.004 46.564C281.456 46.564 282.638 47.056 283.55 48.04C284.462 49.024 284.918 50.236 284.918 51.676ZM280.004 48.022C279.428 48.022 278.9 48.136 278.42 48.364C277.952 48.592 277.562 48.922 277.25 49.354C276.938 49.774 276.728 50.26 276.62 50.812H283.37C283.262 50.248 283.052 49.756 282.74 49.336C282.428 48.904 282.038 48.58 281.57 48.364C281.102 48.136 280.58 48.022 280.004 48.022ZM292.349 46.564C293.801 46.564 294.995 47.044 295.931 48.004C296.879 48.964 297.353 50.176 297.353 51.64C297.353 53.092 296.879 54.304 295.931 55.276C294.995 56.236 293.801 56.716 292.349 56.716C290.885 56.716 289.679 56.212 288.731 55.204V59.974H287.201V46.78H288.245L288.551 48.274C289.007 47.734 289.559 47.314 290.207 47.014C290.867 46.714 291.581 46.564 292.349 46.564ZM292.241 55.24C293.273 55.24 294.125 54.898 294.797 54.214C295.469 53.53 295.805 52.672 295.805 51.64C295.805 50.608 295.469 49.75 294.797 49.066C294.125 48.382 293.273 48.04 292.241 48.04C291.209 48.04 290.351 48.388 289.667 49.084C288.995 49.768 288.659 50.62 288.659 51.64C288.659 52.312 288.809 52.924 289.109 53.476C289.421 54.028 289.853 54.46 290.405 54.772C290.957 55.084 291.569 55.24 292.241 55.24ZM306.828 46.78H307.674V56.5H306.234V49.552L300.564 56.5H299.682V46.78H301.14V53.674L306.828 46.78Z" fill="#1C1C1C"/>
<path d="M116.075 56.5H114.473L112.835 46.654L108.479 56.176H108.065L103.709 46.672L102.071 56.5H100.451L102.575 43.9H104.087L108.263 53.152L112.439 43.9H113.987L116.075 56.5ZM127.436 51.676C127.436 51.808 127.424 51.994 127.4 52.234H119.102C119.222 53.134 119.594 53.86 120.218 54.412C120.842 54.952 121.61 55.222 122.522 55.222C123.194 55.222 123.788 55.078 124.304 54.79C124.832 54.49 125.252 54.07 125.564 53.53H127.166C126.758 54.538 126.146 55.324 125.33 55.888C124.514 56.44 123.578 56.716 122.522 56.716C121.118 56.716 119.942 56.23 118.994 55.258C118.046 54.286 117.572 53.08 117.572 51.64C117.572 50.188 118.046 48.982 118.994 48.022C119.942 47.05 121.118 46.564 122.522 46.564C123.974 46.564 125.156 47.056 126.068 48.04C126.98 49.024 127.436 50.236 127.436 51.676ZM122.522 48.022C121.946 48.022 121.418 48.136 120.938 48.364C120.47 48.592 120.08 48.922 119.768 49.354C119.456 49.774 119.246 50.26 119.138 50.812H125.888C125.78 50.248 125.57 49.756 125.258 49.336C124.946 48.904 124.556 48.58 124.088 48.364C123.62 48.136 123.098 48.022 122.522 48.022ZM140.4 56.5L137.124 52.144H135.828V56.5H134.352V52.144H133.056L129.78 56.5H127.908L131.742 51.37L128.268 46.78H130.05L133.056 50.776H134.352V46.78H135.828V50.776H137.124L140.13 46.78H141.912L138.438 51.37L142.272 56.5H140.4ZM150.115 56.5L146.785 52.144H145.399V56.5H143.869V46.78H145.399V50.722H146.803L149.809 46.78H151.663L148.117 51.442L152.023 56.5H150.115ZM157.7 56.716C156.74 56.716 155.864 56.5 155.072 56.068C154.28 55.624 153.662 55.018 153.218 54.25C152.774 53.47 152.552 52.6 152.552 51.64C152.552 50.176 153.038 48.964 154.01 48.004C154.994 47.044 156.224 46.564 157.7 46.564C158.672 46.564 159.548 46.786 160.328 47.23C161.12 47.662 161.738 48.268 162.182 49.048C162.638 49.816 162.866 50.68 162.866 51.64C162.866 53.092 162.374 54.304 161.39 55.276C160.406 56.236 159.176 56.716 157.7 56.716ZM155.126 54.232C155.81 54.904 156.668 55.24 157.7 55.24C158.744 55.24 159.602 54.904 160.274 54.232C160.958 53.548 161.3 52.684 161.3 51.64C161.3 50.596 160.958 49.738 160.274 49.066C159.602 48.382 158.744 48.04 157.7 48.04C156.668 48.04 155.81 48.382 155.126 49.066C154.454 49.738 154.118 50.596 154.118 51.64C154.118 52.684 154.454 53.548 155.126 54.232ZM177.199 56.5H175.723L174.337 49.282L170.899 56.302H170.557L167.137 49.282L165.751 56.5H164.275L166.129 46.78H167.407L170.737 53.584L174.049 46.78H175.327L177.199 56.5ZM186.143 46.78H187.637V56.5H186.143V52.198H180.941V56.5H179.447V46.78H180.941V50.758H186.143V46.78ZM199.013 46.78H200.237V56.5H198.959L198.797 55.024C198.341 55.564 197.783 55.984 197.123 56.284C196.475 56.572 195.761 56.716 194.981 56.716C193.553 56.716 192.359 56.236 191.399 55.276C190.439 54.304 189.959 53.092 189.959 51.64C189.959 50.188 190.439 48.982 191.399 48.022C192.359 47.05 193.553 46.564 194.981 46.564C195.773 46.564 196.493 46.714 197.141 47.014C197.801 47.314 198.359 47.734 198.815 48.274L199.013 46.78ZM192.533 54.214C193.217 54.898 194.075 55.24 195.107 55.24C196.139 55.24 196.991 54.898 197.663 54.214C198.335 53.53 198.671 52.672 198.671 51.64C198.671 50.608 198.335 49.75 197.663 49.066C196.991 48.382 196.139 48.04 195.107 48.04C194.075 48.04 193.217 48.388 192.533 49.084C191.861 49.768 191.525 50.62 191.525 51.64C191.525 52.66 191.861 53.518 192.533 54.214ZM210.807 46.78V48.166H207.189V56.5H205.695V48.166H202.077V46.78H210.807ZM219.348 46.78H220.842V56.5H219.348V52.198H214.146V56.5H212.652V46.78H214.146V50.758H219.348V46.78ZM227.844 49.84C228.864 49.84 229.698 50.152 230.346 50.776C230.994 51.388 231.318 52.192 231.318 53.188C231.318 54.16 230.994 54.958 230.346 55.582C229.698 56.194 228.864 56.5 227.844 56.5H223.938V46.78H225.432V49.84H227.844ZM233.082 46.78H234.612V56.5H233.082V46.78ZM227.646 55.132C228.282 55.132 228.792 54.952 229.176 54.592C229.56 54.232 229.752 53.764 229.752 53.188C229.752 52.6 229.56 52.126 229.176 51.766C228.792 51.394 228.282 51.208 227.646 51.208H225.432V55.132H227.646ZM246.791 51.676C246.791 51.808 246.779 51.994 246.755 52.234H238.457C238.577 53.134 238.949 53.86 239.573 54.412C240.197 54.952 240.965 55.222 241.877 55.222C242.549 55.222 243.143 55.078 243.659 54.79C244.187 54.49 244.607 54.07 244.919 53.53H246.521C246.113 54.538 245.501 55.324 244.685 55.888C243.869 56.44 242.933 56.716 241.877 56.716C240.473 56.716 239.297 56.23 238.349 55.258C237.401 54.286 236.927 53.08 236.927 51.64C236.927 50.188 237.401 48.982 238.349 48.022C239.297 47.05 240.473 46.564 241.877 46.564C243.329 46.564 244.511 47.056 245.423 48.04C246.335 49.024 246.791 50.236 246.791 51.676ZM241.877 48.022C241.301 48.022 240.773 48.136 240.293 48.364C239.825 48.592 239.435 48.922 239.123 49.354C238.811 49.774 238.601 50.26 238.493 50.812H245.243C245.135 50.248 244.925 49.756 244.613 49.336C244.301 48.904 243.911 48.58 243.443 48.364C242.975 48.136 242.453 48.022 241.877 48.022ZM261.921 55.06H263.235V59.074H261.831V56.5H254.001V59.074H252.597V55.06H253.641C253.929 54.796 254.151 54.424 254.307 53.944C254.463 53.452 254.601 52.708 254.721 51.712C254.853 50.704 255.009 49.06 255.189 46.78H261.921V55.06ZM256.557 48.13C256.449 49.738 256.335 50.992 256.215 51.892C256.107 52.78 255.981 53.464 255.837 53.944C255.693 54.412 255.507 54.784 255.279 55.06H260.427V48.13H256.557ZM271.738 51.46C272.23 51.64 272.62 51.94 272.908 52.36C273.208 52.78 273.358 53.254 273.358 53.782C273.358 54.562 273.07 55.21 272.494 55.726C271.93 56.242 271.222 56.5 270.37 56.5H265.492V46.78H270.316C271.12 46.78 271.774 47.014 272.278 47.482C272.782 47.938 273.034 48.526 273.034 49.246C273.034 49.57 272.98 49.876 272.872 50.164C272.764 50.452 272.614 50.71 272.422 50.938C272.23 51.154 272.002 51.328 271.738 51.46ZM271.522 49.516C271.522 49.12 271.39 48.808 271.126 48.58C270.862 48.34 270.52 48.22 270.1 48.22H266.986V50.794H270.1C270.532 50.794 270.874 50.68 271.126 50.452C271.39 50.212 271.522 49.9 271.522 49.516ZM270.19 55.06C270.49 55.06 270.76 55 271 54.88C271.252 54.748 271.444 54.574 271.576 54.358C271.708 54.142 271.774 53.902 271.774 53.638C271.774 53.362 271.708 53.116 271.576 52.9C271.444 52.672 271.252 52.498 271 52.378C270.76 52.258 270.484 52.198 270.172 52.198H266.986V55.06H270.19ZM284.918 51.676C284.918 51.808 284.906 51.994 284.882 52.234H276.584C276.704 53.134 277.076 53.86 277.7 54.412C278.324 54.952 279.092 55.222 280.004 55.222C280.676 55.222 281.27 55.078 281.786 54.79C282.314 54.49 282.734 54.07 283.046 53.53H284.648C284.24 54.538 283.628 55.324 282.812 55.888C281.996 56.44 281.06 56.716 280.004 56.716C278.6 56.716 277.424 56.23 276.476 55.258C275.528 54.286 275.054 53.08 275.054 51.64C275.054 50.188 275.528 48.982 276.476 48.022C277.424 47.05 278.6 46.564 280.004 46.564C281.456 46.564 282.638 47.056 283.55 48.04C284.462 49.024 284.918 50.236 284.918 51.676ZM280.004 48.022C279.428 48.022 278.9 48.136 278.42 48.364C277.952 48.592 277.562 48.922 277.25 49.354C276.938 49.774 276.728 50.26 276.62 50.812H283.37C283.262 50.248 283.052 49.756 282.74 49.336C282.428 48.904 282.038 48.58 281.57 48.364C281.102 48.136 280.58 48.022 280.004 48.022ZM292.349 46.564C293.801 46.564 294.995 47.044 295.931 48.004C296.879 48.964 297.353 50.176 297.353 51.64C297.353 53.092 296.879 54.304 295.931 55.276C294.995 56.236 293.801 56.716 292.349 56.716C290.885 56.716 289.679 56.212 288.731 55.204V59.974H287.201V46.78H288.245L288.551 48.274C289.007 47.734 289.559 47.314 290.207 47.014C290.867 46.714 291.581 46.564 292.349 46.564ZM292.241 55.24C293.273 55.24 294.125 54.898 294.797 54.214C295.469 53.53 295.805 52.672 295.805 51.64C295.805 50.608 295.469 49.75 294.797 49.066C294.125 48.382 293.273 48.04 292.241 48.04C291.209 48.04 290.351 48.388 289.667 49.084C288.995 49.768 288.659 50.62 288.659 51.64C288.659 52.312 288.809 52.924 289.109 53.476C289.421 54.028 289.853 54.46 290.405 54.772C290.957 55.084 291.569 55.24 292.241 55.24ZM306.828 46.78H307.674V56.5H306.234V49.552L300.564 56.5H299.682V46.78H301.14V53.674L306.828 46.78Z" fill="black" fill-opacity="0.2"/>
<path d="M116.075 56.5H114.473L112.835 46.654L108.479 56.176H108.065L103.709 46.672L102.071 56.5H100.451L102.575 43.9H104.087L108.263 53.152L112.439 43.9H113.987L116.075 56.5ZM127.436 51.676C127.436 51.808 127.424 51.994 127.4 52.234H119.102C119.222 53.134 119.594 53.86 120.218 54.412C120.842 54.952 121.61 55.222 122.522 55.222C123.194 55.222 123.788 55.078 124.304 54.79C124.832 54.49 125.252 54.07 125.564 53.53H127.166C126.758 54.538 126.146 55.324 125.33 55.888C124.514 56.44 123.578 56.716 122.522 56.716C121.118 56.716 119.942 56.23 118.994 55.258C118.046 54.286 117.572 53.08 117.572 51.64C117.572 50.188 118.046 48.982 118.994 48.022C119.942 47.05 121.118 46.564 122.522 46.564C123.974 46.564 125.156 47.056 126.068 48.04C126.98 49.024 127.436 50.236 127.436 51.676ZM122.522 48.022C121.946 48.022 121.418 48.136 120.938 48.364C120.47 48.592 120.08 48.922 119.768 49.354C119.456 49.774 119.246 50.26 119.138 50.812H125.888C125.78 50.248 125.57 49.756 125.258 49.336C124.946 48.904 124.556 48.58 124.088 48.364C123.62 48.136 123.098 48.022 122.522 48.022ZM140.4 56.5L137.124 52.144H135.828V56.5H134.352V52.144H133.056L129.78 56.5H127.908L131.742 51.37L128.268 46.78H130.05L133.056 50.776H134.352V46.78H135.828V50.776H137.124L140.13 46.78H141.912L138.438 51.37L142.272 56.5H140.4ZM150.115 56.5L146.785 52.144H145.399V56.5H143.869V46.78H145.399V50.722H146.803L149.809 46.78H151.663L148.117 51.442L152.023 56.5H150.115ZM157.7 56.716C156.74 56.716 155.864 56.5 155.072 56.068C154.28 55.624 153.662 55.018 153.218 54.25C152.774 53.47 152.552 52.6 152.552 51.64C152.552 50.176 153.038 48.964 154.01 48.004C154.994 47.044 156.224 46.564 157.7 46.564C158.672 46.564 159.548 46.786 160.328 47.23C161.12 47.662 161.738 48.268 162.182 49.048C162.638 49.816 162.866 50.68 162.866 51.64C162.866 53.092 162.374 54.304 161.39 55.276C160.406 56.236 159.176 56.716 157.7 56.716ZM155.126 54.232C155.81 54.904 156.668 55.24 157.7 55.24C158.744 55.24 159.602 54.904 160.274 54.232C160.958 53.548 161.3 52.684 161.3 51.64C161.3 50.596 160.958 49.738 160.274 49.066C159.602 48.382 158.744 48.04 157.7 48.04C156.668 48.04 155.81 48.382 155.126 49.066C154.454 49.738 154.118 50.596 154.118 51.64C154.118 52.684 154.454 53.548 155.126 54.232ZM177.199 56.5H175.723L174.337 49.282L170.899 56.302H170.557L167.137 49.282L165.751 56.5H164.275L166.129 46.78H167.407L170.737 53.584L174.049 46.78H175.327L177.199 56.5ZM186.143 46.78H187.637V56.5H186.143V52.198H180.941V56.5H179.447V46.78H180.941V50.758H186.143V46.78ZM199.013 46.78H200.237V56.5H198.959L198.797 55.024C198.341 55.564 197.783 55.984 197.123 56.284C196.475 56.572 195.761 56.716 194.981 56.716C193.553 56.716 192.359 56.236 191.399 55.276C190.439 54.304 189.959 53.092 189.959 51.64C189.959 50.188 190.439 48.982 191.399 48.022C192.359 47.05 193.553 46.564 194.981 46.564C195.773 46.564 196.493 46.714 197.141 47.014C197.801 47.314 198.359 47.734 198.815 48.274L199.013 46.78ZM192.533 54.214C193.217 54.898 194.075 55.24 195.107 55.24C196.139 55.24 196.991 54.898 197.663 54.214C198.335 53.53 198.671 52.672 198.671 51.64C198.671 50.608 198.335 49.75 197.663 49.066C196.991 48.382 196.139 48.04 195.107 48.04C194.075 48.04 193.217 48.388 192.533 49.084C191.861 49.768 191.525 50.62 191.525 51.64C191.525 52.66 191.861 53.518 192.533 54.214ZM210.807 46.78V48.166H207.189V56.5H205.695V48.166H202.077V46.78H210.807ZM219.348 46.78H220.842V56.5H219.348V52.198H214.146V56.5H212.652V46.78H214.146V50.758H219.348V46.78ZM227.844 49.84C228.864 49.84 229.698 50.152 230.346 50.776C230.994 51.388 231.318 52.192 231.318 53.188C231.318 54.16 230.994 54.958 230.346 55.582C229.698 56.194 228.864 56.5 227.844 56.5H223.938V46.78H225.432V49.84H227.844ZM233.082 46.78H234.612V56.5H233.082V46.78ZM227.646 55.132C228.282 55.132 228.792 54.952 229.176 54.592C229.56 54.232 229.752 53.764 229.752 53.188C229.752 52.6 229.56 52.126 229.176 51.766C228.792 51.394 228.282 51.208 227.646 51.208H225.432V55.132H227.646ZM246.791 51.676C246.791 51.808 246.779 51.994 246.755 52.234H238.457C238.577 53.134 238.949 53.86 239.573 54.412C240.197 54.952 240.965 55.222 241.877 55.222C242.549 55.222 243.143 55.078 243.659 54.79C244.187 54.49 244.607 54.07 244.919 53.53H246.521C246.113 54.538 245.501 55.324 244.685 55.888C243.869 56.44 242.933 56.716 241.877 56.716C240.473 56.716 239.297 56.23 238.349 55.258C237.401 54.286 236.927 53.08 236.927 51.64C236.927 50.188 237.401 48.982 238.349 48.022C239.297 47.05 240.473 46.564 241.877 46.564C243.329 46.564 244.511 47.056 245.423 48.04C246.335 49.024 246.791 50.236 246.791 51.676ZM241.877 48.022C241.301 48.022 240.773 48.136 240.293 48.364C239.825 48.592 239.435 48.922 239.123 49.354C238.811 49.774 238.601 50.26 238.493 50.812H245.243C245.135 50.248 244.925 49.756 244.613 49.336C244.301 48.904 243.911 48.58 243.443 48.364C242.975 48.136 242.453 48.022 241.877 48.022ZM261.921 55.06H263.235V59.074H261.831V56.5H254.001V59.074H252.597V55.06H253.641C253.929 54.796 254.151 54.424 254.307 53.944C254.463 53.452 254.601 52.708 254.721 51.712C254.853 50.704 255.009 49.06 255.189 46.78H261.921V55.06ZM256.557 48.13C256.449 49.738 256.335 50.992 256.215 51.892C256.107 52.78 255.981 53.464 255.837 53.944C255.693 54.412 255.507 54.784 255.279 55.06H260.427V48.13H256.557ZM271.738 51.46C272.23 51.64 272.62 51.94 272.908 52.36C273.208 52.78 273.358 53.254 273.358 53.782C273.358 54.562 273.07 55.21 272.494 55.726C271.93 56.242 271.222 56.5 270.37 56.5H265.492V46.78H270.316C271.12 46.78 271.774 47.014 272.278 47.482C272.782 47.938 273.034 48.526 273.034 49.246C273.034 49.57 272.98 49.876 272.872 50.164C272.764 50.452 272.614 50.71 272.422 50.938C272.23 51.154 272.002 51.328 271.738 51.46ZM271.522 49.516C271.522 49.12 271.39 48.808 271.126 48.58C270.862 48.34 270.52 48.22 270.1 48.22H266.986V50.794H270.1C270.532 50.794 270.874 50.68 271.126 50.452C271.39 50.212 271.522 49.9 271.522 49.516ZM270.19 55.06C270.49 55.06 270.76 55 271 54.88C271.252 54.748 271.444 54.574 271.576 54.358C271.708 54.142 271.774 53.902 271.774 53.638C271.774 53.362 271.708 53.116 271.576 52.9C271.444 52.672 271.252 52.498 271 52.378C270.76 52.258 270.484 52.198 270.172 52.198H266.986V55.06H270.19ZM284.918 51.676C284.918 51.808 284.906 51.994 284.882 52.234H276.584C276.704 53.134 277.076 53.86 277.7 54.412C278.324 54.952 279.092 55.222 280.004 55.222C280.676 55.222 281.27 55.078 281.786 54.79C282.314 54.49 282.734 54.07 283.046 53.53H284.648C284.24 54.538 283.628 55.324 282.812 55.888C281.996 56.44 281.06 56.716 280.004 56.716C278.6 56.716 277.424 56.23 276.476 55.258C275.528 54.286 275.054 53.08 275.054 51.64C275.054 50.188 275.528 48.982 276.476 48.022C277.424 47.05 278.6 46.564 280.004 46.564C281.456 46.564 282.638 47.056 283.55 48.04C284.462 49.024 284.918 50.236 284.918 51.676ZM280.004 48.022C279.428 48.022 278.9 48.136 278.42 48.364C277.952 48.592 277.562 48.922 277.25 49.354C276.938 49.774 276.728 50.26 276.62 50.812H283.37C283.262 50.248 283.052 49.756 282.74 49.336C282.428 48.904 282.038 48.58 281.57 48.364C281.102 48.136 280.58 48.022 280.004 48.022ZM292.349 46.564C293.801 46.564 294.995 47.044 295.931 48.004C296.879 48.964 297.353 50.176 297.353 51.64C297.353 53.092 296.879 54.304 295.931 55.276C294.995 56.236 293.801 56.716 292.349 56.716C290.885 56.716 289.679 56.212 288.731 55.204V59.974H287.201V46.78H288.245L288.551 48.274C289.007 47.734 289.559 47.314 290.207 47.014C290.867 46.714 291.581 46.564 292.349 46.564ZM292.241 55.24C293.273 55.24 294.125 54.898 294.797 54.214C295.469 53.53 295.805 52.672 295.805 51.64C295.805 50.608 295.469 49.75 294.797 49.066C294.125 48.382 293.273 48.04 292.241 48.04C291.209 48.04 290.351 48.388 289.667 49.084C288.995 49.768 288.659 50.62 288.659 51.64C288.659 52.312 288.809 52.924 289.109 53.476C289.421 54.028 289.853 54.46 290.405 54.772C290.957 55.084 291.569 55.24 292.241 55.24ZM306.828 46.78H307.674V56.5H306.234V49.552L300.564 56.5H299.682V46.78H301.14V53.674L306.828 46.78Z" fill="black" fill-opacity="0.2"/>
<path d="M116.075 56.5H114.473L112.835 46.654L108.479 56.176H108.065L103.709 46.672L102.071 56.5H100.451L102.575 43.9H104.087L108.263 53.152L112.439 43.9H113.987L116.075 56.5ZM127.436 51.676C127.436 51.808 127.424 51.994 127.4 52.234H119.102C119.222 53.134 119.594 53.86 120.218 54.412C120.842 54.952 121.61 55.222 122.522 55.222C123.194 55.222 123.788 55.078 124.304 54.79C124.832 54.49 125.252 54.07 125.564 53.53H127.166C126.758 54.538 126.146 55.324 125.33 55.888C124.514 56.44 123.578 56.716 122.522 56.716C121.118 56.716 119.942 56.23 118.994 55.258C118.046 54.286 117.572 53.08 117.572 51.64C117.572 50.188 118.046 48.982 118.994 48.022C119.942 47.05 121.118 46.564 122.522 46.564C123.974 46.564 125.156 47.056 126.068 48.04C126.98 49.024 127.436 50.236 127.436 51.676ZM122.522 48.022C121.946 48.022 121.418 48.136 120.938 48.364C120.47 48.592 120.08 48.922 119.768 49.354C119.456 49.774 119.246 50.26 119.138 50.812H125.888C125.78 50.248 125.57 49.756 125.258 49.336C124.946 48.904 124.556 48.58 124.088 48.364C123.62 48.136 123.098 48.022 122.522 48.022ZM140.4 56.5L137.124 52.144H135.828V56.5H134.352V52.144H133.056L129.78 56.5H127.908L131.742 51.37L128.268 46.78H130.05L133.056 50.776H134.352V46.78H135.828V50.776H137.124L140.13 46.78H141.912L138.438 51.37L142.272 56.5H140.4ZM150.115 56.5L146.785 52.144H145.399V56.5H143.869V46.78H145.399V50.722H146.803L149.809 46.78H151.663L148.117 51.442L152.023 56.5H150.115ZM157.7 56.716C156.74 56.716 155.864 56.5 155.072 56.068C154.28 55.624 153.662 55.018 153.218 54.25C152.774 53.47 152.552 52.6 152.552 51.64C152.552 50.176 153.038 48.964 154.01 48.004C154.994 47.044 156.224 46.564 157.7 46.564C158.672 46.564 159.548 46.786 160.328 47.23C161.12 47.662 161.738 48.268 162.182 49.048C162.638 49.816 162.866 50.68 162.866 51.64C162.866 53.092 162.374 54.304 161.39 55.276C160.406 56.236 159.176 56.716 157.7 56.716ZM155.126 54.232C155.81 54.904 156.668 55.24 157.7 55.24C158.744 55.24 159.602 54.904 160.274 54.232C160.958 53.548 161.3 52.684 161.3 51.64C161.3 50.596 160.958 49.738 160.274 49.066C159.602 48.382 158.744 48.04 157.7 48.04C156.668 48.04 155.81 48.382 155.126 49.066C154.454 49.738 154.118 50.596 154.118 51.64C154.118 52.684 154.454 53.548 155.126 54.232ZM177.199 56.5H175.723L174.337 49.282L170.899 56.302H170.557L167.137 49.282L165.751 56.5H164.275L166.129 46.78H167.407L170.737 53.584L174.049 46.78H175.327L177.199 56.5ZM186.143 46.78H187.637V56.5H186.143V52.198H180.941V56.5H179.447V46.78H180.941V50.758H186.143V46.78ZM199.013 46.78H200.237V56.5H198.959L198.797 55.024C198.341 55.564 197.783 55.984 197.123 56.284C196.475 56.572 195.761 56.716 194.981 56.716C193.553 56.716 192.359 56.236 191.399 55.276C190.439 54.304 189.959 53.092 189.959 51.64C189.959 50.188 190.439 48.982 191.399 48.022C192.359 47.05 193.553 46.564 194.981 46.564C195.773 46.564 196.493 46.714 197.141 47.014C197.801 47.314 198.359 47.734 198.815 48.274L199.013 46.78ZM192.533 54.214C193.217 54.898 194.075 55.24 195.107 55.24C196.139 55.24 196.991 54.898 197.663 54.214C198.335 53.53 198.671 52.672 198.671 51.64C198.671 50.608 198.335 49.75 197.663 49.066C196.991 48.382 196.139 48.04 195.107 48.04C194.075 48.04 193.217 48.388 192.533 49.084C191.861 49.768 191.525 50.62 191.525 51.64C191.525 52.66 191.861 53.518 192.533 54.214ZM210.807 46.78V48.166H207.189V56.5H205.695V48.166H202.077V46.78H210.807ZM219.348 46.78H220.842V56.5H219.348V52.198H214.146V56.5H212.652V46.78H214.146V50.758H219.348V46.78ZM227.844 49.84C228.864 49.84 229.698 50.152 230.346 50.776C230.994 51.388 231.318 52.192 231.318 53.188C231.318 54.16 230.994 54.958 230.346 55.582C229.698 56.194 228.864 56.5 227.844 56.5H223.938V46.78H225.432V49.84H227.844ZM233.082 46.78H234.612V56.5H233.082V46.78ZM227.646 55.132C228.282 55.132 228.792 54.952 229.176 54.592C229.56 54.232 229.752 53.764 229.752 53.188C229.752 52.6 229.56 52.126 229.176 51.766C228.792 51.394 228.282 51.208 227.646 51.208H225.432V55.132H227.646ZM246.791 51.676C246.791 51.808 246.779 51.994 246.755 52.234H238.457C238.577 53.134 238.949 53.86 239.573 54.412C240.197 54.952 240.965 55.222 241.877 55.222C242.549 55.222 243.143 55.078 243.659 54.79C244.187 54.49 244.607 54.07 244.919 53.53H246.521C246.113 54.538 245.501 55.324 244.685 55.888C243.869 56.44 242.933 56.716 241.877 56.716C240.473 56.716 239.297 56.23 238.349 55.258C237.401 54.286 236.927 53.08 236.927 51.64C236.927 50.188 237.401 48.982 238.349 48.022C239.297 47.05 240.473 46.564 241.877 46.564C243.329 46.564 244.511 47.056 245.423 48.04C246.335 49.024 246.791 50.236 246.791 51.676ZM241.877 48.022C241.301 48.022 240.773 48.136 240.293 48.364C239.825 48.592 239.435 48.922 239.123 49.354C238.811 49.774 238.601 50.26 238.493 50.812H245.243C245.135 50.248 244.925 49.756 244.613 49.336C244.301 48.904 243.911 48.58 243.443 48.364C242.975 48.136 242.453 48.022 241.877 48.022ZM261.921 55.06H263.235V59.074H261.831V56.5H254.001V59.074H252.597V55.06H253.641C253.929 54.796 254.151 54.424 254.307 53.944C254.463 53.452 254.601 52.708 254.721 51.712C254.853 50.704 255.009 49.06 255.189 46.78H261.921V55.06ZM256.557 48.13C256.449 49.738 256.335 50.992 256.215 51.892C256.107 52.78 255.981 53.464 255.837 53.944C255.693 54.412 255.507 54.784 255.279 55.06H260.427V48.13H256.557ZM271.738 51.46C272.23 51.64 272.62 51.94 272.908 52.36C273.208 52.78 273.358 53.254 273.358 53.782C273.358 54.562 273.07 55.21 272.494 55.726C271.93 56.242 271.222 56.5 270.37 56.5H265.492V46.78H270.316C271.12 46.78 271.774 47.014 272.278 47.482C272.782 47.938 273.034 48.526 273.034 49.246C273.034 49.57 272.98 49.876 272.872 50.164C272.764 50.452 272.614 50.71 272.422 50.938C272.23 51.154 272.002 51.328 271.738 51.46ZM271.522 49.516C271.522 49.12 271.39 48.808 271.126 48.58C270.862 48.34 270.52 48.22 270.1 48.22H266.986V50.794H270.1C270.532 50.794 270.874 50.68 271.126 50.452C271.39 50.212 271.522 49.9 271.522 49.516ZM270.19 55.06C270.49 55.06 270.76 55 271 54.88C271.252 54.748 271.444 54.574 271.576 54.358C271.708 54.142 271.774 53.902 271.774 53.638C271.774 53.362 271.708 53.116 271.576 52.9C271.444 52.672 271.252 52.498 271 52.378C270.76 52.258 270.484 52.198 270.172 52.198H266.986V55.06H270.19ZM284.918 51.676C284.918 51.808 284.906 51.994 284.882 52.234H276.584C276.704 53.134 277.076 53.86 277.7 54.412C278.324 54.952 279.092 55.222 280.004 55.222C280.676 55.222 281.27 55.078 281.786 54.79C282.314 54.49 282.734 54.07 283.046 53.53H284.648C284.24 54.538 283.628 55.324 282.812 55.888C281.996 56.44 281.06 56.716 280.004 56.716C278.6 56.716 277.424 56.23 276.476 55.258C275.528 54.286 275.054 53.08 275.054 51.64C275.054 50.188 275.528 48.982 276.476 48.022C277.424 47.05 278.6 46.564 280.004 46.564C281.456 46.564 282.638 47.056 283.55 48.04C284.462 49.024 284.918 50.236 284.918 51.676ZM280.004 48.022C279.428 48.022 278.9 48.136 278.42 48.364C277.952 48.592 277.562 48.922 277.25 49.354C276.938 49.774 276.728 50.26 276.62 50.812H283.37C283.262 50.248 283.052 49.756 282.74 49.336C282.428 48.904 282.038 48.58 281.57 48.364C281.102 48.136 280.58 48.022 280.004 48.022ZM292.349 46.564C293.801 46.564 294.995 47.044 295.931 48.004C296.879 48.964 297.353 50.176 297.353 51.64C297.353 53.092 296.879 54.304 295.931 55.276C294.995 56.236 293.801 56.716 292.349 56.716C290.885 56.716 289.679 56.212 288.731 55.204V59.974H287.201V46.78H288.245L288.551 48.274C289.007 47.734 289.559 47.314 290.207 47.014C290.867 46.714 291.581 46.564 292.349 46.564ZM292.241 55.24C293.273 55.24 294.125 54.898 294.797 54.214C295.469 53.53 295.805 52.672 295.805 51.64C295.805 50.608 295.469 49.75 294.797 49.066C294.125 48.382 293.273 48.04 292.241 48.04C291.209 48.04 290.351 48.388 289.667 49.084C288.995 49.768 288.659 50.62 288.659 51.64C288.659 52.312 288.809 52.924 289.109 53.476C289.421 54.028 289.853 54.46 290.405 54.772C290.957 55.084 291.569 55.24 292.241 55.24ZM306.828 46.78H307.674V56.5H306.234V49.552L300.564 56.5H299.682V46.78H301.14V53.674L306.828 46.78Z" fill="black" fill-opacity="0.2"/>
<defs>
<clipPath id="clip0_1718_10615">
<rect width="75.6595" height="66" fill="white"/>
</clipPath>
</defs>
</svg>
