<svg width="76" height="66" viewBox="0 0 76 66" fill="none" xmlns="http://www.w3.org/2000/svg">
<g clip-path="url(#clip0_1718_4353)">
<path d="M37.6403 56.975C51.7418 56.975 63.1732 45.592 63.1732 31.5502C63.1732 17.5086 51.7418 6.12555 37.6403 6.12555C23.5388 6.12555 12.1074 17.5086 12.1074 31.5502C12.1074 45.592 23.5388 56.975 37.6403 56.975Z" fill="#E8F5E1"/>
<path fill-rule="evenodd" clip-rule="evenodd" d="M16.5271 45.7317C16.2631 45.2359 16.0283 44.7245 15.8238 44.2005C15.7334 43.9845 15.6496 43.762 15.5786 43.546L15.4947 43.2908C15.4302 43.0945 15.3721 42.9046 15.3205 42.7082C14.4059 39.4115 14.6378 35.896 15.9773 32.7522C17.3169 29.6084 19.6824 27.0281 22.6765 25.4444C24.2401 24.6022 25.9368 24.044 27.6902 23.7953C29.6259 29.6851 26.2512 36.9363 19.4631 41.4648C20.1518 41.1814 20.8259 40.8623 21.4827 40.5093C28.2193 36.8905 32.2069 30.3526 32.3552 23.8607C32.3788 23.1245 32.3508 22.3874 32.2715 21.6552C28.9426 21.2138 25.5607 21.8313 22.5925 23.4222C19.251 25.182 16.6511 28.1098 15.2738 31.6639C13.8966 35.218 13.8352 39.1577 15.1011 42.7541C15.1656 42.9374 15.2366 43.1205 15.314 43.3038C15.3527 43.4085 15.3979 43.5198 15.4431 43.6245C15.5334 43.834 15.6238 44.05 15.727 44.2789C15.8303 44.5081 15.9658 44.7699 16.0948 45.0118C16.2239 45.254 16.3787 45.5094 16.5271 45.7317Z" fill="#5BC029"/>
<path fill-rule="evenodd" clip-rule="evenodd" d="M10.9754 45.7449C10.6829 45.6795 10.3926 45.6272 10.1044 45.588C9.98035 45.5684 9.85543 45.5552 9.73009 45.5486H9.57524H9.25261C7.45126 45.495 5.68493 46.0605 4.24059 47.1536C2.79622 48.2466 1.75869 49.8027 1.29657 51.5695C1.06653 52.4791 1.00095 53.4238 1.10299 54.3572C4.38735 54.5798 7.70398 51.8901 9.14936 47.8129C9.09129 48.1992 9.01386 48.5919 8.91708 48.9779C8.50031 50.7928 7.62036 52.4646 6.36553 53.8257C5.11068 55.1868 3.52504 56.1894 1.76761 56.7328C1.38858 56.8406 1.00265 56.9215 0.612593 56.975C0.251469 56.0797 0.0462442 55.1276 0.00605012 54.1609C-0.0244262 53.363 0.0603551 52.5649 0.257701 51.7919C0.768555 49.8122 1.95883 48.082 3.61464 46.9126C5.27045 45.7429 7.28325 45.2105 9.29132 45.4113L9.60752 45.4439H9.78819L10.1495 45.5027C10.2979 45.5027 10.4399 45.5618 10.5818 45.601C10.7238 45.6402 10.8399 45.7057 10.9754 45.7449Z" fill="#5BC029"/>
<path d="M59.8468 57.6163L60.1758 57.4526C37.1981 68.7481 25.0285 60.5611 18.2856 49.115C9.36169 34.0305 12.9106 14.4629 27.9387 5.66738C42.9668 -3.1282 61.9891 1.34157 70.7063 15.5231L70.358 14.9538C61.034 -0.0654571 40.4696 -4.4109 24.0091 5.24198C7.96794 14.6266 2.64456 34.986 12.9106 51.0916C18.0727 59.1804 27.7063 64.8346 38.7211 64.8346C45.4962 64.8346 52.7877 62.6749 59.8468 57.5901" fill="#5BC029"/>
<path d="M70.2186 14.476C67.2474 10.3798 63.4594 6.96379 59.101 4.45006C56.3919 3.01479 53.4894 1.99162 50.4867 1.41348C48.0992 0.955384 46.2925 0.634704 45.8602 0.588903C42.0549 0.162616 38.208 0.32813 34.4519 1.07973L30.8321 3.56658L27.1992 6.11887L27.9671 5.6673C28.7747 5.25222 29.6166 4.91058 30.4837 4.64637C31.4655 4.32248 32.4679 4.06667 33.4841 3.88069C35.1488 3.57966 36.4006 3.46841 36.7104 3.44223C37.5944 3.38987 38.2783 3.39642 38.4913 3.39642C39.227 3.39642 39.7819 3.45532 40.6658 3.52731C41.2595 3.57312 41.6078 3.60584 42.1111 3.67129C42.3305 3.67129 42.9178 3.78254 43.6791 3.93305C44.0792 4.01158 44.4148 4.09011 44.673 4.14901C45.2989 4.2978 45.9171 4.4791 46.5247 4.69219C47.2861 4.96051 48.1186 5.30083 49.0091 5.71311C49.8996 6.12541 50.8416 6.60314 51.8031 7.16594C52.7645 7.72877 53.7388 8.35048 54.7454 9.05726C55.7534 9.77669 56.7248 10.5477 57.6556 11.3674C58.6164 12.2089 59.532 13.1024 60.3977 14.044C61.254 14.9826 62.0616 15.9656 62.8176 16.989C63.1725 17.5125 63.5467 18.0034 63.8694 18.5334L64.3661 19.3318C64.5145 19.6002 64.6695 19.8554 64.8179 20.1172C65.3823 21.109 65.8929 22.1315 66.347 23.1799C66.5536 23.6839 66.7472 24.1746 66.9407 24.6459L67.4247 26.0399C67.5536 26.4978 67.6828 26.9299 67.8054 27.3486C67.928 27.7675 67.999 28.1667 68.0958 28.5332C68.1926 28.8996 68.2572 29.2597 68.3151 29.5867C68.3731 29.9139 68.4313 30.2411 68.4829 30.4769C68.6377 31.5633 68.7153 32.1783 68.7153 32.1783C68.7153 32.1783 68.5861 31.5697 68.3473 30.5029C68.2829 30.2411 68.1989 29.9467 68.1152 29.6261C68.0312 29.3053 67.941 28.9717 67.8182 28.6116C67.6956 28.2518 67.586 27.8591 67.4441 27.4598C67.3021 27.0608 67.1343 26.6485 66.9665 26.21C66.7988 25.7715 66.5924 25.3396 66.3922 24.9011L65.7083 23.5071C65.1841 22.5259 64.6091 21.5733 63.9854 20.6538L63.4951 19.9274L62.966 19.2206C62.5982 18.6774 62.2175 18.2324 61.8367 17.7612C61.0411 16.8427 60.1967 15.9688 59.3073 15.1435C58.4177 14.3059 57.4829 13.5194 56.5069 12.7875C55.5622 12.0792 54.5798 11.4238 53.5646 10.8242C52.5901 10.2287 51.6287 9.71169 50.6802 9.26014C49.7318 8.80857 48.8283 8.43556 47.9894 8.11487C47.1506 7.79419 46.3571 7.55207 45.6602 7.36228C45.0987 7.20521 44.602 7.09395 44.1696 7.00233C44.1696 13.6775 44.8149 26.1509 49.0607 32.4795C55.0164 41.3796 70.2896 41.8573 72.6901 49.318C77.2584 36.0525 76.0905 22.8265 70.2186 14.476Z" fill="#5BC029"/>
</g>
<defs>
<clipPath id="clip0_1718_4353">
<rect width="75.6595" height="66" fill="white"/>
</clipPath>
</defs>
</svg>
