<svg width="24" height="25" viewBox="0 0 24 25" fill="none" xmlns="http://www.w3.org/2000/svg">
<g clip-path="url(#clip0_928_54339)">
<path d="M5.34042 22.4944L5.17194 22.3823L5.29379 22.2192C6.79497 20.2436 9.15755 17.0766 11.9835 17.0532C14.8094 17.0766 17.173 20.2436 18.674 22.2192L18.796 22.3823L18.6274 22.4944C16.6602 23.806 14.3478 24.5041 11.9835 24.4999C9.61925 24.5048 7.30695 23.8067 5.34042 22.4944ZM11.9835 24.1153C14.2025 24.119 16.3757 23.4843 18.244 22.287C16.755 20.298 14.4334 17.4171 11.9835 17.4366C9.53451 17.4171 7.21284 20.298 5.72296 22.287C7.59127 23.4843 9.76448 24.1189 11.9835 24.1153ZM19.1695 21.8901C17.9589 20.1562 16.1418 17.5642 16.1342 15.1699C16.1312 14.7493 16.1948 14.3309 16.3225 13.9301C17.2172 11.2495 20.9601 9.98127 23.3037 9.16513L23.4956 9.09855L23.551 9.29395C23.8456 10.3443 23.9952 11.43 23.9956 12.5209C23.9948 13.7811 23.7954 15.0333 23.4047 16.2315C22.6781 18.4813 21.2998 20.4648 19.4446 21.9303L19.2861 22.0566L19.1695 21.8901ZM16.6872 14.0498C16.5722 14.4119 16.515 14.7899 16.5178 15.1699C16.5099 17.2992 18.1586 19.7827 19.3646 21.5011C21.0808 20.0947 22.3562 18.2243 23.0387 16.1131C23.4167 14.9531 23.6098 13.7409 23.6108 12.5209C23.6099 11.5333 23.4833 10.5499 23.2338 9.59429C20.8835 10.3959 17.4245 11.7127 16.6872 14.0498ZM4.54993 21.8924C2.69598 20.4259 1.31797 18.443 0.589752 16.1941C0.199364 14.9959 0.0003358 13.7436 0 12.4833C0.000201803 11.3923 0.149769 10.3065 0.444537 9.25609L0.500061 9.06095L0.691771 9.12626C3.03553 9.94342 6.77936 11.2116 7.67289 13.8923C7.8002 14.2927 7.86382 14.7106 7.86142 15.1307C7.85265 17.5256 6.03651 20.1186 4.82704 21.8515L4.7095 22.019L4.54993 21.8924ZM0.384694 12.4833C0.384902 13.7032 0.577592 14.9154 0.95566 16.0752C1.6385 18.1866 2.9143 20.057 4.63088 21.4633C5.8359 19.7448 7.48446 17.2603 7.4766 15.1307C7.47992 14.7514 7.42305 14.374 7.30812 14.0125C6.571 11.6751 3.1119 10.3581 0.761659 9.55542C0.511677 10.5113 0.384995 11.4953 0.384694 12.4833ZM14.6928 8.84038C12.4202 7.1598 12.3702 3.20866 12.3171 0.727176L12.3138 0.52313L12.5167 0.532294C14.8789 0.627452 17.1596 1.42186 19.0698 2.8148C20.9853 4.20059 22.4458 6.12424 23.2661 8.34159L23.337 8.53219L23.1419 8.59188C21.6463 9.04976 19.5975 9.66948 17.7116 9.67076C16.602 9.67076 15.5399 9.45454 14.6928 8.84038ZM14.919 8.52888C15.6729 9.07771 16.6497 9.28734 17.7116 9.28734C19.4357 9.28734 21.3636 8.7329 22.8336 8.28495C22.027 6.21802 20.6422 4.42711 18.8448 3.12633C17.0514 1.81878 14.9196 1.05482 12.7039 0.925623C12.7417 3.41015 12.9246 7.10647 14.919 8.52888ZM0.897972 8.56877L0.702959 8.5088L0.774983 8.31849C1.59454 6.10112 3.05469 4.17739 4.96996 2.7917C6.87992 1.3983 9.16084 0.603834 11.5232 0.509163L11.7262 0.5L11.7228 0.704045C11.6696 3.18425 11.6209 7.13644 9.34709 8.816C8.50009 9.43013 7.43783 9.6474 6.32822 9.6474C4.44346 9.64638 2.39241 9.02538 0.897972 8.56877ZM6.32822 9.26294C7.39019 9.26294 8.36693 9.05408 9.12096 8.50448C11.1164 7.08333 11.2994 3.38577 11.336 0.902231C9.12094 1.03105 6.98963 1.79419 5.19622 3.10068C3.39901 4.40227 2.01426 6.19348 1.20721 8.26055C2.67511 8.70979 4.60304 9.26398 6.32822 9.26294Z" fill="#F5CB45"/>
<path fill-rule="evenodd" clip-rule="evenodd" d="M11.5315 0.700684C11.4894 3.18167 11.3963 7.08963 9.23434 8.65968C7.07352 10.2318 3.32639 9.11197 0.954941 8.38473C1.76571 6.20503 3.20185 4.31314 5.08333 2.94622C6.96481 1.57929 9.20791 0.798138 11.5315 0.700684ZM23.0859 8.40812C20.7144 9.13534 16.9682 10.2549 14.8065 8.68405C12.6445 7.11325 12.5525 3.20503 12.5105 0.725085C14.8338 0.822653 17.0765 1.60375 18.9578 2.97047C20.839 4.3372 22.275 6.22877 23.0859 8.40812ZM19.3275 21.7796C17.9017 19.7483 15.6801 16.5312 16.506 13.9898C17.3318 11.4489 21.0203 10.153 23.3651 9.347C23.9902 11.5867 23.9405 13.961 23.2222 16.1725C22.504 18.3841 21.1492 20.3345 19.3275 21.7796ZM0.630196 9.30813C2.97599 10.1151 6.66442 11.4113 7.49048 13.9525C8.31641 16.4934 6.09462 19.7107 4.67005 21.7417C2.84762 20.2969 1.49216 18.3465 0.77351 16.1347C0.054863 13.9229 0.00500914 11.5481 0.630196 9.30813ZM5.44719 22.3358C6.9395 20.3536 9.31182 17.246 11.9839 17.246C14.6567 17.246 17.0293 20.3536 18.5203 22.3358C16.583 23.622 14.3092 24.3081 11.9838 24.3081C9.65831 24.3081 7.38455 23.622 5.44719 22.3358Z" fill="url(#paint0_radial_928_54339)"/>
<path d="M23.0827 8.40824C21.0272 9.03889 17.9406 9.96252 15.7465 9.17736C17.3663 7.57471 19.1881 6.18986 21.1656 5.05774C21.9854 6.06099 22.6332 7.19317 23.0827 8.40824ZM19.3242 21.7797C17.8985 19.7485 15.6768 16.5314 16.5028 13.9899C17.3286 11.449 21.0171 10.1531 23.3619 9.34712C23.987 11.5868 23.9373 13.9611 23.219 16.1726C22.5008 18.3842 21.146 20.3346 19.3242 21.7797ZM7.65027 14.7629C7.8608 17.1473 5.94302 19.9212 4.66683 21.7418C2.84182 20.2991 1.4857 18.3475 0.770036 16.134C0.732178 16.0143 0.69471 15.8971 0.660156 15.7762C3.02219 15.7175 5.3688 15.3773 7.65027 14.7629ZM5.44398 22.3359C6.93628 20.3537 9.30861 17.2461 11.9807 17.2461C14.6535 17.2461 17.0261 20.3537 18.5171 22.3359C16.5797 23.6221 14.306 24.3082 11.9805 24.3082C9.65509 24.3082 7.38133 23.6221 5.44398 22.3359Z" fill="url(#paint1_radial_928_54339)"/>
<path opacity="0.9" d="M10.4684 4.87778C10.1814 6.30707 9.66688 7.45025 8.81108 8.07302C7.95416 8.69402 6.70693 8.83047 5.26013 8.66202C4.13257 8.50925 3.01995 8.26138 1.93417 7.92107C2.7282 6.17416 3.96153 4.66292 5.51384 3.53484C7.06614 2.40676 8.88438 1.70038 10.7911 1.48462C10.7791 2.62273 10.6711 3.7578 10.4684 4.87778ZM16.3599 8.60178C15.9562 8.50703 15.5745 8.33544 15.2357 8.09639C14.3798 7.47464 13.8654 6.3302 13.5783 4.90144C13.375 3.78179 13.2671 2.64691 13.2556 1.50902C16.0961 1.83117 18.7035 3.23496 20.5363 5.42892C19.0422 6.34518 17.6431 7.40806 16.3599 8.60178ZM4.27691 11.6131C5.54496 12.3271 6.4752 13.1694 6.80221 14.1761C6.88264 14.4279 6.92926 14.6893 6.94084 14.9534C5.12745 15.3893 3.27715 15.6539 1.41428 15.7439C0.864549 13.9666 0.773428 12.0792 1.14941 10.2572C2.22829 10.6201 3.27453 11.0737 4.27691 11.6131Z" fill="white"/>
</g>
<defs>
<radialGradient id="paint0_radial_928_54339" cx="0" cy="0" r="1" gradientUnits="userSpaceOnUse" gradientTransform="translate(11.9983 12.5044) scale(11.8045 11.8045)">
<stop stop-color="#FFE37E"/>
<stop offset="0.24276" stop-color="#FEDF79"/>
<stop offset="0.53453" stop-color="#FBD56A"/>
<stop offset="0.85038" stop-color="#F5C352"/>
<stop offset="1" stop-color="#F2B944"/>
</radialGradient>
<radialGradient id="paint1_radial_928_54339" cx="0" cy="0" r="1" gradientUnits="userSpaceOnUse" gradientTransform="translate(12.0521 23.3322) scale(13.9051)">
<stop stop-color="#FFE37E"/>
<stop offset="0.24276" stop-color="#FEDF79"/>
<stop offset="0.53453" stop-color="#FBD56A"/>
<stop offset="0.85038" stop-color="#F5C352"/>
<stop offset="1" stop-color="#F2B944"/>
</radialGradient>
<clipPath id="clip0_928_54339">
<rect width="24.0002" height="24" fill="white" transform="translate(0 0.5)"/>
</clipPath>
</defs>
</svg>
