<svg width="28" height="13" viewBox="0 0 28 13" fill="none" xmlns="http://www.w3.org/2000/svg">
<g clip-path="url(#clip0_928_54104)">
<path d="M19.1021 0.205833C18.5348 0.315404 18.1556 0.710435 18.032 1.31884C17.9955 1.49761 17.9927 1.78596 17.9983 3.16136L18.0068 4.79339L18.0854 5.02118C18.3073 5.66419 18.7398 5.96118 19.4532 5.96118C20.1863 5.96118 20.6216 5.644 20.8463 4.95198C20.8941 4.80781 20.8997 4.64922 20.9081 3.18154C20.9166 1.77731 20.9109 1.53798 20.8716 1.33614C20.7621 0.776755 20.4531 0.399024 19.9869 0.249085C19.7594 0.176999 19.3521 0.156815 19.1021 0.205833ZM19.6695 1.117C19.7201 1.14583 19.7875 1.22945 19.824 1.29577L19.8886 1.41976V3.07774V4.73572L19.824 4.85971C19.6892 5.11633 19.3718 5.16247 19.1696 4.95486C19.0067 4.78762 19.001 4.72707 19.0095 2.98835L19.0179 1.4486L19.0881 1.30442C19.2005 1.07375 19.4645 0.987246 19.6695 1.117Z" fill="#808080"/>
<path d="M0.015625 6.53795V12.8239H2.67826H5.33808L6.63851 11.3764L7.93612 9.92888V6.53507V3.14414L6.63851 1.69666L5.33808 0.252051H2.67826H0.015625V6.53795ZM5.31842 9.64053L5.31 12.7402L4.04047 11.3331L2.77095 9.92599V6.53795V3.14991L4.04047 1.73991L5.31 0.332788L5.31842 3.43537C5.32123 5.14237 5.32123 7.93354 5.31842 9.64053Z" fill="#808080"/>
<path d="M11.2773 3.06052V5.87476H11.7408H12.2042V4.93764V4.00052H12.5665C12.7631 4.00052 12.9878 3.98899 13.0637 3.97457C13.5692 3.87653 13.8754 3.5853 13.9877 3.10377C14.0467 2.84138 14.0467 1.44291 13.9877 1.18051C13.881 0.722046 13.6282 0.445236 13.2013 0.321248C13.0637 0.28088 12.8643 0.269346 12.1565 0.260695L11.2773 0.246278V3.06052ZM12.8221 1.16321C12.8839 1.19781 12.9457 1.27278 12.9906 1.36217C13.0581 1.50346 13.0609 1.52076 13.0609 2.1407C13.0609 2.74911 13.0581 2.78082 12.9935 2.91346C12.9008 3.10954 12.7856 3.16432 12.457 3.16432H12.2042V2.1234V1.08248L12.4654 1.09401C12.6592 1.10266 12.7519 1.11996 12.8221 1.16321Z" fill="#808080"/>
<path d="M14.6211 3.06052V5.87476H15.0845H15.548V4.9088V3.94285H15.7839C16.0704 3.94285 16.1771 3.97745 16.2473 4.09856C16.2838 4.15911 16.3569 4.46764 16.458 5.02126C16.545 5.47972 16.6181 5.86034 16.6237 5.86611C16.6293 5.87187 16.8568 5.87187 17.1264 5.86899L17.618 5.86034L17.441 4.94917C17.3455 4.44745 17.2416 3.98033 17.2135 3.91113C17.1405 3.74389 17.0309 3.61414 16.9242 3.568C16.8793 3.54782 16.84 3.52475 16.84 3.51322C16.84 3.50457 16.8849 3.4642 16.9355 3.42383C17.0815 3.31426 17.2276 3.09224 17.2922 2.87886C17.3455 2.71739 17.3568 2.59917 17.368 2.09168C17.382 1.46021 17.3596 1.23242 17.2584 0.958488C17.1854 0.759531 16.986 0.528856 16.8006 0.433702C16.517 0.286647 16.4355 0.275113 15.5002 0.260695L14.6211 0.246278V3.06052ZM16.1659 1.16321C16.2979 1.24107 16.3541 1.35352 16.3934 1.60726C16.4299 1.84947 16.4102 2.53861 16.3625 2.70585C16.2923 2.95671 16.1462 3.05187 15.7951 3.07205L15.548 3.08647V2.08303V1.08248L15.8092 1.09401C16.003 1.10266 16.0957 1.11996 16.1659 1.16321Z" fill="#808080"/>
<path d="M21.5312 3.0634V5.87476H22.0087H22.4862V4.76463V3.65451H23.062H23.6378V3.17874V2.70297H23.062H22.4862V1.95328V1.20358H23.062H23.6378V0.727812V0.252045H22.5845H21.5312V3.0634Z" fill="#808080"/>
<path d="M24.168 3.0634V5.87476H24.6595H25.151V3.0634V0.252045H24.6595H24.168V3.0634Z" fill="#808080"/>
<path d="M25.9102 3.0634V5.87476H26.9353H27.9605V5.41341V4.95205H27.4128H26.8651V2.60205V0.252045H26.3876H25.9102V3.0634Z" fill="#808080"/>
<path d="M15.7243 7.15491C15.2552 7.27313 14.9294 7.60761 14.7693 8.13817C14.7216 8.29676 14.7188 8.44381 14.7188 9.99799V11.6848L14.7862 11.9126C14.9687 12.5181 15.3816 12.8411 16.0444 12.8958C16.6708 12.9477 17.2072 12.6738 17.4432 12.1808C17.6201 11.8117 17.6257 11.7454 17.6257 10.0182C17.6257 8.71485 17.6173 8.43228 17.5808 8.24485C17.4656 7.66817 17.137 7.2962 16.623 7.1578C16.4292 7.10589 15.9321 7.10301 15.7243 7.15491ZM16.3534 8.03436C16.4377 8.07473 16.4882 8.12663 16.536 8.21602L16.6006 8.34001V9.99799C16.6006 11.5983 16.5978 11.6588 16.5444 11.7713C16.3843 12.1 15.9658 12.1 15.8001 11.7684L15.7299 11.63L15.7215 10.1018C15.7158 9.0724 15.7243 8.52743 15.7439 8.42363C15.7832 8.23332 15.8703 8.09491 15.9967 8.03148C16.1231 7.96516 16.2074 7.96804 16.3534 8.03436Z" fill="#808080"/>
<path d="M19.257 7.16079C18.788 7.28766 18.4622 7.62502 18.3133 8.14116C18.2684 8.29109 18.2628 8.48428 18.2543 9.8741C18.2403 11.6417 18.2515 11.7743 18.4257 12.1491C18.656 12.648 19.0801 12.8931 19.7205 12.8931C20.2007 12.8931 20.5125 12.7748 20.7709 12.4923C20.9394 12.3106 21.0405 12.1088 21.1136 11.8204C21.1641 11.6186 21.1669 11.4917 21.1669 10.0154C21.1669 8.26803 21.1585 8.18152 20.9984 7.84416C20.8299 7.49526 20.5462 7.25882 20.1699 7.1579C19.9592 7.10312 19.4649 7.10312 19.257 7.16079ZM19.9592 8.06619C20.0013 8.0979 20.0603 8.17287 20.0884 8.23054C20.139 8.33435 20.1418 8.43527 20.1418 10.0125C20.1418 11.6474 20.1418 11.6878 20.0828 11.7858C19.9901 11.9531 19.8609 12.0252 19.6839 12.0107C19.5576 11.9992 19.5182 11.9819 19.4396 11.8983C19.2598 11.7137 19.2542 11.6417 19.2626 9.92024C19.2711 8.44103 19.2739 8.3949 19.3301 8.26803C19.3975 8.11809 19.4705 8.046 19.5828 8.00852C19.6952 7.97103 19.8665 7.99987 19.9592 8.06619Z" fill="#808080"/>
<path d="M26.1389 7.15794C25.6643 7.29347 25.33 7.6712 25.2233 8.19598C25.1334 8.6285 25.1924 9.12733 25.3722 9.50795C25.5042 9.78476 25.7963 10.0875 26.1923 10.3586C26.7091 10.7132 26.8608 10.9324 26.886 11.362C26.9141 11.8176 26.7737 12.0886 26.5041 12.0886C26.2148 12.0886 26.0968 11.8926 26.094 11.3966C26.094 11.2207 26.1024 11.0448 26.1165 10.9987L26.1361 10.9208H25.6755H25.2149L25.184 11.065C25.1334 11.3043 25.1446 11.7484 25.2092 12.0021C25.2795 12.2818 25.3637 12.4346 25.5463 12.6019C25.9311 12.9565 26.7344 13.0027 27.2371 12.6999C27.5096 12.5356 27.7427 12.1838 27.8185 11.8205C27.8635 11.6013 27.855 11.0852 27.8045 10.8632C27.782 10.7594 27.7174 10.5777 27.6584 10.4595C27.5264 10.1798 27.2118 9.85108 26.8102 9.57427C26.5125 9.36666 26.3159 9.18212 26.24 9.02641C26.1614 8.87359 26.1305 8.59678 26.1642 8.38341C26.2148 8.07199 26.3411 7.91629 26.5434 7.91629C26.813 7.91629 26.945 8.23058 26.9169 8.80151L26.9029 9.07543H27.3579H27.8157L27.8326 8.98605C27.8635 8.82169 27.8494 8.2277 27.8101 8.03163C27.723 7.61929 27.5039 7.32518 27.1809 7.19831C26.9703 7.11469 26.372 7.09162 26.1389 7.15794Z" fill="#808080"/>
<path d="M11.3047 10.0154V12.8296L12.0995 12.8152C12.7146 12.8036 12.9281 12.7921 13.0601 12.7546C13.5348 12.6191 13.8128 12.3682 13.9786 11.9127C14.0403 11.7454 14.0432 11.7195 14.0516 10.0961C14.0572 8.68608 14.0544 8.41792 14.0151 8.25357C13.8943 7.71148 13.5657 7.37124 13.0405 7.24436C12.9056 7.21265 12.6753 7.20111 12.0855 7.20111H11.3047V10.0154ZM12.827 8.10363C12.9056 8.14688 12.9562 8.21032 13.0124 8.32277L13.0882 8.48424L13.0966 9.9202C13.1022 11.1428 13.0994 11.3821 13.0601 11.532C12.9815 11.8521 12.8467 11.9588 12.4928 11.9819L12.2877 11.9963V9.99805V7.99983L12.504 8.02001C12.6444 8.03443 12.7596 8.06326 12.827 8.10363Z" fill="#808080"/>
<path d="M21.8398 10.0124V12.8237H22.3033H22.7667V11.8434V10.863L22.9998 10.8659C23.1262 10.8659 23.2751 10.8803 23.3284 10.9005C23.4914 10.9581 23.5363 11.0937 23.702 12.0019L23.8481 12.8093L24.348 12.818C24.6654 12.8208 24.8451 12.8151 24.8451 12.7949C24.8451 12.7199 24.5278 11.1138 24.48 10.9495C24.4154 10.7275 24.289 10.5573 24.1345 10.4881C24.039 10.4449 24.0306 10.4334 24.0812 10.4189C24.1598 10.393 24.3789 10.145 24.4491 10.0037C24.5643 9.77017 24.5924 9.56256 24.5924 8.88783C24.5924 8.20446 24.5699 8.04587 24.4407 7.78347C24.3592 7.61912 24.1711 7.43169 24.011 7.34807C23.7638 7.2212 23.5925 7.20102 22.6909 7.20102H21.8398V10.0124ZM23.3818 8.08912C23.4464 8.12084 23.5082 8.18716 23.5531 8.26789C23.6206 8.39476 23.6234 8.41206 23.6234 9.00317C23.6234 9.56832 23.6206 9.61734 23.5644 9.72403C23.4492 9.94029 23.3284 9.99796 22.9886 9.99796H22.7667V9.00029V7.99973L23.0251 8.01992C23.1796 8.02857 23.3228 8.0574 23.3818 8.08912Z" fill="#808080"/>
</g>
<defs>
<clipPath id="clip0_928_54104">
<rect width="28" height="12.9379" fill="white" transform="translate(0 0.0310059)"/>
</clipPath>
</defs>
</svg>
