<svg width="28" height="24" viewBox="0 0 28 24" fill="none" xmlns="http://www.w3.org/2000/svg">
<g clip-path="url(#clip0_928_54314)">
<path d="M13.687 20.7183C18.8148 20.7183 22.9717 16.579 22.9717 11.4729C22.9717 6.36682 18.8148 2.22754 13.687 2.22754C8.55921 2.22754 4.40234 6.36682 4.40234 11.4729C4.40234 16.579 8.55921 20.7183 13.687 20.7183Z" fill="#E8F5E1"/>
<path fill-rule="evenodd" clip-rule="evenodd" d="M6.01235 16.6298C5.91635 16.4495 5.83094 16.2635 5.75659 16.073C5.72374 15.9944 5.69324 15.9135 5.66743 15.835L5.63692 15.7422C5.61347 15.6708 5.59234 15.6017 5.57357 15.5303C5.24099 14.3315 5.32533 13.0532 5.81243 11.91C6.29953 10.7668 7.15971 9.82846 8.2485 9.25257C8.81706 8.94632 9.43405 8.74336 10.0716 8.65289C10.7755 10.7946 9.54837 13.4314 7.07996 15.0782C7.33041 14.9751 7.57554 14.8591 7.81438 14.7307C10.264 13.4148 11.7141 11.0374 11.768 8.67669C11.7766 8.40898 11.7664 8.14095 11.7376 7.87468C10.5271 7.71418 9.29728 7.9387 8.21795 8.51723C7.00285 9.15714 6.05742 10.2218 5.5566 11.5142C5.05578 12.8066 5.03347 14.2392 5.4938 15.547C5.51726 15.6137 5.54307 15.6803 5.57122 15.7469C5.5853 15.785 5.60173 15.8254 5.61816 15.8635C5.651 15.9397 5.68385 16.0182 5.7214 16.1015C5.75894 16.1848 5.80821 16.28 5.85514 16.368C5.90207 16.4561 5.95838 16.5489 6.01235 16.6298Z" fill="#5BC029"/>
<path fill-rule="evenodd" clip-rule="evenodd" d="M3.99107 16.6344C3.8847 16.6106 3.77912 16.5917 3.67431 16.5774C3.62922 16.5703 3.58379 16.5655 3.53822 16.563H3.48191H3.36458C2.70955 16.5436 2.06725 16.7492 1.54203 17.1467C1.01681 17.5441 0.639525 18.11 0.471479 18.7525C0.38783 19.0833 0.363981 19.4268 0.401087 19.7662C1.5954 19.8471 2.80145 18.8691 3.32704 17.3865C3.30592 17.5269 3.27777 17.6697 3.24257 17.8101C3.09102 18.47 2.77104 19.078 2.31474 19.5729C1.85843 20.0679 1.28183 20.4325 0.642766 20.6301C0.504937 20.6692 0.3646 20.6986 0.222761 20.7181C0.0914431 20.3926 0.0168161 20.0463 0.00220004 19.6948C-0.00888224 19.4047 0.0219473 19.1144 0.0937095 18.8333C0.279475 18.1135 0.712304 17.4843 1.31441 17.059C1.91653 16.6337 2.64845 16.4401 3.37866 16.5131L3.49364 16.525H3.55934L3.69074 16.5464C3.7447 16.5464 3.79632 16.5679 3.84794 16.5821C3.89957 16.5964 3.9418 16.6202 3.99107 16.6344Z" fill="#5BC029"/>
<path d="M21.7614 20.9513L21.881 20.8918C13.5255 24.9992 9.10022 22.0221 6.64825 17.8599C3.40319 12.3746 4.6937 5.25917 10.1585 2.06078C15.6232 -1.13762 22.5404 0.487754 25.7103 5.64468L25.5837 5.43764C22.1931 -0.0238914 14.7151 -1.60405 8.72951 1.90609C2.89637 5.31866 0.960593 12.7221 4.6937 18.5787C6.57082 21.52 10.074 23.5761 14.0793 23.5761C16.543 23.5761 19.1945 22.7908 21.7614 20.9418" fill="#5BC029"/>
<path d="M25.5341 5.26393C24.4536 3.77442 23.0761 2.53223 21.4913 1.61815C20.5061 1.09623 19.4507 0.72417 18.3588 0.513936C17.4906 0.347357 16.8336 0.230746 16.6764 0.214091C15.2927 0.0590775 13.8938 0.119264 12.528 0.392574L11.2117 1.29688L9.89062 2.22499L10.1699 2.06078C10.4635 1.90984 10.7697 1.78561 11.085 1.68954C11.442 1.57175 11.8065 1.47873 12.176 1.4111C12.7814 1.30164 13.2366 1.26118 13.3492 1.25166C13.6707 1.23263 13.9194 1.23501 13.9968 1.23501C14.2644 1.23501 14.4661 1.25642 14.7875 1.2826C15.0034 1.29926 15.1301 1.31116 15.3131 1.33496C15.3929 1.33496 15.6065 1.37542 15.8833 1.43014C16.0288 1.4587 16.1508 1.48726 16.2447 1.50868C16.4723 1.56278 16.6971 1.62871 16.9181 1.70619C17.195 1.80377 17.4977 1.92752 17.8215 2.07744C18.1453 2.22737 18.4879 2.40109 18.8375 2.60574C19.1871 2.81041 19.5414 3.03648 19.9074 3.29349C20.274 3.55511 20.6272 3.83548 20.9657 4.13355C21.315 4.43954 21.648 4.76446 21.9628 5.10687C22.2742 5.44818 22.5679 5.80562 22.8428 6.17776C22.9718 6.36813 23.1079 6.54662 23.2252 6.73938L23.4059 7.02971C23.4598 7.12728 23.5162 7.22009 23.5701 7.31528C23.7754 7.67595 23.961 8.04775 24.1262 8.429C24.2013 8.61226 24.2717 8.7907 24.3421 8.9621L24.5181 9.46899C24.565 9.6355 24.6119 9.79263 24.6565 9.94487C24.7011 10.0972 24.7269 10.2424 24.7621 10.3756C24.7973 10.5089 24.8208 10.6398 24.8419 10.7587C24.863 10.8777 24.8841 10.9967 24.9029 11.0825C24.9592 11.4775 24.9874 11.7011 24.9874 11.7011C24.9874 11.7011 24.9404 11.4798 24.8536 11.0919C24.8302 10.9967 24.7996 10.8897 24.7692 10.7731C24.7386 10.6564 24.7058 10.5351 24.6612 10.4042C24.6166 10.2733 24.5767 10.1305 24.5251 9.98534C24.4735 9.84023 24.4125 9.69031 24.3515 9.53085C24.2905 9.3714 24.2154 9.21434 24.1426 9.05489L23.8939 8.54799C23.7033 8.19118 23.4942 7.84478 23.2674 7.51041L23.0891 7.24626L22.8967 6.98925C22.763 6.79173 22.6245 6.62991 22.4861 6.45857C22.1967 6.12455 21.8897 5.80678 21.5663 5.50666C21.2428 5.2021 20.9029 4.91609 20.548 4.64995C20.2045 4.39237 19.8472 4.15404 19.478 3.93603C19.1237 3.71947 18.7741 3.53147 18.4292 3.36727C18.0843 3.20306 17.7558 3.06742 17.4507 2.95081C17.1457 2.8342 16.8571 2.74615 16.6037 2.67714C16.3995 2.62002 16.2189 2.57956 16.0617 2.54625C16.0617 4.9736 16.2963 9.50938 17.8402 11.8107C20.006 15.0471 25.5599 15.2208 26.4328 17.9338C28.0939 13.11 27.6693 8.30048 25.5341 5.26393Z" fill="#5BC029"/>
</g>
<defs>
<clipPath id="clip0_928_54314">
<rect width="27.5126" height="24" fill="white"/>
</clipPath>
</defs>
</svg>
