<svg width="30" height="30" viewBox="0 0 30 30" fill="none" xmlns="http://www.w3.org/2000/svg">
<path d="M14.375 26.25C20.9334 26.25 26.25 20.9334 26.25 14.375C26.25 7.81662 20.9334 2.5 14.375 2.5C7.81662 2.5 2.5 7.81662 2.5 14.375C2.5 20.9334 7.81662 26.25 14.375 26.25Z" fill="#3C6A75"/>
<path d="M26.6242 27.5002C26.3992 27.5002 26.1742 27.4127 26.0117 27.2502L23.6867 24.9252C23.3492 24.5877 23.3492 24.0377 23.6867 23.6877C24.0242 23.3502 24.5742 23.3502 24.9242 23.6877L27.2492 26.0127C27.5867 26.3502 27.5867 26.9002 27.2492 27.2502C27.0742 27.4127 26.8492 27.5002 26.6242 27.5002Z" fill="#3C6A75"/>
</svg>
