<svg width="133" height="34" viewBox="0 0 133 34" fill="none" xmlns="http://www.w3.org/2000/svg">
<g clip-path="url(#clip0_1240_68704)">
<path d="M43.4322 10.2179C39.816 10.2179 37.1348 13.132 37.1348 17.7977C37.1348 21.9085 39.6411 24.8235 43.6631 24.8235C46.1147 24.8235 47.5432 24.2087 48.0665 23.9193L47.7183 22.8405C46.9311 23.2182 45.8805 23.6279 43.8394 23.6279C40.9541 23.6279 38.5042 21.8494 38.5042 17.3881H48.8238C48.8786 17.1101 48.8989 16.8263 48.8844 16.5433C48.8844 14.5324 48.0101 10.2179 43.4322 10.2179ZM38.5918 16.2797C38.8571 14.1252 40.1657 11.3816 43.2559 11.3816C46.6392 11.3816 47.4559 14.3276 47.4245 16.2797H38.5918ZM57.4254 17.1554V17.0966C59.1164 16.7186 60.3983 15.5518 60.3983 13.8609C60.3983 10.8585 56.9289 10.3915 54.5978 10.3915C53.3481 10.3896 52.1003 10.4873 50.8661 10.6836V24.5321C51.5655 24.5895 52.9067 24.6771 54.2185 24.6771C56.9011 24.6771 61.0387 24.1527 61.0387 20.6843C61.0387 18.5535 59.4381 17.4166 57.4254 17.1554ZM52.1776 11.7325C52.932 11.6413 53.6911 11.5929 54.451 11.5875C57.4846 11.5875 58.9727 12.3167 58.9727 14.0362C58.9727 16.0189 56.5215 16.6592 54.54 16.6592H52.1776V11.7325ZM54.54 23.5121C53.7415 23.5166 52.9434 23.4765 52.1494 23.3922V17.7977H54.3916C57.0178 17.7977 59.6113 18.1782 59.6113 20.6843C59.6113 23.1595 56.4028 23.5121 54.54 23.5121ZM69.7278 10.2179C67.2781 10.2179 65.559 11.3538 64.5376 13.1911H64.4802L64.3926 10.5369H63.0529C63.1402 11.8779 63.1684 13.2488 63.1684 14.9991V28.9112H64.5675V22.257H64.6266C65.5886 23.9479 67.3654 24.8521 69.3797 24.8521C72.7588 24.8521 75.7333 22.2862 75.7333 17.3008C75.7333 13.1911 73.3144 10.2179 69.7278 10.2179ZM69.2907 23.6843C68.2364 23.6901 67.2104 23.3433 66.3758 22.6991C65.5412 22.0548 64.946 21.15 64.6847 20.1286C64.6002 19.7659 64.5608 19.3942 64.5675 19.0219V16.2797C64.5931 15.8755 64.6612 15.4751 64.7707 15.0851C65.0263 14.0427 65.6195 13.1142 66.458 12.4443C67.2965 11.7744 68.3331 11.4008 69.4062 11.3816C72.5852 11.3816 74.3342 14.2125 74.3342 17.3585C74.3342 21.0905 72.4962 23.6843 69.2907 23.6843ZM83.2856 10.2179C79.8148 10.2179 76.667 12.8694 76.667 17.6493C76.667 22.0243 79.4663 24.8521 83.0811 24.8521H83.1093C86.2007 24.8521 89.7856 22.6079 89.7856 17.4166C89.7856 13.132 87.1613 10.2179 83.2856 10.2179ZM83.1684 23.6843H83.1375C80.2815 23.6843 78.0658 21.0637 78.0658 17.5634C78.0658 14.5593 79.6677 11.3816 83.2561 11.3816C86.9581 11.3816 88.3868 14.9105 88.3868 17.4771C88.3868 21.0637 86.0852 23.6843 83.1684 23.6843ZM101.389 10.5369H93.166V14.2984C93.2043 16.4132 92.8998 18.5202 92.2642 20.5376C91.8997 21.5321 91.4211 22.4811 90.8379 23.3653H89.7295L89.842 28.9054H91.0098L91.0988 24.5321H101.389L101.478 28.9054H102.643L102.761 23.3653H101.389V10.5369ZM99.9894 23.3653H92.3841C92.8744 22.4915 93.2826 21.5741 93.6035 20.6249C94.1901 18.608 94.4758 16.5156 94.4514 14.4153V11.7016H99.9894V23.3653ZM110.164 10.2179C106.695 10.2179 103.547 12.8694 103.547 17.6493C103.547 22.0243 106.344 24.8521 109.961 24.8521H109.987C113.079 24.8521 116.666 22.6079 116.666 17.4166C116.666 13.132 114.041 10.2179 110.164 10.2179ZM110.047 23.6843H110.019C107.161 23.6843 104.946 21.0637 104.946 17.5634C104.946 14.5593 106.549 11.3816 110.134 11.3816C113.838 11.3816 115.268 14.9105 115.268 17.4771C115.268 21.0637 112.962 23.6843 110.047 23.6843ZM131.39 10.5369H129.724L127.013 17.3293C126.373 18.9621 125.383 21.6163 125.002 22.7237H124.975C124.653 21.7339 123.924 19.8365 123.489 18.6734L120.31 10.5369H118.705L117.599 24.5321H118.999L119.434 17.2148C119.523 15.4628 119.639 13.6595 119.669 12.081H119.784C120.165 13.3663 120.864 15.435 121.358 16.7186L124.363 24.5321H125.383L128.562 16.6014C129.407 14.5029 129.987 12.9852 130.249 12.081H130.339C130.425 13.8314 130.543 15.4628 130.63 17.1554L131.037 24.5321H132.437L131.39 10.5369Z" fill="#161412"/>
<path d="M8.09612 30.3606L7.87091 30.2108L8.03379 29.9928C10.0406 27.3518 13.1989 23.1181 16.9766 23.0869C20.7542 23.1181 23.9139 27.3518 25.9205 29.9928L26.0836 30.2108L25.8582 30.3606C23.2284 32.1141 20.1373 33.0472 16.9766 33.0417C13.8161 33.0482 10.725 32.115 8.09612 30.3606ZM16.9766 32.5274C19.9429 32.5324 22.8481 31.684 25.3456 30.0834C23.3551 27.4245 20.2517 23.5733 16.9766 23.5994C13.7028 23.5733 10.5992 27.4245 8.6075 30.0834C11.1051 31.6839 14.0102 32.5323 16.9766 32.5274ZM26.5829 29.5529C24.9645 27.235 22.5355 23.7699 22.5253 20.5692C22.5213 20.0069 22.6063 19.4476 22.777 18.9119C23.973 15.3284 28.9766 13.633 32.1096 12.542L32.366 12.453L32.4401 12.7142C32.8339 14.1184 33.0339 15.5697 33.0345 17.0281C33.0333 18.7127 32.7668 20.3867 32.2446 21.9883C31.2732 24.996 29.4307 27.6474 26.9506 29.6065L26.7388 29.7754L26.5829 29.5529ZM23.2646 19.0719C23.1108 19.556 23.0343 20.0613 23.038 20.5692C23.0275 23.4156 25.2315 26.7356 26.8437 29.0328C29.1379 27.1527 30.8429 24.6524 31.7553 21.83C32.2606 20.2794 32.5187 18.6589 32.5201 17.0281C32.5189 15.7078 32.3496 14.3932 32.0161 13.1157C28.8741 14.1874 24.2502 15.9476 23.2646 19.0719ZM7.0394 29.5559C4.56103 27.5954 2.71889 24.9448 1.74541 21.9384C1.22354 20.3366 0.95748 18.6625 0.957031 16.9778C0.957301 15.5194 1.15724 14.0678 1.55129 12.6636L1.62551 12.4027L1.88179 12.4901C5.01494 13.5824 10.0197 15.2777 11.2142 18.8613C11.3844 19.3965 11.4694 19.9552 11.4662 20.5169C11.4545 23.7183 9.02667 27.1847 7.40983 29.5013L7.25271 29.7251L7.0394 29.5559ZM1.47129 16.9778C1.47157 18.6085 1.72916 20.229 2.23456 21.7794C3.14738 24.602 4.85288 27.1023 7.1476 28.9822C8.75849 26.685 10.9623 23.3637 10.9518 20.5169C10.9562 20.0098 10.8802 19.5052 10.7266 19.022C9.74117 15.8973 5.11703 14.1368 1.97522 13.0638C1.64104 14.3416 1.47169 15.657 1.47129 16.9778ZM20.5985 12.1079C17.5605 9.86128 17.4936 4.57938 17.4226 1.26212L17.4181 0.989356L17.6894 1.00161C20.8472 1.12881 23.8961 2.19078 26.4496 4.05287C29.0102 5.9054 30.9627 8.47694 32.0593 11.4411L32.154 11.6959L31.8932 11.7757C29.8939 12.3878 27.155 13.2162 24.634 13.2179C23.1506 13.2179 21.7308 12.9289 20.5985 12.1079ZM20.9008 11.6915C21.9086 12.4252 23.2144 12.7054 24.634 12.7054C26.9387 12.7054 29.516 11.9642 31.4811 11.3654C30.4028 8.60231 28.5516 6.20822 26.1488 4.46933C23.7514 2.72138 20.9016 1.70012 17.9397 1.52741C17.9901 4.84873 18.2347 9.78999 20.9008 11.6915ZM2.15744 11.7448L1.89675 11.6646L1.99303 11.4102C3.08861 8.44603 5.04055 5.87439 7.60089 4.02199C10.1541 2.15928 13.2033 1.09724 16.3612 0.970685L16.6326 0.958435L16.6281 1.2312C16.5571 4.54675 16.4918 9.83005 13.4523 12.0753C12.32 12.8963 10.9 13.1867 9.41662 13.1867C6.89707 13.1854 4.15522 12.3552 2.15744 11.7448ZM9.41662 12.6728C10.8363 12.6728 12.142 12.3936 13.15 11.6589C15.8174 9.75906 16.0622 4.81614 16.1111 1.49614C13.1499 1.66834 10.3008 2.68852 7.90336 4.43503C5.50084 6.17501 3.6497 8.5695 2.57084 11.3328C4.53313 11.9333 7.11039 12.6742 9.41662 12.6728Z" fill="#F5CB45"/>
<path fill-rule="evenodd" clip-rule="evenodd" d="M16.371 1.22675C16.3148 4.54334 16.1903 9.76751 13.3002 11.8664C10.4116 13.9679 5.40243 12.471 2.23227 11.4988C3.31612 8.58498 5.23595 6.0559 7.75112 4.22858C10.2663 2.40127 13.2649 1.35702 16.371 1.22675ZM31.817 11.5301C28.6468 12.5022 23.6388 13.9988 20.7491 11.8989C17.8589 9.79909 17.736 4.57457 17.6798 1.25936C20.7855 1.3898 23.7837 2.43396 26.2985 4.26101C28.8134 6.08806 30.7331 8.61672 31.817 11.5301ZM26.7927 29.4051C24.8868 26.6897 21.9169 22.3891 23.021 18.9917C24.1249 15.595 29.0558 13.8626 32.1903 12.7852C33.0259 15.7792 32.9594 18.9532 31.9993 21.9096C31.0391 24.866 29.228 27.4733 26.7927 29.4051ZM1.79815 12.7332C4.93401 13.812 9.86473 15.5447 10.969 18.9418C12.0731 22.3385 9.10302 26.6394 7.19864 29.3545C4.76242 27.4231 2.95042 24.8157 1.98973 21.8589C1.02904 18.9022 0.962399 15.7277 1.79815 12.7332ZM8.23753 30.1486C10.2325 27.4988 13.4038 23.3446 16.9758 23.3446C20.5488 23.3446 23.7205 27.4988 25.7137 30.1486C23.1239 31.868 20.0843 32.7852 16.9756 32.7852C13.867 32.7852 10.8274 31.868 8.23753 30.1486Z" fill="url(#paint0_radial_1240_68704)"/>
<path d="M31.8183 11.5301C29.0705 12.3732 24.9443 13.6079 22.0112 12.5583C24.1767 10.4158 26.6119 8.56457 29.2556 7.05115C30.3514 8.3923 31.2173 9.9058 31.8183 11.5301ZM26.794 29.4051C24.8881 26.6898 21.9181 22.3891 23.0222 18.9917C24.1262 15.595 29.057 13.8626 32.1916 12.7852C33.0271 15.7792 32.9607 18.9532 32.0005 21.9096C31.0404 24.866 29.2293 27.4734 26.794 29.4051ZM11.1882 20.025C11.4696 23.2125 8.9059 26.9207 7.19989 29.3545C4.7602 27.4259 2.94734 24.817 1.99064 21.8579C1.94003 21.6979 1.88994 21.5413 1.84375 21.3796C5.00133 21.3011 8.13828 20.8464 11.1882 20.025ZM8.23878 30.1486C10.2337 27.4988 13.405 23.3446 16.9771 23.3446C20.5501 23.3446 23.7218 27.4988 25.715 30.1486C23.1251 31.8681 20.0855 32.7852 16.9769 32.7852C13.8682 32.7852 10.8286 31.8681 8.23878 30.1486Z" fill="url(#paint1_radial_1240_68704)"/>
<path opacity="0.9" d="M14.9474 6.81053C14.5637 8.72121 13.8759 10.2494 12.7319 11.0819C11.5863 11.9121 9.91903 12.0945 7.98494 11.8693C6.47762 11.6651 4.99026 11.3337 3.53879 10.8788C4.60024 8.54353 6.24897 6.5233 8.3241 5.01528C10.3992 3.50726 12.8299 2.56296 15.3788 2.27454C15.3627 3.79597 15.2184 5.31333 14.9474 6.81053ZM22.8231 11.7888C22.2835 11.6621 21.7733 11.4327 21.3204 11.1132C20.1762 10.282 19.4885 8.75214 19.1047 6.84215C18.8329 5.3454 18.6886 3.8283 18.6733 2.30716C22.4706 2.7378 25.9561 4.6144 28.4061 7.54729C26.4088 8.77216 24.5386 10.193 22.8231 11.7888ZM6.67058 15.8143C8.36571 16.7688 9.60926 17.8948 10.0464 19.2406C10.1539 19.5772 10.2162 19.9266 10.2317 20.2796C7.80758 20.8623 5.33409 21.2161 2.8438 21.3364C2.10891 18.9605 1.9871 16.4374 2.48971 14.0018C3.93197 14.4869 5.33059 15.0932 6.67058 15.8143Z" fill="white"/>
</g>
<defs>
<radialGradient id="paint0_radial_1240_68704" cx="0" cy="0" r="1" gradientUnits="userSpaceOnUse" gradientTransform="translate(16.995 17.006) scale(15.7803 15.7803)">
<stop stop-color="#FFE37E"/>
<stop offset="0.24276" stop-color="#FEDF79"/>
<stop offset="0.53453" stop-color="#FBD56A"/>
<stop offset="0.85038" stop-color="#F5C352"/>
<stop offset="1" stop-color="#F2B944"/>
</radialGradient>
<radialGradient id="paint1_radial_1240_68704" cx="0" cy="0" r="1" gradientUnits="userSpaceOnUse" gradientTransform="translate(17.0725 31.4805) scale(18.5884)">
<stop stop-color="#FFE37E"/>
<stop offset="0.24276" stop-color="#FEDF79"/>
<stop offset="0.53453" stop-color="#FBD56A"/>
<stop offset="0.85038" stop-color="#F5C352"/>
<stop offset="1" stop-color="#F2B944"/>
</radialGradient>
<clipPath id="clip0_1240_68704">
<rect width="131.481" height="32.0832" fill="white" transform="translate(0.957031 0.958374)"/>
</clipPath>
</defs>
</svg>
