<svg width="132" height="22" viewBox="0 0 132 22" fill="none" xmlns="http://www.w3.org/2000/svg">
<g clip-path="url(#clip0_1240_68692)">
<path d="M12.1689 18.5881C16.5489 18.5881 20.0996 15.0525 20.0996 10.691C20.0996 6.32958 16.5489 2.79395 12.1689 2.79395C7.78893 2.79395 4.23828 6.32958 4.23828 10.691C4.23828 15.0525 7.78893 18.5881 12.1689 18.5881Z" fill="#E8F5E1"/>
<path fill-rule="evenodd" clip-rule="evenodd" d="M5.6113 15.0959C5.52929 14.9419 5.45634 14.783 5.39284 14.6203C5.36478 14.5532 5.33873 14.4841 5.31668 14.417L5.29062 14.3377C5.27058 14.2767 5.25254 14.2178 5.23651 14.1568C4.95243 13.1328 5.02447 12.0408 5.44053 11.0644C5.85659 10.0879 6.59133 9.28642 7.52134 8.79452C8.00699 8.53293 8.534 8.35956 9.07861 8.28229C9.67984 10.1117 8.63165 12.364 6.52322 13.7705C6.73714 13.6825 6.94652 13.5834 7.15053 13.4738C9.24295 12.3497 10.4815 10.319 10.5276 8.30261C10.5349 8.07395 10.5262 7.845 10.5016 7.61757C9.46763 7.48047 8.41717 7.67225 7.49525 8.16641C6.45735 8.713 5.6498 9.6224 5.22201 10.7263C4.79423 11.8302 4.77517 13.0539 5.16837 14.171C5.18841 14.2279 5.21045 14.2848 5.2345 14.3418C5.24653 14.3743 5.26056 14.4088 5.27459 14.4414C5.30265 14.5064 5.33071 14.5735 5.36278 14.6446C5.39484 14.7158 5.43693 14.7971 5.47701 14.8723C5.5171 14.9475 5.5652 15.0268 5.6113 15.0959Z" fill="#5BC029"/>
<path fill-rule="evenodd" clip-rule="evenodd" d="M3.8856 15.0999C3.79475 15.0796 3.70456 15.0634 3.61504 15.0512C3.57652 15.0451 3.53772 15.041 3.49879 15.0389H3.45069H3.35048C2.79097 15.0223 2.24234 15.1979 1.79371 15.5375C1.34509 15.8769 1.02282 16.3603 0.879285 16.9091C0.807834 17.1916 0.787463 17.485 0.819158 17.7749C1.8393 17.8441 2.86947 17.0086 3.31841 15.7422C3.30037 15.8622 3.27632 15.9842 3.24626 16.1041C3.11681 16.6678 2.84349 17.1871 2.45374 17.6099C2.06397 18.0326 1.57146 18.344 1.02559 18.5128C0.907863 18.5463 0.787991 18.5714 0.666838 18.588C0.55467 18.31 0.490926 18.0142 0.478442 17.714C0.468976 17.4661 0.495309 17.2182 0.556606 16.9781C0.71528 16.3632 1.08499 15.8258 1.59929 15.4626C2.1136 15.0993 2.73878 14.9339 3.3625 14.9963L3.46072 15.0064H3.51683L3.62907 15.0247C3.67516 15.0247 3.71925 15.043 3.76335 15.0552C3.80744 15.0674 3.84352 15.0877 3.8856 15.0999Z" fill="#5BC029"/>
<path d="M19.0677 18.7873L19.1699 18.7364C12.0329 22.2449 8.25292 19.702 6.15853 16.1467C3.38671 11.4614 4.48902 5.38359 9.15683 2.65163C13.8247 -0.0803305 19.7331 1.30801 22.4407 5.71288L22.3325 5.53604C19.4364 0.870976 13.049 -0.478744 7.93628 2.5195C2.9538 5.43441 1.30032 11.7582 4.48902 16.7607C6.09239 19.2731 9.08466 21.0293 12.5059 21.0293C14.6103 21.0293 16.8751 20.3585 19.0677 18.7791" fill="#5BC029"/>
<path d="M22.2879 5.38758C21.365 4.11529 20.1884 3.05426 18.8347 2.27348C17.9932 1.82767 17.0917 1.50987 16.159 1.3303C15.4175 1.18801 14.8563 1.0884 14.722 1.07418C13.5401 0.941771 12.3452 0.993181 11.1785 1.22663L10.0542 1.99906L8.92578 2.79182L9.16429 2.65156C9.41513 2.52263 9.67664 2.41652 9.94597 2.33445C10.2509 2.23385 10.5623 2.15439 10.8779 2.09663C11.395 2.00313 11.7838 1.96857 11.88 1.96044C12.1546 1.94418 12.367 1.94621 12.4332 1.94621C12.6617 1.94621 12.834 1.9645 13.1086 1.98687C13.293 2.00109 13.4012 2.01126 13.5575 2.03159C13.6256 2.03159 13.8081 2.06614 14.0445 2.11289C14.1688 2.13728 14.273 2.16168 14.3532 2.17997C14.5476 2.22618 14.7397 2.2825 14.9284 2.34868C15.1649 2.43203 15.4235 2.53773 15.7001 2.66579C15.9766 2.79385 16.2693 2.94224 16.5679 3.11705C16.8665 3.29186 17.1691 3.48497 17.4818 3.7045C17.7949 3.92796 18.0966 4.16745 18.3857 4.42205C18.6841 4.68342 18.9685 4.96095 19.2374 5.25343C19.5034 5.54496 19.7542 5.85028 19.9891 6.16814C20.0993 6.33076 20.2155 6.48321 20.3158 6.64786L20.4701 6.89585C20.5161 6.97919 20.5643 7.05847 20.6104 7.13978C20.7857 7.44785 20.9443 7.76543 21.0853 8.09108C21.1495 8.24761 21.2096 8.40003 21.2697 8.54643L21.4201 8.97941C21.4601 9.12163 21.5002 9.25585 21.5383 9.38589C21.5764 9.516 21.5984 9.64002 21.6285 9.75384C21.6586 9.86766 21.6786 9.9795 21.6966 10.0811C21.7146 10.1827 21.7327 10.2843 21.7487 10.3576C21.7968 10.695 21.8209 10.886 21.8209 10.886C21.8209 10.886 21.7808 10.697 21.7066 10.3657C21.6866 10.2843 21.6605 10.1929 21.6345 10.0933C21.6084 9.99367 21.5804 9.89004 21.5423 9.77821C21.5042 9.66644 21.4702 9.54447 21.4261 9.42045C21.382 9.2965 21.3299 9.16845 21.2778 9.03224C21.2256 8.89604 21.1615 8.76189 21.0994 8.62569L20.8869 8.19272C20.7241 7.88794 20.5455 7.59206 20.3518 7.30645L20.1995 7.08083L20.0351 6.86129C19.9209 6.69258 19.8027 6.55435 19.6844 6.408C19.4373 6.1227 19.175 5.85127 18.8987 5.59492C18.6224 5.33477 18.3321 5.09047 18.0289 4.86314C17.7355 4.64313 17.4304 4.43955 17.115 4.25333C16.8124 4.06835 16.5137 3.90777 16.2191 3.76752C15.9245 3.62726 15.6439 3.5114 15.3833 3.41179C15.1228 3.31219 14.8763 3.23698 14.6599 3.17803C14.4855 3.12924 14.3312 3.09469 14.1969 3.06623C14.1969 5.13959 14.3973 9.0139 15.7161 10.9796C17.566 13.744 22.3099 13.8924 23.0555 16.2097C24.4745 12.0894 24.1117 7.9813 22.2879 5.38758Z" fill="#5BC029"/>
<path d="M32.1984 15.23C31.4756 14 31.0902 12.5964 31.082 11.1646C31.082 10.9992 31.086 10.8387 31.094 10.6828C31.1026 10.5215 31.1233 10.3612 31.1562 10.2031C31.2378 9.54408 31.4048 8.89886 31.6532 8.28424C31.9065 7.65422 32.2364 7.05877 32.6353 6.51171C33.3867 5.49541 34.3749 4.68388 35.5113 4.14971C36.6173 3.62759 37.8228 3.35834 39.0428 3.36102V0.391235H41.5179V3.29597C42.5782 3.27903 43.6302 3.48833 44.6056 3.9103C45.581 4.33227 46.4581 4.95748 47.1798 5.74538C48.7338 7.37155 49.5108 9.25449 49.5108 11.3943C49.5109 11.6367 49.4989 11.8788 49.4747 12.1199C49.4506 12.3578 49.4126 12.5997 49.3644 12.8456C49.3164 13.0916 49.2602 13.3335 49.1941 13.5713C49.1274 13.8178 49.0464 14.0602 48.9516 14.297C48.3392 15.7682 47.2879 17.0079 45.9452 17.842C44.6228 18.6988 43.0852 19.1519 41.5159 19.147V21.6086H39.0428V19.2446L38.4114 19.1958C38.2003 19.1795 37.9818 19.1551 37.7561 19.1226C37.3304 19.0389 36.9095 18.9316 36.4954 18.8014C36.0676 18.6663 35.653 18.4914 35.2568 18.2791C33.9832 17.5632 32.9259 16.5092 32.1984 15.23ZM35.0143 7.5057C34.0984 8.5459 33.5894 9.88999 33.5833 11.2845C33.582 11.3788 33.5861 11.4731 33.5953 11.5671C33.6026 11.6537 33.6147 11.7399 33.6313 11.8252V11.9248C33.6474 12.0061 33.6594 12.0813 33.6674 12.1464C33.6759 12.2199 33.6799 12.2939 33.6795 12.368C33.9113 13.639 34.5716 14.7887 35.5474 15.6203C36.5113 16.4834 37.757 16.9528 39.0428 16.9374V5.56041H38.5337C37.8502 5.62968 37.187 5.83608 36.5828 6.16759C35.9786 6.4991 35.4455 6.94912 35.0143 7.49146V7.5057ZM45.364 15.2605C45.8861 14.7413 46.2985 14.1198 46.5762 13.4338C46.8539 12.7478 46.9911 12.0117 46.9794 11.2703C46.9794 9.8108 46.441 8.49019 45.364 7.30852C44.2871 6.12686 43.0051 5.53601 41.5179 5.53601V16.907C42.2373 16.9144 42.9504 16.7707 43.6124 16.4849C44.2743 16.1991 44.8707 15.7773 45.364 15.2463V15.2605Z" fill="#3D3A3A"/>
<path d="M56.2456 18.8522H53.9648V3.60693H57.7007C57.8958 3.60693 58.0962 3.611 58.3019 3.61913C58.5077 3.62726 58.7181 3.63133 58.9333 3.63133C59.4935 3.68035 60.0467 3.79215 60.5827 3.96469C61.1134 4.13415 61.585 4.45443 61.9416 4.88754C62.2406 5.24362 62.4674 5.65599 62.609 6.10107C62.7614 6.55445 62.8558 7.02584 62.8896 7.50364V7.75161C62.8889 8.03127 62.868 8.31045 62.8274 8.58709C62.7887 8.86271 62.7277 9.13464 62.6451 9.40013C62.275 10.5818 61.6243 11.3163 60.693 11.6036C59.7279 11.8948 58.7256 12.0394 57.7187 12.0325C57.6064 12.0325 57.4842 12.0325 57.356 12.0203C57.2277 12.0081 57.1054 12.0081 56.9912 12.0081C56.8769 12.0081 56.7327 12.0081 56.6024 11.9959C56.4721 11.9837 56.3519 11.9837 56.2396 11.9837L56.2456 18.8522ZM56.3899 9.98963C56.4721 9.98963 56.5483 9.98963 56.6204 10.0018C56.6975 10.0119 56.7752 10.0167 56.8529 10.0161C56.9491 10.0161 57.0373 10.0161 57.1194 10.0282C57.2016 10.0405 57.2878 10.0405 57.386 10.0405H57.6766C57.7746 10.0404 57.8725 10.0323 57.9692 10.0161C58.5371 9.98744 59.093 9.84077 59.6027 9.58513C60.1037 9.33107 60.3783 8.84115 60.4264 8.11956V7.80041C60.4264 6.9792 60.1558 6.44188 59.6147 6.18847C59.0531 5.92938 58.4474 5.78304 57.8309 5.75754H56.396L56.3899 9.98963Z" fill="#3D3A3A"/>
<path d="M76.0732 14.9129H70.1526L68.4048 18.8522H65.8555L73.089 3.03375L80.3682 18.8604H77.7722L76.0732 14.9129ZM71.0504 12.8802H75.2234L73.6697 9.41037C73.556 9.12914 73.4594 8.84134 73.3793 8.54847L73.1369 7.6622C73.1205 7.72729 73.1047 7.79025 73.089 7.8472C73.0725 7.90414 73.0547 7.95698 73.0383 8.00777C72.9746 8.25307 72.9075 8.49091 72.8383 8.72129C72.7637 8.95098 72.6795 9.18068 72.5815 9.41037L71.0504 12.8802Z" fill="#3D3A3A"/>
<path d="M97.0981 10.7906C97.0734 10.6179 97.0536 10.443 97.0378 10.2621C97.0214 10.1761 97.0091 10.0892 97.0015 10.0019C96.9919 9.91624 96.9872 9.83 96.9878 9.74376C96.9878 9.66245 96.9878 9.5771 96.9755 9.4856C96.968 9.39901 96.9557 9.31284 96.9392 9.22743C96.857 9.59367 96.7564 9.95532 96.6365 10.3109C96.5181 10.6643 96.3763 11.0093 96.212 11.3435L92.3299 19.4174L88.3972 11.1972C88.2671 10.8679 88.1432 10.5447 88.0206 10.2235C87.8987 9.90235 87.7741 9.573 87.646 9.22743C87.6296 9.4409 87.6118 9.65431 87.596 9.86778C87.5796 10.0812 87.5556 10.2947 87.5235 10.5081C87.5077 10.6382 87.4913 10.7744 87.4755 10.9146C87.4591 11.0594 87.4344 11.2032 87.4036 11.3455L85.7519 18.8544H83.5195L87.0605 2.97485L91.502 12.5997C91.5822 12.7644 91.6602 12.931 91.7328 13.1038C91.8047 13.2766 91.8746 13.4453 91.9328 13.6079L92.0293 13.8539C92.0615 13.9372 92.093 14.0267 92.1273 14.1262L92.2238 14.3722C92.2553 14.4535 92.2875 14.5369 92.3217 14.6182C92.3861 14.4535 92.4539 14.2848 92.5224 14.1141C92.5902 13.9434 92.6627 13.7726 92.7223 13.6079C92.7826 13.4433 92.8812 13.2766 92.9531 13.1038C93.025 12.931 93.1031 12.7644 93.1852 12.5997L97.4822 2.97485L101.147 18.8523H98.8573L97.2063 11.3191C97.159 11.1454 97.1227 10.9689 97.0981 10.7906Z" fill="#3D3A3A"/>
<path d="M105.902 3.61514H108.354V13.6587L118.174 3.05005V18.8523H115.749L115.699 8.95708L105.902 19.4418V3.61514Z" fill="#3D3A3A"/>
<path d="M125.308 18.8522H123.027V3.60693H126.765C126.966 3.60693 127.166 3.60693 127.367 3.61913C127.567 3.63133 127.787 3.63133 127.998 3.63133C128.559 3.68033 129.112 3.79213 129.649 3.96469C130.179 4.13518 130.651 4.45528 131.008 4.88754C131.305 5.24222 131.532 5.65145 131.675 6.09293C131.83 6.54947 131.925 7.02434 131.958 7.50569V7.75366C131.958 8.03325 131.938 8.31243 131.898 8.58908C131.858 8.86436 131.797 9.13614 131.716 9.40218C131.343 10.5771 130.689 11.3109 129.753 11.6036C128.789 11.8948 127.787 12.0394 126.781 12.0325C126.667 12.0325 126.546 12.0325 126.416 12.0203C126.286 12.0081 126.166 12.0081 126.053 12.0081C125.942 12.0081 125.793 12.0081 125.665 11.9959C125.536 11.9837 125.414 11.9837 125.3 11.9837L125.308 18.8522ZM125.454 9.98963C125.534 9.98963 125.613 9.98963 125.685 10.0018C125.762 10.0119 125.838 10.0167 125.916 10.0161C126.012 10.0161 126.102 10.0161 126.182 10.0282C126.262 10.0405 126.353 10.0405 126.449 10.0405H126.747C126.844 10.0403 126.942 10.0321 127.038 10.0161C127.603 9.98689 128.156 9.84015 128.663 9.58513C129.164 9.33107 129.441 8.84115 129.489 8.11956V7.80041C129.489 6.9792 129.218 6.44188 128.675 6.18847C128.114 5.92914 127.508 5.78278 126.892 5.75754H125.46L125.454 9.98963Z" fill="#3D3A3A"/>
</g>
<defs>
<clipPath id="clip0_1240_68692">
<rect width="131.478" height="21.2174" fill="white" transform="translate(0.478516 0.391296)"/>
</clipPath>
</defs>
</svg>
