<svg width="223" height="80" viewBox="0 0 223 80" fill="none" xmlns="http://www.w3.org/2000/svg">
<g style="mix-blend-mode:luminosity">
<path d="M11.9707 64.6402C14.5429 62.0743 20.0485 58.3147 24.8479 56.9623C32.4369 62.4878 42.25 65.3983 53.167 65.3983C63.2 65.3983 70.2856 62.5255 76.7859 59.0229L78.0409 59.8106C71.2485 66.3376 58.1166 71.3217 46.2889 71.3103C33.3973 71.2984 22.7587 69.1219 11.9707 64.6402Z" fill="url(#paint0_linear_928_37719)"/>
<path d="M26.1728 45.1395C24.5826 50.1952 21.3012 53.0705 14.4431 53.0705C11.6107 53.0705 8.61238 52.552 7.33667 52.1787C7.50982 53.2864 7.61846 54.5063 7.39863 56.2138C7.1788 57.9209 6.69329 61.6991 6.69329 61.6991C6.61606 62.2642 6.15644 62.544 5.67646 62.3315C4.72455 61.912 2.57545 60.8373 1.795 60.2959C1.45846 60.0627 1.1983 59.9065 1.25093 59.5107C1.25814 59.4625 4.85272 31.3097 4.85272 31.3097C5.15106 28.9313 5.79783 28.1376 8.23298 27.3452C11.1647 26.3531 15.0907 25.7588 18.3716 25.7588C22.0002 25.7588 24.2859 26.6011 25.7263 28.138C27.2673 29.7732 27.7141 32.1033 27.7141 35.2259C27.7124 38.3984 27.1662 42.1165 26.1728 45.1395ZM20.9549 31.261C20.0599 30.1211 18.6182 29.9222 16.5803 29.9222C14.0951 29.9222 10.517 30.8644 10.517 30.8644L8.38024 48.362C8.38024 48.362 10.5667 49.0561 13.8481 49.0561C17.8233 49.0561 19.8116 47.7177 20.9044 43.2572C21.5007 40.8775 21.8983 38.1512 21.8983 35.6733C21.8979 33.4917 21.5991 32.1533 20.9549 31.261Z" fill="#36333C"/>
<path d="M50.5027 29.6684C50.4531 30.0646 50.3508 30.4744 49.7571 30.4117C46.2843 30.0439 41.995 30.2754 39.5407 31.0136L36.9562 51.6837C36.9074 52.1294 36.6086 52.4269 36.1605 52.4269H32.0363C31.8865 52.4269 31.3398 52.1793 31.3398 51.7332V51.6837L33.9732 30.567C34.2219 28.5353 35.1161 27.9402 37.3539 27.1965C39.59 26.4032 43.9319 25.8085 45.9516 25.8085C47.9695 25.8085 50.0062 25.9999 50.4518 26.0997C50.602 26.1489 50.8999 26.2479 50.8999 26.694C50.9004 26.7431 50.5027 29.6684 50.5027 29.6684Z" fill="#36333C"/>
<path d="M59.03 51.6831C58.9808 52.1288 58.6319 52.4264 58.185 52.4264H54.1092C53.6615 52.4264 53.4141 52.1788 53.4141 51.7826V51.6839L56.395 27.3953C56.445 26.9991 56.8427 26.7011 57.2892 26.7011H61.365C61.7631 26.7011 62.0105 26.9487 62.0105 27.2958V27.3948L59.03 51.6831ZM62.7073 21.6446C62.6084 22.2892 62.2104 22.6367 61.5653 22.6367H58.0374C57.4411 22.6367 57.1427 22.3891 57.1427 21.8431V21.6446L57.5837 17.7225C57.6821 17.0778 58.0802 16.7311 58.7766 16.7311H62.3042C62.9017 16.7311 63.1992 17.0283 63.1992 17.5244V17.7229L62.7073 21.6446Z" fill="#36333C"/>
<path d="M90.2892 43.603C88.9477 49.1052 85.9155 53.071 77.2193 53.071C72.9453 53.071 70.3115 52.1283 68.7209 50.4923C67.0323 48.8081 66.4844 46.3785 66.4844 43.5535C66.4844 40.6286 66.9325 37.3575 67.6773 34.6312C69.1186 29.4265 72.2493 25.7588 80.5983 25.7588C84.9725 25.7588 87.6559 26.7505 89.2465 28.4352C90.8358 30.1702 91.3324 32.5495 91.3324 35.3749C91.3324 38.0517 90.8846 41.0261 90.2892 43.603ZM84.574 31.3105C83.7795 30.3192 82.3871 29.8236 80.1017 29.8236C75.6287 29.8236 74.0877 31.7567 73.2928 35.1764C72.697 37.8041 72.2493 41.1742 72.2493 43.802C72.2493 45.5861 72.5472 46.9736 73.5411 47.8663C74.3861 48.61 75.6775 49.0062 77.7158 49.0062C82.6362 49.0062 84.0282 46.6765 84.7734 42.5126C85.1197 40.3319 85.5683 37.457 85.5683 35.3253C85.5679 33.5907 85.368 32.2523 84.574 31.3105Z" fill="#36333C"/>
<path d="M88.9551 23.2772C88.9551 22.7393 89.1359 22.2876 89.4974 21.924C89.8586 21.5604 90.3093 21.3776 90.85 21.3776C91.3788 21.3776 91.8248 21.5579 92.1881 21.9185C92.5522 22.2792 92.7343 22.7219 92.7343 23.248C92.7343 23.775 92.5522 24.2203 92.1881 24.5831C91.8248 24.9467 91.3788 25.1278 90.85 25.1278C90.3318 25.1278 89.887 24.9479 89.5148 24.5881C89.1418 24.2288 88.9551 23.7915 88.9551 23.2772ZM89.2993 23.2112C89.2993 23.6747 89.4397 24.0616 89.7219 24.3714C90.0139 24.6914 90.3904 24.8514 90.8496 24.8514C91.296 24.8514 91.6652 24.6944 91.9593 24.3816C92.2471 24.0739 92.3914 23.6967 92.3914 23.2476C92.3914 22.8002 92.2471 22.4248 91.9593 22.1192C91.6652 21.8093 91.296 21.654 90.8496 21.654C90.4158 21.654 90.0475 21.8047 89.7483 22.1069C89.4491 22.4091 89.2993 22.7774 89.2993 23.2112ZM90.1162 24.3443V22.1534H90.9658C91.4793 22.1534 91.7357 22.3608 91.7357 22.7757C91.7357 23.1194 91.543 23.3204 91.1564 23.3776L91.7845 24.3443H91.4187L90.8207 23.4017H90.4591V24.3443H90.1162ZM90.4595 22.4307V23.1274H90.8152C91.0011 23.1274 91.1339 23.1113 91.2111 23.0792C91.3321 23.0267 91.3928 22.9225 91.3928 22.7659C91.3928 22.5424 91.2328 22.4307 90.9119 22.4307H90.4595Z" fill="#36333C"/>
<path d="M134.145 31.6929V31.5532C135.482 31.3094 136.29 30.3596 136.29 29.168C136.29 28.1136 135.624 26.3604 132.282 26.3604H131.014H125.877V37.025H131.014H132.175C133.478 37.025 136.572 36.887 136.572 34.2203C136.572 32.5009 135.233 31.8339 134.145 31.6929ZM131.012 34.8866C130.94 34.8866 130.906 34.8866 130.838 34.8866H129.746V32.6436H130.697C130.768 32.6436 130.872 32.6436 131.012 32.6436C131.539 32.6762 132.281 32.8531 132.281 33.6937C132.281 34.081 132.174 34.815 131.012 34.8866ZM131.012 30.6063C130.906 30.6415 130.801 30.6415 130.697 30.6415H129.746V28.5005H130.838C130.906 28.5005 130.94 28.5005 131.012 28.5005C131.929 28.5721 132.281 29.0626 132.281 29.5532C132.281 29.7991 132.174 30.5005 131.012 30.6063Z" fill="#36333C"/>
<path d="M107.847 30.1151H105.07V26.3602H101.061V37.0251H105.07V33.0268H107.847V37.0251H112.001V26.3602H107.847V30.1151Z" fill="#36333C"/>
<path d="M118.873 26.1145H118.805C115.078 26.1145 112.93 28.2199 112.93 31.6929C112.93 35.0288 115.078 37.1672 118.805 37.1672H118.873C122.711 37.1325 124.821 34.9924 124.821 31.6929C124.821 28.255 122.711 26.1145 118.873 26.1145ZM118.873 34.6076L118.805 34.6428C117.329 34.6428 117.218 32.7465 117.218 31.6929C117.218 30.6419 117.33 28.782 118.805 28.782C118.839 28.782 118.839 28.782 118.873 28.782C120.422 28.818 120.532 30.6419 120.532 31.6929C120.533 32.7456 120.423 34.5716 118.873 34.6076Z" fill="#36333C"/>
<path d="M175.395 31.6929V31.5532C176.732 31.3094 177.685 30.3596 177.685 29.168C177.685 28.1136 177.018 26.3604 173.677 26.3604H172.407H167.268V37.025H172.407H173.396C174.726 37.025 177.79 36.887 177.79 34.2203C177.789 32.5009 176.455 31.8339 175.395 31.6929ZM172.406 34.8866C172.339 34.8866 172.261 34.8866 172.196 34.8866H171.139V32.6436H172.056C172.157 32.6436 172.261 32.6436 172.406 32.6436C172.897 32.6762 173.676 32.8531 173.676 33.6937C173.677 34.081 173.424 34.7812 172.406 34.8866ZM172.406 30.6063C172.3 30.6415 172.196 30.6415 172.056 30.6415H171.139V28.5005H172.196C172.261 28.5005 172.339 28.5005 172.406 28.5005C173.316 28.5721 173.676 29.0626 173.676 29.5532C173.677 29.7991 173.53 30.5005 172.406 30.6063Z" fill="#36333C"/>
<path d="M202.246 34.2207V26.3604H196.791H192.781V29.6937C192.781 31.0275 192.781 32.7464 191.304 34.2207H190.531V39.414H194.503V37.0254H196.792H199.323V39.414H203.476V37.0254V34.2207H202.246ZM198.272 34.2207H196.791H195.316C196.263 33.0275 196.37 31.8339 196.37 30.3596V29.0267H196.79H198.27L198.272 34.2207Z" fill="#36333C"/>
<path d="M184.433 26.1145H184.358C180.631 26.1145 178.484 28.2199 178.484 31.6929C178.484 35.0288 180.631 37.1672 184.358 37.1672H184.433C188.266 37.1325 190.375 34.9924 190.375 31.6929C190.375 28.255 188.267 26.1145 184.433 26.1145ZM184.433 34.6076L184.358 34.6428C182.88 34.6428 182.74 32.7465 182.74 31.6929C182.74 30.6419 182.879 28.782 184.358 28.782C184.358 28.782 184.394 28.782 184.433 28.782C185.94 28.818 186.086 30.6419 186.086 31.6929C186.085 32.7456 185.94 34.5716 184.433 34.6076Z" fill="#36333C"/>
<path d="M155.239 26.3602C153.657 26.3602 150.84 26.5003 150.84 29.1678C150.84 30.7462 152.037 31.6927 153.374 31.9754C152.708 32.0812 151.652 32.5011 151.229 33.975L150.562 37.0256H154.855L155.239 34.3606C155.343 33.589 155.906 33.3794 156.293 33.3075C156.403 33.3075 156.509 33.3075 156.574 33.3075H157.528V37.0256H161.643V26.3602H156.293H155.239ZM156.575 28.7818H157.634V31.0277H156.719C156.61 31.0277 156.472 31.0277 156.294 31.0277C155.767 30.9574 154.993 30.7462 154.993 29.8353C154.993 28.9583 155.802 28.7822 156.294 28.7822C156.403 28.7818 156.509 28.7818 156.575 28.7818Z" fill="#36333C"/>
<path d="M213.572 26.3602H210.718H207.975L204.246 37.0251H208.369L209.031 34.7462H210.719H212.236L213.046 37.0251H216.631H217.302L216.631 35.1322L213.572 26.3602ZM210.718 32.2213H209.56L210.651 28.8855H210.718H210.76L211.85 32.2213H210.718Z" fill="#36333C"/>
<path d="M143.167 26.3602H140.457L136.693 37.0251H140.845L141.512 34.7462H143.166H144.713L145.518 37.0251H149.773L146.046 26.3602H143.167ZM143.167 32.2213H142.039L143.094 28.8855L143.167 29.0979L144.326 32.2213H143.167Z" fill="#36333C"/>
<path d="M216.979 28.1397C216.979 27.6013 217.161 27.15 217.521 26.786C217.884 26.422 218.334 26.24 218.874 26.24C219.402 26.24 219.849 26.4203 220.212 26.7809C220.576 27.1416 220.758 27.5843 220.758 28.1105C220.758 28.6375 220.576 29.0827 220.212 29.4455C219.849 29.8087 219.402 29.9903 218.874 29.9903C218.356 29.9903 217.911 29.8099 217.539 29.4506C217.167 29.0912 216.979 28.654 216.979 28.1397ZM217.323 28.0736C217.323 28.5371 217.465 28.924 217.748 29.2339C218.039 29.5539 218.415 29.7139 218.875 29.7139C219.321 29.7139 219.69 29.5572 219.984 29.244C220.272 28.9367 220.416 28.5591 220.416 28.1105C220.416 27.6631 220.272 27.2872 219.984 26.9816C219.69 26.6717 219.321 26.5164 218.875 26.5164C218.441 26.5164 218.072 26.6671 217.772 26.9689C217.475 27.2715 217.323 27.6394 217.323 28.0736ZM218.14 29.2072V27.0163H218.99C219.504 27.0163 219.761 27.2233 219.761 27.6381C219.761 27.9822 219.568 28.1833 219.181 28.24L219.81 29.2072H219.443L218.845 28.2645H218.484V29.2072H218.14ZM218.485 27.2931V27.9898H218.84C219.026 27.9898 219.159 27.9733 219.236 27.9412C219.357 27.8887 219.417 27.785 219.417 27.6284C219.417 27.4049 219.257 27.2931 218.937 27.2931H218.485Z" fill="#36333C"/>
</g>
<defs>
<linearGradient id="paint0_linear_928_37719" x1="19.7939" y1="55.2086" x2="80.3587" y2="74.9655" gradientUnits="userSpaceOnUse">
<stop stop-color="#00BCF1"/>
<stop offset="1" stop-color="#293895"/>
</linearGradient>
</defs>
</svg>
