<svg width="264" height="66" viewBox="0 0 264 66" fill="none" xmlns="http://www.w3.org/2000/svg">
<g clip-path="url(#clip0_928_37689)">
<path d="M85.8623 19.4358C78.63 19.4358 73.2676 25.264 73.2676 34.5955C73.2676 42.817 78.2802 48.6471 86.3243 48.6471C91.2275 48.6471 94.0845 47.4175 95.131 46.8386L94.4347 44.6811C92.8603 45.4365 90.7591 46.2558 86.6769 46.2558C80.9062 46.2558 76.0063 42.6988 76.0063 33.7762H96.6457C96.7552 33.2201 96.7959 32.6527 96.7669 32.0866C96.7669 28.0649 95.0182 19.4358 85.8623 19.4358ZM76.1817 31.5595C76.7122 27.2503 79.3294 21.7632 85.5098 21.7632C92.2764 21.7632 93.9099 27.6553 93.847 31.5595H76.1817ZM113.849 33.3108V33.1933C117.231 32.4372 119.795 30.1036 119.795 26.7218C119.795 20.717 112.856 19.783 108.194 19.783C105.694 19.7793 103.199 19.9746 100.73 20.3672V48.0643C102.129 48.179 104.811 48.3543 107.435 48.3543C112.8 48.3543 121.075 47.3054 121.075 40.3686C121.075 36.107 117.874 33.8332 113.849 33.3108ZM103.353 22.465C104.862 22.2826 106.38 22.1857 107.9 22.1749C113.967 22.1749 116.944 23.6335 116.944 27.0724C116.944 31.0377 112.041 32.3183 108.078 32.3183H103.353V22.465ZM108.078 46.0241C106.481 46.0331 104.885 45.953 103.297 45.7843V34.5955H107.781C113.034 34.5955 118.221 35.3564 118.221 40.3686C118.221 45.319 111.804 46.0241 108.078 46.0241ZM138.454 19.4358C133.554 19.4358 130.116 21.7076 128.073 25.3822H127.958L127.783 20.0737H125.104C125.278 22.7558 125.335 25.4976 125.335 28.9983V56.8224H128.133V43.5139H128.251C130.175 46.8958 133.729 48.7042 137.757 48.7042C144.516 48.7042 150.465 43.5724 150.465 33.6016C150.465 25.3822 145.627 19.4358 138.454 19.4358ZM137.579 46.3686C135.471 46.3802 133.419 45.6867 131.75 44.3981C130.081 43.1096 128.89 41.3 128.367 39.2571C128.198 38.5319 128.12 37.7885 128.133 37.0439V31.5595C128.184 30.751 128.32 29.9502 128.539 29.1702C129.051 27.0855 130.237 25.2285 131.914 23.8887C133.591 22.5489 135.664 21.8015 137.81 21.7632C144.168 21.7632 147.666 27.4249 147.666 33.717C147.666 41.181 143.99 46.3686 137.579 46.3686ZM165.569 19.4358C158.628 19.4358 152.332 24.7388 152.332 34.2986C152.332 43.0486 157.931 48.7042 165.16 48.7042H165.217C171.399 48.7042 178.569 44.2157 178.569 33.8332C178.569 25.264 173.321 19.4358 165.569 19.4358ZM165.335 46.3686H165.273C159.561 46.3686 155.13 41.1274 155.13 34.1267C155.13 28.1186 158.334 21.7632 165.51 21.7632C172.914 21.7632 175.772 28.821 175.772 33.9541C175.772 41.1274 171.168 46.3686 165.335 46.3686ZM201.776 20.0737H185.33V27.5968C185.407 31.8264 184.798 36.0404 183.526 40.0751C182.797 42.0643 181.84 43.9622 180.674 45.7307H178.457L178.682 56.8108H181.018L181.196 48.0643H201.776L201.954 56.8108H204.283L204.52 45.7307H201.776V20.0737ZM198.977 45.7307H183.766C184.747 43.983 185.563 42.1481 186.205 40.2497C187.378 36.2159 187.95 32.0311 187.901 27.8305V22.4032H198.977V45.7307ZM219.325 19.4358C212.387 19.4358 206.092 24.7388 206.092 34.2986C206.092 43.0486 211.687 48.7042 218.919 48.7042H218.973C225.155 48.7042 232.329 44.2157 232.329 33.8332C232.329 25.264 227.08 19.4358 219.325 19.4358ZM219.092 46.3686H219.035C213.321 46.3686 208.889 41.1274 208.889 34.1267C208.889 28.1186 212.096 21.7632 219.266 21.7632C226.674 21.7632 229.535 28.821 229.535 33.9541C229.535 41.1274 224.922 46.3686 219.092 46.3686ZM261.777 20.0737H258.446L253.024 33.6586C251.744 36.9243 249.764 42.2327 249.002 44.4473H248.948C248.305 42.4677 246.847 38.6729 245.975 36.3468L239.618 20.0737H236.408L234.196 48.0643H236.995L237.865 33.4297C238.043 29.9256 238.275 26.319 238.337 23.1621H238.566C239.327 25.7327 240.727 29.87 241.714 32.4372L247.724 48.0643H249.764L256.122 32.2028C257.811 28.0058 258.973 24.9705 259.495 23.1621H259.677C259.848 26.6627 260.085 29.9256 260.257 33.3108L261.072 48.0643H263.873L261.777 20.0737Z" fill="#161412"/>
<path d="M15.1903 59.7212L14.7399 59.4216L15.0656 58.9855C19.0792 53.7035 25.3958 45.2361 32.9512 45.1736C40.5065 45.2361 46.8259 53.7035 50.8391 58.9855L51.1652 59.4216L50.7144 59.7212C45.4549 63.2281 39.2726 65.0943 32.9512 65.0833C26.6302 65.0963 20.448 63.2299 15.1903 59.7212ZM32.9512 64.0548C38.8839 64.0647 44.6943 62.3679 49.6893 59.1668C45.7083 53.8489 39.5015 46.1464 32.9512 46.1988C26.4037 46.1464 20.1964 53.8489 16.213 59.1668C21.2082 62.3677 27.0185 64.0644 32.9512 64.0548ZM52.1638 58.1057C48.9271 53.4699 44.0691 46.5398 44.0487 40.1383C44.0407 39.0138 44.2106 37.8952 44.552 36.8237C46.944 29.6566 56.9512 26.266 63.2171 24.084L63.7301 23.906L63.8782 24.4284C64.6659 27.2367 65.0659 30.1394 65.067 33.0561C65.0647 36.4254 64.5316 39.7733 63.4872 42.9766C61.5445 48.9918 57.8595 54.2948 52.8992 58.213L52.4757 58.5507L52.1638 58.1057ZM45.5273 37.1437C45.2195 38.1119 45.0666 39.1225 45.0741 40.1383C45.053 45.8312 49.4611 52.4712 52.6855 57.0656C57.2738 53.3053 60.6838 48.3047 62.5086 42.66C63.5193 39.5588 64.0354 36.3178 64.0382 33.0561C64.0358 30.4156 63.6972 27.7862 63.0303 25.2314C56.7463 27.3747 47.4984 30.8951 45.5273 37.1437ZM13.0768 58.1118C8.12012 54.1908 4.43583 48.8895 2.48888 42.8767C1.44513 39.6731 0.913007 36.3249 0.912109 32.9556C0.912649 30.0387 1.31253 27.1356 2.10063 24.3272L2.24908 23.8054L2.76163 23.9801C9.02793 26.1648 19.0375 29.5554 21.4264 36.7225C21.7668 37.793 21.9369 38.9104 21.9305 40.0337C21.907 46.4365 17.0514 53.3693 13.8177 58.0024L13.5035 58.4501L13.0768 58.1118ZM1.94063 32.9556C1.94119 36.217 2.45637 39.458 3.46717 42.5588C5.29281 48.2039 8.7038 53.2046 13.2933 56.9644C16.515 52.3699 20.9226 45.7273 20.9016 40.0337C20.9105 39.0195 20.7584 38.0104 20.4512 37.0439C18.4804 30.7946 9.2321 27.2735 2.94849 25.1274C2.28013 27.6832 1.94144 30.3139 1.94063 32.9556ZM40.195 23.2157C34.119 18.7225 33.9851 8.15869 33.8432 1.52419L33.8343 0.978651L34.3768 1.00315C40.6923 1.25757 46.7902 3.3815 51.8972 7.10569C57.0185 10.8107 60.9235 15.9538 63.1166 21.8822L63.3061 22.3917L62.7844 22.5513C58.7858 23.7755 53.3081 25.4324 48.266 25.4358C45.2993 25.4358 42.4597 24.8577 40.195 23.2157ZM40.7997 22.3829C42.8153 23.8502 45.4268 24.4107 48.2661 24.4107C52.8755 24.4107 58.0299 22.9284 61.9603 21.7307C59.8037 16.2046 56.1013 11.4164 51.2956 7.93859C46.5008 4.44271 40.8013 2.40018 34.8775 2.05476C34.9783 8.6974 35.4674 18.5799 40.7997 22.3829ZM3.31294 22.4895L2.79155 22.3292L2.98411 21.8204C5.17527 15.892 9.07915 10.7487 14.1998 7.04391C19.3063 3.3185 25.4046 1.19442 31.7205 0.941308L32.2633 0.916809L32.2542 1.46235C32.1122 8.09344 31.9817 18.66 25.9026 23.1505C23.638 24.7925 20.798 25.3734 17.8313 25.3734C12.7922 25.3707 7.30848 23.7103 3.31294 22.4895ZM17.8313 24.3455C20.6706 24.3455 23.282 23.7871 25.298 22.3176C30.6329 18.5181 31.1224 8.63222 31.2202 1.99222C25.2979 2.33662 19.5996 4.37698 14.8048 7.87C9.99974 11.3499 6.29745 16.1389 4.13972 21.6655C8.06431 22.8666 13.2188 24.3483 17.8313 24.3455Z" fill="#F5CB45"/>
<path fill-rule="evenodd" clip-rule="evenodd" d="M31.7401 1.45349C31.6277 8.08667 31.3787 18.535 25.5984 22.7327C19.8213 26.9359 9.8029 23.942 3.46259 21.9976C5.63028 16.17 9.46995 11.1118 14.5003 7.45716C19.5306 3.80253 25.5278 1.71405 31.7401 1.45349ZM62.6321 22.0602C56.2917 24.0044 46.2757 26.9976 40.4962 22.7979C34.7159 18.5982 34.47 8.14913 34.3576 1.51873C40.5691 1.77959 46.5654 3.86792 51.5951 7.52202C56.6249 11.1761 60.4642 16.2334 62.6321 22.0602ZM52.5835 57.8102C48.7717 52.3795 42.8318 43.7782 45.04 36.9834C47.2479 30.1899 57.1096 26.7252 63.3787 24.5704C65.0498 30.5584 64.9169 36.9063 62.9966 42.8191C61.0763 48.7319 57.4541 53.9467 52.5835 57.8102ZM2.59435 24.4664C8.86607 26.624 18.7275 30.0894 20.9361 36.8835C23.1443 43.677 17.2041 52.2789 13.3953 57.7089C8.52288 53.8462 4.89889 48.6314 2.97751 42.7179C1.05613 36.8044 0.922844 30.4553 2.59435 24.4664ZM15.4731 59.2972C19.463 53.9976 25.8056 45.6892 32.9497 45.6892C40.0957 45.6892 46.4391 53.9976 50.4255 59.2972C45.2458 62.7361 39.1666 64.5704 32.9493 64.5704C26.732 64.5704 20.6528 62.7361 15.4731 59.2972Z" fill="url(#paint0_radial_928_37689)"/>
<path d="M62.6326 22.0602C57.137 23.7463 48.8846 26.2158 43.0185 24.1166C47.3494 19.8317 52.22 16.1291 57.5072 13.1023C59.6989 15.7846 61.4308 18.8116 62.6326 22.0602ZM52.584 57.8102C48.7722 52.3795 42.8323 43.7783 45.0405 36.9834C47.2485 30.1899 57.1102 26.7253 63.3792 24.5704C65.0504 30.5584 64.9175 36.9064 62.9972 42.8192C61.0769 48.732 57.4546 53.9467 52.584 57.8102ZM21.3724 39.05C21.9353 45.425 16.8079 52.8414 13.3959 57.709C8.5165 53.8518 4.89078 48.634 2.97737 42.7158C2.87615 42.3958 2.77598 42.0826 2.68359 41.7593C8.99875 41.6022 15.2727 40.6927 21.3724 39.05ZM15.4737 59.2973C19.4635 53.9977 25.8062 45.6893 32.9502 45.6893C40.0963 45.6893 46.4397 53.9977 50.4261 59.2973C45.2463 62.7361 39.1672 64.5704 32.9499 64.5704C26.7325 64.5704 20.6534 62.7361 15.4737 59.2973Z" fill="url(#paint1_radial_928_37689)"/>
<path opacity="0.9" d="M28.8929 12.6211C28.1255 16.4425 26.7498 19.4989 24.4618 21.1639C22.1707 22.8243 18.8361 23.1891 14.9679 22.7387C11.9533 22.3302 8.97857 21.6676 6.07562 20.7577C8.19853 16.0871 11.496 12.0467 15.6462 9.03062C19.7965 6.01458 24.6577 4.12599 29.7556 3.54913C29.7234 6.592 29.4348 9.62673 28.8929 12.6211ZM44.6442 22.5776C43.565 22.3243 42.5446 21.8656 41.6387 21.2264C39.3504 19.5641 37.975 16.5043 37.2074 12.6844C36.6639 9.69086 36.3753 6.65665 36.3446 3.61437C43.9392 4.47567 50.9102 8.22886 55.8103 14.0947C51.8157 16.5444 48.0752 19.3861 44.6442 22.5776ZM12.3392 30.6286C15.7295 32.5376 18.2166 34.7896 19.0909 37.4812C19.3059 38.1545 19.4305 38.8533 19.4615 39.5593C14.6132 40.7247 9.66622 41.4323 4.68564 41.6728C3.21587 36.9211 2.97225 31.8748 3.97747 27.0036C6.862 27.9739 9.65922 29.1865 12.3392 30.6286Z" fill="white"/>
</g>
<defs>
<radialGradient id="paint0_radial_928_37689" cx="0" cy="0" r="1" gradientUnits="userSpaceOnUse" gradientTransform="translate(32.9881 33.0119) scale(31.5606 31.5606)">
<stop stop-color="#FFE37E"/>
<stop offset="0.24276" stop-color="#FEDF79"/>
<stop offset="0.53453" stop-color="#FBD56A"/>
<stop offset="0.85038" stop-color="#F5C352"/>
<stop offset="1" stop-color="#F2B944"/>
</radialGradient>
<radialGradient id="paint1_radial_928_37689" cx="0" cy="0" r="1" gradientUnits="userSpaceOnUse" gradientTransform="translate(33.1411 61.961) scale(37.1768 37.1768)">
<stop stop-color="#FFE37E"/>
<stop offset="0.24276" stop-color="#FEDF79"/>
<stop offset="0.53453" stop-color="#FBD56A"/>
<stop offset="0.85038" stop-color="#F5C352"/>
<stop offset="1" stop-color="#F2B944"/>
</radialGradient>
<clipPath id="clip0_928_37689">
<rect width="262.961" height="64.1665" fill="white" transform="translate(0.912109 0.916748)"/>
</clipPath>
</defs>
</svg>
