<svg width="183" height="64" viewBox="0 0 183 64" fill="none" xmlns="http://www.w3.org/2000/svg">
<g clip-path="url(#clip0_928_37649)">
<path d="M116.588 0.894049C113.801 1.43231 111.938 3.3729 111.331 6.36169C111.152 7.23991 111.138 8.65639 111.165 15.413L111.207 23.4303L111.593 24.5494C112.683 27.7081 114.808 29.1671 118.312 29.1671C121.914 29.1671 124.052 27.609 125.156 24.2094C125.391 23.5012 125.418 22.7221 125.46 15.5122C125.501 8.6139 125.473 7.43822 125.28 6.44667C124.742 3.69869 123.224 1.8431 120.934 1.10652C119.816 0.752401 117.816 0.653246 116.588 0.894049ZM119.375 5.37015C119.623 5.5118 119.954 5.92257 120.134 6.24837L120.451 6.85746V15.0023V23.147L120.134 23.7561C119.471 25.0168 117.912 25.2434 116.919 24.2236C116.119 23.402 116.091 23.1046 116.132 14.5631L116.174 6.99911L116.519 6.29086C117.071 5.15767 118.368 4.73273 119.375 5.37015Z" fill="#1C1C1C"/>
<path d="M116.588 0.894049C113.801 1.43231 111.938 3.3729 111.331 6.36169C111.152 7.23991 111.138 8.65639 111.165 15.413L111.207 23.4303L111.593 24.5494C112.683 27.7081 114.808 29.1671 118.312 29.1671C121.914 29.1671 124.052 27.609 125.156 24.2094C125.391 23.5012 125.418 22.7221 125.46 15.5122C125.501 8.6139 125.473 7.43822 125.28 6.44667C124.742 3.69869 123.224 1.8431 120.934 1.10652C119.816 0.752401 117.816 0.653246 116.588 0.894049ZM119.375 5.37015C119.623 5.5118 119.954 5.92257 120.134 6.24837L120.451 6.85746V15.0023V23.147L120.134 23.7561C119.471 25.0168 117.912 25.2434 116.919 24.2236C116.119 23.402 116.091 23.1046 116.132 14.5631L116.174 6.99911L116.519 6.29086C117.071 5.15767 118.368 4.73273 119.375 5.37015Z" fill="black" fill-opacity="0.2"/>
<path d="M116.588 0.894049C113.801 1.43231 111.938 3.3729 111.331 6.36169C111.152 7.23991 111.138 8.65639 111.165 15.413L111.207 23.4303L111.593 24.5494C112.683 27.7081 114.808 29.1671 118.312 29.1671C121.914 29.1671 124.052 27.609 125.156 24.2094C125.391 23.5012 125.418 22.7221 125.46 15.5122C125.501 8.6139 125.473 7.43822 125.28 6.44667C124.742 3.69869 123.224 1.8431 120.934 1.10652C119.816 0.752401 117.816 0.653246 116.588 0.894049ZM119.375 5.37015C119.623 5.5118 119.954 5.92257 120.134 6.24837L120.451 6.85746V15.0023V23.147L120.134 23.7561C119.471 25.0168 117.912 25.2434 116.919 24.2236C116.119 23.402 116.091 23.1046 116.132 14.5631L116.174 6.99911L116.519 6.29086C117.071 5.15767 118.368 4.73273 119.375 5.37015Z" fill="black" fill-opacity="0.2"/>
<path d="M116.588 0.894049C113.801 1.43231 111.938 3.3729 111.331 6.36169C111.152 7.23991 111.138 8.65639 111.165 15.413L111.207 23.4303L111.593 24.5494C112.683 27.7081 114.808 29.1671 118.312 29.1671C121.914 29.1671 124.052 27.609 125.156 24.2094C125.391 23.5012 125.418 22.7221 125.46 15.5122C125.501 8.6139 125.473 7.43822 125.28 6.44667C124.742 3.69869 123.224 1.8431 120.934 1.10652C119.816 0.752401 117.816 0.653246 116.588 0.894049ZM119.375 5.37015C119.623 5.5118 119.954 5.92257 120.134 6.24837L120.451 6.85746V15.0023V23.147L120.134 23.7561C119.471 25.0168 117.912 25.2434 116.919 24.2236C116.119 23.402 116.091 23.1046 116.132 14.5631L116.174 6.99911L116.519 6.29086C117.071 5.15767 118.368 4.73273 119.375 5.37015Z" fill="black" fill-opacity="0.2"/>
<path d="M22.832 32V62.8794H35.9122H48.9785L55.3668 55.7686L61.7413 48.6579V31.9858V15.328L55.3668 8.21719L48.9785 1.1206H35.9122H22.832V32ZM48.882 47.2414L48.8406 62.4686L42.604 55.5562L36.3675 48.6437V32V15.3563L42.604 8.42967L48.8406 1.51722L48.882 16.7586C48.8958 25.1442 48.8958 38.8558 48.882 47.2414Z" fill="#1C1C1C"/>
<path d="M22.832 32V62.8794H35.9122H48.9785L55.3668 55.7686L61.7413 48.6579V31.9858V15.328L55.3668 8.21719L48.9785 1.1206H35.9122H22.832V32ZM48.882 47.2414L48.8406 62.4686L42.604 55.5562L36.3675 48.6437V32V15.3563L42.604 8.42967L48.8406 1.51722L48.882 16.7586C48.8958 25.1442 48.8958 38.8558 48.882 47.2414Z" fill="black" fill-opacity="0.2"/>
<path d="M22.832 32V62.8794H35.9122H48.9785L55.3668 55.7686L61.7413 48.6579V31.9858V15.328L55.3668 8.21719L48.9785 1.1206H35.9122H22.832V32ZM48.882 47.2414L48.8406 62.4686L42.604 55.5562L36.3675 48.6437V32V15.3563L42.604 8.42967L48.8406 1.51722L48.882 16.7586C48.8958 25.1442 48.8958 38.8558 48.882 47.2414Z" fill="black" fill-opacity="0.2"/>
<path d="M22.832 32V62.8794H35.9122H48.9785L55.3668 55.7686L61.7413 48.6579V31.9858V15.328L55.3668 8.21719L48.9785 1.1206H35.9122H22.832V32ZM48.882 47.2414L48.8406 62.4686L42.604 55.5562L36.3675 48.6437V32V15.3563L42.604 8.42967L48.8406 1.51722L48.882 16.7586C48.8958 25.1442 48.8958 38.8558 48.882 47.2414Z" fill="black" fill-opacity="0.2"/>
<path d="M78.1621 14.9172V28.7421H80.4387H82.7153V24.1385V19.535H84.4952C85.4611 19.535 86.5649 19.4783 86.9374 19.4075C89.421 18.9259 90.9249 17.4952 91.4768 15.1297C91.7666 13.8407 91.7666 6.97073 91.4768 5.68173C90.9525 3.42952 89.7107 2.06969 87.6135 1.4606C86.9374 1.26229 85.9578 1.20563 82.4808 1.16314L78.1621 1.09231V14.9172ZM85.7508 5.59674C86.0544 5.76672 86.3579 6.135 86.5787 6.57412C86.9098 7.26819 86.9236 7.35318 86.9236 10.3986C86.9236 13.3874 86.9098 13.5432 86.5925 14.1948C86.1371 15.158 85.5714 15.4272 83.9571 15.4272H82.7153V10.3136V5.20012L83.9985 5.25678C84.9505 5.29928 85.4059 5.38427 85.7508 5.59674Z" fill="#1C1C1C"/>
<path d="M78.1621 14.9172V28.7421H80.4387H82.7153V24.1385V19.535H84.4952C85.4611 19.535 86.5649 19.4783 86.9374 19.4075C89.421 18.9259 90.9249 17.4952 91.4768 15.1297C91.7666 13.8407 91.7666 6.97073 91.4768 5.68173C90.9525 3.42952 89.7107 2.06969 87.6135 1.4606C86.9374 1.26229 85.9578 1.20563 82.4808 1.16314L78.1621 1.09231V14.9172ZM85.7508 5.59674C86.0544 5.76672 86.3579 6.135 86.5787 6.57412C86.9098 7.26819 86.9236 7.35318 86.9236 10.3986C86.9236 13.3874 86.9098 13.5432 86.5925 14.1948C86.1371 15.158 85.5714 15.4272 83.9571 15.4272H82.7153V10.3136V5.20012L83.9985 5.25678C84.9505 5.29928 85.4059 5.38427 85.7508 5.59674Z" fill="black" fill-opacity="0.2"/>
<path d="M78.1621 14.9172V28.7421H80.4387H82.7153V24.1385V19.535H84.4952C85.4611 19.535 86.5649 19.4783 86.9374 19.4075C89.421 18.9259 90.9249 17.4952 91.4768 15.1297C91.7666 13.8407 91.7666 6.97073 91.4768 5.68173C90.9525 3.42952 89.7107 2.06969 87.6135 1.4606C86.9374 1.26229 85.9578 1.20563 82.4808 1.16314L78.1621 1.09231V14.9172ZM85.7508 5.59674C86.0544 5.76672 86.3579 6.135 86.5787 6.57412C86.9098 7.26819 86.9236 7.35318 86.9236 10.3986C86.9236 13.3874 86.9098 13.5432 86.5925 14.1948C86.1371 15.158 85.5714 15.4272 83.9571 15.4272H82.7153V10.3136V5.20012L83.9985 5.25678C84.9505 5.29928 85.4059 5.38427 85.7508 5.59674Z" fill="black" fill-opacity="0.2"/>
<path d="M78.1621 14.9172V28.7421H80.4387H82.7153V24.1385V19.535H84.4952C85.4611 19.535 86.5649 19.4783 86.9374 19.4075C89.421 18.9259 90.9249 17.4952 91.4768 15.1297C91.7666 13.8407 91.7666 6.97073 91.4768 5.68173C90.9525 3.42952 89.7107 2.06969 87.6135 1.4606C86.9374 1.26229 85.9578 1.20563 82.4808 1.16314L78.1621 1.09231V14.9172ZM85.7508 5.59674C86.0544 5.76672 86.3579 6.135 86.5787 6.57412C86.9098 7.26819 86.9236 7.35318 86.9236 10.3986C86.9236 13.3874 86.9098 13.5432 86.5925 14.1948C86.1371 15.158 85.5714 15.4272 83.9571 15.4272H82.7153V10.3136V5.20012L83.9985 5.25678C84.9505 5.29928 85.4059 5.38427 85.7508 5.59674Z" fill="black" fill-opacity="0.2"/>
<path d="M94.582 14.9172V28.7421H96.8586H99.1352V23.9969V19.2517H100.294C101.702 19.2517 102.226 19.4216 102.571 20.0166C102.75 20.314 103.109 21.8297 103.606 24.5493C104.033 26.8015 104.392 28.6713 104.42 28.6996C104.447 28.728 105.565 28.728 106.89 28.7138L109.304 28.6713L108.435 24.1952C107.966 21.7305 107.455 19.4358 107.317 19.0959C106.959 18.2743 106.42 17.6369 105.896 17.4102C105.675 17.3111 105.482 17.1978 105.482 17.1411C105.482 17.0986 105.703 16.9003 105.951 16.702C106.669 16.1637 107.386 15.073 107.704 14.0248C107.966 13.2316 108.021 12.6508 108.076 10.1578C108.145 7.05572 108.035 5.9367 107.538 4.59103C107.179 3.61366 106.2 2.48047 105.289 2.01303C103.895 1.29062 103.495 1.23396 98.9007 1.16314L94.582 1.09231V14.9172ZM102.171 5.59674C102.819 5.97919 103.095 6.53162 103.288 7.77813C103.468 8.96798 103.371 12.3534 103.137 13.1749C102.792 14.4073 102.074 14.8747 100.349 14.9739L99.1352 15.0447V10.1153V5.20012L100.418 5.25678C101.37 5.29928 101.826 5.38427 102.171 5.59674Z" fill="#1C1C1C"/>
<path d="M94.582 14.9172V28.7421H96.8586H99.1352V23.9969V19.2517H100.294C101.702 19.2517 102.226 19.4216 102.571 20.0166C102.75 20.314 103.109 21.8297 103.606 24.5493C104.033 26.8015 104.392 28.6713 104.42 28.6996C104.447 28.728 105.565 28.728 106.89 28.7138L109.304 28.6713L108.435 24.1952C107.966 21.7305 107.455 19.4358 107.317 19.0959C106.959 18.2743 106.42 17.6369 105.896 17.4102C105.675 17.3111 105.482 17.1978 105.482 17.1411C105.482 17.0986 105.703 16.9003 105.951 16.702C106.669 16.1637 107.386 15.073 107.704 14.0248C107.966 13.2316 108.021 12.6508 108.076 10.1578C108.145 7.05572 108.035 5.9367 107.538 4.59103C107.179 3.61366 106.2 2.48047 105.289 2.01303C103.895 1.29062 103.495 1.23396 98.9007 1.16314L94.582 1.09231V14.9172ZM102.171 5.59674C102.819 5.97919 103.095 6.53162 103.288 7.77813C103.468 8.96798 103.371 12.3534 103.137 13.1749C102.792 14.4073 102.074 14.8747 100.349 14.9739L99.1352 15.0447V10.1153V5.20012L100.418 5.25678C101.37 5.29928 101.826 5.38427 102.171 5.59674Z" fill="black" fill-opacity="0.2"/>
<path d="M94.582 14.9172V28.7421H96.8586H99.1352V23.9969V19.2517H100.294C101.702 19.2517 102.226 19.4216 102.571 20.0166C102.75 20.314 103.109 21.8297 103.606 24.5493C104.033 26.8015 104.392 28.6713 104.42 28.6996C104.447 28.728 105.565 28.728 106.89 28.7138L109.304 28.6713L108.435 24.1952C107.966 21.7305 107.455 19.4358 107.317 19.0959C106.959 18.2743 106.42 17.6369 105.896 17.4102C105.675 17.3111 105.482 17.1978 105.482 17.1411C105.482 17.0986 105.703 16.9003 105.951 16.702C106.669 16.1637 107.386 15.073 107.704 14.0248C107.966 13.2316 108.021 12.6508 108.076 10.1578C108.145 7.05572 108.035 5.9367 107.538 4.59103C107.179 3.61366 106.2 2.48047 105.289 2.01303C103.895 1.29062 103.495 1.23396 98.9007 1.16314L94.582 1.09231V14.9172ZM102.171 5.59674C102.819 5.97919 103.095 6.53162 103.288 7.77813C103.468 8.96798 103.371 12.3534 103.137 13.1749C102.792 14.4073 102.074 14.8747 100.349 14.9739L99.1352 15.0447V10.1153V5.20012L100.418 5.25678C101.37 5.29928 101.826 5.38427 102.171 5.59674Z" fill="black" fill-opacity="0.2"/>
<path d="M94.582 14.9172V28.7421H96.8586H99.1352V23.9969V19.2517H100.294C101.702 19.2517 102.226 19.4216 102.571 20.0166C102.75 20.314 103.109 21.8297 103.606 24.5493C104.033 26.8015 104.392 28.6713 104.42 28.6996C104.447 28.728 105.565 28.728 106.89 28.7138L109.304 28.6713L108.435 24.1952C107.966 21.7305 107.455 19.4358 107.317 19.0959C106.959 18.2743 106.42 17.6369 105.896 17.4102C105.675 17.3111 105.482 17.1978 105.482 17.1411C105.482 17.0986 105.703 16.9003 105.951 16.702C106.669 16.1637 107.386 15.073 107.704 14.0248C107.966 13.2316 108.021 12.6508 108.076 10.1578C108.145 7.05572 108.035 5.9367 107.538 4.59103C107.179 3.61366 106.2 2.48047 105.289 2.01303C103.895 1.29062 103.495 1.23396 98.9007 1.16314L94.582 1.09231V14.9172ZM102.171 5.59674C102.819 5.97919 103.095 6.53162 103.288 7.77813C103.468 8.96798 103.371 12.3534 103.137 13.1749C102.792 14.4073 102.074 14.8747 100.349 14.9739L99.1352 15.0447V10.1153V5.20012L100.418 5.25678C101.37 5.29928 101.826 5.38427 102.171 5.59674Z" fill="black" fill-opacity="0.2"/>
<path d="M128.523 14.9314V28.7421H130.869H133.215V23.2887V17.8352H136.043H138.872V15.498V13.1608H136.043H133.215V9.47791V5.79505H136.043H138.872V3.45784V1.12064H133.698H128.523V14.9314Z" fill="#1C1C1C"/>
<path d="M128.523 14.9314V28.7421H130.869H133.215V23.2887V17.8352H136.043H138.872V15.498V13.1608H136.043H133.215V9.47791V5.79505H136.043H138.872V3.45784V1.12064H133.698H128.523V14.9314Z" fill="black" fill-opacity="0.2"/>
<path d="M128.523 14.9314V28.7421H130.869H133.215V23.2887V17.8352H136.043H138.872V15.498V13.1608H136.043H133.215V9.47791V5.79505H136.043H138.872V3.45784V1.12064H133.698H128.523V14.9314Z" fill="black" fill-opacity="0.2"/>
<path d="M128.523 14.9314V28.7421H130.869H133.215V23.2887V17.8352H136.043H138.872V15.498V13.1608H136.043H133.215V9.47791V5.79505H136.043H138.872V3.45784V1.12064H133.698H128.523V14.9314Z" fill="black" fill-opacity="0.2"/>
<path d="M141.494 14.9314V28.7421H143.909H146.323V14.9314V1.12064H143.909H141.494V14.9314Z" fill="#1C1C1C"/>
<path d="M141.494 14.9314V28.7421H143.909H146.323V14.9314V1.12064H143.909H141.494V14.9314Z" fill="black" fill-opacity="0.2"/>
<path d="M141.494 14.9314V28.7421H143.909H146.323V14.9314V1.12064H143.909H141.494V14.9314Z" fill="black" fill-opacity="0.2"/>
<path d="M141.494 14.9314V28.7421H143.909H146.323V14.9314V1.12064H143.909H141.494V14.9314Z" fill="black" fill-opacity="0.2"/>
<path d="M150.049 14.9314V28.7421H155.085H160.121V26.4757V24.2094H157.431H154.74V12.665V1.12064H152.394H150.049V14.9314Z" fill="#1C1C1C"/>
<path d="M150.049 14.9314V28.7421H155.085H160.121V26.4757V24.2094H157.431H154.74V12.665V1.12064H152.394H150.049V14.9314Z" fill="black" fill-opacity="0.2"/>
<path d="M150.049 14.9314V28.7421H155.085H160.121V26.4757V24.2094H157.431H154.74V12.665V1.12064H152.394H150.049V14.9314Z" fill="black" fill-opacity="0.2"/>
<path d="M150.049 14.9314V28.7421H155.085H160.121V26.4757V24.2094H157.431H154.74V12.665V1.12064H152.394H150.049V14.9314Z" fill="black" fill-opacity="0.2"/>
<path d="M100.004 35.0313C97.6998 35.6121 96.0993 37.2552 95.3128 39.8615C95.0783 40.6406 95.0645 41.363 95.0645 48.9979V57.2843L95.3956 58.4033C96.2924 61.378 98.3207 62.9644 101.577 63.2336C104.654 63.4885 107.289 62.1429 108.448 59.7207C109.317 57.9076 109.345 57.5818 109.345 49.097C109.345 42.6945 109.304 41.3063 109.124 40.3856C108.559 37.5527 106.944 35.7254 104.419 35.0455C103.467 34.7905 101.025 34.7763 100.004 35.0313ZM103.095 39.3516C103.509 39.5499 103.757 39.8049 103.992 40.244L104.309 40.8531V48.9979C104.309 56.8594 104.295 57.1568 104.033 57.7093C103.246 59.324 101.191 59.324 100.377 57.6951L100.032 57.0152L99.9902 49.5078C99.9626 44.4509 100.004 41.7738 100.101 41.2639C100.294 40.329 100.721 39.6491 101.342 39.3374C101.963 39.0116 102.377 39.0258 103.095 39.3516Z" fill="#1C1C1C"/>
<path d="M100.004 35.0313C97.6998 35.6121 96.0993 37.2552 95.3128 39.8615C95.0783 40.6406 95.0645 41.363 95.0645 48.9979V57.2843L95.3956 58.4033C96.2924 61.378 98.3207 62.9644 101.577 63.2336C104.654 63.4885 107.289 62.1429 108.448 59.7207C109.317 57.9076 109.345 57.5818 109.345 49.097C109.345 42.6945 109.304 41.3063 109.124 40.3856C108.559 37.5527 106.944 35.7254 104.419 35.0455C103.467 34.7905 101.025 34.7763 100.004 35.0313ZM103.095 39.3516C103.509 39.5499 103.757 39.8049 103.992 40.244L104.309 40.8531V48.9979C104.309 56.8594 104.295 57.1568 104.033 57.7093C103.246 59.324 101.191 59.324 100.377 57.6951L100.032 57.0152L99.9902 49.5078C99.9626 44.4509 100.004 41.7738 100.101 41.2639C100.294 40.329 100.721 39.6491 101.342 39.3374C101.963 39.0116 102.377 39.0258 103.095 39.3516Z" fill="black" fill-opacity="0.2"/>
<path d="M100.004 35.0313C97.6998 35.6121 96.0993 37.2552 95.3128 39.8615C95.0783 40.6406 95.0645 41.363 95.0645 48.9979V57.2843L95.3956 58.4033C96.2924 61.378 98.3207 62.9644 101.577 63.2336C104.654 63.4885 107.289 62.1429 108.448 59.7207C109.317 57.9076 109.345 57.5818 109.345 49.097C109.345 42.6945 109.304 41.3063 109.124 40.3856C108.559 37.5527 106.944 35.7254 104.419 35.0455C103.467 34.7905 101.025 34.7763 100.004 35.0313ZM103.095 39.3516C103.509 39.5499 103.757 39.8049 103.992 40.244L104.309 40.8531V48.9979C104.309 56.8594 104.295 57.1568 104.033 57.7093C103.246 59.324 101.191 59.324 100.377 57.6951L100.032 57.0152L99.9902 49.5078C99.9626 44.4509 100.004 41.7738 100.101 41.2639C100.294 40.329 100.721 39.6491 101.342 39.3374C101.963 39.0116 102.377 39.0258 103.095 39.3516Z" fill="black" fill-opacity="0.2"/>
<path d="M100.004 35.0313C97.6998 35.6121 96.0993 37.2552 95.3128 39.8615C95.0783 40.6406 95.0645 41.363 95.0645 48.9979V57.2843L95.3956 58.4033C96.2924 61.378 98.3207 62.9644 101.577 63.2336C104.654 63.4885 107.289 62.1429 108.448 59.7207C109.317 57.9076 109.345 57.5818 109.345 49.097C109.345 42.6945 109.304 41.3063 109.124 40.3856C108.559 37.5527 106.944 35.7254 104.419 35.0455C103.467 34.7905 101.025 34.7763 100.004 35.0313ZM103.095 39.3516C103.509 39.5499 103.757 39.8049 103.992 40.244L104.309 40.8531V48.9979C104.309 56.8594 104.295 57.1568 104.033 57.7093C103.246 59.324 101.191 59.324 100.377 57.6951L100.032 57.0152L99.9902 49.5078C99.9626 44.4509 100.004 41.7738 100.101 41.2639C100.294 40.329 100.721 39.6491 101.342 39.3374C101.963 39.0116 102.377 39.0258 103.095 39.3516Z" fill="black" fill-opacity="0.2"/>
<path d="M117.347 35.0597C115.043 35.6829 113.443 37.3402 112.711 39.8757C112.491 40.6123 112.463 41.5613 112.422 48.3888C112.353 57.0719 112.408 57.7235 113.263 59.5649C114.395 62.0154 116.478 63.2194 119.624 63.2194C121.983 63.2194 123.515 62.6387 124.784 61.2505C125.612 60.3581 126.109 59.3666 126.468 57.9501C126.716 56.9586 126.73 56.3353 126.73 49.0829C126.73 40.499 126.688 40.074 125.902 38.4167C125.074 36.7028 123.681 35.5413 121.832 35.0455C120.797 34.7764 118.368 34.7764 117.347 35.0597ZM120.797 39.5074C121.004 39.6633 121.294 40.0315 121.431 40.3148C121.68 40.8248 121.694 41.3205 121.694 49.0687C121.694 57.1002 121.694 57.2985 121.404 57.7801C120.949 58.6017 120.314 58.9558 119.445 58.885C118.824 58.8283 118.631 58.7433 118.244 58.3325C117.361 57.426 117.334 57.0719 117.375 48.6154C117.416 41.3489 117.43 41.1222 117.706 40.499C118.037 39.7624 118.396 39.4083 118.948 39.2241C119.5 39.04 120.341 39.1816 120.797 39.5074Z" fill="#1C1C1C"/>
<path d="M117.347 35.0597C115.043 35.6829 113.443 37.3402 112.711 39.8757C112.491 40.6123 112.463 41.5613 112.422 48.3888C112.353 57.0719 112.408 57.7235 113.263 59.5649C114.395 62.0154 116.478 63.2194 119.624 63.2194C121.983 63.2194 123.515 62.6387 124.784 61.2505C125.612 60.3581 126.109 59.3666 126.468 57.9501C126.716 56.9586 126.73 56.3353 126.73 49.0829C126.73 40.499 126.688 40.074 125.902 38.4167C125.074 36.7028 123.681 35.5413 121.832 35.0455C120.797 34.7764 118.368 34.7764 117.347 35.0597ZM120.797 39.5074C121.004 39.6633 121.294 40.0315 121.431 40.3148C121.68 40.8248 121.694 41.3205 121.694 49.0687C121.694 57.1002 121.694 57.2985 121.404 57.7801C120.949 58.6017 120.314 58.9558 119.445 58.885C118.824 58.8283 118.631 58.7433 118.244 58.3325C117.361 57.426 117.334 57.0719 117.375 48.6154C117.416 41.3489 117.43 41.1222 117.706 40.499C118.037 39.7624 118.396 39.4083 118.948 39.2241C119.5 39.04 120.341 39.1816 120.797 39.5074Z" fill="black" fill-opacity="0.2"/>
<path d="M117.347 35.0597C115.043 35.6829 113.443 37.3402 112.711 39.8757C112.491 40.6123 112.463 41.5613 112.422 48.3888C112.353 57.0719 112.408 57.7235 113.263 59.5649C114.395 62.0154 116.478 63.2194 119.624 63.2194C121.983 63.2194 123.515 62.6387 124.784 61.2505C125.612 60.3581 126.109 59.3666 126.468 57.9501C126.716 56.9586 126.73 56.3353 126.73 49.0829C126.73 40.499 126.688 40.074 125.902 38.4167C125.074 36.7028 123.681 35.5413 121.832 35.0455C120.797 34.7764 118.368 34.7764 117.347 35.0597ZM120.797 39.5074C121.004 39.6633 121.294 40.0315 121.431 40.3148C121.68 40.8248 121.694 41.3205 121.694 49.0687C121.694 57.1002 121.694 57.2985 121.404 57.7801C120.949 58.6017 120.314 58.9558 119.445 58.885C118.824 58.8283 118.631 58.7433 118.244 58.3325C117.361 57.426 117.334 57.0719 117.375 48.6154C117.416 41.3489 117.43 41.1222 117.706 40.499C118.037 39.7624 118.396 39.4083 118.948 39.2241C119.5 39.04 120.341 39.1816 120.797 39.5074Z" fill="black" fill-opacity="0.2"/>
<path d="M117.347 35.0597C115.043 35.6829 113.443 37.3402 112.711 39.8757C112.491 40.6123 112.463 41.5613 112.422 48.3888C112.353 57.0719 112.408 57.7235 113.263 59.5649C114.395 62.0154 116.478 63.2194 119.624 63.2194C121.983 63.2194 123.515 62.6387 124.784 61.2505C125.612 60.3581 126.109 59.3666 126.468 57.9501C126.716 56.9586 126.73 56.3353 126.73 49.0829C126.73 40.499 126.688 40.074 125.902 38.4167C125.074 36.7028 123.681 35.5413 121.832 35.0455C120.797 34.7764 118.368 34.7764 117.347 35.0597ZM120.797 39.5074C121.004 39.6633 121.294 40.0315 121.431 40.3148C121.68 40.8248 121.694 41.3205 121.694 49.0687C121.694 57.1002 121.694 57.2985 121.404 57.7801C120.949 58.6017 120.314 58.9558 119.445 58.885C118.824 58.8283 118.631 58.7433 118.244 58.3325C117.361 57.426 117.334 57.0719 117.375 48.6154C117.416 41.3489 117.43 41.1222 117.706 40.499C118.037 39.7624 118.396 39.4083 118.948 39.2241C119.5 39.04 120.341 39.1816 120.797 39.5074Z" fill="black" fill-opacity="0.2"/>
<path d="M151.167 35.0455C148.835 35.7112 147.193 37.5668 146.669 40.1448C146.227 42.2696 146.517 44.7201 147.4 46.5899C148.049 47.9497 149.484 49.437 151.429 50.7685C153.968 52.5108 154.713 53.5873 154.837 55.6979C154.975 57.9359 154.285 59.2674 152.961 59.2674C151.539 59.2674 150.96 58.3042 150.946 55.8678C150.946 55.0038 150.987 54.1397 151.056 53.9131L151.153 53.5306H148.89H146.627L146.476 54.2389C146.227 55.4146 146.283 57.596 146.6 58.8425C146.945 60.2165 147.359 60.9672 148.256 61.7888C150.146 63.531 154.092 63.7577 156.562 62.2704C157.9 61.463 159.045 59.7349 159.418 57.9501C159.639 56.8736 159.597 54.338 159.349 53.2473C159.238 52.7374 158.921 51.845 158.631 51.2643C157.983 49.8903 156.438 48.2755 154.464 46.9157C153.002 45.8958 152.036 44.9892 151.664 44.2243C151.277 43.4736 151.125 42.1138 151.291 41.0656C151.539 39.5358 152.16 38.7709 153.154 38.7709C154.478 38.7709 155.127 40.3148 154.989 43.1195L154.92 44.4651H157.155H159.404L159.487 44.026C159.639 43.2186 159.57 40.3007 159.376 39.3375C158.949 37.3119 157.873 35.8671 156.286 35.2438C155.251 34.833 152.312 34.7197 151.167 35.0455Z" fill="#1C1C1C"/>
<path d="M151.167 35.0455C148.835 35.7112 147.193 37.5668 146.669 40.1448C146.227 42.2696 146.517 44.7201 147.4 46.5899C148.049 47.9497 149.484 49.437 151.429 50.7685C153.968 52.5108 154.713 53.5873 154.837 55.6979C154.975 57.9359 154.285 59.2674 152.961 59.2674C151.539 59.2674 150.96 58.3042 150.946 55.8678C150.946 55.0038 150.987 54.1397 151.056 53.9131L151.153 53.5306H148.89H146.627L146.476 54.2389C146.227 55.4146 146.283 57.596 146.6 58.8425C146.945 60.2165 147.359 60.9672 148.256 61.7888C150.146 63.531 154.092 63.7577 156.562 62.2704C157.9 61.463 159.045 59.7349 159.418 57.9501C159.639 56.8736 159.597 54.338 159.349 53.2473C159.238 52.7374 158.921 51.845 158.631 51.2643C157.983 49.8903 156.438 48.2755 154.464 46.9157C153.002 45.8958 152.036 44.9892 151.664 44.2243C151.277 43.4736 151.125 42.1138 151.291 41.0656C151.539 39.5358 152.16 38.7709 153.154 38.7709C154.478 38.7709 155.127 40.3148 154.989 43.1195L154.92 44.4651H157.155H159.404L159.487 44.026C159.639 43.2186 159.57 40.3007 159.376 39.3375C158.949 37.3119 157.873 35.8671 156.286 35.2438C155.251 34.833 152.312 34.7197 151.167 35.0455Z" fill="black" fill-opacity="0.2"/>
<path d="M151.167 35.0455C148.835 35.7112 147.193 37.5668 146.669 40.1448C146.227 42.2696 146.517 44.7201 147.4 46.5899C148.049 47.9497 149.484 49.437 151.429 50.7685C153.968 52.5108 154.713 53.5873 154.837 55.6979C154.975 57.9359 154.285 59.2674 152.961 59.2674C151.539 59.2674 150.96 58.3042 150.946 55.8678C150.946 55.0038 150.987 54.1397 151.056 53.9131L151.153 53.5306H148.89H146.627L146.476 54.2389C146.227 55.4146 146.283 57.596 146.6 58.8425C146.945 60.2165 147.359 60.9672 148.256 61.7888C150.146 63.531 154.092 63.7577 156.562 62.2704C157.9 61.463 159.045 59.7349 159.418 57.9501C159.639 56.8736 159.597 54.338 159.349 53.2473C159.238 52.7374 158.921 51.845 158.631 51.2643C157.983 49.8903 156.438 48.2755 154.464 46.9157C153.002 45.8958 152.036 44.9892 151.664 44.2243C151.277 43.4736 151.125 42.1138 151.291 41.0656C151.539 39.5358 152.16 38.7709 153.154 38.7709C154.478 38.7709 155.127 40.3148 154.989 43.1195L154.92 44.4651H157.155H159.404L159.487 44.026C159.639 43.2186 159.57 40.3007 159.376 39.3375C158.949 37.3119 157.873 35.8671 156.286 35.2438C155.251 34.833 152.312 34.7197 151.167 35.0455Z" fill="black" fill-opacity="0.2"/>
<path d="M151.167 35.0455C148.835 35.7112 147.193 37.5668 146.669 40.1448C146.227 42.2696 146.517 44.7201 147.4 46.5899C148.049 47.9497 149.484 49.437 151.429 50.7685C153.968 52.5108 154.713 53.5873 154.837 55.6979C154.975 57.9359 154.285 59.2674 152.961 59.2674C151.539 59.2674 150.96 58.3042 150.946 55.8678C150.946 55.0038 150.987 54.1397 151.056 53.9131L151.153 53.5306H148.89H146.627L146.476 54.2389C146.227 55.4146 146.283 57.596 146.6 58.8425C146.945 60.2165 147.359 60.9672 148.256 61.7888C150.146 63.531 154.092 63.7577 156.562 62.2704C157.9 61.463 159.045 59.7349 159.418 57.9501C159.639 56.8736 159.597 54.338 159.349 53.2473C159.238 52.7374 158.921 51.845 158.631 51.2643C157.983 49.8903 156.438 48.2755 154.464 46.9157C153.002 45.8958 152.036 44.9892 151.664 44.2243C151.277 43.4736 151.125 42.1138 151.291 41.0656C151.539 39.5358 152.16 38.7709 153.154 38.7709C154.478 38.7709 155.127 40.3148 154.989 43.1195L154.92 44.4651H157.155H159.404L159.487 44.026C159.639 43.2186 159.57 40.3007 159.376 39.3375C158.949 37.3119 157.873 35.8671 156.286 35.2438C155.251 34.833 152.312 34.7197 151.167 35.0455Z" fill="black" fill-opacity="0.2"/>
<path d="M78.3008 49.0829V62.9078L82.2055 62.837C85.2272 62.7804 86.2758 62.7237 86.9243 62.5396C89.2561 61.8738 90.6221 60.6415 91.4361 58.4034C91.7397 57.5818 91.7535 57.4544 91.7949 49.4795C91.8225 42.5529 91.8087 41.2356 91.6155 40.4282C91.0222 37.7652 89.4079 36.0938 86.8277 35.4705C86.1654 35.3147 85.034 35.258 82.1365 35.258H78.3008V49.0829ZM85.7791 39.6916C86.1654 39.9041 86.4138 40.2157 86.6897 40.7682L87.0623 41.5614L87.1037 48.6155C87.1313 54.6214 87.1175 55.7971 86.9243 56.5336C86.538 58.1059 85.8757 58.63 84.1372 58.7434L83.13 58.8142V48.9979V39.1817L84.1924 39.2808C84.8822 39.3517 85.448 39.4933 85.7791 39.6916Z" fill="#1C1C1C"/>
<path d="M78.3008 49.0829V62.9078L82.2055 62.837C85.2272 62.7804 86.2758 62.7237 86.9243 62.5396C89.2561 61.8738 90.6221 60.6415 91.4361 58.4034C91.7397 57.5818 91.7535 57.4544 91.7949 49.4795C91.8225 42.5529 91.8087 41.2356 91.6155 40.4282C91.0222 37.7652 89.4079 36.0938 86.8277 35.4705C86.1654 35.3147 85.034 35.258 82.1365 35.258H78.3008V49.0829ZM85.7791 39.6916C86.1654 39.9041 86.4138 40.2157 86.6897 40.7682L87.0623 41.5614L87.1037 48.6155C87.1313 54.6214 87.1175 55.7971 86.9243 56.5336C86.538 58.1059 85.8757 58.63 84.1372 58.7434L83.13 58.8142V48.9979V39.1817L84.1924 39.2808C84.8822 39.3517 85.448 39.4933 85.7791 39.6916Z" fill="black" fill-opacity="0.2"/>
<path d="M78.3008 49.0829V62.9078L82.2055 62.837C85.2272 62.7804 86.2758 62.7237 86.9243 62.5396C89.2561 61.8738 90.6221 60.6415 91.4361 58.4034C91.7397 57.5818 91.7535 57.4544 91.7949 49.4795C91.8225 42.5529 91.8087 41.2356 91.6155 40.4282C91.0222 37.7652 89.4079 36.0938 86.8277 35.4705C86.1654 35.3147 85.034 35.258 82.1365 35.258H78.3008V49.0829ZM85.7791 39.6916C86.1654 39.9041 86.4138 40.2157 86.6897 40.7682L87.0623 41.5614L87.1037 48.6155C87.1313 54.6214 87.1175 55.7971 86.9243 56.5336C86.538 58.1059 85.8757 58.63 84.1372 58.7434L83.13 58.8142V48.9979V39.1817L84.1924 39.2808C84.8822 39.3517 85.448 39.4933 85.7791 39.6916Z" fill="black" fill-opacity="0.2"/>
<path d="M78.3008 49.0829V62.9078L82.2055 62.837C85.2272 62.7804 86.2758 62.7237 86.9243 62.5396C89.2561 61.8738 90.6221 60.6415 91.4361 58.4034C91.7397 57.5818 91.7535 57.4544 91.7949 49.4795C91.8225 42.5529 91.8087 41.2356 91.6155 40.4282C91.0222 37.7652 89.4079 36.0938 86.8277 35.4705C86.1654 35.3147 85.034 35.258 82.1365 35.258H78.3008V49.0829ZM85.7791 39.6916C86.1654 39.9041 86.4138 40.2157 86.6897 40.7682L87.0623 41.5614L87.1037 48.6155C87.1313 54.6214 87.1175 55.7971 86.9243 56.5336C86.538 58.1059 85.8757 58.63 84.1372 58.7434L83.13 58.8142V48.9979V39.1817L84.1924 39.2808C84.8822 39.3517 85.448 39.4933 85.7791 39.6916Z" fill="black" fill-opacity="0.2"/>
<path d="M130.041 49.0687V62.8794H132.318H134.594V58.0633V53.2473L135.739 53.2615C136.36 53.2615 137.092 53.3323 137.354 53.4314C138.154 53.7147 138.375 54.3805 139.189 58.8424L139.906 62.8086L142.362 62.8511C143.921 62.8652 144.804 62.8369 144.804 62.7377C144.804 62.3695 143.245 54.4796 143.011 53.6722C142.693 52.5815 142.073 51.7458 141.314 51.4059C140.845 51.1934 140.803 51.1367 141.052 51.0659C141.438 50.9384 142.514 49.7202 142.859 49.0262C143.425 47.8788 143.563 46.8589 143.563 43.5444C143.563 40.1873 143.452 39.4082 142.818 38.1192C142.417 37.3118 141.493 36.3911 140.707 35.9803C139.492 35.3571 138.651 35.2579 134.222 35.2579H130.041V49.0687ZM137.616 39.6207C137.933 39.7765 138.237 40.1023 138.458 40.4989C138.789 41.1222 138.803 41.2072 138.803 44.111C138.803 46.8873 138.789 47.1281 138.513 47.6522C137.947 48.7145 137.354 48.9978 135.684 48.9978H134.594V44.0968V39.1816L135.864 39.2807C136.622 39.3232 137.326 39.4649 137.616 39.6207Z" fill="#1C1C1C"/>
<path d="M130.041 49.0687V62.8794H132.318H134.594V58.0633V53.2473L135.739 53.2615C136.36 53.2615 137.092 53.3323 137.354 53.4314C138.154 53.7147 138.375 54.3805 139.189 58.8424L139.906 62.8086L142.362 62.8511C143.921 62.8652 144.804 62.8369 144.804 62.7377C144.804 62.3695 143.245 54.4796 143.011 53.6722C142.693 52.5815 142.073 51.7458 141.314 51.4059C140.845 51.1934 140.803 51.1367 141.052 51.0659C141.438 50.9384 142.514 49.7202 142.859 49.0262C143.425 47.8788 143.563 46.8589 143.563 43.5444C143.563 40.1873 143.452 39.4082 142.818 38.1192C142.417 37.3118 141.493 36.3911 140.707 35.9803C139.492 35.3571 138.651 35.2579 134.222 35.2579H130.041V49.0687ZM137.616 39.6207C137.933 39.7765 138.237 40.1023 138.458 40.4989C138.789 41.1222 138.803 41.2072 138.803 44.111C138.803 46.8873 138.789 47.1281 138.513 47.6522C137.947 48.7145 137.354 48.9978 135.684 48.9978H134.594V44.0968V39.1816L135.864 39.2807C136.622 39.3232 137.326 39.4649 137.616 39.6207Z" fill="black" fill-opacity="0.2"/>
<path d="M130.041 49.0687V62.8794H132.318H134.594V58.0633V53.2473L135.739 53.2615C136.36 53.2615 137.092 53.3323 137.354 53.4314C138.154 53.7147 138.375 54.3805 139.189 58.8424L139.906 62.8086L142.362 62.8511C143.921 62.8652 144.804 62.8369 144.804 62.7377C144.804 62.3695 143.245 54.4796 143.011 53.6722C142.693 52.5815 142.073 51.7458 141.314 51.4059C140.845 51.1934 140.803 51.1367 141.052 51.0659C141.438 50.9384 142.514 49.7202 142.859 49.0262C143.425 47.8788 143.563 46.8589 143.563 43.5444C143.563 40.1873 143.452 39.4082 142.818 38.1192C142.417 37.3118 141.493 36.3911 140.707 35.9803C139.492 35.3571 138.651 35.2579 134.222 35.2579H130.041V49.0687ZM137.616 39.6207C137.933 39.7765 138.237 40.1023 138.458 40.4989C138.789 41.1222 138.803 41.2072 138.803 44.111C138.803 46.8873 138.789 47.1281 138.513 47.6522C137.947 48.7145 137.354 48.9978 135.684 48.9978H134.594V44.0968V39.1816L135.864 39.2807C136.622 39.3232 137.326 39.4649 137.616 39.6207Z" fill="black" fill-opacity="0.2"/>
<path d="M130.041 49.0687V62.8794H132.318H134.594V58.0633V53.2473L135.739 53.2615C136.36 53.2615 137.092 53.3323 137.354 53.4314C138.154 53.7147 138.375 54.3805 139.189 58.8424L139.906 62.8086L142.362 62.8511C143.921 62.8652 144.804 62.8369 144.804 62.7377C144.804 62.3695 143.245 54.4796 143.011 53.6722C142.693 52.5815 142.073 51.7458 141.314 51.4059C140.845 51.1934 140.803 51.1367 141.052 51.0659C141.438 50.9384 142.514 49.7202 142.859 49.0262C143.425 47.8788 143.563 46.8589 143.563 43.5444C143.563 40.1873 143.452 39.4082 142.818 38.1192C142.417 37.3118 141.493 36.3911 140.707 35.9803C139.492 35.3571 138.651 35.2579 134.222 35.2579H130.041V49.0687ZM137.616 39.6207C137.933 39.7765 138.237 40.1023 138.458 40.4989C138.789 41.1222 138.803 41.2072 138.803 44.111C138.803 46.8873 138.789 47.1281 138.513 47.6522C137.947 48.7145 137.354 48.9978 135.684 48.9978H134.594V44.0968V39.1816L135.864 39.2807C136.622 39.3232 137.326 39.4649 137.616 39.6207Z" fill="black" fill-opacity="0.2"/>
<g clip-path="url(#clip1_928_37649)">
<path d="M116.59 0.894354C113.803 1.43262 111.94 3.37321 111.333 6.36199C111.153 7.24021 111.14 8.6567 111.167 15.4133L111.209 23.4307L111.595 24.5497C112.685 27.7084 114.81 29.1674 118.314 29.1674C121.916 29.1674 124.054 27.6093 125.158 24.2097C125.393 23.5015 125.42 22.7224 125.462 15.5125C125.503 8.6142 125.475 7.43852 125.282 6.44698C124.744 3.699 123.226 1.8434 120.936 1.10683C119.818 0.752707 117.818 0.653551 116.59 0.894354ZM119.377 5.37045C119.625 5.5121 119.956 5.92288 120.136 6.24867L120.453 6.85776V15.0026V23.1474L120.136 23.7564C119.473 25.0171 117.914 25.2438 116.921 24.2239C116.121 23.4023 116.093 23.1049 116.134 14.5634L116.176 6.99941L116.521 6.29117C117.073 5.15798 118.37 4.73303 119.377 5.37045Z" fill="#1C1C1C"/>
<path d="M116.59 0.894354C113.803 1.43262 111.94 3.37321 111.333 6.36199C111.153 7.24021 111.14 8.6567 111.167 15.4133L111.209 23.4307L111.595 24.5497C112.685 27.7084 114.81 29.1674 118.314 29.1674C121.916 29.1674 124.054 27.6093 125.158 24.2097C125.393 23.5015 125.42 22.7224 125.462 15.5125C125.503 8.6142 125.475 7.43852 125.282 6.44698C124.744 3.699 123.226 1.8434 120.936 1.10683C119.818 0.752707 117.818 0.653551 116.59 0.894354ZM119.377 5.37045C119.625 5.5121 119.956 5.92288 120.136 6.24867L120.453 6.85776V15.0026V23.1474L120.136 23.7564C119.473 25.0171 117.914 25.2438 116.921 24.2239C116.121 23.4023 116.093 23.1049 116.134 14.5634L116.176 6.99941L116.521 6.29117C117.073 5.15798 118.37 4.73303 119.377 5.37045Z" fill="black" fill-opacity="0.2"/>
<path d="M116.59 0.894354C113.803 1.43262 111.94 3.37321 111.333 6.36199C111.153 7.24021 111.14 8.6567 111.167 15.4133L111.209 23.4307L111.595 24.5497C112.685 27.7084 114.81 29.1674 118.314 29.1674C121.916 29.1674 124.054 27.6093 125.158 24.2097C125.393 23.5015 125.42 22.7224 125.462 15.5125C125.503 8.6142 125.475 7.43852 125.282 6.44698C124.744 3.699 123.226 1.8434 120.936 1.10683C119.818 0.752707 117.818 0.653551 116.59 0.894354ZM119.377 5.37045C119.625 5.5121 119.956 5.92288 120.136 6.24867L120.453 6.85776V15.0026V23.1474L120.136 23.7564C119.473 25.0171 117.914 25.2438 116.921 24.2239C116.121 23.4023 116.093 23.1049 116.134 14.5634L116.176 6.99941L116.521 6.29117C117.073 5.15798 118.37 4.73303 119.377 5.37045Z" fill="black" fill-opacity="0.2"/>
<path d="M116.59 0.894354C113.803 1.43262 111.94 3.37321 111.333 6.36199C111.153 7.24021 111.14 8.6567 111.167 15.4133L111.209 23.4307L111.595 24.5497C112.685 27.7084 114.81 29.1674 118.314 29.1674C121.916 29.1674 124.054 27.6093 125.158 24.2097C125.393 23.5015 125.42 22.7224 125.462 15.5125C125.503 8.6142 125.475 7.43852 125.282 6.44698C124.744 3.699 123.226 1.8434 120.936 1.10683C119.818 0.752707 117.818 0.653551 116.59 0.894354ZM119.377 5.37045C119.625 5.5121 119.956 5.92288 120.136 6.24867L120.453 6.85776V15.0026V23.1474L120.136 23.7564C119.473 25.0171 117.914 25.2438 116.921 24.2239C116.121 23.4023 116.093 23.1049 116.134 14.5634L116.176 6.99941L116.521 6.29117C117.073 5.15798 118.37 4.73303 119.377 5.37045Z" fill="black" fill-opacity="0.2"/>
<path d="M22.834 32.0003V62.8797H35.9141H48.9805L55.3688 55.7689L61.7433 48.6582V31.9861V15.3283L55.3688 8.2175L48.9805 1.1209H35.9141H22.834V32.0003ZM48.8839 47.2417L48.8425 62.4689L42.606 55.5565L36.3695 48.644V32.0003V15.3566L42.606 8.42997L48.8425 1.51752L48.8839 16.7589C48.8977 25.1445 48.8977 38.8561 48.8839 47.2417Z" fill="#1C1C1C"/>
<path d="M22.834 32.0003V62.8797H35.9141H48.9805L55.3688 55.7689L61.7433 48.6582V31.9861V15.3283L55.3688 8.2175L48.9805 1.1209H35.9141H22.834V32.0003ZM48.8839 47.2417L48.8425 62.4689L42.606 55.5565L36.3695 48.644V32.0003V15.3566L42.606 8.42997L48.8425 1.51752L48.8839 16.7589C48.8977 25.1445 48.8977 38.8561 48.8839 47.2417Z" fill="black" fill-opacity="0.2"/>
<path d="M22.834 32.0003V62.8797H35.9141H48.9805L55.3688 55.7689L61.7433 48.6582V31.9861V15.3283L55.3688 8.2175L48.9805 1.1209H35.9141H22.834V32.0003ZM48.8839 47.2417L48.8425 62.4689L42.606 55.5565L36.3695 48.644V32.0003V15.3566L42.606 8.42997L48.8425 1.51752L48.8839 16.7589C48.8977 25.1445 48.8977 38.8561 48.8839 47.2417Z" fill="black" fill-opacity="0.2"/>
<path d="M22.834 32.0003V62.8797H35.9141H48.9805L55.3688 55.7689L61.7433 48.6582V31.9861V15.3283L55.3688 8.2175L48.9805 1.1209H35.9141H22.834V32.0003ZM48.8839 47.2417L48.8425 62.4689L42.606 55.5565L36.3695 48.644V32.0003V15.3566L42.606 8.42997L48.8425 1.51752L48.8839 16.7589C48.8977 25.1445 48.8977 38.8561 48.8839 47.2417Z" fill="black" fill-opacity="0.2"/>
<path d="M78.1621 14.9175V28.7424H80.4387H82.7153V24.1388V19.5352H84.4952C85.4611 19.5352 86.5649 19.4785 86.9374 19.4077C89.421 18.9261 90.9249 17.4955 91.4768 15.1299C91.7666 13.8409 91.7666 6.97098 91.4768 5.68197C90.9525 3.42976 89.7107 2.06993 87.6135 1.46084C86.9374 1.26254 85.9578 1.20588 82.4808 1.16338L78.1621 1.09256V14.9175ZM85.7508 5.59698C86.0544 5.76696 86.3579 6.13525 86.5787 6.57436C86.9098 7.26844 86.9236 7.35343 86.9236 10.3989C86.9236 13.3877 86.9098 13.5435 86.5925 14.1951C86.1371 15.1583 85.5714 15.4274 83.9571 15.4274H82.7153V10.3139V5.20037L83.9985 5.25703C84.9505 5.29952 85.4059 5.38451 85.7508 5.59698Z" fill="#1C1C1C"/>
<path d="M78.1621 14.9175V28.7424H80.4387H82.7153V24.1388V19.5352H84.4952C85.4611 19.5352 86.5649 19.4785 86.9374 19.4077C89.421 18.9261 90.9249 17.4955 91.4768 15.1299C91.7666 13.8409 91.7666 6.97098 91.4768 5.68197C90.9525 3.42976 89.7107 2.06993 87.6135 1.46084C86.9374 1.26254 85.9578 1.20588 82.4808 1.16338L78.1621 1.09256V14.9175ZM85.7508 5.59698C86.0544 5.76696 86.3579 6.13525 86.5787 6.57436C86.9098 7.26844 86.9236 7.35343 86.9236 10.3989C86.9236 13.3877 86.9098 13.5435 86.5925 14.1951C86.1371 15.1583 85.5714 15.4274 83.9571 15.4274H82.7153V10.3139V5.20037L83.9985 5.25703C84.9505 5.29952 85.4059 5.38451 85.7508 5.59698Z" fill="black" fill-opacity="0.2"/>
<path d="M78.1621 14.9175V28.7424H80.4387H82.7153V24.1388V19.5352H84.4952C85.4611 19.5352 86.5649 19.4785 86.9374 19.4077C89.421 18.9261 90.9249 17.4955 91.4768 15.1299C91.7666 13.8409 91.7666 6.97098 91.4768 5.68197C90.9525 3.42976 89.7107 2.06993 87.6135 1.46084C86.9374 1.26254 85.9578 1.20588 82.4808 1.16338L78.1621 1.09256V14.9175ZM85.7508 5.59698C86.0544 5.76696 86.3579 6.13525 86.5787 6.57436C86.9098 7.26844 86.9236 7.35343 86.9236 10.3989C86.9236 13.3877 86.9098 13.5435 86.5925 14.1951C86.1371 15.1583 85.5714 15.4274 83.9571 15.4274H82.7153V10.3139V5.20037L83.9985 5.25703C84.9505 5.29952 85.4059 5.38451 85.7508 5.59698Z" fill="black" fill-opacity="0.2"/>
<path d="M78.1621 14.9175V28.7424H80.4387H82.7153V24.1388V19.5352H84.4952C85.4611 19.5352 86.5649 19.4785 86.9374 19.4077C89.421 18.9261 90.9249 17.4955 91.4768 15.1299C91.7666 13.8409 91.7666 6.97098 91.4768 5.68197C90.9525 3.42976 89.7107 2.06993 87.6135 1.46084C86.9374 1.26254 85.9578 1.20588 82.4808 1.16338L78.1621 1.09256V14.9175ZM85.7508 5.59698C86.0544 5.76696 86.3579 6.13525 86.5787 6.57436C86.9098 7.26844 86.9236 7.35343 86.9236 10.3989C86.9236 13.3877 86.9098 13.5435 86.5925 14.1951C86.1371 15.1583 85.5714 15.4274 83.9571 15.4274H82.7153V10.3139V5.20037L83.9985 5.25703C84.9505 5.29952 85.4059 5.38451 85.7508 5.59698Z" fill="black" fill-opacity="0.2"/>
<path d="M94.582 14.9175V28.7424H96.8586H99.1352V23.9971V19.2519H100.294C101.702 19.2519 102.226 19.4219 102.571 20.0168C102.75 20.3143 103.109 21.8299 103.606 24.5496C104.033 26.8018 104.392 28.6715 104.42 28.6999C104.447 28.7282 105.565 28.7282 106.89 28.714L109.304 28.6715L108.435 24.1954C107.966 21.7308 107.455 19.4361 107.317 19.0961C106.959 18.2745 106.42 17.6371 105.896 17.4105C105.675 17.3113 105.482 17.198 105.482 17.1413C105.482 17.0989 105.703 16.9005 105.951 16.7022C106.669 16.164 107.386 15.0733 107.704 14.0251C107.966 13.2318 108.021 12.6511 108.076 10.1581C108.145 7.05597 108.035 5.93694 107.538 4.59128C107.179 3.6139 106.2 2.48071 105.289 2.01327C103.895 1.29086 103.495 1.23421 98.9007 1.16338L94.582 1.09256V14.9175ZM102.171 5.59698C102.819 5.97943 103.095 6.53187 103.288 7.77837C103.468 8.96822 103.371 12.3536 103.137 13.1752C102.792 14.4075 102.074 14.875 100.349 14.9741L99.1352 15.0449V10.1156V5.20037L100.418 5.25703C101.37 5.29952 101.826 5.38451 102.171 5.59698Z" fill="#1C1C1C"/>
<path d="M94.582 14.9175V28.7424H96.8586H99.1352V23.9971V19.2519H100.294C101.702 19.2519 102.226 19.4219 102.571 20.0168C102.75 20.3143 103.109 21.8299 103.606 24.5496C104.033 26.8018 104.392 28.6715 104.42 28.6999C104.447 28.7282 105.565 28.7282 106.89 28.714L109.304 28.6715L108.435 24.1954C107.966 21.7308 107.455 19.4361 107.317 19.0961C106.959 18.2745 106.42 17.6371 105.896 17.4105C105.675 17.3113 105.482 17.198 105.482 17.1413C105.482 17.0989 105.703 16.9005 105.951 16.7022C106.669 16.164 107.386 15.0733 107.704 14.0251C107.966 13.2318 108.021 12.6511 108.076 10.1581C108.145 7.05597 108.035 5.93694 107.538 4.59128C107.179 3.6139 106.2 2.48071 105.289 2.01327C103.895 1.29086 103.495 1.23421 98.9007 1.16338L94.582 1.09256V14.9175ZM102.171 5.59698C102.819 5.97943 103.095 6.53187 103.288 7.77837C103.468 8.96822 103.371 12.3536 103.137 13.1752C102.792 14.4075 102.074 14.875 100.349 14.9741L99.1352 15.0449V10.1156V5.20037L100.418 5.25703C101.37 5.29952 101.826 5.38451 102.171 5.59698Z" fill="black" fill-opacity="0.2"/>
<path d="M94.582 14.9175V28.7424H96.8586H99.1352V23.9971V19.2519H100.294C101.702 19.2519 102.226 19.4219 102.571 20.0168C102.75 20.3143 103.109 21.8299 103.606 24.5496C104.033 26.8018 104.392 28.6715 104.42 28.6999C104.447 28.7282 105.565 28.7282 106.89 28.714L109.304 28.6715L108.435 24.1954C107.966 21.7308 107.455 19.4361 107.317 19.0961C106.959 18.2745 106.42 17.6371 105.896 17.4105C105.675 17.3113 105.482 17.198 105.482 17.1413C105.482 17.0989 105.703 16.9005 105.951 16.7022C106.669 16.164 107.386 15.0733 107.704 14.0251C107.966 13.2318 108.021 12.6511 108.076 10.1581C108.145 7.05597 108.035 5.93694 107.538 4.59128C107.179 3.6139 106.2 2.48071 105.289 2.01327C103.895 1.29086 103.495 1.23421 98.9007 1.16338L94.582 1.09256V14.9175ZM102.171 5.59698C102.819 5.97943 103.095 6.53187 103.288 7.77837C103.468 8.96822 103.371 12.3536 103.137 13.1752C102.792 14.4075 102.074 14.875 100.349 14.9741L99.1352 15.0449V10.1156V5.20037L100.418 5.25703C101.37 5.29952 101.826 5.38451 102.171 5.59698Z" fill="black" fill-opacity="0.2"/>
<path d="M94.582 14.9175V28.7424H96.8586H99.1352V23.9971V19.2519H100.294C101.702 19.2519 102.226 19.4219 102.571 20.0168C102.75 20.3143 103.109 21.8299 103.606 24.5496C104.033 26.8018 104.392 28.6715 104.42 28.6999C104.447 28.7282 105.565 28.7282 106.89 28.714L109.304 28.6715L108.435 24.1954C107.966 21.7308 107.455 19.4361 107.317 19.0961C106.959 18.2745 106.42 17.6371 105.896 17.4105C105.675 17.3113 105.482 17.198 105.482 17.1413C105.482 17.0989 105.703 16.9005 105.951 16.7022C106.669 16.164 107.386 15.0733 107.704 14.0251C107.966 13.2318 108.021 12.6511 108.076 10.1581C108.145 7.05597 108.035 5.93694 107.538 4.59128C107.179 3.6139 106.2 2.48071 105.289 2.01327C103.895 1.29086 103.495 1.23421 98.9007 1.16338L94.582 1.09256V14.9175ZM102.171 5.59698C102.819 5.97943 103.095 6.53187 103.288 7.77837C103.468 8.96822 103.371 12.3536 103.137 13.1752C102.792 14.4075 102.074 14.875 100.349 14.9741L99.1352 15.0449V10.1156V5.20037L100.418 5.25703C101.37 5.29952 101.826 5.38451 102.171 5.59698Z" fill="black" fill-opacity="0.2"/>
<path d="M128.525 14.9316V28.7424H130.871H133.217V23.2889V17.8354H136.045H138.874V15.4982V13.161H136.045H133.217V9.47816V5.79529H136.045H138.874V3.45809V1.12089H133.7H128.525V14.9316Z" fill="#1C1C1C"/>
<path d="M128.525 14.9316V28.7424H130.871H133.217V23.2889V17.8354H136.045H138.874V15.4982V13.161H136.045H133.217V9.47816V5.79529H136.045H138.874V3.45809V1.12089H133.7H128.525V14.9316Z" fill="black" fill-opacity="0.2"/>
<path d="M128.525 14.9316V28.7424H130.871H133.217V23.2889V17.8354H136.045H138.874V15.4982V13.161H136.045H133.217V9.47816V5.79529H136.045H138.874V3.45809V1.12089H133.7H128.525V14.9316Z" fill="black" fill-opacity="0.2"/>
<path d="M128.525 14.9316V28.7424H130.871H133.217V23.2889V17.8354H136.045H138.874V15.4982V13.161H136.045H133.217V9.47816V5.79529H136.045H138.874V3.45809V1.12089H133.7H128.525V14.9316Z" fill="black" fill-opacity="0.2"/>
<path d="M141.494 14.9316V28.7424H143.909H146.323V14.9316V1.12089H143.909H141.494V14.9316Z" fill="#1C1C1C"/>
<path d="M141.494 14.9316V28.7424H143.909H146.323V14.9316V1.12089H143.909H141.494V14.9316Z" fill="black" fill-opacity="0.2"/>
<path d="M141.494 14.9316V28.7424H143.909H146.323V14.9316V1.12089H143.909H141.494V14.9316Z" fill="black" fill-opacity="0.2"/>
<path d="M141.494 14.9316V28.7424H143.909H146.323V14.9316V1.12089H143.909H141.494V14.9316Z" fill="black" fill-opacity="0.2"/>
<path d="M150.049 14.9316V28.7424H155.085H160.121V26.476V24.2096H157.431H154.74V12.6653V1.12089H152.394H150.049V14.9316Z" fill="#1C1C1C"/>
<path d="M150.049 14.9316V28.7424H155.085H160.121V26.476V24.2096H157.431H154.74V12.6653V1.12089H152.394H150.049V14.9316Z" fill="black" fill-opacity="0.2"/>
<path d="M150.049 14.9316V28.7424H155.085H160.121V26.476V24.2096H157.431H154.74V12.6653V1.12089H152.394H150.049V14.9316Z" fill="black" fill-opacity="0.2"/>
<path d="M150.049 14.9316V28.7424H155.085H160.121V26.476V24.2096H157.431H154.74V12.6653V1.12089H152.394H150.049V14.9316Z" fill="black" fill-opacity="0.2"/>
<path d="M100.004 35.0316C97.6998 35.6123 96.0993 37.2554 95.3128 39.8618C95.0783 40.6408 95.0645 41.3633 95.0645 48.9981V57.2846L95.3956 58.4036C96.2924 61.3782 98.3207 62.9647 101.577 63.2338C104.654 63.4888 107.289 62.1431 108.448 59.7209C109.317 57.9078 109.345 57.582 109.345 49.0973C109.345 42.6947 109.304 41.3066 109.124 40.3859C108.559 37.5529 106.944 35.7256 104.419 35.0457C103.467 34.7908 101.025 34.7766 100.004 35.0316ZM103.095 39.3518C103.509 39.5501 103.757 39.8051 103.992 40.2442L104.309 40.8533V48.9981C104.309 56.8596 104.295 57.1571 104.033 57.7095C103.246 59.3243 101.191 59.3243 100.377 57.6953L100.032 57.0154L99.9902 49.508C99.9626 44.4512 100.004 41.774 100.101 41.2641C100.294 40.3292 100.721 39.6493 101.342 39.3377C101.963 39.0119 102.377 39.026 103.095 39.3518Z" fill="#1C1C1C"/>
<path d="M100.004 35.0316C97.6998 35.6123 96.0993 37.2554 95.3128 39.8618C95.0783 40.6408 95.0645 41.3633 95.0645 48.9981V57.2846L95.3956 58.4036C96.2924 61.3782 98.3207 62.9647 101.577 63.2338C104.654 63.4888 107.289 62.1431 108.448 59.7209C109.317 57.9078 109.345 57.582 109.345 49.0973C109.345 42.6947 109.304 41.3066 109.124 40.3859C108.559 37.5529 106.944 35.7256 104.419 35.0457C103.467 34.7908 101.025 34.7766 100.004 35.0316ZM103.095 39.3518C103.509 39.5501 103.757 39.8051 103.992 40.2442L104.309 40.8533V48.9981C104.309 56.8596 104.295 57.1571 104.033 57.7095C103.246 59.3243 101.191 59.3243 100.377 57.6953L100.032 57.0154L99.9902 49.508C99.9626 44.4512 100.004 41.774 100.101 41.2641C100.294 40.3292 100.721 39.6493 101.342 39.3377C101.963 39.0119 102.377 39.026 103.095 39.3518Z" fill="black" fill-opacity="0.2"/>
<path d="M100.004 35.0316C97.6998 35.6123 96.0993 37.2554 95.3128 39.8618C95.0783 40.6408 95.0645 41.3633 95.0645 48.9981V57.2846L95.3956 58.4036C96.2924 61.3782 98.3207 62.9647 101.577 63.2338C104.654 63.4888 107.289 62.1431 108.448 59.7209C109.317 57.9078 109.345 57.582 109.345 49.0973C109.345 42.6947 109.304 41.3066 109.124 40.3859C108.559 37.5529 106.944 35.7256 104.419 35.0457C103.467 34.7908 101.025 34.7766 100.004 35.0316ZM103.095 39.3518C103.509 39.5501 103.757 39.8051 103.992 40.2442L104.309 40.8533V48.9981C104.309 56.8596 104.295 57.1571 104.033 57.7095C103.246 59.3243 101.191 59.3243 100.377 57.6953L100.032 57.0154L99.9902 49.508C99.9626 44.4512 100.004 41.774 100.101 41.2641C100.294 40.3292 100.721 39.6493 101.342 39.3377C101.963 39.0119 102.377 39.026 103.095 39.3518Z" fill="black" fill-opacity="0.2"/>
<path d="M100.004 35.0316C97.6998 35.6123 96.0993 37.2554 95.3128 39.8618C95.0783 40.6408 95.0645 41.3633 95.0645 48.9981V57.2846L95.3956 58.4036C96.2924 61.3782 98.3207 62.9647 101.577 63.2338C104.654 63.4888 107.289 62.1431 108.448 59.7209C109.317 57.9078 109.345 57.582 109.345 49.0973C109.345 42.6947 109.304 41.3066 109.124 40.3859C108.559 37.5529 106.944 35.7256 104.419 35.0457C103.467 34.7908 101.025 34.7766 100.004 35.0316ZM103.095 39.3518C103.509 39.5501 103.757 39.8051 103.992 40.2442L104.309 40.8533V48.9981C104.309 56.8596 104.295 57.1571 104.033 57.7095C103.246 59.3243 101.191 59.3243 100.377 57.6953L100.032 57.0154L99.9902 49.508C99.9626 44.4512 100.004 41.774 100.101 41.2641C100.294 40.3292 100.721 39.6493 101.342 39.3377C101.963 39.0119 102.377 39.026 103.095 39.3518Z" fill="black" fill-opacity="0.2"/>
<path d="M117.347 35.06C115.043 35.6832 113.443 37.3405 112.711 39.876C112.491 40.6126 112.463 41.5616 112.422 48.3891C112.353 57.0722 112.408 57.7238 113.263 59.5652C114.395 62.0157 116.478 63.2197 119.624 63.2197C121.983 63.2197 123.515 62.639 124.784 61.2508C125.612 60.3584 126.109 59.3669 126.468 57.9504C126.716 56.9589 126.73 56.3356 126.73 49.0832C126.73 40.4993 126.688 40.0743 125.902 38.417C125.074 36.7031 123.681 35.5416 121.832 35.0458C120.797 34.7767 118.368 34.7767 117.347 35.06ZM120.797 39.5077C121.004 39.6636 121.294 40.0318 121.431 40.3151C121.68 40.8251 121.694 41.3208 121.694 49.069C121.694 57.1005 121.694 57.2988 121.404 57.7804C120.949 58.602 120.314 58.9561 119.445 58.8853C118.824 58.8286 118.631 58.7436 118.244 58.3328C117.361 57.4263 117.334 57.0722 117.375 48.6158C117.416 41.3492 117.43 41.1225 117.706 40.4993C118.037 39.7627 118.396 39.4086 118.948 39.2244C119.5 39.0403 120.341 39.182 120.797 39.5077Z" fill="#1C1C1C"/>
<path d="M117.347 35.06C115.043 35.6832 113.443 37.3405 112.711 39.876C112.491 40.6126 112.463 41.5616 112.422 48.3891C112.353 57.0722 112.408 57.7238 113.263 59.5652C114.395 62.0157 116.478 63.2197 119.624 63.2197C121.983 63.2197 123.515 62.639 124.784 61.2508C125.612 60.3584 126.109 59.3669 126.468 57.9504C126.716 56.9589 126.73 56.3356 126.73 49.0832C126.73 40.4993 126.688 40.0743 125.902 38.417C125.074 36.7031 123.681 35.5416 121.832 35.0458C120.797 34.7767 118.368 34.7767 117.347 35.06ZM120.797 39.5077C121.004 39.6636 121.294 40.0318 121.431 40.3151C121.68 40.8251 121.694 41.3208 121.694 49.069C121.694 57.1005 121.694 57.2988 121.404 57.7804C120.949 58.602 120.314 58.9561 119.445 58.8853C118.824 58.8286 118.631 58.7436 118.244 58.3328C117.361 57.4263 117.334 57.0722 117.375 48.6158C117.416 41.3492 117.43 41.1225 117.706 40.4993C118.037 39.7627 118.396 39.4086 118.948 39.2244C119.5 39.0403 120.341 39.182 120.797 39.5077Z" fill="black" fill-opacity="0.2"/>
<path d="M117.347 35.06C115.043 35.6832 113.443 37.3405 112.711 39.876C112.491 40.6126 112.463 41.5616 112.422 48.3891C112.353 57.0722 112.408 57.7238 113.263 59.5652C114.395 62.0157 116.478 63.2197 119.624 63.2197C121.983 63.2197 123.515 62.639 124.784 61.2508C125.612 60.3584 126.109 59.3669 126.468 57.9504C126.716 56.9589 126.73 56.3356 126.73 49.0832C126.73 40.4993 126.688 40.0743 125.902 38.417C125.074 36.7031 123.681 35.5416 121.832 35.0458C120.797 34.7767 118.368 34.7767 117.347 35.06ZM120.797 39.5077C121.004 39.6636 121.294 40.0318 121.431 40.3151C121.68 40.8251 121.694 41.3208 121.694 49.069C121.694 57.1005 121.694 57.2988 121.404 57.7804C120.949 58.602 120.314 58.9561 119.445 58.8853C118.824 58.8286 118.631 58.7436 118.244 58.3328C117.361 57.4263 117.334 57.0722 117.375 48.6158C117.416 41.3492 117.43 41.1225 117.706 40.4993C118.037 39.7627 118.396 39.4086 118.948 39.2244C119.5 39.0403 120.341 39.182 120.797 39.5077Z" fill="black" fill-opacity="0.2"/>
<path d="M117.347 35.06C115.043 35.6832 113.443 37.3405 112.711 39.876C112.491 40.6126 112.463 41.5616 112.422 48.3891C112.353 57.0722 112.408 57.7238 113.263 59.5652C114.395 62.0157 116.478 63.2197 119.624 63.2197C121.983 63.2197 123.515 62.639 124.784 61.2508C125.612 60.3584 126.109 59.3669 126.468 57.9504C126.716 56.9589 126.73 56.3356 126.73 49.0832C126.73 40.4993 126.688 40.0743 125.902 38.417C125.074 36.7031 123.681 35.5416 121.832 35.0458C120.797 34.7767 118.368 34.7767 117.347 35.06ZM120.797 39.5077C121.004 39.6636 121.294 40.0318 121.431 40.3151C121.68 40.8251 121.694 41.3208 121.694 49.069C121.694 57.1005 121.694 57.2988 121.404 57.7804C120.949 58.602 120.314 58.9561 119.445 58.8853C118.824 58.8286 118.631 58.7436 118.244 58.3328C117.361 57.4263 117.334 57.0722 117.375 48.6158C117.416 41.3492 117.43 41.1225 117.706 40.4993C118.037 39.7627 118.396 39.4086 118.948 39.2244C119.5 39.0403 120.341 39.182 120.797 39.5077Z" fill="black" fill-opacity="0.2"/>
<path d="M151.167 35.0457C148.835 35.7115 147.193 37.5671 146.669 40.1451C146.227 42.2698 146.517 44.7203 147.4 46.5901C148.049 47.9499 149.484 49.4372 151.429 50.7687C153.968 52.511 154.713 53.5876 154.837 55.6981C154.975 57.9362 154.285 59.2677 152.961 59.2677C151.539 59.2677 150.96 58.3044 150.946 55.8681C150.946 55.004 150.987 54.14 151.056 53.9133L151.153 53.5309H148.89H146.627L146.476 54.2391C146.227 55.4148 146.283 57.5962 146.6 58.8427C146.945 60.2167 147.359 60.9674 148.256 61.789C150.146 63.5313 154.092 63.7579 156.562 62.2706C157.9 61.4632 159.045 59.7351 159.418 57.9503C159.639 56.8738 159.597 54.3383 159.349 53.2476C159.238 52.7377 158.921 51.8453 158.631 51.2645C157.983 49.8905 156.438 48.2757 154.464 46.9159C153.002 45.896 152.036 44.9895 151.664 44.2246C151.277 43.4738 151.125 42.114 151.291 41.0658C151.539 39.536 152.16 38.7711 153.154 38.7711C154.478 38.7711 155.127 40.3151 154.989 43.1197L154.92 44.4654H157.155H159.404L159.487 44.0263C159.639 43.2189 159.57 40.3009 159.376 39.3377C158.949 37.3121 157.873 35.8673 156.286 35.2441C155.251 34.8333 152.312 34.72 151.167 35.0457Z" fill="#1C1C1C"/>
<path d="M151.167 35.0457C148.835 35.7115 147.193 37.5671 146.669 40.1451C146.227 42.2698 146.517 44.7203 147.4 46.5901C148.049 47.9499 149.484 49.4372 151.429 50.7687C153.968 52.511 154.713 53.5876 154.837 55.6981C154.975 57.9362 154.285 59.2677 152.961 59.2677C151.539 59.2677 150.96 58.3044 150.946 55.8681C150.946 55.004 150.987 54.14 151.056 53.9133L151.153 53.5309H148.89H146.627L146.476 54.2391C146.227 55.4148 146.283 57.5962 146.6 58.8427C146.945 60.2167 147.359 60.9674 148.256 61.789C150.146 63.5313 154.092 63.7579 156.562 62.2706C157.9 61.4632 159.045 59.7351 159.418 57.9503C159.639 56.8738 159.597 54.3383 159.349 53.2476C159.238 52.7377 158.921 51.8453 158.631 51.2645C157.983 49.8905 156.438 48.2757 154.464 46.9159C153.002 45.896 152.036 44.9895 151.664 44.2246C151.277 43.4738 151.125 42.114 151.291 41.0658C151.539 39.536 152.16 38.7711 153.154 38.7711C154.478 38.7711 155.127 40.3151 154.989 43.1197L154.92 44.4654H157.155H159.404L159.487 44.0263C159.639 43.2189 159.57 40.3009 159.376 39.3377C158.949 37.3121 157.873 35.8673 156.286 35.2441C155.251 34.8333 152.312 34.72 151.167 35.0457Z" fill="black" fill-opacity="0.2"/>
<path d="M151.167 35.0457C148.835 35.7115 147.193 37.5671 146.669 40.1451C146.227 42.2698 146.517 44.7203 147.4 46.5901C148.049 47.9499 149.484 49.4372 151.429 50.7687C153.968 52.511 154.713 53.5876 154.837 55.6981C154.975 57.9362 154.285 59.2677 152.961 59.2677C151.539 59.2677 150.96 58.3044 150.946 55.8681C150.946 55.004 150.987 54.14 151.056 53.9133L151.153 53.5309H148.89H146.627L146.476 54.2391C146.227 55.4148 146.283 57.5962 146.6 58.8427C146.945 60.2167 147.359 60.9674 148.256 61.789C150.146 63.5313 154.092 63.7579 156.562 62.2706C157.9 61.4632 159.045 59.7351 159.418 57.9503C159.639 56.8738 159.597 54.3383 159.349 53.2476C159.238 52.7377 158.921 51.8453 158.631 51.2645C157.983 49.8905 156.438 48.2757 154.464 46.9159C153.002 45.896 152.036 44.9895 151.664 44.2246C151.277 43.4738 151.125 42.114 151.291 41.0658C151.539 39.536 152.16 38.7711 153.154 38.7711C154.478 38.7711 155.127 40.3151 154.989 43.1197L154.92 44.4654H157.155H159.404L159.487 44.0263C159.639 43.2189 159.57 40.3009 159.376 39.3377C158.949 37.3121 157.873 35.8673 156.286 35.2441C155.251 34.8333 152.312 34.72 151.167 35.0457Z" fill="black" fill-opacity="0.2"/>
<path d="M151.167 35.0457C148.835 35.7115 147.193 37.5671 146.669 40.1451C146.227 42.2698 146.517 44.7203 147.4 46.5901C148.049 47.9499 149.484 49.4372 151.429 50.7687C153.968 52.511 154.713 53.5876 154.837 55.6981C154.975 57.9362 154.285 59.2677 152.961 59.2677C151.539 59.2677 150.96 58.3044 150.946 55.8681C150.946 55.004 150.987 54.14 151.056 53.9133L151.153 53.5309H148.89H146.627L146.476 54.2391C146.227 55.4148 146.283 57.5962 146.6 58.8427C146.945 60.2167 147.359 60.9674 148.256 61.789C150.146 63.5313 154.092 63.7579 156.562 62.2706C157.9 61.4632 159.045 59.7351 159.418 57.9503C159.639 56.8738 159.597 54.3383 159.349 53.2476C159.238 52.7377 158.921 51.8453 158.631 51.2645C157.983 49.8905 156.438 48.2757 154.464 46.9159C153.002 45.896 152.036 44.9895 151.664 44.2246C151.277 43.4738 151.125 42.114 151.291 41.0658C151.539 39.536 152.16 38.7711 153.154 38.7711C154.478 38.7711 155.127 40.3151 154.989 43.1197L154.92 44.4654H157.155H159.404L159.487 44.0263C159.639 43.2189 159.57 40.3009 159.376 39.3377C158.949 37.3121 157.873 35.8673 156.286 35.2441C155.251 34.8333 152.312 34.72 151.167 35.0457Z" fill="black" fill-opacity="0.2"/>
<path d="M78.2988 49.0832V62.9081L82.2036 62.8373C85.2252 62.7806 86.2739 62.7239 86.9223 62.5398C89.2541 61.874 90.6201 60.6417 91.4342 58.4037C91.7377 57.5821 91.7515 57.4546 91.7929 49.4798C91.8205 42.5532 91.8067 41.2358 91.6135 40.4284C91.0202 37.7654 89.4059 36.094 86.8258 35.4707C86.1635 35.3149 85.0321 35.2583 82.1346 35.2583H78.2988V49.0832ZM85.7771 39.6919C86.1635 39.9043 86.4118 40.216 86.6878 40.7684L87.0603 41.5616L87.1017 48.6157C87.1293 54.6216 87.1155 55.7973 86.9223 56.5339C86.536 58.1062 85.8737 58.6303 84.1352 58.7436L83.128 58.8144V48.9982V39.1819L84.1904 39.2811C84.8803 39.3519 85.446 39.4936 85.7771 39.6919Z" fill="#1C1C1C"/>
<path d="M78.2988 49.0832V62.9081L82.2036 62.8373C85.2252 62.7806 86.2739 62.7239 86.9223 62.5398C89.2541 61.874 90.6201 60.6417 91.4342 58.4037C91.7377 57.5821 91.7515 57.4546 91.7929 49.4798C91.8205 42.5532 91.8067 41.2358 91.6135 40.4284C91.0202 37.7654 89.4059 36.094 86.8258 35.4707C86.1635 35.3149 85.0321 35.2583 82.1346 35.2583H78.2988V49.0832ZM85.7771 39.6919C86.1635 39.9043 86.4118 40.216 86.6878 40.7684L87.0603 41.5616L87.1017 48.6157C87.1293 54.6216 87.1155 55.7973 86.9223 56.5339C86.536 58.1062 85.8737 58.6303 84.1352 58.7436L83.128 58.8144V48.9982V39.1819L84.1904 39.2811C84.8803 39.3519 85.446 39.4936 85.7771 39.6919Z" fill="black" fill-opacity="0.2"/>
<path d="M78.2988 49.0832V62.9081L82.2036 62.8373C85.2252 62.7806 86.2739 62.7239 86.9223 62.5398C89.2541 61.874 90.6201 60.6417 91.4342 58.4037C91.7377 57.5821 91.7515 57.4546 91.7929 49.4798C91.8205 42.5532 91.8067 41.2358 91.6135 40.4284C91.0202 37.7654 89.4059 36.094 86.8258 35.4707C86.1635 35.3149 85.0321 35.2583 82.1346 35.2583H78.2988V49.0832ZM85.7771 39.6919C86.1635 39.9043 86.4118 40.216 86.6878 40.7684L87.0603 41.5616L87.1017 48.6157C87.1293 54.6216 87.1155 55.7973 86.9223 56.5339C86.536 58.1062 85.8737 58.6303 84.1352 58.7436L83.128 58.8144V48.9982V39.1819L84.1904 39.2811C84.8803 39.3519 85.446 39.4936 85.7771 39.6919Z" fill="black" fill-opacity="0.2"/>
<path d="M78.2988 49.0832V62.9081L82.2036 62.8373C85.2252 62.7806 86.2739 62.7239 86.9223 62.5398C89.2541 61.874 90.6201 60.6417 91.4342 58.4037C91.7377 57.5821 91.7515 57.4546 91.7929 49.4798C91.8205 42.5532 91.8067 41.2358 91.6135 40.4284C91.0202 37.7654 89.4059 36.094 86.8258 35.4707C86.1635 35.3149 85.0321 35.2583 82.1346 35.2583H78.2988V49.0832ZM85.7771 39.6919C86.1635 39.9043 86.4118 40.216 86.6878 40.7684L87.0603 41.5616L87.1017 48.6157C87.1293 54.6216 87.1155 55.7973 86.9223 56.5339C86.536 58.1062 85.8737 58.6303 84.1352 58.7436L83.128 58.8144V48.9982V39.1819L84.1904 39.2811C84.8803 39.3519 85.446 39.4936 85.7771 39.6919Z" fill="black" fill-opacity="0.2"/>
<path d="M130.041 49.069V62.8797H132.318H134.594V58.0636V53.2476L135.739 53.2618C136.36 53.2618 137.092 53.3326 137.354 53.4317C138.154 53.715 138.375 54.3808 139.189 58.8427L139.906 62.8089L142.362 62.8514C143.921 62.8655 144.804 62.8372 144.804 62.7381C144.804 62.3698 143.245 54.4799 143.011 53.6725C142.693 52.5818 142.073 51.7461 141.314 51.4062C140.845 51.1937 140.803 51.137 141.052 51.0662C141.438 50.9387 142.514 49.7205 142.859 49.0265C143.425 47.8791 143.563 46.8592 143.563 43.5447C143.563 40.1876 143.452 39.4085 142.818 38.1195C142.417 37.3121 141.493 36.3914 140.707 35.9806C139.492 35.3574 138.651 35.2582 134.222 35.2582H130.041V49.069ZM137.616 39.621C137.933 39.7768 138.237 40.1026 138.458 40.4992C138.789 41.1225 138.803 41.2075 138.803 44.1113C138.803 46.8876 138.789 47.1284 138.513 47.6525C137.947 48.7148 137.354 48.9981 135.684 48.9981H134.594V44.0971V39.1819L135.864 39.281C136.622 39.3235 137.326 39.4652 137.616 39.621Z" fill="#1C1C1C"/>
<path d="M130.041 49.069V62.8797H132.318H134.594V58.0636V53.2476L135.739 53.2618C136.36 53.2618 137.092 53.3326 137.354 53.4317C138.154 53.715 138.375 54.3808 139.189 58.8427L139.906 62.8089L142.362 62.8514C143.921 62.8655 144.804 62.8372 144.804 62.7381C144.804 62.3698 143.245 54.4799 143.011 53.6725C142.693 52.5818 142.073 51.7461 141.314 51.4062C140.845 51.1937 140.803 51.137 141.052 51.0662C141.438 50.9387 142.514 49.7205 142.859 49.0265C143.425 47.8791 143.563 46.8592 143.563 43.5447C143.563 40.1876 143.452 39.4085 142.818 38.1195C142.417 37.3121 141.493 36.3914 140.707 35.9806C139.492 35.3574 138.651 35.2582 134.222 35.2582H130.041V49.069ZM137.616 39.621C137.933 39.7768 138.237 40.1026 138.458 40.4992C138.789 41.1225 138.803 41.2075 138.803 44.1113C138.803 46.8876 138.789 47.1284 138.513 47.6525C137.947 48.7148 137.354 48.9981 135.684 48.9981H134.594V44.0971V39.1819L135.864 39.281C136.622 39.3235 137.326 39.4652 137.616 39.621Z" fill="black" fill-opacity="0.2"/>
<path d="M130.041 49.069V62.8797H132.318H134.594V58.0636V53.2476L135.739 53.2618C136.36 53.2618 137.092 53.3326 137.354 53.4317C138.154 53.715 138.375 54.3808 139.189 58.8427L139.906 62.8089L142.362 62.8514C143.921 62.8655 144.804 62.8372 144.804 62.7381C144.804 62.3698 143.245 54.4799 143.011 53.6725C142.693 52.5818 142.073 51.7461 141.314 51.4062C140.845 51.1937 140.803 51.137 141.052 51.0662C141.438 50.9387 142.514 49.7205 142.859 49.0265C143.425 47.8791 143.563 46.8592 143.563 43.5447C143.563 40.1876 143.452 39.4085 142.818 38.1195C142.417 37.3121 141.493 36.3914 140.707 35.9806C139.492 35.3574 138.651 35.2582 134.222 35.2582H130.041V49.069ZM137.616 39.621C137.933 39.7768 138.237 40.1026 138.458 40.4992C138.789 41.1225 138.803 41.2075 138.803 44.1113C138.803 46.8876 138.789 47.1284 138.513 47.6525C137.947 48.7148 137.354 48.9981 135.684 48.9981H134.594V44.0971V39.1819L135.864 39.281C136.622 39.3235 137.326 39.4652 137.616 39.621Z" fill="black" fill-opacity="0.2"/>
<path d="M130.041 49.069V62.8797H132.318H134.594V58.0636V53.2476L135.739 53.2618C136.36 53.2618 137.092 53.3326 137.354 53.4317C138.154 53.715 138.375 54.3808 139.189 58.8427L139.906 62.8089L142.362 62.8514C143.921 62.8655 144.804 62.8372 144.804 62.7381C144.804 62.3698 143.245 54.4799 143.011 53.6725C142.693 52.5818 142.073 51.7461 141.314 51.4062C140.845 51.1937 140.803 51.137 141.052 51.0662C141.438 50.9387 142.514 49.7205 142.859 49.0265C143.425 47.8791 143.563 46.8592 143.563 43.5447C143.563 40.1876 143.452 39.4085 142.818 38.1195C142.417 37.3121 141.493 36.3914 140.707 35.9806C139.492 35.3574 138.651 35.2582 134.222 35.2582H130.041V49.069ZM137.616 39.621C137.933 39.7768 138.237 40.1026 138.458 40.4992C138.789 41.1225 138.803 41.2075 138.803 44.1113C138.803 46.8876 138.789 47.1284 138.513 47.6525C137.947 48.7148 137.354 48.9981 135.684 48.9981H134.594V44.0971V39.1819L135.864 39.281C136.622 39.3235 137.326 39.4652 137.616 39.621Z" fill="black" fill-opacity="0.2"/>
</g>
</g>
<defs>
<clipPath id="clip0_928_37649">
<rect width="182.957" height="62.6087" fill="white" transform="translate(0 0.695679)"/>
</clipPath>
<clipPath id="clip1_928_37649">
<rect width="182.957" height="62.6087" fill="white" transform="translate(0 0.695679)"/>
</clipPath>
</defs>
</svg>
