<svg width="174" height="64" viewBox="0 0 174 64" fill="none" xmlns="http://www.w3.org/2000/svg">
<g style="mix-blend-mode:luminosity" clip-path="url(#clip0_928_37696)">
<path d="M39.4082 33.3525H47.183L43.2907 24.1688L39.4082 33.3525Z" fill="#C90C0F"/>
<path fill-rule="evenodd" clip-rule="evenodd" d="M60.0639 0.347778H4.73725C2.60419 0.347778 0.875 2.08392 0.875 4.22555V59.7744C0.875 61.916 2.60419 63.6521 4.73726 63.6521H60.0639C62.197 63.6521 63.9261 61.9159 63.9261 59.7744V4.22554C63.9261 2.08391 62.197 0.347778 60.0639 0.347778ZM34.9432 43.9209L38.1657 36.2679H48.4004L51.6399 43.9209H55.0881L43.2916 17.1353L31.495 43.9209H34.9432ZM10.6269 21.3262H23.2583L9.90096 43.9209H27.6866V41.0055H15.0551L28.4125 18.4108H10.6269V21.3262Z" fill="#C90C0F"/>
<path fill-rule="evenodd" clip-rule="evenodd" d="M71.7852 18.4108V43.921H78.6819C81.1497 43.921 83.3156 43.3864 85.1788 42.3174C87.0665 41.2485 88.5301 39.7664 89.5709 37.8714C90.6355 35.9521 91.1682 33.7169 91.1682 31.1659C91.1682 28.6149 90.6355 26.3918 89.5709 24.4968C88.5301 22.5775 87.0665 21.0833 85.1788 20.0144C83.3156 18.9453 81.1497 18.4108 78.6819 18.4108H71.7852ZM73.7816 41.9166V20.4152H78.6819C80.2548 20.4152 81.6824 20.6703 82.9648 21.1805C84.2716 21.6907 85.3844 22.4196 86.3038 23.3671C87.2239 24.2903 87.9255 25.42 88.4093 26.7563C88.9175 28.0682 89.1713 29.5381 89.1713 31.1659C89.1713 32.7936 88.9175 34.2757 88.4093 35.6119C87.9255 36.9239 87.2239 38.0536 86.3038 39.0012C85.3844 39.9243 84.2716 40.6411 82.9648 41.1513C81.6824 41.6614 80.2548 41.9166 78.6819 41.9166H73.7816Z" fill="#1D1D1B"/>
<path fill-rule="evenodd" clip-rule="evenodd" d="M97.1235 36.3772C96.4945 34.7737 96.1797 33.0366 96.1797 31.1658C96.1797 29.2951 96.4945 27.5702 97.1235 25.9909C97.7525 24.3874 98.636 23.0026 99.7732 21.8365C100.91 20.646 102.242 19.7227 103.766 19.0668C105.315 18.4108 106.996 18.0828 108.811 18.0828C110.626 18.0828 112.296 18.4108 113.82 19.0668C115.369 19.7227 116.712 20.646 117.849 21.8365C118.986 23.0026 119.87 24.3874 120.499 25.9909C121.128 27.5702 121.443 29.2951 121.443 31.1658C121.443 33.0366 121.128 34.7737 120.499 36.3772C119.87 37.9564 118.986 39.3412 117.849 40.5317C116.712 41.6978 115.369 42.6089 113.82 43.2649C112.296 43.9209 110.626 44.2489 108.811 44.2489C106.996 44.2489 105.315 43.9209 103.766 43.2649C102.242 42.6089 100.91 41.6978 99.7732 40.5317C98.636 39.3412 97.7525 37.9564 97.1235 36.3772ZM99.628 25.4808C98.733 27.1328 98.2852 29.0278 98.2852 31.1658C98.2852 33.2795 98.733 35.1746 99.628 36.8509C100.547 38.5273 101.794 39.8514 103.367 40.8233C104.964 41.7707 106.779 42.2445 108.811 42.2445C110.844 42.2445 112.647 41.7707 114.22 40.8233C115.817 39.8514 117.063 38.5273 117.958 36.8509C118.853 35.1746 119.301 33.2795 119.301 31.1658C119.301 29.0278 118.853 27.1328 117.958 25.4808C117.063 23.8043 115.817 22.4924 114.22 21.5449C112.647 20.5731 110.844 20.0872 108.811 20.0872C106.779 20.0872 104.964 20.5731 103.367 21.5449C101.794 22.4924 100.547 23.8043 99.628 25.4808Z" fill="#1D1D1B"/>
<path fill-rule="evenodd" clip-rule="evenodd" d="M126.457 31.1658C126.457 33.0366 126.772 34.7737 127.401 36.3772C128.03 37.9564 128.913 39.3412 130.051 40.5317C131.188 41.6978 132.519 42.6089 134.044 43.2649C135.592 43.9209 137.274 44.2489 139.089 44.2489C140.904 44.2489 142.573 43.9209 144.097 43.2649C145.647 42.6089 146.989 41.6978 148.127 40.5317C149.264 39.3412 150.147 37.9564 150.776 36.3772C151.406 34.7737 151.72 33.0366 151.72 31.1658C151.72 29.2951 151.406 27.5702 150.776 25.9909C150.147 24.3874 149.264 23.0026 148.127 21.8365C146.989 20.646 145.647 19.7227 144.097 19.0668C142.573 18.4108 140.904 18.0828 139.089 18.0828C137.274 18.0828 135.592 18.4108 134.044 19.0668C132.519 19.7227 131.188 20.646 130.051 21.8365C128.913 23.0026 128.03 24.3874 127.401 25.9909C126.772 27.5702 126.457 29.2951 126.457 31.1658ZM128.563 31.1658C128.563 29.0278 129.01 27.1328 129.905 25.4808C130.825 23.8043 132.071 22.4924 133.644 21.5449C135.241 20.5731 137.056 20.0872 139.089 20.0872C141.121 20.0872 142.924 20.5731 144.497 21.5449C146.094 22.4924 147.34 23.8043 148.236 25.4808C149.131 27.1328 149.579 29.0278 149.579 31.1658C149.579 33.2795 149.131 35.1746 148.236 36.8509C147.34 38.5273 146.094 39.8514 144.497 40.8233C142.924 41.7707 141.121 42.2445 139.089 42.2445C137.056 42.2445 135.241 41.7707 133.644 40.8233C132.071 39.8514 130.825 38.5273 129.905 36.8509C129.01 35.1746 128.563 33.2795 128.563 31.1658Z" fill="#1D1D1B"/>
<path fill-rule="evenodd" clip-rule="evenodd" d="M170.93 43.921L163.518 33.2067H160.186V43.921H158.189V18.4108H163.997C165.642 18.4108 167.107 18.7024 168.389 19.2855C169.696 19.8686 170.725 20.7067 171.474 21.8001C172.225 22.8933 172.599 24.2295 172.599 25.8088C172.599 27.3636 172.225 28.6999 171.474 29.8175C170.725 30.935 169.696 31.7854 168.389 32.3685C167.563 32.7283 166.662 32.9723 165.686 33.1004L173.398 43.921H170.93ZM160.186 20.1965V31.421H163.997C165.279 31.421 166.417 31.2145 167.409 30.8015C168.426 30.3642 169.212 29.7324 169.769 28.9064C170.325 28.0561 170.603 27.0236 170.603 25.8088C170.603 24.594 170.313 23.5736 169.732 22.7475C169.175 21.9215 168.401 21.2899 167.409 20.8525C166.417 20.4152 165.279 20.1965 163.997 20.1965H160.186Z" fill="#1D1D1B"/>
<path d="M172.907 50.7595V54.958H172.424V51.9815L169.408 55.1579V50.9594H169.892V53.9359L172.907 50.7595Z" fill="#1D1D1B"/>
<path d="M170.512 50.1712C170.448 50.0455 170.416 49.9179 170.416 49.7885H170.82C170.82 49.838 170.833 49.897 170.859 49.9656C170.886 50.0303 170.936 50.0893 171.008 50.1426C171.079 50.1921 171.182 50.2169 171.315 50.2169C171.447 50.2169 171.55 50.1921 171.622 50.1426C171.694 50.0893 171.743 50.0303 171.77 49.9656C171.796 49.897 171.81 49.838 171.81 49.7885H172.214C172.214 49.9179 172.179 50.0455 172.111 50.1712C172.047 50.293 171.948 50.394 171.816 50.4739C171.683 50.5501 171.516 50.5882 171.315 50.5882C171.118 50.5882 170.951 50.5501 170.814 50.4739C170.681 50.394 170.581 50.293 170.512 50.1712Z" fill="#1D1D1B"/>
<path fill-rule="evenodd" clip-rule="evenodd" d="M80.2203 54.958L80.7249 53.7584H82.3293L82.8368 54.958H83.3774L81.5285 50.7595L79.6797 54.958H80.2203ZM80.9197 53.3014H82.1388L81.5285 51.8619L80.9197 53.3014Z" fill="#1D1D1B"/>
<path fill-rule="evenodd" clip-rule="evenodd" d="M73.2543 50.9595V51.4171C72.9301 51.4242 72.6382 51.4868 72.378 51.605C72.1049 51.7268 71.8887 51.902 71.7294 52.1305C71.5739 52.359 71.4961 52.635 71.4961 52.9588C71.4961 53.2787 71.5739 53.5547 71.7294 53.7871C71.8887 54.0156 72.1049 54.1926 72.378 54.3183C72.6382 54.4328 72.9301 54.4935 73.2543 54.5004V54.9581H73.7374V54.5004C74.0616 54.4935 74.3513 54.4328 74.6079 54.3183C74.8854 54.1926 75.101 54.0156 75.257 53.7871C75.4159 53.5547 75.4957 53.2787 75.4957 52.9588C75.4957 52.635 75.4159 52.359 75.257 52.1305C75.101 51.902 74.8854 51.7268 74.6079 51.605C74.3513 51.4868 74.0616 51.4243 73.7374 51.4171V50.9595H73.2543ZM72.6226 52.0219C72.8072 51.9485 73.0178 51.9087 73.2543 51.9028V54.0148C73.0178 54.0091 72.8072 53.9713 72.6226 53.9013C72.4215 53.8213 72.2642 53.7033 72.1504 53.5472C72.0366 53.3872 71.9797 53.1911 71.9797 52.9588C71.9797 52.7227 72.0366 52.5266 72.1504 52.3704C72.2642 52.2143 72.4215 52.0981 72.6226 52.0219ZM74.3692 53.9013C74.1845 53.9713 73.9739 54.0091 73.7374 54.0148V51.9028C73.9739 51.9086 74.1845 51.9485 74.3692 52.0219C74.5705 52.0981 74.7279 52.2143 74.8415 52.3704C74.9551 52.5266 75.0119 52.7227 75.0119 52.9588C75.0119 53.1911 74.9551 53.3872 74.8415 53.5472C74.7279 53.7033 74.5705 53.8213 74.3692 53.9013Z" fill="#1D1D1B"/>
<path fill-rule="evenodd" clip-rule="evenodd" d="M88.4408 52.5589V51.4165H90.0905V50.9595H87.957V54.9581H89.0382C89.2955 54.9581 89.5255 54.9104 89.7261 54.8152C89.931 54.7162 90.092 54.5772 90.2099 54.3982C90.3314 54.2155 90.3917 54.0022 90.3917 53.7585C90.3917 53.5109 90.3314 53.2977 90.2099 53.1187C90.092 52.9398 89.931 52.8026 89.7261 52.7074C89.5255 52.6084 89.2955 52.5589 89.0382 52.5589H88.4408ZM88.4408 54.5011H89.0382C89.2085 54.5011 89.358 54.4744 89.4874 54.4211C89.6204 54.364 89.7225 54.2802 89.7944 54.1698C89.8706 54.0593 89.9087 53.9222 89.9087 53.7585C89.9087 53.5947 89.8706 53.4577 89.7944 53.3472C89.7225 53.2367 89.6204 53.1549 89.4874 53.1016C89.358 53.0445 89.2085 53.0159 89.0382 53.0159H88.4408V54.5011Z" fill="#1D1D1B"/>
<path fill-rule="evenodd" clip-rule="evenodd" d="M95.1699 54.9581H95.6537V53.3586H96.2511C96.5091 53.3586 96.7384 53.311 96.9397 53.2158C97.1446 53.1168 97.3056 52.9778 97.4235 52.7988C97.545 52.6161 97.6054 52.4028 97.6054 52.1591C97.6054 51.9115 97.545 51.6983 97.4235 51.5193C97.3056 51.3403 97.1446 51.2032 96.9397 51.108C96.7384 51.009 96.5091 50.9595 96.2511 50.9595H95.1699V54.9581ZM96.2511 52.9016H95.6537V51.4165H96.2511C96.5091 51.4165 96.7176 51.4793 96.8772 51.605C97.0403 51.7268 97.1216 51.9115 97.1216 52.1591C97.1216 52.4028 97.0404 52.5875 96.8772 52.7131C96.7176 52.8388 96.5091 52.9016 96.2511 52.9016Z" fill="#1D1D1B"/>
<path d="M105.882 50.7595V54.958H105.398V51.9815L102.383 55.1579V50.9594H102.867V53.9359L105.882 50.7595Z" fill="#1D1D1B"/>
<path d="M110.891 54.9581H111.374V53.0184L113.024 54.9581H113.622L111.812 52.8331L113.536 50.9595H112.939L111.374 52.6817V50.9595H110.891V54.9581Z" fill="#1D1D1B"/>
<path fill-rule="evenodd" clip-rule="evenodd" d="M118.823 53.7584L118.318 54.958H117.777L119.626 50.7595L121.475 54.958H120.934L120.427 53.7584H118.823ZM120.237 53.3014H119.017L119.626 51.8619L120.237 53.3014Z" fill="#1D1D1B"/>
<path fill-rule="evenodd" clip-rule="evenodd" d="M133.652 50.7595L135.159 54.501H135.672V55.5863H135.245V54.958H132.059V55.5863H131.633V54.501H132.146L133.652 50.7595ZM133.652 51.8619L134.653 54.501H132.651L133.652 51.8619Z" fill="#1D1D1B"/>
<path fill-rule="evenodd" clip-rule="evenodd" d="M142.023 52.7762C142.047 52.7814 142.071 52.787 142.094 52.7931C142.258 52.835 142.4 52.8998 142.521 52.9873C142.647 53.0711 142.743 53.1797 142.811 53.313C142.879 53.4462 142.914 53.6042 142.914 53.7871C142.914 54.0498 142.853 54.2687 142.731 54.444C142.614 54.6153 142.453 54.7448 142.248 54.8324C142.047 54.9161 141.818 54.9581 141.56 54.9581H140.479V50.9595H141.503C141.742 50.9595 141.949 50.9956 142.123 51.068C142.301 51.1404 142.44 51.2508 142.538 51.3994C142.636 51.5441 142.686 51.7306 142.686 51.9591C142.686 52.1457 142.637 52.3056 142.538 52.4389C142.44 52.5722 142.301 52.6731 142.123 52.7417C142.106 52.7485 142.088 52.7549 142.07 52.7611C142.054 52.7663 142.038 52.7714 142.023 52.7762ZM140.962 52.9988V54.5296H141.56C141.73 54.5296 141.88 54.4992 142.009 54.4382C142.142 54.3773 142.244 54.2898 142.317 54.1755C142.392 54.0613 142.43 53.9222 142.43 53.7585C142.43 53.6367 142.409 53.5281 142.368 53.4329C142.326 53.3377 142.265 53.2577 142.186 53.1929C142.11 53.1283 142.018 53.0806 141.913 53.0502C141.806 53.0159 141.688 52.9988 141.56 52.9988L140.962 52.9988ZM140.962 52.5761H141.503C141.635 52.5761 141.755 52.5532 141.861 52.5075C141.967 52.4618 142.051 52.3951 142.112 52.3076C142.172 52.22 142.202 52.1134 142.202 51.9877C142.202 51.7973 142.136 51.6507 142.003 51.5478C141.871 51.4412 141.703 51.3879 141.503 51.3879H140.962V52.5761Z" fill="#1D1D1B"/>
<path d="M150.022 54.9581V54.5011H148.23V53.0159H149.908V52.5589H148.23V51.4165H150.022V50.9595H147.746V54.9581H150.022Z" fill="#1D1D1B"/>
<path fill-rule="evenodd" clip-rule="evenodd" d="M155.454 54.9581H154.971V50.9595H156.052C156.31 50.9595 156.539 51.009 156.741 51.108C156.945 51.2032 157.106 51.3403 157.224 51.5193C157.345 51.6983 157.406 51.9115 157.406 52.1591C157.406 52.4028 157.345 52.6161 157.224 52.7988C157.106 52.9778 156.945 53.1168 156.741 53.2158C156.539 53.311 156.31 53.3586 156.052 53.3586H155.454V54.9581ZM155.454 52.9016H156.052C156.31 52.9016 156.518 52.8388 156.678 52.7131C156.84 52.5875 156.922 52.4028 156.922 52.1591C156.922 51.9115 156.84 51.7268 156.678 51.605C156.518 51.4793 156.31 51.4165 156.052 51.4165H155.454V52.9016Z" fill="#1D1D1B"/>
<path d="M164.461 54.9581V54.5011H162.669V53.0159H164.347V52.5589H162.669V51.4165H164.461V50.9595H162.186V54.9581H164.461Z" fill="#1D1D1B"/>
<path d="M23.2578 21.3262H10.6263V18.4108H28.4119L15.0546 41.0055H27.686V43.9209H9.90039L23.2578 21.3262Z" fill="white"/>
<path fill-rule="evenodd" clip-rule="evenodd" d="M38.1668 36.2679L34.9443 43.9209H31.4961L43.2927 17.1353L55.0893 43.9209H51.641L48.4015 36.2679H38.1668ZM39.4102 33.3525H47.1849L43.2927 24.1688L39.4102 33.3525Z" fill="white"/>
</g>
<defs>
<clipPath id="clip0_928_37696">
<rect width="172.522" height="63.3043" fill="white" transform="translate(0.875 0.347839)"/>
</clipPath>
</defs>
</svg>
