<svg width="264" height="44" viewBox="0 0 264 44" fill="none" xmlns="http://www.w3.org/2000/svg">
<g style="mix-blend-mode:luminosity" clip-path="url(#clip0_928_37677)">
<path d="M24.3398 37.1761C33.0998 37.1761 40.2012 30.1049 40.2012 21.3819C40.2012 12.6591 33.0998 5.58783 24.3398 5.58783C15.5798 5.58783 8.47852 12.6591 8.47852 21.3819C8.47852 30.1049 15.5798 37.1761 24.3398 37.1761Z" fill="#E8F5E1"/>
<path fill-rule="evenodd" clip-rule="evenodd" d="M11.2226 30.1917C11.0586 29.8837 10.9127 29.566 10.7857 29.2405C10.7296 29.1063 10.6775 28.9681 10.6334 28.8339L10.5812 28.6754C10.5412 28.5534 10.5051 28.4354 10.473 28.3135C9.90485 26.2655 10.0489 24.0816 10.8811 22.1287C11.7132 20.1757 13.1827 18.5728 15.0427 17.589C16.014 17.0658 17.068 16.7191 18.1572 16.5645C19.3597 20.2233 17.2633 24.7279 13.0464 27.541C13.4743 27.365 13.893 27.1668 14.3011 26.9475C18.4859 24.6994 20.963 20.638 21.0552 16.6052C21.0699 16.1478 21.0525 15.6899 21.0032 15.2351C18.9353 14.9609 16.8343 15.3444 14.9905 16.3328C12.9147 17.4259 11.2996 19.2447 10.444 21.4526C9.58846 23.6604 9.55034 26.1078 10.3367 28.3419C10.3768 28.4558 10.4209 28.5696 10.469 28.6835C10.4931 28.7485 10.5211 28.8176 10.5492 28.8826C10.6053 29.0128 10.6614 29.147 10.7256 29.2892C10.7897 29.4316 10.8739 29.5942 10.954 29.7445C11.0342 29.8949 11.1304 30.0536 11.2226 30.1917Z" fill="#5BC029"/>
<path fill-rule="evenodd" clip-rule="evenodd" d="M7.77511 30.1999C7.5934 30.1592 7.41302 30.1268 7.23398 30.1024C7.15694 30.0902 7.07934 30.082 7.00148 30.0779H6.90529H6.70486C5.58585 30.0446 4.48858 30.3959 3.59134 31.075C2.69408 31.7539 2.04955 32.7206 1.76248 33.8182C1.61957 34.3833 1.57883 34.9701 1.64222 35.5499C3.68251 35.6882 5.74284 34.0174 6.64073 31.4845C6.60465 31.7245 6.55655 31.9684 6.49643 32.2083C6.23753 33.3357 5.69089 34.3742 4.91138 35.2198C4.13185 36.0653 3.14683 36.6881 2.05509 37.0257C1.81963 37.0926 1.57989 37.1429 1.33758 37.1761C1.11325 36.62 0.985759 36.0285 0.96079 35.428C0.941857 34.9323 0.994525 34.4365 1.11712 33.9563C1.43447 32.7265 2.17388 31.6517 3.20249 30.9252C4.2311 30.1986 5.48147 29.8679 6.72891 29.9926L6.92534 30.0129H7.03757L7.26204 30.0494C7.35423 30.0494 7.44242 30.0861 7.5306 30.1105C7.61879 30.1348 7.69094 30.1755 7.77511 30.1999Z" fill="#5BC029"/>
<path d="M38.1334 37.5746L38.3378 37.4728C24.0638 44.4898 16.5039 39.4039 12.3151 32.2935C6.77146 22.9228 8.97609 10.7672 18.3117 5.30326C27.6474 -0.160661 39.4642 2.61601 44.8795 11.4258L44.6631 11.0721C38.8709 1.74195 26.096 -0.957488 15.8706 5.039C5.90565 10.8688 2.59869 23.5163 8.97609 33.5213C12.1828 38.5462 18.1674 42.0587 25.0098 42.0587C29.2187 42.0587 33.7482 40.7171 38.1334 37.5583" fill="#5BC029"/>
<path d="M44.5777 10.7752C42.7319 8.23064 40.3788 6.10858 37.6713 4.54702C35.9883 3.65541 34.1853 3.0198 32.32 2.66065C30.8369 2.37608 29.7145 2.17687 29.4459 2.14842C27.0821 1.8836 24.6923 1.98642 22.359 2.45333L20.1103 3.99818L17.8535 5.5837L18.3305 5.30318C18.8322 5.04532 19.3552 4.8331 19.8939 4.66897C20.5038 4.46776 21.1265 4.30885 21.7577 4.19332C22.7919 4.00632 23.5695 3.9372 23.762 3.92094C24.3112 3.88842 24.736 3.89248 24.8683 3.89248C25.3253 3.89248 25.67 3.92907 26.2191 3.97379C26.5879 4.00225 26.8043 4.02258 27.117 4.06323C27.2533 4.06323 27.6181 4.13235 28.091 4.22584C28.3396 4.27463 28.548 4.32341 28.7084 4.36C29.0972 4.45243 29.4813 4.56506 29.8587 4.69743C30.3318 4.86411 30.8489 5.07552 31.4021 5.33164C31.9552 5.58776 32.5405 5.88453 33.1377 6.23416C33.735 6.58379 34.3402 6.97 34.9655 7.40907C35.5917 7.85599 36.1951 8.33496 36.7734 8.84415C37.3702 9.3669 37.939 9.92196 38.4768 10.5069C39.0088 11.09 39.5104 11.7006 39.9801 12.3363C40.2006 12.6616 40.433 12.9665 40.6335 13.2958L40.9421 13.7918C41.0342 13.9584 41.1305 14.117 41.2227 14.2796C41.5733 14.8958 41.8905 15.5309 42.1726 16.1822C42.3009 16.4953 42.4212 16.8001 42.5414 17.0929L42.8421 17.9589C42.9222 18.2433 43.0024 18.5118 43.0786 18.7718C43.1547 19.0321 43.1988 19.2801 43.2589 19.5077C43.3191 19.7354 43.3592 19.9591 43.3952 20.1622C43.4312 20.3655 43.4674 20.5687 43.4994 20.7152C43.5956 21.3901 43.6438 21.7721 43.6438 21.7721C43.6438 21.7721 43.5635 21.394 43.4152 20.7314C43.3752 20.5687 43.323 20.3859 43.271 20.1867C43.2188 19.9874 43.1628 19.7801 43.0865 19.5565C43.0104 19.3329 42.9423 19.089 42.8541 18.841C42.7659 18.5931 42.6617 18.337 42.5575 18.0645C42.4532 17.7921 42.325 17.5238 42.2007 17.2514L41.7758 16.3855C41.4502 15.7759 41.093 15.1842 40.7055 14.613L40.4009 14.1617L40.0722 13.7226C39.8438 13.3852 39.6073 13.1088 39.3708 12.8161C38.8765 12.2455 38.3519 11.7026 37.7995 11.1899C37.2468 10.6696 36.6661 10.181 36.0598 9.72635C35.473 9.28631 34.8627 8.87917 34.232 8.50673C33.6267 8.13677 33.0294 7.8156 32.4402 7.5351C31.851 7.25458 31.2898 7.02285 30.7687 6.82364C30.2475 6.62443 29.7546 6.47402 29.3217 6.35612C28.9729 6.25855 28.6643 6.18943 28.3957 6.13252C28.3957 10.2792 28.7966 18.0279 31.4341 21.9592C35.1339 27.4881 44.6218 27.7849 46.113 32.4195C48.9509 24.1789 48.2254 15.9627 44.5777 10.7752Z" fill="#5BC029"/>
<path d="M64.3948 30.4601C62.9493 28.0001 62.1785 25.1929 62.1621 22.3293C62.1621 21.9986 62.1701 21.6774 62.1861 21.3657C62.2032 21.0431 62.2447 20.7224 62.3104 20.4063C62.4735 19.0882 62.8077 17.7978 63.3045 16.5685C63.8111 15.3085 64.4709 14.1176 65.2686 13.0235C66.7715 10.9909 68.7478 9.36783 71.0207 8.29948C73.2326 7.25523 75.6437 6.71675 78.0836 6.7221V0.782532H83.0339V6.592C85.1545 6.55812 87.2584 6.97672 89.2092 7.82066C91.1601 8.6646 92.9142 9.91503 94.3577 11.4908C97.4657 14.7432 99.0196 18.509 99.0196 22.7887C99.0199 23.2734 98.9958 23.7577 98.9474 24.2399C98.8993 24.7156 98.8232 25.1994 98.7269 25.6913C98.6308 26.1832 98.5185 26.6671 98.3862 27.1426C98.2528 27.6357 98.0909 28.1204 97.9012 28.594C96.6765 31.5364 94.5738 34.0158 91.8885 35.684C89.2436 37.3977 86.1685 38.3038 83.0299 38.2941V43.2173H78.0836V38.4893L76.8208 38.3917C76.3986 38.3591 75.9617 38.3103 75.5102 38.2453C74.6588 38.0778 73.8171 37.8633 72.9888 37.6029C72.1332 37.3326 71.304 36.9828 70.5117 36.5582C67.9644 35.1265 65.8498 33.0185 64.3948 30.4601ZM70.0266 15.0115C68.1949 17.0919 67.1769 19.78 67.1646 22.5691C67.1621 22.7577 67.1702 22.9464 67.1887 23.1342C67.2033 23.3075 67.2274 23.4798 67.2607 23.6505V23.8497C67.2929 24.0123 67.3169 24.1627 67.3329 24.2928C67.3499 24.4399 67.3578 24.5879 67.357 24.736C67.8206 27.278 69.1413 29.5775 71.0928 31.2406C73.0207 32.9669 75.512 33.9058 78.0836 33.875V11.1209H77.0654C75.6983 11.2594 74.3721 11.6722 73.1637 12.3352C71.9553 12.9983 70.889 13.8983 70.0266 14.983V15.0115ZM90.726 30.521C91.7702 29.4827 92.5951 28.2396 93.1504 26.8677C93.7059 25.4957 93.9803 24.0235 93.9568 22.5406C93.9568 19.6217 92.8799 16.9804 90.726 14.6171C88.5723 12.2538 86.0082 11.0721 83.0339 11.0721V33.814C84.4727 33.829 85.8989 33.5415 87.2228 32.9699C88.5467 32.3982 89.7394 31.5547 90.726 30.4926V30.521Z" fill="#3D3A3A"/>
<path d="M112.495 37.7043H107.934V7.21381H115.405C115.795 7.21381 116.196 7.22194 116.608 7.2382C117.019 7.25446 117.44 7.26259 117.87 7.26259C118.991 7.36063 120.097 7.58423 121.169 7.92932C122.231 8.26824 123.174 8.9088 123.887 9.77502C124.485 10.4872 124.939 11.3119 125.222 12.2021C125.527 13.1088 125.715 14.0516 125.783 15.0072V15.5032C125.782 16.0625 125.74 16.6208 125.659 17.1741C125.581 17.7254 125.459 18.2692 125.294 18.8002C124.554 21.1635 123.252 22.6326 121.39 23.2071C119.46 23.7896 117.455 24.0787 115.441 24.065C115.217 24.065 114.972 24.065 114.716 24.0406C114.459 24.0161 114.215 24.0161 113.986 24.0161C113.758 24.0161 113.469 24.0161 113.209 23.9918C112.948 23.9674 112.708 23.9674 112.483 23.9674L112.495 37.7043ZM112.784 19.9792C112.948 19.9792 113.1 19.9792 113.245 20.0036C113.399 20.0237 113.554 20.0333 113.71 20.032C113.902 20.032 114.078 20.032 114.243 20.0564C114.407 20.0809 114.58 20.0809 114.776 20.0809H115.357C115.553 20.0808 115.749 20.0645 115.942 20.032C117.078 19.9748 118.19 19.6815 119.209 19.1702C120.211 18.6621 120.761 17.6822 120.857 16.2391V15.6008C120.857 13.9583 120.316 12.8837 119.233 12.3769C118.11 11.8587 116.899 11.566 115.666 11.515H112.796L112.784 19.9792Z" fill="#3D3A3A"/>
<path d="M152.145 29.8257H140.303L136.808 37.7045H131.709L146.176 6.0675L160.734 37.7208H155.542L152.145 29.8257ZM142.099 25.7603H150.445L147.337 18.8207C147.11 18.2583 146.917 17.6827 146.757 17.0969L146.272 15.3244C146.239 15.4546 146.207 15.5805 146.176 15.6944C146.143 15.8083 146.107 15.914 146.075 16.0155C145.947 16.5061 145.813 16.9818 145.675 17.4426C145.525 17.902 145.357 18.3614 145.161 18.8207L142.099 25.7603Z" fill="#3D3A3A"/>
<path d="M194.2 21.5811C194.151 21.2356 194.111 20.886 194.08 20.5241C194.047 20.352 194.022 20.1783 194.007 20.0038C193.988 19.8324 193.978 19.6599 193.98 19.4875C193.98 19.3248 193.98 19.1541 193.955 18.9711C193.94 18.798 193.915 18.6256 193.882 18.4548C193.718 19.1873 193.517 19.9106 193.277 20.6217C193.04 21.3286 192.757 22.0186 192.428 22.6869L184.664 38.8347L176.798 22.3942C176.538 21.7357 176.29 21.0893 176.045 20.4469C175.801 19.8046 175.552 19.1459 175.296 18.4548C175.263 18.8817 175.227 19.3086 175.196 19.7355C175.163 20.1623 175.115 20.5893 175.051 21.0161C175.019 21.2763 174.986 21.5487 174.955 21.8292C174.922 22.1188 174.873 22.4064 174.811 22.691L171.508 37.7087H167.043L174.125 5.94965L183.008 25.1993C183.168 25.5287 183.324 25.862 183.47 26.2076C183.613 26.5531 183.753 26.8906 183.869 27.2158L184.063 27.7078C184.127 27.8744 184.19 28.0533 184.258 28.2524L184.452 28.7444C184.515 28.907 184.579 29.0738 184.647 29.2364C184.776 28.907 184.912 28.5696 185.049 28.2281C185.184 27.8867 185.329 27.5451 185.449 27.2158C185.569 26.8866 185.766 26.5531 185.91 26.2076C186.054 25.862 186.21 25.5287 186.374 25.1993L194.968 5.94965L202.297 37.7046H197.719L194.416 22.6382C194.322 22.2908 194.249 21.9377 194.2 21.5811Z" fill="#3D3A3A"/>
<path d="M211.805 7.23029H216.708V27.3174L236.349 6.1001V37.7046H231.498L231.398 17.9142L211.805 38.8837V7.23029Z" fill="#3D3A3A"/>
<path d="M250.615 37.7043H246.053V7.21381H253.528C253.929 7.21381 254.33 7.21381 254.732 7.2382C255.132 7.26259 255.573 7.26259 255.993 7.26259C257.116 7.3606 258.223 7.58421 259.296 7.92932C260.356 8.2703 261.3 8.9105 262.015 9.77502C262.608 10.4844 263.061 11.3028 263.349 12.1858C263.657 13.0989 263.848 14.0486 263.915 15.0113V15.5073C263.915 16.0664 263.874 16.6248 263.794 17.1781C263.713 17.7287 263.591 18.2722 263.43 18.8043C262.683 21.1541 261.375 22.6218 259.505 23.2071C257.576 23.7896 255.573 24.0787 253.561 24.065C253.332 24.065 253.091 24.065 252.831 24.0406C252.571 24.0161 252.329 24.0161 252.105 24.0161C251.882 24.0161 251.584 24.0161 251.328 23.9918C251.071 23.9674 250.827 23.9674 250.598 23.9674L250.615 37.7043ZM250.906 19.9792C251.067 19.9792 251.224 19.9792 251.368 20.0036C251.521 20.0238 251.675 20.0333 251.83 20.032C252.021 20.032 252.202 20.032 252.362 20.0564C252.523 20.0809 252.703 20.0809 252.895 20.0809H253.492C253.687 20.0805 253.881 20.0642 254.074 20.032C255.204 19.9737 256.311 19.6802 257.324 19.1702C258.327 18.6621 258.88 17.6822 258.976 16.2391V15.6008C258.976 13.9583 258.434 12.8837 257.349 12.3769C256.226 11.8582 255.014 11.5655 253.781 11.515H250.919L250.906 19.9792Z" fill="#3D3A3A"/>
</g>
<defs>
<clipPath id="clip0_928_37677">
<rect width="262.957" height="42.4348" fill="white" transform="translate(0.957031 0.782593)"/>
</clipPath>
</defs>
</svg>
