<svg width="112" height="40" viewBox="0 0 112 40" fill="none" xmlns="http://www.w3.org/2000/svg">
<path d="M6.48438 32.3201C7.77049 31.0372 10.5233 29.1574 12.923 28.4812C16.7175 31.244 21.624 32.6992 27.0825 32.6992C32.099 32.6992 35.6418 31.2628 38.892 29.5115L39.5195 29.9053C36.1233 33.1688 29.5573 35.6609 23.6435 35.6552C17.1977 35.6492 11.8784 34.561 6.48438 32.3201Z" fill="url(#paint0_linear_1240_68734)"/>
<path d="M13.5834 22.5698C12.7884 25.0976 11.1477 26.5353 7.7186 26.5353C6.30242 26.5353 4.80326 26.276 4.1654 26.0893C4.25198 26.6432 4.3063 27.2532 4.19638 28.1069C4.08647 28.9605 3.84372 30.8496 3.84372 30.8496C3.8051 31.1321 3.57529 31.272 3.3353 31.1657C2.85935 30.956 1.78479 30.4187 1.39457 30.148C1.2263 30.0314 1.09622 29.9533 1.12253 29.7554C1.12614 29.7312 2.92343 15.6548 2.92343 15.6548C3.0726 14.4656 3.39599 14.0688 4.61356 13.6726C6.0794 13.1765 8.04241 12.8794 9.68289 12.8794C11.4971 12.8794 12.64 13.3006 13.3602 14.069C14.1307 14.8866 14.3541 16.0517 14.3541 17.6129C14.3533 19.1992 14.0802 21.0582 13.5834 22.5698ZM10.9745 15.6305C10.527 15.0606 9.80617 14.9611 8.78721 14.9611C7.5446 14.9611 5.75559 15.4322 5.75559 15.4322L4.68719 24.181C4.68719 24.181 5.78042 24.5281 7.42111 24.5281C9.40873 24.5281 10.4029 23.8589 10.9493 21.6286C11.2474 20.4388 11.4462 19.0756 11.4462 17.8366C11.446 16.7458 11.2966 16.0766 10.9745 15.6305Z" fill="#36333C"/>
<path d="M25.7474 14.8342C25.7226 15.0323 25.6715 15.2372 25.3746 15.2059C23.6382 15.022 21.4936 15.1377 20.2665 15.5068L18.9742 25.8419C18.9498 26.0647 18.8004 26.2135 18.5763 26.2135H16.5142C16.4393 26.2135 16.166 26.0897 16.166 25.8666V25.8419L17.4827 15.2836C17.607 14.2677 18.0541 13.9701 19.173 13.5983C20.2911 13.2017 22.462 12.9043 23.4719 12.9043C24.4809 12.9043 25.4992 13 25.722 13.0499C25.7971 13.0745 25.9461 13.124 25.9461 13.347C25.9463 13.3716 25.7474 14.8342 25.7474 14.8342Z" fill="#36333C"/>
<path d="M30.013 25.8416C29.9884 26.0644 29.814 26.2132 29.5906 26.2132H27.5527C27.3288 26.2132 27.2051 26.0894 27.2051 25.8913V25.842L28.6955 13.6977C28.7206 13.4996 28.9194 13.3506 29.1426 13.3506H31.1805C31.3796 13.3506 31.5033 13.4744 31.5033 13.6479V13.6975L30.013 25.8416ZM31.8517 10.8223C31.8023 11.1446 31.6032 11.3184 31.2807 11.3184H29.5167C29.2186 11.3184 29.0694 11.1946 29.0694 10.9216V10.8223L29.2899 8.86126C29.3391 8.53893 29.5382 8.3656 29.8864 8.3656H31.6501C31.9489 8.3656 32.0976 8.51417 32.0976 8.76221V8.86147L31.8517 10.8223Z" fill="#36333C"/>
<path d="M45.6426 21.8015C44.9719 24.5526 43.4558 26.5355 39.1077 26.5355C36.9707 26.5355 35.6538 26.0642 34.8585 25.2462C34.0142 24.4041 33.7402 23.1892 33.7402 21.7767C33.7402 20.3143 33.9643 18.6788 34.3367 17.3156C35.0573 14.7133 36.6227 12.8794 40.7972 12.8794C42.9843 12.8794 44.326 13.3753 45.1213 14.2176C45.916 15.0851 46.1642 16.2747 46.1642 17.6874C46.1642 19.0258 45.9404 20.513 45.6426 21.8015ZM42.785 15.6553C42.3878 15.1596 41.6916 14.9118 40.5489 14.9118C38.3124 14.9118 37.5419 15.8783 37.1445 17.5882C36.8465 18.902 36.6227 20.5871 36.6227 21.901C36.6227 22.793 36.7716 23.4868 37.2686 23.9332C37.6911 24.305 38.3368 24.5031 39.356 24.5031C41.8161 24.5031 42.5121 23.3382 42.8848 21.2563C43.0579 20.166 43.2822 18.7285 43.2822 17.6627C43.282 16.7954 43.182 16.1262 42.785 15.6553Z" fill="#36333C"/>
<path d="M44.9766 11.6387C44.9766 11.3697 45.067 11.1439 45.2477 10.9621C45.4283 10.7803 45.6537 10.6888 45.924 10.6888C46.1884 10.6888 46.4114 10.779 46.5931 10.9593C46.7751 11.1396 46.8662 11.361 46.8662 11.6241C46.8662 11.8876 46.7751 12.1102 46.5931 12.2916C46.4114 12.4734 46.1884 12.564 45.924 12.564C45.6649 12.564 45.4425 12.474 45.2564 12.2941C45.0699 12.1145 44.9766 11.8958 44.9766 11.6387ZM45.1487 11.6057C45.1487 11.8374 45.2189 12.0309 45.36 12.1858C45.506 12.3458 45.6942 12.4258 45.9238 12.4258C46.147 12.4258 46.3316 12.3473 46.4787 12.1909C46.6226 12.037 46.6947 11.8484 46.6947 11.6239C46.6947 11.4002 46.6226 11.2124 46.4787 11.0596C46.3316 10.9047 46.147 10.827 45.9238 10.827C45.7069 10.827 45.5228 10.9024 45.3732 11.0535C45.2236 11.2046 45.1487 11.3887 45.1487 11.6057ZM45.5571 12.1722V11.0768H45.9819C46.2387 11.0768 46.3669 11.1805 46.3669 11.3879C46.3669 11.5597 46.2705 11.6603 46.0772 11.6888L46.3913 12.1722H46.2084L45.9094 11.7009H45.7286V12.1722H45.5571ZM45.7288 11.2154V11.5638H45.9066C45.9996 11.5638 46.066 11.5557 46.1046 11.5396C46.1651 11.5134 46.1954 11.4613 46.1954 11.383C46.1954 11.2713 46.1154 11.2154 45.955 11.2154H45.7288Z" fill="#36333C"/>
<path d="M67.5736 15.8464V15.7766C68.2421 15.6547 68.6461 15.1798 68.6461 14.584C68.6461 14.0568 68.3131 13.1802 66.6421 13.1802H66.0079H63.4395V18.5125H66.0079H66.5884C67.2401 18.5125 68.7872 18.4435 68.7872 17.1101C68.787 16.2504 68.1177 15.9169 67.5736 15.8464ZM66.0072 17.4432C65.9711 17.4432 65.954 17.4432 65.9202 17.4432H65.374V16.3218H65.8496C65.885 16.3218 65.937 16.3218 66.0072 16.3218C66.2706 16.3381 66.6415 16.4265 66.6415 16.8468C66.6417 17.0405 66.588 17.4075 66.0072 17.4432ZM66.0072 15.3031C65.954 15.3207 65.9013 15.3207 65.8496 15.3207H65.374V14.2502H65.9202C65.954 14.2502 65.9711 14.2502 66.0072 14.2502C66.4656 14.286 66.6415 14.5313 66.6415 14.7766C66.6417 14.8995 66.588 15.2502 66.0072 15.3031Z" fill="#36333C"/>
<path d="M54.4247 15.0575H53.0361V13.1801H51.0312V18.5125H53.0361V16.5134H54.4247V18.5125H56.5016V13.1801H54.4247V15.0575Z" fill="#36333C"/>
<path d="M59.9384 13.0573H59.9046C58.0411 13.0573 56.9668 14.1099 56.9668 15.8465C56.9668 17.5144 58.0409 18.5836 59.9046 18.5836H59.9384C61.8575 18.5662 62.9127 17.4962 62.9127 15.8465C62.9123 14.1275 61.8575 13.0573 59.9384 13.0573ZM59.9384 17.3038L59.9046 17.3214C59.1664 17.3214 59.111 16.3732 59.111 15.8465C59.111 15.321 59.167 14.391 59.9046 14.391C59.9214 14.391 59.9214 14.391 59.9384 14.391C60.7131 14.409 60.768 15.321 60.768 15.8465C60.7683 16.3728 60.7133 17.2858 59.9384 17.3038Z" fill="#36333C"/>
<path d="M88.1983 15.8464V15.7766C88.8671 15.6547 89.3433 15.1798 89.3433 14.584C89.3433 14.0568 89.0101 13.1802 87.3395 13.1802H86.7042H84.1348V18.5125H86.7042H87.1991C87.8639 18.5125 89.3961 18.4435 89.3961 17.1101C89.3955 16.2504 88.7284 15.9169 88.1983 15.8464ZM86.7038 17.4432C86.6707 17.4432 86.6317 17.4432 86.599 17.4432H86.0706V16.3218H86.529C86.5795 16.3218 86.6317 16.3218 86.7038 16.3218C86.9495 16.3381 87.3391 16.4265 87.3391 16.8468C87.3393 17.0405 87.2131 17.3905 86.7038 17.4432ZM86.7038 15.3031C86.6508 15.3207 86.599 15.3207 86.529 15.3207H86.0706V14.2502H86.599C86.6317 14.2502 86.6707 14.2502 86.7038 14.2502C87.1592 14.286 87.3391 14.5313 87.3391 14.7766C87.3393 14.8995 87.2661 15.2502 86.7038 15.3031Z" fill="#36333C"/>
<path d="M101.625 17.1103V13.1802H98.8972H96.8926V14.8468C96.8926 15.5137 96.8926 16.3732 96.1542 17.1103H95.7676V19.7069H97.7535V18.5127H98.8979H100.164V19.7069H102.24V18.5127V17.1103H101.625ZM99.6378 17.1103H98.8977H98.1599C98.6335 16.5137 98.6869 15.9169 98.6869 15.1798V14.5133H98.897H99.6369L99.6378 17.1103Z" fill="#36333C"/>
<path d="M92.7187 13.0573H92.6809C90.8176 13.0573 89.7441 14.1099 89.7441 15.8465C89.7441 17.5144 90.8176 18.5836 92.6809 18.5836H92.7187C94.635 18.5662 95.6894 17.4962 95.6894 15.8465C95.6894 14.1275 94.6352 13.0573 92.7187 13.0573ZM92.7187 17.3038L92.6809 17.3214C91.9421 17.3214 91.872 16.3732 91.872 15.8465C91.872 15.321 91.9416 14.391 92.6809 14.391C92.6809 14.391 92.6992 14.391 92.7187 14.391C93.4718 14.409 93.5448 15.321 93.5448 15.8465C93.5445 16.3728 93.4718 17.2858 92.7187 17.3038Z" fill="#36333C"/>
<path d="M78.1216 13.1801C77.3303 13.1801 75.9218 13.2501 75.9218 14.5839C75.9218 15.3731 76.5206 15.8463 77.1888 15.9877C76.8561 16.0406 76.3279 16.2505 76.1166 16.9875L75.7832 18.5128H77.9296L78.1216 17.1803C78.1734 16.7944 78.4552 16.6897 78.6487 16.6537C78.7034 16.6537 78.7565 16.6537 78.7889 16.6537H79.2662V18.5128H81.3234V13.1801H78.6487H78.1216ZM78.7894 14.3908H79.3188V15.5138H78.8613C78.8068 15.5138 78.738 15.5138 78.6491 15.5138C78.3853 15.4787 77.9985 15.3731 77.9985 14.9176C77.9985 14.4791 78.403 14.3911 78.6491 14.3911C78.7036 14.3908 78.7567 14.3908 78.7894 14.3908Z" fill="#36333C"/>
<path d="M107.286 13.1801H105.859H104.487L102.623 18.5125H104.685L105.015 17.3731H105.86H106.618L107.023 18.5125H108.816H109.151L108.816 17.5661L107.286 13.1801ZM105.859 16.1106H105.28L105.825 14.4427H105.859H105.88L106.425 16.1106H105.859Z" fill="#36333C"/>
<path d="M72.0845 13.1801H70.7296L68.8477 18.5125H70.9236L71.2569 17.3731H72.0838H72.8575L73.26 18.5125H75.3873L73.5238 13.1801H72.0845ZM72.0845 16.1106H71.5202L72.0482 14.4427L72.0845 14.5489L72.6642 16.1106H72.0845Z" fill="#36333C"/>
<path d="M108.988 14.0698C108.988 13.8006 109.08 13.575 109.26 13.393C109.441 13.211 109.666 13.12 109.936 13.12C110.2 13.12 110.424 13.2102 110.605 13.3905C110.787 13.5708 110.878 13.7922 110.878 14.0552C110.878 14.3187 110.787 14.5414 110.605 14.7227C110.424 14.9043 110.2 14.9951 109.936 14.9951C109.677 14.9951 109.454 14.905 109.269 14.7253C109.082 14.5456 108.988 14.327 108.988 14.0698ZM109.161 14.0368C109.161 14.2686 109.231 14.462 109.373 14.6169C109.519 14.7769 109.707 14.8569 109.936 14.8569C110.159 14.8569 110.344 14.7786 110.491 14.622C110.635 14.4684 110.707 14.2796 110.707 14.0552C110.707 13.8315 110.635 13.6436 110.491 13.4908C110.344 13.3359 110.159 13.2582 109.936 13.2582C109.719 13.2582 109.535 13.3335 109.385 13.4844C109.236 13.6358 109.161 13.8197 109.161 14.0368ZM109.569 14.6036V13.5081H109.994C110.251 13.5081 110.379 13.6116 110.379 13.819C110.379 13.9911 110.283 14.0916 110.089 14.12L110.404 14.6036H110.221L109.922 14.1323H109.741V14.6036H109.569ZM109.741 13.6466V13.9949H109.919C110.012 13.9949 110.079 13.9867 110.117 13.9706C110.177 13.9443 110.208 13.8925 110.208 13.8142C110.208 13.7024 110.128 13.6466 109.967 13.6466H109.741Z" fill="#36333C"/>
<defs>
<linearGradient id="paint0_linear_1240_68734" x1="10.396" y1="27.6043" x2="40.6784" y2="37.4828" gradientUnits="userSpaceOnUse">
<stop stop-color="#00BCF1"/>
<stop offset="1" stop-color="#293895"/>
</linearGradient>
</defs>
</svg>
