<svg width="92" height="32" viewBox="0 0 92 32" fill="none" xmlns="http://www.w3.org/2000/svg">
<g clip-path="url(#clip0_1240_68664)">
<path d="M58.2949 0.446903C56.9013 0.716035 55.97 1.68633 55.6664 3.18072C55.5767 3.61983 55.5698 4.32807 55.5836 7.70639L55.6043 11.7151L55.7975 12.2746C56.3425 13.8539 57.4049 14.5834 59.1572 14.5834C60.9578 14.5834 62.0271 13.8044 62.579 12.1046C62.6963 11.7505 62.7101 11.3609 62.7308 7.75597C62.7515 4.30683 62.7377 3.71899 62.6411 3.22322C62.3721 1.84922 61.6132 0.921425 60.468 0.553139C59.9092 0.376078 58.9089 0.326501 58.2949 0.446903ZM59.6884 2.68495C59.8126 2.75578 59.9782 2.96117 60.0679 3.12406L60.2265 3.42861V7.501V11.5734L60.0679 11.8779C59.7367 12.5083 58.9571 12.6216 58.4604 12.1117C58.0603 11.7009 58.0465 11.5522 58.0672 7.28145L58.0879 3.49943L58.2604 3.14531C58.5363 2.57871 59.1848 2.36624 59.6884 2.68495Z" fill="#1C1C1C"/>
<path d="M58.2949 0.446903C56.9013 0.716035 55.97 1.68633 55.6664 3.18072C55.5767 3.61983 55.5698 4.32807 55.5836 7.70639L55.6043 11.7151L55.7975 12.2746C56.3425 13.8539 57.4049 14.5834 59.1572 14.5834C60.9578 14.5834 62.0271 13.8044 62.579 12.1046C62.6963 11.7505 62.7101 11.3609 62.7308 7.75597C62.7515 4.30683 62.7377 3.71899 62.6411 3.22322C62.3721 1.84922 61.6132 0.921425 60.468 0.553139C59.9092 0.376078 58.9089 0.326501 58.2949 0.446903ZM59.6884 2.68495C59.8126 2.75578 59.9782 2.96117 60.0679 3.12406L60.2265 3.42861V7.501V11.5734L60.0679 11.8779C59.7367 12.5083 58.9571 12.6216 58.4604 12.1117C58.0603 11.7009 58.0465 11.5522 58.0672 7.28145L58.0879 3.49943L58.2604 3.14531C58.5363 2.57871 59.1848 2.36624 59.6884 2.68495Z" fill="black" fill-opacity="0.2"/>
<path d="M58.2949 0.446903C56.9013 0.716035 55.97 1.68633 55.6664 3.18072C55.5767 3.61983 55.5698 4.32807 55.5836 7.70639L55.6043 11.7151L55.7975 12.2746C56.3425 13.8539 57.4049 14.5834 59.1572 14.5834C60.9578 14.5834 62.0271 13.8044 62.579 12.1046C62.6963 11.7505 62.7101 11.3609 62.7308 7.75597C62.7515 4.30683 62.7377 3.71899 62.6411 3.22322C62.3721 1.84922 61.6132 0.921425 60.468 0.553139C59.9092 0.376078 58.9089 0.326501 58.2949 0.446903ZM59.6884 2.68495C59.8126 2.75578 59.9782 2.96117 60.0679 3.12406L60.2265 3.42861V7.501V11.5734L60.0679 11.8779C59.7367 12.5083 58.9571 12.6216 58.4604 12.1117C58.0603 11.7009 58.0465 11.5522 58.0672 7.28145L58.0879 3.49943L58.2604 3.14531C58.5363 2.57871 59.1848 2.36624 59.6884 2.68495Z" fill="black" fill-opacity="0.2"/>
<path d="M58.2949 0.446903C56.9013 0.716035 55.97 1.68633 55.6664 3.18072C55.5767 3.61983 55.5698 4.32807 55.5836 7.70639L55.6043 11.7151L55.7975 12.2746C56.3425 13.8539 57.4049 14.5834 59.1572 14.5834C60.9578 14.5834 62.0271 13.8044 62.579 12.1046C62.6963 11.7505 62.7101 11.3609 62.7308 7.75597C62.7515 4.30683 62.7377 3.71899 62.6411 3.22322C62.3721 1.84922 61.6132 0.921425 60.468 0.553139C59.9092 0.376078 58.9089 0.326501 58.2949 0.446903ZM59.6884 2.68495C59.8126 2.75578 59.9782 2.96117 60.0679 3.12406L60.2265 3.42861V7.501V11.5734L60.0679 11.8779C59.7367 12.5083 58.9571 12.6216 58.4604 12.1117C58.0603 11.7009 58.0465 11.5522 58.0672 7.28145L58.0879 3.49943L58.2604 3.14531C58.5363 2.57871 59.1848 2.36624 59.6884 2.68495Z" fill="black" fill-opacity="0.2"/>
<path d="M11.416 16V31.4397H17.9561H24.4893L27.6834 27.8843L30.8707 24.3289V15.9929V7.66398L27.6834 4.1086L24.4893 0.5603H17.9561H11.416V16ZM24.441 23.6207L24.4203 31.2343L21.302 27.7781L18.1838 24.3219V16V7.67814L21.302 4.21483L24.4203 0.758608L24.441 8.3793C24.4479 12.5721 24.4479 19.4279 24.441 23.6207Z" fill="#1C1C1C"/>
<path d="M11.416 16V31.4397H17.9561H24.4893L27.6834 27.8843L30.8707 24.3289V15.9929V7.66398L27.6834 4.1086L24.4893 0.5603H17.9561H11.416V16ZM24.441 23.6207L24.4203 31.2343L21.302 27.7781L18.1838 24.3219V16V7.67814L21.302 4.21483L24.4203 0.758608L24.441 8.3793C24.4479 12.5721 24.4479 19.4279 24.441 23.6207Z" fill="black" fill-opacity="0.2"/>
<path d="M11.416 16V31.4397H17.9561H24.4893L27.6834 27.8843L30.8707 24.3289V15.9929V7.66398L27.6834 4.1086L24.4893 0.5603H17.9561H11.416V16ZM24.441 23.6207L24.4203 31.2343L21.302 27.7781L18.1838 24.3219V16V7.67814L21.302 4.21483L24.4203 0.758608L24.441 8.3793C24.4479 12.5721 24.4479 19.4279 24.441 23.6207Z" fill="black" fill-opacity="0.2"/>
<path d="M11.416 16V31.4397H17.9561H24.4893L27.6834 27.8843L30.8707 24.3289V15.9929V7.66398L27.6834 4.1086L24.4893 0.5603H17.9561H11.416V16ZM24.441 23.6207L24.4203 31.2343L21.302 27.7781L18.1838 24.3219V16V7.67814L21.302 4.21483L24.4203 0.758608L24.441 8.3793C24.4479 12.5721 24.4479 19.4279 24.441 23.6207Z" fill="black" fill-opacity="0.2"/>
<path d="M39.082 7.45852V14.371H40.2203H41.3586V12.0692V9.76739H42.2486C42.7315 9.76739 43.2834 9.73906 43.4697 9.70365C44.7115 9.46285 45.4634 8.74752 45.7394 7.56475C45.8843 6.92025 45.8843 3.48527 45.7394 2.84077C45.4772 1.71467 44.8563 1.03475 43.8077 0.730208C43.4697 0.631054 42.9799 0.602725 41.2414 0.581477L39.082 0.546065V7.45852ZM42.8764 2.79828C43.0282 2.88327 43.1799 3.06741 43.2903 3.28697C43.4559 3.63401 43.4628 3.6765 43.4628 5.19922C43.4628 6.69362 43.4559 6.77152 43.2972 7.09731C43.0695 7.57892 42.7867 7.71349 41.9795 7.71349H41.3586V5.15673V2.59997L42.0002 2.6283C42.4762 2.64955 42.7039 2.69204 42.8764 2.79828Z" fill="#1C1C1C"/>
<path d="M39.082 7.45852V14.371H40.2203H41.3586V12.0692V9.76739H42.2486C42.7315 9.76739 43.2834 9.73906 43.4697 9.70365C44.7115 9.46285 45.4634 8.74752 45.7394 7.56475C45.8843 6.92025 45.8843 3.48527 45.7394 2.84077C45.4772 1.71467 44.8563 1.03475 43.8077 0.730208C43.4697 0.631054 42.9799 0.602725 41.2414 0.581477L39.082 0.546065V7.45852ZM42.8764 2.79828C43.0282 2.88327 43.1799 3.06741 43.2903 3.28697C43.4559 3.63401 43.4628 3.6765 43.4628 5.19922C43.4628 6.69362 43.4559 6.77152 43.2972 7.09731C43.0695 7.57892 42.7867 7.71349 41.9795 7.71349H41.3586V5.15673V2.59997L42.0002 2.6283C42.4762 2.64955 42.7039 2.69204 42.8764 2.79828Z" fill="black" fill-opacity="0.2"/>
<path d="M39.082 7.45852V14.371H40.2203H41.3586V12.0692V9.76739H42.2486C42.7315 9.76739 43.2834 9.73906 43.4697 9.70365C44.7115 9.46285 45.4634 8.74752 45.7394 7.56475C45.8843 6.92025 45.8843 3.48527 45.7394 2.84077C45.4772 1.71467 44.8563 1.03475 43.8077 0.730208C43.4697 0.631054 42.9799 0.602725 41.2414 0.581477L39.082 0.546065V7.45852ZM42.8764 2.79828C43.0282 2.88327 43.1799 3.06741 43.2903 3.28697C43.4559 3.63401 43.4628 3.6765 43.4628 5.19922C43.4628 6.69362 43.4559 6.77152 43.2972 7.09731C43.0695 7.57892 42.7867 7.71349 41.9795 7.71349H41.3586V5.15673V2.59997L42.0002 2.6283C42.4762 2.64955 42.7039 2.69204 42.8764 2.79828Z" fill="black" fill-opacity="0.2"/>
<path d="M39.082 7.45852V14.371H40.2203H41.3586V12.0692V9.76739H42.2486C42.7315 9.76739 43.2834 9.73906 43.4697 9.70365C44.7115 9.46285 45.4634 8.74752 45.7394 7.56475C45.8843 6.92025 45.8843 3.48527 45.7394 2.84077C45.4772 1.71467 44.8563 1.03475 43.8077 0.730208C43.4697 0.631054 42.9799 0.602725 41.2414 0.581477L39.082 0.546065V7.45852ZM42.8764 2.79828C43.0282 2.88327 43.1799 3.06741 43.2903 3.28697C43.4559 3.63401 43.4628 3.6765 43.4628 5.19922C43.4628 6.69362 43.4559 6.77152 43.2972 7.09731C43.0695 7.57892 42.7867 7.71349 41.9795 7.71349H41.3586V5.15673V2.59997L42.0002 2.6283C42.4762 2.64955 42.7039 2.69204 42.8764 2.79828Z" fill="black" fill-opacity="0.2"/>
<path d="M47.291 7.45858V14.371H48.4293H49.5676V11.9984V9.6258H50.1471C50.8508 9.6258 51.113 9.71079 51.2854 10.0083C51.3751 10.157 51.5545 10.9148 51.8028 12.2746C52.0167 13.4007 52.1961 14.3356 52.2099 14.3498C52.2237 14.364 52.7825 14.364 53.4448 14.3569L54.652 14.3356L54.2174 12.0976C53.9829 10.8652 53.7276 9.71788 53.6586 9.5479C53.4793 9.13712 53.2102 8.81841 52.948 8.70509C52.8377 8.65551 52.7411 8.59885 52.7411 8.57052C52.7411 8.54927 52.8515 8.45012 52.9756 8.35097C53.3344 8.08183 53.6931 7.53649 53.8518 7.01239C53.9829 6.61577 54.0105 6.32539 54.0381 5.07888C54.0725 3.52783 54.0174 2.96832 53.769 2.29549C53.5896 1.8068 53.0998 1.2402 52.6445 1.00648C51.9477 0.64528 51.7476 0.616951 49.4503 0.581538L47.291 0.546126V7.45858ZM51.0854 2.79834C51.4096 2.98957 51.5476 3.26578 51.6442 3.88903C51.7339 4.48396 51.6856 6.17666 51.5683 6.58744C51.3958 7.20361 51.0371 7.43733 50.1747 7.48691L49.5676 7.52232V5.05764V2.60003L50.2092 2.62836C50.6852 2.64961 50.9129 2.6921 51.0854 2.79834Z" fill="#1C1C1C"/>
<path d="M47.291 7.45858V14.371H48.4293H49.5676V11.9984V9.6258H50.1471C50.8508 9.6258 51.113 9.71079 51.2854 10.0083C51.3751 10.157 51.5545 10.9148 51.8028 12.2746C52.0167 13.4007 52.1961 14.3356 52.2099 14.3498C52.2237 14.364 52.7825 14.364 53.4448 14.3569L54.652 14.3356L54.2174 12.0976C53.9829 10.8652 53.7276 9.71788 53.6586 9.5479C53.4793 9.13712 53.2102 8.81841 52.948 8.70509C52.8377 8.65551 52.7411 8.59885 52.7411 8.57052C52.7411 8.54927 52.8515 8.45012 52.9756 8.35097C53.3344 8.08183 53.6931 7.53649 53.8518 7.01239C53.9829 6.61577 54.0105 6.32539 54.0381 5.07888C54.0725 3.52783 54.0174 2.96832 53.769 2.29549C53.5896 1.8068 53.0998 1.2402 52.6445 1.00648C51.9477 0.64528 51.7476 0.616951 49.4503 0.581538L47.291 0.546126V7.45858ZM51.0854 2.79834C51.4096 2.98957 51.5476 3.26578 51.6442 3.88903C51.7339 4.48396 51.6856 6.17666 51.5683 6.58744C51.3958 7.20361 51.0371 7.43733 50.1747 7.48691L49.5676 7.52232V5.05764V2.60003L50.2092 2.62836C50.6852 2.64961 50.9129 2.6921 51.0854 2.79834Z" fill="black" fill-opacity="0.2"/>
<path d="M47.291 7.45858V14.371H48.4293H49.5676V11.9984V9.6258H50.1471C50.8508 9.6258 51.113 9.71079 51.2854 10.0083C51.3751 10.157 51.5545 10.9148 51.8028 12.2746C52.0167 13.4007 52.1961 14.3356 52.2099 14.3498C52.2237 14.364 52.7825 14.364 53.4448 14.3569L54.652 14.3356L54.2174 12.0976C53.9829 10.8652 53.7276 9.71788 53.6586 9.5479C53.4793 9.13712 53.2102 8.81841 52.948 8.70509C52.8377 8.65551 52.7411 8.59885 52.7411 8.57052C52.7411 8.54927 52.8515 8.45012 52.9756 8.35097C53.3344 8.08183 53.6931 7.53649 53.8518 7.01239C53.9829 6.61577 54.0105 6.32539 54.0381 5.07888C54.0725 3.52783 54.0174 2.96832 53.769 2.29549C53.5896 1.8068 53.0998 1.2402 52.6445 1.00648C51.9477 0.64528 51.7476 0.616951 49.4503 0.581538L47.291 0.546126V7.45858ZM51.0854 2.79834C51.4096 2.98957 51.5476 3.26578 51.6442 3.88903C51.7339 4.48396 51.6856 6.17666 51.5683 6.58744C51.3958 7.20361 51.0371 7.43733 50.1747 7.48691L49.5676 7.52232V5.05764V2.60003L50.2092 2.62836C50.6852 2.64961 50.9129 2.6921 51.0854 2.79834Z" fill="black" fill-opacity="0.2"/>
<path d="M47.291 7.45858V14.371H48.4293H49.5676V11.9984V9.6258H50.1471C50.8508 9.6258 51.113 9.71079 51.2854 10.0083C51.3751 10.157 51.5545 10.9148 51.8028 12.2746C52.0167 13.4007 52.1961 14.3356 52.2099 14.3498C52.2237 14.364 52.7825 14.364 53.4448 14.3569L54.652 14.3356L54.2174 12.0976C53.9829 10.8652 53.7276 9.71788 53.6586 9.5479C53.4793 9.13712 53.2102 8.81841 52.948 8.70509C52.8377 8.65551 52.7411 8.59885 52.7411 8.57052C52.7411 8.54927 52.8515 8.45012 52.9756 8.35097C53.3344 8.08183 53.6931 7.53649 53.8518 7.01239C53.9829 6.61577 54.0105 6.32539 54.0381 5.07888C54.0725 3.52783 54.0174 2.96832 53.769 2.29549C53.5896 1.8068 53.0998 1.2402 52.6445 1.00648C51.9477 0.64528 51.7476 0.616951 49.4503 0.581538L47.291 0.546126V7.45858ZM51.0854 2.79834C51.4096 2.98957 51.5476 3.26578 51.6442 3.88903C51.7339 4.48396 51.6856 6.17666 51.5683 6.58744C51.3958 7.20361 51.0371 7.43733 50.1747 7.48691L49.5676 7.52232V5.05764V2.60003L50.2092 2.62836C50.6852 2.64961 50.9129 2.6921 51.0854 2.79834Z" fill="black" fill-opacity="0.2"/>
<path d="M64.2617 7.46566V14.371H65.4345H66.6073V11.6443V8.91756H68.0216H69.4358V7.74896V6.58036H68.0216H66.6073V4.73893V2.89749H68.0216H69.4358V1.72889V0.56029H66.8488H64.2617V7.46566Z" fill="#1C1C1C"/>
<path d="M64.2617 7.46566V14.371H65.4345H66.6073V11.6443V8.91756H68.0216H69.4358V7.74896V6.58036H68.0216H66.6073V4.73893V2.89749H68.0216H69.4358V1.72889V0.56029H66.8488H64.2617V7.46566Z" fill="black" fill-opacity="0.2"/>
<path d="M64.2617 7.46566V14.371H65.4345H66.6073V11.6443V8.91756H68.0216H69.4358V7.74896V6.58036H68.0216H66.6073V4.73893V2.89749H68.0216H69.4358V1.72889V0.56029H66.8488H64.2617V7.46566Z" fill="black" fill-opacity="0.2"/>
<path d="M64.2617 7.46566V14.371H65.4345H66.6073V11.6443V8.91756H68.0216H69.4358V7.74896V6.58036H68.0216H66.6073V4.73893V2.89749H68.0216H69.4358V1.72889V0.56029H66.8488H64.2617V7.46566Z" fill="black" fill-opacity="0.2"/>
<path d="M70.7461 7.4656V14.371H71.9534H73.1607V7.4656V0.560229H71.9534H70.7461V7.4656Z" fill="#1C1C1C"/>
<path d="M70.7461 7.4656V14.371H71.9534H73.1607V7.4656V0.560229H71.9534H70.7461V7.4656Z" fill="black" fill-opacity="0.2"/>
<path d="M70.7461 7.4656V14.371H71.9534H73.1607V7.4656V0.560229H71.9534H70.7461V7.4656Z" fill="black" fill-opacity="0.2"/>
<path d="M70.7461 7.4656V14.371H71.9534H73.1607V7.4656V0.560229H71.9534H70.7461V7.4656Z" fill="black" fill-opacity="0.2"/>
<path d="M75.0234 7.4656V14.371H77.5415H80.0596V13.2378V12.1046H78.7143H77.369V6.33241V0.560229H76.1962H75.0234V7.4656Z" fill="#1C1C1C"/>
<path d="M75.0234 7.4656V14.371H77.5415H80.0596V13.2378V12.1046H78.7143H77.369V6.33241V0.560229H76.1962H75.0234V7.4656Z" fill="black" fill-opacity="0.2"/>
<path d="M75.0234 7.4656V14.371H77.5415H80.0596V13.2378V12.1046H78.7143H77.369V6.33241V0.560229H76.1962H75.0234V7.4656Z" fill="black" fill-opacity="0.2"/>
<path d="M75.0234 7.4656V14.371H77.5415H80.0596V13.2378V12.1046H78.7143H77.369V6.33241V0.560229H76.1962H75.0234V7.4656Z" fill="black" fill-opacity="0.2"/>
<path d="M50.001 17.5155C48.8489 17.8059 48.0487 18.6275 47.6554 19.9306C47.5381 20.3202 47.5312 20.6814 47.5312 24.4988V28.642L47.6968 29.2015C48.1452 30.6889 49.1594 31.4821 50.7875 31.6167C52.3259 31.7441 53.6436 31.0713 54.2231 29.8602C54.6577 28.9537 54.6715 28.7908 54.6715 24.5484C54.6715 21.3471 54.6508 20.6531 54.5611 20.1927C54.2783 18.7762 53.4711 17.8626 52.2086 17.5226C51.7326 17.3951 50.5115 17.3881 50.001 17.5155ZM51.5464 19.6757C51.7533 19.7748 51.8775 19.9023 51.9948 20.1219L52.1535 20.4264V24.4988C52.1535 28.4296 52.1466 28.5783 52.0155 28.8545C51.6222 29.6619 50.5943 29.6619 50.1873 28.8474L50.0148 28.5075L49.9941 24.7538C49.9803 22.2254 50.001 20.8868 50.0493 20.6318C50.1459 20.1644 50.3598 19.8244 50.6702 19.6686C50.9807 19.5057 51.1876 19.5128 51.5464 19.6757Z" fill="#1C1C1C"/>
<path d="M50.001 17.5155C48.8489 17.8059 48.0487 18.6275 47.6554 19.9306C47.5381 20.3202 47.5312 20.6814 47.5312 24.4988V28.642L47.6968 29.2015C48.1452 30.6889 49.1594 31.4821 50.7875 31.6167C52.3259 31.7441 53.6436 31.0713 54.2231 29.8602C54.6577 28.9537 54.6715 28.7908 54.6715 24.5484C54.6715 21.3471 54.6508 20.6531 54.5611 20.1927C54.2783 18.7762 53.4711 17.8626 52.2086 17.5226C51.7326 17.3951 50.5115 17.3881 50.001 17.5155ZM51.5464 19.6757C51.7533 19.7748 51.8775 19.9023 51.9948 20.1219L52.1535 20.4264V24.4988C52.1535 28.4296 52.1466 28.5783 52.0155 28.8545C51.6222 29.6619 50.5943 29.6619 50.1873 28.8474L50.0148 28.5075L49.9941 24.7538C49.9803 22.2254 50.001 20.8868 50.0493 20.6318C50.1459 20.1644 50.3598 19.8244 50.6702 19.6686C50.9807 19.5057 51.1876 19.5128 51.5464 19.6757Z" fill="black" fill-opacity="0.2"/>
<path d="M50.001 17.5155C48.8489 17.8059 48.0487 18.6275 47.6554 19.9306C47.5381 20.3202 47.5312 20.6814 47.5312 24.4988V28.642L47.6968 29.2015C48.1452 30.6889 49.1594 31.4821 50.7875 31.6167C52.3259 31.7441 53.6436 31.0713 54.2231 29.8602C54.6577 28.9537 54.6715 28.7908 54.6715 24.5484C54.6715 21.3471 54.6508 20.6531 54.5611 20.1927C54.2783 18.7762 53.4711 17.8626 52.2086 17.5226C51.7326 17.3951 50.5115 17.3881 50.001 17.5155ZM51.5464 19.6757C51.7533 19.7748 51.8775 19.9023 51.9948 20.1219L52.1535 20.4264V24.4988C52.1535 28.4296 52.1466 28.5783 52.0155 28.8545C51.6222 29.6619 50.5943 29.6619 50.1873 28.8474L50.0148 28.5075L49.9941 24.7538C49.9803 22.2254 50.001 20.8868 50.0493 20.6318C50.1459 20.1644 50.3598 19.8244 50.6702 19.6686C50.9807 19.5057 51.1876 19.5128 51.5464 19.6757Z" fill="black" fill-opacity="0.2"/>
<path d="M50.001 17.5155C48.8489 17.8059 48.0487 18.6275 47.6554 19.9306C47.5381 20.3202 47.5312 20.6814 47.5312 24.4988V28.642L47.6968 29.2015C48.1452 30.6889 49.1594 31.4821 50.7875 31.6167C52.3259 31.7441 53.6436 31.0713 54.2231 29.8602C54.6577 28.9537 54.6715 28.7908 54.6715 24.5484C54.6715 21.3471 54.6508 20.6531 54.5611 20.1927C54.2783 18.7762 53.4711 17.8626 52.2086 17.5226C51.7326 17.3951 50.5115 17.3881 50.001 17.5155ZM51.5464 19.6757C51.7533 19.7748 51.8775 19.9023 51.9948 20.1219L52.1535 20.4264V24.4988C52.1535 28.4296 52.1466 28.5783 52.0155 28.8545C51.6222 29.6619 50.5943 29.6619 50.1873 28.8474L50.0148 28.5075L49.9941 24.7538C49.9803 22.2254 50.001 20.8868 50.0493 20.6318C50.1459 20.1644 50.3598 19.8244 50.6702 19.6686C50.9807 19.5057 51.1876 19.5128 51.5464 19.6757Z" fill="black" fill-opacity="0.2"/>
<path d="M58.6727 17.5297C57.5206 17.8414 56.7204 18.67 56.3547 19.9378C56.2443 20.3061 56.2305 20.7806 56.2098 24.1943C56.1754 28.5358 56.2029 28.8616 56.6307 29.7824C57.1964 31.0076 58.2381 31.6096 59.811 31.6096C60.9907 31.6096 61.7565 31.3192 62.3912 30.6252C62.8051 30.179 63.0535 29.6832 63.2328 28.975C63.357 28.4792 63.3639 28.1676 63.3639 24.5414C63.3639 20.2494 63.3432 20.0369 62.95 19.2083C62.5361 18.3513 61.8393 17.7705 60.9148 17.5227C60.3974 17.3881 59.1832 17.3881 58.6727 17.5297ZM60.3974 19.7536C60.5009 19.8315 60.6458 20.0157 60.7148 20.1573C60.839 20.4123 60.8458 20.6602 60.8458 24.5343C60.8458 28.55 60.8458 28.6492 60.701 28.89C60.4733 29.3007 60.156 29.4778 59.7213 29.4424C59.4109 29.4141 59.3143 29.3716 59.1211 29.1662C58.6796 28.7129 58.6658 28.5358 58.6865 24.3076C58.7072 20.6743 58.7141 20.561 58.8521 20.2494C59.0177 19.8811 59.197 19.7041 59.473 19.612C59.7489 19.5199 60.1698 19.5907 60.3974 19.7536Z" fill="#1C1C1C"/>
<path d="M58.6727 17.5297C57.5206 17.8414 56.7204 18.67 56.3547 19.9378C56.2443 20.3061 56.2305 20.7806 56.2098 24.1943C56.1754 28.5358 56.2029 28.8616 56.6307 29.7824C57.1964 31.0076 58.2381 31.6096 59.811 31.6096C60.9907 31.6096 61.7565 31.3192 62.3912 30.6252C62.8051 30.179 63.0535 29.6832 63.2328 28.975C63.357 28.4792 63.3639 28.1676 63.3639 24.5414C63.3639 20.2494 63.3432 20.0369 62.95 19.2083C62.5361 18.3513 61.8393 17.7705 60.9148 17.5227C60.3974 17.3881 59.1832 17.3881 58.6727 17.5297ZM60.3974 19.7536C60.5009 19.8315 60.6458 20.0157 60.7148 20.1573C60.839 20.4123 60.8458 20.6602 60.8458 24.5343C60.8458 28.55 60.8458 28.6492 60.701 28.89C60.4733 29.3007 60.156 29.4778 59.7213 29.4424C59.4109 29.4141 59.3143 29.3716 59.1211 29.1662C58.6796 28.7129 58.6658 28.5358 58.6865 24.3076C58.7072 20.6743 58.7141 20.561 58.8521 20.2494C59.0177 19.8811 59.197 19.7041 59.473 19.612C59.7489 19.5199 60.1698 19.5907 60.3974 19.7536Z" fill="black" fill-opacity="0.2"/>
<path d="M58.6727 17.5297C57.5206 17.8414 56.7204 18.67 56.3547 19.9378C56.2443 20.3061 56.2305 20.7806 56.2098 24.1943C56.1754 28.5358 56.2029 28.8616 56.6307 29.7824C57.1964 31.0076 58.2381 31.6096 59.811 31.6096C60.9907 31.6096 61.7565 31.3192 62.3912 30.6252C62.8051 30.179 63.0535 29.6832 63.2328 28.975C63.357 28.4792 63.3639 28.1676 63.3639 24.5414C63.3639 20.2494 63.3432 20.0369 62.95 19.2083C62.5361 18.3513 61.8393 17.7705 60.9148 17.5227C60.3974 17.3881 59.1832 17.3881 58.6727 17.5297ZM60.3974 19.7536C60.5009 19.8315 60.6458 20.0157 60.7148 20.1573C60.839 20.4123 60.8458 20.6602 60.8458 24.5343C60.8458 28.55 60.8458 28.6492 60.701 28.89C60.4733 29.3007 60.156 29.4778 59.7213 29.4424C59.4109 29.4141 59.3143 29.3716 59.1211 29.1662C58.6796 28.7129 58.6658 28.5358 58.6865 24.3076C58.7072 20.6743 58.7141 20.561 58.8521 20.2494C59.0177 19.8811 59.197 19.7041 59.473 19.612C59.7489 19.5199 60.1698 19.5907 60.3974 19.7536Z" fill="black" fill-opacity="0.2"/>
<path d="M58.6727 17.5297C57.5206 17.8414 56.7204 18.67 56.3547 19.9378C56.2443 20.3061 56.2305 20.7806 56.2098 24.1943C56.1754 28.5358 56.2029 28.8616 56.6307 29.7824C57.1964 31.0076 58.2381 31.6096 59.811 31.6096C60.9907 31.6096 61.7565 31.3192 62.3912 30.6252C62.8051 30.179 63.0535 29.6832 63.2328 28.975C63.357 28.4792 63.3639 28.1676 63.3639 24.5414C63.3639 20.2494 63.3432 20.0369 62.95 19.2083C62.5361 18.3513 61.8393 17.7705 60.9148 17.5227C60.3974 17.3881 59.1832 17.3881 58.6727 17.5297ZM60.3974 19.7536C60.5009 19.8315 60.6458 20.0157 60.7148 20.1573C60.839 20.4123 60.8458 20.6602 60.8458 24.5343C60.8458 28.55 60.8458 28.6492 60.701 28.89C60.4733 29.3007 60.156 29.4778 59.7213 29.4424C59.4109 29.4141 59.3143 29.3716 59.1211 29.1662C58.6796 28.7129 58.6658 28.5358 58.6865 24.3076C58.7072 20.6743 58.7141 20.561 58.8521 20.2494C59.0177 19.8811 59.197 19.7041 59.473 19.612C59.7489 19.5199 60.1698 19.5907 60.3974 19.7536Z" fill="black" fill-opacity="0.2"/>
<path d="M75.5834 17.5227C74.4175 17.8556 73.5966 18.7834 73.3344 20.0724C73.1137 21.1348 73.2585 22.36 73.7001 23.2949C74.0243 23.9748 74.7418 24.7185 75.7145 25.3842C76.9839 26.2554 77.3564 26.7936 77.4185 27.8489C77.4875 28.9679 77.1426 29.6337 76.4803 29.6337C75.7697 29.6337 75.48 29.1521 75.4731 27.9339C75.4731 27.5019 75.4937 27.0698 75.5282 26.9565L75.5765 26.7653H74.4451H73.3137L73.2378 27.1194C73.1137 27.7073 73.1413 28.798 73.2999 29.4212C73.4724 30.1082 73.6794 30.4836 74.1278 30.8944C75.0729 31.7655 77.046 31.8788 78.2809 31.1352C78.9501 30.7315 79.5227 29.8674 79.7089 28.975C79.8193 28.4367 79.7986 27.169 79.6744 26.6236C79.6192 26.3687 79.4606 25.9225 79.3157 25.6321C78.9914 24.9451 78.2188 24.1377 77.2322 23.4578C76.501 22.9479 76.0181 22.4946 75.8318 22.1121C75.6386 21.7368 75.5627 21.0569 75.6455 20.5328C75.7697 19.7679 76.0801 19.3854 76.5769 19.3854C77.2391 19.3854 77.5634 20.1574 77.4944 21.5597L77.4599 22.2325H78.5775H79.702L79.7434 22.013C79.8193 21.6093 79.7848 20.1503 79.6882 19.6687C79.4744 18.6559 78.9363 17.9335 78.1429 17.6219C77.6255 17.4165 76.156 17.3598 75.5834 17.5227Z" fill="#1C1C1C"/>
<path d="M75.5834 17.5227C74.4175 17.8556 73.5966 18.7834 73.3344 20.0724C73.1137 21.1348 73.2585 22.36 73.7001 23.2949C74.0243 23.9748 74.7418 24.7185 75.7145 25.3842C76.9839 26.2554 77.3564 26.7936 77.4185 27.8489C77.4875 28.9679 77.1426 29.6337 76.4803 29.6337C75.7697 29.6337 75.48 29.1521 75.4731 27.9339C75.4731 27.5019 75.4937 27.0698 75.5282 26.9565L75.5765 26.7653H74.4451H73.3137L73.2378 27.1194C73.1137 27.7073 73.1413 28.798 73.2999 29.4212C73.4724 30.1082 73.6794 30.4836 74.1278 30.8944C75.0729 31.7655 77.046 31.8788 78.2809 31.1352C78.9501 30.7315 79.5227 29.8674 79.7089 28.975C79.8193 28.4367 79.7986 27.169 79.6744 26.6236C79.6192 26.3687 79.4606 25.9225 79.3157 25.6321C78.9914 24.9451 78.2188 24.1377 77.2322 23.4578C76.501 22.9479 76.0181 22.4946 75.8318 22.1121C75.6386 21.7368 75.5627 21.0569 75.6455 20.5328C75.7697 19.7679 76.0801 19.3854 76.5769 19.3854C77.2391 19.3854 77.5634 20.1574 77.4944 21.5597L77.4599 22.2325H78.5775H79.702L79.7434 22.013C79.8193 21.6093 79.7848 20.1503 79.6882 19.6687C79.4744 18.6559 78.9363 17.9335 78.1429 17.6219C77.6255 17.4165 76.156 17.3598 75.5834 17.5227Z" fill="black" fill-opacity="0.2"/>
<path d="M75.5834 17.5227C74.4175 17.8556 73.5966 18.7834 73.3344 20.0724C73.1137 21.1348 73.2585 22.36 73.7001 23.2949C74.0243 23.9748 74.7418 24.7185 75.7145 25.3842C76.9839 26.2554 77.3564 26.7936 77.4185 27.8489C77.4875 28.9679 77.1426 29.6337 76.4803 29.6337C75.7697 29.6337 75.48 29.1521 75.4731 27.9339C75.4731 27.5019 75.4937 27.0698 75.5282 26.9565L75.5765 26.7653H74.4451H73.3137L73.2378 27.1194C73.1137 27.7073 73.1413 28.798 73.2999 29.4212C73.4724 30.1082 73.6794 30.4836 74.1278 30.8944C75.0729 31.7655 77.046 31.8788 78.2809 31.1352C78.9501 30.7315 79.5227 29.8674 79.7089 28.975C79.8193 28.4367 79.7986 27.169 79.6744 26.6236C79.6192 26.3687 79.4606 25.9225 79.3157 25.6321C78.9914 24.9451 78.2188 24.1377 77.2322 23.4578C76.501 22.9479 76.0181 22.4946 75.8318 22.1121C75.6386 21.7368 75.5627 21.0569 75.6455 20.5328C75.7697 19.7679 76.0801 19.3854 76.5769 19.3854C77.2391 19.3854 77.5634 20.1574 77.4944 21.5597L77.4599 22.2325H78.5775H79.702L79.7434 22.013C79.8193 21.6093 79.7848 20.1503 79.6882 19.6687C79.4744 18.6559 78.9363 17.9335 78.1429 17.6219C77.6255 17.4165 76.156 17.3598 75.5834 17.5227Z" fill="black" fill-opacity="0.2"/>
<path d="M75.5834 17.5227C74.4175 17.8556 73.5966 18.7834 73.3344 20.0724C73.1137 21.1348 73.2585 22.36 73.7001 23.2949C74.0243 23.9748 74.7418 24.7185 75.7145 25.3842C76.9839 26.2554 77.3564 26.7936 77.4185 27.8489C77.4875 28.9679 77.1426 29.6337 76.4803 29.6337C75.7697 29.6337 75.48 29.1521 75.4731 27.9339C75.4731 27.5019 75.4937 27.0698 75.5282 26.9565L75.5765 26.7653H74.4451H73.3137L73.2378 27.1194C73.1137 27.7073 73.1413 28.798 73.2999 29.4212C73.4724 30.1082 73.6794 30.4836 74.1278 30.8944C75.0729 31.7655 77.046 31.8788 78.2809 31.1352C78.9501 30.7315 79.5227 29.8674 79.7089 28.975C79.8193 28.4367 79.7986 27.169 79.6744 26.6236C79.6192 26.3687 79.4606 25.9225 79.3157 25.6321C78.9914 24.9451 78.2188 24.1377 77.2322 23.4578C76.501 22.9479 76.0181 22.4946 75.8318 22.1121C75.6386 21.7368 75.5627 21.0569 75.6455 20.5328C75.7697 19.7679 76.0801 19.3854 76.5769 19.3854C77.2391 19.3854 77.5634 20.1574 77.4944 21.5597L77.4599 22.2325H78.5775H79.702L79.7434 22.013C79.8193 21.6093 79.7848 20.1503 79.6882 19.6687C79.4744 18.6559 78.9363 17.9335 78.1429 17.6219C77.6255 17.4165 76.156 17.3598 75.5834 17.5227Z" fill="black" fill-opacity="0.2"/>
<path d="M39.1504 24.5414V31.4539L41.1028 31.4184C42.6136 31.3901 43.1379 31.3618 43.4621 31.2697C44.628 30.9368 45.311 30.3207 45.7181 29.2016C45.8698 28.7909 45.8767 28.7271 45.8974 24.7397C45.9112 21.2764 45.9043 20.6177 45.8077 20.214C45.5111 18.8825 44.7039 18.0468 43.4139 17.7352C43.0827 17.6573 42.517 17.629 41.0683 17.629H39.1504V24.5414ZM42.8895 19.8458C43.0827 19.952 43.2069 20.1078 43.3449 20.384L43.5311 20.7806L43.5518 24.3077C43.5656 27.3106 43.5587 27.8985 43.4621 28.2668C43.269 29.0529 42.9378 29.315 42.0686 29.3716L41.565 29.407V24.4989V19.5908L42.0962 19.6404C42.4411 19.6758 42.724 19.7466 42.8895 19.8458Z" fill="#1C1C1C"/>
<path d="M39.1504 24.5414V31.4539L41.1028 31.4184C42.6136 31.3901 43.1379 31.3618 43.4621 31.2697C44.628 30.9368 45.311 30.3207 45.7181 29.2016C45.8698 28.7909 45.8767 28.7271 45.8974 24.7397C45.9112 21.2764 45.9043 20.6177 45.8077 20.214C45.5111 18.8825 44.7039 18.0468 43.4139 17.7352C43.0827 17.6573 42.517 17.629 41.0683 17.629H39.1504V24.5414ZM42.8895 19.8458C43.0827 19.952 43.2069 20.1078 43.3449 20.384L43.5311 20.7806L43.5518 24.3077C43.5656 27.3106 43.5587 27.8985 43.4621 28.2668C43.269 29.0529 42.9378 29.315 42.0686 29.3716L41.565 29.407V24.4989V19.5908L42.0962 19.6404C42.4411 19.6758 42.724 19.7466 42.8895 19.8458Z" fill="black" fill-opacity="0.2"/>
<path d="M39.1504 24.5414V31.4539L41.1028 31.4184C42.6136 31.3901 43.1379 31.3618 43.4621 31.2697C44.628 30.9368 45.311 30.3207 45.7181 29.2016C45.8698 28.7909 45.8767 28.7271 45.8974 24.7397C45.9112 21.2764 45.9043 20.6177 45.8077 20.214C45.5111 18.8825 44.7039 18.0468 43.4139 17.7352C43.0827 17.6573 42.517 17.629 41.0683 17.629H39.1504V24.5414ZM42.8895 19.8458C43.0827 19.952 43.2069 20.1078 43.3449 20.384L43.5311 20.7806L43.5518 24.3077C43.5656 27.3106 43.5587 27.8985 43.4621 28.2668C43.269 29.0529 42.9378 29.315 42.0686 29.3716L41.565 29.407V24.4989V19.5908L42.0962 19.6404C42.4411 19.6758 42.724 19.7466 42.8895 19.8458Z" fill="black" fill-opacity="0.2"/>
<path d="M39.1504 24.5414V31.4539L41.1028 31.4184C42.6136 31.3901 43.1379 31.3618 43.4621 31.2697C44.628 30.9368 45.311 30.3207 45.7181 29.2016C45.8698 28.7909 45.8767 28.7271 45.8974 24.7397C45.9112 21.2764 45.9043 20.6177 45.8077 20.214C45.5111 18.8825 44.7039 18.0468 43.4139 17.7352C43.0827 17.6573 42.517 17.629 41.0683 17.629H39.1504V24.5414ZM42.8895 19.8458C43.0827 19.952 43.2069 20.1078 43.3449 20.384L43.5311 20.7806L43.5518 24.3077C43.5656 27.3106 43.5587 27.8985 43.4621 28.2668C43.269 29.0529 42.9378 29.315 42.0686 29.3716L41.565 29.407V24.4989V19.5908L42.0962 19.6404C42.4411 19.6758 42.724 19.7466 42.8895 19.8458Z" fill="black" fill-opacity="0.2"/>
<path d="M65.0195 24.5343V31.4396H66.1578H67.2961V29.0316V26.6236L67.8687 26.6307C68.1792 26.6307 68.5448 26.6661 68.6759 26.7157C69.076 26.8573 69.1864 27.1902 69.5934 29.4211L69.9522 31.4042L71.1802 31.4255C71.9597 31.4326 72.4013 31.4184 72.4013 31.3688C72.4013 31.1847 71.6217 27.2398 71.5044 26.8361C71.3457 26.2907 71.0353 25.8728 70.6559 25.7029C70.4213 25.5966 70.4006 25.5683 70.5248 25.5329C70.718 25.4691 71.2561 24.8601 71.4285 24.513C71.7114 23.9393 71.7804 23.4294 71.7804 21.7721C71.7804 20.0936 71.7252 19.704 71.4078 19.0595C71.2078 18.6558 70.7455 18.1955 70.3523 17.9901C69.7452 17.6785 69.3244 17.6289 67.1099 17.6289H65.0195V24.5343ZM68.807 19.8103C68.9657 19.8882 69.1174 20.0511 69.2278 20.2494C69.3934 20.561 69.4003 20.6035 69.4003 22.0554C69.4003 23.4436 69.3934 23.564 69.2554 23.826C68.9726 24.3572 68.6759 24.4989 67.8411 24.4989H67.2961V22.0483V19.5907L67.9308 19.6403C68.3103 19.6616 68.6621 19.7324 68.807 19.8103Z" fill="#1C1C1C"/>
<path d="M65.0195 24.5343V31.4396H66.1578H67.2961V29.0316V26.6236L67.8687 26.6307C68.1792 26.6307 68.5448 26.6661 68.6759 26.7157C69.076 26.8573 69.1864 27.1902 69.5934 29.4211L69.9522 31.4042L71.1802 31.4255C71.9597 31.4326 72.4013 31.4184 72.4013 31.3688C72.4013 31.1847 71.6217 27.2398 71.5044 26.8361C71.3457 26.2907 71.0353 25.8728 70.6559 25.7029C70.4213 25.5966 70.4006 25.5683 70.5248 25.5329C70.718 25.4691 71.2561 24.8601 71.4285 24.513C71.7114 23.9393 71.7804 23.4294 71.7804 21.7721C71.7804 20.0936 71.7252 19.704 71.4078 19.0595C71.2078 18.6558 70.7455 18.1955 70.3523 17.9901C69.7452 17.6785 69.3244 17.6289 67.1099 17.6289H65.0195V24.5343ZM68.807 19.8103C68.9657 19.8882 69.1174 20.0511 69.2278 20.2494C69.3934 20.561 69.4003 20.6035 69.4003 22.0554C69.4003 23.4436 69.3934 23.564 69.2554 23.826C68.9726 24.3572 68.6759 24.4989 67.8411 24.4989H67.2961V22.0483V19.5907L67.9308 19.6403C68.3103 19.6616 68.6621 19.7324 68.807 19.8103Z" fill="black" fill-opacity="0.2"/>
<path d="M65.0195 24.5343V31.4396H66.1578H67.2961V29.0316V26.6236L67.8687 26.6307C68.1792 26.6307 68.5448 26.6661 68.6759 26.7157C69.076 26.8573 69.1864 27.1902 69.5934 29.4211L69.9522 31.4042L71.1802 31.4255C71.9597 31.4326 72.4013 31.4184 72.4013 31.3688C72.4013 31.1847 71.6217 27.2398 71.5044 26.8361C71.3457 26.2907 71.0353 25.8728 70.6559 25.7029C70.4213 25.5966 70.4006 25.5683 70.5248 25.5329C70.718 25.4691 71.2561 24.8601 71.4285 24.513C71.7114 23.9393 71.7804 23.4294 71.7804 21.7721C71.7804 20.0936 71.7252 19.704 71.4078 19.0595C71.2078 18.6558 70.7455 18.1955 70.3523 17.9901C69.7452 17.6785 69.3244 17.6289 67.1099 17.6289H65.0195V24.5343ZM68.807 19.8103C68.9657 19.8882 69.1174 20.0511 69.2278 20.2494C69.3934 20.561 69.4003 20.6035 69.4003 22.0554C69.4003 23.4436 69.3934 23.564 69.2554 23.826C68.9726 24.3572 68.6759 24.4989 67.8411 24.4989H67.2961V22.0483V19.5907L67.9308 19.6403C68.3103 19.6616 68.6621 19.7324 68.807 19.8103Z" fill="black" fill-opacity="0.2"/>
<path d="M65.0195 24.5343V31.4396H66.1578H67.2961V29.0316V26.6236L67.8687 26.6307C68.1792 26.6307 68.5448 26.6661 68.6759 26.7157C69.076 26.8573 69.1864 27.1902 69.5934 29.4211L69.9522 31.4042L71.1802 31.4255C71.9597 31.4326 72.4013 31.4184 72.4013 31.3688C72.4013 31.1847 71.6217 27.2398 71.5044 26.8361C71.3457 26.2907 71.0353 25.8728 70.6559 25.7029C70.4213 25.5966 70.4006 25.5683 70.5248 25.5329C70.718 25.4691 71.2561 24.8601 71.4285 24.513C71.7114 23.9393 71.7804 23.4294 71.7804 21.7721C71.7804 20.0936 71.7252 19.704 71.4078 19.0595C71.2078 18.6558 70.7455 18.1955 70.3523 17.9901C69.7452 17.6785 69.3244 17.6289 67.1099 17.6289H65.0195V24.5343ZM68.807 19.8103C68.9657 19.8882 69.1174 20.0511 69.2278 20.2494C69.3934 20.561 69.4003 20.6035 69.4003 22.0554C69.4003 23.4436 69.3934 23.564 69.2554 23.826C68.9726 24.3572 68.6759 24.4989 67.8411 24.4989H67.2961V22.0483V19.5907L67.9308 19.6403C68.3103 19.6616 68.6621 19.7324 68.807 19.8103Z" fill="black" fill-opacity="0.2"/>
<g clip-path="url(#clip1_1240_68664)">
<path d="M58.2949 0.447025C56.9013 0.716157 55.97 1.68645 55.6664 3.18084C55.5767 3.61995 55.5698 4.3282 55.5836 7.70652L55.6043 11.7152L55.7975 12.2747C56.3425 13.8541 57.4049 14.5836 59.1572 14.5836C60.9578 14.5836 62.0271 13.8045 62.579 12.1047C62.6963 11.7506 62.7101 11.3611 62.7308 7.75609C62.7515 4.30695 62.7377 3.71911 62.6411 3.22334C62.3721 1.84935 61.6132 0.921548 60.468 0.553261C59.9092 0.3762 58.9089 0.326623 58.2949 0.447025ZM59.6884 2.68507C59.8126 2.7559 59.9782 2.96129 60.0679 3.12418L60.2265 3.42873V7.50113V11.5735L60.0679 11.8781C59.7367 12.5084 58.9571 12.6217 58.4604 12.1118C58.0603 11.701 58.0465 11.5523 58.0672 7.28157L58.0879 3.49955L58.2604 3.14543C58.5363 2.57884 59.1848 2.36636 59.6884 2.68507Z" fill="#1C1C1C"/>
<path d="M58.2949 0.447025C56.9013 0.716157 55.97 1.68645 55.6664 3.18084C55.5767 3.61995 55.5698 4.3282 55.5836 7.70652L55.6043 11.7152L55.7975 12.2747C56.3425 13.8541 57.4049 14.5836 59.1572 14.5836C60.9578 14.5836 62.0271 13.8045 62.579 12.1047C62.6963 11.7506 62.7101 11.3611 62.7308 7.75609C62.7515 4.30695 62.7377 3.71911 62.6411 3.22334C62.3721 1.84935 61.6132 0.921548 60.468 0.553261C59.9092 0.3762 58.9089 0.326623 58.2949 0.447025ZM59.6884 2.68507C59.8126 2.7559 59.9782 2.96129 60.0679 3.12418L60.2265 3.42873V7.50113V11.5735L60.0679 11.8781C59.7367 12.5084 58.9571 12.6217 58.4604 12.1118C58.0603 11.701 58.0465 11.5523 58.0672 7.28157L58.0879 3.49955L58.2604 3.14543C58.5363 2.57884 59.1848 2.36636 59.6884 2.68507Z" fill="black" fill-opacity="0.2"/>
<path d="M58.2949 0.447025C56.9013 0.716157 55.97 1.68645 55.6664 3.18084C55.5767 3.61995 55.5698 4.3282 55.5836 7.70652L55.6043 11.7152L55.7975 12.2747C56.3425 13.8541 57.4049 14.5836 59.1572 14.5836C60.9578 14.5836 62.0271 13.8045 62.579 12.1047C62.6963 11.7506 62.7101 11.3611 62.7308 7.75609C62.7515 4.30695 62.7377 3.71911 62.6411 3.22334C62.3721 1.84935 61.6132 0.921548 60.468 0.553261C59.9092 0.3762 58.9089 0.326623 58.2949 0.447025ZM59.6884 2.68507C59.8126 2.7559 59.9782 2.96129 60.0679 3.12418L60.2265 3.42873V7.50113V11.5735L60.0679 11.8781C59.7367 12.5084 58.9571 12.6217 58.4604 12.1118C58.0603 11.701 58.0465 11.5523 58.0672 7.28157L58.0879 3.49955L58.2604 3.14543C58.5363 2.57884 59.1848 2.36636 59.6884 2.68507Z" fill="black" fill-opacity="0.2"/>
<path d="M58.2949 0.447025C56.9013 0.716157 55.97 1.68645 55.6664 3.18084C55.5767 3.61995 55.5698 4.3282 55.5836 7.70652L55.6043 11.7152L55.7975 12.2747C56.3425 13.8541 57.4049 14.5836 59.1572 14.5836C60.9578 14.5836 62.0271 13.8045 62.579 12.1047C62.6963 11.7506 62.7101 11.3611 62.7308 7.75609C62.7515 4.30695 62.7377 3.71911 62.6411 3.22334C62.3721 1.84935 61.6132 0.921548 60.468 0.553261C59.9092 0.3762 58.9089 0.326623 58.2949 0.447025ZM59.6884 2.68507C59.8126 2.7559 59.9782 2.96129 60.0679 3.12418L60.2265 3.42873V7.50113V11.5735L60.0679 11.8781C59.7367 12.5084 58.9571 12.6217 58.4604 12.1118C58.0603 11.701 58.0465 11.5523 58.0672 7.28157L58.0879 3.49955L58.2604 3.14543C58.5363 2.57884 59.1848 2.36636 59.6884 2.68507Z" fill="black" fill-opacity="0.2"/>
<path d="M11.418 16V31.4397H17.958H24.4912L27.6854 27.8843L30.8726 24.3289V15.9929V7.66398L27.6854 4.1086L24.4912 0.5603H17.958H11.418V16ZM24.4429 23.6207L24.4222 31.2343L21.304 27.7781L18.1857 24.3219V16V7.67814L21.304 4.21483L24.4222 0.758608L24.4429 8.3793C24.4498 12.5721 24.4498 19.4279 24.4429 23.6207Z" fill="#1C1C1C"/>
<path d="M11.418 16V31.4397H17.958H24.4912L27.6854 27.8843L30.8726 24.3289V15.9929V7.66398L27.6854 4.1086L24.4912 0.5603H17.958H11.418V16ZM24.4429 23.6207L24.4222 31.2343L21.304 27.7781L18.1857 24.3219V16V7.67814L21.304 4.21483L24.4222 0.758608L24.4429 8.3793C24.4498 12.5721 24.4498 19.4279 24.4429 23.6207Z" fill="black" fill-opacity="0.2"/>
<path d="M11.418 16V31.4397H17.958H24.4912L27.6854 27.8843L30.8726 24.3289V15.9929V7.66398L27.6854 4.1086L24.4912 0.5603H17.958H11.418V16ZM24.4429 23.6207L24.4222 31.2343L21.304 27.7781L18.1857 24.3219V16V7.67814L21.304 4.21483L24.4222 0.758608L24.4429 8.3793C24.4498 12.5721 24.4498 19.4279 24.4429 23.6207Z" fill="black" fill-opacity="0.2"/>
<path d="M11.418 16V31.4397H17.958H24.4912L27.6854 27.8843L30.8726 24.3289V15.9929V7.66398L27.6854 4.1086L24.4912 0.5603H17.958H11.418V16ZM24.4429 23.6207L24.4222 31.2343L21.304 27.7781L18.1857 24.3219V16V7.67814L21.304 4.21483L24.4222 0.758608L24.4429 8.3793C24.4498 12.5721 24.4498 19.4279 24.4429 23.6207Z" fill="black" fill-opacity="0.2"/>
<path d="M39.082 7.45864V14.3711H40.2203H41.3586V12.0693V9.76751H42.2486C42.7315 9.76751 43.2834 9.73918 43.4697 9.70377C44.7115 9.46297 45.4634 8.74764 45.7394 7.56488C45.8843 6.92038 45.8843 3.4854 45.7394 2.8409C45.4772 1.71479 44.8563 1.03488 43.8077 0.730331C43.4697 0.631176 42.9799 0.602847 41.2414 0.581599L39.082 0.546187V7.45864ZM42.8764 2.7984C43.0282 2.88339 43.1799 3.06753 43.2903 3.28709C43.4559 3.63413 43.4628 3.67662 43.4628 5.19934C43.4628 6.69374 43.4559 6.77164 43.2972 7.09744C43.0695 7.57904 42.7867 7.71361 41.9795 7.71361H41.3586V5.15685V2.60009L42.0002 2.62842C42.4762 2.64967 42.7039 2.69216 42.8764 2.7984Z" fill="#1C1C1C"/>
<path d="M39.082 7.45864V14.3711H40.2203H41.3586V12.0693V9.76751H42.2486C42.7315 9.76751 43.2834 9.73918 43.4697 9.70377C44.7115 9.46297 45.4634 8.74764 45.7394 7.56488C45.8843 6.92038 45.8843 3.4854 45.7394 2.8409C45.4772 1.71479 44.8563 1.03488 43.8077 0.730331C43.4697 0.631176 42.9799 0.602847 41.2414 0.581599L39.082 0.546187V7.45864ZM42.8764 2.7984C43.0282 2.88339 43.1799 3.06753 43.2903 3.28709C43.4559 3.63413 43.4628 3.67662 43.4628 5.19934C43.4628 6.69374 43.4559 6.77164 43.2972 7.09744C43.0695 7.57904 42.7867 7.71361 41.9795 7.71361H41.3586V5.15685V2.60009L42.0002 2.62842C42.4762 2.64967 42.7039 2.69216 42.8764 2.7984Z" fill="black" fill-opacity="0.2"/>
<path d="M39.082 7.45864V14.3711H40.2203H41.3586V12.0693V9.76751H42.2486C42.7315 9.76751 43.2834 9.73918 43.4697 9.70377C44.7115 9.46297 45.4634 8.74764 45.7394 7.56488C45.8843 6.92038 45.8843 3.4854 45.7394 2.8409C45.4772 1.71479 44.8563 1.03488 43.8077 0.730331C43.4697 0.631176 42.9799 0.602847 41.2414 0.581599L39.082 0.546187V7.45864ZM42.8764 2.7984C43.0282 2.88339 43.1799 3.06753 43.2903 3.28709C43.4559 3.63413 43.4628 3.67662 43.4628 5.19934C43.4628 6.69374 43.4559 6.77164 43.2972 7.09744C43.0695 7.57904 42.7867 7.71361 41.9795 7.71361H41.3586V5.15685V2.60009L42.0002 2.62842C42.4762 2.64967 42.7039 2.69216 42.8764 2.7984Z" fill="black" fill-opacity="0.2"/>
<path d="M39.082 7.45864V14.3711H40.2203H41.3586V12.0693V9.76751H42.2486C42.7315 9.76751 43.2834 9.73918 43.4697 9.70377C44.7115 9.46297 45.4634 8.74764 45.7394 7.56488C45.8843 6.92038 45.8843 3.4854 45.7394 2.8409C45.4772 1.71479 44.8563 1.03488 43.8077 0.730331C43.4697 0.631176 42.9799 0.602847 41.2414 0.581599L39.082 0.546187V7.45864ZM42.8764 2.7984C43.0282 2.88339 43.1799 3.06753 43.2903 3.28709C43.4559 3.63413 43.4628 3.67662 43.4628 5.19934C43.4628 6.69374 43.4559 6.77164 43.2972 7.09744C43.0695 7.57904 42.7867 7.71361 41.9795 7.71361H41.3586V5.15685V2.60009L42.0002 2.62842C42.4762 2.64967 42.7039 2.69216 42.8764 2.7984Z" fill="black" fill-opacity="0.2"/>
<path d="M47.293 7.45858V14.371H48.4313H49.5696V11.9984V9.6258H50.1491C50.8528 9.6258 51.1149 9.71079 51.2874 10.0083C51.3771 10.157 51.5564 10.9148 51.8048 12.2746C52.0187 13.4007 52.198 14.3356 52.2118 14.3498C52.2256 14.364 52.7844 14.364 53.4467 14.3569L54.654 14.3356L54.2194 12.0976C53.9848 10.8652 53.7296 9.71788 53.6606 9.5479C53.4812 9.13712 53.2121 8.81841 52.95 8.70509C52.8396 8.65551 52.743 8.59885 52.743 8.57052C52.743 8.54927 52.8534 8.45012 52.9776 8.35097C53.3363 8.08183 53.6951 7.53649 53.8537 7.01239C53.9848 6.61577 54.0124 6.32539 54.04 5.07888C54.0745 3.52783 54.0193 2.96832 53.771 2.29549C53.5916 1.8068 53.1018 1.2402 52.6464 1.00648C51.9497 0.64528 51.7496 0.616951 49.4523 0.581538L47.293 0.546126V7.45858ZM51.0873 2.79834C51.4116 2.98957 51.5495 3.26578 51.6461 3.88903C51.7358 4.48396 51.6875 6.17666 51.5702 6.58744C51.3978 7.20361 51.039 7.43733 50.1767 7.48691L49.5696 7.52232V5.05764V2.60003L50.2112 2.62836C50.6872 2.64961 50.9148 2.6921 51.0873 2.79834Z" fill="#1C1C1C"/>
<path d="M47.293 7.45858V14.371H48.4313H49.5696V11.9984V9.6258H50.1491C50.8528 9.6258 51.1149 9.71079 51.2874 10.0083C51.3771 10.157 51.5564 10.9148 51.8048 12.2746C52.0187 13.4007 52.198 14.3356 52.2118 14.3498C52.2256 14.364 52.7844 14.364 53.4467 14.3569L54.654 14.3356L54.2194 12.0976C53.9848 10.8652 53.7296 9.71788 53.6606 9.5479C53.4812 9.13712 53.2121 8.81841 52.95 8.70509C52.8396 8.65551 52.743 8.59885 52.743 8.57052C52.743 8.54927 52.8534 8.45012 52.9776 8.35097C53.3363 8.08183 53.6951 7.53649 53.8537 7.01239C53.9848 6.61577 54.0124 6.32539 54.04 5.07888C54.0745 3.52783 54.0193 2.96832 53.771 2.29549C53.5916 1.8068 53.1018 1.2402 52.6464 1.00648C51.9497 0.64528 51.7496 0.616951 49.4523 0.581538L47.293 0.546126V7.45858ZM51.0873 2.79834C51.4116 2.98957 51.5495 3.26578 51.6461 3.88903C51.7358 4.48396 51.6875 6.17666 51.5702 6.58744C51.3978 7.20361 51.039 7.43733 50.1767 7.48691L49.5696 7.52232V5.05764V2.60003L50.2112 2.62836C50.6872 2.64961 50.9148 2.6921 51.0873 2.79834Z" fill="black" fill-opacity="0.2"/>
<path d="M47.293 7.45858V14.371H48.4313H49.5696V11.9984V9.6258H50.1491C50.8528 9.6258 51.1149 9.71079 51.2874 10.0083C51.3771 10.157 51.5564 10.9148 51.8048 12.2746C52.0187 13.4007 52.198 14.3356 52.2118 14.3498C52.2256 14.364 52.7844 14.364 53.4467 14.3569L54.654 14.3356L54.2194 12.0976C53.9848 10.8652 53.7296 9.71788 53.6606 9.5479C53.4812 9.13712 53.2121 8.81841 52.95 8.70509C52.8396 8.65551 52.743 8.59885 52.743 8.57052C52.743 8.54927 52.8534 8.45012 52.9776 8.35097C53.3363 8.08183 53.6951 7.53649 53.8537 7.01239C53.9848 6.61577 54.0124 6.32539 54.04 5.07888C54.0745 3.52783 54.0193 2.96832 53.771 2.29549C53.5916 1.8068 53.1018 1.2402 52.6464 1.00648C51.9497 0.64528 51.7496 0.616951 49.4523 0.581538L47.293 0.546126V7.45858ZM51.0873 2.79834C51.4116 2.98957 51.5495 3.26578 51.6461 3.88903C51.7358 4.48396 51.6875 6.17666 51.5702 6.58744C51.3978 7.20361 51.039 7.43733 50.1767 7.48691L49.5696 7.52232V5.05764V2.60003L50.2112 2.62836C50.6872 2.64961 50.9148 2.6921 51.0873 2.79834Z" fill="black" fill-opacity="0.2"/>
<path d="M47.293 7.45858V14.371H48.4313H49.5696V11.9984V9.6258H50.1491C50.8528 9.6258 51.1149 9.71079 51.2874 10.0083C51.3771 10.157 51.5564 10.9148 51.8048 12.2746C52.0187 13.4007 52.198 14.3356 52.2118 14.3498C52.2256 14.364 52.7844 14.364 53.4467 14.3569L54.654 14.3356L54.2194 12.0976C53.9848 10.8652 53.7296 9.71788 53.6606 9.5479C53.4812 9.13712 53.2121 8.81841 52.95 8.70509C52.8396 8.65551 52.743 8.59885 52.743 8.57052C52.743 8.54927 52.8534 8.45012 52.9776 8.35097C53.3363 8.08183 53.6951 7.53649 53.8537 7.01239C53.9848 6.61577 54.0124 6.32539 54.04 5.07888C54.0745 3.52783 54.0193 2.96832 53.771 2.29549C53.5916 1.8068 53.1018 1.2402 52.6464 1.00648C51.9497 0.64528 51.7496 0.616951 49.4523 0.581538L47.293 0.546126V7.45858ZM51.0873 2.79834C51.4116 2.98957 51.5495 3.26578 51.6461 3.88903C51.7358 4.48396 51.6875 6.17666 51.5702 6.58744C51.3978 7.20361 51.039 7.43733 50.1767 7.48691L49.5696 7.52232V5.05764V2.60003L50.2112 2.62836C50.6872 2.64961 50.9148 2.6921 51.0873 2.79834Z" fill="black" fill-opacity="0.2"/>
<path d="M64.2637 7.46572V14.3711H65.4365H66.6093V11.6444V8.91762H68.0235H69.4378V7.74902V6.58042H68.0235H66.6093V4.73899V2.89755H68.0235H69.4378V1.72895V0.560351H66.8507H64.2637V7.46572Z" fill="#1C1C1C"/>
<path d="M64.2637 7.46572V14.3711H65.4365H66.6093V11.6444V8.91762H68.0235H69.4378V7.74902V6.58042H68.0235H66.6093V4.73899V2.89755H68.0235H69.4378V1.72895V0.560351H66.8507H64.2637V7.46572Z" fill="black" fill-opacity="0.2"/>
<path d="M64.2637 7.46572V14.3711H65.4365H66.6093V11.6444V8.91762H68.0235H69.4378V7.74902V6.58042H68.0235H66.6093V4.73899V2.89755H68.0235H69.4378V1.72895V0.560351H66.8507H64.2637V7.46572Z" fill="black" fill-opacity="0.2"/>
<path d="M64.2637 7.46572V14.3711H65.4365H66.6093V11.6444V8.91762H68.0235H69.4378V7.74902V6.58042H68.0235H66.6093V4.73899V2.89755H68.0235H69.4378V1.72895V0.560351H66.8507H64.2637V7.46572Z" fill="black" fill-opacity="0.2"/>
<path d="M70.748 7.46572V14.3711H71.9553H73.1626V7.46572V0.560351H71.9553H70.748V7.46572Z" fill="#1C1C1C"/>
<path d="M70.748 7.46572V14.3711H71.9553H73.1626V7.46572V0.560351H71.9553H70.748V7.46572Z" fill="black" fill-opacity="0.2"/>
<path d="M70.748 7.46572V14.3711H71.9553H73.1626V7.46572V0.560351H71.9553H70.748V7.46572Z" fill="black" fill-opacity="0.2"/>
<path d="M70.748 7.46572V14.3711H71.9553H73.1626V7.46572V0.560351H71.9553H70.748V7.46572Z" fill="black" fill-opacity="0.2"/>
<path d="M75.0254 7.46572V14.3711H77.5435H80.0615V13.2379V12.1047H78.7163H77.371V6.33253V0.560351H76.1982H75.0254V7.46572Z" fill="#1C1C1C"/>
<path d="M75.0254 7.46572V14.3711H77.5435H80.0615V13.2379V12.1047H78.7163H77.371V6.33253V0.560351H76.1982H75.0254V7.46572Z" fill="black" fill-opacity="0.2"/>
<path d="M75.0254 7.46572V14.3711H77.5435H80.0615V13.2379V12.1047H78.7163H77.371V6.33253V0.560351H76.1982H75.0254V7.46572Z" fill="black" fill-opacity="0.2"/>
<path d="M75.0254 7.46572V14.3711H77.5435H80.0615V13.2379V12.1047H78.7163H77.371V6.33253V0.560351H76.1982H75.0254V7.46572Z" fill="black" fill-opacity="0.2"/>
<path d="M50.003 17.5157C48.8509 17.806 48.0506 18.6276 47.6574 19.9308C47.5401 20.3203 47.5332 20.6815 47.5332 24.4989V28.6422L47.6988 29.2017C48.1472 30.689 49.1613 31.4822 50.7894 31.6168C52.3279 31.7443 53.6456 31.0714 54.2251 29.8603C54.6597 28.9538 54.6735 28.7909 54.6735 24.5485C54.6735 21.3473 54.6528 20.6532 54.5631 20.1928C54.2802 18.7763 53.4731 17.8627 52.2106 17.5227C51.7346 17.3953 50.5135 17.3882 50.003 17.5157ZM51.5483 19.6758C51.7553 19.775 51.8795 19.9024 51.9967 20.122L52.1554 20.4265V24.4989C52.1554 28.4297 52.1485 28.5784 52.0174 28.8546C51.6242 29.662 50.5963 29.662 50.1892 28.8475L50.0168 28.5076L49.9961 24.7539C49.9823 22.2255 50.003 20.8869 50.0513 20.6319C50.1479 20.1645 50.3617 19.8245 50.6722 19.6687C50.9826 19.5058 51.1896 19.5129 51.5483 19.6758Z" fill="#1C1C1C"/>
<path d="M50.003 17.5157C48.8509 17.806 48.0506 18.6276 47.6574 19.9308C47.5401 20.3203 47.5332 20.6815 47.5332 24.4989V28.6422L47.6988 29.2017C48.1472 30.689 49.1613 31.4822 50.7894 31.6168C52.3279 31.7443 53.6456 31.0714 54.2251 29.8603C54.6597 28.9538 54.6735 28.7909 54.6735 24.5485C54.6735 21.3473 54.6528 20.6532 54.5631 20.1928C54.2802 18.7763 53.4731 17.8627 52.2106 17.5227C51.7346 17.3953 50.5135 17.3882 50.003 17.5157ZM51.5483 19.6758C51.7553 19.775 51.8795 19.9024 51.9967 20.122L52.1554 20.4265V24.4989C52.1554 28.4297 52.1485 28.5784 52.0174 28.8546C51.6242 29.662 50.5963 29.662 50.1892 28.8475L50.0168 28.5076L49.9961 24.7539C49.9823 22.2255 50.003 20.8869 50.0513 20.6319C50.1479 20.1645 50.3617 19.8245 50.6722 19.6687C50.9826 19.5058 51.1896 19.5129 51.5483 19.6758Z" fill="black" fill-opacity="0.2"/>
<path d="M50.003 17.5157C48.8509 17.806 48.0506 18.6276 47.6574 19.9308C47.5401 20.3203 47.5332 20.6815 47.5332 24.4989V28.6422L47.6988 29.2017C48.1472 30.689 49.1613 31.4822 50.7894 31.6168C52.3279 31.7443 53.6456 31.0714 54.2251 29.8603C54.6597 28.9538 54.6735 28.7909 54.6735 24.5485C54.6735 21.3473 54.6528 20.6532 54.5631 20.1928C54.2802 18.7763 53.4731 17.8627 52.2106 17.5227C51.7346 17.3953 50.5135 17.3882 50.003 17.5157ZM51.5483 19.6758C51.7553 19.775 51.8795 19.9024 51.9967 20.122L52.1554 20.4265V24.4989C52.1554 28.4297 52.1485 28.5784 52.0174 28.8546C51.6242 29.662 50.5963 29.662 50.1892 28.8475L50.0168 28.5076L49.9961 24.7539C49.9823 22.2255 50.003 20.8869 50.0513 20.6319C50.1479 20.1645 50.3617 19.8245 50.6722 19.6687C50.9826 19.5058 51.1896 19.5129 51.5483 19.6758Z" fill="black" fill-opacity="0.2"/>
<path d="M50.003 17.5157C48.8509 17.806 48.0506 18.6276 47.6574 19.9308C47.5401 20.3203 47.5332 20.6815 47.5332 24.4989V28.6422L47.6988 29.2017C48.1472 30.689 49.1613 31.4822 50.7894 31.6168C52.3279 31.7443 53.6456 31.0714 54.2251 29.8603C54.6597 28.9538 54.6735 28.7909 54.6735 24.5485C54.6735 21.3473 54.6528 20.6532 54.5631 20.1928C54.2802 18.7763 53.4731 17.8627 52.2106 17.5227C51.7346 17.3953 50.5135 17.3882 50.003 17.5157ZM51.5483 19.6758C51.7553 19.775 51.8795 19.9024 51.9967 20.122L52.1554 20.4265V24.4989C52.1554 28.4297 52.1485 28.5784 52.0174 28.8546C51.6242 29.662 50.5963 29.662 50.1892 28.8475L50.0168 28.5076L49.9961 24.7539C49.9823 22.2255 50.003 20.8869 50.0513 20.6319C50.1479 20.1645 50.3617 19.8245 50.6722 19.6687C50.9826 19.5058 51.1896 19.5129 51.5483 19.6758Z" fill="black" fill-opacity="0.2"/>
<path d="M58.6747 17.5299C57.5226 17.8415 56.7223 18.6701 56.3567 19.9379C56.2463 20.3062 56.2325 20.7807 56.2118 24.1944C56.1773 28.536 56.2049 28.8618 56.6326 29.7825C57.1983 31.0077 58.2401 31.6097 59.813 31.6097C60.9927 31.6097 61.7584 31.3194 62.3931 30.6253C62.8071 30.1791 63.0554 29.6833 63.2348 28.9751C63.359 28.4793 63.3659 28.1677 63.3659 24.5415C63.3659 20.2495 63.3452 20.037 62.9519 19.2084C62.538 18.3514 61.8412 17.7707 60.9168 17.5228C60.3994 17.3882 59.1852 17.3882 58.6747 17.5299ZM60.3994 19.7537C60.5029 19.8317 60.6477 20.0158 60.7167 20.1574C60.8409 20.4124 60.8478 20.6603 60.8478 24.5344C60.8478 28.5501 60.8478 28.6493 60.7029 28.8901C60.4753 29.3009 60.1579 29.4779 59.7233 29.4425C59.4128 29.4142 59.3163 29.3717 59.1231 29.1663C58.6816 28.713 58.6678 28.536 58.6885 24.3078C58.7092 20.6745 58.7161 20.5611 58.854 20.2495C59.0196 19.8812 59.199 19.7042 59.4749 19.6121C59.7509 19.52 60.1717 19.5909 60.3994 19.7537Z" fill="#1C1C1C"/>
<path d="M58.6747 17.5299C57.5226 17.8415 56.7223 18.6701 56.3567 19.9379C56.2463 20.3062 56.2325 20.7807 56.2118 24.1944C56.1773 28.536 56.2049 28.8618 56.6326 29.7825C57.1983 31.0077 58.2401 31.6097 59.813 31.6097C60.9927 31.6097 61.7584 31.3194 62.3931 30.6253C62.8071 30.1791 63.0554 29.6833 63.2348 28.9751C63.359 28.4793 63.3659 28.1677 63.3659 24.5415C63.3659 20.2495 63.3452 20.037 62.9519 19.2084C62.538 18.3514 61.8412 17.7707 60.9168 17.5228C60.3994 17.3882 59.1852 17.3882 58.6747 17.5299ZM60.3994 19.7537C60.5029 19.8317 60.6477 20.0158 60.7167 20.1574C60.8409 20.4124 60.8478 20.6603 60.8478 24.5344C60.8478 28.5501 60.8478 28.6493 60.7029 28.8901C60.4753 29.3009 60.1579 29.4779 59.7233 29.4425C59.4128 29.4142 59.3163 29.3717 59.1231 29.1663C58.6816 28.713 58.6678 28.536 58.6885 24.3078C58.7092 20.6745 58.7161 20.5611 58.854 20.2495C59.0196 19.8812 59.199 19.7042 59.4749 19.6121C59.7509 19.52 60.1717 19.5909 60.3994 19.7537Z" fill="black" fill-opacity="0.2"/>
<path d="M58.6747 17.5299C57.5226 17.8415 56.7223 18.6701 56.3567 19.9379C56.2463 20.3062 56.2325 20.7807 56.2118 24.1944C56.1773 28.536 56.2049 28.8618 56.6326 29.7825C57.1983 31.0077 58.2401 31.6097 59.813 31.6097C60.9927 31.6097 61.7584 31.3194 62.3931 30.6253C62.8071 30.1791 63.0554 29.6833 63.2348 28.9751C63.359 28.4793 63.3659 28.1677 63.3659 24.5415C63.3659 20.2495 63.3452 20.037 62.9519 19.2084C62.538 18.3514 61.8412 17.7707 60.9168 17.5228C60.3994 17.3882 59.1852 17.3882 58.6747 17.5299ZM60.3994 19.7537C60.5029 19.8317 60.6477 20.0158 60.7167 20.1574C60.8409 20.4124 60.8478 20.6603 60.8478 24.5344C60.8478 28.5501 60.8478 28.6493 60.7029 28.8901C60.4753 29.3009 60.1579 29.4779 59.7233 29.4425C59.4128 29.4142 59.3163 29.3717 59.1231 29.1663C58.6816 28.713 58.6678 28.536 58.6885 24.3078C58.7092 20.6745 58.7161 20.5611 58.854 20.2495C59.0196 19.8812 59.199 19.7042 59.4749 19.6121C59.7509 19.52 60.1717 19.5909 60.3994 19.7537Z" fill="black" fill-opacity="0.2"/>
<path d="M58.6747 17.5299C57.5226 17.8415 56.7223 18.6701 56.3567 19.9379C56.2463 20.3062 56.2325 20.7807 56.2118 24.1944C56.1773 28.536 56.2049 28.8618 56.6326 29.7825C57.1983 31.0077 58.2401 31.6097 59.813 31.6097C60.9927 31.6097 61.7584 31.3194 62.3931 30.6253C62.8071 30.1791 63.0554 29.6833 63.2348 28.9751C63.359 28.4793 63.3659 28.1677 63.3659 24.5415C63.3659 20.2495 63.3452 20.037 62.9519 19.2084C62.538 18.3514 61.8412 17.7707 60.9168 17.5228C60.3994 17.3882 59.1852 17.3882 58.6747 17.5299ZM60.3994 19.7537C60.5029 19.8317 60.6477 20.0158 60.7167 20.1574C60.8409 20.4124 60.8478 20.6603 60.8478 24.5344C60.8478 28.5501 60.8478 28.6493 60.7029 28.8901C60.4753 29.3009 60.1579 29.4779 59.7233 29.4425C59.4128 29.4142 59.3163 29.3717 59.1231 29.1663C58.6816 28.713 58.6678 28.536 58.6885 24.3078C58.7092 20.6745 58.7161 20.5611 58.854 20.2495C59.0196 19.8812 59.199 19.7042 59.4749 19.6121C59.7509 19.52 60.1717 19.5909 60.3994 19.7537Z" fill="black" fill-opacity="0.2"/>
<path d="M75.5834 17.5228C74.4175 17.8557 73.5966 18.7835 73.3344 20.0725C73.1137 21.1348 73.2585 22.3601 73.7001 23.295C74.0243 23.9749 74.7418 24.7185 75.7145 25.3843C76.9839 26.2554 77.3564 26.7937 77.4185 27.849C77.4875 28.968 77.1426 29.6337 76.4803 29.6337C75.7697 29.6337 75.48 29.1521 75.4731 27.934C75.4731 27.5019 75.4937 27.0699 75.5282 26.9566L75.5765 26.7654H74.4451H73.3137L73.2378 27.1195C73.1137 27.7073 73.1413 28.798 73.2999 29.4213C73.4724 30.1083 73.6794 30.4836 74.1278 30.8944C75.0729 31.7656 77.046 31.8789 78.2809 31.1352C78.9501 30.7315 79.5227 29.8675 79.7089 28.9751C79.8193 28.4368 79.7986 27.1691 79.6744 26.6237C79.6192 26.3687 79.4606 25.9225 79.3157 25.6322C78.9914 24.9452 78.2188 24.1378 77.2322 23.4579C76.501 22.9479 76.0181 22.4946 75.8318 22.1122C75.6386 21.7368 75.5627 21.0569 75.6455 20.5328C75.7697 19.7679 76.0801 19.3855 76.5769 19.3855C77.2391 19.3855 77.5634 20.1574 77.4944 21.5598L77.4599 22.2326H78.5775H79.702L79.7434 22.013C79.8193 21.6093 79.7848 20.1504 79.6882 19.6688C79.4744 18.656 78.9363 17.9336 78.1429 17.6219C77.6255 17.4165 76.156 17.3599 75.5834 17.5228Z" fill="#1C1C1C"/>
<path d="M75.5834 17.5228C74.4175 17.8557 73.5966 18.7835 73.3344 20.0725C73.1137 21.1348 73.2585 22.3601 73.7001 23.295C74.0243 23.9749 74.7418 24.7185 75.7145 25.3843C76.9839 26.2554 77.3564 26.7937 77.4185 27.849C77.4875 28.968 77.1426 29.6337 76.4803 29.6337C75.7697 29.6337 75.48 29.1521 75.4731 27.934C75.4731 27.5019 75.4937 27.0699 75.5282 26.9566L75.5765 26.7654H74.4451H73.3137L73.2378 27.1195C73.1137 27.7073 73.1413 28.798 73.2999 29.4213C73.4724 30.1083 73.6794 30.4836 74.1278 30.8944C75.0729 31.7656 77.046 31.8789 78.2809 31.1352C78.9501 30.7315 79.5227 29.8675 79.7089 28.9751C79.8193 28.4368 79.7986 27.1691 79.6744 26.6237C79.6192 26.3687 79.4606 25.9225 79.3157 25.6322C78.9914 24.9452 78.2188 24.1378 77.2322 23.4579C76.501 22.9479 76.0181 22.4946 75.8318 22.1122C75.6386 21.7368 75.5627 21.0569 75.6455 20.5328C75.7697 19.7679 76.0801 19.3855 76.5769 19.3855C77.2391 19.3855 77.5634 20.1574 77.4944 21.5598L77.4599 22.2326H78.5775H79.702L79.7434 22.013C79.8193 21.6093 79.7848 20.1504 79.6882 19.6688C79.4744 18.656 78.9363 17.9336 78.1429 17.6219C77.6255 17.4165 76.156 17.3599 75.5834 17.5228Z" fill="black" fill-opacity="0.2"/>
<path d="M75.5834 17.5228C74.4175 17.8557 73.5966 18.7835 73.3344 20.0725C73.1137 21.1348 73.2585 22.3601 73.7001 23.295C74.0243 23.9749 74.7418 24.7185 75.7145 25.3843C76.9839 26.2554 77.3564 26.7937 77.4185 27.849C77.4875 28.968 77.1426 29.6337 76.4803 29.6337C75.7697 29.6337 75.48 29.1521 75.4731 27.934C75.4731 27.5019 75.4937 27.0699 75.5282 26.9566L75.5765 26.7654H74.4451H73.3137L73.2378 27.1195C73.1137 27.7073 73.1413 28.798 73.2999 29.4213C73.4724 30.1083 73.6794 30.4836 74.1278 30.8944C75.0729 31.7656 77.046 31.8789 78.2809 31.1352C78.9501 30.7315 79.5227 29.8675 79.7089 28.9751C79.8193 28.4368 79.7986 27.1691 79.6744 26.6237C79.6192 26.3687 79.4606 25.9225 79.3157 25.6322C78.9914 24.9452 78.2188 24.1378 77.2322 23.4579C76.501 22.9479 76.0181 22.4946 75.8318 22.1122C75.6386 21.7368 75.5627 21.0569 75.6455 20.5328C75.7697 19.7679 76.0801 19.3855 76.5769 19.3855C77.2391 19.3855 77.5634 20.1574 77.4944 21.5598L77.4599 22.2326H78.5775H79.702L79.7434 22.013C79.8193 21.6093 79.7848 20.1504 79.6882 19.6688C79.4744 18.656 78.9363 17.9336 78.1429 17.6219C77.6255 17.4165 76.156 17.3599 75.5834 17.5228Z" fill="black" fill-opacity="0.2"/>
<path d="M75.5834 17.5228C74.4175 17.8557 73.5966 18.7835 73.3344 20.0725C73.1137 21.1348 73.2585 22.3601 73.7001 23.295C74.0243 23.9749 74.7418 24.7185 75.7145 25.3843C76.9839 26.2554 77.3564 26.7937 77.4185 27.849C77.4875 28.968 77.1426 29.6337 76.4803 29.6337C75.7697 29.6337 75.48 29.1521 75.4731 27.934C75.4731 27.5019 75.4937 27.0699 75.5282 26.9566L75.5765 26.7654H74.4451H73.3137L73.2378 27.1195C73.1137 27.7073 73.1413 28.798 73.2999 29.4213C73.4724 30.1083 73.6794 30.4836 74.1278 30.8944C75.0729 31.7656 77.046 31.8789 78.2809 31.1352C78.9501 30.7315 79.5227 29.8675 79.7089 28.9751C79.8193 28.4368 79.7986 27.1691 79.6744 26.6237C79.6192 26.3687 79.4606 25.9225 79.3157 25.6322C78.9914 24.9452 78.2188 24.1378 77.2322 23.4579C76.501 22.9479 76.0181 22.4946 75.8318 22.1122C75.6386 21.7368 75.5627 21.0569 75.6455 20.5328C75.7697 19.7679 76.0801 19.3855 76.5769 19.3855C77.2391 19.3855 77.5634 20.1574 77.4944 21.5598L77.4599 22.2326H78.5775H79.702L79.7434 22.013C79.8193 21.6093 79.7848 20.1504 79.6882 19.6688C79.4744 18.656 78.9363 17.9336 78.1429 17.6219C77.6255 17.4165 76.156 17.3599 75.5834 17.5228Z" fill="black" fill-opacity="0.2"/>
<path d="M39.1504 24.5415V31.4539L41.1028 31.4185C42.6136 31.3902 43.1379 31.3618 43.4621 31.2698C44.628 30.9369 45.311 30.3207 45.7181 29.2017C45.8698 28.7909 45.8767 28.7272 45.8974 24.7398C45.9112 21.2765 45.9043 20.6178 45.8077 20.2141C45.5111 18.8826 44.7039 18.0469 43.4139 17.7352C43.0827 17.6573 42.517 17.629 41.0683 17.629H39.1504V24.5415ZM42.8895 19.8458C43.0827 19.952 43.2069 20.1079 43.3449 20.3841L43.5311 20.7807L43.5518 24.3077C43.5656 27.3107 43.5587 27.8985 43.4621 28.2668C43.269 29.053 42.9378 29.315 42.0686 29.3717L41.565 29.4071V24.499V19.5908L42.0962 19.6404C42.4411 19.6758 42.724 19.7467 42.8895 19.8458Z" fill="#1C1C1C"/>
<path d="M39.1504 24.5415V31.4539L41.1028 31.4185C42.6136 31.3902 43.1379 31.3618 43.4621 31.2698C44.628 30.9369 45.311 30.3207 45.7181 29.2017C45.8698 28.7909 45.8767 28.7272 45.8974 24.7398C45.9112 21.2765 45.9043 20.6178 45.8077 20.2141C45.5111 18.8826 44.7039 18.0469 43.4139 17.7352C43.0827 17.6573 42.517 17.629 41.0683 17.629H39.1504V24.5415ZM42.8895 19.8458C43.0827 19.952 43.2069 20.1079 43.3449 20.3841L43.5311 20.7807L43.5518 24.3077C43.5656 27.3107 43.5587 27.8985 43.4621 28.2668C43.269 29.053 42.9378 29.315 42.0686 29.3717L41.565 29.4071V24.499V19.5908L42.0962 19.6404C42.4411 19.6758 42.724 19.7467 42.8895 19.8458Z" fill="black" fill-opacity="0.2"/>
<path d="M39.1504 24.5415V31.4539L41.1028 31.4185C42.6136 31.3902 43.1379 31.3618 43.4621 31.2698C44.628 30.9369 45.311 30.3207 45.7181 29.2017C45.8698 28.7909 45.8767 28.7272 45.8974 24.7398C45.9112 21.2765 45.9043 20.6178 45.8077 20.2141C45.5111 18.8826 44.7039 18.0469 43.4139 17.7352C43.0827 17.6573 42.517 17.629 41.0683 17.629H39.1504V24.5415ZM42.8895 19.8458C43.0827 19.952 43.2069 20.1079 43.3449 20.3841L43.5311 20.7807L43.5518 24.3077C43.5656 27.3107 43.5587 27.8985 43.4621 28.2668C43.269 29.053 42.9378 29.315 42.0686 29.3717L41.565 29.4071V24.499V19.5908L42.0962 19.6404C42.4411 19.6758 42.724 19.7467 42.8895 19.8458Z" fill="black" fill-opacity="0.2"/>
<path d="M39.1504 24.5415V31.4539L41.1028 31.4185C42.6136 31.3902 43.1379 31.3618 43.4621 31.2698C44.628 30.9369 45.311 30.3207 45.7181 29.2017C45.8698 28.7909 45.8767 28.7272 45.8974 24.7398C45.9112 21.2765 45.9043 20.6178 45.8077 20.2141C45.5111 18.8826 44.7039 18.0469 43.4139 17.7352C43.0827 17.6573 42.517 17.629 41.0683 17.629H39.1504V24.5415ZM42.8895 19.8458C43.0827 19.952 43.2069 20.1079 43.3449 20.3841L43.5311 20.7807L43.5518 24.3077C43.5656 27.3107 43.5587 27.8985 43.4621 28.2668C43.269 29.053 42.9378 29.315 42.0686 29.3717L41.565 29.4071V24.499V19.5908L42.0962 19.6404C42.4411 19.6758 42.724 19.7467 42.8895 19.8458Z" fill="black" fill-opacity="0.2"/>
<path d="M65.0215 24.5343V31.4397H66.1598H67.2981V29.0317V26.6236L67.8707 26.6307C68.1811 26.6307 68.5468 26.6661 68.6779 26.7157C69.078 26.8574 69.1884 27.1902 69.5954 29.4212L69.9541 31.4043L71.1821 31.4255C71.9617 31.4326 72.4032 31.4184 72.4032 31.3689C72.4032 31.1847 71.6236 27.2398 71.5064 26.8361C71.3477 26.2908 71.0372 25.8729 70.6578 25.7029C70.4233 25.5967 70.4026 25.5684 70.5267 25.5329C70.7199 25.4692 71.258 24.8601 71.4305 24.5131C71.7133 23.9394 71.7823 23.4295 71.7823 21.7722C71.7823 20.0936 71.7271 19.7041 71.4098 19.0596C71.2097 18.6559 70.7475 18.1955 70.3543 17.9902C69.7472 17.6785 69.3263 17.629 67.1118 17.629H65.0215V24.5343ZM68.8089 19.8103C68.9676 19.8883 69.1194 20.0511 69.2298 20.2495C69.3953 20.5611 69.4022 20.6036 69.4022 22.0555C69.4022 23.4436 69.3953 23.564 69.2574 23.8261C68.9745 24.3573 68.6779 24.4989 67.8431 24.4989H67.2981V22.0484V19.5908L67.9328 19.6404C68.3122 19.6616 68.6641 19.7324 68.8089 19.8103Z" fill="#1C1C1C"/>
<path d="M65.0215 24.5343V31.4397H66.1598H67.2981V29.0317V26.6236L67.8707 26.6307C68.1811 26.6307 68.5468 26.6661 68.6779 26.7157C69.078 26.8574 69.1884 27.1902 69.5954 29.4212L69.9541 31.4043L71.1821 31.4255C71.9617 31.4326 72.4032 31.4184 72.4032 31.3689C72.4032 31.1847 71.6236 27.2398 71.5064 26.8361C71.3477 26.2908 71.0372 25.8729 70.6578 25.7029C70.4233 25.5967 70.4026 25.5684 70.5267 25.5329C70.7199 25.4692 71.258 24.8601 71.4305 24.5131C71.7133 23.9394 71.7823 23.4295 71.7823 21.7722C71.7823 20.0936 71.7271 19.7041 71.4098 19.0596C71.2097 18.6559 70.7475 18.1955 70.3543 17.9902C69.7472 17.6785 69.3263 17.629 67.1118 17.629H65.0215V24.5343ZM68.8089 19.8103C68.9676 19.8883 69.1194 20.0511 69.2298 20.2495C69.3953 20.5611 69.4022 20.6036 69.4022 22.0555C69.4022 23.4436 69.3953 23.564 69.2574 23.8261C68.9745 24.3573 68.6779 24.4989 67.8431 24.4989H67.2981V22.0484V19.5908L67.9328 19.6404C68.3122 19.6616 68.6641 19.7324 68.8089 19.8103Z" fill="black" fill-opacity="0.2"/>
<path d="M65.0215 24.5343V31.4397H66.1598H67.2981V29.0317V26.6236L67.8707 26.6307C68.1811 26.6307 68.5468 26.6661 68.6779 26.7157C69.078 26.8574 69.1884 27.1902 69.5954 29.4212L69.9541 31.4043L71.1821 31.4255C71.9617 31.4326 72.4032 31.4184 72.4032 31.3689C72.4032 31.1847 71.6236 27.2398 71.5064 26.8361C71.3477 26.2908 71.0372 25.8729 70.6578 25.7029C70.4233 25.5967 70.4026 25.5684 70.5267 25.5329C70.7199 25.4692 71.258 24.8601 71.4305 24.5131C71.7133 23.9394 71.7823 23.4295 71.7823 21.7722C71.7823 20.0936 71.7271 19.7041 71.4098 19.0596C71.2097 18.6559 70.7475 18.1955 70.3543 17.9902C69.7472 17.6785 69.3263 17.629 67.1118 17.629H65.0215V24.5343ZM68.8089 19.8103C68.9676 19.8883 69.1194 20.0511 69.2298 20.2495C69.3953 20.5611 69.4022 20.6036 69.4022 22.0555C69.4022 23.4436 69.3953 23.564 69.2574 23.8261C68.9745 24.3573 68.6779 24.4989 67.8431 24.4989H67.2981V22.0484V19.5908L67.9328 19.6404C68.3122 19.6616 68.6641 19.7324 68.8089 19.8103Z" fill="black" fill-opacity="0.2"/>
<path d="M65.0215 24.5343V31.4397H66.1598H67.2981V29.0317V26.6236L67.8707 26.6307C68.1811 26.6307 68.5468 26.6661 68.6779 26.7157C69.078 26.8574 69.1884 27.1902 69.5954 29.4212L69.9541 31.4043L71.1821 31.4255C71.9617 31.4326 72.4032 31.4184 72.4032 31.3689C72.4032 31.1847 71.6236 27.2398 71.5064 26.8361C71.3477 26.2908 71.0372 25.8729 70.6578 25.7029C70.4233 25.5967 70.4026 25.5684 70.5267 25.5329C70.7199 25.4692 71.258 24.8601 71.4305 24.5131C71.7133 23.9394 71.7823 23.4295 71.7823 21.7722C71.7823 20.0936 71.7271 19.7041 71.4098 19.0596C71.2097 18.6559 70.7475 18.1955 70.3543 17.9902C69.7472 17.6785 69.3263 17.629 67.1118 17.629H65.0215V24.5343ZM68.8089 19.8103C68.9676 19.8883 69.1194 20.0511 69.2298 20.2495C69.3953 20.5611 69.4022 20.6036 69.4022 22.0555C69.4022 23.4436 69.3953 23.564 69.2574 23.8261C68.9745 24.3573 68.6779 24.4989 67.8431 24.4989H67.2981V22.0484V19.5908L67.9328 19.6404C68.3122 19.6616 68.6641 19.7324 68.8089 19.8103Z" fill="black" fill-opacity="0.2"/>
</g>
</g>
<defs>
<clipPath id="clip0_1240_68664">
<rect width="91.4783" height="31.3043" fill="white" transform="translate(0 0.347839)"/>
</clipPath>
<clipPath id="clip1_1240_68664">
<rect width="91.4783" height="31.3043" fill="white" transform="translate(0 0.347778)"/>
</clipPath>
</defs>
</svg>
