<svg width="87" height="32" viewBox="0 0 87 32" fill="none" xmlns="http://www.w3.org/2000/svg">
<g clip-path="url(#clip0_1240_68711)">
<path d="M19.7031 16.6762H23.5905L21.6444 12.0844L19.7031 16.6762Z" fill="#C90C0F"/>
<path fill-rule="evenodd" clip-rule="evenodd" d="M30.0319 0.173828H2.36863C1.30209 0.173828 0.4375 1.0419 0.4375 2.11271V29.8871C0.4375 30.9579 1.3021 31.826 2.36863 31.826H30.0319C31.0985 31.826 31.9631 30.9579 31.9631 29.8871V2.11271C31.9631 1.04189 31.0985 0.173828 30.0319 0.173828ZM17.4716 21.9604L19.0828 18.1339H24.2002L25.82 21.9604H27.5441L21.6458 8.56759L15.7475 21.9604H17.4716ZM5.31346 10.6631H11.6292L4.95048 21.9604H13.8433V20.5027H7.52756L14.2062 9.20535H5.31346V10.6631Z" fill="#C90C0F"/>
<path fill-rule="evenodd" clip-rule="evenodd" d="M35.8945 9.20532V21.9604H39.3429C40.5768 21.9604 41.6597 21.6931 42.5914 21.1586C43.5352 20.6241 44.267 19.8831 44.7874 18.9356C45.3197 17.9759 45.5861 16.8583 45.5861 15.5828C45.5861 14.3074 45.3197 13.1958 44.7874 12.2483C44.267 11.2887 43.5352 10.5416 42.5914 10.0071C41.6597 9.47258 40.5768 9.20532 39.3429 9.20532H35.8945ZM36.8927 20.9582V10.2075H39.3429C40.1293 10.2075 40.8431 10.3351 41.4843 10.5902C42.1378 10.8453 42.6942 11.2097 43.1539 11.6834C43.6139 12.1451 43.9647 12.7099 44.2066 13.3781C44.4607 14.034 44.5876 14.7689 44.5876 15.5828C44.5876 16.3967 44.4607 17.1378 44.2066 17.8059C43.9647 18.4618 43.6139 19.0267 43.1539 19.5005C42.6942 19.9621 42.1378 20.3204 41.4843 20.5755C40.8431 20.8306 40.1293 20.9582 39.3429 20.9582H36.8927Z" fill="#1D1D1B"/>
<path fill-rule="evenodd" clip-rule="evenodd" d="M48.5618 18.1886C48.2473 17.3868 48.0898 16.5183 48.0898 15.5829C48.0898 14.6475 48.2473 13.785 48.5618 12.9954C48.8763 12.1937 49.318 11.5013 49.8866 10.9182C50.4552 10.323 51.1208 9.86134 51.8828 9.53335C52.6574 9.20536 53.498 9.04138 54.4056 9.04138C55.3131 9.04138 56.1481 9.20536 56.91 9.53335C57.6846 9.86134 58.356 10.323 58.9246 10.9182C59.4932 11.5013 59.9349 12.1937 60.2494 12.9954C60.5639 13.785 60.7213 14.6475 60.7213 15.5829C60.7213 16.5183 60.5639 17.3868 60.2494 18.1886C59.9349 18.9782 59.4932 19.6706 58.9246 20.2658C58.356 20.8489 57.6846 21.3044 56.91 21.6324C56.1481 21.9604 55.3131 22.1244 54.4056 22.1244C53.498 22.1244 52.6574 21.9604 51.8828 21.6324C51.1208 21.3044 50.4552 20.8489 49.8866 20.2658C49.318 19.6706 48.8763 18.9782 48.5618 18.1886ZM49.814 12.7403C49.3665 13.5664 49.1426 14.5139 49.1426 15.5829C49.1426 16.6397 49.3665 17.5873 49.814 18.4254C50.2737 19.2636 50.8969 19.9257 51.6833 20.4116C52.482 20.8853 53.3895 21.1222 54.4056 21.1222C55.422 21.1222 56.3235 20.8853 57.1099 20.4116C57.9085 19.9257 58.5314 19.2636 58.9792 18.4254C59.4267 17.5873 59.6506 16.6397 59.6506 15.5829C59.6506 14.5139 59.4267 13.5664 58.9792 12.7403C58.5314 11.9021 57.9085 11.2462 57.1099 10.7724C56.3235 10.2865 55.422 10.0436 54.4056 10.0436C53.3895 10.0436 52.482 10.2865 51.6833 10.7724C50.8969 11.2462 50.2737 11.9021 49.814 12.7403Z" fill="#1D1D1B"/>
<path fill-rule="evenodd" clip-rule="evenodd" d="M63.2305 15.5829C63.2305 16.5183 63.3879 17.3868 63.7024 18.1886C64.0169 18.9782 64.4586 19.6706 65.0272 20.2658C65.5958 20.8489 66.2615 21.3044 67.0238 21.6324C67.798 21.9604 68.639 22.1244 69.5462 22.1244C70.4538 22.1244 71.2887 21.9604 72.0507 21.6324C72.8252 21.3044 73.4966 20.8489 74.0652 20.2658C74.6338 19.6706 75.0755 18.9782 75.39 18.1886C75.7049 17.3868 75.8619 16.5183 75.8619 15.5829C75.8619 14.6475 75.7049 13.785 75.39 12.9954C75.0755 12.1937 74.6338 11.5013 74.0652 10.9182C73.4966 10.323 72.8252 9.86134 72.0507 9.53335C71.2887 9.20536 70.4538 9.04138 69.5462 9.04138C68.639 9.04138 67.798 9.20536 67.0238 9.53335C66.2615 9.86134 65.5958 10.323 65.0272 10.9182C64.4586 11.5013 64.0169 12.1937 63.7024 12.9954C63.3879 13.785 63.2305 14.6475 63.2305 15.5829ZM64.2832 15.5829C64.2832 14.5139 64.5071 13.5664 64.9546 12.7403C65.4143 11.9021 66.0376 11.2462 66.824 10.7724C67.6226 10.2865 68.5301 10.0436 69.5462 10.0436C70.5627 10.0436 71.4641 10.2865 72.2505 10.7724C73.0491 11.2462 73.672 11.9021 74.1198 12.7403C74.5673 13.5664 74.7912 14.5139 74.7912 15.5829C74.7912 16.6397 74.5673 17.5873 74.1198 18.4254C73.672 19.2636 73.0491 19.9257 72.2505 20.4116C71.4641 20.8853 70.5627 21.1222 69.5462 21.1222C68.5301 21.1222 67.6226 20.8853 66.824 20.4116C66.0376 19.9257 65.4143 19.2636 64.9546 18.4254C64.5071 17.5873 64.2832 16.6397 64.2832 15.5829Z" fill="#1D1D1B"/>
<path fill-rule="evenodd" clip-rule="evenodd" d="M85.468 21.9604L81.7617 16.6033H80.0958V21.9604H79.0977V9.20532H82.0014C82.8241 9.20532 83.5563 9.35111 84.1975 9.64265C84.8509 9.9342 85.3652 10.3533 85.7401 10.8999C86.1153 11.4466 86.3026 12.1147 86.3026 12.9043C86.3026 13.6817 86.1153 14.3499 85.7401 14.9087C85.3652 15.4674 84.8509 15.8926 84.1975 16.1841C83.7845 16.364 83.3341 16.486 82.8461 16.5501L86.7019 21.9604H85.468ZM80.0958 10.0982V15.7104H82.0014C82.6426 15.7104 83.2116 15.6072 83.7076 15.4006C84.2158 15.182 84.609 14.8661 84.8872 14.4531C85.1654 14.0279 85.3045 13.5117 85.3045 12.9043C85.3045 12.2969 85.1593 11.7867 84.8689 11.3737C84.5907 10.9607 84.2036 10.6448 83.7076 10.4262C83.2116 10.2075 82.6426 10.0982 82.0014 10.0982H80.0958Z" fill="#1D1D1B"/>
<path d="M86.4524 25.3797V27.479H86.2109V25.9907L84.7031 27.5789V25.4797H84.945V26.9679L86.4524 25.3797Z" fill="#1D1D1B"/>
<path d="M85.2591 25.0855C85.2271 25.0227 85.2109 24.9589 85.2109 24.8942H85.4129C85.4129 24.9189 85.4194 24.9484 85.4327 24.9827C85.4459 25.0151 85.4708 25.0446 85.5067 25.0712C85.5427 25.096 85.5941 25.1084 85.6602 25.1084C85.7267 25.1084 85.7777 25.096 85.814 25.0712C85.85 25.0446 85.8744 25.0151 85.8877 24.9827C85.901 24.9484 85.9078 24.9189 85.9078 24.8942H86.1098C86.1098 24.9589 86.0926 25.0227 86.0584 25.0855C86.0264 25.1464 85.9768 25.1969 85.9107 25.2369C85.8442 25.275 85.7608 25.294 85.6602 25.294C85.5617 25.294 85.4783 25.275 85.41 25.2369C85.3435 25.1969 85.2932 25.1464 85.2591 25.0855Z" fill="#1D1D1B"/>
<path fill-rule="evenodd" clip-rule="evenodd" d="M40.1101 27.4789L40.3624 26.8791H41.1647L41.4184 27.4789H41.6887L40.7643 25.3796L39.8398 27.4789H40.1101ZM40.4598 26.6506H41.0694L40.7643 25.9309L40.4598 26.6506Z" fill="#1D1D1B"/>
<path fill-rule="evenodd" clip-rule="evenodd" d="M36.6291 25.4796V25.7084C36.467 25.712 36.321 25.7433 36.1909 25.8024C36.0544 25.8633 35.9463 25.9509 35.8666 26.0651C35.7889 26.1794 35.75 26.3174 35.75 26.4793C35.75 26.6392 35.7889 26.7772 35.8666 26.8934C35.9463 27.0077 36.0544 27.0962 36.1909 27.159C36.321 27.2163 36.467 27.2466 36.6291 27.2501V27.4789H36.8706V27.2501C37.0327 27.2466 37.1776 27.2163 37.3059 27.159C37.4446 27.0962 37.5525 27.0077 37.6305 26.8934C37.7099 26.7772 37.7498 26.6392 37.7498 26.4793C37.7498 26.3174 37.7099 26.1794 37.6305 26.0651C37.5525 25.9509 37.4446 25.8633 37.3059 25.8024C37.1776 25.7433 37.0327 25.712 36.8706 25.7084V25.4796H36.6291ZM36.3133 26.0108C36.4055 25.9741 36.5109 25.9542 36.6291 25.9513V27.0073C36.5109 27.0044 36.4055 26.9855 36.3133 26.9505C36.2127 26.9105 36.134 26.8515 36.0771 26.7735C36.0203 26.6935 35.9918 26.5954 35.9918 26.4793C35.9918 26.3612 36.0203 26.2632 36.0771 26.1851C36.134 26.107 36.2127 26.049 36.3133 26.0108ZM37.1866 26.9505C37.0942 26.9855 36.9889 27.0044 36.8706 27.0073V25.9513C36.9889 25.9542 37.0942 25.9741 37.1866 26.0108C37.2872 26.0489 37.3659 26.107 37.4227 26.1851C37.4795 26.2632 37.5079 26.3612 37.5079 26.4793C37.5079 26.5954 37.4795 26.6935 37.4227 26.7735C37.3659 26.8515 37.2872 26.9105 37.1866 26.9505Z" fill="#1D1D1B"/>
<path fill-rule="evenodd" clip-rule="evenodd" d="M44.2224 26.2793V25.7081H45.0472V25.4796H43.9805V27.4789H44.521C44.6497 27.4789 44.7647 27.4551 44.865 27.4075C44.9674 27.358 45.0479 27.2885 45.1069 27.199C45.1676 27.1076 45.1978 27.001 45.1978 26.8791C45.1978 26.7553 45.1676 26.6487 45.1069 26.5592C45.0479 26.4698 44.9674 26.4012 44.865 26.3536C44.7647 26.3041 44.6497 26.2793 44.521 26.2793H44.2224ZM44.2224 27.2504H44.521C44.6062 27.2504 44.681 27.2371 44.7457 27.2104C44.8122 27.1819 44.8632 27.14 44.8991 27.0848C44.9372 27.0295 44.9563 26.961 44.9563 26.8791C44.9563 26.7972 44.9372 26.7287 44.8991 26.6735C44.8632 26.6182 44.8122 26.5773 44.7457 26.5507C44.681 26.5221 44.6062 26.5078 44.521 26.5078H44.2224V27.2504Z" fill="#1D1D1B"/>
<path fill-rule="evenodd" clip-rule="evenodd" d="M47.5859 27.4789H47.8278V26.6792H48.1265C48.2555 26.6792 48.3702 26.6554 48.4708 26.6078C48.5733 26.5583 48.6538 26.4888 48.7127 26.3993C48.7735 26.3079 48.8037 26.2013 48.8037 26.0794C48.8037 25.9556 48.7735 25.849 48.7127 25.7595C48.6538 25.67 48.5733 25.6015 48.4708 25.5539C48.3702 25.5044 48.2555 25.4796 48.1265 25.4796H47.5859V27.4789ZM48.1265 26.4507H47.8278V25.7081H48.1265C48.2555 25.7081 48.3598 25.7395 48.4396 25.8024C48.5211 25.8633 48.5618 25.9556 48.5618 26.0794C48.5618 26.2013 48.5212 26.2936 48.4396 26.3564C48.3598 26.4193 48.2555 26.4507 48.1265 26.4507Z" fill="#1D1D1B"/>
<path d="M52.9411 25.3796V27.4789H52.6992V25.9907L51.1914 27.5789V25.4796H51.4333V26.9678L52.9411 25.3796Z" fill="#1D1D1B"/>
<path d="M55.4453 27.4789H55.6868V26.5091L56.5121 27.4789H56.8108L55.9061 26.4164L56.768 25.4796H56.4693L55.6868 26.3407V25.4796H55.4453V27.4789Z" fill="#1D1D1B"/>
<path fill-rule="evenodd" clip-rule="evenodd" d="M59.4132 26.8791L59.1609 27.4789H58.8906L59.8151 25.3796L60.7395 27.4789H60.4692L60.2155 26.8791H59.4132ZM60.1202 26.6506H59.5106L59.8151 25.9309L60.1202 26.6506Z" fill="#1D1D1B"/>
<path fill-rule="evenodd" clip-rule="evenodd" d="M66.826 25.3796L67.5794 27.2504H67.836V27.7931H67.6225V27.4789H66.0295V27.7931H65.8164V27.2504H66.073L66.826 25.3796ZM66.826 25.9309L67.3267 27.2504H66.3257L66.826 25.9309Z" fill="#1D1D1B"/>
<path fill-rule="evenodd" clip-rule="evenodd" d="M71.0142 26.388C71.0264 26.3906 71.0383 26.3934 71.0502 26.3964C71.1318 26.4174 71.2029 26.4498 71.2637 26.4935C71.3262 26.5354 71.3744 26.5897 71.4085 26.6564C71.4426 26.723 71.4599 26.802 71.4599 26.8934C71.4599 27.0248 71.4294 27.1342 71.3686 27.2219C71.31 27.3075 71.2295 27.3723 71.1271 27.4161C71.0264 27.4579 70.9118 27.4789 70.7828 27.4789H70.2422V25.4796H70.7544C70.8737 25.4796 70.9772 25.4977 71.0645 25.5339C71.1537 25.5701 71.2227 25.6253 71.2719 25.6996C71.3212 25.7719 71.346 25.8652 71.346 25.9794C71.346 26.0727 71.3212 26.1527 71.2719 26.2194C71.2227 26.286 71.1537 26.3365 71.0645 26.3707C71.0559 26.3741 71.0469 26.3773 71.0379 26.3804C71.03 26.3831 71.0221 26.3856 71.0142 26.388ZM70.4841 26.4993V27.2647H70.7828C70.8679 27.2647 70.9431 27.2495 71.0074 27.219C71.0739 27.1885 71.1249 27.1448 71.1612 27.0876C71.1989 27.0305 71.218 26.961 71.218 26.8791C71.218 26.8182 71.2076 26.7639 71.1868 26.7163C71.1659 26.6687 71.1354 26.6287 71.0958 26.5963C71.0577 26.564 71.0121 26.5402 70.9593 26.525C70.9061 26.5078 70.8471 26.4993 70.7828 26.4993L70.4841 26.4993ZM70.4841 26.2879H70.7544C70.8205 26.2879 70.8805 26.2765 70.9334 26.2536C70.9865 26.2308 71.0282 26.1974 71.0588 26.1537C71.089 26.1099 71.1041 26.0566 71.1041 25.9937C71.1041 25.8985 71.071 25.8252 71.0045 25.7738C70.9384 25.7205 70.8546 25.6938 70.7544 25.6938H70.4841V26.2879Z" fill="#1D1D1B"/>
<path d="M75.0129 27.4789V27.2504H74.1169V26.5078H74.9561V26.2793H74.1169V25.7081H75.0129V25.4796H73.875V27.4789H75.0129Z" fill="#1D1D1B"/>
<path fill-rule="evenodd" clip-rule="evenodd" d="M77.7302 27.4789H77.4883V25.4796H78.0289C78.1579 25.4796 78.2725 25.5044 78.3732 25.5539C78.4756 25.6015 78.5561 25.67 78.6147 25.7595C78.6755 25.849 78.706 25.9556 78.706 26.0794C78.706 26.2013 78.6755 26.3079 78.6147 26.3993C78.5561 26.4888 78.4756 26.5583 78.3732 26.6078C78.2725 26.6554 78.1579 26.6792 78.0289 26.6792H77.7302V27.4789ZM77.7302 26.4507H78.0289C78.1579 26.4507 78.2621 26.4193 78.3419 26.3564C78.4231 26.2936 78.4641 26.2013 78.4641 26.0794C78.4641 25.9556 78.4231 25.8633 78.3419 25.8024C78.2621 25.7395 78.1579 25.7081 78.0289 25.7081H77.7302V26.4507Z" fill="#1D1D1B"/>
<path d="M82.2317 27.4789V27.2504H81.3353V26.5078H82.1745V26.2793H81.3353V25.7081H82.2317V25.4796H81.0938V27.4789H82.2317Z" fill="#1D1D1B"/>
<path d="M11.6318 10.663H5.3161V9.20532H14.2089L7.53021 20.5026H13.8459V21.9604H4.95312L11.6318 10.663Z" fill="white"/>
<path fill-rule="evenodd" clip-rule="evenodd" d="M19.0854 18.1339L17.4741 21.9604H15.75L21.6483 8.56763L27.5466 21.9604H25.8225L24.2027 18.1339H19.0854ZM19.707 16.6762H23.5944L21.6483 12.0844L19.707 16.6762Z" fill="white"/>
</g>
<defs>
<clipPath id="clip0_1240_68711">
<rect width="86.2609" height="31.6522" fill="white" transform="translate(0.4375 0.173889)"/>
</clipPath>
</defs>
</svg>
